<svg xmlns="http://www.w3.org/2000/svg" version="1.1" xmlns:xlink="http://www.w3.org/1999/xlink" xmlns:svgjs="http://svgjs.dev/svgjs" width="1440" height="560" preserveAspectRatio="none" viewBox="0 0 1440 560"><g mask="url(&quot;#SvgjsMask1004&quot;)" fill="none"><path d="M526.84 582.42C615.81 576.46 586.14 413.73 837.21 406.65 1088.27 399.57 1294.8 207.56 1457.94 205.05" stroke="rgba(0, 0, 0, 1)" stroke-width="2"></path><path d="M462.66 642.63C598.23 613.57 648.52 265.03 863.71 259.55 1078.89 254.07 1064.23 329.55 1264.75 329.55 1465.28 329.55 1564.02 259.81 1665.8 259.55" stroke="rgba(0, 0, 0, 1)" stroke-width="2"></path><path d="M584.13 593.04C691.39 577.45 641.79 336.37 924.15 324.07 1206.51 311.77 1425.65 108.33 1604.19 105.67" stroke="rgba(0, 0, 0, 1)" stroke-width="2"></path><path d="M435.74 576.1C593.69 515.56 609.12 52.92 844.04 36.58 1078.97 20.24 1048.2 106.58 1252.35 106.58 1456.5 106.58 1557.09 36.83 1660.65 36.58" stroke="rgba(0, 0, 0, 1)" stroke-width="2"></path><path d="M771.38 625.23C897.15 608.44 969.63 318.65 1175.35 317.94 1381.06 317.23 1471.5 466.69 1579.31 469.14" stroke="rgba(0, 0, 0, 1)" stroke-width="2"></path></g><defs><mask id="SvgjsMask1004"><rect width="1440" height="560" fill="#ffffff"></rect></mask></defs></svg>