<svg xmlns="http://www.w3.org/2000/svg" version="1.1" xmlns:xlink="http://www.w3.org/1999/xlink" xmlns:svgjs="http://svgjs.dev/svgjs" width="1440" height="560" preserveAspectRatio="none" viewBox="0 0 1440 560"><g mask="url(&quot;#SvgjsMask1024&quot;)" fill="none"><path d="M213 377L212 223" stroke-width="8" stroke="url(&quot;#SvgjsLinearGradient1025&quot;)" stroke-linecap="round" class="Down"></path><path d="M705 15L704 319" stroke-width="8" stroke="url(&quot;#SvgjsLinearGradient1026&quot;)" stroke-linecap="round" class="Up"></path><path d="M914 362L913 558" stroke-width="8" stroke="url(&quot;#SvgjsLinearGradient1026&quot;)" stroke-linecap="round" class="Up"></path><path d="M141 556L140 863" stroke-width="8" stroke="url(&quot;#SvgjsLinearGradient1026&quot;)" stroke-linecap="round" class="Up"></path><path d="M721 65L720 -337" stroke-width="10" stroke="url(&quot;#SvgjsLinearGradient1026&quot;)" stroke-linecap="round" class="Up"></path><path d="M546 523L545 252" stroke-width="10" stroke="url(&quot;#SvgjsLinearGradient1025&quot;)" stroke-linecap="round" class="Down"></path><path d="M391 170L390 -4" stroke-width="6" stroke="url(&quot;#SvgjsLinearGradient1026&quot;)" stroke-linecap="round" class="Up"></path><path d="M250 547L249 935" stroke-width="10" stroke="url(&quot;#SvgjsLinearGradient1025&quot;)" stroke-linecap="round" class="Down"></path><path d="M1128 84L1127 -242" stroke-width="8" stroke="url(&quot;#SvgjsLinearGradient1026&quot;)" stroke-linecap="round" class="Up"></path><path d="M652 466L651 186" stroke-width="8" stroke="url(&quot;#SvgjsLinearGradient1025&quot;)" stroke-linecap="round" class="Down"></path><path d="M343 521L342 177" stroke-width="6" stroke="url(&quot;#SvgjsLinearGradient1025&quot;)" stroke-linecap="round" class="Down"></path><path d="M1187 228L1186 -155" stroke-width="6" stroke="url(&quot;#SvgjsLinearGradient1025&quot;)" stroke-linecap="round" class="Down"></path><path d="M28 548L27 796" stroke-width="8" stroke="url(&quot;#SvgjsLinearGradient1025&quot;)" stroke-linecap="round" class="Down"></path><path d="M1081 370L1080 639" stroke-width="6" stroke="url(&quot;#SvgjsLinearGradient1026&quot;)" stroke-linecap="round" class="Up"></path><path d="M729 172L728 466" stroke-width="10" stroke="url(&quot;#SvgjsLinearGradient1026&quot;)" stroke-linecap="round" class="Up"></path><path d="M1349 362L1348 -29" stroke-width="10" stroke="url(&quot;#SvgjsLinearGradient1026&quot;)" stroke-linecap="round" class="Up"></path><path d="M853 285L852 -82" stroke-width="8" stroke="url(&quot;#SvgjsLinearGradient1026&quot;)" stroke-linecap="round" class="Up"></path><path d="M526 312L525 670" stroke-width="8" stroke="url(&quot;#SvgjsLinearGradient1025&quot;)" stroke-linecap="round" class="Down"></path><path d="M868 280L867 -57" stroke-width="6" stroke="url(&quot;#SvgjsLinearGradient1026&quot;)" stroke-linecap="round" class="Up"></path><path d="M1330 551L1329 205" stroke-width="8" stroke="url(&quot;#SvgjsLinearGradient1026&quot;)" stroke-linecap="round" class="Up"></path><path d="M1259 186L1258 -92" stroke-width="6" stroke="url(&quot;#SvgjsLinearGradient1025&quot;)" stroke-linecap="round" class="Down"></path><path d="M1144 556L1143 748" stroke-width="6" stroke="url(&quot;#SvgjsLinearGradient1025&quot;)" stroke-linecap="round" class="Down"></path><path d="M641 461L640 275" stroke-width="8" stroke="url(&quot;#SvgjsLinearGradient1026&quot;)" stroke-linecap="round" class="Up"></path><path d="M1224 52L1223 237" stroke-width="10" stroke="url(&quot;#SvgjsLinearGradient1026&quot;)" stroke-linecap="round" class="Up"></path><path d="M1334 458L1333 190" stroke-width="8" stroke="url(&quot;#SvgjsLinearGradient1025&quot;)" stroke-linecap="round" class="Down"></path><path d="M876 102L875 500" stroke-width="8" stroke="url(&quot;#SvgjsLinearGradient1026&quot;)" stroke-linecap="round" class="Up"></path><path d="M1316 175L1315 339" stroke-width="6" stroke="url(&quot;#SvgjsLinearGradient1026&quot;)" stroke-linecap="round" class="Up"></path><path d="M679 205L678 592" stroke-width="8" stroke="url(&quot;#SvgjsLinearGradient1025&quot;)" stroke-linecap="round" class="Down"></path><path d="M551 294L550 123" stroke-width="8" stroke="url(&quot;#SvgjsLinearGradient1026&quot;)" stroke-linecap="round" class="Up"></path><path d="M806 295L805 120" stroke-width="6" stroke="url(&quot;#SvgjsLinearGradient1026&quot;)" stroke-linecap="round" class="Up"></path><path d="M631 61L630 458" stroke-width="10" stroke="url(&quot;#SvgjsLinearGradient1025&quot;)" stroke-linecap="round" class="Down"></path><path d="M1088 306L1087 586" stroke-width="10" stroke="url(&quot;#SvgjsLinearGradient1026&quot;)" stroke-linecap="round" class="Up"></path><path d="M1144 340L1143 43" stroke-width="6" stroke="url(&quot;#SvgjsLinearGradient1026&quot;)" stroke-linecap="round" class="Up"></path><path d="M404 402L403 662" stroke-width="8" stroke="url(&quot;#SvgjsLinearGradient1025&quot;)" stroke-linecap="round" class="Down"></path><path d="M1282 305L1281 578" stroke-width="10" stroke="url(&quot;#SvgjsLinearGradient1026&quot;)" stroke-linecap="round" class="Up"></path><path d="M44 134L43 -226" stroke-width="10" stroke="url(&quot;#SvgjsLinearGradient1025&quot;)" stroke-linecap="round" class="Down"></path></g><defs><mask id="SvgjsMask1024"><rect width="1440" height="560" fill="#ffffff"></rect></mask><linearGradient x1="0%" y1="0%" x2="0%" y2="100%" id="SvgjsLinearGradient1025"><stop stop-color="rgba(0, 0, 0, 0)" offset="0"></stop><stop stop-color="rgba(0, 0, 0, 1)" offset="1"></stop></linearGradient><linearGradient x1="0%" y1="100%" x2="0%" y2="0%" id="SvgjsLinearGradient1026"><stop stop-color="rgba(0, 0, 0, 0)" offset="0"></stop><stop stop-color="stroke-current" offset="1"></stop></linearGradient></defs></svg>