<svg xmlns="http://www.w3.org/2000/svg" viewBox="0 0 512 512" id="yuck"><circle cx="256.8" cy="255" r="255" fill="#ecb13a"></circle><circle cx="251" cy="243.1" r="241.6" fill="#ffde4f"></circle><path fill="#645033" d="M121.1 244.5c-3.3 0-6.4-2-7.6-5.2-1.7-4.2.4-9 4.6-10.7l71.9-28.7-71.9-25c-4.3-1.5-6.6-6.2-5.1-10.5s6.2-6.6 10.5-5.1l92.8 32.2c3.2 1.1 5.4 4.2 5.5 7.6.1 3.4-2 6.6-5.2 7.8l-92.4 36.9c-1 .5-2.1.7-3.1.7zm289.2-1.6c-.9 0-1.8-.1-2.7-.5l-92.8-32.2c-3.2-1.1-5.4-4.2-5.5-7.6-.1-3.4 2-6.6 5.2-7.8l92.4-36.8c4.2-1.7 9 .4 10.7 4.6 1.7 4.2-.4 9-4.6 10.7l-72 28.6 71.9 25c4.3 1.5 6.6 6.2 5.1 10.5-1.1 3.3-4.3 5.5-7.7 5.5z"></path><path fill="#ecb13a" d="M317.3 393.1c-.8 0-1.6-.1-2.3-.3-29.9-8.8-61.7-9.4-92-1.8l-7.4 1.9c-4.4 1.1-8.9-1.6-10-6-1.1-4.4 1.6-8.9 6-10l7.4-1.9c33.1-8.4 67.9-7.7 100.7 2 4.4 1.3 6.9 5.9 5.6 10.2-1.1 3.6-4.4 5.9-8 5.9z"></path><path fill="#645033" d="M387.3 348.1c0 43.6-54.4-1.3-121.4-1.3s-121.4 44.9-121.4 1.3 54.4-92.7 121.4-92.7 121.4 49.1 121.4 92.7z"></path><path fill="#ef4f43" d="M351.6 349.4c.2 21.7-38-.5-84.9-.4s-84.7 22.6-84.9.9c-.2-21.7 37.7-39.4 84.6-39.6s85 17.4 85.2 39.1z"></path></svg>