<?xml version="1.0" encoding="utf-8"?>
<!-- Generator: Adobe Illustrator 23.0.3, SVG Export Plug-In . SVG Version: 6.00 Build 0)  -->
<svg version="1.1" id="Layer_1" xmlns="http://www.w3.org/2000/svg" xmlns:xlink="http://www.w3.org/1999/xlink" x="0px" y="0px"
	 viewBox="0 0 200 200" style="enable-background:new 0 0 200 200;" xml:space="preserve">
<style type="text/css">
	.st0{fill:#E0EBFC;}
	.st1{fill:#F9A7A7;}
	.st2{fill:#D25627;}
	.st3{fill:none;stroke:#D25627;stroke-width:2;stroke-linecap:round;stroke-linejoin:round;}
	.st4{fill:#C98A5B;}
	.st5{fill:#0C0C08;}
	.st6{fill:#BB6B58;}
</style>
<g>
	<path class="st0" d="M173.06,83.97L173.06,83.97c-4.92-5.36-10.59-10.26-17.02-14.53c-16.15-10.72-34.64-15.91-52.97-16.01v0.04
		c-19.48-0.58-39.31,4.56-56.5,15.97c-6.43,4.26-12.1,9.16-17.02,14.53l0,0c0,0-10.85,11.26-18.9,24.54l22.18,22.29
		c1.34,1.39,2.72,2.73,4.14,4.02c0.01,0.01,0.02,0.02,0.04,0.04v-0.01c18.01,16.45,41.93,24.98,66.07,24.7v-0.02
		c22.93-0.54,45.41-9.03,62.54-24.67v0.01c0.01-0.01,0.02-0.02,0.04-0.04c1.42-1.29,2.8-2.63,4.14-4.02l22.18-22.29
		C183.91,95.23,173.06,83.97,173.06,83.97L173.06,83.97z"/>
	<path class="st0" d="M162.65,106.49c0-17.5-7.49-33.24-19.44-44.21c-12.78-5.88-26.5-8.78-40.13-8.86v0.04
		c-12.94-0.39-26.02,1.77-38.39,6.59c-13.43,11-22.01,27.71-22.01,46.43c0,18.03,7.96,34.19,20.56,45.19
		c12.52,5.35,26.15,8.04,39.85,7.87v-0.02c14.52-0.34,28.85-3.88,41.77-10.39C155.83,138.27,162.65,123.18,162.65,106.49
		L162.65,106.49z"/>
	<g>
		<path class="st1" d="M189.11,107.25L167.49,96.5l-15.73-20.17c-0.94-1.21-2.7-1.43-3.91-0.48s-1.43,2.7-0.48,3.91l5.19,6.65H141.7
			c-1.54,0-2.79,1.25-2.79,2.79s1.25,2.79,2.79,2.79h15.19l6.59,8.45c0.26,0.33,0.58,0.6,0.96,0.78l7.39,3.68l-8.73,4.64h-19.33
			c-1.54,0-2.79,1.25-2.79,2.79s1.25,2.79,2.79,2.79h9.64c-0.28,0.44-0.44,0.95-0.44,1.49v8.59c0,1.54,1.25,2.79,2.79,2.79
			s2.79-1.25,2.79-2.79v-6.91l19.43-10.32l11.92,5.93l2.07-2.08C191.03,110.25,190.08,108.74,189.11,107.25L189.11,107.25z"/>
		<path class="st1" d="M46.57,121.83l11.09,14.53c0.5,0.66,1.28,1.04,2.1,1.04h6.28c1.46,0,2.65-1.18,2.65-2.65
			c0-1.46-1.18-2.65-2.65-2.65h-4.97l-8.43-11.05l7.46-0.95c1.45-0.19,2.47-1.51,2.29-2.96c-0.19-1.45-1.51-2.47-2.96-2.29
			l-17.38,2.22l-12.46-9.36l6-2.28c0.6-0.23,1.1-0.67,1.4-1.24l4.24-8.04c0.03,0,0.06,0.01,0.09,0.01c0.13,0,0.26-0.01,0.39-0.03
			l18.45-2.72c1.45-0.21,2.45-1.56,2.23-3c-0.21-1.45-1.55-2.44-3-2.23L44.25,90.4l4.11-7.8c0.68-1.29,0.19-2.89-1.11-3.57
			c-1.29-0.68-2.89-0.19-3.57,1.11l-10.92,20.71l-20.74,7.89c-0.36,0.14-0.67,0.35-0.92,0.6l3.91,3.93l8.73-3.32l15.99,12.02
			c0.46,0.35,1.02,0.53,1.59,0.53c0.11,0,0.22-0.01,0.33-0.02L46.57,121.83z"/>
	</g>
	<g>
		<path class="st2" d="M101.85,161.07c-24.72,0-48.03-8.86-65.78-25.02c-0.06-0.05-0.12-0.1-0.17-0.15
			c-1.47-1.34-2.87-2.7-4.16-4.05L9.58,109.57c-0.49-0.49-0.58-1.26-0.22-1.85c8.04-13.27,19-24.69,19.11-24.8
			c0.02-0.02,0.03-0.03,0.05-0.05c5.08-5.54,10.87-10.48,17.22-14.69c16.82-11.17,36.53-16.78,57.04-16.23
			c0.1-0.02,0.2-0.03,0.31-0.03c19.33,0.11,37.93,5.74,53.8,16.26c6.35,4.21,12.14,9.15,17.22,14.69c0.02,0.02,0.03,0.03,0.05,0.05
			c0.11,0.11,11.06,11.54,19.11,24.81c0.36,0.59,0.27,1.36-0.22,1.85l-22.18,22.29c-1.29,1.34-2.7,2.71-4.18,4.06
			c-0.02,0.01-0.03,0.03-0.05,0.04c-17.02,15.54-39.48,24.44-63.26,25.06c-0.09,0.02-0.19,0.03-0.28,0.03
			C102.67,161.07,102.26,161.07,101.85,161.07L101.85,161.07z M37.99,133.72c0.01,0.01,0.02,0.01,0.02,0.02
			c17.19,15.7,39.82,24.31,63.83,24.31c0.32,0,0.63,0,0.94,0c0.08-0.02,0.16-0.02,0.24-0.03c23.15-0.55,45.01-9.17,61.56-24.28
			c0.01-0.01,0.02-0.02,0.03-0.03l0,0c1.44-1.32,2.81-2.65,4.07-3.96l21.36-21.47c-7.46-12-17.1-22.24-18.01-23.2
			c-0.03-0.03-0.07-0.06-0.1-0.1c-4.93-5.39-10.56-10.2-16.74-14.29C139.91,60.55,122,55.1,103.38,54.93
			c-0.12,0.03-0.24,0.04-0.37,0.04C83.03,54.39,63.8,59.82,47.4,70.7c-6.17,4.1-11.81,8.91-16.74,14.29
			c-0.03,0.03-0.06,0.07-0.1,0.1c-0.91,0.96-10.55,11.2-18.01,23.2l21.34,21.45C35.18,131.07,36.55,132.4,37.99,133.72
			C37.99,133.71,37.99,133.72,37.99,133.72L37.99,133.72z"/>
		<g>
			<g>
				<path class="st3" d="M104.34,161c-0.32,0.01-0.65,0.02-0.97,0.03c-0.09,0.02-0.19,0.03-0.28,0.03
					c-0.41,0.01-0.83,0.01-1.24,0.01c-0.83,0-1.67-0.01-2.5-0.03"/>
				<path class="st3" d="M94.38,160.8c-21.92-1.6-42.36-10.22-58.31-24.74c-0.06-0.05-0.12-0.1-0.17-0.15
					c-1.47-1.34-2.87-2.7-4.16-4.05L9.58,109.57c-0.49-0.49-0.58-1.26-0.22-1.85c8.04-13.27,19-24.69,19.11-24.8
					c0.02-0.02,0.03-0.03,0.05-0.05c5.08-5.54,10.87-10.48,17.22-14.69c16.82-11.17,36.53-16.78,57.04-16.23
					c0.1-0.02,0.2-0.03,0.31-0.03c19.33,0.11,37.93,5.74,53.8,16.26c6.35,4.21,12.14,9.15,17.22,14.69
					c0.02,0.02,0.03,0.03,0.05,0.05c0.11,0.11,11.06,11.54,19.11,24.81c0.36,0.59,0.27,1.36-0.22,1.85l-22.18,22.29
					c-1.29,1.34-2.7,2.71-4.18,4.06c-0.02,0.01-0.03,0.03-0.05,0.04c-16.2,14.79-37.31,23.56-59.81,24.91"/>
			</g>
			<g>
				<path class="st3" d="M36.17,132.01c0.59,0.57,1.2,1.14,1.81,1.7l0.01,0.01l0,0c0.01,0.01,0.02,0.01,0.02,0.02
					c0.61,0.55,1.22,1.1,1.84,1.64"/>
				<path class="st3" d="M43.84,138.63c16.33,12.59,36.62,19.42,58,19.42c0.32,0,0.63,0,0.94,0c0.08-0.02,0.16-0.02,0.24-0.03
					c23.15-0.55,45.01-9.17,61.56-24.28c0.01-0.01,0.02-0.02,0.03-0.03l0,0c1.44-1.32,2.81-2.65,4.07-3.96l17.79-17.88"/>
				<path class="st3" d="M188.29,110.06l1.76-1.77c-0.44-0.71-0.89-1.41-1.35-2.11"/>
				<path class="st3" d="M185.93,102.09c-6.49-9.15-13.14-16.22-13.89-17.01c-0.03-0.03-0.07-0.06-0.1-0.1
					c-4.93-5.39-10.56-10.2-16.74-14.29c-15.28-10.14-33.19-15.59-51.81-15.76c-0.12,0.03-0.24,0.04-0.37,0.04
					C83.03,54.39,63.8,59.82,47.4,70.7c-6.17,4.1-11.81,8.91-16.74,14.29c-0.03,0.03-0.06,0.07-0.1,0.1
					c-0.8,0.85-8.4,8.91-15.3,19.04"/>
				<path class="st3" d="M13.9,106.17c-0.45,0.7-0.9,1.4-1.35,2.11l1.76,1.77"/>
				<path class="st3" d="M17.44,113.19l16.46,16.54c0.23,0.24,0.46,0.48,0.7,0.72"/>
			</g>
		</g>
	</g>
	<path class="st4" d="M103.79,141.78c-20.01,0-36.28-16.28-36.28-36.28s16.28-36.28,36.28-36.28s36.28,16.28,36.28,36.28
		S123.8,141.78,103.79,141.78z"/>
	<path class="st5" d="M102.84,118.56c-7.59,0-13.77-6.18-13.77-13.77s6.18-13.77,13.77-13.77c7.59,0,13.77,6.18,13.77,13.77
		S110.44,118.56,102.84,118.56z"/>
</g>
<g>
	<path class="st0" d="M173.98,84.59L173.98,84.59c-4.92-5.36-10.59-10.26-17.02-14.53c-16.15-10.72-34.64-15.91-52.97-16.01v0.04
		c-19.48-0.58-39.31,4.56-56.5,15.97c-6.43,4.26-12.1,9.16-17.02,14.53l0,0c0,0-10.85,11.26-18.9,24.54l22.18,22.29
		c1.34,1.39,2.72,2.73,4.14,4.02c0.01,0.01,0.02,0.02,0.04,0.04v-0.01c18.01,16.45,41.93,24.98,66.07,24.7v-0.02
		c22.93-0.54,45.41-9.03,62.54-24.67v0.01c0.01-0.01,0.02-0.02,0.04-0.04c1.42-1.29,2.8-2.63,4.14-4.02l22.18-22.29
		C184.83,95.85,173.98,84.59,173.98,84.59L173.98,84.59z"/>
	<path class="st0" d="M163.57,107.11c0-17.5-7.49-33.24-19.44-44.21c-12.78-5.88-26.5-8.78-40.13-8.86v0.04
		c-12.94-0.39-26.02,1.77-38.39,6.59c-13.43,11-22.01,27.71-22.01,46.43c0,18.03,7.96,34.19,20.56,45.19
		c12.52,5.35,26.15,8.04,39.85,7.87v-0.02c14.52-0.34,28.85-3.88,41.77-10.39C156.75,138.89,163.57,123.8,163.57,107.11
		L163.57,107.11z"/>
	<g>
		<path class="st1" d="M190.03,107.87l-21.62-10.75l-15.73-20.17c-0.94-1.21-2.7-1.43-3.91-0.48s-1.43,2.7-0.48,3.91l5.19,6.65
			h-10.86c-1.54,0-2.79,1.25-2.79,2.79s1.25,2.79,2.79,2.79h15.19l6.59,8.45c0.26,0.33,0.58,0.6,0.96,0.78l7.39,3.68l-8.73,4.64
			h-19.33c-1.54,0-2.79,1.25-2.79,2.79s1.25,2.79,2.79,2.79h9.64c-0.28,0.44-0.44,0.95-0.44,1.49v8.59c0,1.54,1.25,2.79,2.79,2.79
			s2.79-1.25,2.79-2.79v-6.91l19.43-10.32l11.92,5.93l2.07-2.08C191.95,110.87,191,109.36,190.03,107.87L190.03,107.87z"/>
		<path class="st1" d="M47.49,122.45l11.09,14.53c0.5,0.66,1.28,1.04,2.1,1.04h6.28c1.46,0,2.65-1.18,2.65-2.65
			c0-1.46-1.18-2.65-2.65-2.65h-4.97l-8.43-11.05l7.46-0.95c1.45-0.19,2.47-1.51,2.29-2.96c-0.19-1.45-1.51-2.47-2.96-2.29
			l-17.38,2.22l-12.46-9.36l6-2.28c0.6-0.23,1.1-0.67,1.4-1.24l4.24-8.04c0.03,0,0.06,0.01,0.09,0.01c0.13,0,0.26-0.01,0.39-0.03
			l18.45-2.72c1.45-0.21,2.45-1.56,2.23-3c-0.21-1.45-1.55-2.44-3-2.23l-15.14,2.22l4.11-7.8c0.68-1.29,0.19-2.89-1.11-3.57
			c-1.29-0.68-2.89-0.19-3.57,1.11l-10.92,20.71l-20.74,7.89c-0.36,0.14-0.67,0.35-0.92,0.6l3.91,3.93l8.73-3.32l15.99,12.02
			c0.46,0.35,1.02,0.53,1.59,0.53c0.11,0,0.22-0.01,0.33-0.02L47.49,122.45z"/>
	</g>
	<g>
		<path class="st2" d="M102.77,161.69c-24.72,0-48.03-8.86-65.78-25.02c-0.06-0.05-0.12-0.1-0.17-0.15
			c-1.47-1.34-2.87-2.7-4.16-4.05L10.5,110.19c-0.49-0.49-0.58-1.26-0.22-1.85c8.04-13.27,19-24.69,19.11-24.8
			c0.02-0.02,0.03-0.03,0.05-0.05c5.08-5.54,10.87-10.48,17.22-14.69c16.82-11.17,36.53-16.78,57.04-16.23
			c0.1-0.02,0.2-0.03,0.31-0.03c19.33,0.11,37.93,5.74,53.8,16.26c6.35,4.21,12.14,9.15,17.22,14.69c0.02,0.02,0.03,0.03,0.05,0.05
			c0.11,0.11,11.06,11.54,19.11,24.81c0.36,0.59,0.27,1.36-0.22,1.85l-22.18,22.29c-1.29,1.34-2.7,2.71-4.18,4.06
			c-0.02,0.01-0.03,0.03-0.05,0.04c-17.02,15.54-39.48,24.44-63.26,25.06c-0.09,0.02-0.19,0.03-0.28,0.03
			C103.59,161.69,103.18,161.69,102.77,161.69L102.77,161.69z M38.91,134.34c0.01,0.01,0.02,0.01,0.02,0.02
			c17.19,15.7,39.82,24.31,63.83,24.31c0.32,0,0.63,0,0.94,0c0.08-0.02,0.16-0.02,0.24-0.03c23.15-0.55,45.01-9.17,61.56-24.28
			c0.01-0.01,0.02-0.02,0.03-0.03l0,0c1.44-1.32,2.81-2.65,4.07-3.96l21.36-21.47c-7.46-12-17.1-22.24-18.01-23.2
			c-0.03-0.03-0.07-0.06-0.1-0.1c-4.93-5.39-10.56-10.2-16.74-14.29c-15.28-10.14-33.19-15.59-51.81-15.76
			c-0.12,0.03-0.24,0.04-0.37,0.04c-19.98-0.58-39.21,4.85-55.61,15.73c-6.17,4.1-11.81,8.91-16.74,14.29
			c-0.03,0.03-0.06,0.07-0.1,0.1c-0.91,0.96-10.55,11.2-18.01,23.2l21.34,21.45C36.1,131.69,37.47,133.02,38.91,134.34
			C38.91,134.33,38.91,134.34,38.91,134.34L38.91,134.34z"/>
		<g>
			<g>
				<path class="st3" d="M105.26,161.62c-0.32,0.01-0.65,0.02-0.97,0.03c-0.09,0.02-0.19,0.03-0.28,0.03
					c-0.41,0.01-0.83,0.01-1.24,0.01c-0.83,0-1.67-0.01-2.5-0.03"/>
				<path class="st3" d="M95.3,161.42c-21.92-1.6-42.36-10.22-58.31-24.74c-0.06-0.05-0.12-0.1-0.17-0.15
					c-1.47-1.34-2.87-2.7-4.16-4.05L10.5,110.19c-0.49-0.49-0.58-1.26-0.22-1.85c8.04-13.27,19-24.69,19.11-24.8
					c0.02-0.02,0.03-0.03,0.05-0.05c5.08-5.54,10.87-10.48,17.22-14.69c16.82-11.17,36.53-16.78,57.04-16.23
					c0.1-0.02,0.2-0.03,0.31-0.03c19.33,0.11,37.93,5.74,53.8,16.26c6.35,4.21,12.14,9.15,17.22,14.69
					c0.02,0.02,0.03,0.03,0.05,0.05c0.11,0.11,11.06,11.54,19.11,24.81c0.36,0.59,0.27,1.36-0.22,1.85l-22.18,22.29
					c-1.29,1.34-2.7,2.71-4.18,4.06c-0.02,0.01-0.03,0.03-0.05,0.04c-16.2,14.79-37.31,23.56-59.81,24.91"/>
			</g>
			<g>
				<path class="st3" d="M37.09,132.63c0.59,0.57,1.2,1.14,1.81,1.7l0.01,0.01l0,0c0.01,0.01,0.02,0.01,0.02,0.02
					c0.61,0.55,1.22,1.1,1.84,1.64"/>
				<path class="st3" d="M44.76,139.25c16.33,12.59,36.62,19.42,58,19.42c0.32,0,0.63,0,0.94,0c0.08-0.02,0.16-0.02,0.24-0.03
					c23.15-0.55,45.01-9.17,61.56-24.28c0.01-0.01,0.02-0.02,0.03-0.03l0,0c1.44-1.32,2.81-2.65,4.07-3.96l17.79-17.88"/>
				<path class="st3" d="M189.21,110.68l1.76-1.77c-0.44-0.71-0.89-1.41-1.35-2.11"/>
				<path class="st3" d="M186.85,102.71c-6.49-9.15-13.14-16.22-13.89-17.01c-0.03-0.03-0.07-0.06-0.1-0.1
					c-4.93-5.39-10.56-10.2-16.74-14.29c-15.28-10.14-33.19-15.59-51.81-15.76c-0.12,0.03-0.24,0.04-0.37,0.04
					c-19.99-0.58-39.22,4.85-55.62,15.73c-6.17,4.1-11.81,8.91-16.74,14.29c-0.03,0.03-0.06,0.07-0.1,0.1
					c-0.8,0.85-8.4,8.91-15.3,19.04"/>
				<path class="st3" d="M14.82,106.79c-0.45,0.7-0.9,1.4-1.35,2.11l1.76,1.77"/>
				<path class="st3" d="M18.36,113.81l16.46,16.54c0.23,0.24,0.46,0.48,0.7,0.72"/>
			</g>
		</g>
	</g>
	<path class="st4" d="M104.71,142.4c-20.01,0-36.28-16.28-36.28-36.28s16.28-36.28,36.28-36.28s36.28,16.28,36.28,36.28
		S124.72,142.4,104.71,142.4z"/>
	<path class="st5" d="M103.76,119.18c-7.59,0-13.77-6.18-13.77-13.77s6.18-13.77,13.77-13.77c7.59,0,13.77,6.18,13.77,13.77
		S111.36,119.18,103.76,119.18z"/>
</g>
<g>
	<g>
		<path class="st6" d="M122.54,96.02c-2.45,3.68-6.53,5.93-10.94,6.05l-2.51-2.51c-3.29-3.29-7.76-5.15-12.42-5.15
			s-9.13-1.85-12.42-5.15l-9.41-9.41c0.31,1.22,3.3,13.19,3.75,14.99c1.66,6.64,6.76,11.69,13.12,13.45
			c3.03,0.84,4.97,3.84,4.97,6.99v1.28c0.03,0.28,0.45,16.5-3.38,35.73c-1.28,6.46-2.42,10.18-4.32,17.81h29.96
			c-1.79-7.21-3.19-11.84-4.6-19.11c-3.45-17.71-2.85-30.21-3.1-34.36c7.21-2.4,13.12-7.21,16.97-13.35
			c3.11-4.96,4.86-10.8,4.86-16.94v-6.1L122.54,96.02z"/>
	</g>
	<g>
		<path d="M164.97,56c-1.12-0.74-2.62-0.44-3.36,0.67l-5.33,8l-4.9-14.7c-0.42-1.27-1.8-1.96-3.07-1.53
			c-1.27,0.42-1.96,1.8-1.53,3.07l5.95,17.85c-4.59,4.74-11.68,7.93-18.67,8.4l-5.34-5.62l6.52-13.03c0.6-1.2,0.11-2.66-1.09-3.25
			c-1.2-0.6-2.66-0.11-3.25,1.08l-5.77,11.54l-4.9-4.9c-0.95-0.95-2.48-0.95-3.43,0c-0.95,0.95-0.95,2.48,0,3.43l7.26,7.26
			l5.92,6.23l-9.44,14.17c-1.82,2.73-4.76,4.51-7.99,4.89l-1.72-1.72c-3.78-3.78-8.8-5.86-14.14-5.86c-4.05,0-7.85-1.57-10.71-4.43
			l-7.03-7.03l11.05-5.53c9.67-0.22,18.35-5.77,22.64-14.35l0.77-1.54c0.6-1.2,0.12-2.66-1.08-3.26c-1.2-0.6-2.66-0.12-3.26,1.08
			l-0.77,1.54c-3.08,6.15-8.81,10.31-15.43,11.4l6.12-18.36c0.42-1.27-0.26-2.64-1.53-3.07c-1.27-0.42-2.64,0.26-3.07,1.53
			l-2.4,7.19l-8.14-8.14c-0.95-0.95-2.48-0.95-3.43,0c-0.95,0.95-0.95,2.48,0,3.43l9.86,9.86l-2.85,8.54l-12.03,6.01
			c-1.47-1.71-2.67-3.62-3.57-5.71c-1.22-2.82-1.83-5.8-1.83-8.88v-4.26c0-1.34-1.09-2.43-2.43-2.43s-2.43,1.09-2.43,2.43v4.26
			c0,2.19,0.26,4.34,0.77,6.43c-8.91-2.85-16.27-9.56-18.96-17.62l-0.37-1.12c-0.42-1.27-1.8-1.96-3.07-1.53
			c-1.27,0.42-1.96,1.8-1.53,3.07l0.37,1.12c3.51,10.53,13.69,19.09,25.56,21.63c1.22,2.5,2.81,4.78,4.73,6.8l2.03,8.12
			c-5.34,0.33-10.77-1.55-14.82-5.53c-0.96-0.94-2.49-0.93-3.43,0.03c-0.94,0.95-0.93,2.49,0.03,3.43c2.13,2.1,4.59,3.76,7.32,4.94
			c-0.21,4.29-3.74,7.69-7.99,7.69H53c-1.34,0-2.43,1.09-2.43,2.43c0,1.34,1.09,2.43,2.43,2.43h2.78c6.34,0,11.76-4.71,12.71-11.04
			c2.39,0.5,4.85,0.65,7.37,0.4l0.37,1.48c1.84,7.36,7.52,13.18,14.83,15.2c1.85,0.51,3.19,2.47,3.19,4.66v5.45
			c0,0.02,0,0.04,0,0.06c-0.1,5.37-0.58,15.49-2.63,27.23c-1.02-0.91-1.96-1.92-2.8-3.02c-2.76-3.65-4.28-8.18-4.28-12.75
			c0-1.34-1.09-2.43-2.43-2.43c-1.34,0-2.43,1.09-2.43,2.43c0,3.52,0.73,7.02,2.11,10.24c-5.18-2.2-9.51-6.19-12.07-11.32
			c-0.6-1.2-2.06-1.68-3.25-1.08c-1.2,0.6-1.68,2.06-1.08,3.25c3.98,7.96,11.47,13.64,20.17,15.36c1.46,1.79,3.15,3.37,5.03,4.71
			c-1.02,4.85-1.8,7.55-3.22,13.14c1.33,2.16,3.18,3.61,5.17,1.13h-0.44c0.65-3.27,6.57-21.07,7-46.89c0-0.01,0-0.03,0-0.04v-0.09
			c0.03-1.96,0.01-3.32,0-3.94v-0.15c0.01-6.17,3.56-11.34,12.7-12.08c5.14-0.18,9.9-2.84,12.76-7.12l6.01-9.01
			c-0.33,4.83-1.84,9.51-4.43,13.64c-3.63,5.79-9.2,10.18-15.68,12.34v0c-1.04,0.35-1.72,1.35-1.65,2.45
			c0.05,0.76,0.06,1.86,0.08,3.25c0.37,26.11,5.11,40.15,6.63,46.38c0.71,0.66,1.34,1.48,2.35,1.63c1.59,0.24,2.3-0.39,2.69-1.37
			c-1.37-5.42-2.39-8.95-3.6-14.87l9.83-9.83h6.27c1.34,0,2.43-1.09,2.43-2.43c0-1.34-1.09-2.43-2.43-2.43h-7.28
			c-0.64,0-1.26,0.26-1.72,0.71l-8.17,8.17c-1.95-11.82-2.08-20.9-2.16-26.04c-0.01-0.6-0.02-1.15-0.03-1.65
			c6.13-2.41,11.45-6.56,15.3-11.91c0.33,0.14,2.57,1.45,6.14,2.23c-0.42,5.64,4.16,10.52,9.68,10.52h2.78
			c1.34,0,2.43-1.09,2.43-2.43c0-1.34-1.09-2.43-2.43-2.43h-2.78c-2.72,0-4.95-2.45-4.86-5.11c0.12,0,0.23,0,0.35,0
			c3.04,0,6.08-0.57,8.91-1.69c1.25-0.49,1.86-1.9,1.37-3.15c-0.49-1.25-1.9-1.86-3.15-1.37c-2.89,1.14-6.04,1.57-9.13,1.25
			c-2.32-0.24-4.57-0.89-6.66-1.94l-0.09-0.04c2.57-4.9,3.91-10.35,3.91-15.92v-3.82c9.98-0.99,19.01-6.39,23.68-13.43l6.48-9.72
			C166.39,58.25,166.08,56.75,164.97,56z M96.34,108.35c-1.09-1.12-2.45-1.97-3.99-2.39c-5.62-1.55-10-6.04-11.41-11.7l-1.62-6.49
			l3.22,3.22c3.78,3.78,8.8,5.86,14.14,5.86c3.54,0,6.89,1.2,9.58,3.42C102.03,101.47,98.47,104.42,96.34,108.35z"/>
	</g>
</g>
</svg>
