<svg id="Capa_1" enable-background="new 0 0 512 512" height="512" viewBox="0 0 512 512" width="512" xmlns="http://www.w3.org/2000/svg"><g><path d="m512 354.607c-55.701 93.915-149.777 155.61-256.455 155.61-106.092.001-199.72-61.047-255.545-154.101 41.604-70.134 104.596-122.307 178.257-144.219.548-.174 1.097-.336 1.645-.486v-.012c24.479-7.117 50.129-10.906 76.553-10.906 106.104 0 199.732 61.06 255.545 154.114z" fill="#f1f1f4"/><path d="m255.545 510.218c-106.092 0-199.72-61.048-255.545-154.102 41.604-70.134 104.596-122.307 178.257-144.219-70.37 22.36-136.229 229.658 77.288 298.321z" fill="#dfeaef"/><circle cx="256.46" cy="355.361" fill="#dd5790" r="102.247"/><circle cx="256.46" cy="355.361" fill="#454045" r="52.047"/><g><path d="m355.663 10.415-52.095 147.427c-3.854 10.906 4.236 22.345 15.803 22.345h61.105l-19.705 93.909c-2.446 11.657 12.598 18.553 19.833 9.092l93.455-122.212c8.434-11.029.57-26.942-13.314-26.942h-48.97l70.464-112.431c5.404-8.622-.794-19.822-10.97-19.822h-103.399c-5.488.001-10.379 3.46-12.207 8.634z" fill="#f9ef63"/><g fill="#f1d333"><path d="m379.612 284.335c-7.523 7.707-21.177.914-18.842-10.238l19.704-93.91h15.816l-19.704 93.91c-.884 4.222.525 7.822 3.026 10.238z"/><path d="m403.666 1.783c-5.487 0-10.381 3.457-12.21 8.633l-52.097 147.427c-3.853 10.905 4.239 22.344 15.805 22.344h-35.791c-11.566 0-19.658-11.44-15.805-22.344l52.097-147.427c1.829-5.176 6.718-8.633 12.205-8.633h35.796z"/></g></g></g></svg>