<svg xmlns="http://www.w3.org/2000/svg" viewBox="0 0 64 64"><ellipse cx="32" cy="37.75" fill="#fa8cb4" rx="30.5" ry="24.75"/><path fill="#e678a0" d="M32 60.5c-16.431 0-29.821-10.545-30.469-23.75-.016.332-.031.665-.031 1C1.5 51.419 15.155 62.5 32 62.5s30.5-11.081 30.5-24.75c0-.335-.015-.668-.031-1C61.821 49.955 48.431 60.5 32 60.5z"/><path fill="#ffa0c8" d="M32 15c16.431 0 29.821 10.545 30.469 23.75.016-.332.031-.665.031-1C62.5 24.081 48.845 13 32 13S1.5 24.081 1.5 37.75c0 .335.015.668.031 1C2.179 25.545 15.569 15 32 15z"/><path fill="#785ae6" d="M32 63C14.907 63 1 51.673 1 37.75S14.907 12.5 32 12.5s31 11.327 31 25.25S49.093 63 32 63zm0-49.5c-16.542 0-30 10.879-30 24.25S15.458 62 32 62s30-10.879 30-24.25S48.542 13.5 32 13.5z"/><ellipse cx="32" cy="37.75" fill="#e678a0" rx="21.874" ry="17.75"/><ellipse cx="32" cy="37.75" fill="#d2648c" rx="12.5" ry="10.143"/><path fill="#f0dc78" d="M25.5 1.5h23l-8 16h12L25 42l7.5-17.5h-15z"/><path fill="#dcc864" d="M51.939 18H51L29 36l5.765-13.452-16.574-.034L17.5 24.5h15L25 42z"/><path fill="#ffe885" d="m41.5 17.5-1 2h9.755l2.245-2zM47.5 3.5l1-2h-23l-.696 2z"/><path fill="#785ae6" d="M25 42.5a.498.498 0 0 1-.459-.698L31.742 25H17.5a.497.497 0 0 1-.472-.664l1.115-3.205a.5.5 0 1 1 .944.328L18.203 24H32.5c.168 0 .325.084.417.225a.504.504 0 0 1 .042.473l-6.615 15.436L38.84 29a.5.5 0 1 1 .665.746L25.333 42.373A.503.503 0 0 1 25 42.5zm16.421-14.63a.5.5 0 0 1-.333-.873l3.079-2.743a.5.5 0 1 1 .665.746l-3.079 2.743a.495.495 0 0 1-.332.127zm5.456-4.861a.5.5 0 0 1-.333-.873L51.187 18H40.5a.5.5 0 0 1-.447-.723L47.691 2H25.855l-5.449 15.664a.5.5 0 1 1-.944-.328l5.565-16A.502.502 0 0 1 25.5 1h23a.5.5 0 0 1 .447.723L41.309 17H52.5a.498.498 0 0 1 .332.873l-5.623 5.009a.493.493 0 0 1-.332.127z"/><path fill="#f0dc78" d="m43.5 39.5 6-7 4 3z"/><path fill="#785ae6" d="M43.5 40a.498.498 0 0 1-.38-.825l6-7c.17-.2.469-.231.679-.075l4 3a.5.5 0 0 1-.114.864l-3.125 1.25a.5.5 0 1 1-.371-.927l2.299-.92-2.914-2.186-4.37 5.099 2.157-.862a.5.5 0 0 1 .371.927l-4.047 1.619A.499.499 0 0 1 43.5 40z"/><path fill="#f0dc78" d="m20.5 35.5-6-7-4 3z"/><path fill="#785ae6" d="M20.5 36a.508.508 0 0 1-.186-.036l-4.25-1.7a.5.5 0 1 1 .371-.927l2.359.943-4.37-5.099-2.914 2.186 2.543 1.018c.256.103.381.394.279.649s-.396.38-.65.278l-3.369-1.348a.496.496 0 0 1-.31-.398.504.504 0 0 1 .197-.466l4-3a.5.5 0 0 1 .679.075l6 7A.5.5 0 0 1 20.5 36z"/><path fill="#f0dc78" d="m24.5 48.5-6 4 3 3z"/><path fill="#785ae6" d="M21.5 56a.505.505 0 0 1-.354-.146l-3-3a.497.497 0 0 1 .076-.769l2-1.333a.5.5 0 1 1 .554.832l-1.493.995 2.047 2.046 2.046-4.775-.288.192a.5.5 0 1 1-.554-.832l1.688-1.125a.5.5 0 0 1 .737.613l-3 7A.5.5 0 0 1 21.5 56z"/></svg>