<svg xmlns="http://www.w3.org/2000/svg" viewBox="0 0 64 64"><g data-name="23-Eye Exam"><path fill="#0071bc" d="M61.91 31.59a1 1 0 0 1 0 .82A33.2 33.2 0 0 1 32 50 33.2 33.2 0 0 1 2.09 32.41a1 1 0 0 1 0-.82A33.2 33.2 0 0 1 32 14a33.2 33.2 0 0 1 29.91 17.59Zm-2 .41A31.26 31.26 0 0 0 32 16 31.27 31.27 0 0 0 4.12 32 31.27 31.27 0 0 0 32 48h.79a31.2 31.2 0 0 0 27.09-16Z"/><path fill="#0071bc" d="M60.62 17.3a1 1 0 0 1-1.24 1.58C51.7 12.83 42.49 9.77 32 9.77s-19.7 3.06-27.38 9.11a1 1 0 0 1-1.24-1.58C11.43 11 21.06 7.77 32 7.77S52.57 11 60.62 17.3Z"/><path fill="#f9e2c5" d="M32 16a31.26 31.26 0 0 1 27.88 16 31.2 31.2 0 0 1-27.09 16v-1A15 15 0 0 0 32 17Z"/><path fill="#0071bc" d="M48 52.78a1 1 0 0 1-.71 1.22A52.09 52.09 0 0 1 32 56.23 52.09 52.09 0 0 1 16.71 54a1 1 0 0 1 .58-1.92A49.87 49.87 0 0 0 32 54.23a49.87 49.87 0 0 0 14.71-2.12 1 1 0 0 1 1.29.67Z"/><path fill="#3dbff9" d="M45 32h-2a1 1 0 0 0-1-1h-2.14a1 1 0 0 0-1 1H37a5 5 0 0 0-10 0h-1.86a1 1 0 0 0-1-1H22a1 1 0 0 0-1 1h-2a13 13 0 0 1 26 0zm-5.22-6.36a1 1 0 0 0-1.42-1.42l-1.51 1.52a1 1 0 0 0 0 1.41 1 1 0 0 0 1.41 0zM33 24.14V22a1 1 0 0 0-2 0v2.14a1 1 0 0 0 2 0zm-5.85 3a1 1 0 0 0 0-1.41l-1.51-1.52a1 1 0 0 0-1.42 1.42l1.52 1.51a1 1 0 0 0 1.41 0zM43 32h2a13 13 0 0 1-26 0h2a1 1 0 0 0 1 1h2.14a1 1 0 0 0 1-1H27a5 5 0 0 0 10 0h1.86a1 1 0 0 0 1 1H42a1 1 0 0 0 1-1zm-3.22 7.78a1 1 0 0 0 0-1.42l-1.52-1.51a1 1 0 0 0-1.41 1.41l1.51 1.52a1 1 0 0 0 .71.29 1 1 0 0 0 .71-.29zM33 42v-2.14a1 1 0 0 0-2 0V42a1 1 0 0 0 2 0zm-5.85-3.74a1 1 0 1 0-1.41-1.41l-1.52 1.51a1 1 0 0 0 0 1.42 1 1 0 0 0 .71.29 1 1 0 0 0 .71-.29z"/><path fill="#0071bc" d="M32 17a15 15 0 0 1 .77 30H32a15 15 0 0 1 0-30Zm13 15a13 13 0 1 0-13 13 13 13 0 0 0 13-13Z"/><path fill="#0071bc" d="M42 31a1 1 0 0 1 0 2h-2.14a1 1 0 0 1 0-2zm-2.22-6.78a1 1 0 0 1 0 1.42l-1.52 1.51a1 1 0 0 1-1.41 0 1 1 0 0 1 0-1.41l1.51-1.52a1 1 0 0 1 1.42 0zm0 14.14a1 1 0 0 1 0 1.42 1 1 0 0 1-.71.29 1 1 0 0 1-.71-.29l-1.51-1.52a1 1 0 0 1 1.41-1.41zM32 27a5 5 0 1 1-5 5 5 5 0 0 1 5-5zm3 5a3 3 0 1 0-3 3 3 3 0 0 0 3-3z"/><circle cx="32" cy="32" r="3" fill="#81d8f7"/><path fill="#0071bc" d="M33 39.86V42a1 1 0 0 1-2 0v-2.14a1 1 0 0 1 2 0zM33 22v2.14a1 1 0 0 1-2 0V22a1 1 0 0 1 2 0z"/><path fill="#f9e2c5" d="M32.77 47v1h-.79A31.27 31.27 0 0 1 4.12 32 31.27 31.27 0 0 1 32 16v1a15 15 0 0 0 0 30Z"/><path fill="#0071bc" d="M27.15 25.74a1 1 0 0 1 0 1.41 1 1 0 0 1-1.41 0l-1.52-1.51a1 1 0 0 1 1.42-1.42zm0 11.11a1 1 0 0 1 0 1.41l-1.51 1.52a1 1 0 0 1-.71.29 1 1 0 0 1-.71-.29 1 1 0 0 1 0-1.42l1.52-1.51a1 1 0 0 1 1.41 0zM24.14 31a1 1 0 0 1 0 2H22a1 1 0 0 1 0-2z"/></g></svg>