<svg xmlns="http://www.w3.org/2000/svg" viewBox="0 0 512 512" id="shock"><circle cx="256" cy="256" r="256" fill="#ecb13a"></circle><circle cx="248.8" cy="244" r="242.5" fill="#ffde4f"></circle><path fill="#645033" d="M429.3 163.7c-4.6 0-8.3-3.7-8.3-8.3 0-28.5-23.2-51.6-51.6-51.6-4.6 0-8.3-3.7-8.3-8.3s3.7-8.3 8.3-8.3c37.6 0 68.2 30.6 68.2 68.2 0 4.6-3.7 8.3-8.3 8.3zm-346 2.6c-4.6 0-8.3-3.7-8.3-8.3 0-37.6 30.6-68.2 68.2-68.2 4.6 0 8.3 3.7 8.3 8.3s-3.7 8.3-8.3 8.3c-28.5 0-51.6 23.2-51.6 51.6 0 4.6-3.7 8.3-8.3 8.3z"></path><circle cx="145.6" cy="224.5" r="34.4" fill="#645033"></circle><circle cx="367.5" cy="224.9" r="34.4" fill="#645033"></circle><path fill="#ecb13a" d="M303.1 414.4c-.8 0-1.6-.1-2.3-.3-30-8.9-62-9.5-92.3-1.8l-7.4 1.9c-4.4 1.1-8.9-1.6-10-6-1.1-4.4 1.6-8.9 6-10l7.4-1.9c33.2-8.4 68.2-7.8 101.1 2 4.4 1.3 6.9 5.9 5.6 10.3-1.3 3.4-4.5 5.8-8.1 5.8z"></path><path fill="#645033" d="M373.3 369.2c0 43.8-54.6-1.3-121.9-1.3s-121.9 45.1-121.9 1.3 54.6-93 121.9-93 121.9 49.2 121.9 93z"></path><path fill="#ef4f43" d="M337.5 370.5c.2 21.8-38.2-.5-85.2-.4-47.1.1-85 22.7-85.2.9-.2-21.8 37.8-39.6 84.9-39.7 47-.1 85.3 17.4 85.5 39.2z"></path></svg>