<svg xmlns="http://www.w3.org/2000/svg" viewBox="0 0 128 128" id="high"><path fill="#fc785e" d="M70,53.00049a24.98472,24.98472,0,0,1,37.14813-21.83929C106.18085,20.93756,97.985,14.67645,91,11.84973c-9.49689-3.84326-24.875-.25409-27,4.44806H61.50037S47.5,2.5,27.125,17.5c0,0-15.75,11.5-5.625,31S62.87769,92,62.87769,92s8.98492-7.82947,18.78064-17.87341A24.99768,24.99768,0,0,1,70,53.00049Z"></path><path fill="#2d4356" d="M13.62573 8.00513a1.99944 1.99944 0 0 0-1.86426 2.127l.24316 3.69769a1.99955 1.99955 0 0 0 1.99365 1.86865q.06592 0 .1333-.00439a1.99944 1.99944 0 0 0 1.86426-2.127l-.24316-3.69769A1.98906 1.98906 0 0 0 13.62573 8.00513zM5.24591 23.52307l-3.5249.49707a2.00026 2.00026 0 0 0 .27686 3.9809 2.046 2.046 0 0 0 .28174-.02l3.5249-.49707a2 2 0 0 0-.55859-3.96088zM4.92023 13.175a2 2 0 0 0-2.58691 3.05078l3.768 3.19434a2 2 0 1 0 2.58691-3.05078zM114.37378 8.00513a2.01321 2.01321 0 0 0-2.12689 1.86426l-.24316 3.69769a2.00022 2.00022 0 0 0 1.86523 2.127c.04395.00293.08887.00439.13281.00439a2.00066 2.00066 0 0 0 1.99408-1.86865l.24316-3.69769A2.00022 2.00022 0 0 0 114.37378 8.00513zM126.279 24.02014l-3.52533-.49707a2 2 0 1 0-.55859 3.96088l3.52539.49707a2.04225 2.04225 0 0 0 .28223.02 2.00026 2.00026 0 0 0 .27631-3.9809zM121.89819 19.4201l3.76758-3.19434a1.99965 1.99965 0 1 0-2.58594-3.05078l-3.76758 3.19434a1.99965 1.99965 0 1 0 2.58594 3.05078zM59.06494 92.355A5.49558 5.49558 0 0 0 62.99951 94H63a5.49456 5.49456 0 0 0 3.93555-1.645L83.76514 75.323A25.0327 25.0327 0 0 1 80.262 73.17694L64.09033 89.543a1.52852 1.52852 0 0 1-2.17969.00049L27.445 54.66437c-9.50629-9.62-9.89935-25.28979-.87646-34.92981a24.11449 24.11449 0 0 1 17.413-7.73138q.16919-.0022.3374-.00244a24.07966 24.07966 0 0 1 17.25824 7.24017 2.05894 2.05894 0 0 0 2.84521 0 24.21653 24.21653 0 0 1 40.71411 10.91516 25.00389 25.00389 0 0 1 4.55426 2.63428A28.207 28.207 0 0 0 63 15.0827a28.20945 28.20945 0 0 0-39.35138 1.91846C13.17554 28.19 13.60278 46.34711 24.59979 57.47589z"></path><path fill="#2d4356" d="M95,32a21,21,0,1,0,21,21A20.99741,20.99741,0,0,0,95,32Zm0,38a17,17,0,1,1,17-17A17.02419,17.02419,0,0,1,95,70Z"></path><path fill="#ffdb80" d="M95,36a17,17,0,1,0,17,17A17.02419,17.02419,0,0,0,95,36Zm9.41,10.41-4,4.01a6.01873,6.01873,0,1,1-2.83-2.83l4.01-4A1.994,1.994,0,0,1,104.41,46.41Z"></path><path fill="#2d4356" d="M38.84436 23.58606a2.00074 2.00074 0 0 0-2.82861.00049 16.884 16.884 0 0 0-5.01416 12.2489 17.62236 17.62236 0 0 0 5.623 12.61658 1.9998 1.9998 0 1 0 2.751-2.90326 13.65787 13.65787 0 0 1-4.37451-9.768 12.91642 12.91642 0 0 1 3.84375-9.36609A2.0003 2.0003 0 0 0 38.84436 23.58606zM104.41 43.59a1.99172 1.99172 0 0 0-2.81995 0l-4.01 4a6.0192 6.0192 0 1 0 2.83 2.83l4-4.01A1.97391 1.97391 0 0 0 104.41 43.59zM95 55a2 2 0 1 1 2-2A2.00591 2.00591 0 0 1 95 55zM101 108.94H98.68c-1.28-4.08-6.39-7.05-12.68-7.05s-11.4 2.97-12.68 7.05H36.86A12.88447 12.88447 0 0 1 24 96.07V62.68l-2.37-2.39c-.57-.58-1.11-1.18-1.63-1.79V96.07a16.90041 16.90041 0 0 0 16.86 16.89H73.32C74.6 117.03 79.71 120 86 120s11.4-2.97 12.68-7.04H101a2.01 2.01 0 0 0 0-4.02zm-15 7.04c-5.3 0-9-2.65-9-5.03s3.7-5.03 9-5.03 9 2.65 9 5.03S91.3 115.98 86 115.98z"></path><path fill="#81d9e3" d="M95,110.95c0,2.37994-3.7,5.03-9,5.03s-9-2.65-9-5.03,3.7-5.03,9-5.03S95,108.57,95,110.95Z"></path><circle cx="30" cy="96.029" r="2" fill="#2d4356"></circle><circle cx="32.31" cy="101.329" r="2" fill="#2d4356"></circle><circle cx="38.154" cy="102.941" r="2" fill="#2d4356"></circle><circle cx="44" cy="102.941" r="2" fill="#2d4356"></circle><path fill="#f9edd2" d="M112,53c0,.34-.01.67-.03,1A16.99937,16.99937,0,0,0,78.03,54c-.02-.33-.03-.66-.03-1a17,17,0,0,1,34,0Z" opacity=".5"></path><path fill="#ad9359" d="M112,53a17,17,0,0,1-34,0c0-.34.01-.67.03-1A16.99937,16.99937,0,0,0,111.97,52C111.99,52.33,112,52.66,112,53Z" opacity=".45"></path><path fill="#18665c" d="M95,110.95c0,2.38-3.7,5.03-9,5.03s-9-2.65-9-5.03a2.56453,2.56453,0,0,1,.21-1c.85,2.07,4.23,4.03,8.79,4.03s7.94-1.96,8.79-4.03A2.56453,2.56453,0,0,1,95,110.95Z" opacity=".3"></path><path fill="#f9dbd7" d="M99.43,21.73a23.83917,23.83917,0,0,1,4.97583,8.11292q.36987.15079.73322.31372A24.2171,24.2171,0,0,0,64.42,19.24a2.05371,2.05371,0,0,1-2.84,0A24.0677,24.0677,0,0,0,44.32,12h-.34a24.13753,24.13753,0,0,0-17.41,7.73,24.59892,24.59892,0,0,0-6.49,17.86A24.25694,24.25694,0,0,1,43.98,14h.34a24.0677,24.0677,0,0,1,17.26,7.24,2.05371,2.05371,0,0,0,2.84,0,24.21449,24.21449,0,0,1,35.01.49Z" opacity=".3"></path><path fill="#a54b3f" d="M79.14166 72.31152L64.09 87.54a1.52143 1.52143 0 0 1-2.18005 0L27.45 52.66A25.675 25.675 0 0 1 20.08 35.59 25.74158 25.74158 0 0 0 27.45 54.66L61.91 89.54a1.52143 1.52143 0 0 0 2.18005 0L80.26 73.18c.06995.05121.14368.09729.21417.14771C80.01959 73.002 79.57288 72.66626 79.14166 72.31152zM81.28717 73.88837c.04962.03241.09973.064.1496.096C81.38708 73.95215 81.33661 73.921 81.28717 73.88837z" opacity=".5"></path></svg>