<svg xmlns="http://www.w3.org/2000/svg" enable-background="new 0 0 68 68" viewBox="0 0 68 68" id="medical-report"><path fill="#afa7d4" d="M57.84,15.92v44.44c0,3.12-2.53,5.64-5.64,5.64H15.8c-3.11,0-5.64-2.52-5.64-5.64V15.92
			c0-3.11,2.53-5.64,5.64-5.64h36.4C55.31,10.28,57.84,12.81,57.84,15.92z"></path><path fill="#dfe9f4" d="M15.16,18.52v39.25c0,1.79,1.45,3.24,3.24,3.24h25.78l8.65-8.39v-34.1c0-1.79-1.45-3.24-3.24-3.24H18.4
			C16.61,15.28,15.16,16.73,15.16,18.52z"></path><path fill="#070707" d="M49.6,15.28h-2.68v7.31c0,17.54-14.22,31.76-31.76,31.76h0v3.42c0,1.79,1.45,3.24,3.24,3.24h25.78l8.65-8.39
			v-34.1C52.84,16.73,51.39,15.28,49.6,15.28z" opacity=".1"></path><path fill="#bac7d3" d="M44.18,54.39V61l8.65-8.39h-6.88C44.98,52.62,44.18,53.41,44.18,54.39z"></path><path fill="#070707" d="M48.08,10.28v5.34c0,1.72-1.4,3.12-3.12,3.12H23.04c-1.72,0-3.12-1.4-3.12-3.12v-5.34H48.08z" opacity=".1"></path><path fill="#0e4a77" d="M46.08,9.93v5.69c0,0.62-0.5,1.12-1.12,1.12H23.04c-0.62,0-1.12-0.5-1.12-1.12V9.93
			c0-1.22,0.99-2.21,2.21-2.21h3.9C28.19,4.54,30.79,2,34.01,2c3.2,0,5.8,2.54,5.96,5.72h3.9C45.09,7.72,46.08,8.71,46.08,9.93z"></path><path fill="#070707" d="M43.87,7.72h-0.75v0c0,3.65-2.96,6.61-6.61,6.61h-14.6v1.3c0,0.62,0.5,1.12,1.12,1.12h21.92
			c0.62,0,1.12-0.5,1.12-1.12V9.93C46.08,8.71,45.09,7.72,43.87,7.72z" opacity=".1"></path><path fill="#dfe9f4" d="M35.88,7.01c0,1.04-0.84,1.88-1.88,1.88c-1.04,0-1.88-0.84-1.88-1.88c0-1.03,0.84-1.87,1.88-1.87
			C35.04,5.14,35.88,5.98,35.88,7.01z"></path><path fill="#f34c6e" d="M32.99,21.37c1.05,0.13,2.06,0.61,2.85,1.43c1.84,1.9,1.69,4.97-0.17,6.84l-6.53,6.53
			c-0.44,0.44-1.16,0.44-1.61,0l-6.64-6.64c-1.87-1.88-1.87-4.91,0-6.79c1.87-1.87,4.91-1.87,6.78,0c0.25,0.25,0.47,0.53,0.66,0.82
			c0.18-0.29,0.4-0.57,0.65-0.83C30.08,21.65,31.57,21.19,32.99,21.37"></path><path fill="#070707" d="M35.67,29.64l-6.53,6.53c-0.44,0.44-1.16,0.44-1.61,0l-0.66-0.66c0.24-0.03,0.47-0.14,0.65-0.32l6.53-6.53
			c1.87-1.87,2.01-4.93,0.17-6.84c-0.07-0.07-0.14-0.14-0.21-0.2c0.67,0.24,1.3,0.63,1.83,1.18C37.68,24.7,37.54,27.77,35.67,29.64z
			" opacity=".1"></path><path fill="#0e4a77" d="M39.53,54.27c-0.02,0-0.04,0-0.06,0c-0.49-0.03-0.89-0.41-0.93-0.91l-1-10.95l-2.91,9
			c-0.13,0.41-0.52,0.69-0.95,0.69c0,0,0,0,0,0c-0.43,0-0.81-0.28-0.95-0.69l-1.32-4h-3.97c-0.55,0-1-0.45-1-1s0.45-1,1-1h4.69
			c0.43,0,0.81,0.28,0.95,0.69l0.58,1.78l3.47-10.73c0.15-0.45,0.59-0.74,1.06-0.69c0.47,0.05,0.84,0.43,0.89,0.9l0.85,9.31
			l1.36-6.31c0.1-0.45,0.49-0.78,0.95-0.79c0.47-0.02,0.87,0.29,0.99,0.74l1.3,4.8l0.39-0.93c0.16-0.37,0.52-0.61,0.92-0.61h3.73
			c0.55,0,1,0.45,1,1s-0.45,1-1,1H46.5l-1.26,2.99c-0.17,0.39-0.54,0.64-0.99,0.61c-0.43-0.03-0.79-0.32-0.9-0.74l-0.98-3.63
			l-1.87,8.67C40.4,53.94,39.99,54.27,39.53,54.27z"></path></svg>