<svg xmlns="http://www.w3.org/2000/svg" enable-background="new 0 0 48 48" viewBox="0 0 48 48" id="medical-insurance"><path fill="#ccc" d="M24,44c18-9.091,18-18.182,18-34.545C37.197,8.269,24,5,24,5S10.804,8.266,6,9.455C6,25.818,6,34.909,24,44z"></path><path fill="#efefef" d="M38.428,8.572C32.586,7.127,24,5,24,5S10.804,8.266,6,9.455c0,11.218,0.002,19.018,5.802,25.743
	c0,0,2.523-6.288,13.09-13.09S38.428,8.572,38.428,8.572z"></path><polygon fill="#fc5696" points="34 20 27 20 27 13 21 13 21 20 14 20 14 26 21 26 21 33 27 33 27 26 34 26"></polygon><path fill="#fc92c3" d="M27,20v-7h-6v7h-7v6h7c0,0,0.517-1.348,2.944-2.944C26.371,21.46,27,20,27,20z"></path><path d="M42.229,8.628c-0.012,0-17.986-4.589-17.999-4.588c-0.189-0.058-0.404-0.017-0.597,0.033L5.753,8.393
	C5.335,8.494,5.024,8.872,5.027,9.32C5.11,24.672,6.002,35.67,21.209,43.134c1.363,0.721,2.579,1.15,2.885,1.032
	c3.582-0.906,8.002-4.095,10.933-6.713c7.967-6.907,7.98-18.216,7.913-27.903C42.944,9.126,42.659,8.738,42.229,8.628z
	 M26.391,42.234c-1.124,0.669-2.061,1.288-2.357,1.647c-0.301-0.345-1.175-0.941-2.34-1.621C7.715,34.799,6.842,24.581,6.944,10.074
	l17.05-4.032l17.053,4.257C41.323,24.967,40.45,34.233,26.391,42.234z M34.051,18.975l-6.026-0.015
	c-0.033-1.459-0.131-5.877-0.131-5.877c-0.002-0.539-0.439-0.98-0.981-0.981c0,0-5.888-0.021-5.888-0.021
	c-0.523-0.002-0.95,0.424-0.948,0.948l-0.089,6.053c-1.827,0.079-5.933,0.246-5.961,0.261c-0.41,0.019-0.736,0.359-0.733,0.773
	c0,0,0.04,5.772,0.04,5.772c-0.008,0.361,0.289,0.659,0.65,0.65c0.958-0.059,5.901-0.024,6.719-0.248
	c-0.263,0.826-0.261,5.631-0.328,6.615c-0.012,0.36,0.286,0.653,0.645,0.645l6.021,0.229c0.433,0.018,0.791-0.343,0.775-0.775
	l0.053-6.107c1.346,0.017,6.247,0.077,6.247,0.077c0.525,0.007,0.955-0.42,0.951-0.945c-0.002-0.003-0.031-6.067-0.034-6.07
	C35.032,19.418,34.593,18.977,34.051,18.975z M26.958,25.121c-0.477,0.01-0.855,0.405-0.844,0.882l0.137,6.23l-4.601,0.024
	c-0.036-1.386-0.118-4.532-0.118-4.532c-0.012-0.776-0.112-1.349-0.244-1.674c0.265-0.252-0.275-0.554-1.911-0.629l-4.719-0.162
	l0.159-4.38l6.039-0.081c0.472-0.007,0.862-0.384,0.879-0.861c0-0.013,0.14-4.057,0.205-5.948l4.009,0.06
	c0.024,1.428,0.101,5.909,0.101,5.909c0.008,0.767,0.705,1.085,1.39,1c0,0,5.645-0.013,5.645-0.013l0.068,4.134
	C31.206,25.092,26.981,25.117,26.958,25.121z"></path></svg>