<svg xmlns="http://www.w3.org/2000/svg" width="64" height="64" viewBox="0 0 16.933 16.933" id="medicines"><path fill="#33b9ef" d="M3.44 2.91v1.058a2.112 2.112 0 0 0-2.117 2.117v9.512c0 .3.236.542.53.542h8.466c.293 0 .529-.242.529-.542V6.085A2.112 2.112 0 0 0 8.73 3.968V2.91z"></path><path fill="#dbe9ee" d="M3.175.793h5.82c.294 0 .53.236.53.53V2.38c0 .293-.236.53-.53.53h-5.82a.528.528 0 0 1-.53-.53V1.323c0-.294.237-.53.53-.53zM1.323 6.614h9.525v6.88H1.323z"></path><path fill="#ff6b6b" d="M5.556 8.202v1.323H4.233v1.058h1.323v1.323h1.059v-1.323h1.323V9.525H6.615V8.202zm6.35 4.762H9.79c-.88 0-1.588.708-1.588 1.588 0 .88.708 1.587 1.588 1.587h2.116z"></path><path fill="#dbe9ee" d="M11.906 12.964v3.175h2.117c.88 0 1.587-.708 1.587-1.587 0-.88-.708-1.588-1.587-1.588z"></path><path d="M3.175 280.596a.797.797 0 0 0-.793.793v1.058c0 .436.358.796.793.796v.544c-1.189.122-2.117 1.155-2.117 2.366v.529c0 .146.12.264.265.263h9.26v5.028c0 .353.53.353.53 0v-5.82a2.377 2.377 0 0 0-2.118-2.366v-.544a.8.8 0 0 0 .795-.796v-1.058a.798.798 0 0 0-.795-.793zm0 .53h5.82c.151 0 .266.112.266.263v1.058a.26.26 0 0 1-.266.266h-5.82a.258.258 0 0 1-.264-.266v-1.058c0-.151.113-.264.264-.264zm.53 2.117h4.76v.792c.001.147.12.265.266.264 1.03 0 1.852.823 1.852 1.854v.263H1.587v-.263c0-1.031.823-1.854 1.854-1.854a.265.265 0 0 0 .263-.264zm-2.386 4.228a.265.265 0 0 0-.261.27v7.923c0 .44.356.807.795.807h5.82c.345-.008.345-.522 0-.53h-5.82c-.148 0-.266-.115-.266-.277v-1.84h5.557c.353 0 .353-.529 0-.529H1.587v-5.554a.265.265 0 0 0-.268-.27zm4.237.533a.265.265 0 0 0-.264.264v1.059H4.233a.265.265 0 0 0-.265.265v1.059c0 .146.12.264.265.263h1.06v1.059c0 .145.117.263.263.263h1.059a.265.265 0 0 0 .265-.263v-1.059h1.056a.265.265 0 0 0 .266-.263v-1.059a.265.265 0 0 0-.266-.265H6.88v-1.06a.265.265 0 0 0-.265-.263zm.265.53h.53v1.058c0 .146.118.263.264.264h1.058v.529H6.615a.265.265 0 0 0-.264.266v1.058h-.53v-1.058a.265.265 0 0 0-.265-.266h-1.06v-.53h1.06a.265.265 0 0 0 .265-.263zm3.97 4.232a1.857 1.857 0 0 0-1.855 1.853c0 1.022.833 1.852 1.854 1.852h4.232a1.853 1.853 0 0 0 0-3.705zm0 .53h1.85v2.646h-1.85a1.315 1.315 0 0 1-1.325-1.323c0-.737.587-1.324 1.324-1.324zm2.38 0h1.851c.738 0 1.325.586 1.325 1.323 0 .738-.587 1.323-1.325 1.323h-1.851z" color="#000" font-family="sans-serif" font-weight="400" overflow="visible" style="line-height:normal;font-variant-ligatures:normal;font-variant-position:normal;font-variant-caps:normal;font-variant-numeric:normal;font-variant-alternates:normal;font-feature-settings:normal;text-indent:0;text-align:start;text-decoration-line:none;text-decoration-style:solid;text-decoration-color:#000;text-transform:none;text-orientation:mixed;shape-padding:0;isolation:auto;mix-blend-mode:normal" transform="translate(0 -280.067)"></path></svg>