<svg xmlns="http://www.w3.org/2000/svg" width="24" height="24" viewBox="0 0 24 24"><path fill="#fff" d="M22,12c0,4.4183-2.2386,8-5,8-1.5831,0-2.9919-1.1805-3.908-3.0178,.5765-1.4597,.908-3.1542,.908-4.9822s-.3315-3.5225-.908-4.9822c.9161-1.8372,2.3249-3.0178,3.908-3.0178,2.7614,0,5,3.5817,5,8ZM7,4c-2.7614,0-5,3.5817-5,8s2.2386,8,5,8,5-3.5817,5-8S9.7614,4,7,4Z"/><path fill="#334155" d="M12,12c0,1.1046-.8954,2-2,2s-2-.8954-2-2,.8954-2,2-2,2,.8954,2,2Zm8-2c-1.1046,0-2,.8954-2,2s.8954,2,2,2,2-.8954,2-2-.8954-2-2-2Z"/><path fill="#0f172a" d="M22.5,12c0,4.687-2.4678,8.5-5.5,8.5-1.6569,0-3.1417-1.1435-4.1509-2.9409,.1808-.3923,.3376-.8087,.4788-1.2388,.8157,1.9202,2.1561,3.1797,3.6722,3.1797,2.4814,0,4.5-3.3643,4.5-7.5s-2.0186-7.5-4.5-7.5c-1.5161,0-2.8564,1.2595-3.6722,3.1797-.1412-.4301-.298-.8465-.4788-1.2388,1.0093-1.7974,2.4941-2.9409,4.1509-2.9409,3.0322,0,5.5,3.813,5.5,8.5ZM1.5,12C1.5,7.313,3.9673,3.5,7,3.5s5.5,3.813,5.5,8.5-2.4673,8.5-5.5,8.5S1.5,16.687,1.5,12Zm1,0c0,4.1357,2.0186,7.5,4.5,7.5,2.0401,0,3.7646-2.2757,4.3145-5.3828-.383,.2387-.831,.3828-1.3145,.3828-1.3784,0-2.5-1.1216-2.5-2.5s1.1216-2.5,2.5-2.5c.4835,0,.9315,.1441,1.3145,.3828-.5499-3.1071-2.2744-5.3828-4.3145-5.3828-2.4814,0-4.5,3.3643-4.5,7.5Zm7.5-1.5c-.8271,0-1.5,.6729-1.5,1.5s.6729,1.5,1.5,1.5,1.5-.6729,1.5-1.5-.6729-1.5-1.5-1.5Zm12.5,1.5c0,1.3784-1.1211,2.5-2.5,2.5s-2.5-1.1216-2.5-2.5,1.1211-2.5,2.5-2.5,2.5,1.1216,2.5,2.5Zm-1,0c0-.8271-.6729-1.5-1.5-1.5s-1.5,.6729-1.5,1.5,.6729,1.5,1.5,1.5,1.5-.6729,1.5-1.5Z"/></svg>