<?xml version="1.0" encoding="UTF-8" standalone="no"?>
<svg
   viewBox="0 0 32 32"
   version="1.1"
   id="svg20"
   sodipodi:docname="pirate_right.svg"
   inkscape:version="1.2.2 (732a01da63, 2022-12-09)"
   xmlns:inkscape="http://www.inkscape.org/namespaces/inkscape"
   xmlns:sodipodi="http://sodipodi.sourceforge.net/DTD/sodipodi-0.dtd"
   xmlns="http://www.w3.org/2000/svg"
   xmlns:svg="http://www.w3.org/2000/svg">
  <defs
     id="defs24" />
  <sodipodi:namedview
     id="namedview22"
     pagecolor="#ffffff"
     bordercolor="#000000"
     borderopacity="0.25"
     inkscape:showpageshadow="2"
     inkscape:pageopacity="0.0"
     inkscape:pagecheckerboard="0"
     inkscape:deskcolor="#d1d1d1"
     showgrid="false"
     inkscape:zoom="25.90625"
     inkscape:cx="16.0193"
     inkscape:cy="15.47889"
     inkscape:window-width="1920"
     inkscape:window-height="1009"
     inkscape:window-x="-8"
     inkscape:window-y="-8"
     inkscape:window-maximized="1"
     inkscape:current-layer="svg20" />
  <circle
     cx="-16"
     cy="16"
     r="16"
     fill="#ffd93b"
     id="circle2"
     transform="scale(-1,1)" />
  <path
     fill="#ffd93b"
     d="m 0,16 c 0,8.84 7.165,16 16,16 5.03,0 9.52,-2.32 12.455,-5.955 A 15.916,15.916 0 0 1 18.41,29.59 c -8.835,0 -16,-7.16 -16,-16 C 2.41,9.785 3.735,6.29 5.955,3.545 2.325,6.48 0,10.97 0,16 Z"
     id="path4" />
  <path
     fill="#3e4347"
     d="m 8.038,22.717 c 0.594,3.238 3.685,5.981 7.775,5.974 4.096,0.008 7.187,-2.736 7.781,-5.974 0.071,-0.366 -0.293,-0.842 -0.635,-0.651 -4.569,2.555 -9.191,2.66 -14.287,0 -0.346,-0.18 -0.706,0.285 -0.634,0.651 z"
     id="path6" />
  <ellipse
     cx="-9.7280006"
     cy="14.303"
     fill="#3e4347"
     rx="5.0760002"
     ry="5.7340002"
     id="ellipse8"
     transform="scale(-1,1)" />
  <ellipse
     cx="-21.67"
     cy="13.964"
     fill="#ffffff"
     rx="4.5"
     ry="5.0830002"
     id="ellipse10"
     transform="scale(-1,1)" />
  <circle
     cx="-21.67"
     cy="14.722"
     r="2.352"
     fill="#3e4347"
     id="circle12"
     transform="scale(-1,1)" />
  <path
     fill="#5a5f63"
     d="m 20.208,14.582 c 0.219,0.102 0.508,-0.064 0.661,-0.375 0.147,-0.299 0.091,-0.637 -0.119,-0.742 -0.219,-0.102 -0.52,0.058 -0.664,0.366 -0.153,0.311 -0.1,0.64 0.122,0.751 z"
     id="path14" />
  <path
     fill="#3e4347"
     d="M 20.868,0.76 C 20.969,0.484 21.932,0.836 21.83,1.112 19.789,4.222 12.055,15.033 0.475,19.811 0.226,19.864 0.016,18.889 0.265,18.835 11.268,14.24 18.712,4.014 20.868,0.76 Z m 3.935,5.013 c -1,-0.102 -2.68,-0.119 -4.025,0.138 -2.026,0.442 -3.004,1.731 -3.038,2.658 0.89,-0.186 2.474,-1.26 3.362,-1.701 1.163,-0.616 2.465,-0.837 3.701,-1.095 z"
     id="path16" />
  <path
     fill="#3e4347"
     d="m 6.332,5.773 c 1.222,0.255 2.533,0.476 3.7,1.095 0.89,0.442 2.47,1.515 3.362,1.701 C 13.36,7.64 12.393,6.355 10.356,5.911 9.099,5.671 7.441,5.66 6.332,5.773 Z"
     id="path18" />
</svg>
