<svg xmlns="http://www.w3.org/2000/svg" width="50" height="50" enable-background="new 0 0 50 50" viewBox="0 0 50 50"><path fill="#DB9F6E" d="M43.7,21.1c-1.7-8.8-9.5-15.3-18.7-15.3c-3.5,0-6.8,1-9.6,2.6c-4.6,2.7-8,7.3-9.1,12.7
		C4.4,21.4,3,22.9,3,24.8c0,1.9,1.4,3.5,3.2,3.8C7.9,37.4,15.7,44,24.9,44s17-6.6,18.7-15.3c1.8-0.3,3.2-1.9,3.2-3.8
		C46.9,22.9,45.5,21.4,43.7,21.1z"/><path d="M43.7,21.1C42.4,15,38.3,9.7,32.1,7.1C32,7.1,31.8,7,31.6,7c5.8,2.7,9.5,8.3,10.1,14.3
		c0.2,2.2,0,4.6-0.7,6.8c-0.2,0.5-0.3,1-0.6,1.6c-3.7,9-14,13.4-23,9.7c-5-2-8.5-6-10.1-10.7c-0.8-2.4-1.1-5-0.8-7.6
		c0.1-1.3,0.4-2.6,0.9-3.9c-0.1,0.2-0.1,0.3-0.2,0.5c-0.5,1.1-0.8,2.3-1,3.4C4.4,21.3,3,22.9,3,24.8s1.4,3.5,3.2,3.8
		c1.2,6.1,5.4,11.4,11.5,13.9c9.8,4,20.9-0.7,24.9-10.5c0.5-1.1,0.8-2.3,1-3.4c1.8-0.3,3.2-1.9,3.2-3.8S45.5,21.3,43.7,21.1z" opacity=".1"/><path fill="#FFF" d="M36.8,22.1c0.7,1,0.7,2.6,0,3.7c-0.8,1.2-2,2-3.3,2c-1.3,0-2.5-0.8-3.3-2c-0.7-1-0.7-2.6,0-3.7
		c0.8-1.2,2-2,3.3-2C34.8,20.1,36,20.9,36.8,22.1z"/><circle cx="33.5" cy="23.9" r="1.9" fill="#515151" opacity=".8"/><path fill="#515151" d="M24.9,37.3c-3.1,0-6-1.6-7.5-4.3c-0.3-0.5-0.1-1,0.3-1.3c0.5-0.3,1-0.1,1.3,0.3c1.2,2.1,3.5,3.3,5.9,3.3
			s4.7-1.3,5.9-3.3c0.3-0.5,0.9-0.6,1.3-0.3c0.5,0.3,0.6,0.9,0.3,1.3C30.9,35.6,28,37.3,24.9,37.3z" opacity=".7"/><path fill="#826454" d="M28.7,21.9c-0.1,0-0.2,0-0.3-0.1c-0.5-0.2-0.7-0.7-0.6-1.2c0.4-1.1,1.4-2.1,2.6-2.8c1.2-0.7,2.6-1,3.8-0.8
			c0.5,0.1,0.9,0.6,0.8,1.1c-0.1,0.5-0.6,0.9-1.1,0.8c-0.7-0.1-1.6,0.1-2.5,0.6c-0.9,0.5-1.5,1.2-1.8,1.9
			C29.5,21.7,29.1,21.9,28.7,21.9z"/><path fill="#515151" d="M48,10.5c-2.9-1.9-5.8,1-8.7,0C36.5,9.6,33.5,0,24.9,0S13.5,9.6,10.6,10.5s-5.7-1.9-8.6,0s2.9,9.6,2.9,9.6
	s5.7-2.9,20.1-2.9s20.1,2.9,20.1,2.9S50.9,12.4,48,10.5z"/><path fill="#826454" d="M5.8,27.7c0,6.7,0,7.6,2.8,11.5s3.7,1.9,5.6,5.7c2.2,4.6,5.6,5.7,10.3,4.8c4.7-1,9.3,0,11.2-4.8
	c1.9-4.8,4.7-3.8,5.6-6.7s2.8-4.8,2.8-8.6c0-1,0-1.9,0-1.9s-6.5,5.7-10.3,1.9c-2.8-2.9-8.4-2.9-8.4-2.9c-3.7,0-8.2,1.7-10.3,3.8
	C12.3,33.4,5.8,27.7,5.8,27.7z"/><path fill="#DB9F6E" d="M32.6,35.6c-2.3-4.4-7.6-4.4-7.6-4.4s-5.1,0-7.6,4.4c-3.1,5.3,7.6,5.4,7.6,5.4S35.4,41.1,32.6,35.6z"/><ellipse cx="25" cy="43.7" fill="#826454" rx="6.3" ry="4.2"/><path fill="#515151" d="M11.6,20.2c0,0-3.1,5.3,1,7.3s8.3-1.2,9.3-3.2c1-2.1,2.1-5.3-3.1-5.3s-5.2,0-5.2,0S12.5,19,11.6,20.2z"/><path fill="#FFF" stroke="#515151" stroke-linecap="round" stroke-miterlimit="10" stroke-width="2" d="M5.6 19.5c0 0 3.7 1.6 7.4 2.5M21.4 21.1c0 0 3.5-2 6.4-4.5"/><path fill="#515151" d="M20.6,33.6c-0.3,0.1-0.6,0.4-0.6,0.8c-0.2,1.3-0.5,4.5,1.2,4c2-0.6,3.5-2.8,7.3-2.2
	c0.6,0.1,1.1-0.3,1.1-0.9c0-0.4,0-0.9-0.3-1.3c-0.1-0.2-0.4-0.4-0.6-0.5C27.5,33.3,23.6,32.6,20.6,33.6z" opacity=".8"/><path fill="#FFF" d="M19.9,10.3c0,0,4.2-0.4,8.4-5.5c0,0-0.8,4.2-7.6,7.6"/><path fill="#FFF" d="M30.1,10.3c0,0-4.2-0.4-8.4-5.5c0,0,0.8,4.2,7.6,7.6"/></svg>