<?xml version="1.0" encoding="utf-8"?>
<svg viewBox="0 0 500 500" xmlns="http://www.w3.org/2000/svg">
  <path fill="#f2daae" d="M 347.512 118.494 L 347.512 110.236 L 119.233 110.236 C 116.096 110.236 112.998 109.938 109.966 109.392 C 104.109 125.546 101.102 142.593 101.07 159.785 L 101.07 225.854 C 101.07 307.95 167.274 374.505 248.934 374.505 C 330.597 374.505 396.801 307.95 396.801 225.854 L 396.801 168.044 C 369.576 168.044 347.512 145.853 347.512 118.494" style=""/>
  <path fill="#e0c494" d="M 84.64 234.11 L 101.07 234.11 L 101.07 168.044 L 84.64 168.044 C 59.339 168.044 43.535 195.569 56.176 217.595 C 62.049 227.811 72.892 234.11 84.64 234.11 M 413.23 168.044 L 396.801 168.044 L 396.801 234.11 L 413.23 234.11 C 438.523 234.11 454.328 206.578 441.685 184.561 C 435.811 174.338 424.968 168.044 413.23 168.044" style=""/>
  <path fill="#000" d="M 133.929 27.652 C 123.693 27.634 114.543 21.252 110.943 11.622 C 83.735 15.278 64.744 40.583 68.72 67.884 C 72.171 92.569 94.431 110.236 119.233 110.236 L 347.512 110.236 L 347.512 118.494 C 347.512 145.853 369.576 168.044 396.801 168.044 L 396.801 159.785 C 396.801 86.814 337.959 27.652 265.365 27.652 L 133.929 27.652 Z" style=""/>
  <path fill="#d36767" d="M 207.861 316.695 C 207.861 284.909 242.084 265.04 269.472 280.937 C 282.18 288.313 290.009 301.938 290.009 316.695 L 207.861 316.695 Z M 298.225 11.134 L 388.586 11.134 L 372.156 52.425 L 396.801 52.425 L 331.082 143.268 L 331.082 60.684 L 306.439 60.684 L 298.225 11.134 Z" style=""/>
  <path fill="#e0c494" d="M 248.934 374.505 C 226.116 374.49 203.615 369.136 183.218 358.872 L 183.218 407.539 L 248.934 448.83 L 314.653 407.539 L 314.653 358.872 C 294.248 369.136 271.748 374.49 248.934 374.505" style=""/>
  <path fill="#62c4c3" d="M 10.709 490.123 L 10.709 457.089 C 10.709 429.721 32.772 407.539 59.997 407.539 L 183.218 407.539 L 248.934 448.83 L 314.653 407.539 L 437.874 407.539 C 465.09 407.539 487.161 429.721 487.161 457.089 L 487.161 490.123 L 10.709 490.123 Z" style=""/>
  <path fill="#000" d="M 224.29 201.078 C 224.29 197.947 222.533 195.09 219.748 193.687 L 170.459 168.912 L 163.116 183.693 L 197.707 201.078 L 163.116 218.46 L 170.459 233.246 L 219.748 208.469 C 222.533 207.065 224.29 204.207 224.29 201.078 M 278.122 208.469 L 327.411 233.246 L 334.763 218.471 L 300.171 201.078 L 334.763 183.693 L 327.411 168.919 L 278.122 193.694 C 272.462 196.536 271.987 204.463 277.259 207.974 C 277.539 208.155 277.827 208.319 278.122 208.469" style=""/>
  <path fill="#000" d="M 437.874 399.279 L 322.869 399.279 L 322.869 364.832 C 367.4 340.646 398.978 295.355 404.227 242.369 L 413.23 242.369 C 435.877 242.369 454.303 223.847 454.303 201.078 C 454.303 178.309 435.877 159.785 413.23 159.785 L 405.014 159.785 C 405.039 133.284 397.549 107.327 383.419 84.963 L 403.446 57.282 C 407.159 52.137 403.946 44.879 397.655 44.208 C 397.375 44.183 397.088 44.167 396.801 44.167 L 384.29 44.167 L 396.217 14.205 C 398.344 8.78 394.385 2.892 388.586 2.876 L 298.225 2.876 C 293.14 2.859 289.269 7.459 290.125 12.497 L 291.693 21.985 C 283.019 20.286 274.194 19.409 265.365 19.392 L 133.929 19.392 C 127.186 19.392 121.032 15.089 118.609 8.697 C 117.237 5.121 113.613 2.951 109.834 3.444 C 94.655 5.534 80.919 13.594 71.637 25.85 C 62.337 38.162 58.345 53.722 60.562 69.026 C 63.603 90.743 79.292 108.311 99.805 115.249 C 95.361 129.675 93.028 144.679 92.895 159.785 L 84.64 159.785 C 61.993 159.785 43.567 178.309 43.567 201.078 C 43.567 223.847 61.993 242.369 84.64 242.369 L 93.644 242.369 C 98.893 295.355 130.47 340.646 175.003 364.832 L 175.003 399.279 L 59.997 399.279 C 28.296 399.279 2.493 425.212 2.493 457.089 L 2.493 490.123 C 2.493 494.681 6.164 498.382 10.709 498.382 L 487.161 498.382 C 491.698 498.382 495.377 494.681 495.377 490.123 L 495.377 457.089 C 495.377 425.212 469.574 399.279 437.874 399.279 M 413.23 176.302 C 426.817 176.302 437.874 187.419 437.874 201.078 C 437.874 214.738 426.817 225.854 413.23 225.854 L 405.014 225.854 L 405.014 176.302 L 413.23 176.302 Z M 388.586 158.959 C 371.006 155.385 357.821 140.683 356.098 122.739 L 372.937 99.458 C 383.074 117.634 388.463 138.117 388.586 158.959 M 376.453 19.392 L 364.525 49.354 C 362.389 54.781 366.347 60.66 372.156 60.684 L 380.667 60.684 L 339.297 117.876 L 339.297 60.684 C 339.297 56.117 335.616 52.425 331.082 52.425 L 313.396 52.425 L 307.926 19.392 L 376.453 19.392 Z M 76.836 66.722 C 75.234 55.779 78.077 44.646 84.73 35.835 C 90.153 28.593 97.799 23.357 106.499 20.945 C 112.57 30.236 122.865 35.851 133.929 35.91 L 265.365 35.91 C 275.264 35.91 285.064 37.173 294.609 39.526 L 298.337 62.047 C 298.996 66.026 302.422 68.944 306.439 68.944 L 322.869 68.944 L 322.869 101.977 L 119.226 101.977 C 97.865 101.977 79.655 86.821 76.836 66.722 M 59.997 201.078 C 59.997 187.419 71.054 176.302 84.64 176.302 L 92.855 176.302 L 92.855 225.854 L 84.64 225.854 C 71.054 225.854 59.997 214.738 59.997 201.078 M 109.285 226.695 L 109.285 160.628 C 109.285 146.407 111.642 132.227 116.029 118.344 C 117.097 118.404 118.148 118.494 119.226 118.494 L 322.869 118.494 L 322.869 143.268 C 322.859 149.628 329.711 153.599 335.182 150.42 C 336.184 149.842 337.046 149.057 337.727 148.125 L 343.536 140.099 C 351.142 159.191 368.32 172.752 388.586 175.65 L 388.586 226.695 C 388.586 304.11 325.939 367.088 248.934 367.088 C 171.931 367.088 109.285 304.11 109.285 226.695 M 248.934 383.606 C 269.258 383.606 288.621 379.558 306.439 372.431 L 306.439 402.954 L 248.934 439.095 L 191.433 402.954 L 191.433 372.431 C 209.719 379.79 229.228 383.58 248.934 383.606 M 478.949 481.863 L 18.921 481.863 L 18.921 457.089 C 18.921 434.321 37.349 415.797 59.997 415.797 L 180.861 415.797 L 244.582 455.833 C 247.244 457.501 250.626 457.501 253.289 455.833 L 317.01 415.797 L 437.874 415.797 C 460.522 415.797 478.949 434.321 478.949 457.089 L 478.949 481.863 Z" style=""/>
  <path fill="#000" d="M 298.225 316.695 C 298.225 289.368 276.118 267.145 248.934 267.145 C 221.753 267.145 199.646 289.368 199.646 316.695 C 199.646 321.253 203.32 324.955 207.861 324.955 L 290.009 324.955 C 294.543 324.955 298.225 321.253 298.225 316.695 M 217.12 308.438 C 220.766 294.207 233.656 283.662 248.934 283.662 C 264.214 283.662 277.104 294.207 280.751 308.438 L 217.12 308.438 Z" style=""/>
</svg>