<svg width="311" height="150" viewBox="0 0 311 150" fill="none" xmlns="http://www.w3.org/2000/svg">
<path fill-rule="evenodd" clip-rule="evenodd" d="M7.47879 114.139C7.0942 114.706 6.60065 115.165 6.03641 115.479C5.47219 115.793 4.85247 115.953 4.22531 115.948C3.66859 115.959 3.11578 115.84 2.60094 115.597C2.0861 115.354 1.62014 114.992 1.23176 114.535C0.833298 114.091 0.518699 113.557 0.307421 112.968C0.0961444 112.378 -0.00731865 111.745 0.00343472 111.108C-0.0370532 110.038 0.281644 108.99 0.894049 108.181L22.2874 75.2352C23.9058 72.8 26.2085 71.08 28.8062 70.3662C31.4038 69.6524 34.1369 69.9886 36.543 71.3178C38.0745 72.1368 39.4048 73.3783 40.4148 74.931L61.7626 107.733C62.1173 108.207 62.4158 108.733 62.6501 109.296C62.8864 109.882 63.0059 110.52 62.9998 111.165C63.0017 111.801 62.8935 112.432 62.6816 113.02C62.4696 113.608 62.158 114.142 61.7648 114.592C61.3717 115.041 60.9046 115.397 60.3908 115.638C59.877 115.879 59.3265 116.002 58.7713 115.998C58.1194 116.021 57.4729 115.857 56.89 115.523C56.307 115.188 55.8057 114.692 55.4314 114.081L34.9535 82.7054C34.4693 82.085 33.9549 81.4964 33.413 80.9424C33.1734 80.641 32.8816 80.4002 32.5562 80.2353C32.2308 80.0704 31.879 79.9851 31.5232 79.9847C31.1674 79.9844 30.8155 80.0691 30.4899 80.2334C30.1642 80.3977 29.872 80.638 29.632 80.9389C29.0999 81.4717 28.613 82.0611 28.178 82.6992L7.47879 114.139Z" fill="#FF0000"/>
<path fill-rule="evenodd" clip-rule="evenodd" d="M26.0014 105.475C26.0064 104.194 26.3317 102.943 26.9365 101.879C27.5412 100.815 28.3986 99.9859 29.4009 99.4954C30.4032 99.0049 31.5058 98.875 32.5704 99.122C33.635 99.3689 34.6141 99.9817 35.3849 100.883C35.8969 101.488 36.303 102.206 36.5802 102.996C36.8572 103.786 36.9999 104.633 37 105.488C37 106.343 36.8574 107.19 36.5804 107.98C36.3034 108.77 35.8974 109.488 35.3854 110.092C34.8736 110.697 34.2658 111.177 33.5968 111.504C32.928 111.831 32.2111 112 31.4871 112C30.7631 112 30.0461 111.832 29.3772 111.504C28.7082 111.177 28.1005 110.698 27.5885 110.093C27.0707 109.492 26.6626 108.773 26.3896 107.978C26.1167 107.184 25.9845 106.332 26.0014 105.475Z" fill="#FF0000"/>
<path fill-rule="evenodd" clip-rule="evenodd" d="M171.492 115.088C170.948 115.887 170.205 116.467 169.366 116.749C168.527 117.031 167.634 117 166.81 116.661C165.988 116.322 165.274 115.691 164.772 114.856C164.268 114.021 164 113.023 164.003 112.001C163.963 110.908 164.281 109.838 164.894 109.011L186.296 75.3495C187.915 72.861 190.219 71.1034 192.817 70.3741C195.415 69.6448 198.15 69.9885 200.557 71.347C202.087 72.1915 203.416 73.4669 204.424 75.0595L225.763 108.553C226.118 109.038 226.417 109.577 226.651 110.156C226.887 110.752 227.006 111.403 227 112.06C227.002 112.71 226.893 113.353 226.683 113.954C226.471 114.555 226.159 115.1 225.766 115.559C225.373 116.018 224.907 116.382 224.394 116.629C223.881 116.876 223.331 117.001 222.776 116.998C222.124 117.021 221.476 116.855 220.892 116.513C220.309 116.171 219.806 115.664 219.432 115.039L198.954 82.982C198.471 82.348 197.958 81.7467 197.418 81.1806C197.177 80.8725 196.885 80.6264 196.56 80.4579C196.234 80.2894 195.882 80.2022 195.525 80.2018C195.169 80.2016 194.817 80.2881 194.491 80.4561C194.165 80.6239 193.873 80.8696 193.632 81.1771C193.1 81.7215 192.613 82.3237 192.178 82.9756L171.492 115.088Z" fill="#FF0000"/>
<path fill-rule="evenodd" clip-rule="evenodd" d="M190.001 105.435C190.014 103.933 190.466 102.484 191.28 101.332C192.095 100.18 193.221 99.3967 194.47 99.1152C195.717 98.8338 197.009 99.0715 198.125 99.7879C199.241 100.504 200.113 101.656 200.593 103.046C201.072 104.436 201.13 105.979 200.757 107.414C200.382 108.849 199.599 110.086 198.541 110.916C197.482 111.746 196.213 112.118 194.95 111.967C193.686 111.817 192.505 111.155 191.608 110.092C191.086 109.486 190.674 108.76 190.398 107.959C190.121 107.158 189.986 106.299 190.001 105.435Z" fill="#FF0000"/>
<path fill-rule="evenodd" clip-rule="evenodd" d="M276.97 103.337C270.738 93.5313 264.554 83.7461 258.264 73.9971C257.477 72.75 256.452 71.738 255.27 71.0435C254.088 70.349 252.783 69.9916 251.462 70.0002C250.339 70.0119 249.229 70.2845 248.195 70.802C247.163 71.3197 246.227 72.072 245.442 73.016C244.658 73.9599 244.04 75.0767 243.624 76.3021C243.209 77.5275 243.004 78.8373 243.021 80.1562L243 112.004C242.999 113.313 243.441 114.569 244.229 115.496C245.016 116.422 246.085 116.943 247.2 116.944C248.315 116.945 249.385 116.426 250.174 115.501C250.962 114.576 251.406 113.321 251.406 112.012C251.414 101.249 251.421 90.4838 251.429 79.7171L273.945 115.042C274.277 115.633 274.727 116.118 275.258 116.453C275.789 116.789 276.382 116.965 276.985 116.966C277.587 116.966 278.181 116.791 278.712 116.457C279.243 116.122 279.696 115.638 280.029 115.047L302.591 79.7648C302.584 90.5315 302.576 101.296 302.57 112.06C302.569 113.369 303.011 114.625 303.799 115.551C304.586 116.478 305.655 116.999 306.77 117C307.884 117.001 308.954 116.482 309.743 115.557C310.532 114.632 310.975 113.377 310.976 112.067L310.998 80.2196C311.04 78.1131 310.511 76.0457 309.487 74.3155C308.463 72.5853 306.997 71.2819 305.302 70.5935C303.606 69.905 301.769 69.8671 300.053 70.4852C298.338 71.1032 296.834 72.3452 295.759 74.0321C289.425 83.7692 283.215 93.5428 276.97 103.337Z" fill="#FF0000"/>
<path fill-rule="evenodd" clip-rule="evenodd" d="M123.939 114L82.0407 113.962C81.5106 113.98 80.983 113.874 80.4903 113.65C79.9975 113.426 79.5503 113.089 79.1763 112.659C78.7953 112.233 78.4945 111.722 78.2924 111.158C78.0903 110.594 77.991 109.989 78.0006 109.38L78.0234 76.6205C78.037 75.3908 78.4739 74.2166 79.2395 73.3519C80.005 72.4873 81.0376 72.0016 82.1141 72L124.003 72.0379C137.289 72.0855 148.021 81.5713 148 93.1572C147.979 104.743 137.22 114.007 123.939 113.995V114ZM124.318 104.418C129.96 104.484 139.589 101.113 139.604 93.0534C139.618 84.994 129.97 81.5752 124.338 81.6157L86.4032 81.5812L86.3874 104.384L124.318 104.418Z" fill="#FF0000"/>
<path fill-rule="evenodd" clip-rule="evenodd" d="M137.713 0.0473758L86.2889 0C72.298 0.0797354 61.0108 13.7418 61 29.5291C60.9892 45.3165 71.0086 57.4286 83.8502 58.9482L140.115 59C146.596 58.2355 152.578 54.6164 156.829 48.8875C161.081 43.1586 163.28 35.756 162.972 28.2028C162.663 20.6497 159.873 13.5209 155.175 8.28346C150.476 3.04604 144.227 0.0984685 137.713 0.0473758ZM85.0139 49.1517C76.5157 49.2005 69.5839 40.477 69.5427 29.4238C69.5014 18.5094 76.3387 9.76789 84.6374 9.8064L139.08 9.85657C149.844 9.71725 154.612 18.4233 154.551 29.5021C154.495 40.3752 147.818 49.2095 139.518 49.2018L85.0139 49.1517Z" fill="#FF0000"/>
<path fill-rule="evenodd" clip-rule="evenodd" d="M94 29.5068C94.0008 28.3905 93.8076 27.285 93.4314 26.2534C93.0552 25.2218 92.5034 24.2842 91.8076 23.4943C91.1117 22.7044 90.2853 22.0775 89.3757 21.6496C88.466 21.2215 87.4909 21.0009 86.506 21C85.5211 20.999 84.5457 21.218 83.6354 21.6444C82.7252 22.0707 81.8979 22.6961 81.2009 23.4848C80.504 24.2735 79.9508 25.2101 79.5733 26.2409C79.1956 27.2719 79.0009 28.377 79 29.4933C78.9992 30.6095 79.1925 31.715 79.5686 32.7466C79.9449 33.7782 80.4966 34.7158 81.1925 35.5056C81.8884 36.2956 82.7147 36.9224 83.6244 37.3504C84.5341 37.7785 85.5092 37.9991 86.4941 38C87.479 38.0009 88.4544 37.782 89.3647 37.3556C90.2749 36.9293 91.1021 36.3038 91.7991 35.5152C92.4961 34.7265 93.0492 33.7899 93.4269 32.7591C93.8044 31.7281 93.9992 30.623 94 29.5068Z" fill="black"/>
<path fill-rule="evenodd" clip-rule="evenodd" d="M130 29.4933C130.001 28.3771 130.195 27.272 130.574 26.241C130.951 25.21 131.503 24.2736 132.201 23.4849C132.898 22.6962 133.725 22.0709 134.635 21.6444C135.546 21.2181 136.521 20.9991 137.506 21C138.491 21.0009 139.466 21.2216 140.375 21.6497C141.285 22.0776 142.111 22.7045 142.807 23.4944C143.503 24.2843 144.055 25.2219 144.431 26.2535C144.807 27.2851 145 28.3906 145 29.5068C144.999 30.623 144.804 31.7282 144.426 32.7591C144.049 33.79 143.495 34.7266 142.798 35.5151C142.102 36.3038 141.275 36.9293 140.364 37.3556C139.454 37.782 138.479 38.0009 137.494 38C136.509 37.9991 135.534 37.7784 134.624 37.3504C133.715 36.9224 132.889 36.2956 132.193 35.5056C131.497 34.7157 130.945 33.7782 130.569 32.7466C130.193 31.715 129.999 30.6095 130 29.4933Z" fill="black"/>
<path d="M177.839 130.007C178.536 130.018 179.226 130.193 179.863 130.52C181.098 131.133 182.078 132.27 182.594 133.693C182.924 134.593 183.057 135.573 182.978 136.545C182.9 137.518 182.613 138.452 182.144 139.268C181.872 139.734 181.546 140.156 181.176 140.523C180.801 140.891 180.383 141.193 179.931 141.421L182.722 148.443C182.754 148.514 182.774 148.593 182.78 148.673C182.782 148.737 182.775 148.801 182.758 148.862C182.758 148.908 182.7 148.939 182.633 148.958C182.53 148.985 182.425 148.999 182.321 149L181.719 148.999C181.654 148.999 181.592 148.976 181.54 148.931C181.488 148.889 181.449 148.829 181.429 148.759L178.669 141.777C178.523 141.82 178.373 141.852 178.223 141.874C178.051 141.894 177.878 141.905 177.705 141.904L172.287 141.899L172.283 148.511C172.291 148.573 172.285 148.637 172.267 148.695C172.25 148.755 172.22 148.809 172.182 148.854C172.142 148.898 172.095 148.931 172.043 148.952C171.992 148.972 171.936 148.978 171.882 148.969H171.404C171.349 148.978 171.294 148.972 171.243 148.951C171.19 148.931 171.143 148.897 171.104 148.853C171.065 148.808 171.036 148.754 171.018 148.694C171.001 148.635 170.996 148.572 171.003 148.509L171.016 130.426C171.045 130.307 171.093 130.196 171.158 130.099C171.193 130.062 171.234 130.035 171.279 130.018C171.324 130.002 171.371 129.996 171.418 130.002L177.839 130.007ZM177.185 140.449H177.363C177.653 140.449 177.938 140.449 178.219 140.423C178.505 140.407 178.789 140.342 179.058 140.231C179.441 140.082 179.803 139.868 180.128 139.594C180.453 139.324 180.737 138.999 180.972 138.628C181.321 138.08 181.557 137.449 181.663 136.783C181.768 136.116 181.743 135.43 181.586 134.777C181.43 134.122 181.145 133.517 180.758 133.005C180.369 132.494 179.885 132.089 179.34 131.821C178.856 131.579 178.331 131.457 177.802 131.463L172.295 131.458L172.289 140.444L177.185 140.449Z" fill="black"/>
<path d="M207 140.001C207 138.23 207.401 136.49 208.158 134.961C208.532 134.225 208.981 133.545 209.497 132.938C210.012 132.327 210.592 131.798 211.224 131.365C211.862 130.932 212.544 130.594 213.253 130.36C214.728 129.879 216.287 129.88 217.761 130.364C218.47 130.599 219.152 130.938 219.788 131.373C220.415 131.81 220.992 132.339 221.504 132.949C222.022 133.553 222.47 134.235 222.84 134.975C223.209 135.73 223.497 136.538 223.694 137.378C223.901 138.244 224.003 139.138 224 140.038C224.002 140.933 223.898 141.825 223.691 142.686C223.491 143.52 223.203 144.319 222.833 145.068C222.463 145.804 222.013 146.48 221.494 147.08C220.98 147.687 220.403 148.215 219.776 148.652C219.14 149.087 218.458 149.424 217.748 149.652C216.654 150.001 215.512 150.089 214.389 149.91C213.266 149.733 212.185 149.293 211.208 148.618C210.579 148.181 210.002 147.652 209.488 147.043C208.972 146.438 208.523 145.759 208.152 145.023C207.394 143.496 206.997 141.759 207 139.991V140.001ZM208.306 140.002C208.299 141.132 208.489 142.253 208.866 143.292C209.594 145.318 210.963 146.932 212.684 147.791C213.57 148.235 214.524 148.461 215.488 148.455C216.133 148.459 216.775 148.357 217.397 148.152C217.996 147.957 218.571 147.672 219.109 147.304C219.638 146.937 220.126 146.496 220.564 145.988C220.998 145.479 221.377 144.907 221.688 144.285C222.002 143.65 222.247 142.973 222.416 142.265C222.587 141.533 222.673 140.776 222.672 140.016C222.68 138.888 222.487 137.771 222.108 136.737C221.741 135.738 221.218 134.828 220.567 134.055C219.912 133.283 219.138 132.666 218.285 132.238C217.406 131.788 216.458 131.558 215.499 131.564C214.853 131.56 214.209 131.662 213.586 131.866C212.984 132.06 212.405 132.346 211.864 132.714C211.333 133.078 210.843 133.525 210.411 134.04C209.978 134.553 209.602 135.127 209.29 135.749C208.975 136.382 208.73 137.061 208.562 137.767C208.392 138.493 208.306 139.24 208.306 139.992V140.002Z" fill="black"/>
<path d="M256.457 130.006C257.085 130.002 257.708 130.131 258.291 130.386C258.843 130.619 259.348 130.967 259.777 131.411C260.201 131.86 260.537 132.397 260.766 132.987C261.01 133.605 261.134 134.271 261.129 134.943C261.137 135.749 260.948 136.544 260.579 137.245C260.224 137.92 259.726 138.498 259.127 138.927C259.547 139.119 259.935 139.382 260.278 139.705C260.629 140.033 260.936 140.41 261.192 140.827C261.449 141.25 261.65 141.71 261.788 142.194C261.931 142.692 262.002 143.209 262 143.729C262.001 144.415 261.876 145.096 261.633 145.729C261.403 146.346 261.068 146.911 260.647 147.397C260.227 147.881 259.725 148.273 259.168 148.551C258.594 148.843 257.968 148.996 257.334 149L249.365 148.994C249.271 148.991 249.182 148.951 249.114 148.881C249.053 148.81 249.014 148.72 249 148.625L249.014 130.485C249.014 130.271 249.057 130.139 249.142 130.082C249.22 130.029 249.311 130.001 249.403 130L256.457 130.006ZM259.647 134.988C259.653 134.538 259.574 134.093 259.415 133.678C259.256 133.262 259.022 132.886 258.724 132.572C258.435 132.265 258.092 132.024 257.716 131.86C257.316 131.688 256.888 131.601 256.456 131.602L250.496 131.597L250.491 138.392L256.437 138.397C257.285 138.407 258.103 138.055 258.712 137.418C259.015 137.104 259.255 136.726 259.419 136.308C259.582 135.89 259.665 135.442 259.661 134.988H259.647ZM260.512 143.753C260.512 143.271 260.422 142.795 260.247 142.351C260.076 141.909 259.837 141.502 259.538 141.148C259.246 140.801 258.897 140.517 258.506 140.313C258.12 140.106 257.696 139.998 257.264 140L250.49 139.995L250.485 147.414L257.35 147.42C257.768 147.42 258.182 147.317 258.557 147.118C259.333 146.72 259.941 146.021 260.26 145.161C260.429 144.714 260.515 144.236 260.512 143.753Z" fill="black"/>
<path d="M286 139.995C285.999 139.098 286.102 138.206 286.305 137.342C286.501 136.508 286.789 135.707 287.158 134.958C287.531 134.22 287.981 133.54 288.498 132.935C289.01 132.324 289.589 131.796 290.22 131.365C290.858 130.931 291.54 130.593 292.249 130.36C293.725 129.879 295.284 129.88 296.758 130.364C297.469 130.597 298.149 130.936 298.787 131.372C299.413 131.809 299.99 132.338 300.503 132.946C301.02 133.551 301.47 134.231 301.84 134.971C302.209 135.727 302.496 136.533 302.694 137.374C302.899 138.239 303.003 139.133 303 140.031C303.002 140.927 302.897 141.818 302.69 142.679C302.49 143.511 302.202 144.311 301.832 145.058C301.462 145.794 301.012 146.471 300.493 147.07C299.979 147.677 299.401 148.205 298.775 148.642C298.139 149.076 297.456 149.412 296.745 149.641C295.299 150.11 293.772 150.12 292.321 149.668C290.87 149.216 289.547 148.32 288.488 147.069C287.449 145.852 286.699 144.337 286.31 142.674C286.103 141.802 285.998 140.901 286 139.995ZM287.307 139.996C287.298 141.125 287.489 142.245 287.867 143.283C288.594 145.311 289.966 146.925 291.689 147.78C292.574 148.225 293.527 148.451 294.49 148.443C295.135 148.448 295.777 148.346 296.399 148.142C296.999 147.946 297.574 147.661 298.112 147.294C298.641 146.927 299.129 146.485 299.566 145.979C300.002 145.47 300.379 144.897 300.691 144.276C301.006 143.643 301.251 142.964 301.42 142.258C301.591 141.526 301.676 140.769 301.675 140.01C301.684 138.883 301.491 137.767 301.111 136.732C300.744 135.733 300.222 134.824 299.57 134.051C298.914 133.281 298.14 132.665 297.288 132.235C295.803 131.492 294.148 131.361 292.592 131.865C291.988 132.058 291.407 132.343 290.866 132.712C290.334 133.077 289.844 133.521 289.412 134.038C288.979 134.55 288.602 135.123 288.291 135.746C287.978 136.374 287.734 137.046 287.566 137.747C287.393 138.476 287.307 139.229 287.307 139.985V139.996Z" fill="black"/>
</svg>
