<?xml version="1.0" encoding="utf-8"?>
<svg viewBox="0 0 500 500" xmlns="http://www.w3.org/2000/svg">
  <g id="SvgjsG1097" transform="matrix(0.9999999999999999, 0, 0, 0.9999999999999999, 104.8561019897461, 52.669643402099595)">
    <svg xmlns="http://www.w3.org/2000/svg" viewBox="0 0 50 50" width="288" height="288"/>
  </g>
  <path d="M 253.911 89.667 C 156.34 89.667 71.465 144.019 27.907 224.097 C 71.465 304.171 156.34 358.523 253.911 358.523 C 351.481 358.523 436.36 304.171 479.919 224.097 C 436.36 144.019 351.485 89.667 253.911 89.667 Z M 253.911 89.667" fill="#fff" transform="matrix(0.9999999999999999, 0, 0, 0.9999999999999999, -7.105427357601002e-15, -1.4210854715202004e-14)"/>
  <path d="M 349.118 222.941 C 349.118 275.523 306.493 318.148 253.911 318.148 C 201.333 318.148 158.708 275.523 158.708 222.941 C 158.708 170.363 201.333 127.738 253.911 127.738 C 306.493 127.738 349.118 170.363 349.118 222.941 Z M 349.118 222.941" fill="#ff5d5d" transform="matrix(0.9999999999999999, 0, 0, 0.9999999999999999, -7.105427357601002e-15, -1.4210854715202004e-14)"/>
  <path d="M 253.911 89.667 C 156.34 89.667 71.465 144.019 27.907 224.097 C 71.465 184.058 156.34 156.882 253.911 156.882 C 351.481 156.882 436.36 184.058 479.919 224.097 C 436.36 144.019 351.485 89.667 253.911 89.667 Z M 253.911 89.667" fill="#fccb9d" transform="matrix(0.9999999999999999, 0, 0, 0.9999999999999999, -7.105427357601002e-15, -1.4210854715202004e-14)"/>
  <path d="M 303.676 222.941 C 303.676 250.425 281.395 272.706 253.911 272.706 C 226.426 272.706 204.149 250.425 204.149 222.941 C 204.149 195.456 226.426 173.179 253.911 173.179 C 281.395 173.179 303.676 195.456 303.676 222.941 Z M 303.676 222.941" fill="#686c83" transform="matrix(0.9999999999999999, 0, 0, 0.9999999999999999, -7.105427357601002e-15, -1.4210854715202004e-14)"/>
  <path d="M 256.669 202.402 C 256.669 215.355 246.169 225.855 233.215 225.855 C 220.262 225.855 209.762 215.355 209.762 202.402 C 209.762 189.449 220.262 178.949 233.215 178.949 C 246.169 178.949 256.669 189.449 256.669 202.402 Z M 256.669 202.402" fill="#fff" transform="matrix(0.9999999999999999, 0, 0, 0.9999999999999999, -7.105427357601002e-15, -1.4210854715202004e-14)"/>
  <path d="M 254.438 348.523 C 254.43 348.523 254.419 348.523 254.411 348.523 L 253.911 348.523 C 248.387 348.523 243.911 352.999 243.911 358.523 C 243.911 364.046 248.387 368.523 253.911 368.523 L 254.465 368.523 C 259.989 368.507 264.454 364.019 264.438 358.495 C 264.422 352.98 259.95 348.523 254.438 348.523 Z M 254.438 348.523" transform="matrix(0.9999999999999999, 0, 0, 0.9999999999999999, -7.105427357601002e-15, -1.4210854715202004e-14)"/>
  <path d="M 488.704 219.316 C 441.844 133.179 351.879 79.667 253.915 79.667 C 155.946 79.667 65.977 133.179 19.122 219.316 C 17.501 222.296 17.501 225.894 19.122 228.874 C 38.426 264.359 66.044 295.538 98.997 319.035 C 132.551 342.964 171.754 358.968 212.368 365.312 C 217.829 366.163 222.938 362.429 223.79 356.972 C 224.645 351.515 220.911 346.402 215.454 345.55 C 142.743 334.191 77.981 289.824 40.653 226.273 C 68.68 203.257 110.739 185.792 159.817 175.941 C 152.579 190.449 148.708 206.546 148.708 222.941 C 148.708 280.952 195.903 328.148 253.911 328.148 C 311.922 328.148 359.118 280.952 359.118 222.941 C 359.118 206.546 355.243 190.445 348.008 175.941 C 397.086 185.792 439.145 203.257 467.172 226.273 C 429.844 289.824 365.079 334.191 292.372 345.55 C 286.915 346.402 283.18 351.515 284.032 356.972 C 284.805 361.906 289.059 365.433 293.903 365.433 C 294.415 365.433 294.934 365.39 295.458 365.312 C 336.071 358.968 375.274 342.964 408.829 319.035 C 441.782 295.538 469.399 264.359 488.704 228.874 C 490.325 225.894 490.325 222.296 488.704 219.316 Z M 253.911 99.667 C 327.215 99.667 395.676 132.058 442.114 186.605 C 410.77 170.644 372.051 158.906 329.586 152.484 C 328.989 152.339 328.383 152.245 327.774 152.214 C 304.086 148.722 279.258 146.882 253.915 146.882 C 228.567 146.882 203.739 148.722 180.051 152.214 C 179.442 152.245 178.836 152.339 178.239 152.484 C 135.774 158.906 97.055 170.644 65.711 186.605 C 112.149 132.058 180.61 99.667 253.911 99.667 Z M 233.215 188.949 C 240.633 188.949 246.669 194.984 246.669 202.402 C 246.669 209.82 240.633 215.855 233.215 215.855 C 225.797 215.855 219.762 209.82 219.762 202.402 C 219.762 194.984 225.797 188.949 233.215 188.949 Z M 233.215 235.855 C 251.661 235.855 266.669 220.847 266.669 202.402 C 266.669 195.535 264.586 189.144 261.024 183.827 C 279.567 187.191 293.676 203.445 293.676 222.941 C 293.676 244.867 275.84 262.702 253.911 262.702 C 234.516 262.702 218.329 248.742 214.848 230.339 C 220.126 233.824 226.438 235.855 233.215 235.855 Z M 339.118 222.941 C 339.118 269.925 300.895 308.148 253.911 308.148 C 206.93 308.148 168.708 269.925 168.708 222.941 C 168.708 204.367 174.813 186.253 185.977 171.511 C 200.868 169.441 216.247 168.035 231.946 167.359 C 230.305 168.003 228.692 168.722 227.114 169.515 C 213.446 172.046 202.669 182.91 200.27 196.628 C 196.278 204.769 194.149 213.824 194.149 222.941 C 194.149 255.894 220.958 282.706 253.911 282.706 C 286.868 282.706 313.676 255.894 313.676 222.941 C 313.676 197.718 297.965 176.113 275.821 167.355 C 291.54 168.035 306.938 169.437 321.848 171.515 C 333.008 186.253 339.118 204.367 339.118 222.941 Z M 339.118 222.941" transform="matrix(0.9999999999999999, 0, 0, 0.9999999999999999, -7.105427357601002e-15, -1.4210854715202004e-14)"/>
  <g transform="matrix(0.9999999999999999, 0, 0, 0.9999999999999999, 501.8423461914062, 19.219219207763658)">
    <g transform="matrix(0.661511, 0, 0, 0.613942, -368.157349, 18.028986)" style="">
      <path d="M 362.277 -25.694 L 303.689 140.936 C 299.355 153.263 308.453 166.192 321.462 166.192 L 390.183 166.192 L 368.022 272.333 C 365.271 285.508 382.19 293.303 390.327 282.609 L 495.431 144.479 C 504.916 132.013 496.072 114.027 480.457 114.027 L 425.383 114.027 L 504.63 -13.048 C 510.708 -22.794 503.737 -35.452 492.293 -35.452 L 376.006 -35.452 C 369.834 -35.451 364.333 -31.542 362.277 -25.694 L 362.277 -25.694 Z" style="fill: rgb(249, 135, 99);"/>
      <g fill="#f1d333" style="" transform="matrix(1.124643, 0, 0, 1.130255, -37.716431, -37.465374)">
        <path d="m379.612 284.335c-7.523 7.707-21.177.914-18.842-10.238l19.704-93.91h15.816l-19.704 93.91c-.884 4.222.525 7.822 3.026 10.238z" style="fill: rgb(241, 51, 51);"/>
        <path d="m403.666 1.783c-5.487 0-10.381 3.457-12.21 8.633l-52.097 147.427c-3.853 10.905 4.239 22.344 15.805 22.344h-35.791c-11.566 0-19.658-11.44-15.805-22.344l52.097-147.427c1.829-5.176 6.718-8.633 12.205-8.633h35.796z" style="fill: rgb(241, 51, 51);"/>
      </g>
    </g>
  </g>
</svg>