<svg xmlns="http://www.w3.org/2000/svg" enable-background="new 0 0 256 256" viewBox="0 0 256 256"><rect width="79.365" height="79.365" x="8.953" y="8.952" fill="#44C7B6"/><rect width="20.677" height="79.371" x="8.957" y="8.947" fill="#4BDBC3"/><rect width="79.365" height="79.365" x="167.682" y="8.95" fill="#F9D335" transform="rotate(-180 207.365 48.632)"/><rect width="20.677" height="79.371" x="226.366" y="8.947" fill="#F2C300"/><rect width="79.365" height="79.365" x="88.318" y="8.952" fill="#5FCDFF"/><rect width="79.365" height="79.365" x="8.953" y="88.319" fill="#B76C6C"/><rect width="20.677" height="79.371" x="8.957" y="88.314" fill="#C98585"/><rect width="79.365" height="79.365" x="167.682" y="88.317" fill="#3193F3" transform="rotate(-180 207.365 127.999)"/><rect width="20.677" height="79.371" x="226.366" y="88.314" fill="#307FED"/><rect width="79.365" height="79.365" x="88.318" y="88.319" fill="#FF4A73"/><g><rect width="79.365" height="79.365" x="8.953" y="167.686" fill="#FFBB98"/><rect width="20.677" height="79.371" x="8.957" y="167.681" fill="#FFCAA6"/><rect width="79.365" height="79.365" x="167.682" y="167.684" fill="#FFE2E2" transform="rotate(-180 207.365 207.366)"/><rect width="20.677" height="79.371" x="226.366" y="167.681" fill="#FFCFCF"/><rect width="79.365" height="79.365" x="88.318" y="167.686" fill="#87828E"/></g><g><path fill="#FFE2E2" d="M187.523,162.356L247.047,128l-59.523-34.356l0,0c-36.833-21.259-82.214-21.259-119.047,0l0,0
							L8.953,128l59.523,34.356l0,0C105.31,183.615,150.69,183.615,187.523,162.356L187.523,162.356z"/><path fill="#FFEFEE" d="M99.773,162.355c13.736,7.931,28.65,12.897,43.878,14.909c-5.194,0.687-10.417,1.031-15.65,1.031
							c-20.559,0-41.109-5.31-59.528-15.94L8.954,128.001l59.518-34.354c18.419-10.63,38.969-15.94,59.528-15.94
							c5.233,0,10.456,0.343,15.65,1.03c-15.228,2.012-30.142,6.979-43.878,14.91l-52.155,30.104c-3.273,1.889-3.273,6.611,0,8.5
							L99.773,162.355z"/><path fill="#FFCFCF" d="M247.046,128.001l-59.518,34.354c-18.419,10.63-38.969,15.94-59.528,15.94
							c-5.017,0-10.024-0.314-15.012-0.942c15.444-1.963,30.594-6.959,44.526-14.998l52.155-30.104c3.273-1.889,3.273-6.611,0-8.5
							l-52.155-30.104c-13.932-8.039-29.082-13.035-44.526-14.998c4.988-0.628,9.995-0.942,15.012-0.942
							c20.559,0,41.109,5.31,59.528,15.94L247.046,128.001z"/><ellipse cx="128" cy="128" fill="#3193F3" rx="46.806" ry="46.792"/><path fill="#307FED" d="M174.803,128.001c0,25.844-20.952,46.79-46.803,46.79c-2.504,0-4.968-0.196-7.364-0.579
							c22.356-3.524,39.44-22.87,39.44-46.21s-17.084-42.687-39.44-46.211c2.396-0.383,4.86-0.579,7.364-0.579
							C153.851,81.212,174.803,102.158,174.803,128.001z"/><path fill="#35B1FC" d="M135.364,174.212c-2.396,0.383-4.86,0.579-7.364,0.579c-25.851,0-46.803-20.946-46.803-46.79
							c0-25.844,20.952-46.79,46.803-46.79c2.504,0,4.968,0.196,7.364,0.579c-22.356,3.524-39.44,22.87-39.44,46.211
							S113.008,170.688,135.364,174.212z"/></g><g><path fill="#5F266D" d="M247.05,4.95c-9.277,0-232.029,0-238.1,0c-2.21,0-4,1.79-4,4c0,10.727,0,225.852,0,238.1
				c0,2.21,1.79,4,4,4c6.231,0,229.308,0,238.1,0c2.21,0,4-1.79,4-4v-79.37V88.32v-0.01V8.95C251.05,6.74,249.26,4.95,247.05,4.95z
				 M92.32,12.95h71.36v66.06c-23.23-7.01-48.13-7.01-71.36,0V12.95z M151.59,163.69c-0.005,0.003-0.018,0.012-0.019,0.012h-0.001
				c-6.766,4.482-14.869,7.088-23.571,7.088c-35.782,0-56.04-42.23-32.95-70.08c0.016,0.016,18.304,18.304,18.32,18.32
				c-9.455,15.377,8.329,32.975,23.598,23.598c0.019,0.019,18.303,18.302,18.322,18.322
				C154.115,161.916,152.863,162.853,151.59,163.69L151.59,163.69z M92.87,87.21c2.73-0.87,5.49-1.64,8.26-2.3
				c-2.14,1.34-4.18,2.83-6.09,4.47L92.87,87.21z M142.63,136.97c1.607-2.613,2.55-5.678,2.55-8.97
				c0-9.485-7.692-17.175-17.18-17.175c-3.291,0-6.355,0.942-8.968,2.546l-0.012-0.012l-18.3-18.3c7.342-6.16,17.02-9.85,27.28-9.85
				c8.71,0,16.83,2.62,23.6,7.11c21.328,14.114,25.563,43.415,9.35,62.97L142.63,136.97z M12.95,12.95h71.37v65.71L66.18,60.52
				c-1.57-1.56-4.1-1.56-5.66,0s-1.56,4.09,0,5.66l17.94,17.94c-0.15,0.06-0.29,0.13-0.44,0.2H12.95V12.95z M12.95,92.32h49.82
				l-49.82,28.76V92.32z M12.95,134.92l49.82,28.76H12.95V134.92z M84.32,243.05H12.95v-71.36h65.09c2.07,0.93,4.17,1.79,6.28,2.58
				V243.05z M16.96,128c81.741-47.179,51.397-29.672,67.6-37.78c0.423,0.423,4.298,4.298,4.82,4.82
				c-20.267,23.608-14.529,59.658,11.75,76.05c-1.402-0.336-8.367-2.162-8.91-2.52C77.55,163.835,73.873,160.848,16.96,128z
				 M163.68,243.05H92.32v-66.06c11.62,3.51,23.65,5.26,35.68,5.26s24.06-1.75,35.68-5.26V243.05z M153.9,171.68
				c1.531-0.881,4.361-2.742,7.06-5.06c2.316,2.316,4.203,4.203,5.06,5.06C160.68,171.68,158.404,171.68,153.9,171.68z
				 M166.62,160.96c7.653-8.914,12.19-20.486,12.19-32.96c0-18.213-9.657-34.18-23.94-43.09c1.395,0.335,8.378,2.166,8.91,2.52
				c4.218,1.362,8.547,3.061,12.47,4.88c0,0,0.01,0.01,0.02,0.01c6.401,2.956,4.532,2.067,62.77,35.68l-53.52,30.89
				c-7.758,4.48-13.08,6.389-14.08,6.89C170.985,165.33,167.073,161.413,166.62,160.96z M243.05,243.05h-71.37v-65.71l18.14,18.14
				c3.772,3.725,9.386-1.91,5.66-5.66l-17.94-17.94c0.15-0.06,0.3-0.13,0.44-0.2h65.07V243.05z M243.05,163.68h-49.82l49.82-28.76
				V163.68z M243.05,121.08l-49.82-28.76h49.82V121.08z M243.05,84.31h-65.09c-2.07-0.92-4.17-1.78-6.28-2.58V12.95h71.37V84.31z"/><path fill="#5F266D" d="M151.54 119.83c.61 2.5.92 5.24.92 8.17 0 2.21 1.79 4 4 4 2.21 0 4-1.79 4-4 0-3.57-.39-6.95-1.15-10.06-.52-2.15-2.69-3.46-4.83-2.94C152.33 115.52 151.02 117.69 151.54 119.83zM131.12 101.52c.08.01 8.24 1.04 14.36 7.21 1.562 1.562 4.083 1.576 5.66.02 5.788-5.788-10.937-14.268-19.14-15.18-2.19-.24-4.15 1.34-4.4 3.53C127.35 99.28 128.93 101.26 131.12 101.52z"/></g></svg>