<?xml version="1.0" encoding="utf-8"?>
<svg viewBox="0 0 32 32" xmlns="http://www.w3.org/2000/svg">
  <path fill="#ff7376" d="M 28.962 19.147 L 25.309 12.95 C 24.919 12.279 23.945 12.277 23.555 12.949 C 23.554 12.95 23.554 12.95 23.554 12.95 L 22.552 14.66 L 15.01 1.903 C 14.62 1.232 13.646 1.23 13.256 1.902 C 13.254 1.903 13.254 1.903 13.254 1.903 L 5.453 15.141 C 2.994 19.197 3.559 24.387 6.832 27.828 C 11.21 32.211 18.468 31.765 22.269 26.879 C 26.818 28.964 31.614 23.692 28.962 19.147 Z" style="" transform="matrix(0.9999999999999999, 0, 0, 0.9999999999999999, -1.7763568394002505e-15, 0)"/>
  <path d="M 23.907 25.004 L 23.742 25.004 C 22.38 24.811 21.371 23.643 21.385 22.275 C 21.385 21.628 21.913 21.103 22.564 21.103 C 23.214 21.103 23.742 21.628 23.742 22.275 C 23.735 22.463 23.873 22.626 24.06 22.65 C 24.972 22.708 25.478 23.726 24.971 24.482 C 24.736 24.832 24.33 25.031 23.907 25.004 Z M 12.913 28.519 L 12.736 28.519 C 9.076 27.975 6.38 24.83 6.42 21.15 C 6.42 20.504 6.948 19.979 7.598 19.979 C 8.249 19.979 8.777 20.504 8.777 21.15 C 8.744 23.66 10.581 25.807 13.078 26.176 C 13.985 26.239 14.483 27.255 13.974 28.005 C 13.739 28.353 13.333 28.548 12.913 28.519 Z" style="fill: rgb(211, 76, 76);" transform="matrix(0.9999999999999999, 0, 0, 0.9999999999999999, -1.7763568394002505e-15, 0)"/>
  <path fill="#fff" d="M 13.059 20.359 L 15.416 20.359 L 17.773 20.359 C 18.424 20.359 18.951 19.836 18.951 19.188 C 18.951 18.54 18.424 18.016 17.773 18.016 L 15.416 18.016 L 13.059 18.016 L 10.702 18.016 C 10.052 18.016 9.524 18.54 9.524 19.188 C 9.524 19.836 10.052 20.359 10.702 20.359 L 13.059 20.359 Z" style="" transform="matrix(0.9999999999999999, 0, 0, 0.9999999999999999, -1.7763568394002505e-15, 0)"/>
</svg>