<?xml version="1.0" encoding="utf-8"?>
<!-- Generator: Adobe Illustrator 23.0.1, SVG Export Plug-In . SVG Version: 6.00 Build 0)  -->
<svg version="1.1" id="Capa_1" xmlns="http://www.w3.org/2000/svg" xmlns:xlink="http://www.w3.org/1999/xlink" x="0px" y="0px"
	 viewBox="0 0 512 512" style="enable-background:new 0 0 512 512;" xml:space="preserve">
<style type="text/css">
	.st0{fill:#FE6A16;}
	.st1{fill:#F24500;}
	.st2{fill:#FFFFFF;}
	.st3{fill:#E9EDF5;}
	.st4{fill:#FF9500;}
	.st5{fill:#606AEA;}
	.st6{fill:#4855B7;}
	.st7{fill:#414952;}
	.st8{fill:#23272B;}
	.st9{fill:#BFE1FF;}
	.st10{fill:#87C7FF;}
	.st11{fill:#FF6536;}
	.st12{fill:#FF421D;}
	.st13{fill:#FBBF00;}
	.st14{fill:#FFA900;}
</style>
<g>
	<g>
		<g>
			<g>
				<g>
					<g>
						<g>
							<g>
								<g>
									<circle class="st0" cx="202" cy="202" r="202"/>
								</g>
							</g>
						</g>
					</g>
				</g>
			</g>
		</g>
	</g>
	<path class="st1" d="M329.1,154.5l-259,72.2l173,173c83.6-17.3,148.3-86.3,159.2-172L329.1,154.5z"/>
	<g>
		<ellipse class="st2" cx="202" cy="193" rx="157.9" ry="89.5"/>
	</g>
	<g>
		<path class="st3" d="M359.8,193c-32.1-53.6-90.8-89.4-157.8-89.5v179C269.1,282.4,327.7,246.6,359.8,193L359.8,193z"/>
	</g>
	<g>
		<path class="st4" d="M95,175.4l11.2-20.9l37,19.9L132,195.4L95,175.4z"/>
	</g>
	<g>
		<path class="st4" d="M138.6,225.4l-34.3-6.6l-22.8,6.3l-6.3-22.8l28.1-7.8l39.7,7.6L138.6,225.4z"/>
	</g>
	<g>
		<path class="st0" d="M245.2,165.8l41-33.6l15,18.3l-41,33.6L245.2,165.8z"/>
	</g>
	<g>
		<path class="st0" d="M300.1,198.5l-27-27.8l17-16.5l16.4,17l21.1-7.4l7.9,22.3L300.1,198.5z"/>
	</g>
	<g>
		<circle class="st5" cx="202" cy="193" r="79.6"/>
	</g>
	<g>
		<path class="st6" d="M281.6,193c0-44-35.6-79.6-79.5-79.6v159.3C246,272.6,281.6,236.9,281.6,193L281.6,193z"/>
	</g>
	<g>
		<circle class="st7" cx="202" cy="193" r="43"/>
	</g>
	<g>
		<path class="st8" d="M245,193c0-23.7-19.2-42.9-42.9-43V236C225.8,235.9,245,216.7,245,193L245,193z"/>
	</g>
	<g>
		<path class="st9" d="M359.7,192.8c-5.6-9.3-18.5-10.6-26-2.8c-33.4,34.3-80.1,55.5-131.7,55.5c-1.9,0-3.9,0-5.8-0.1
			c-15.3-0.5-30.5,3-44.3,9.8c-0.2,0.1-0.3,0.2-0.5,0.2c-9.1,4.5-7.8,17.9,2,20.6c15.5,4.2,31.7,6.5,48.5,6.5
			c67,0,125.7-35.9,157.9-89.5C359.8,192.9,359.8,192.8,359.7,192.8L359.7,192.8z"/>
	</g>
	<g>
		<path class="st10" d="M359.8,193c0-0.1-0.1-0.2-0.1-0.2c-5.6-9.3-18.5-10.6-26-2.8c-33.4,34.2-80,55.5-131.6,55.5v37
			C269.1,282.4,327.7,246.6,359.8,193L359.8,193z"/>
	</g>
	<g>
		<path class="st10" d="M359.8,281.7c0,15.6-12.6,28.2-28.2,28.2c-15.6,0-28.2-12.6-28.2-28.2c0-15.6,12.6-84,28.2-84
			C347.2,197.7,359.8,266.1,359.8,281.7z"/>
	</g>
</g>
<g>
	<path class="st11" d="M327.4,394c0,0,9.1,13.4,28.2,24.7c0,0-13.8-116.7,76.2-137c-23.1,84.6,29.3,108.5,48.4,63.8
		c31.9,42.6,7.7,79.7,7.7,79.7c13.1,1.9,24.1-12.4,24.1-12.4c0.1,1.8,0.2,3.5,0.2,5.3c0,51.8-42,93.9-93.9,93.9s-93.9-42-93.9-93.9
		C324.2,409.8,325.3,401.7,327.4,394z"/>
	<path class="st12" d="M511.8,412.8c0,0-11,14.3-24.1,12.4c0,0,24.2-37.1-7.7-79.7c-19.1,44.7-71.5,20.8-48.4-63.8
		c-4.8,1.1-9.3,2.4-13.6,4.1V512c51.8,0,93.9-42,93.9-93.9C512,416.3,511.9,414.6,511.8,412.8z"/>
	<path class="st13" d="M376.9,470.8c0,22.7,18.4,41.2,41.2,41.2c22.7,0,41.2-18.4,41.2-41.2c0-12.2-5.3-23.1-13.7-30.6
		C429.7,461.8,407,429,424.7,405C424.7,405,376.9,411,376.9,470.8z"/>
	<path class="st14" d="M459.3,470.8c0-12.2-5.3-23.1-13.7-30.6C429.7,461.8,407,429,424.7,405c0,0-2.6,0.3-6.6,1.6V512
		C440.9,512,459.3,493.6,459.3,470.8z"/>
</g>
</svg>
