<svg height="512pt" viewBox="0 -54 512.00063 512" width="512pt" xmlns="http://www.w3.org/2000/svg"><path d="m275.992188 10c-97.570313 0-182.445313 54.351562-226.003907 134.429688 43.558594 80.074218 128.433594 134.425781 226.003907 134.425781 97.570312 0 182.449218-54.351563 226.007812-134.425781-43.558594-80.078126-128.433594-134.429688-226.007812-134.429688zm0 0" fill="#fff"/><path d="m371.199219 143.273438c0 52.582031-42.625 95.207031-95.207031 95.207031-52.578126 0-95.203126-42.625-95.203126-95.207031 0-52.578126 42.625-95.203126 95.203126-95.203126 52.582031 0 95.207031 42.625 95.207031 95.203126zm0 0" fill="#ff5d5d"/><path d="m275.992188 10c-97.570313 0-182.445313 54.351562-226.003907 134.429688 43.558594-40.039063 128.433594-67.214844 226.003907-67.214844 97.570312 0 182.449218 27.175781 226.007812 67.214844-43.558594-80.078126-128.433594-134.429688-226.007812-134.429688zm0 0" fill="#fccb9d"/><path d="m325.757812 143.273438c0 27.484374-22.28125 49.765624-49.765624 49.765624-27.484376 0-49.761719-22.28125-49.761719-49.765624 0-27.484376 22.277343-49.761719 49.761719-49.761719 27.484374 0 49.765624 22.277343 49.765624 49.761719zm0 0" fill="#686c83"/><path d="m278.75 122.734375c0 12.953125-10.5 23.453125-23.453125 23.453125s-23.453125-10.5-23.453125-23.453125 10.5-23.453125 23.453125-23.453125 23.453125 10.5 23.453125 23.453125zm0 0" fill="#fff"/><path d="m129.566406 334.226562c0 33.019532-26.765625 59.785157-59.78125 59.785157-33.019531 0-59.785156-26.765625-59.785156-59.785157 0-33.015624 59.78125-102.554687 59.78125-102.554687s59.785156 69.539063 59.785156 102.554687zm0 0" fill="#4dbaf6"/><path d="m276.519531 268.855469c-.007812 0-.019531 0-.027343 0h-.5c-5.523438 0-10 4.476562-10 10 0 5.523437 4.476562 10 10 10h.554687c5.523437-.015625 9.988281-4.503907 9.972656-10.027344-.015625-5.515625-4.488281-9.972656-10-9.972656zm0 0"/><path d="m510.785156 139.648438c-46.859375-86.136719-136.824218-139.648438-234.789062-139.648438-97.96875 0-187.9375 53.511719-234.792969 139.648438-1.621094 2.980468-1.621094 6.578124 0 9.558593 19.304687 35.484375 46.921875 66.664063 79.875 90.160157 33.554687 23.929687 72.757813 39.933593 113.371094 46.277343 5.460937.851563 10.570312-2.882812 11.421875-8.339843.855468-5.457032-2.878906-10.570313-8.335938-11.421876-72.710937-11.359374-137.472656-55.726562-174.800781-119.277343 28.027344-23.015625 70.085937-40.480469 119.164063-50.332031-7.238282 14.507812-11.109376 30.605468-11.109376 47 0 58.011718 47.195313 105.207031 105.203126 105.207031 58.011718 0 105.207031-47.195313 105.207031-105.207031 0-16.394532-3.875-32.496094-11.109375-47 49.078125 9.851562 91.136718 27.316406 119.164062 50.332031-37.328125 63.550781-102.09375 107.917969-174.800781 119.277343-5.457031.851563-9.191406 5.964844-8.339844 11.421876.773438 4.933593 5.027344 8.460937 9.871094 8.460937.511719 0 1.03125-.042969 1.554687-.121094 40.613282-6.34375 79.816407-22.347656 113.371094-46.277343 32.953125-23.496094 60.570313-54.675782 79.875-90.160157 1.621094-2.980469 1.621094-6.578125 0-9.558593zm-234.792968-119.648438c73.304687 0 141.765624 32.390625 188.203124 86.9375-31.34375-15.960938-70.0625-27.699219-112.527343-34.121094-.597657-.144531-1.203125-.238281-1.8125-.269531-23.6875-3.492187-48.515625-5.332031-73.859375-5.332031-25.347656 0-50.175782 1.839844-73.863282 5.332031-.609374.03125-1.214843.125-1.8125.269531-42.464843 6.421875-81.183593 18.160156-112.527343 34.121094 46.4375-54.546875 114.898437-86.9375 188.199219-86.9375zm-20.695313 89.28125c7.417969 0 13.453125 6.035156 13.453125 13.453125s-6.035156 13.453125-13.453125 13.453125-13.453125-6.035156-13.453125-13.453125 6.035156-13.453125 13.453125-13.453125zm0 46.90625c18.445313 0 33.453125-15.007812 33.453125-33.453125 0-6.867187-2.082031-13.257813-5.644531-18.574219 18.542969 3.363282 32.652343 19.617188 32.652343 39.113282 0 21.925781-17.835937 39.761718-39.765624 39.761718-19.394532 0-35.582032-13.960937-39.0625-32.363281 5.277343 3.484375 11.589843 5.515625 18.367187 5.515625zm105.902344-12.914062c0 46.984374-38.222657 85.207031-85.207031 85.207031-46.980469 0-85.203126-38.222657-85.203126-85.207031 0-18.574219 6.105469-36.6875 17.269532-51.429688 14.890625-2.070312 30.269531-3.476562 45.96875-4.152344-1.640625.644532-3.253906 1.363282-4.832032 2.15625-13.667968 2.53125-24.445312 13.394532-26.84375 27.113282-3.992187 8.140624-6.121093 17.195312-6.121093 26.3125 0 32.953124 26.808593 59.765624 59.761719 59.765624 32.957031 0 59.765624-26.8125 59.765624-59.765624 0-25.222657-15.710937-46.828126-37.855468-55.585938 15.71875.679688 31.117187 2.082031 46.027344 4.160156 11.160156 14.738282 17.269531 32.851563 17.269531 51.425782zm0 0"/><path d="m69.78125 221.671875c-2.914062 0-5.679688 1.273437-7.582031 3.484375-6.367188 7.402344-62.199219 73.378906-62.199219 109.070312 0 38.480469 31.304688 69.785157 69.78125 69.785157 38.480469 0 69.785156-31.304688 69.785156-69.785157 0-35.691406-55.835937-101.667968-62.199218-109.070312-1.902344-2.210938-4.671876-3.484375-7.585938-3.484375zm0 162.339844c-27.449219 0-49.78125-22.332031-49.78125-49.785157 0-19.023437 27.996094-59.980468 49.785156-86.925781 21.789063 26.933594 49.78125 67.882813 49.78125 86.925781 0 27.453126-22.332031 49.785157-49.785156 49.785157zm0 0"/></svg>