<svg xmlns="http://www.w3.org/2000/svg" enable-background="new 0 0 256 256" viewBox="0 0 256 256" id="loss-of-consciousness"><path fill="#6bdddd" d="M204.258,248H55.205v-20.956c0-19.208,15.571-34.779,34.779-34.779h79.495
			c19.208,0,34.779,15.571,34.779,34.779V248z"></path><path fill="#f9cfcf" d="M194.755,101.107c-0.138,0-0.271,0.018-0.408,0.02v-6.042c0-35.316-28.929-63.945-64.615-63.945l0,0
			c-35.686,0-64.615,28.629-64.615,63.945v6.042c-0.137-0.003-0.271-0.02-0.408-0.02c-10.887,0-19.713,8.734-19.713,19.509
			c0,10.774,8.826,19.509,19.713,19.509c0.715,0,1.42-0.042,2.115-0.116c6.668,28.289,32.292,49.369,62.908,49.369l0,0
			c30.616,0,56.24-21.08,62.908-49.369c0.695,0.073,1.4,0.116,2.115,0.116c10.887,0,19.713-8.734,19.713-19.509
			C214.467,109.841,205.642,101.107,194.755,101.107z"></path><path fill="#3762cc" d="M142.223,161.093c-1.104,0-2-0.896-2-2c0-1.589-0.702-3.124-2.029-4.438c-1.17-1.158-2.767-2.063-4.616-2.615
			c-1.114-0.333-2.375-0.495-3.855-0.495c-1.479,0-2.74,0.162-3.854,0.495c-1.85,0.553-3.446,1.458-4.618,2.616
			c-1.327,1.314-2.028,2.849-2.028,4.438c0,1.104-0.896,2-2,2s-2-0.896-2-2c0-2.642,1.142-5.227,3.214-7.28
			c1.636-1.62,3.81-2.867,6.287-3.606c1.49-0.445,3.125-0.662,4.999-0.662s3.509,0.217,5,0.663c2.477,0.74,4.65,1.986,6.286,3.605
			c2.073,2.053,3.214,4.638,3.214,7.28C144.223,160.197,143.328,161.093,142.223,161.093z"></path><path fill="#f9cfcf" d="M134.507,189.184c-0.261,0.02-0.521,0.042-0.783,0.06c-0.405,0.025-0.811,0.046-1.219,0.063
			c-0.92,0.041-1.844,0.07-2.774,0.07c-0.931,0-1.855-0.029-2.775-0.07c-0.408-0.017-0.814-0.039-1.219-0.063
			c-0.261-0.017-0.52-0.039-0.78-0.059c-9.516-0.689-18.461-3.402-26.384-7.733v7.425c0,17.262,13.501,31.256,30.156,31.256h2.005
			c16.655,0,30.156-13.994,30.156-31.256v-7.425C152.967,185.782,144.022,188.495,134.507,189.184z"></path><path fill="#3762cc" d="M204.258,250H55.205c-1.104,0-2-0.896-2-2v-20.957c0-20.28,16.499-36.779,36.779-36.779h6.619
			c-0.02-0.467-0.029-0.931-0.029-1.389v-7.424c0-0.706,0.373-1.36,0.98-1.72c0.607-0.361,1.36-0.373,1.979-0.035
			c7.894,4.314,16.497,6.835,25.57,7.493l0.766,0.059c0.383,0.023,0.777,0.044,1.173,0.061c1.792,0.08,3.594,0.08,5.375,0
			c0.401-0.017,0.795-0.038,1.188-0.062l0.746-0.057c9.083-0.658,17.686-3.18,25.581-7.494c0.619-0.338,1.371-0.326,1.979,0.035
			c0.607,0.36,0.98,1.014,0.98,1.72v7.425c0,0.458-0.01,0.921-0.029,1.389h6.619c20.28,0,36.779,16.499,36.779,36.779V248
			C206.258,249.104,205.362,250,204.258,250z M57.205,246h145.053v-18.957c0-18.074-14.705-32.779-32.779-32.779h-8.769
			c-0.566,0-1.106-0.24-1.485-0.661c-0.379-0.421-0.563-0.983-0.504-1.546c0.112-1.076,0.168-2.147,0.168-3.182v-4.146
			c-7.575,3.665-15.713,5.832-24.238,6.449l-0.797,0.061c-0.428,0.026-0.845,0.048-1.265,0.065c-1.889,0.086-3.823,0.086-5.724,0
			c-0.413-0.018-0.832-0.04-1.25-0.064l-0.816-0.063c-8.516-0.617-16.652-2.783-24.227-6.448v4.146c0,1.035,0.057,2.106,0.168,3.182
			c0.059,0.563-0.125,1.125-0.504,1.546c-0.379,0.42-0.919,0.661-1.485,0.661h-8.769c-18.075,0-32.779,14.705-32.779,32.779V246z"></path><path fill="#3762cc" d="M129.731,191.377c-30.546,0-56.805-20.17-64.444-49.262c-0.195,0.005-0.388,0.008-0.579,0.008
			c-11.973,0-21.713-9.648-21.713-21.508c0-11.33,8.889-20.642,20.122-21.452v-4.078c0-36.362,29.883-65.945,66.615-65.945
			s66.615,29.583,66.615,65.945v4.078c11.232,0.811,20.121,10.122,20.121,21.452c0,11.86-9.74,21.508-21.713,21.508
			c-0.191,0-0.384-0.003-0.579-0.008C186.536,171.207,160.278,191.377,129.731,191.377z M66.825,138.008
			c0.917,0,1.73,0.63,1.945,1.541c6.638,28.161,31.706,47.828,60.961,47.828s54.324-19.667,60.961-47.828
			c0.231-0.98,1.155-1.638,2.158-1.53c0.664,0.07,1.286,0.104,1.904,0.104c9.767,0,17.713-7.854,17.713-17.508
			c0-9.653-7.943-17.506-17.707-17.509c-0.181,0.012-0.279,0.019-0.378,0.02c-0.544,0.023-1.055-0.197-1.437-0.573
			c-0.383-0.376-0.599-0.89-0.599-1.427v-6.042c0-34.157-28.089-61.945-62.615-61.945S67.117,60.929,67.117,95.085v6.042
			c0,0.537-0.216,1.051-0.599,1.427c-0.382,0.376-0.882,0.613-1.437,0.573c-0.1-0.001-0.198-0.008-0.296-0.015
			c-0.003,0-0.007,0-0.01,0c-9.839,0-17.78,7.852-17.78,17.503c0,9.654,7.946,17.508,17.713,17.508c0.618,0,1.24-0.034,1.904-0.104
			C66.684,138.011,66.754,138.008,66.825,138.008z"></path><path fill="#4671c6" d="M43.888,78.471c-2.924-7.829-3.132-16.414-0.59-24.376l0.218-0.684c4.158-13.024,15.113-22.727,28.544-25.282
			c6.34-1.206,12.884-0.745,18.992,1.337l0.713,0.243c0.041,0.37,0.103,0.742,0.194,1.111c2.933,11.989,8.317,23.038,15.632,32.533
			c-6.349,17.689-14.117,27.773-20.039,33.357l0,0.002l-7.773,7.889l-15.072-3.494c-4.118,0-7.939,1.253-11.101,3.39L43.888,78.471z
			"></path><path fill="#4671c6" d="M206.305,51.659c-5.07-15.73-16.649-28.23-31.454-34.392l0.001-0.008c-52.045-25.619-80.51,5.289-80.51,5.289
			l0,0c-2.142,2.062-3.136,5.197-2.384,8.273c5.975,24.423,22.073,44.985,44.102,56.333l0.031,0.016
			c4.756,2.45,9.721,4.45,14.835,5.976c1.272,0.38,2.297-1.093,1.527-2.192l-10.701-15.271c-0.933-1.331,0.706-2.956,1.978-1.959
			c11.833,9.266,34.824,24.616,58.08,25.387l3.787-10.371C209.951,76.819,210.2,63.743,206.305,51.659z"></path><path fill="#3762cc" d="M79.78,106.601c-0.15,0-0.302-0.017-0.452-0.052l-14.843-3.441c-3.5,0.042-6.869,1.094-9.758,3.046
			c-0.508,0.343-1.146,0.435-1.729,0.248c-0.584-0.187-1.05-0.631-1.264-1.205L42.015,79.17l0,0
			c-3.067-8.212-3.288-17.333-0.622-25.684l0.219-0.685c4.385-13.735,15.909-23.943,30.075-26.637
			c6.667-1.267,13.586-0.782,20.011,1.409l0.713,0.243c0.734,0.25,1.257,0.902,1.343,1.673c0.033,0.301,0.083,0.589,0.149,0.858
			c2.845,11.63,7.984,22.325,15.274,31.786c0.416,0.54,0.528,1.255,0.298,1.896c-6.619,18.441-14.828,28.742-20.549,34.136
			l-7.72,7.839C80.824,106.391,80.309,106.601,79.78,106.601z M64.708,99.106c0.152,0,0.304,0.018,0.452,0.052l13.98,3.242
			l6.987-7.092c5.351-5.047,12.931-14.559,19.211-31.612c-7.279-9.688-12.431-20.582-15.323-32.4
			c-0.006-0.024-0.012-0.049-0.018-0.073c-5.655-1.851-11.719-2.243-17.565-1.129C59.71,32.514,49.36,41.681,45.422,54.019
			l-0.219,0.685c-2.394,7.499-2.195,15.691,0.559,23.067l8.882,23.785C57.738,99.947,61.172,99.106,64.708,99.106z"></path><path fill="#3762cc" d="M201.811 101.111c-.022 0-.044 0-.067-.001-21.966-.728-43.602-14.087-56.173-23.462l8.52 12.158c.854 1.218.842 2.784-.027 3.989-.857 1.187-2.314 1.683-3.709 1.268-5.218-1.557-10.325-3.615-15.178-6.115-22.594-11.639-39.043-32.646-45.16-57.652-.895-3.657.216-7.54 2.899-10.15.688-.731 7.984-8.247 21.535-12.748 12.784-4.246 33.792-6.467 61.286 7.066.018.009.035.018.052.027 15.411 6.472 27.221 19.421 32.421 35.554l0 0c4.016 12.46 3.755 26.09-.733 38.381l-3.787 10.371C203.4 100.588 202.648 101.111 201.811 101.111zM142.875 71.411c.727 0 1.458.245 2.089.738 11.25 8.809 33.216 23.569 55.472 24.896l3.283-8.991c4.185-11.458 4.427-24.166.683-35.781l0 0c-4.858-15.076-15.91-27.162-30.319-33.159-.095-.04-.187-.086-.272-.139-20.655-10.129-40.668-12.498-57.888-6.85-13.048 4.279-20.041 11.706-20.11 11.781-.026.028-.055.058-.082.084-1.689 1.625-2.389 4.061-1.828 6.356 5.842 23.88 21.542 43.938 43.075 55.031 4.147 2.136 8.461 3.925 12.868 5.341l-9.731-13.886c-.988-1.41-.8-3.292.448-4.475C141.224 71.729 142.046 71.411 142.875 71.411zM170.814 134.927c-.768 0-1.536-.293-2.121-.879l-17.998-17.998c-1.172-1.171-1.172-3.071 0-4.242 1.171-1.172 3.071-1.172 4.242 0l17.998 17.998c1.172 1.171 1.172 3.071 0 4.242C172.35 134.634 171.582 134.927 170.814 134.927z"></path><path fill="#3762cc" d="M152.816 134.927c-.768 0-1.536-.293-2.121-.879-1.172-1.171-1.172-3.071 0-4.242l17.998-17.998c1.171-1.172 3.071-1.172 4.242 0 1.172 1.171 1.172 3.071 0 4.242l-17.998 17.998C154.352 134.634 153.584 134.927 152.816 134.927zM106.759 134.927c-.768 0-1.536-.293-2.121-.878L86.64 116.051c-1.172-1.172-1.172-3.071 0-4.243 1.172-1.172 3.072-1.171 4.243 0l17.998 17.998c1.172 1.172 1.172 3.071 0 4.243C108.294 134.634 107.526 134.927 106.759 134.927z"></path><path fill="#3762cc" d="M88.761,134.927c-0.768,0-1.536-0.293-2.122-0.879c-1.171-1.171-1.171-3.071,0-4.243l17.998-17.998
			c1.171-1.171,3.071-1.171,4.243,0c1.171,1.171,1.171,3.071,0,4.243l-17.998,17.998C90.296,134.634,89.528,134.927,88.761,134.927z
			"></path><path fill="#f9a7a7" d="M202.021,76.337c-2.217,0-4.463-0.229-6.717-0.708c-14.965-3.182-24.552-17.944-21.371-32.909
			c1.327-6.244,5.007-11.598,10.361-15.075c5.354-3.478,11.741-4.661,17.985-3.333c5.39,1.146,10.011,4.322,13.013,8.943
			c3.001,4.621,4.022,10.135,2.877,15.524c-0.991,4.664-3.74,8.663-7.738,11.259c-3.998,2.597-8.768,3.482-13.433,2.49
			c-8.353-1.775-13.705-10.016-11.929-18.369c1.545-7.271,8.72-11.931,15.987-10.382c6.349,1.35,10.417,7.614,9.068,13.963
			c-1.184,5.567-6.676,9.132-12.242,7.95c-4.902-1.042-8.042-5.878-7-10.779c0.447-2.101,1.685-3.902,3.486-5.071
			c1.801-1.17,3.952-1.566,6.05-1.122c1.135,0.241,1.859,1.356,1.618,2.491c-0.242,1.134-1.359,1.858-2.491,1.618
			c-2.073-0.442-4.114,0.886-4.555,2.958c-0.561,2.636,1.129,5.237,3.765,5.798c3.307,0.703,6.559-1.414,7.261-4.715
			c0.868-4.084-1.749-8.113-5.833-8.981c-5.006-1.065-9.942,2.142-11.006,7.147c-1.294,6.088,2.606,12.094,8.694,13.388
			c3.566,0.758,7.215,0.083,10.272-1.904c3.058-1.986,5.16-5.043,5.917-8.61c0.913-4.292,0.099-8.684-2.291-12.364
			c-2.39-3.681-6.071-6.21-10.363-7.122c-5.148-1.095-10.412-0.119-14.825,2.748c-4.413,2.866-7.446,7.278-8.54,12.425
			c-2.699,12.699,5.437,25.228,18.136,27.927c15.144,3.22,30.077-6.481,33.295-21.622c3.829-18.012-7.71-35.782-25.723-39.61
			c-14.065-2.989-28.687,1.891-38.155,12.736c-0.762,0.874-2.09,0.965-2.963,0.201c-0.874-0.763-0.964-2.089-0.201-2.963
			c10.468-11.993,26.635-17.388,42.192-14.083C224.9,10.49,237.89,30.494,233.58,50.771
			C230.359,65.924,216.927,76.336,202.021,76.337z"></path></svg>