<svg xmlns="http://www.w3.org/2000/svg" fill-rule="evenodd" stroke-linejoin="round" stroke-miterlimit="2" clip-rule="evenodd" viewBox="0 0 32 32"><g transform="translate(-104 -156)"><path fill="#3569be" d="M129 166a1 1 0 0 0-1 1v20a1 1 0 0 0 1 1h4a3 3 0 0 0 3-3v-16a3 3 0 0 0-3-3h-4ZM104 169v16a3 3 0 0 0 3 3h4a1 1 0 0 0 1-1v-20a1 1 0 0 0-1-1h-4a3 3 0 0 0-3 3Z"/><path fill="#5490f2" d="M127 161h-2a1 1 0 0 0-1 1c0 2.208-1.792 4-4 4s-4-1.792-4-4a1 1 0 0 0-1-1h-2c-.796 0-1.559.316-2.121.879A2.996 2.996 0 0 0 110 164v23a1 1 0 0 0 1 1h18a1 1 0 0 0 1-1v-23c0-.796-.316-1.559-.879-2.121A2.996 2.996 0 0 0 127 161Z"/><path fill="#fff" d="M115 175v13h10v-13a2.996 2.996 0 0 0-3-3h-4a2.999 2.999 0 0 0-3 3Z"/><circle cx="68.5" cy="16.5" r="7.8" fill="#b92016" transform="translate(67.308 149.308) scale(.76923)"/><path fill="#fff" d="M121 164v-4a1 1 0 0 0-2 0v4a1 1 0 0 0 2 0Z"/><path fill="#fff" d="M118 163h4a1 1 0 0 0 0-2h-4a1 1 0 0 0 0 2Z"/></g></svg>