<svg xmlns="http://www.w3.org/2000/svg" viewBox="0 0 512 512"><path fill="#c7d9ff" d="M291 98.5v-25c0-11.028 8.972-20 20-20a19.86 19.86 0 0 1 14.139 5.86c3.78 3.771 5.861 8.792 5.861 14.14v25l5 5 5-5v-25c0-8.023-3.125-15.559-8.794-21.215C326.541 46.62 319.01 43.5 311 43.5c-16.542 0-30 13.458-30 30v25l5 5 5-5zm-110 0v-25c0-11.028 8.972-20 20-20a19.86 19.86 0 0 1 14.139 5.86c3.78 3.771 5.861 8.792 5.861 14.14v25l5 5 5-5v-25c0-8.023-3.125-15.559-8.794-21.215C216.541 46.62 209.01 43.5 201 43.5c-16.542 0-30 13.458-30 30v25l5 5 5-5zm220 0v-25c0-11.028 8.972-20 20-20a19.86 19.86 0 0 1 14.139 5.86c3.78 3.771 5.861 8.792 5.861 14.14v25l5 5 5-5v-25c0-8.023-3.125-15.559-8.794-21.215C436.541 46.62 429.01 43.5 421 43.5c-16.542 0-30 13.458-30 30v25l5 5 5-5z"/><path fill="#e4ebf8" d="M256 163.5s-241.69 25-250 25v280h500v-280c-10.739 0-250-25-250-25z"/><path fill="#c7d9ff" d="M71 98.5v-25c0-11.028 8.972-20 20-20a19.86 19.86 0 0 1 14.139 5.86c3.78 3.771 5.861 8.792 5.861 14.14v25l5 5 5-5v-25c0-8.023-3.125-15.559-8.794-21.215C106.541 46.62 99.01 43.5 91 43.5c-16.542 0-30 13.458-30 30v25l5 5 5-5z"/><path fill="#ff3445" d="M6 98.5v90h500v-90H6z"/><path fill="#8fc9f7" d="M97.88 153.5H116a5 5 0 1 0 0-10H97.88C83.058 143.5 71 131.438 71 116.61V98.5H61v18.11c0 20.341 16.544 36.89 36.88 36.89zm110 0H226a5 5 0 1 0 0-10h-18.12c-14.822 0-26.88-12.063-26.88-26.89V98.5h-10v18.11c0 20.341 16.544 36.89 36.88 36.89zm110 0H336a5 5 0 1 0 0-10h-18.12c-14.822 0-26.88-12.063-26.88-26.89V98.5h-10v18.11c0 20.341 16.544 36.89 36.88 36.89zm110 0H446a5 5 0 1 0 0-10h-18.12c-14.822 0-26.88-12.063-26.88-26.89V98.5h-10v18.11c0 20.341 16.544 36.89 36.88 36.89z"/><path fill="#9e69e2" d="M396 248.5h50v50h-50zM286 358.5h50v50h-50z"/><path fill="#65b2ff" d="M396 358.5h50v50h-50zM286 248.5h50v50h-50zM66 358.5h50v50H66zM176 248.5h50v50h-50z"/><path fill="#b5e237" d="M176 358.5h50v50h-50zM66 248.5h50v50H66z"/></svg>