<svg xmlns="http://www.w3.org/2000/svg" viewBox="0 0 48 48" id="marketing-billboard"><g><rect width="6" height="14" x="21" y="33" fill="#c6c3d8"></rect><path fill="#dad7e5" d="M27,35V47H23V39A4,4,0,0,1,27,35Z"></path><path fill="#919191" d="M46 36V33a1 1 0 0 0-2 0v3H4V33a1 1 0 0 0-2 0v3a1 1 0 0 0 0 2H46A1 1 0 0 0 46 36zM5 1H3A1 1 0 0 0 3 3V6A1 1 0 0 0 5 6V3A1 1 0 0 0 5 1zM15 1H13a1 1 0 0 0 0 2V6a1 1 0 0 0 2 0V3A1 1 0 0 0 15 1zM25 1H23a1 1 0 0 0 0 2V6a1 1 0 0 0 2 0V3A1 1 0 0 0 25 1zM35 1H33a1 1 0 0 0 0 2V6a1 1 0 0 0 2 0V3A1 1 0 0 0 35 1zM45 1H43a1 1 0 0 0 0 2V6a1 1 0 0 0 2 0V3A1 1 0 0 0 45 1z"></path><rect width="46" height="28" x="1" y="5" fill="#dad7e5"></rect><path fill="#edebf2" d="M47,5V31H30A26,26,0,0,1,4,5Z"></path><rect width="42" height="24" x="3" y="7" fill="#9fdbf3"></rect><path fill="#b2e5fb" d="M45,7V29H28A22,22,0,0,1,6,7Z"></path><path fill="#dad7e5" d="M35,9V25L25,21V13Z"></path><path fill="#edebf2" d="M35,9V22.2l-1.69-.67A10.07,10.07,0,0,1,27,12.2Z"></path><rect width="8" height="8" x="17" y="13" fill="#dad7e5"></rect><path fill="#edebf2" d="M25,13v6a6,6,0,0,1-6-6Z"></path><path fill="#db5669" d="M17,13v8a4,4,0,1,1,0-8Z"></path><path fill="#f26674" d="M17,13v5.87a4,4,0,0,1-2.93-4.59A4,4,0,0,1,17,13Z"></path><path fill="#c6c3d8" d="M22,29H18c-1-8.06-.82-6.62-1-8h4Z"></path><path fill="#dad7e5" d="M20.88,29H18l-.87-7a3.26,3.26,0,0,1,3.23,2.85Z"></path></g></svg>