<?xml version="1.0" encoding="utf-8"?>
<svg viewBox="0 0 500 500" xmlns="http://www.w3.org/2000/svg">
  <g id="SvgjsG1097" transform="matrix(1, 0, 0, 1, 104.8561019897461, 52.66964340209961)">
    <svg xmlns="http://www.w3.org/2000/svg" viewBox="0 0 50 50" width="288" height="288"/>
  </g>
  <path d="M 253.911 89.667 C 156.34 89.667 71.465 144.019 27.907 224.097 C 71.465 304.171 156.34 358.523 253.911 358.523 C 351.481 358.523 436.36 304.171 479.919 224.097 C 436.36 144.019 351.485 89.667 253.911 89.667 Z M 253.911 89.667" fill="#fff"/>
  <path d="M 349.118 222.941 C 349.118 275.523 306.493 318.148 253.911 318.148 C 201.333 318.148 158.708 275.523 158.708 222.941 C 158.708 170.363 201.333 127.738 253.911 127.738 C 306.493 127.738 349.118 170.363 349.118 222.941 Z M 349.118 222.941" style="fill: rgb(255, 112, 112);"/>
  <path d="M 253.911 89.667 C 156.34 89.667 71.465 144.019 27.907 224.097 C 71.465 184.058 156.34 156.882 253.911 156.882 C 351.481 156.882 436.36 184.058 479.919 224.097 C 436.36 144.019 351.485 89.667 253.911 89.667 Z M 253.911 89.667" fill="#fccb9d"/>
  <path d="M 303.676 222.941 C 303.676 250.425 281.395 272.706 253.911 272.706 C 226.426 272.706 204.149 250.425 204.149 222.941 C 204.149 195.456 226.426 173.179 253.911 173.179 C 281.395 173.179 303.676 195.456 303.676 222.941 Z M 303.676 222.941" style=""/>
  <path d="M 256.669 202.402 C 256.669 215.355 246.169 225.855 233.215 225.855 C 220.262 225.855 209.762 215.355 209.762 202.402 C 209.762 189.449 220.262 178.949 233.215 178.949 C 246.169 178.949 256.669 189.449 256.669 202.402 Z M 256.669 202.402" fill="#fff"/>
  <path d="M 254.438 348.523 C 254.43 348.523 254.419 348.523 254.411 348.523 L 253.911 348.523 C 248.387 348.523 243.911 352.999 243.911 358.523 C 243.911 364.046 248.387 368.523 253.911 368.523 L 254.465 368.523 C 259.989 368.507 264.454 364.019 264.438 358.495 C 264.422 352.98 259.95 348.523 254.438 348.523 Z M 254.438 348.523" style="fill: rgb(166, 119, 119);"/>
  <g transform="matrix(1, 0, 0, 1, 604.8313598632812, 165.2344512939453)">
    <g>
      <path class="st1" d="M -493.9 95.555 L -469.022 118.716 C -467.9 119.769 -466.152 120.374 -464.312 120.374 L -450.225 120.374 C -446.95 120.374 -444.281 118.493 -444.281 116.151 C -444.281 113.824 -446.928 111.926 -450.225 111.926 L -461.374 111.926 L -480.283 94.312 L -463.549 92.798 C -460.297 92.494 -458.009 90.39 -458.413 88.079 C -458.838 85.768 -461.8 84.142 -465.053 84.429 L -504.037 87.968 L -531.986 73.048 L -518.528 69.414 C -517.182 69.048 -516.061 68.347 -515.386 67.438 L -505.877 54.622 C -505.81 54.622 -505.742 54.638 -505.675 54.638 C -505.383 54.638 -505.09 54.622 -504.8 54.591 L -463.414 50.255 C -460.161 49.919 -457.92 47.768 -458.413 45.473 C -458.884 43.161 -461.889 41.582 -465.142 41.918 L -499.102 45.456 L -489.884 33.024 C -488.357 30.967 -489.457 28.417 -492.373 27.333 C -495.267 26.249 -498.856 27.03 -500.381 29.103 L -524.876 62.113 L -571.397 74.69 C -572.205 74.913 -572.901 75.247 -573.462 75.647 L -564.69 81.91 L -545.11 76.619 L -509.242 95.778 C -508.21 96.336 -506.954 96.623 -505.675 96.623 C -505.427 96.623 -505.182 96.608 -504.934 96.591 L -493.9 95.555 Z" style="fill: rgb(249, 167, 167); transform-box: fill-box; transform-origin: 50% 50%;" transform="matrix(0.985116, 0.171893, -0.171893, 0.985116, -0.000002, 0.000001)"/>
      <path class="st1" d="M -180.637 52.655 L -156.51 29.494 C -155.422 28.441 -153.727 27.836 -151.942 27.836 L -138.281 27.836 C -135.105 27.836 -132.516 29.717 -132.516 32.059 C -132.516 34.386 -135.083 36.284 -138.281 36.284 L -149.093 36.284 L -167.431 53.898 L -151.203 55.412 C -148.049 55.716 -145.83 57.82 -146.222 60.131 C -146.634 62.442 -149.506 64.068 -152.661 63.781 L -190.468 60.242 L -217.573 75.162 L -204.522 78.796 C -203.216 79.162 -202.129 79.863 -201.475 80.772 L -192.253 93.588 C -192.188 93.588 -192.122 93.572 -192.057 93.572 C -191.774 93.572 -191.489 93.588 -191.208 93.619 L -151.072 97.955 C -147.917 98.291 -145.743 100.442 -146.222 102.737 C -146.678 105.049 -149.593 106.628 -152.747 106.292 L -185.682 102.754 L -176.742 115.186 C -175.262 117.243 -176.328 119.793 -179.156 120.877 C -181.963 121.961 -185.444 121.18 -186.923 119.107 L -210.678 86.097 L -255.795 73.52 C -256.578 73.297 -257.253 72.963 -257.797 72.563 L -249.29 66.3 L -230.301 71.591 L -195.516 52.432 C -194.515 51.874 -193.297 51.587 -192.057 51.587 C -191.816 51.587 -191.579 51.602 -191.338 51.619 L -180.637 52.655 Z" style="fill: rgb(249, 167, 167); transform-origin: -195.156px 74.6px;" transform="matrix(-0.966138, 0.258026, -0.258026, -0.966138, -0.000004, 0.000015)"/>
    </g>
  </g>
  <path d="M 488.704 219.316 C 441.844 133.179 351.879 79.667 253.915 79.667 C 155.946 79.667 65.977 133.179 19.122 219.316 C 17.501 222.296 17.501 225.894 19.122 228.874 C 38.426 264.359 66.044 295.538 98.997 319.035 C 132.551 342.964 171.754 358.968 212.368 365.312 C 217.829 366.163 222.938 362.429 223.79 356.972 C 224.645 351.515 220.911 346.402 215.454 345.55 C 142.743 334.191 77.981 289.824 40.653 226.273 C 68.68 203.257 110.739 185.792 159.817 175.941 C 152.579 190.449 148.708 206.546 148.708 222.941 C 148.708 280.952 195.903 328.148 253.911 328.148 C 311.922 328.148 359.118 280.952 359.118 222.941 C 359.118 206.546 355.243 190.445 348.008 175.941 C 397.086 185.792 439.145 203.257 467.172 226.273 C 429.844 289.824 365.079 334.191 292.372 345.55 C 286.915 346.402 283.18 351.515 284.032 356.972 C 284.805 361.906 289.059 365.433 293.903 365.433 C 294.415 365.433 294.934 365.39 295.458 365.312 C 336.071 358.968 375.274 342.964 408.829 319.035 C 441.782 295.538 469.399 264.359 488.704 228.874 C 490.325 225.894 490.325 222.296 488.704 219.316 Z M 253.911 99.667 C 327.215 99.667 395.676 132.058 442.114 186.605 C 410.77 170.644 372.051 158.906 329.586 152.484 C 328.989 152.339 328.383 152.245 327.774 152.214 C 304.086 148.722 279.258 146.882 253.915 146.882 C 228.567 146.882 203.739 148.722 180.051 152.214 C 179.442 152.245 178.836 152.339 178.239 152.484 C 135.774 158.906 97.055 170.644 65.711 186.605 C 112.149 132.058 180.61 99.667 253.911 99.667 Z M 233.215 188.949 C 240.633 188.949 246.669 194.984 246.669 202.402 C 246.669 209.82 240.633 215.855 233.215 215.855 C 225.797 215.855 219.762 209.82 219.762 202.402 C 219.762 194.984 225.797 188.949 233.215 188.949 Z M 233.215 235.855 C 251.661 235.855 266.669 220.847 266.669 202.402 C 266.669 195.535 264.586 189.144 261.024 183.827 C 279.567 187.191 293.676 203.445 293.676 222.941 C 293.676 244.867 275.84 262.702 253.911 262.702 C 234.516 262.702 218.329 248.742 214.848 230.339 C 220.126 233.824 226.438 235.855 233.215 235.855 Z M 339.118 222.941 C 339.118 269.925 300.895 308.148 253.911 308.148 C 206.93 308.148 168.708 269.925 168.708 222.941 C 168.708 204.367 174.813 186.253 185.977 171.511 C 200.868 169.441 216.247 168.035 231.946 167.359 C 230.305 168.003 228.692 168.722 227.114 169.515 C 213.446 172.046 202.669 182.91 200.27 196.628 C 196.278 204.769 194.149 213.824 194.149 222.941 C 194.149 255.894 220.958 282.706 253.911 282.706 C 286.868 282.706 313.676 255.894 313.676 222.941 C 313.676 197.718 297.965 176.113 275.821 167.355 C 291.54 168.035 306.938 169.437 321.848 171.515 C 333.008 186.253 339.118 204.367 339.118 222.941 Z M 339.118 222.941" style="fill: rgb(166, 119, 119);"/>
  <g transform="matrix(1.785944938659668, 0, 0, 1.652750015258789, 187.55368041992188, 177.9106903076172)" style="">
    <g>
      <path class="st6" d="M122.54,96.02c-2.45,3.68-6.53,5.93-10.94,6.05l-2.51-2.51c-3.29-3.29-7.76-5.15-12.42-5.15&#10;&#9;&#9;&#9;s-9.13-1.85-12.42-5.15l-9.41-9.41c0.31,1.22,3.3,13.19,3.75,14.99c1.66,6.64,6.76,11.69,13.12,13.45&#10;&#9;&#9;&#9;c3.03,0.84,4.97,3.84,4.97,6.99v1.28c0.03,0.28,0.45,16.5-3.38,35.73c-1.28,6.46-2.42,10.18-4.32,17.81h29.96&#10;&#9;&#9;&#9;c-1.79-7.21-3.19-11.84-4.6-19.11c-3.45-17.71-2.85-30.21-3.1-34.36c7.21-2.4,13.12-7.21,16.97-13.35&#10;&#9;&#9;&#9;c3.11-4.96,4.86-10.8,4.86-16.94v-6.1L122.54,96.02z" style="fill: rgb(187, 107, 88);"/>
    </g>
    <g>
      <path d="M164.97,56c-1.12-0.74-2.62-0.44-3.36,0.67l-5.33,8l-4.9-14.7c-0.42-1.27-1.8-1.96-3.07-1.53&#10;&#9;&#9;&#9;c-1.27,0.42-1.96,1.8-1.53,3.07l5.95,17.85c-4.59,4.74-11.68,7.93-18.67,8.4l-5.34-5.62l6.52-13.03c0.6-1.2,0.11-2.66-1.09-3.25&#10;&#9;&#9;&#9;c-1.2-0.6-2.66-0.11-3.25,1.08l-5.77,11.54l-4.9-4.9c-0.95-0.95-2.48-0.95-3.43,0c-0.95,0.95-0.95,2.48,0,3.43l7.26,7.26&#10;&#9;&#9;&#9;l5.92,6.23l-9.44,14.17c-1.82,2.73-4.76,4.51-7.99,4.89l-1.72-1.72c-3.78-3.78-8.8-5.86-14.14-5.86c-4.05,0-7.85-1.57-10.71-4.43&#10;&#9;&#9;&#9;l-7.03-7.03l11.05-5.53c9.67-0.22,18.35-5.77,22.64-14.35l0.77-1.54c0.6-1.2,0.12-2.66-1.08-3.26c-1.2-0.6-2.66-0.12-3.26,1.08&#10;&#9;&#9;&#9;l-0.77,1.54c-3.08,6.15-8.81,10.31-15.43,11.4l6.12-18.36c0.42-1.27-0.26-2.64-1.53-3.07c-1.27-0.42-2.64,0.26-3.07,1.53&#10;&#9;&#9;&#9;l-2.4,7.19l-8.14-8.14c-0.95-0.95-2.48-0.95-3.43,0c-0.95,0.95-0.95,2.48,0,3.43l9.86,9.86l-2.85,8.54l-12.03,6.01&#10;&#9;&#9;&#9;c-1.47-1.71-2.67-3.62-3.57-5.71c-1.22-2.82-1.83-5.8-1.83-8.88v-4.26c0-1.34-1.09-2.43-2.43-2.43s-2.43,1.09-2.43,2.43v4.26&#10;&#9;&#9;&#9;c0,2.19,0.26,4.34,0.77,6.43c-8.91-2.85-16.27-9.56-18.96-17.62l-0.37-1.12c-0.42-1.27-1.8-1.96-3.07-1.53&#10;&#9;&#9;&#9;c-1.27,0.42-1.96,1.8-1.53,3.07l0.37,1.12c3.51,10.53,13.69,19.09,25.56,21.63c1.22,2.5,2.81,4.78,4.73,6.8l2.03,8.12&#10;&#9;&#9;&#9;c-5.34,0.33-10.77-1.55-14.82-5.53c-0.96-0.94-2.49-0.93-3.43,0.03c-0.94,0.95-0.93,2.49,0.03,3.43c2.13,2.1,4.59,3.76,7.32,4.94&#10;&#9;&#9;&#9;c-0.21,4.29-3.74,7.69-7.99,7.69H53c-1.34,0-2.43,1.09-2.43,2.43c0,1.34,1.09,2.43,2.43,2.43h2.78c6.34,0,11.76-4.71,12.71-11.04&#10;&#9;&#9;&#9;c2.39,0.5,4.85,0.65,7.37,0.4l0.37,1.48c1.84,7.36,7.52,13.18,14.83,15.2c1.85,0.51,3.19,2.47,3.19,4.66v5.45&#10;&#9;&#9;&#9;c0,0.02,0,0.04,0,0.06c-0.1,5.37-0.58,15.49-2.63,27.23c-1.02-0.91-1.96-1.92-2.8-3.02c-2.76-3.65-4.28-8.18-4.28-12.75&#10;&#9;&#9;&#9;c0-1.34-1.09-2.43-2.43-2.43c-1.34,0-2.43,1.09-2.43,2.43c0,3.52,0.73,7.02,2.11,10.24c-5.18-2.2-9.51-6.19-12.07-11.32&#10;&#9;&#9;&#9;c-0.6-1.2-2.06-1.68-3.25-1.08c-1.2,0.6-1.68,2.06-1.08,3.25c3.98,7.96,11.47,13.64,20.17,15.36c1.46,1.79,3.15,3.37,5.03,4.71&#10;&#9;&#9;&#9;c-1.02,4.85-1.8,7.55-3.22,13.14c1.33,2.16,3.18,3.61,5.17,1.13h-0.44c0.65-3.27,6.57-21.07,7-46.89c0-0.01,0-0.03,0-0.04v-0.09&#10;&#9;&#9;&#9;c0.03-1.96,0.01-3.32,0-3.94v-0.15c0.01-6.17,3.56-11.34,12.7-12.08c5.14-0.18,9.9-2.84,12.76-7.12l6.01-9.01&#10;&#9;&#9;&#9;c-0.33,4.83-1.84,9.51-4.43,13.64c-3.63,5.79-9.2,10.18-15.68,12.34v0c-1.04,0.35-1.72,1.35-1.65,2.45&#10;&#9;&#9;&#9;c0.05,0.76,0.06,1.86,0.08,3.25c0.37,26.11,5.11,40.15,6.63,46.38c0.71,0.66,1.34,1.48,2.35,1.63c1.59,0.24,2.3-0.39,2.69-1.37&#10;&#9;&#9;&#9;c-1.37-5.42-2.39-8.95-3.6-14.87l9.83-9.83h6.27c1.34,0,2.43-1.09,2.43-2.43c0-1.34-1.09-2.43-2.43-2.43h-7.28&#10;&#9;&#9;&#9;c-0.64,0-1.26,0.26-1.72,0.71l-8.17,8.17c-1.95-11.82-2.08-20.9-2.16-26.04c-0.01-0.6-0.02-1.15-0.03-1.65&#10;&#9;&#9;&#9;c6.13-2.41,11.45-6.56,15.3-11.91c0.33,0.14,2.57,1.45,6.14,2.23c-0.42,5.64,4.16,10.52,9.68,10.52h2.78&#10;&#9;&#9;&#9;c1.34,0,2.43-1.09,2.43-2.43c0-1.34-1.09-2.43-2.43-2.43h-2.78c-2.72,0-4.95-2.45-4.86-5.11c0.12,0,0.23,0,0.35,0&#10;&#9;&#9;&#9;c3.04,0,6.08-0.57,8.91-1.69c1.25-0.49,1.86-1.9,1.37-3.15c-0.49-1.25-1.9-1.86-3.15-1.37c-2.89,1.14-6.04,1.57-9.13,1.25&#10;&#9;&#9;&#9;c-2.32-0.24-4.57-0.89-6.66-1.94l-0.09-0.04c2.57-4.9,3.91-10.35,3.91-15.92v-3.82c9.98-0.99,19.01-6.39,23.68-13.43l6.48-9.72&#10;&#9;&#9;&#9;C166.39,58.25,166.08,56.75,164.97,56z M96.34,108.35c-1.09-1.12-2.45-1.97-3.99-2.39c-5.62-1.55-10-6.04-11.41-11.7l-1.62-6.49&#10;&#9;&#9;&#9;l3.22,3.22c3.78,3.78,8.8,5.86,14.14,5.86c3.54,0,6.89,1.2,9.58,3.42C102.03,101.47,98.47,104.42,96.34,108.35z"/>
    </g>
  </g>
</svg>