<?xml version="1.0" encoding="utf-8"?>
<svg viewBox="0 0 500 500" xmlns="http://www.w3.org/2000/svg">
  <g id="SvgjsG1097" transform="matrix(0.9999999999999999, 0, 0, 0.9999999999999999, 104.85610198974587, 52.66964340209961)">
    <svg xmlns="http://www.w3.org/2000/svg" viewBox="0 0 50 50" width="288" height="288"/>
  </g>
  <path d="M 253.911 89.667 C 156.34 89.667 71.465 144.019 27.907 224.097 C 71.465 304.171 156.34 358.523 253.911 358.523 C 351.481 358.523 436.36 304.171 479.919 224.097 C 436.36 144.019 351.485 89.667 253.911 89.667 Z M 253.911 89.667" fill="#fff" transform="matrix(0.9999999999999999, 0, 0, 0.9999999999999999, -1.1368683772161603e-13, 0)"/>
  <path d="M 349.118 222.941 C 349.118 275.523 306.493 318.148 253.911 318.148 C 201.333 318.148 158.708 275.523 158.708 222.941 C 158.708 170.363 201.333 127.738 253.911 127.738 C 306.493 127.738 349.118 170.363 349.118 222.941 Z M 349.118 222.941" style="fill: rgb(158, 82, 82);" transform="matrix(0.9999999999999999, 0, 0, 0.9999999999999999, -1.1368683772161603e-13, 0)"/>
  <path d="M 253.911 89.667 C 156.34 89.667 71.465 144.019 27.907 224.097 C 71.465 184.058 156.34 156.882 253.911 156.882 C 351.481 156.882 436.36 184.058 479.919 224.097 C 436.36 144.019 351.485 89.667 253.911 89.667 Z M 253.911 89.667" fill="#fccb9d" transform="matrix(0.9999999999999999, 0, 0, 0.9999999999999999, -1.1368683772161603e-13, 0)"/>
  <path d="M 324.351 224.847 C 324.351 242.863 296.313 268.658 257.222 268.658 C 218.135 268.658 186.449 254.054 186.449 236.038 C 186.449 218.022 245.287 172.545 284.374 172.545 C 298.094 172.545 277.67 210.619 288.516 213.734 C 308.572 219.491 324.351 213.153 324.351 224.847 Z M 327.999 236.038" style="fill: rgb(99, 213, 103);" transform="matrix(0.9999999999999999, 0, 0, 0.9999999999999999, -1.1368683772161603e-13, 0)"/>
  <path d="M 488.704 219.316 C 441.844 133.179 351.879 79.667 253.915 79.667 C 155.946 79.667 65.977 133.179 19.122 219.316 C 17.501 222.296 17.501 225.894 19.122 228.874 C 38.426 264.359 66.044 295.538 98.997 319.035 C 132.551 342.964 171.754 358.968 212.368 365.312 C 217.829 366.163 222.938 362.429 223.79 356.972 C 224.645 351.515 220.911 346.402 215.454 345.55 C 142.743 334.191 77.981 289.824 40.653 226.273 C 68.68 203.257 110.739 185.792 159.817 175.941 C 152.579 190.449 148.708 206.546 148.708 222.941 C 148.708 280.952 195.903 328.148 253.911 328.148 C 311.922 328.148 359.118 280.952 359.118 222.941 C 359.118 206.546 355.243 190.445 348.008 175.941 C 397.086 185.792 439.145 203.257 467.172 226.273 C 429.844 289.824 365.079 334.191 292.372 345.55 C 286.915 346.402 283.18 351.515 284.032 356.972 C 284.805 361.906 289.059 365.433 293.903 365.433 C 294.415 365.433 294.934 365.39 295.458 365.312 C 336.071 358.968 375.274 342.964 408.829 319.035 C 441.782 295.538 469.399 264.359 488.704 228.874 C 490.325 225.894 490.325 222.296 488.704 219.316 Z M 253.911 99.667 C 327.215 99.667 395.676 132.058 442.114 186.605 C 410.77 170.644 372.051 158.906 329.586 152.484 C 328.989 152.339 328.383 152.245 327.774 152.214 C 304.086 148.722 279.258 146.882 253.915 146.882 C 228.567 146.882 203.739 148.722 180.051 152.214 C 179.442 152.245 178.836 152.339 178.239 152.484 C 135.774 158.906 97.055 170.644 65.711 186.605 C 112.149 132.058 180.61 99.667 253.911 99.667 Z M 339.118 222.941 C 339.118 269.925 300.895 308.148 253.911 308.148 C 206.93 308.148 168.708 269.925 168.708 222.941 C 168.708 204.367 174.813 186.253 185.977 171.511 C 192.061 170.665 213.392 165.931 237.451 164.731 C 284.288 162.394 313.029 170.286 321.848 171.515 C 333.008 186.253 339.118 204.367 339.118 222.941 Z M 339.118 222.941" transform="matrix(0.9999999999999999, 0, 0, 0.9999999999999999, -1.1368683772161603e-13, 0)"/>
  <path d="M 254.438 348.523 C 254.43 348.523 254.419 348.523 254.411 348.523 L 253.911 348.523 C 248.387 348.523 243.911 352.999 243.911 358.523 C 243.911 364.046 248.387 368.523 253.911 368.523 L 254.465 368.523 C 259.989 368.507 264.454 364.019 264.438 358.495 C 264.422 352.98 259.95 348.523 254.438 348.523 Z M 254.438 348.523" transform="matrix(0.9999999999999999, 0, 0, 0.9999999999999999, -1.1368683772161603e-13, 0)"/>
  <path d="M 292.648 236.529 C 292.648 246.206 287.29 244.673 286.562 253.106 C 285.226 268.554 270.674 292.889 255.924 293.117 C 235.646 293.433 219.202 270.766 219.202 236.529 C 219.202 202.29 198.765 172.22 219.044 172.22 C 239.328 172.22 292.648 202.29 292.648 236.529 Z M 292.648 236.529" style="fill: rgb(99, 213, 103);" transform="matrix(0.9999999999999999, 0, 0, 0.9999999999999999, -1.1368683772161603e-13, 0)"/>
</svg>