<?xml version="1.0" encoding="utf-8"?>
<!-- Generator: Adobe Illustrator 23.0.3, SVG Export Plug-In . SVG Version: 6.00 Build 0)  -->
<svg version="1.1" id="Capa_1" xmlns="http://www.w3.org/2000/svg" xmlns:xlink="http://www.w3.org/1999/xlink" x="0px" y="0px"
	 viewBox="0 0 512 512" style="enable-background:new 0 0 512 512;" xml:space="preserve">
<style type="text/css">
	.st0{fill:#72D3C7;}
	.st1{fill:#EDEFEF;}
	.st2{fill:#26A6D1;}
	.st3{fill:#324D5B;}
	.st4{fill:#D4EDF6;}
	.st5{fill:none;stroke:#3F3F3F;stroke-width:4;stroke-linecap:round;stroke-miterlimit:10;stroke-dasharray:7.9596,7.9596;}
</style>
<path class="st0" d="M108.4,44.8h295.3c35.1,0,63.5,28.5,63.5,63.5v295.3c0,35.1-28.5,63.5-63.5,63.5H108.4
	c-35.1,0-63.5-28.5-63.5-63.5V108.4C44.8,73.3,73.3,44.8,108.4,44.8z"/>
<path class="st1" d="M282.2,79.6c93.6,0,169.5,75.9,169.5,169.5c0,93.6-75.9,169.5-169.5,169.5S103.8,343.6,103.8,250
	C103.8,156.4,188.5,79.6,282.2,79.6z"/>
<path class="st2" d="M203.6,130.2c38.4,0,69.5,52.2,69.5,116.6c0,64.4-31.1,116.6-69.5,116.6s-69.5-52.2-69.5-116.6
	C134.2,182.4,165.3,130.2,203.6,130.2z"/>
<path class="st3" d="M186.6,176.8c19.7,0,35.7,28.5,35.7,63.6s-16,63.6-35.7,63.6s-35.7-28.5-35.7-63.6S166.9,176.8,186.6,176.8z"/>
<path class="st4" d="M213.4,176.8c8.2,0,14.9,11.9,14.9,26.5s-6.7,26.5-14.9,26.5c-8.2,0-14.9-11.9-14.9-26.5
	S205.2,176.8,213.4,176.8z"/>
<g>
	<path class="st5" d="M279.6,79.5c93.6,0,169.5,75.9,169.5,169.5c0,93.6-75.9,169.5-169.5,169.5S64.4,342.6,64.4,249
		C64.4,155.4,186,79.5,279.6,79.5z"/>
</g>
</svg>
