<svg xmlns="http://www.w3.org/2000/svg" viewBox="0 0 260 260"><path fill="#EDF5F9" d="M225.86 231.249H104.344c-5.798 0-10.515-4.717-10.515-10.515 0-4.695-3.82-8.515-8.515-8.515H22.831c-7.215 0-13.085-5.87-13.085-13.084v-14.918c0-7.215 5.87-13.084 13.085-13.084h49.143c6.112 0 11.084-4.973 11.084-11.084v-54.504c0-6.111-4.972-11.084-11.084-11.084h-57.89C6.87 94.46 1 88.59 1 81.377V41.835c0-7.215 5.87-13.084 13.084-13.084h167.035c4.218 0 7.65 3.433 7.65 7.651 0 4.22-3.432 7.653-7.65 7.653H169.27c-6.111 0-11.084 4.972-11.084 11.084v14.348c0 6.112 4.973 11.084 11.084 11.084h76.646c7.214 0 13.084 5.87 13.084 13.084v44.933c0 7.215-5.87 13.084-13.084 13.084h-72.679c-6.112 0-11.084 4.973-11.084 11.084v41.81c0 6.112 4.972 11.084 11.084 11.084h52.623c4.219 0 7.652 3.433 7.652 7.652v.295c0 4.22-3.433 7.652-7.652 7.652zM22.83 173.133c-6.11 0-11.084 4.972-11.084 11.084v14.918c0 6.111 4.973 11.084 11.085 11.084h62.483c5.798 0 10.515 4.717 10.515 10.515 0 4.696 3.82 8.515 8.515 8.515H225.86a5.658 5.658 0 0 0 5.652-5.652v-.295a5.658 5.658 0 0 0-5.652-5.652h-52.623c-7.214 0-13.084-5.869-13.084-13.084v-41.81c0-7.215 5.87-13.084 13.084-13.084h72.679c6.112 0 11.084-4.973 11.084-11.084V93.655c0-6.111-4.972-11.084-11.084-11.084H169.27c-7.214 0-13.084-5.869-13.084-13.084V55.14c0-7.215 5.87-13.084 13.084-13.084h11.849a5.658 5.658 0 0 0 5.65-5.653 5.658 5.658 0 0 0-5.65-5.651H14.084C7.972 30.751 3 35.724 3 41.835v39.542c0 6.111 4.972 11.084 11.084 11.084h57.89c7.214 0 13.084 5.87 13.084 13.084v54.504c0 7.215-5.87 13.084-13.084 13.084H22.831z"/><path fill="#EDF5F9" d="M6.463 135.67c-1.673 0-3.034-1.36-3.034-3.033s1.36-3.034 3.034-3.034 3.034 1.36 3.034 3.034-1.361 3.034-3.034 3.034zm0-4.067a1.035 1.035 0 0 0 0 2.068 1.035 1.035 0 0 0 0-2.068zm225.646 53.726a1 1 0 0 1-1-1v-4.654a1 1 0 1 1 2 0v4.654a1 1 0 0 1-1 1z"/><path fill="#EDF5F9" d="M234.436 183.002h-4.654a1 1 0 1 1 0-2h4.654a1 1 0 1 1 0 2zm-4.193-118.805a1 1 0 0 1-1-1v-4.654a1 1 0 1 1 2 0v4.654a1 1 0 0 1-1 1z"/><path fill="#EDF5F9" d="M232.57 61.87h-4.654a1 1 0 1 1 0-2h4.654a1 1 0 1 1 0 2zM44.243 230.197a1 1 0 0 1-1-1v-4.654a1 1 0 1 1 2 0v4.654a1 1 0 0 1-1 1z"/><path fill="#EDF5F9" d="M46.57 227.87h-4.654a1 1 0 1 1 0-2h4.654a1 1 0 1 1 0 2zM37.75 64.663a1 1 0 0 1-1-1V59.01a1 1 0 1 1 2 0v4.654a1 1 0 0 1-1 1z"/><path fill="#EDF5F9" d="M40.078 62.336h-4.655a1 1 0 1 1 0-2h4.655a1 1 0 1 1 0 2z"/><path fill="#434A54" d="M220.798 129.998c0 52.693-42.711 95.404-95.394 95.404-52.693 0-95.404-42.71-95.404-95.404 0-52.683 42.71-95.404 95.404-95.404 52.683 0 95.394 42.721 95.394 95.404z"/><path fill="#22D7AC" d="M229.998 130.001c0 52.69-42.71 95.4-95.39 95.4-34.29 0-64.36-18.09-81.17-45.25a87.34 87.34 0 0 1-4.25-7.63c-6.4-12.8-9.99-27.24-9.99-42.52 0-6.37.62-12.59 1.82-18.61 7.86-39.77 40.45-70.66 81.08-75.98 4.09-.54 8.27-.82 12.51-.82 18.62 0 35.99 5.33 50.67 14.57 6.08 3.81 11.7 8.3 16.76 13.36 0 0 .02.01.02.02 17.26 17.26 27.94 41.11 27.94 67.46z"/><path fill="#12C495" d="M229.998 130.001c0 52.69-42.71 95.4-95.39 95.4-34.27 0-64.33-18.07-81.15-45.21 17.26 17.26 41.12 27.94 67.46 27.94 52.68 0 95.4-42.71 95.4-95.4 0-18.41-5.22-35.61-14.26-50.19 17.26 17.26 27.94 41.11 27.94 67.46z"/><path fill="#FFF" d="M136.628 72.881c0 30.69-24.87 55.56-55.55 55.56-15.74 0-29.95-6.54-40.06-17.05 7.86-39.77 40.45-70.66 81.08-75.98 9.02 9.88 14.53 23.03 14.53 37.47z" opacity=".4"/><path fill="#EDF5F9" d="M216.318 112.731c0 52.69-42.72 95.4-95.4 95.4-26.36 0-50.22-10.69-67.48-27.98a87.34 87.34 0 0 1-4.25-7.63c14.69 9.24 32.07 14.58 50.7 14.58 52.68 0 95.39-42.72 95.39-95.41 0-15.28-3.6-29.73-10-42.53 6.08 3.81 11.7 8.3 16.76 13.36 0 0 .02.01.02.02 9.04 14.57 14.26 31.77 14.26 50.19z" opacity=".4"/><path fill="#EDF5F9" d="M205.6 130c0 39.21-31.79 70.99-71 70.99-18.63 0-35.59-7.18-48.26-18.93a72.156 72.156 0 0 1-9.62-10.95l-.01-.01c-.38-.54-.75-1.09-1.12-1.64a66.815 66.815 0 0 1-3.91-6.59c-5.16-9.82-8.07-21-8.07-32.87 0-1.18.03-2.36.08-3.52a70.75 70.75 0 0 1 3.8-19.67c8.34-24.16 29.36-42.4 55.1-46.79 3.91-.66 7.92-1.01 12.01-1.01 1.65 0 3.29.06 4.92.18 10.03.68 19.48 3.45 27.94 7.88a69.661 69.661 0 0 1 11.42 7.45 71.197 71.197 0 0 1 15.11 16.58c7.34 11.18 11.61 24.54 11.61 38.9z"/><path fill="#FFF" d="M123.68 69.4c0 22.4-18.15 40.55-40.54 40.55-5.55 0-10.84-1.11-15.65-3.14 8.34-24.16 29.36-42.4 55.1-46.79.71 3.01 1.09 6.15 1.09 9.38z"/><path fill="#FF6060" d="M161.458 105.636c0 11.157-5.28 15.03-10.331 19.486-5.658 4.771-9.858 8.183-10.295 18.077a1.833 1.833 0 0 1-1.834 1.76h-9.008a1.85 1.85 0 0 1-1.845-1.906c.267-12.189 3.205-16.887 9.13-21.925 4.928-4.335 9.505-7.151 9.505-15.018 0-9.506-7.393-13.027-11.497-13.027-9.202 0-13.694 6.07-14.155 15.746a1.838 1.838 0 0 1-1.834 1.737h-9.7c-1.068 0-1.894-.899-1.845-1.955.789-16.147 11.412-26.685 28.117-26.685 14.326 0 25.592 8.571 25.592 23.71z"/><path fill="#F44A4A" d="M135.28 93.08c-9.2 0-13.69 6.07-14.15 15.75-.05.97-.86 1.74-1.84 1.74h-9.7c-1.06 0-1.89-.9-1.84-1.96.06-1.16.17-2.29.32-3.38h8.36c.97 0 1.78-.77 1.83-1.74.46-9.67 4.96-15.74 14.16-15.74 3.49 0 9.36 2.54 11.03 9.14-2.48-2.69-5.85-3.81-8.17-3.81zm26.18 12.56c0 11.15-5.28 15.03-10.33 19.48-5.66 4.77-9.86 8.18-10.3 18.08a1.83 1.83 0 0 1-1.83 1.76h-9.01c-1.04 0-1.87-.86-1.84-1.91.03-1.22.08-2.36.16-3.43h7.82c.99 0 1.8-.78 1.84-1.76.43-9.89 4.63-13.3 10.29-18.08 5.05-4.45 10.33-8.32 10.33-19.48 0-3.28-.53-6.24-1.5-8.88 2.77 3.73 4.37 8.51 4.37 14.22z"/><path fill="#C9DBE7" d="M205.598 130.005c0 39.21-31.79 70.99-71 70.99-18.63 0-35.59-7.18-48.26-18.93a72.145 72.145 0 0 1-9.62-10.95l-.01-.01c-.38-.54-.75-1.09-1.12-1.64a66.818 66.818 0 0 1-3.91-6.59 65.38 65.38 0 0 1-1.65-3.36 71.76 71.76 0 0 0 9.22 10.4c12.67 11.75 29.63 18.93 48.26 18.93 39.21 0 71-31.78 71-70.99 0-10.51-2.29-20.49-6.39-29.46.64.89 1.27 1.79 1.87 2.71 7.34 11.18 11.61 24.54 11.61 38.9z"/><path fill="#FF6060" d="M142.45 160.4a8.22 8.22 0 0 1-8.22 8.22c-4.55 0-8.23-3.68-8.23-8.22 0-.94.16-1.84.45-2.68a8.207 8.207 0 0 1 7.78-5.55c4.54 0 8.22 3.68 8.22 8.23z"/><path fill="#FF8383" d="M134.38 155.18c0 2.41-1.96 4.37-4.38 4.37-1.47 0-2.77-.72-3.55-1.83 1-2.93 3.61-5.11 6.78-5.49.72.77 1.15 1.8 1.15 2.95z"/><path fill="#F44A4A" d="M142.45 160.4a8.22 8.22 0 0 1-8.22 8.22c-4.55 0-8.23-3.68-8.23-8.22 0-.52.05-1.04.14-1.53a8.226 8.226 0 0 0 8.09 6.69c4.02 0 7.36-2.88 8.08-6.69.09.49.14 1.01.14 1.53z"/><path fill="#31394C" d="M134.603 33.6c-1.54 0-3.08.04-4.6.12-53.884-2.835-101 40.58-101 96.28 0 55.699 47.12 99.118 101 96.28 1.52.08 3.06.12 4.6.12 53.15 0 96.4-43.24 96.4-96.4s-43.25-96.4-96.4-96.4zM31.003 130c0-46.54 33.86-85.32 78.23-93.01-40.89 11.16-71.03 48.63-71.03 93.01s30.14 81.85 71.03 93.01c-44.37-7.69-78.23-46.47-78.23-93.01zm103.6 94.4c-52.011 0-94.4-42.315-94.4-94.4 0-52.012 42.314-94.4 94.4-94.4 5.51 0 10.92.47 16.17 1.39 44.37 7.69 78.23 46.47 78.23 93.01 0 52.047-42.355 94.4-94.4 94.4z"/><path fill="#31394C" d="M219.193 128.42c-.01-.55-.46-.95-1.02-.98-.55.01-.99.47-.98 1.02.01.51.02 1.03.02 1.54 0 12.76-2.84 25-8.42 36.37a1 1 0 0 0 .9 1.44c.37 0 .72-.2.89-.56 5.73-11.64 8.63-24.18 8.63-37.25 0-.53-.01-1.05-.02-1.58zm-11.63 42.46c-.48-.28-1.09-.11-1.37.36-.47.82-.95 1.62-1.45 2.42a.993.993 0 0 0 .32 1.37c.17.11.35.16.53.16a1 1 0 0 0 .85-.48c.51-.81 1-1.63 1.48-2.47a.996.996 0 0 0-.36-1.36zm-71.7-89.95c-17.12 0-28.28 10.59-29.11 27.64-.04.78.25 1.55.79 2.12.54.56 1.27.88 2.05.88h9.7c1.51 0 2.76-1.18 2.83-2.69.32-6.75 2.87-14.8 13.16-14.8 3.43 0 10.5 2.94 10.5 12.03 0 6.46-3.27 9.24-7.4 12.75-.58.49-1.17.99-1.76 1.51-6.07 5.16-9.2 10.08-9.48 22.66-.02.78.27 1.52.82 2.08.53.55 1.26.85 2.03.85h9.01c1.53 0 2.77-1.2 2.83-2.72.41-9.32 4.31-12.61 9.71-17.16l1.18-1.03c4.79-4.17 9.74-8.49 9.74-19.41 0-14.78-10.69-24.71-26.6-24.71zm15.55 42.62-1.16 1c-5.57 4.69-9.97 8.4-10.42 18.61-.02.45-.38.8-.83.8h-9.01a.84.84 0 0 1-.6-.25.868.868 0 0 1-.25-.63c.26-11.89 3.04-16.31 8.79-21.2.59-.52 1.17-1.01 1.74-1.5 4.35-3.69 8.11-6.88 8.11-14.27 0-10.6-8.42-14.03-12.5-14.03-9.26 0-14.64 5.93-15.15 16.7-.03.43-.4.79-.84.79h-9.7c-.23 0-.45-.1-.6-.26a.888.888 0 0 1-.25-.65c.78-15.87 11.17-25.73 27.12-25.73 14.71 0 24.6 9.12 24.6 22.71 0 10.01-4.4 13.85-9.05 17.91z"/><path fill="#31394C" d="M134.603 58c-39.7 0-71.99 32.3-71.99 72s32.29 71.99 71.99 71.99c39.69 0 71.99-32.29 71.99-71.99s-32.3-72-71.99-72zm0 141.99c-38.59 0-69.99-31.4-69.99-69.99 0-38.6 31.4-70 69.99-70 38.59 0 69.99 31.4 69.99 70 0 38.59-31.4 69.99-69.99 69.99z"/><path fill="#31394C" d="M93.76 80.393a64.714 64.714 0 0 0-13.453 15.233 1 1 0 0 0 1.688 1.072 62.684 62.684 0 0 1 13.04-14.762 1 1 0 0 0-1.274-1.543zm5.47-4.051c-.43.285-.856.574-1.278.869a1 1 0 0 0 1.143 1.64c.41-.285.823-.566 1.24-.841a1 1 0 0 0-1.105-1.668z"/><circle cx="185.242" cy="103.572" r="1.008" fill="#31394C"/><circle cx="82.871" cy="134.038" r="1.008" fill="#31394C"/><circle cx="131.737" cy="105.595" r="1.015" fill="#31394C"/><circle cx="157.422" cy="176.525" r="1.015" fill="#31394C"/><circle cx="118.978" cy="77.603" r="1.015" fill="#31394C"/><circle cx="167.995" cy="76" r="1.015" fill="#31394C"/><circle cx="87.774" cy="101.548" r="1.015" fill="#31394C"/><circle cx="131.737" cy="174.185" r="1.015" fill="#31394C"/><circle cx="111.811" cy="144.959" r="1.015" fill="#31394C"/><circle cx="174.801" cy="135.758" r="1.015" fill="#31394C"/><path fill="#31394C" d="M134.233 151.17c-5.09 0-9.23 4.14-9.23 9.23 0 5.09 4.14 9.22 9.23 9.22 5.08 0 9.22-4.13 9.22-9.22 0-5.09-4.14-9.23-9.22-9.23zm0 16.45c-3.99 0-7.23-3.24-7.23-7.22 0-3.99 3.24-7.23 7.23-7.23 3.98 0 7.22 3.24 7.22 7.23 0 3.98-3.24 7.22-7.22 7.22z"/></svg>