<svg xmlns="http://www.w3.org/2000/svg" enable-background="new 0 0 256 256" viewBox="0 0 256 256"><path fill="#690589" d="M36.81 172.555c-.034 0-.067-.001-.101-.003-.865-.043-1.604-.639-1.831-1.475L19.78 115.315l-6.688 21.091c-.264.831-1.034 1.396-1.906 1.396H4c-1.104 0-2-.896-2-2s.896-2 2-2h5.723l8.303-26.186c.268-.845 1.034-1.395 1.949-1.396.887.02 1.655.621 1.888 1.478l15.27 56.397 10.852-28.452c.296-.775 1.04-1.287 1.869-1.287H63.76c1.104 0 2 .896 2 2s-.896 2-2 2H51.23l-12.553 32.911C38.381 172.045 37.635 172.555 36.81 172.555zM219.19 172.555c-.825 0-1.571-.509-1.868-1.287l-12.553-32.911H192.24c-1.104 0-2-.896-2-2s.896-2 2-2h13.907c.829 0 1.573.512 1.869 1.287l10.852 28.452 15.27-56.397c.232-.856 1.001-1.458 1.888-1.478.015 0 .029 0 .043 0 .87 0 1.643.563 1.906 1.396l8.303 26.186H252c1.104 0 2 .896 2 2s-.896 2-2 2h-7.187c-.872 0-1.643-.564-1.906-1.396l-6.688-21.091-15.098 55.762c-.227.836-.966 1.432-1.831 1.475C219.258 172.554 219.225 172.555 219.19 172.555z"/><path fill="#ff4397" d="M56.999,68.813L56.999,68.813c-16.499,16.499-16.499,43.248,0,59.747L128,199.561l71.001-71.001
			c16.499-16.499,16.499-43.248,0-59.747l0,0c-16.499-16.499-43.248-16.499-59.747,0L128,80.067l-11.254-11.254
			C100.248,52.314,73.498,52.314,56.999,68.813z"/><path fill="#e12579" d="M199.001,68.813L199.001,68.813c-9.529-9.529-22.476-13.542-34.894-12.064
				c9.083,1.081,17.883,5.094,24.853,12.064v0c16.499,16.499,16.499,43.248,0,59.747L128,199.561l71.001-71.001
				C215.499,112.062,215.499,85.312,199.001,68.813z"/><path fill="#ff61b5" d="M56.999,68.813L56.999,68.813c9.529-9.529,22.476-13.542,34.894-12.064
				c-9.083,1.081-17.883,5.094-24.853,12.064v0c-16.499,16.499-16.499,43.248,0,59.747L128,199.561L56.999,128.56
				C40.5,112.062,40.5,85.312,56.999,68.813z"/><path fill="#690589" d="M128,201.562c-0.512,0-1.023-0.195-1.414-0.586l-71.001-71.001c-8.357-8.357-12.96-19.469-12.96-31.288
			s4.603-22.931,12.96-31.287c8.357-8.357,19.469-12.96,31.288-12.96s22.931,4.603,31.287,12.96l9.84,9.839l9.84-9.839
			c8.356-8.357,19.468-12.96,31.287-12.96s22.931,4.603,31.288,12.96c8.357,8.356,12.96,19.468,12.96,31.287
			s-4.603,22.931-12.96,31.288l-71.001,71.001C129.023,201.366,128.512,201.562,128,201.562z M86.873,58.439
			c-10.751,0-20.857,4.187-28.46,11.788l0,0c-7.602,7.602-11.788,17.709-11.788,28.459c0,10.751,4.187,20.857,11.788,28.46
			L128,196.733l69.587-69.587c7.602-7.603,11.788-17.709,11.788-28.46c0-10.75-4.187-20.857-11.788-28.459
			c-7.603-7.602-17.709-11.788-28.46-11.788c-10.75,0-20.857,4.187-28.459,11.788L129.414,81.48c-0.781,0.781-2.047,0.781-2.828,0
			l-11.254-11.253C107.73,62.626,97.623,58.439,86.873,58.439z M56.999,68.813h0.01H56.999z"/><path fill="#690589" d="M54.998,88.542c-0.27,0-0.543-0.056-0.806-0.171c-1.011-0.445-1.469-1.626-1.023-2.637
			c2.081-4.723,5-8.98,8.675-12.655c0.781-0.781,2.047-0.781,2.828,0s0.781,2.047,0,2.828c-3.323,3.323-5.962,7.172-7.843,11.44
			C56.499,88.096,55.767,88.542,54.998,88.542z"/><ellipse cx="128" cy="126.778" fill="#f4efed" rx="35.24" ry="35.241" transform="rotate(-27.327 127.997 126.77)"/><path fill="#d6d1cf" d="M128,91.537c-1.011,0-2.01,0.052-3,0.136c18.057,1.524,32.24,16.653,32.24,35.104
			c0,18.451-14.183,33.581-32.24,35.104c0.99,0.084,1.989,0.136,3,0.136c19.463,0,35.24-15.778,35.24-35.24
			C163.24,107.315,147.463,91.537,128,91.537z"/><path fill="#fff" d="M128,162.018c1.012,0,2.01-0.052,3-0.136c-18.057-1.524-32.241-16.653-32.241-35.104
			c0-18.451,14.183-33.58,32.241-35.104c-0.99-0.084-1.988-0.136-3-0.136c-19.463,0-35.241,15.778-35.241,35.24
			C92.759,146.241,108.537,162.018,128,162.018z"/><path fill="#690589" d="M128,164.019c-20.534,0-37.24-16.706-37.24-37.241c0-20.534,16.706-37.24,37.24-37.24
			s37.24,16.706,37.24,37.24C165.24,147.312,148.534,164.019,128,164.019z M128,93.537c-18.329,0-33.24,14.911-33.24,33.24
			s14.911,33.241,33.24,33.241s33.24-14.912,33.24-33.241S146.329,93.537,128,93.537z"/><path fill="#690589" d="M128,128.777c-0.512,0-1.023-0.195-1.414-0.586c-0.781-0.781-0.781-2.047,0-2.828l15.163-15.162
			c0.781-0.781,2.047-0.781,2.828,0s0.781,2.047,0,2.828l-15.163,15.162C129.023,128.582,128.512,128.777,128,128.777z"/><circle cx="128" cy="126.778" r="5.696" fill="#ff4397"/><path fill="#690589" d="M128 134.475c-4.244 0-7.696-3.453-7.696-7.697s3.452-7.696 7.696-7.696 7.696 3.452 7.696 7.696S132.244 134.475 128 134.475zM128 123.081c-2.038 0-3.696 1.658-3.696 3.696 0 2.039 1.658 3.697 3.696 3.697s3.696-1.658 3.696-3.697C131.696 124.739 130.038 123.081 128 123.081zM128 97.947c-1.104 0-2-.896-2-2v-4.41c0-1.104.896-2 2-2s2 .896 2 2v4.41C130 97.052 129.104 97.947 128 97.947zM128 164.019c-1.104 0-2-.896-2-2v-4.41c0-1.104.896-2 2-2s2 .896 2 2v4.41C130 163.123 129.104 164.019 128 164.019zM106.199 106.978c-.512 0-1.023-.195-1.414-.586l-3.118-3.118c-.781-.781-.781-2.047 0-2.828s2.047-.781 2.828 0l3.118 3.118c.781.781.781 2.047 0 2.828C107.223 106.782 106.711 106.978 106.199 106.978zM152.919 153.696c-.512 0-1.023-.195-1.414-.586l-3.118-3.118c-.781-.781-.781-2.047 0-2.828s2.047-.781 2.828 0l3.118 3.118c.781.781.781 2.047 0 2.828C153.942 153.501 153.431 153.696 152.919 153.696zM149.801 106.978c-.512 0-1.023-.195-1.414-.586-.781-.781-.781-2.047 0-2.828l3.118-3.118c.781-.781 2.047-.781 2.828 0s.781 2.047 0 2.828l-3.118 3.118C150.824 106.782 150.312 106.978 149.801 106.978zM103.081 153.696c-.512 0-1.023-.195-1.414-.586-.781-.781-.781-2.047 0-2.828l3.118-3.118c.781-.781 2.047-.781 2.828 0s.781 2.047 0 2.828l-3.118 3.118C104.104 153.501 103.593 153.696 103.081 153.696zM163.24 128.777h-4.41c-1.104 0-2-.896-2-2s.896-2 2-2h4.41c1.104 0 2 .896 2 2S164.345 128.777 163.24 128.777zM97.17 128.777h-4.41c-1.104 0-2-.896-2-2s.896-2 2-2h4.41c1.104 0 2 .896 2 2S98.274 128.777 97.17 128.777z"/></svg>