<svg xmlns="http://www.w3.org/2000/svg" enable-background="new 0 0 5000 5000" viewBox="0 0 5000 5000"><path fill="#1d357d" d="M2049.293 4968.908c-1.305 0-2.625-.103-3.955-.313-90.929-14.456-181.905-34.365-270.402-59.177-13.293-3.727-21.047-17.523-17.321-30.816s17.522-21.048 30.817-17.321c86.647 24.293 175.723 43.786 264.755 57.94 13.634 2.167 22.93 14.977 20.762 28.611C2071.993 4960.137 2061.368 4968.908 2049.293 4968.908zM1522.656 4821.255c-3.16 0-6.372-.604-9.477-1.877-85.042-34.881-169.019-75.143-249.6-119.663-12.083-6.677-16.467-21.885-9.791-33.969s21.882-16.469 33.968-9.791c78.902 43.594 161.128 83.016 244.394 117.169 12.773 5.239 18.88 19.84 13.641 32.613C1541.827 4815.404 1532.496 4821.255 1522.656 4821.255zM1043.907 4556.802c-5.024 0-10.096-1.51-14.498-4.65-74.832-53.393-147.414-111.727-215.729-173.383-10.249-9.249-11.059-25.056-1.81-35.305 9.251-10.249 25.057-11.059 35.305-1.809 66.905 60.382 137.987 117.511 211.271 169.799 11.238 8.019 13.848 23.629 5.83 34.867C1059.399 4553.158 1051.71 4556.802 1043.907 4556.802zM637.919 4190.38c-6.929 0-13.824-2.864-18.765-8.472-60.835-69.045-118.295-142.313-170.782-217.772-7.884-11.334-5.087-26.912 6.247-34.795 11.333-7.883 26.912-5.087 34.795 6.246 51.402 73.898 107.673 145.653 167.251 213.271 9.126 10.358 8.128 26.154-2.23 35.281C649.684 4188.324 643.789 4190.38 637.919 4190.38zM4663.23 3438.354c-2.866 0-5.778-.496-8.626-1.543-12.957-4.766-19.597-19.133-14.831-32.09 31.09-84.53 57.556-171.793 78.663-259.364 3.236-13.42 16.734-21.679 30.158-18.443 13.421 3.234 21.679 16.737 18.443 30.158-21.558 89.442-48.59 178.569-80.344 264.907C4682.976 3432.088 4673.409 3438.354 4663.23 3438.354zM4791.467 2906.646c-1.008 0-2.024-.062-3.05-.186-13.705-1.668-23.463-14.129-21.796-27.833 10.847-89.151 16.674-180.172 17.32-270.535.098-13.744 11.271-24.818 24.992-24.818.062 0 .121 0 .183.001 13.805.099 24.916 11.37 24.817 25.175-.659 92.255-6.609 185.187-17.685 276.215C4814.707 2897.344 4803.924 2906.646 4791.467 2906.646zM4795.355 2359.652c-12.614 0-23.454-9.517-24.825-22.342-9.59-89.7-24.483-179.66-44.267-267.382-3.037-13.467 5.419-26.847 18.886-29.884 13.47-3.037 26.847 5.419 29.884 18.885 20.204 89.59 35.414 181.462 45.208 273.066 1.468 13.727-8.471 26.045-22.198 27.513C4797.141 2359.605 4796.243 2359.652 4795.355 2359.652zM4675.023 1826.185c-10.316 0-19.973-6.436-23.585-16.722-29.822-84.926-64.96-169.063-104.437-250.074-6.048-12.411-.89-27.374 11.521-33.421 12.411-6.05 27.375-.889 33.421 11.521 40.318 82.739 76.206 168.672 106.665 255.41 4.574 13.026-2.277 27.293-15.303 31.867C4680.566 1825.729 4677.771 1826.185 4675.023 1826.185zM989.852 714.678c-7.563 0-15.036-3.418-19.952-9.915-8.331-11.008-6.16-26.686 4.849-35.017 73.401-55.545 150.755-107.388 229.913-154.086 11.892-7.014 27.216-3.062 34.231 8.829s3.062 27.216-8.829 34.231c-77.516 45.729-153.267 96.497-225.147 150.892C1000.404 713.027 995.106 714.678 989.852 714.678zM1460.905 436.848c-9.583 0-18.725-5.541-22.862-14.865-5.599-12.619.091-27.388 12.71-32.987 84.109-37.32 171.269-70.098 259.059-97.425 13.184-4.104 27.194 3.257 31.297 16.438 4.104 13.181-3.256 27.193-16.438 31.296-85.954 26.756-171.291 58.849-253.642 95.388C1467.735 436.155 1464.292 436.848 1460.905 436.848zM1982.97 274.321c-11.787 0-22.279-8.374-24.538-20.379-2.553-13.567 6.376-26.635 19.944-29.188 90.184-16.969 182.512-28.891 274.421-35.437 13.769-.977 25.729 9.388 26.71 23.158.98 13.771-9.388 25.729-23.159 26.709-90.006 6.41-180.419 18.085-268.729 34.701C1986.058 274.18 1984.503 274.321 1982.97 274.321z"/><circle cx="2426.294" cy="2590.864" r="1749.419" fill="#c4fae6"/><path fill="#ff988e" d="M2763.524,4014.607v-198.44h-366.302c-257.845,7.081-464.789,218.3-464.789,477.882v0.133
				c0,263.99,214.025,478.015,478.016,478.015h760.472v-198.039h-771.812c-154.643,0-279.924-125.381-279.924-279.924v-0.1
				c0-149.782,117.644-272.187,265.739-279.527H2763.524z"/><path fill="#1d357d" d="M3170.921,4797.194h-760.472c-67.893,0-133.769-13.304-195.799-39.541
				c-59.901-25.337-113.692-61.604-159.881-107.791c-46.188-46.188-82.455-99.98-107.792-159.881
				c-26.237-62.03-39.541-127.906-39.541-195.799v-0.134c0-131.929,50.714-256.61,142.8-351.077
				c44.773-45.931,97.055-82.428,155.393-108.477c60.285-26.919,124.516-41.492,190.907-43.315c0.229-0.007,0.457-0.01,0.686-0.01
				h366.302c13.806,0,24.997,11.191,24.997,24.997v198.44c0,13.806-11.191,24.997-24.997,24.997h-377.967
				c-135.405,7.022-241.375,118.71-241.375,254.53c0,140.666,114.36,255.025,254.927,255.025h771.812
				c13.806,0,24.997,11.191,24.997,24.997v198.04C3195.918,4786.003,3184.727,4797.194,3170.921,4797.194z M2397.565,3841.164
				c-246.824,6.968-440.134,205.829-440.134,452.885v0.134c0,249.795,203.223,453.018,453.018,453.018h735.475v-148.046h-746.815
				c-81.459,0-158.039-31.726-215.631-89.332c-57.58-57.594-89.291-134.158-89.291-215.589c0-78.845,29.918-153.578,84.243-210.531
				c54.16-56.78,127.055-90.186,205.256-94.061c0.412-0.021,0.825-0.031,1.237-0.031h353.604v-148.446H2397.565z"/><path fill="#7cf2ec" d="M3080.233,3326.478c-221.775,0-401.56,179.785-401.56,401.56v642.571
				c0,95.739,33.573,183.928,89.795,253.001c73.41,90.598,185.855,148.587,311.794,148.587h893.655
				c221.775,0,401.56-179.785,401.56-401.56v-642.571c0-221.791-179.797-401.589-401.589-401.589H3080.233z"/><path fill="#1d357d" d="M3973.917,4797.194h-893.655c-65.396,0-128.157-14.414-186.538-42.842
				c-55.637-27.092-105.665-66.86-144.677-115.006c-30.225-37.134-53.811-78.78-70.066-123.738
				c-16.79-46.437-25.304-95.221-25.304-145v-642.57c0-57.574,11.281-113.438,33.531-166.043
				c21.485-50.797,52.238-96.412,91.404-135.579c39.166-39.166,84.781-69.919,135.578-91.404
				c52.604-22.25,108.469-33.531,166.043-33.531h893.655c57.577,0,113.446,11.282,166.054,33.534
				c50.801,21.486,96.419,52.241,135.588,91.41c39.168,39.169,69.923,84.787,91.41,135.588
				c22.251,52.607,33.533,108.476,33.533,166.054v642.57c0,57.573-11.281,113.438-33.531,166.043
				c-21.485,50.797-52.238,96.412-91.404,135.578c-39.166,39.167-84.781,69.92-135.578,91.405
				C4087.355,4785.913,4031.491,4797.194,3973.917,4797.194z M3080.233,3351.475c-207.638,0-376.562,168.926-376.562,376.563v642.57
				c0,86.279,29.897,170.525,84.185,237.221c71.781,88.588,178.346,139.371,292.406,139.371h893.655
				c207.638,0,376.562-168.926,376.562-376.563v-642.57c0-207.653-168.938-376.592-376.591-376.592H3080.233z"/><path fill="#fff" d="M2821.064,2415.469h996.735c78.64,0,142.391,63.75,142.391,142.39V3896.54
							c0,78.64-63.75,142.391-142.391,142.391h-996.734c-78.64,0-142.391-63.75-142.391-142.391V2557.859
							C2678.673,2479.219,2742.424,2415.469,2821.064,2415.469z"/><path fill="#1d357d" d="M3817.799,4063.928h-996.734c-92.298,0-167.388-75.09-167.388-167.388V2557.859
							c0-92.298,75.09-167.388,167.388-167.388h996.734c92.298,0,167.388,75.09,167.388,167.388V3896.54
							C3985.187,3988.838,3910.097,4063.928,3817.799,4063.928z M2821.064,2440.465c-64.731,0-117.394,52.663-117.394,117.394
							V3896.54c0,64.731,52.662,117.394,117.394,117.394h996.734c64.731,0,117.394-52.662,117.394-117.394V2557.859
							c0-64.731-52.662-117.394-117.394-117.394H2821.064z"/><line x1="2678.673" x2="3960.189" y1="3593.157" y2="3593.157" fill="#fff"/><path fill="#1d357d" d="M3960.189,3618.154H2678.674c-13.806,0-24.997-11.191-24.997-24.997
							s11.191-24.997,24.997-24.997h1281.516c13.806,0,24.997,11.191,24.997,24.997S3973.995,3618.154,3960.189,3618.154z"/><path fill="#ff988e" d="M3526.882,3724.896H3681.6c41.814,0,75.711,33.897,75.711,75.711v38.021
							c0,41.814-33.897,75.711-75.711,75.711h-154.718c-41.814,0-75.711-33.897-75.711-75.711v-38.021
							C3451.171,3758.793,3485.068,3724.896,3526.882,3724.896z"/><path fill="#1d357d" d="M3681.601,3939.336h-154.719c-55.53,0-100.708-45.178-100.708-100.708v-38.021
							c0-55.53,45.178-100.708,100.708-100.708h154.719c55.53,0,100.707,45.177,100.707,100.707v38.021
							C3782.308,3894.158,3737.131,3939.336,3681.601,3939.336z M3526.882,3749.894c-27.964,0-50.714,22.75-50.714,50.714v38.021
							c0,27.964,22.75,50.714,50.714,50.714h154.719c27.963,0,50.713-22.75,50.713-50.714v-38.021
							c0-27.963-22.75-50.713-50.713-50.713H3526.882z"/><path fill="#7cf2ec" d="M2957.262,3724.896h154.718c41.814,0,75.711,33.897,75.711,75.711v38.021
							c0,41.814-33.897,75.711-75.711,75.711h-154.718c-41.814,0-75.711-33.897-75.711-75.711v-38.021
							C2881.552,3758.793,2915.448,3724.896,2957.262,3724.896z"/><path fill="#1d357d" d="M3111.98,3939.336h-154.719c-55.53,0-100.707-45.178-100.707-100.708v-38.021
							c0-55.53,45.178-100.708,100.708-100.708h154.718c55.53,0,100.708,45.177,100.708,100.707v38.021
							C3212.688,3894.158,3167.511,3939.336,3111.98,3939.336z M2957.263,3749.894c-27.964,0-50.714,22.75-50.714,50.714v38.021
							c0,27.964,22.75,50.714,50.713,50.714h154.719c27.964,0,50.714-22.75,50.714-50.714v-38.021
							c0-27.963-22.75-50.713-50.714-50.713H2957.263z"/><g><path fill="#7cf2ec" d="M3262.475,2559.933h498.367c39.32,0,71.195,31.875,71.195,71.195v738.357
						c0,39.32-31.875,71.195-71.195,71.195h-498.367c-39.32,0-71.195-31.875-71.195-71.196v-738.357
						C3191.28,2591.808,3223.155,2559.933,3262.475,2559.933z"/><path fill="#1d357d" d="M3760.843,3465.679h-498.368c-53.041,0-96.192-43.152-96.192-96.193v-738.356
						c0-53.041,43.151-96.192,96.192-96.192h498.368c53.041,0,96.192,43.151,96.192,96.192v738.357
						C3857.035,3422.527,3813.884,3465.679,3760.843,3465.679z M3262.475,2584.931c-25.474,0-46.198,20.725-46.198,46.198v738.356
						c0,25.475,20.725,46.199,46.198,46.199h498.368c25.474,0,46.198-20.725,46.198-46.198v-738.357
						c0-25.474-20.725-46.198-46.198-46.198H3262.475z"/></g><g><path fill="#ffdd72" d="M3757.311,2740.361l-215.823,221.509l-176.254-176.145
					c-13.547-13.539-31.916-21.144-51.068-21.144h-0.125c-19.155,0-37.52,7.639-51.024,21.224l-318.724,320.638l-75.219-75.218
					l-114.377,328.921c-8.01,23.035,14.101,45.146,37.136,37.136l328.922-114.378l-74.284-74.283l267.868-269.471l176.097,175.988
					c28.192,28.192,73.961,28.192,102.153-0.016l157.674-157.673"/><path fill="#1d357d" d="M2782.083,3423.949c-14.069,0.001-27.744-5.526-38.135-15.916
					c-14.814-14.813-19.743-36.309-12.862-56.097l114.377-328.921c2.827-8.129,9.636-14.231,18.024-16.155
					c8.389-1.922,17.176,0.604,23.262,6.689l57.49,57.489l301.049-302.855c18.065-18.175,43.125-28.6,68.752-28.6h0.125
					c25.963,0,50.374,10.107,68.739,28.46l158.347,158.249l198.156-203.376c9.635-9.887,25.46-10.092,35.348-0.459
					c9.888,9.634,10.094,25.46,0.459,35.348l-215.822,221.508c-4.664,4.788-11.053,7.508-17.737,7.552
					c-0.055,0.001-0.111,0.001-0.166,0.001c-6.625,0-12.98-2.63-17.67-7.316l-176.254-176.144
					c-8.923-8.917-20.785-13.828-33.399-13.828h-0.125c-12.41,0-24.546,5.048-33.294,13.85l-318.726,320.639
					c-4.683,4.711-11.049,7.364-17.691,7.374c-0.012,0-0.024,0-0.036,0c-6.63,0-12.988-2.633-17.677-7.321l-47.027-47.027
					l-101.282,291.265c-0.213,0.611-0.86,2.473,0.991,4.324c1.851,1.851,3.712,1.206,4.323,0.991l291.266-101.283l-46.093-46.092
					c-9.741-9.741-9.765-25.528-0.053-35.299l267.868-269.471c4.683-4.71,11.046-7.363,17.688-7.374c0.014,0,0.027,0,0.041,0
					c6.627,0,12.982,2.631,17.67,7.316l176.098,175.987c8.919,8.919,20.78,13.827,33.403,13.825
					c12.625-0.001,24.486-4.913,33.398-13.831l157.679-157.679c9.762-9.762,25.59-9.762,35.352,0s9.762,25.589,0,35.352
					l-157.674,157.674c-18.351,18.36-42.768,28.476-68.749,28.479c-25.979,0.003-50.397-10.105-68.755-28.463l-158.363-158.265
					l-232.628,234.02l56.661,56.66c6.085,6.085,8.612,14.873,6.688,23.262c-1.923,8.389-8.025,15.197-16.154,18.024
					l-328.922,114.378C2794.135,3422.947,2788.072,3423.949,2782.083,3423.949z"/></g><g><circle cx="3319.858" cy="1108.957" r="1052.864" fill="#ffdd72"/><circle cx="2550.113" cy="1661.817" r="500.818" fill="#fff" transform="rotate(-45.001 2550.106 1661.854)"/><path fill="#1d357d" d="M3993.424,1717.613c-5.806,0-11.637-2.011-16.367-6.113c-10.43-9.045-11.552-24.833-2.506-35.262
			c136.431-157.312,211.566-358.777,211.566-567.281c0-477.657-388.603-866.259-866.26-866.259
			c-454.967,0-834.647,355.227-864.379,808.708c-0.903,13.776-12.793,24.213-26.579,23.308
			c-13.776-0.903-24.211-12.803-23.308-26.579c15.194-231.75,117.041-447.267,286.779-606.849
			c170.502-160.301,393.348-248.583,627.486-248.583c123.683,0,243.679,24.229,356.655,72.014
			c109.109,46.149,207.095,112.211,291.234,196.351c84.139,84.139,150.2,182.125,196.351,291.234
			c47.784,112.977,72.014,232.972,72.014,356.655c0,112.216-20.059,221.829-59.62,325.792
			c-38.216,100.43-93.452,192.699-164.172,274.244C4007.376,1714.692,4000.419,1717.612,3993.424,1717.613z"/><path fill="#1d357d" d="M3880.344 1619.628c-5.806 0-11.637-2.011-16.367-6.113-10.43-9.045-11.552-24.833-2.507-35.262 112.865-130.14 175.022-296.805 175.022-469.296 0-103.885-21.731-204.067-64.59-297.763-5.743-12.554-.221-27.387 12.333-33.129 12.557-5.744 27.388-.221 33.13 12.333 45.865 100.268 69.121 207.446 69.121 318.559 0 93.89-16.784 185.603-49.885 272.591-31.976 84.031-78.191 161.232-137.362 229.46C3894.296 1616.707 3887.339 1619.628 3880.344 1619.628zM3319.857 462.772c-13.806 0-24.997-11.191-24.997-24.997V217.701c0-13.806 11.191-24.997 24.997-24.997s24.997 11.191 24.997 24.997v220.074C3344.854 451.581 3333.663 462.772 3319.857 462.772zM2957.013 569.323c-8.224 0-16.275-4.053-21.052-11.486l-118.981-185.138c-7.464-11.614-4.1-27.08 7.514-34.543s27.079-4.1 34.543 7.514l118.981 185.138c7.464 11.614 4.1 27.08-7.514 34.543C2966.322 568.039 2961.64 569.323 2957.013 569.323zM2709.313 855.141c-3.474 0-7.002-.728-10.368-2.265l-200.187-91.422c-12.558-5.735-18.089-20.564-12.354-33.122 5.734-12.557 20.564-18.09 33.122-12.354l200.187 91.422c12.559 5.735 18.089 20.564 12.354 33.122C2727.869 849.714 2718.799 855.141 2709.313 855.141z"/><path fill="#1d357d" d="M3993.414 1717.604c-5.802 0-11.63-2.008-16.358-6.106l-166.321-144.118c-10.434-9.041-11.562-24.828-2.522-35.261 9.041-10.434 24.828-11.563 35.261-2.522l166.321 144.118c10.434 9.041 11.562 24.828 2.522 35.261C4007.373 1714.68 4000.413 1717.604 3993.414 1717.604zM4202.073 1260.796c-1.185 0-2.382-.084-3.589-.257l-217.833-31.319c-13.665-1.965-23.149-14.635-21.185-28.3s14.628-23.148 28.3-21.185l217.833 31.319c13.665 1.965 23.149 14.635 21.185 28.3C4224.993 1251.812 4214.302 1260.796 4202.073 1260.796zM3930.402 855.141c-9.486 0-18.556-5.426-22.754-14.619-5.734-12.558-.204-27.387 12.354-33.122l200.187-91.422c12.559-5.736 27.387-.204 33.122 12.354 5.734 12.558.204 27.387-12.354 33.122l-200.187 91.422C3937.405 854.413 3933.875 855.141 3930.402 855.141zM3682.703 569.323c-4.628 0-9.309-1.283-13.491-3.971-11.613-7.464-14.978-22.929-7.514-34.543l118.979-185.138c7.464-11.615 22.929-14.979 34.544-7.515 11.613 7.464 14.978 22.929 7.514 34.543l-118.979 185.138C3698.979 565.269 3690.926 569.323 3682.703 569.323z"/><path fill="#1d357d" d="M3319.857,2186.819c-79.678,0-159.154-8.738-236.223-25.971
			c-13.473-3.012-21.952-16.376-18.939-29.85c3.012-13.473,16.384-21.952,29.85-18.939c73.492,16.433,149.298,24.766,225.312,24.766
			c566.768,0,1027.867-461.099,1027.867-1027.868S3886.625,81.09,3319.857,81.09S2291.99,542.189,2291.99,1108.957
			c0,13.805-11.191,24.997-24.997,24.997c-13.805,0-24.997-11.192-24.997-24.997c0-145.5,28.502-286.66,84.714-419.56
			c27.016-63.873,60.454-125.477,99.383-183.1c38.555-57.069,82.833-110.733,131.602-159.503
			c48.77-48.769,102.435-93.046,159.504-131.602c57.622-38.929,119.227-72.367,183.1-99.383
			c132.9-56.212,274.061-84.714,419.56-84.714s286.66,28.502,419.56,84.714c63.874,27.016,125.478,60.454,183.101,99.383
			c57.069,38.555,110.733,82.833,159.503,131.602c48.77,48.77,93.047,102.434,131.602,159.503
			c38.93,57.624,72.366,119.227,99.383,183.1c56.212,132.9,84.714,274.061,84.714,419.56s-28.502,286.66-84.714,419.561
			c-27.017,63.873-60.453,125.477-99.383,183.1c-38.555,57.069-82.832,110.734-131.602,159.503s-102.434,93.046-159.503,131.602
			c-57.623,38.93-119.227,72.367-183.101,99.382C3606.518,2158.317,3465.356,2186.819,3319.857,2186.819z"/><path fill="#1d357d" d="M3319.642,1247.424c-23.662,0-47.03-6.124-68.161-18.131
			c-32.144-18.264-55.25-47.953-65.063-83.596c-9.813-35.643-5.159-72.974,13.105-105.117
			c18.264-32.143,47.952-55.249,83.596-65.062c35.644-9.814,72.975-5.16,105.117,13.104c32.144,18.265,55.25,47.953,65.063,83.596
			c5.542,20.132,6.493,40.695,2.827,61.119c-2.438,13.588-15.442,22.628-29.02,20.187c-13.589-2.439-22.627-15.432-20.188-29.02
			c2.336-13.015,1.724-26.142-1.821-39.016c-6.269-22.768-21.028-41.732-41.561-53.399c-20.532-11.667-44.379-14.641-67.147-8.371
			c-22.77,6.269-41.734,21.029-53.401,41.562c-11.667,20.532-14.64,44.379-8.37,67.147c6.269,22.769,21.028,41.733,41.561,53.4
			s44.377,14.64,67.147,8.371c13.314-3.664,27.071,4.154,30.736,17.464c3.664,13.311-4.155,27.071-17.465,30.736
			C3344.387,1245.76,3331.972,1247.424,3319.642,1247.424z"/><path fill="#1d357d" d="M3319.847 1133.955c-5.787 0-11.599-1.998-16.323-6.075l-375.972-324.53c-10.451-9.021-11.61-24.805-2.59-35.256 9.021-10.451 24.806-11.609 35.257-2.589l375.972 324.53c10.451 9.021 11.61 24.805 2.59 35.256C3333.837 1131.017 3326.861 1133.955 3319.847 1133.955zM2128.291 1416.772c-5.425 0-10.767-1.766-15.173-5.13-6.158-4.703-9.787-11.995-9.825-19.743l-.76-153.693c-.068-13.805 11.068-25.052 24.873-25.12.042 0 .085 0 .126 0 13.749 0 24.926 11.109 24.994 24.874l.6 121.293 117.183-31.36c13.337-3.567 27.041 4.35 30.609 17.686 3.569 13.336-4.349 27.04-17.685 30.609l-148.481 39.735C2132.622 1416.493 2130.449 1416.772 2128.291 1416.772zM2974.673 2107.437c-13.748.001-24.926-11.109-24.994-24.874l-.6-121.293-117.182 31.359c-13.335 3.569-27.04-4.349-30.609-17.686-3.568-13.336 4.35-27.04 17.686-30.609l148.48-39.735c7.484-2.001 15.475-.422 21.633 4.281s9.787 11.995 9.826 19.743l.76 153.693c.067 13.805-11.068 25.052-24.873 25.12C2974.758 2107.437 2974.715 2107.437 2974.673 2107.437zM2127.735 2110.266c-13.749.001-24.926-11.109-24.994-24.874-.068-13.805 11.068-25.052 24.873-25.12l121.293-.6-31.36-117.183c-3.569-13.336 4.349-27.04 17.686-30.609 13.335-3.57 27.041 4.349 30.609 17.685l39.735 148.481c2.003 7.485.422 15.475-4.281 21.633-4.703 6.158-11.995 9.787-19.743 9.825l-153.693.76C2127.82 2110.266 2127.776 2110.266 2127.735 2110.266zM2858.126 1412.361c-11.04 0-21.142-7.369-24.132-18.541l-39.735-148.48c-2.003-7.485-.422-15.475 4.281-21.633 4.702-6.158 11.994-9.787 19.742-9.825l153.693-.76c.042 0 .085 0 .127 0 13.747 0 24.926 11.11 24.994 24.874.067 13.805-11.068 25.052-24.873 25.12l-121.294.6 31.359 117.182c3.568 13.336-4.35 27.04-17.686 30.609C2862.439 1412.084 2860.265 1412.361 2858.126 1412.361z"/><path fill="#1d357d" d="M2281.407 2109.509c-4.598 0-9.248-1.267-13.413-3.921-18.332-11.685-36.175-24.681-53.033-38.627-83.959-69.454-143.447-161.54-172.033-266.303-13.764-50.443-19.954-102.535-18.398-154.828 1.571-52.8 11.016-104.811 28.073-154.586 4.476-13.061 18.693-20.017 31.75-15.544 13.06 4.475 20.02 18.69 15.544 31.75-63.789 186.15-4.742 395.52 146.931 520.989 15.277 12.637 31.439 24.41 48.039 34.991 11.642 7.421 15.063 22.874 7.643 34.515C2297.743 2105.422 2289.662 2109.509 2281.407 2109.509zM2549.888 2187.634c-4.847 0-9.696-.066-14.549-.2-52.656-1.446-104.551-10.724-154.241-27.577-13.074-4.434-20.078-18.627-15.644-31.701 4.434-13.074 18.628-20.078 31.701-15.644 185.728 62.989 394.532 3.751 519.58-147.411 13.062-15.79 25.188-32.512 36.046-49.702 7.371-11.673 22.809-15.159 34.482-7.787 11.673 7.372 15.159 22.81 7.787 34.483-11.99 18.985-25.379 37.447-39.794 54.873-69.27 83.736-161.085 143.149-265.521 171.819C2644.124 2181.308 2597.149 2187.634 2549.888 2187.634zM3025.364 1845.19c-2.618 0-5.28-.415-7.901-1.287-13.098-4.362-20.181-18.516-15.819-31.614 61.596-184.984 2.021-392.789-148.246-517.095-15.39-12.73-31.676-24.583-48.407-35.226-11.648-7.41-15.084-22.86-7.674-34.508 7.41-11.648 22.862-15.084 34.508-7.674 18.477 11.753 36.456 24.837 53.439 38.886 83.343 68.945 142.625 160.285 171.439 264.146 13.877 50.019 20.297 101.708 19.081 153.636-1.227 52.402-10.212 104.091-26.707 153.629C3045.588 1838.561 3035.832 1845.19 3025.364 1845.19zM2128.266 1416.775c-4.624 0-9.301-1.281-13.48-3.965-11.618-7.458-14.99-22.922-7.531-34.54 11.44-17.821 24.129-35.184 37.714-51.605 69.194-83.645 160.901-143.029 265.205-171.732 50.228-13.822 102.12-20.129 154.222-18.747 52.598 1.395 104.445 10.605 154.101 27.376 13.08 4.417 20.103 18.602 15.685 31.681-4.417 13.081-18.601 20.103-31.682 15.684-185.557-62.669-394.132-3.351-519.008 147.604-12.31 14.881-23.805 30.609-34.166 46.748C2144.55 1412.717 2136.493 1416.775 2128.266 1416.775z"/><path fill="#1d357d" d="M3564.867,1885.677h-429.256c-13.806,0-24.997-11.192-24.997-24.997
			c0-13.806,11.191-24.997,24.997-24.997h429.256c6.585,0,11.942-5.357,11.942-11.942v-89.192c0-6.585-5.357-11.942-11.942-11.942
			h-515.195c-13.806,0-24.997-11.192-24.997-24.997c0-13.806,11.191-24.997,24.997-24.997h515.195
			c34.151,0,61.937,27.785,61.937,61.937v89.192C3626.804,1857.892,3599.019,1885.677,3564.867,1885.677z"/></g><g><path fill="#7cf2ec" d="M1374.543,3291.159v-219.958c0-36.747,23.245-69.472,57.941-81.573l757.292-264.13
					c56.155-19.585,114.844,22.102,114.844,81.573v484.088H1374.543z"/><path fill="#1d357d" d="M2304.621,3316.156h-930.078c-13.806,0-24.997-11.191-24.997-24.997v-219.958
					c0-47.324,30.022-89.591,74.707-105.176l757.291-264.131c34.511-12.035,71.393-6.8,101.189,14.364s46.885,54.264,46.885,90.812
					v484.089C2329.618,3304.965,2318.426,3316.156,2304.621,3316.156z M1399.54,3266.162h880.083V2807.07
					c0-20.145-9.419-38.388-25.842-50.053c-16.423-11.666-36.752-14.552-55.774-7.918l-757.291,264.131
					c-24.629,8.59-41.177,31.887-41.177,57.971V3266.162z"/><path fill="#fff" d="M1118.534,3563.389l-32.774-1183.323c-6.142-247.206-211.374-442.584-458.567-436.389
					c-246.855,6.158-442.27,211.35-436.049,458.567l29.938,1183.241"/><path fill="#1d357d" d="M221.07,3610.482c-13.513,0.001-24.633-10.778-24.977-24.365l-29.937-1183.241
					c-1.605-63.789,9.337-125.987,32.524-184.871c22.385-56.848,55.181-108.214,97.475-152.672
					c42.283-44.445,91.936-79.753,147.58-104.944c57.611-26.082,119.126-40.112,182.835-41.701
					c63.779-1.589,125.979,9.35,184.856,32.54c56.855,22.394,108.223,55.202,152.678,97.511
					c44.451,42.306,79.762,91.992,104.951,147.678c26.082,57.659,40.11,119.238,41.695,183.028l32.772,1183.251
					c0.382,13.801-10.495,25.298-24.295,25.68c-13.807,0.397-25.297-10.496-25.679-24.295l-32.774-1183.323
					c-2.807-112.965-49.377-217.992-131.135-295.805c-81.762-77.817-188.927-119.123-301.818-116.287
					c-112.752,2.812-217.675,49.38-295.443,131.126c-77.8,81.779-119.082,188.969-116.242,301.823l29.938,1183.238
					c0.349,13.801-10.556,25.271-24.356,25.621C221.5,3610.479,221.284,3610.482,221.07,3610.482z"/><path fill="#fff" d="M1349.316,1470.058c-26.334,239.975-242.242,413.137-482.196,386.816
					c-239.959-26.356-413.141-242.246-386.768-482.223c26.334-239.972,242.242-413.137,482.199-386.779
					C1202.527,1014.208,1375.692,1230.116,1349.316,1470.058L1349.316,1470.058z"/><path fill="#1d357d" d="M915.544,1884.534c-16.991,0-34.047-0.936-51.151-2.812
					c-62.002-6.811-120.827-25.566-174.841-55.746c-52.161-29.145-97.646-67.656-135.191-114.466
					c-37.546-46.811-65.268-99.57-82.396-156.812c-17.737-59.28-23.275-120.775-16.461-182.778
					c6.803-61.998,25.555-120.823,55.734-174.84c29.142-52.161,67.653-97.646,114.463-135.191
					c46.809-37.545,99.568-65.267,156.81-82.396c59.277-17.738,120.77-23.279,182.768-16.468
					c62,6.804,120.827,25.557,174.844,55.736c52.162,29.143,97.646,67.653,135.191,114.462
					c37.544,46.809,65.265,99.566,82.391,156.807c17.734,59.272,23.271,120.764,16.458,182.755l0,0
					c-6.804,62.002-25.555,120.829-55.734,174.846c-29.142,52.161-67.652,97.647-114.462,135.195
					c-46.808,37.546-99.566,65.272-156.808,82.406C1004.235,1878.08,960.142,1884.534,915.544,1884.534z M914.032,1010.204
					c-93.324,0-183.198,31.448-257.05,90.684c-85.871,68.876-139.775,167.069-151.783,276.49
					c-12.026,109.427,19.284,216.98,88.161,302.853c68.875,85.869,167.067,139.778,276.488,151.796
					c15.194,1.667,30.302,2.481,45.249,2.481c207.279,0.007,386.251-156.497,409.371-367.177c0-0.001,0-0.003,0-0.005
					c12.027-109.411-19.279-216.955-88.152-302.823c-68.875-85.871-167.069-139.775-276.493-151.784
					C944.509,1011.038,929.218,1010.204,914.032,1010.204z"/><path fill="#fff" d="M1580.614,2988.632c11.005,25.852,17.134,54.274,17.286,84.125
					c0.462,120.079-96.434,217.777-216.482,218.271l-437.115-1.582c-120.123,0.501-235.87-45.07-323.406-127.335l4.651,5.093
					c-82.709-72.53-137.315-171.803-154.287-280.491l-86.797-555.856c-20.178-129.131,77.727-249.371,213.475-250.989
					c108.946-1.299,200.309,82.992,217.118,190.641l94.202,535.616c4.876,31.221,32.041,54.058,63.635,53.496l406.729-3.336
					C1469.818,2855.926,1547.382,2910.538,1580.614,2988.632L1580.614,2988.632z"/><path fill="#1d357d" d="M1381.424,3316.025c-0.032,0-0.064,0-0.097,0l-437.013-1.581
					c-0.665,0.003-1.341,0.004-2.006,0.004c-62.24,0.002-123.147-11.56-181.087-34.372
					c-54.637-21.513-104.393-52.152-148.068-91.157c-1.432-0.819-2.802-1.792-4.088-2.92
					c-86.949-76.248-144.66-181.167-162.503-295.429l-86.797-555.856c-10.862-69.515,8.979-140.217,54.438-193.976
					c22.173-26.222,49.036-47.031,79.841-61.85c32.223-15.5,67.078-23.58,103.597-24.015c58.459-0.673,115.267,20.895,160.04,60.799
					c43.763,39.003,72.891,92.527,82.037,150.742l94.161,535.381c0.028,0.157,0.054,0.314,0.078,0.473
					c2.935,18.785,19.474,32.688,38.494,32.36c0.08-0.001,0.16-0.002,0.239-0.003l406.729-3.336
					c0.364-0.001,0.732-0.003,1.089-0.003c97.426,0,184.918,57.834,223.106,147.554l0,0c12.628,29.667,19.116,61.222,19.283,93.788
					c0.249,64.782-24.717,125.752-70.298,171.711c-45.583,45.96-106.34,71.419-171.077,71.686
					C1381.489,3316.025,1381.457,3316.025,1381.424,3316.025z M944.295,3264.45c0.032,0,0.065,0,0.097,0l437.035,1.581
					c105.996-0.5,191.883-87.135,191.476-193.179c-0.133-25.855-5.276-50.908-15.29-74.431c0,0,0-0.001-0.001-0.002
					c-30.31-71.229-99.771-117.139-177.108-117.139c-0.246,0-0.487,0.001-0.734,0.002l-406.556,3.334
					c-21.267,0.354-41.954-6.998-58.243-20.69c-16.255-13.665-27.034-32.725-30.371-53.69l-94.164-535.396
					c-0.028-0.158-0.054-0.315-0.079-0.474c-15.265-97.756-97.862-170.64-192.123-169.502
					c-57.473,0.685-109.273,24.889-145.859,68.155c-36.088,42.677-51.84,98.8-43.217,153.979l86.797,555.859
					c15.406,98.657,63.876,189.562,136.946,257.324c1.815,0.996,3.535,2.233,5.111,3.715
					c82.768,77.782,190.778,120.558,304.298,120.558c0.634,0,1.251-0.001,1.886-0.004
					C944.23,3264.45,944.263,3264.45,944.295,3264.45z"/><path fill="#ff988e" d="M826.536,2392.064l-414.398,51.272c-21.481,2.658-36.501,22.564-33.162,43.95l40.7,260.645
					c3.229,20.678,22.448,34.942,43.175,32.045l413.382-57.792c21.201-2.964,35.864-22.72,32.561-43.871l-39.684-254.125
					C865.918,2403.742,847.073,2389.523,826.536,2392.064z"/><path fill="#1d357d" d="M457.428,2805.353c-13.501,0-26.602-4.305-37.624-12.485
					c-13.429-9.968-22.246-24.557-24.825-41.081l-40.7-260.644c-2.668-17.089,1.6-34.104,12.017-47.911
					c10.417-13.806,25.608-22.58,42.773-24.703l414.398-51.272c16.411-2.031,32.716,2.336,45.916,12.295
					c13.2,9.959,21.874,24.442,24.425,40.779l39.684,254.125c2.639,16.901-1.522,33.774-11.717,47.511
					c-10.195,13.735-25.14,22.604-42.081,24.973l-413.382,57.792C463.344,2805.146,460.375,2805.353,457.428,2805.353z
					 M829.606,2416.872l-414.398,51.272c-4.875,0.604-7.734,3.517-9.004,5.2s-3.287,5.231-2.529,10.085l40.7,260.645
					c1.116,7.147,7.85,12.146,15.015,11.146l413.383-57.792c4.812-0.673,7.615-3.583,8.858-5.257
					c1.243-1.675,3.216-5.201,2.466-10.002l-39.684-254.125C843.295,2420.89,836.791,2415.985,829.606,2416.872L829.606,2416.872z
					 M826.537,2392.064h0.01H826.537z"/><g><polyline fill="#ffdd72" points="2402.318 3585.485 2402.634 3291.155 424.551 3285.121 424.551 3585.485"/><path fill="#1d357d" d="M2402.318,3610.482c-0.009,0-0.018,0-0.027,0c-13.805-0.015-24.985-11.219-24.97-25.023
					l0.29-269.384l-1928.062-5.881v275.291c0,13.806-11.192,24.997-24.997,24.997c-13.806,0-24.997-11.191-24.997-24.997v-300.364
					c0-6.643,2.644-13.013,7.348-17.702c4.704-4.69,11.094-7.361,17.725-7.295l1978.083,6.033
					c13.786,0.042,24.936,11.237,24.921,25.024l-0.316,294.33C2427.3,3599.309,2416.11,3610.482,2402.318,3610.482z"/></g><g><path fill="#ff988e" d="M1689.661,2333.955L1689.661,2333.955c71.58,0,129.608-58.027,129.608-129.607v-495.302
					c0-71.58-58.027-129.607-129.607-129.607h0c-71.58,0-129.607,58.027-129.607,129.607v495.302
					C1560.054,2275.928,1618.081,2333.955,1689.661,2333.955z"/><path fill="#1d357d" d="M1689.662,2358.952L1689.662,2358.952c-85.25,0-154.605-69.355-154.605-154.604v-495.302
					c0-85.249,69.355-154.604,154.604-154.604c85.25,0,154.605,69.355,154.605,154.604v495.302
					C1844.266,2289.597,1774.911,2358.952,1689.662,2358.952z M1689.662,1604.436c-57.683,0-104.611,46.928-104.611,104.61v495.302
					c0,57.682,46.928,104.61,104.61,104.61s104.611-46.928,104.611-104.61v-495.302
					C1794.272,1651.364,1747.344,1604.436,1689.662,1604.436z"/><path fill="#ff988e" d="M1689.661,2747.098L1689.661,2747.098c79.287,0,143.562-64.275,143.562-143.562v0
					c0-79.287-64.275-143.562-143.562-143.562h0c-79.287,0-143.562,64.275-143.562,143.562v0
					C1546.1,2682.823,1610.374,2747.098,1689.661,2747.098z"/><path fill="#1d357d" d="M1689.662,2772.095L1689.662,2772.095c-92.944,0-168.559-75.615-168.559-168.559
					s75.615-168.559,168.559-168.559c92.944,0,168.56,75.616,168.56,168.559S1782.605,2772.095,1689.662,2772.095z
					 M1689.662,2484.971c-65.377,0-118.565,53.188-118.565,118.565s53.188,118.564,118.564,118.564
					c65.377,0,118.565-53.188,118.565-118.564S1755.039,2484.971,1689.662,2484.971z"/></g></g></svg>