<svg xmlns="http://www.w3.org/2000/svg" viewBox="0 0 64 64"><circle cx="46.8" cy="19.5" r="15" fill="#d32f2f" stroke="#37474f" stroke-linecap="round" stroke-linejoin="round" stroke-miterlimit="10"/><path fill="#78909c" stroke="#37474f" stroke-linecap="round" stroke-linejoin="round" stroke-miterlimit="10" d="M47.2 63.5h-1c-1.4 0-2.5-1.1-2.5-2.5V30.5h6V61c.1 1.4-1.1 2.5-2.5 2.5z"/><path fill="#455a64" stroke="#37474f" stroke-linecap="round" stroke-linejoin="round" stroke-miterlimit="10" d="M19.2 58.5h5c1.4 0 2.5-1.1 2.5-2.5V43c0-1.4-1.1-2.5-2.5-2.5h-5c-1.4 0-2.5 1.1-2.5 2.5v13c.1 1.3 1.2 2.5 2.5 2.5z"/><path fill="#b0bec5" stroke="#37474f" stroke-linecap="round" stroke-linejoin="round" stroke-miterlimit="10" d="M56.2 55c-.4.3-.9.5-1.5.5H36.8c-2 0-4-.4-5.9-1.2l-4.2-1.8v4l4.2 1.8c1.9.8 3.9 1.2 5.9 1.2h17.9c1.4 0 2.5-1.1 2.5-2.5 0-.8-.4-1.5-1-2z"/><path fill="#eceff1" stroke="#37474f" stroke-linecap="round" stroke-linejoin="round" stroke-miterlimit="10" d="M57.2 43c0-1.4-1.1-2.5-2.5-2.5 1.5 0 2.6-1.3 2.5-2.8-.1-1.3-1.3-2.2-2.6-2.2H43.7V33c0-1.4-1.1-2.5-2.5-2.5h-.4c-1.3 0-2.6.5-3.5 1.5l-1.5 1.5c-1.3 1.3-2.9 2.4-4.7 3.2l-4.3 1.9v14l4.2 1.8c1.9.8 3.9 1.2 5.9 1.2h17.8c1.3 0 2.5-.9 2.6-2.2.1-1.5-1-2.8-2.5-2.8 1.4 0 2.5-1.1 2.5-2.5s-1.1-2.5-2.5-2.5c1.3-.1 2.4-1.2 2.4-2.6z"/><path fill="none" stroke="#fff" stroke-linecap="round" stroke-linejoin="round" stroke-miterlimit="10" d="m28.7 39.8 3.1-1.3c2-.9 3.8-2.1 5.3-3.6l1.5-1.5c.6-.6 1.3-.9 2.1-.9"/><path fill="#78909c" stroke="#37474f" stroke-linecap="round" stroke-linejoin="round" stroke-miterlimit="10" d="M19.2 54.5h5c1.4 0 2.5-1.1 2.5-2.5V39c0-1.4-1.1-2.5-2.5-2.5h-5c-1.4 0-2.5 1.1-2.5 2.5v13c.1 1.3 1.2 2.5 2.5 2.5z"/><path fill="none" stroke="#37474f" stroke-linecap="round" stroke-linejoin="round" stroke-miterlimit="10" d="M54.8 40.5h-3M54.8 45.5h-3M54.8 50.5h-3"/><circle cx="21.8" cy="40.5" r="2" fill="#26c6da" stroke="#37474f" stroke-linecap="round" stroke-linejoin="round" stroke-miterlimit="10"/><circle cx="46.8" cy="15.5" r="15" fill="#ef5350" stroke="#37474f" stroke-linecap="round" stroke-linejoin="round" stroke-miterlimit="10"/><path fill="none" stroke="#ef9a9a" stroke-linecap="round" stroke-linejoin="round" stroke-miterlimit="10" d="M33.8 15.5c0-7.2 5.8-13 13-13"/><path fill="#0097a7" stroke="#37474f" stroke-linecap="round" stroke-linejoin="round" stroke-miterlimit="10" d="M4.8 56.5h12v-14h-12c-1.4 0-2.5 1.1-2.5 2.5v9c-.1 1.4 1.1 2.5 2.5 2.5z"/><path fill="#26c6da" stroke="#37474f" stroke-linecap="round" stroke-linejoin="round" stroke-miterlimit="10" d="M4.8 52.5h12v-14h-12c-1.4 0-2.5 1.1-2.5 2.5v9c-.1 1.3 1.1 2.5 2.5 2.5z"/><path fill="#eceff1" stroke="#37474f" stroke-linecap="round" stroke-linejoin="round" stroke-miterlimit="10" d="m50.8 9.6-4.1 4.1-4.1-4.1c-.6-.6-1.5-.6-2.1 0-.6.6-.6 1.5 0 2.1l4.1 4.1-4.1 4.1c-.6.6-.6 1.5 0 2.1.6.6 1.5.6 2.1 0l4.1-4.1 4.1 4.1c.6.6 1.5.6 2.1 0 .6-.6.6-1.5 0-2.1l-4.1-4.1 4.1-4.1c.6-.6.6-1.5 0-2.1-.5-.6-1.5-.6-2.1 0z"/></svg>