<svg xmlns="http://www.w3.org/2000/svg" viewBox="0 0 53 53"><path fill="#1d2943" d="m40.519 27.715-.02 6.92c-.01 2.8-1.85 5.59-5.52 7.73-7.4 4.3-19.43 4.3-26.87 0-3.75-2.16-5.62-5-5.61-7.84l.02-6.9c0-2.81 1.84-5.61 5.52-7.75 7.4-4.3 19.43-4.3 26.87 0 3.75 2.16 5.62 5.01 5.61 7.84z"/><path fill="#1d2943" d="m40.52 27.71-.02 6.924c-.007 2.799-1.846 5.593-5.521 7.729-7.397 4.298-19.428 4.298-26.873 0-3.743-2.161-5.613-5-5.605-7.833l.02-6.923c-.008 2.834 1.861 5.671 5.604 7.832 7.446 4.299 19.477 4.299 26.874 0 3.674-2.135 5.514-4.93 5.522-7.728z"/><path fill="#4c5c75" d="M34.911 19.873c7.445 4.299 7.484 11.268.088 15.566s-19.428 4.299-26.874 0C.685 31.144.647 24.175 8.043 19.877s19.428-4.299 26.868-.004z"/><path fill="#1d2943" d="M38.825 27.682c0 .696-.153 1.384-.45 2.055-.68 1.555-2.124 3.007-4.23 4.23-3.32 1.936-7.788 2.998-12.561 2.998-4.79 0-9.266-1.062-12.612-2.998-2.15-1.24-3.618-2.726-4.315-4.298a5.094 5.094 0 0 1-.442-2.038c0-2.302 1.665-4.535 4.68-6.285 3.32-1.928 7.788-2.998 12.57-2.998s9.249 1.07 12.595 2.998c3.066 1.767 4.756 4.017 4.765 6.336z"/><path fill="#111d33" d="M38.375 29.737c-.68 1.555-2.124 3.007-4.23 4.23-3.32 1.936-7.788 2.998-12.561 2.998-4.79 0-9.266-1.062-12.612-2.998-2.15-1.24-3.618-2.726-4.315-4.298.688-1.545 2.132-3.006 4.238-4.238 3.32-1.927 7.788-2.99 12.57-2.99s9.249 1.063 12.595 2.99c2.157 1.24 3.627 2.727 4.315 4.306z"/><path fill="#e3e7f0" d="M50.499 12.125c0 .76-.27 1.3-.7 1.55l-26.28 15.43-.06.04c-.44.26-1.04.21-1.71-.17-1.33-.77-2.4-2.63-2.4-4.16.01-.81.31-1.36.8-1.59l18.63-10.95c-.05.02-.1.04-.15.07l7.76-4.54c.44-.25 1.04-.22 1.71.17 1.33.77 2.41 2.63 2.4 4.15z"/><path fill="#e3e7f0" d="M50.501 12.128c-.006.76-.27 1.299-.703 1.546L23.46 29.143c.433-.253.703-.787.708-1.546 0-1.528-1.073-3.389-2.4-4.153-.668-.388-1.275-.422-1.714-.169L46.393 7.806c.432-.253 1.04-.219 1.708.169 1.332.77 2.406 2.63 2.4 4.153z"/><path fill="#dba660" d="M50.501 12.128c-.006.76-.27 1.299-.703 1.546l-7.766 4.541c.433-.253.703-.787.708-1.546 0-1.528-1.073-3.389-2.4-4.153-.669-.388-1.276-.421-1.714-.169l7.767-4.54c.432-.254 1.04-.22 1.708.168 1.332.77 2.406 2.63 2.4 4.153z"/><path fill="#c9cee2" d="M21.77 23.442c-1.332-.769-2.412-.15-2.416 1.376-.004 1.526 1.069 3.389 2.4 4.157 1.328.767 2.408.147 2.412-1.378.004-1.526-1.069-3.389-2.396-4.155z"/><path fill="#aa6256" d="M22.83 28.823c-.247 0-.536-.092-.835-.265-1.175-.678-2.163-2.39-2.16-3.738.001-.369.087-1.227.855-1.227.248 0 .538.092.839.266 1.172.677 2.16 2.388 2.156 3.736-.001.37-.087 1.228-.855 1.228z"/><path fill="#8a4852" d="M22.442 27.874c-.158 0-.342-.058-.533-.168-.748-.432-1.378-1.523-1.375-2.383 0-.235.055-.781.544-.781.158 0 .343.058.535.169.747.431 1.376 1.522 1.373 2.38 0 .236-.055.783-.544.783z"/><path fill="#bf7d5a" d="M22.057 26.934a.48.48 0 0 1-.232-.074c-.326-.188-.6-.663-.6-1.037.001-.103.025-.341.238-.341.069 0 .15.025.233.074.325.188.6.663.598 1.037 0 .102-.024.34-.237.34z"/><path fill="#e3e7f0" d="M21.296 19.202c-.13-.592-.031-1.162.196-1.703.138-.327.34-.63.534-.93.227-.352.348-.725.283-1.142-.077-.498-.392-.797-.895-.757-.372.03-.744.142-1.1.265-1.274.44-2.533-.179-2.897-1.448-.133-.464-.083-.903.226-1.295.456-.58 1.017-1.023 1.777-1.371-.188.332-.348.573-.465.834-.118.265-.244.543-.277.825-.055.483.247.767.72.659.493-.114.975-.294 1.447-.484.545-.22 1.087-.367 1.68-.23 1.497.347 2.2 1.993 1.4 3.307-.134.22-.29.44-.48.613-.891.816-1.646 1.729-2.15 2.857z"/><path fill="#e3e7f0" d="M19.783 21.793c.22-.943-.106-1.653-.783-2.291-.818-.77-.718-1.94.162-2.643.429-.343 1.006-.624 1.478-.708-.11.227-.219.43-.31.643-.41.955-.495 1.882.223 2.753.224.273.28.607.18.956-.155.541-.5.944-.95 1.29zm.265-9.963c.184-.237.398-.457.545-.715.212-.374.428-.76.546-1.169.139-.482-.141-.772-.64-.765-.217.003-.436.025-.651.003-.817-.082-1.41-.89-1.2-1.619.014-.049.041-.094.07-.155.393.76.589.858 1.35.699a5.55 5.55 0 0 1 .61-.104c.567-.054 1.107.023 1.453.533.365.537.386 1.129.086 1.703-.453.865-1.269 1.274-2.17 1.589z"/></svg>