<svg xmlns="http://www.w3.org/2000/svg" enable-background="new 0 0 256 256" viewBox="0 0 256 256"><path fill="#f9d0b4" d="M218.6,247.1l-4.8-86.3c-0.4-6.5-4.9-12-11.2-13.5l-13.4-3.4c-10.5-2.6-20.7-6.4-30.3-11.2l0,0
		c-1.8-0.9-3-2.7-3-4.8v-11.2c-5.5,3-11.6,4.5-17.8,4.5l0,0c-5.8,0-11.6-1.4-16.8-4V128c0,2-1.1,3.9-3,4.8l0,0
		c-9.7,4.8-19.9,8.5-30.3,11.2l-13.4,3.4c-6.3,1.6-10.8,7.1-11.2,13.5l-4.8,86.3c-0.2,3.3,2.4,6.2,5.7,6.4c0.1,0,0.2,0,0.3,0h147.9
		c3.3,0,6-2.7,6-6C218.6,247.4,218.6,247.2,218.6,247.1z"/><path fill="#f45d64" d="M164.4,192.3L164.4,192.3c-8.7,0-15.8,7.1-15.8,15.8l0,0c0,8.7,7.1,15.8,15.8,15.8l0,0
		c8.7,0,15.8-7.1,15.8-15.8l0,0C180.2,199.4,173.1,192.3,164.4,192.3z"/><path fill="#6d6c6b" d="M98.2,55.3c0.8,0,1.6,0.1,2.4,0.2v-1.8c0-1.1,0.9-2,2-2c0.1,0,0.3,0,0.4,0c6.8,1.4,27,3.9,40.7-13.4
		c0.7-0.9,2-1,2.8-0.3c0.1,0,0.1,0.1,0.2,0.1c3.2,3.1,11.4,9.3,27,9.7c1.1,0,1.9,0.9,1.9,2c0,0.2,0,0.4,0,0.6v5
		c4.8-0.8,9.8,0.8,13.3,4.2V31.5c0-11.8-9.6-21.4-21.4-21.4c-3.9,0-7.7,1.1-11,3.1c-3.9-6.5-10.8-10.5-18.4-10.5h-11
		C105.8,2.6,88.4,20,88.4,41.3v17.4C91.2,56.5,94.6,55.3,98.2,55.3z"/><path fill="#f9d0b4" d="M178.1 55.3c-.8 0-1.7.1-2.5.2.1.8.1 1.7.1 2.5v25.9c0 .8 0 1.7-.1 2.5 8.5 1.4 16.6-4.4 18-13 1.4-8.5-4.4-16.6-13-18C179.8 55.3 178.9 55.3 178.1 55.3L178.1 55.3zM100.6 83.9V58c0-.9 0-1.7.1-2.5C92.1 54 84 59.8 82.6 68.3c-1.4 8.5 4.3 16.6 12.8 18.1 1.7.3 3.5.3 5.2 0C100.6 85.6 100.6 84.7 100.6 83.9z"/><path fill="#f9d0b4" d="M143.7,38.3C130,55.6,109.8,53.1,103,51.7c-1.1-0.2-2.1,0.5-2.4,1.5c0,0.1,0,0.3,0,0.4v30.2
		c0.1,20.7,16.8,37.5,37.5,37.5l0,0c20.7-0.1,37.5-16.8,37.5-37.5V50.4c0-0.2,0-0.4,0-0.6c0-1.1-0.9-1.9-1.9-2
		c-15.6-0.5-23.8-6.6-27-9.7c-0.8-0.8-2.1-0.8-2.9,0C143.8,38.2,143.8,38.3,143.7,38.3z"/><path fill="#f9828b" d="M69,124.2L69,124.2c-17.5,0.1-31.6,14.2-31.7,31.7l0,0c0.1,17.5,14.2,31.6,31.7,31.7l0,0
		c17.5-0.1,31.6-14.2,31.7-31.7l0,0C100.6,138.3,86.5,124.2,69,124.2z"/><path fill="#f45d64" d="M69 187.5L69 187.5c17.5-.1 31.6-14.2 31.7-31.7 0-5-1.2-10-3.5-14.4-3 1-6 1.8-9.1 2.6l-13.4 3.4c-6.3 1.6-10.8 7.1-11.2 13.5L62 186.7C64.3 187.2 66.7 187.5 69 187.5zM198.1 106.5h-1.8v-1.8c0-1.4-1.1-2.5-2.5-2.5s-2.5 1.1-2.5 2.5v1.8h-1.8c-1.4 0-2.5 1.1-2.5 2.5s1.1 2.5 2.5 2.5h1.8v1.8c0 1.4 1.1 2.5 2.5 2.5s2.5-1.1 2.5-2.5v-1.8h1.8c1.4 0 2.5-1.1 2.5-2.5S199.5 106.5 198.1 106.5L198.1 106.5z"/><path fill="#fcd770" d="M84.8,2c0-0.2-0.1-0.3-0.1-0.5c-0.1-0.1-0.1-0.3-0.2-0.4c-0.1-0.1-0.2-0.3-0.3-0.4c-1-0.9-2.5-0.9-3.5,0
		c-0.1,0.1-0.2,0.2-0.3,0.4c-0.1,0.1-0.2,0.3-0.2,0.4C80,1.7,79.9,1.8,79.9,2c0,0.2-0.1,0.3-0.1,0.5c0,0.2,0,0.3,0.1,0.5
		c0,0.2,0.1,0.3,0.1,0.5c0.1,0.2,0.1,0.3,0.2,0.4c0.1,0.1,0.2,0.3,0.3,0.4c1,1,2.5,1,3.5,0c0,0,0,0,0,0c0.1-0.1,0.2-0.2,0.3-0.4
		c0.1-0.1,0.2-0.3,0.2-0.4c0.1-0.1,0.1-0.3,0.1-0.5c0-0.2,0-0.3,0.1-0.5C84.8,2.3,84.8,2.1,84.8,2z"/><path fill="#60bae2" d="M213.2,127.5c0-0.2-0.1-0.3-0.1-0.5c-0.1-0.1-0.1-0.3-0.2-0.4c-0.1-0.1-0.2-0.3-0.3-0.4c-1-0.9-2.5-0.9-3.5,0
		c-0.1,0.1-0.2,0.2-0.3,0.4c-0.2,0.3-0.3,0.6-0.4,0.9c-0.1,0.3-0.1,0.7,0,1c0,0.2,0.1,0.3,0.1,0.5c0.1,0.2,0.1,0.3,0.2,0.4
		c0.1,0.1,0.2,0.3,0.3,0.4c1,1,2.5,1,3.5,0c0,0,0,0,0,0c0.1-0.1,0.2-0.2,0.3-0.4c0.1-0.1,0.2-0.3,0.2-0.4c0.1-0.1,0.1-0.3,0.1-0.5
		C213.3,128.2,213.3,127.8,213.2,127.5z"/><path fill="#fcd770" d="M47.6,196.2c-2.5-0.5-4.5-2.5-5-5c0-0.1-0.1-0.1-0.1-0.1c0,0-0.1,0-0.1,0.1c-0.5,2.5-2.5,4.5-5,5
		c-0.1,0-0.1,0.1-0.1,0.1c0,0,0,0.1,0.1,0.1c2.5,0.5,4.5,2.5,5,5c0,0.1,0.1,0.1,0.1,0.1c0,0,0.1,0,0.1-0.1c0.5-2.5,2.5-4.5,5-5
		C47.7,196.5,47.7,196.4,47.6,196.2C47.7,196.3,47.7,196.3,47.6,196.2z"/><path fill="#6dcc6d" d="M74.9,24.2c-4.1-0.8-7.2-4-8-8c0-0.1-0.1-0.2-0.2-0.2c-0.1,0-0.1,0.1-0.2,0.2c-0.8,4.1-4,7.2-8,8
		c-0.1,0-0.2,0.1-0.1,0.2c0,0.1,0.1,0.1,0.1,0.1c4.1,0.8,7.2,4,8,8c0,0.1,0.1,0.2,0.2,0.2c0.1,0,0.1-0.1,0.2-0.2c0.8-4.1,4-7.2,8-8
		c0.1,0,0.2-0.1,0.1-0.2C75,24.2,75,24.2,74.9,24.2z"/><path fill="#231f20" d="M178.1 89.1c-1 0-1.9-.1-2.9-.2-1.3-.2-2.2-1.3-2.1-2.6.1-.9.1-1.7.1-2.4V58c0-.7 0-1.4-.1-2.4-.1-1.3.8-2.4 2.1-2.6 9.9-1.6 19.2 5.1 20.8 15 1.6 9.9-5.1 19.2-15 20.8C180 89 179 89.1 178.1 89.1L178.1 89.1zM178.2 57.8c0 .1 0 .2 0 .2v25.9c0 .1 0 .2 0 .2 7.3 0 13.2-5.9 13.2-13.2C191.3 63.7 185.4 57.8 178.2 57.8zM98.2 89.1C88.1 89.1 80 81 80 70.9c0-10 8.1-18.2 18.2-18.2 1 0 1.9.1 2.9.2 1.3.2 2.2 1.3 2.1 2.6-.1.9-.1 1.7-.1 2.4v25.9c0 .7 0 1.4.1 2.4.1 1.3-.8 2.4-2.1 2.6C100.1 89 99.1 89.1 98.2 89.1zM98.1 57.8c-7.3 0-13.2 5.9-13.2 13.2 0 7.3 5.9 13.2 13.2 13.2 0-.1 0-.2 0-.2V58C98.1 57.9 98.1 57.8 98.1 57.8z"/><path fill="#231f20" d="M138.1,123.9c-22.1,0-40-17.9-40-40V53.7c0-1.4,0.6-2.6,1.7-3.5c1.1-0.9,2.4-1.2,3.8-0.9
		c7.3,1.5,25.7,3.4,38.3-12.5l0,0c1.6-2,4.4-2.3,6.4-0.7c0.1,0.1,0.2,0.2,0.4,0.3c2.6,2.6,10.3,8.6,25.3,9c2.4,0.1,4.3,2,4.4,4.4
		c0,0.2,0,0.4,0,0.6v33.4C178.1,106,160.2,123.9,138.1,123.9z M103.1,54.3v29.6c0,19.4,15.7,35,35,35s35-15.7,35-35V50.4
		c-15.3-0.6-23.9-6.4-27.8-10.1C131,57.9,110.1,55.6,103.1,54.3z M145.7,39.9L145.7,39.9L145.7,39.9z M143.7,38.3L143.7,38.3z"/><path fill="#231f20" d="M188.9 62.2c-.6 0-1.3-.3-1.7-.7-2.4-2.4-5.7-3.7-9.1-3.7-.7 0-1.4.1-2 .2-1.4.2-2.6-.7-2.9-2.1 0-.1 0-.3 0-.4v-5.1c-15.3-.6-23.9-6.4-27.8-10.1-14.3 17.6-35.3 15.4-42.3 14v1.2c0 1.4-1.1 2.5-2.5 2.5-.1 0-.3 0-.4 0-.7-.1-1.3-.2-2-.2-3 0-5.9 1-8.2 2.9-1.1.9-2.7.7-3.5-.4-.4-.4-.5-1-.5-1.6V41.3c0-22.8 18.5-41.2 41.3-41.3h11c7.6 0 14.7 3.6 19.2 9.7 3.2-1.5 6.6-2.3 10.1-2.3 13.2 0 23.9 10.7 23.9 23.9v28.2C191.4 61 190.3 62.2 188.9 62.2L188.9 62.2zM178.2 52.8c2.9 0 5.7.7 8.3 2V31.5c0-10.4-8.4-18.9-18.8-18.9-3.5 0-6.8.9-9.8 2.7-1.2.7-2.7.3-3.4-.9 0 0 0 0 0 0-3.4-5.7-9.6-9.2-16.2-9.3h-11c-20 0-36.2 16.2-36.3 36.3v12.9c2.3-1 4.8-1.5 7.3-1.5l0 0c.2-1 .8-1.9 1.6-2.6 1.1-.9 2.4-1.2 3.8-.9 7.3 1.5 25.7 3.4 38.3-12.5 1.6-2 4.4-2.3 6.4-.7.1.1.2.2.4.3 2.6 2.6 10.3 8.6 25.3 9 2.4.1 4.3 2 4.4 4.4 0 .2 0 .4 0 .6L178.2 52.8zM186.8 256c-1.4 0-2.5-1.1-2.5-2.5v-62.8c0-1.4 1.1-2.5 2.5-2.5s2.5 1.1 2.5 2.5v62.8C189.3 254.9 188.2 256 186.8 256zM90.5 256c-1.4 0-2.5-1.1-2.5-2.5v-62.8c0-1.4 1.1-2.5 2.5-2.5s2.5 1.1 2.5 2.5v62.8C93 254.9 91.9 256 90.5 256z"/><path fill="#231f20" d="M212.6 256H64.7c-4.7 0-8.5-3.8-8.5-8.5 0-.2 0-.3 0-.5l4.8-86.3c.4-7.6 5.7-14 13.1-15.8l13.4-3.4c10.3-2.6 20.3-6.3 29.8-11 1-.5 1.6-1.4 1.6-2.5v-10.6c0-1.4 1.1-2.5 2.5-2.5.4 0 .8.1 1.1.3 4.8 2.5 10.2 3.7 15.6 3.7 5.8 0 11.5-1.5 16.6-4.2 1.2-.7 2.7-.2 3.4 1 .2.4.3.8.3 1.2V128c0 1.1.6 2 1.6 2.5 9.5 4.7 19.5 8.4 29.8 11l13.4 3.4c7.4 1.8 12.7 8.3 13.1 15.8l4.8 86.3 0 0c.3 4.7-3.3 8.7-8 9C212.9 256 212.8 256 212.6 256zM123.9 121.3v6.8c0 3-1.7 5.7-4.4 7-9.9 4.9-20.2 8.7-30.8 11.3l-13.4 3.4c-5.2 1.3-9 5.9-9.3 11.3l-4.8 86.3c-.1 1.9 1.4 3.6 3.3 3.7.1 0 .1 0 .2 0h147.9c2 0 3.5-1.6 3.5-3.5 0-.1 0-.1 0-.2l-4.8-86.3c-.3-5.4-4.1-10-9.3-11.3l-13.4-3.4c-10.6-2.7-21-6.5-30.8-11.3-2.7-1.3-4.4-4-4.4-7v-7.2c-4.9 2-10.1 3.1-15.3 3.1C133.2 123.9 128.4 123 123.9 121.3zM132.1 93.4c-1.4 0-2.5-1.1-2.5-2.5 0-1.1.7-2 1.7-2.4 4.8-1.2 9.8-1.2 14.6 0 1.3.4 2 1.8 1.6 3.1s-1.8 2-3.1 1.6c0 0 0 0-.1 0-3.8-.9-7.7-.9-11.5 0C132.6 93.4 132.4 93.4 132.1 93.4zM124.3 73.4c-.2 0-.3 0-.5-.1-.2 0-.3-.1-.5-.1-.2-.1-.3-.1-.4-.2-.1-.1-.3-.2-.4-.3-1-1-1-2.5 0-3.5 0 0 0 0 0 0 1-.9 2.5-.9 3.5 0 1 1 1 2.5 0 3.5 0 0 0 0 0 0-.1.1-.2.2-.4.3-.1.1-.3.2-.4.2-.2.1-.3.1-.5.1C124.7 73.4 124.5 73.4 124.3 73.4zM153 73.4c-.2 0-.3 0-.5-.1-.2 0-.3-.1-.5-.1-.2-.1-.3-.1-.4-.2-.1-.1-.3-.2-.4-.3-.1-.1-.2-.2-.3-.4-.1-.1-.2-.3-.2-.4-.1-.2-.1-.3-.1-.5 0-.2 0-.3 0-.5 0-.2 0-.3 0-.5 0-.2.1-.3.1-.5.1-.2.1-.3.2-.4.1-.1.2-.3.3-.4.1-.1.2-.2.4-.3.1-.1.3-.2.4-.2.2-.1.3-.1.5-.1.3-.1.6-.1 1 0 .2 0 .3.1.5.1.1.1.3.1.4.2.1.1.3.2.4.3.1.1.2.2.3.4.1.1.2.3.2.4.1.1.1.3.1.5 0 .2.1.3.1.5 0 .2 0 .3-.1.5 0 .2-.1.3-.1.5-.1.2-.1.3-.2.4-.1.1-.2.3-.3.4-.1.1-.2.2-.4.3-.1.1-.3.2-.4.2-.2.1-.3.1-.5.1C153.3 73.4 153.1 73.4 153 73.4z"/><path fill="#231f20" d="M69 190c-18.9 0-34.2-15.3-34.2-34.2s15.3-34.2 34.2-34.2 34.2 15.3 34.2 34.2C103.1 174.7 87.9 189.9 69 190zM69 126.7c-16.1 0-29.2 13.1-29.2 29.2S52.9 185 69 185s29.2-13.1 29.2-29.2c0 0 0 0 0 0C98.1 139.7 85.1 126.7 69 126.7zM164.4 226.5c-10.1 0-18.3-8.2-18.3-18.3 0-10.1 8.2-18.3 18.3-18.3 10.1 0 18.3 8.2 18.3 18.3 0 0 0 0 0 0C182.7 218.2 174.5 226.4 164.4 226.5zM164.4 194.8c-7.4 0-13.3 6-13.3 13.3 0 7.4 6 13.3 13.3 13.3 7.4 0 13.3-6 13.3-13.3 0 0 0 0 0 0C177.7 200.8 171.8 194.8 164.4 194.8L164.4 194.8z"/><path fill="#231f20" d="M164.8,215.3c-4.7,0-9.3-0.9-13.7-2.5l-3.4-1.3c-1.3-0.5-2-1.9-1.5-3.2c0.5-1.3,1.9-2,3.2-1.5c0,0,0,0,0.1,0
		l3.4,1.3c5.9,2.2,12.3,2.8,18.5,1.5c1.4-0.2,2.6,0.7,2.9,2.1c0.2,1.3-0.6,2.5-1.9,2.8C169.8,215,167.3,215.3,164.8,215.3z"/><path fill="#231f20" d="M148.6,211.7c-0.3,0-0.6-0.1-0.9-0.2l-5-1.9c-3.9-1.5-6.5-5.3-6.5-9.5v-28.3c0-1.4,1.1-2.5,2.5-2.5
		s2.5,1.1,2.5,2.5v28.3c0,2.1,1.3,4,3.3,4.8l5,1.9c1.3,0.5,1.9,1.9,1.4,3.2C150.6,211,149.6,211.6,148.6,211.7L148.6,211.7z"/><path fill="#231f20" d="M112.5 215.3c-2.5 0-5.1-.3-7.6-.7-1.3-.3-2.2-1.7-1.9-3 .3-1.3 1.5-2.1 2.8-1.9 6.2 1.2 12.6.7 18.5-1.5l8.4-3.2c2-.8 3.3-2.7 3.3-4.8v-28.3c0-1.4 1.1-2.5 2.5-2.5s2.5 1.1 2.5 2.5v28.3c0 4.2-2.6 8-6.5 9.5l-8.4 3.2C121.9 214.4 117.2 215.3 112.5 215.3zM143.6 158.9c-1.4 0-2.5-1.1-2.5-2.5 0-.6.2-1.2.6-1.7l3.7-4.1c1.7-1.8 4-2.9 6.5-2.9h12.5c1.4 0 2.5 1.1 2.5 2.5s-1.1 2.5-2.5 2.5h-12.5c-1 0-2 .4-2.7 1.2l-3.7 4.1C145 158.6 144.3 158.9 143.6 158.9zM133.7 158.9c-.7 0-1.4-.3-1.9-.8l-3.7-4.1c-.7-.8-1.7-1.2-2.7-1.2h-12.5c-1.4 0-2.5-1.1-2.5-2.5s1.1-2.5 2.5-2.5h12.5c2.5 0 4.8 1 6.5 2.9l3.7 4.1c.9 1 .8 2.6-.2 3.5C134.9 158.7 134.3 158.9 133.7 158.9L133.7 158.9z"/></svg>