<svg xmlns="http://www.w3.org/2000/svg" data-name="Filled Outline" viewBox="0 0 128 128"><path fill="#524584" d="M101.868 27.123C95.006 12.893 79.115 2.523 64 2.529S32.994 12.893 26.132 27.123c-4.443 9.213-4.192 26.427-2.512 34.709h80.76c1.68-8.282 1.931-25.496-2.512-34.709Z"/><path fill="#ff6e8d" d="m97.344 59.7-2.511 21.366c5.407.883 11.4-5.258 12.292-10.663 1.101-6.641-3.008-11.261-9.781-10.703zM20.875 70.4c.9 5.405 6.885 11.546 12.292 10.663L30.656 59.7c-6.773-.558-10.882 4.062-9.781 10.7zm62.975 55.07h-39.7a1 1 0 0 1-.61-1.79c4.29-3.17 6.52-8.37 7.67-12.84a38.52 38.52 0 0 0 1.07-6.4h23.44a38.52 38.52 0 0 0 1.07 6.4c1.15 4.47 3.38 9.67 7.67 12.84a1 1 0 0 1-.61 1.79z"/><path fill="#ef457a" d="M76.79 110.84a37.172 37.172 0 0 1-10.3 4.12 10.745 10.745 0 0 1-4.98 0 37.172 37.172 0 0 1-10.3-4.12 38.52 38.52 0 0 0 1.07-6.4h23.44a38.52 38.52 0 0 0 1.07 6.4Z"/><path fill="#ff99a8" d="M95.19 79.66c-.02.07-.03.13-.05.2-1.86 7.51-4.9 13.62-9.13 17.72-4.56 4.42-10.34 9.19-19.52 11.38a10.745 10.745 0 0 1-4.98 0c-9.18-2.19-14.96-6.96-19.52-11.38-4.23-4.1-7.27-10.21-9.13-17.72l-.03-.14a87.04 87.04 0 0 1-2.13-23.05A122.235 122.235 0 0 1 32.717 42c7.7-.16 14.013-8.2 18.033-13.8 7.13-9.94 20.73-9.46 26.23-.54a2.011 2.011 0 0 0 1.57.99 11.592 11.592 0 0 1 3.32.35c6.67 2.43 7.112 10.659 13 12.649A56.715 56.715 0 0 1 97.3 56.67a87.46 87.46 0 0 1-2.11 22.99Z"/><path fill="#332c44" d="M64 80.316a7.336 7.336 0 0 1-4.78-1.988 1.4 1.4 0 0 1 1.82-2.117c2.047 1.761 3.873 1.761 5.92 0a1.4 1.4 0 0 1 1.82 2.117A7.336 7.336 0 0 1 64 80.316zm10.753 6.264a1.061 1.061 0 0 0-1.446-.4l-.189.108a2.552 2.552 0 0 1-.735.213 8.2 8.2 0 0 1-1.073.095 13.812 13.812 0 0 1-2.3-.152c-.186-.028-1.079-.252-1.181-.272a3.014 3.014 0 0 0-2.389.524 3.358 3.358 0 0 1-1.44.49 3.358 3.358 0 0 1-1.443-.488 3.014 3.014 0 0 0-2.389-.524c-.1.02-.995.244-1.181.272a13.812 13.812 0 0 1-2.3.152 8.2 8.2 0 0 1-1.073-.095 2.552 2.552 0 0 1-.735-.213l-.189-.108a1.06 1.06 0 0 0-1.26 1.685 4.018 4.018 0 0 0 1.555.9 7.723 7.723 0 0 0 1.455.348 11.087 11.087 0 0 0 2.833.129 6 6 0 0 1 1.342-.12c.309.072.5.321.764.474a4 4 0 0 0 .894.388 5.955 5.955 0 0 0 3.448 0 4 4 0 0 0 .894-.388c.268-.153.455-.4.764-.474a6 6 0 0 1 1.342.12 11.087 11.087 0 0 0 2.833-.129 7.723 7.723 0 0 0 1.455-.348 4.018 4.018 0 0 0 1.555-.9 1.062 1.062 0 0 0 .189-1.287zm-10.711 9.049a5.539 5.539 0 0 1-2.418-.571 1.5 1.5 0 0 1 1.3-2.7 2.41 2.41 0 0 0 2.234 0 1.5 1.5 0 0 1 1.3 2.7 5.543 5.543 0 0 1-2.416.571zM38.977 106.94a1.5 1.5 0 0 1-.715-.182c-5.02-2.725-8.431-8.8-8.574-9.055a1.5 1.5 0 0 1 2.623-1.457c.031.055 3.139 5.572 7.382 7.875a1.5 1.5 0 0 1-.716 2.819z"/><path fill="#332c44" d="M27.37 97.338a1.482 1.482 0 0 1-.5-.086 1.5 1.5 0 0 1-.914-1.914l.913-2.584a2.648 2.648 0 0 1 3.377-1.613l2.587.915a1.5 1.5 0 1 1-1 2.828l-2.253-.8-.8 2.251a1.5 1.5 0 0 1-1.41 1.003zm61.653 9.602a1.5 1.5 0 0 1-.716-2.819c4.243-2.3 7.351-7.82 7.382-7.875a1.5 1.5 0 0 1 2.623 1.454c-.143.257-3.554 6.33-8.574 9.055a1.5 1.5 0 0 1-.715.185z"/><path fill="#332c44" d="M100.63 97.338a1.5 1.5 0 0 1-1.414-1l-.8-2.251-2.253.8a1.5 1.5 0 1 1-1-2.828l2.586-.915a2.649 2.649 0 0 1 3.378 1.614l.913 2.583a1.5 1.5 0 0 1-.914 1.914 1.482 1.482 0 0 1-.496.083zm-44.6-41.551c-1.7-.136-3.449-.231-5.186-.381-1.742-.119-3.486-.26-5.227-.477 0 0-1.96-.247-2.616-.3a21.94 21.94 0 0 0-2.405-.052 14.019 14.019 0 0 0-4.689 1.529l-.046.024a.669.669 0 0 1-.707-1.13 14.365 14.365 0 0 1 5.075-2.425c.472-.111 2.2-.29 2.2-.29l.669-.015 2.676-.028a42.937 42.937 0 0 1 5.337.331 35.256 35.256 0 0 1 5.323.956 1.152 1.152 0 0 1-.389 2.261zm19.802 9.122c.656.021 1.323 0 1.983-.009a20.386 20.386 0 0 0 3.814-.358 13.481 13.481 0 0 0 3.462-1.108s.485-.257.619-.31a2.777 2.777 0 0 1 .834-.192 2.969 2.969 0 0 1 1.471.271 14.213 14.213 0 0 0 1.711.749l.029.009a.653.653 0 0 1 0 1.246 5.208 5.208 0 0 1-2.342.035.925.925 0 0 0-.563.024c-.06.026-.433.293-.433.293a10.849 10.849 0 0 1-4.252 1.748 16.728 16.728 0 0 1-4.418.234 15.868 15.868 0 0 1-4.362-.827.993.993 0 0 1 .461-1.917s1.339.103 1.986.112zm-23.664 0c-.656.021-1.323 0-1.983-.009a20.386 20.386 0 0 1-3.814-.358 13.481 13.481 0 0 1-3.462-1.108s-.485-.257-.619-.31a2.777 2.777 0 0 0-.834-.192 2.969 2.969 0 0 0-1.471.271 14.213 14.213 0 0 1-1.711.749l-.029.009a.653.653 0 0 0 0 1.246 5.208 5.208 0 0 0 2.342.035.925.925 0 0 1 .563.024c.06.026.433.293.433.293a10.849 10.849 0 0 0 4.252 1.748 16.728 16.728 0 0 0 4.418.234 15.868 15.868 0 0 0 4.362-.827.993.993 0 0 0-.461-1.917s-1.339.103-1.986.112zm19.395-11.381a35.256 35.256 0 0 1 5.323-.956 42.937 42.937 0 0 1 5.337-.331l2.676.028 1.42.057a12.254 12.254 0 0 1 1.452.248A14.365 14.365 0 0 1 92.846 55a.669.669 0 0 1-.707 1.132l-.046-.025a14.019 14.019 0 0 0-4.693-1.53 9.781 9.781 0 0 0-1.178-.055L85 54.629l-2.616.3c-1.741.217-3.485.358-5.227.477-1.737.15-3.482.245-5.186.381h-.018a1.152 1.152 0 0 1-.389-2.261z"/><path fill="#ff6e8d" d="M95.19 79.66c-.02.07-.03.13-.05.2-1.86 7.51-4.9 13.62-9.13 17.72-4.56 4.42-10.34 9.19-19.52 11.38a10.745 10.745 0 0 1-4.98 0c-9.18-2.19-14.96-6.96-19.52-11.38-4.23-4.1-7.27-10.21-9.13-17.72l-.03-.14a66.678 66.678 0 0 0 9.42 12.49 48.189 48.189 0 0 0 6.44 5.83 36.55 36.55 0 0 0 7.99 4.67 18.282 18.282 0 0 0 7.32 1.91 18.238 18.238 0 0 0 7.32-1.91 36.55 36.55 0 0 0 7.99-4.67 48.189 48.189 0 0 0 6.44-5.83 76.15 76.15 0 0 0 9.44-12.55Z"/><path fill="#332c44" d="M82.336 94.166a1 1 0 1 1 1.364 1.466q-.742.69-1.521 1.359a1 1 0 0 1-1.3-1.518q.741-.643 1.457-1.307zm-13.078 8.262c.6-.2 1.2-.437 1.8-.689a1 1 0 0 1 .779 1.842c-.639.27-1.287.519-1.929.739a1 1 0 0 1-.65-1.892zm6.104-2.912q.833-.508 1.636-1.058a1 1 0 1 1 1.129 1.651q-.846.578-1.722 1.114a1 1 0 0 1-1.043-1.707zM95.043 77.9a1 1 0 0 1 1.764.944s-.356.665-1.036 1.789A1 1 0 1 1 94.06 79.6c.64-1.055.976-1.683.983-1.7zm-3.695 5.83a1 1 0 0 1 1.634 1.154 81.604 81.604 0 0 1-1.19 1.642 1 1 0 1 1-1.605-1.193q.613-.833 1.161-1.603zM87.1 89.19a1 1 0 1 1 1.517 1.3q-.648.757-1.348 1.523a1 1 0 1 1-1.469-1.346q.671-.741 1.3-1.477zM51 98.458q.8.547 1.636 1.058a1 1 0 0 1-1.043 1.707q-.876-.535-1.722-1.114A1 1 0 1 1 51 98.458zM40.9 89.19q.631.735 1.307 1.477a1 1 0 1 1-1.476 1.348q-.7-.764-1.348-1.523a1 1 0 1 1 1.517-1.3zm-4.248-5.46q.544.772 1.161 1.6a1 1 0 1 1-1.605 1.193 81.604 81.604 0 0 1-1.19-1.642 1 1 0 0 1 1.634-1.154zM31.6 77.494a1 1 0 0 1 1.353.409c.007.014.345.642.983 1.7a1 1 0 0 1-1.711 1.036c-.68-1.124-1.036-1.789-1.036-1.789a1 1 0 0 1 .411-1.356zm14.064 16.672q.717.662 1.465 1.307a1 1 0 0 1-1.3 1.518q-.777-.669-1.521-1.359a1 1 0 1 1 1.359-1.466zm17.242 9.39c.2.027 1.991.027 2.188 0a1 1 0 1 1 .279 1.98c-.255.036-2.491.036-2.746 0a1 1 0 1 1 .279-1.98zm-5.964-1.817c.6.252 1.2.484 1.8.689a1 1 0 1 1-.65 1.892c-.642-.22-1.29-.469-1.929-.739a1 1 0 0 1 .779-1.842z"/><path fill="#332c44" d="M106.25 61.292c-.067-.073-.143-.134-.213-.2 1.617-9.162 1.547-25.567-2.817-34.617-7.112-14.744-23.6-25.442-39.2-25.442h-.029c-15.607 0-32.095 10.7-39.206 25.442-4.364 9.05-4.434 25.455-2.817 34.617-.07.07-.146.131-.213.2-2.135 2.317-2.972 5.64-2.354 9.356.958 5.777 6.781 11.977 12.665 12 1.992 6.768 4.976 12.216 8.885 16.008a49.74 49.74 0 0 0 9.79 7.626c-.5 4.355-2.553 14.415-10.968 17.8a1.5 1.5 0 0 0 .559 2.892 1.514 1.514 0 0 0 .56-.108c9.2-3.7 11.889-13.771 12.677-19.1a38.859 38.859 0 0 0 7.6 2.658 12.268 12.268 0 0 0 5.678 0 38.869 38.869 0 0 0 7.6-2.658c.785 5.325 3.474 15.4 12.678 19.1a1.5 1.5 0 0 0 1.951-.833 1.5 1.5 0 0 0-.832-1.951c-8.415-3.381-10.469-13.441-10.968-17.8a49.748 49.748 0 0 0 9.791-7.626c3.908-3.792 6.892-9.24 8.885-16.008 5.883-.025 11.706-6.225 12.664-12 .606-3.716-.231-7.039-2.366-9.356Zm-83.9 8.865a7.94 7.94 0 0 1 1.6-6.832 7.293 7.293 0 0 1 5.219-2.148q.03 2.648.185 5.17a7.554 7.554 0 0 0-3.411-.513 1.5 1.5 0 0 0 .289 2.986 4.055 4.055 0 0 1 3.428 1.32 74.131 74.131 0 0 0 1.57 9.416c-4.004-.627-8.202-5.335-8.876-9.399ZM84.966 96.5c-4.625 4.483-10.106 8.918-18.825 11a9.243 9.243 0 0 1-4.284 0c-8.717-2.08-14.2-6.515-18.823-11C35.539 89.232 31.69 75.1 32.2 56.714A94.1 94.1 0 0 1 33.993 43.2c8.654-1.267 13.97-8.611 17.944-14.153a15.34 15.34 0 0 1 13.069-6.727 12.875 12.875 0 0 1 10.732 6.1 3.475 3.475 0 0 0 2.731 1.68c.359.021.691.031 1.005.04a6.235 6.235 0 0 1 1.918.235c2.8.98 4.382 3.41 6.063 5.983a34.7 34.7 0 0 0 2.4 3.371 12.04 12.04 0 0 0 3.78 3.007A56.064 56.064 0 0 1 95.8 56.711C96.31 75.1 92.461 89.232 84.966 96.5Zm7.117-58.64a32.182 32.182 0 0 1-2.191-3.092c-1.786-2.733-3.808-5.831-7.538-7.138a8.658 8.658 0 0 0-2.8-.4c-.287-.008-.59-.017-.918-.036a.579.579 0 0 1-.422-.3 15.949 15.949 0 0 0-13.11-7.482 18.461 18.461 0 0 0-15.536 7.94c-4.311 6.013-9.67 13.506-18.858 13.131a1.456 1.456 0 1 0-.115 2.909c.1 0 .2-.006.295 0a96.652 96.652 0 0 0-1.69 13.236c-.014.528-.012 1.04-.02 1.561a11.485 11.485 0 0 0-4.485.995c-1.27-8.8-1.04-23.473 2.787-31.41C34.12 14.013 49.469 4.029 63.987 4.029h.027c14.516 0 29.867 9.985 36.5 23.745 3.828 7.939 4.054 22.612 2.783 31.408a11.474 11.474 0 0 0-4.481-.994c-.008-.521-.006-1.032-.02-1.56a60.46 60.46 0 0 0-1.725-12.692c.317.067.635.133.965.182a1.582 1.582 0 0 0 .216.016 1.455 1.455 0 0 0 .212-2.9 9.8 9.8 0 0 1-6.381-3.374Zm13.563 32.3c-.675 4.067-4.876 8.794-8.888 9.421a74.023 74.023 0 0 0 1.576-9.438 4.048 4.048 0 0 1 3.428-1.32 1.517 1.517 0 0 0 1.637-1.348 1.5 1.5 0 0 0-1.348-1.638 7.515 7.515 0 0 0-3.412.535q.158-2.529.186-5.191a7.286 7.286 0 0 1 5.219 2.147 7.94 7.94 0 0 1 1.602 6.829Z"/></svg>