<svg xmlns="http://www.w3.org/2000/svg" enable-background="new 0 0 256 256" viewBox="0 0 256 256"><path fill="#87828e" d="M184.875,110.484l-8.501-29.681c-9.096,0-86.009,0-96.752,0l-8.501,29.681c0,0-12.623,38.703,1.913,60.479c0.926,1.388,2.411,2.171,3.96,2.171c73.423,0-64.414,0,102.008,0c1.548,0,3.033-0.783,3.959-2.171C197.498,149.187,184.875,110.484,184.875,110.484z"/><path fill="#a4a4a5" d="M91.99,173.13h-15c-1.54,0-3.03-0.78-3.96-2.17c-14.53-21.77-1.91-60.48-1.91-60.48l8.5-29.68h15l-8.5,29.68c0,0-12.62,38.71,1.91,60.48C88.96,172.35,90.45,173.13,91.99,173.13z"/><path fill="#796e84" d="M182.96,170.96c-0.92,1.39-2.41,2.17-3.96,2.17h-15c1.55,0,3.04-0.78,3.96-2.17c14.54-21.77,1.92-60.48,1.92-60.48l-8.51-29.68h15l8.51,29.68C184.88,110.48,197.5,149.19,182.96,170.96z"/><rect width="30" height="43" x="113" y="137.333" fill="#ffbb98"/><rect width="15" height="43" x="113" y="137.33" fill="#ffcaa6"/><path fill="#ffbb98" d="M128,148.558L128,148.558c-25.605,0-46.554-20.949-46.554-46.554v-41.62c0-3.462,2.833-6.295,6.295-6.295h80.516c3.462,0,6.295,2.833,6.295,6.295v41.62C174.554,127.609,153.605,148.558,128,148.558z"/><path fill="#ffe2e2" d="M203.76,239.363c0,7.22-4.89,10.97-10,10.97H62.24c-5.048,0-10-3.674-10-10.97c0-41.925,33.999-75.77,75.75-75.77h0.02C169.678,163.593,203.76,197.332,203.76,239.363z"/><path fill="#ffcaa6" d="M135.5,147.95c-2.44,0.4-4.95,0.61-7.5,0.61c-25.6,0-46.55-20.95-46.55-46.56V60.38c0-3.46,2.83-6.29,6.29-6.29h15c-3.46,0-6.29,2.83-6.29,6.29V102C96.45,125.06,113.43,144.34,135.5,147.95z"/><path fill="#ffaa80" d="M174.55,60.38V102c0,25.61-20.95,46.56-46.55,46.56c-2.55,0-5.06-0.21-7.5-0.61c22.07-3.61,39.05-22.89,39.05-45.95V60.38c0-3.46-2.83-6.29-6.29-6.29h15C171.72,54.09,174.55,56.92,174.55,60.38z"/><path fill="#87828e" d="M138.333,5.667c-0.624,0-21.285,0-20.667,0c-26.512,0-48.004,21.492-48.004,48.004v22.125c0,2.748,2.223,4.981,4.971,5.004c40.648,0.333,48.405-19.037,52.417-35.521c3.955,16.512,11.072,35.302,54.251,35.451c2.773,0.01,5.036-2.23,5.036-5.003V53.671C186.337,27.159,164.845,5.667,138.333,5.667z"/><path fill="#796e84" d="M186.34,53.67v22.06c0,2.77-2.27,5.01-5.04,5c-4.56-0.01-8.72-0.24-12.51-0.65c1.52-0.86,2.55-2.49,2.55-4.35V53.67c0-26.51-21.49-48-48.01-48h15C164.85,5.67,186.34,27.16,186.34,53.67z"/><path fill="#a4a4a5" d="M84.66,53.67V75.8c0,1.88,1.05,3.52,2.59,4.38c-3.81,0.44-8,0.66-12.62,0.62c-2.74-0.02-4.97-2.26-4.97-5V53.67c0-26.51,21.49-48,48.01-48h14.99C106.14,5.68,84.66,27.16,84.66,53.67z"/><path fill="#ffcfcf" d="M203.76,240.33c0,5.53-4.48,10-10,10h-15c5.52,0,10-4.47,10-10c0-41.915-31.19-72.73-68.26-76.37c2.46-0.25,4.96-0.37,7.49-0.37h0.02C168.348,163.59,203.76,195.622,203.76,240.33z"/><path fill="#ffefee" d="M67.24,240.33c0,5.53,4.48,10,10,10h-15c-4.786,0-10-3.422-10-10.97c0-41.92,34-75.77,75.75-75.77h0.02c2.53,0,5.02,0.12,7.49,0.37C98.517,167.595,67.24,198.371,67.24,240.33z"/><path fill="#5f266d" d="M105.074 83.088c-3.445 0-6.237 2.792-6.237 6.237s2.792 6.237 6.237 6.237c3.445 0 6.237-2.792 6.237-6.237S108.519 83.088 105.074 83.088zM150.926 95.562c3.445 0 6.237-2.792 6.237-6.237s-2.792-6.237-6.237-6.237c-3.445 0-6.237 2.792-6.237 6.237S147.481 95.562 150.926 95.562z"/><path fill="#5f266d" d="M184.398,182.955c-2.074-2.074-4.27-4.035-6.508-5.825h1.119c2.909,0,5.633-1.475,7.287-3.949c15.252-22.851,3.212-61.378,2.409-63.868l-7.044-24.599c2.276-0.085,4.406-0.999,6.029-2.616c1.706-1.701,2.646-3.963,2.646-6.371V53.67c0-28.675-23.329-52.004-52.004-52.004h-20.676c-0.001,0-0.002,0-0.003,0C88.984,1.672,65.663,24.999,65.663,53.67v22.125c0,4.829,3.859,8.797,8.655,8.987l-7.024,24.529c-0.803,2.49-12.843,41.017,2.411,63.871c1.652,2.471,4.376,3.946,7.285,3.946h1.12c-18.432,14.781-29.87,36.852-29.87,63.204c0,7.72,6.28,14,14,14h131.52c6.996,0,14-5.234,14-14.97C207.76,218.052,199.463,198.02,184.398,182.955z M179.645,168.736c-0.167,0.25-0.398,0.394-0.635,0.394h-13.163c-5.966-3.227-12.29-5.651-18.846-7.252V148.84c18.238-7.428,31.19-25.207,31.529-46.008C181.369,112.75,193.137,148.523,179.645,168.736z M85.45,102V84.389c13.818-1.229,24.293-5.217,31.826-12.089c4.541-4.142,7.575-8.978,9.737-13.927c5.424,12.592,16.292,23.565,43.536,25.896V102c0,18.684-12.104,34.583-28.877,40.293C115.155,151.678,85.45,131.738,85.45,102z M139,151.34v9.018c-7.414-1.021-14.611-1.018-22-0.001v-9.017C124.294,152.966,131.7,152.967,139,151.34z M73.663,75.796V53.67c0-24.264,19.74-44.004,44.004-44.004h20.666c24.264,0,44.004,19.74,44.004,44.004v22.057c0,0.555-0.458,1.003-1.018,1.003c-0.001,0-0.003,0-0.004,0c-38.708-0.134-46.148-14.732-50.375-32.383c-0.976-4.08-6.783-4.091-7.776-0.014c-3.827,15.727-10.982,32.471-47.504,32.471C74.66,76.804,73.663,76.882,73.663,75.796z M76.99,169.13c-0.236,0-0.468-0.144-0.633-0.391c-9.912-14.85-6.417-39.929-1.392-57.158l2.505-8.749c0.339,20.8,13.29,38.579,31.529,46.008v13.036c-6.556,1.601-12.882,4.026-18.848,7.253H76.99z M193.76,246.333H62.24c-3.309,0-6-2.691-6-6c0-42.682,33.772-72.74,71.77-72.74c38.105,0,71.75,30.197,71.75,72.74C199.76,243.642,197.068,246.333,193.76,246.333z"/><circle cx="128" cy="199.083" r="6.25" fill="#5f266d"/><circle cx="128" cy="225.333" r="6.25" fill="#5f266d"/><path fill="#5f266d" d="M141.893 123.241c1.974-.992 2.771-3.396 1.778-5.37-2.737-5.448-8.226-8.832-14.322-8.832h-2.697c-6.097 0-11.585 3.384-14.322 8.832-.992 1.974-.195 4.378 1.778 5.37 1.972.992 4.379.195 5.37-1.778 1.371-2.729 4.12-4.424 7.174-4.424h2.697c3.054 0 5.803 1.695 7.174 4.424.702 1.398 2.113 2.205 3.577 2.205C140.703 123.667 141.316 123.53 141.893 123.241zM151.457 30.085c6.691 3.268 11.717 9.244 13.786 16.397.507 1.75 2.105 2.889 3.841 2.889.368 0 .743-.051 1.114-.159 2.122-.614 3.344-2.833 2.73-4.955-2.697-9.318-9.244-17.104-17.962-21.361-1.983-.969-4.379-.146-5.35 1.839C148.648 26.721 149.472 29.116 151.457 30.085zM166.285 58.686v3.393c0 2.209 1.791 4 4 4s4-1.791 4-4v-3.393c0-2.209-1.791-4-4-4S166.285 56.477 166.285 58.686z"/><circle cx="131.125" cy="83.927" r="3.125" fill="#5f266d"/><circle cx="123.319" cy="95.562" r="3.125" fill="#5f266d"/><circle cx="147.814" cy="105.25" r="3.125" fill="#5f266d"/><circle cx="162.796" cy="108.375" r="3.125" fill="#5f266d"/><circle cx="95.712" cy="113.038" r="3.125" fill="#5f266d"/><circle cx="105.074" cy="105.25" r="3.125" fill="#5f266d"/><path fill="#5f266d" d="M101.949 124.292c0 1.726 1.399 3.125 3.125 3.125 1.726 0 3.125-1.399 3.125-3.125C108.199 120.163 101.949 120.157 101.949 124.292zM119.155 133.872c-1.628.574-2.482 2.359-1.908 3.986 1.374 3.894 7.269 1.819 5.894-2.079C122.567 134.151 120.782 133.297 119.155 133.872zM130.085 127.147c-1.627.574-2.482 2.359-1.907 3.986.574 1.628 2.359 2.482 3.987 1.908 1.627-.574 2.482-2.359 1.907-3.987C133.498 127.427 131.713 126.573 130.085 127.147zM144.04 136.167c1.627-.574 2.482-2.359 1.907-3.986-.574-1.628-2.359-2.482-3.987-1.908-1.627.574-2.482 2.359-1.907 3.987C140.627 135.887 142.412 136.741 144.04 136.167zM154.051 114.917c-1.726 0-3.125 1.399-3.125 3.125 0 4.129 6.25 4.135 6.25 0C157.176 116.316 155.776 114.917 154.051 114.917z"/></svg>