<svg xmlns="http://www.w3.org/2000/svg" viewBox="0 0 32 32"><circle cx="16" cy="16" r="16" fill="#ffd93b"/><path fill="#ffd93b" d="M32 16c0 8.84-7.165 16-16 16-5.03 0-9.52-2.32-12.455-5.955A15.916 15.916 0 0 0 13.59 29.59c8.835 0 16-7.16 16-16 0-3.805-1.325-7.3-3.545-10.045C29.675 6.48 32 10.97 32 16z"/><path fill="#3e4347" d="M23.962 22.717c-.594 3.238-3.685 5.981-7.775 5.974-4.096.008-7.187-2.736-7.781-5.974-.071-.366.293-.842.635-.651 4.569 2.555 9.191 2.66 14.287 0 .346-.18.706.285.634.651z"/><ellipse cx="22.272" cy="14.303" fill="#3e4347" rx="5.076" ry="5.734"/><ellipse cx="10.33" cy="13.964" fill="#fff" rx="4.5" ry="5.083"/><circle cx="10.33" cy="14.722" r="2.352" fill="#3e4347"/><path fill="#5a5f63" d="M11.792 14.582c-.219.102-.508-.064-.661-.375-.147-.299-.091-.637.119-.742.219-.102.52.058.664.366.153.311.1.64-.122.751z"/><path fill="#3e4347" d="M11.132.76c-.101-.276-1.064.076-.962.352 2.041 3.11 9.775 13.921 21.355 18.699.249.053.459-.922.21-.976C20.732 14.24 13.288 4.014 11.132.76zM7.197 5.773c1-.102 2.68-.119 4.025.138 2.026.442 3.004 1.731 3.038 2.658-.89-.186-2.474-1.26-3.362-1.701-1.163-.616-2.465-.837-3.701-1.095z"/><path fill="#3e4347" d="M25.668 5.773c-1.222.255-2.533.476-3.7 1.095-.89.442-2.47 1.515-3.362 1.701.034-.929 1.001-2.214 3.038-2.658 1.257-.24 2.915-.251 4.024-.138z"/></svg>