<svg xmlns="http://www.w3.org/2000/svg" data-name="Layer 1" viewBox="0 0 512 512"><path fill="#fdd402" d="M475.5,256A218.70389,218.70389,0,0,1,415,407.32007q-7.155,7.52965-15,14.33984A218.60383,218.60383,0,0,1,256,475.5C134.77,475.5,36.5,377.23,36.5,256S134.77,36.5,256,36.5,475.5,134.77,475.5,256Z"/><path fill="#fbbf13" d="M96.5,256C96.5,144.9519,178.969,53.17993,286,38.54956A221.36948,221.36948,0,0,0,256,36.5C134.77344,36.5,36.5,134.77344,36.5,256S134.77344,475.5,256,475.5a221.36948,221.36948,0,0,0,30-2.04956C178.969,458.82007,96.5,367.0481,96.5,256Z"/><path fill="#74563a" d="M319.002,374.6543a7.49933,7.49933,0,0,1-2.25683-.34864,201.79746,201.79746,0,0,0-59.29883-9.34961c-.4834-.0039-.96973-.00585-1.45215-.00585a201.72382,201.72382,0,0,0-60.73926,9.35546,7.5003,7.5003,0,1,1-4.50976-14.30664,216.90587,216.90587,0,0,1,130.50976,0A7.5013,7.5013,0,0,1,319.002,374.6543Z"/><circle cx="183" cy="214.5" r="28" fill="#74563a"/><path fill="#674b34" d="M175,214.5a28.00508,28.00508,0,0,1,18-26.15405,28.00012,28.00012,0,1,0,0,52.30786A28.00477,28.00477,0,0,1,175,214.5Z"/><circle cx="334" cy="214.5" r="28" fill="#74563a"/><path fill="#fbbf13" d="M334,303.84783a76,76,0,1,1,76-76A76.08645,76.08645,0,0,1,334,303.84783Zm0-137a61,61,0,1,0,61,61A61.06879,61.06879,0,0,0,334,166.84783Z"/><circle cx="334" cy="214.5" r="68.5" fill="#c9e7f8"/><path fill="#97cded" d="M295.5,214.5A68.51133,68.51133,0,0,1,349,147.66748a68.5,68.5,0,1,0,0,133.665A68.51133,68.51133,0,0,1,295.5,214.5Z"/><path fill="#fbbf13" d="M415,229.46V407.32007q-7.155,7.52965-15,14.33984V229.46a7.5,7.5,0,0,1,15,0Z"/><path fill="#58565d" d="M334,290.5a76,76,0,1,1,76-76A76.08645,76.08645,0,0,1,334,290.5Zm0-137a61,61,0,1,0,61,61A61.0688,61.0688,0,0,0,334,153.5Z"/><path fill="#3c3b41" d="M268,214.5a76.08614,76.08614,0,0,1,71-75.81738c-1.65479-.10816-3.31836-.18262-5-.18262a76,76,0,0,0,0,152c1.68164,0,3.34521-.07446,5-.18262A76.08614,76.08614,0,0,1,268,214.5Z"/><path fill="#74563a" d="M155 169.53711c-.2207 0-.44043-.00977-.66113-.0293l-10-.88476a7.4999 7.4999 0 0 1 1.32226-14.94141l8.45606.74805 40.52832-13.39844a7.49425 7.49425 0 0 1 4.94726.084l19 7a7.49956 7.49956 0 1 1-5.18554 14.07422l-16.541-6.09375-39.51172 13.0625A7.5157 7.5157 0 0 1 155 169.53711zM306.00391 132.6543a7.50126 7.50126 0 0 1-3.04981-14.35547l45-20a7.50659 7.50659 0 0 1 7.02051.49316l16 10a7.50011 7.50011 0 0 1-7.94922 12.72071L350.4043 113.624l-41.3584 18.38184A7.46859 7.46859 0 0 1 306.00391 132.6543z"/><path fill="#58565d" d="M417.5,511.95605a7.49943,7.49943,0,0,1-7.5-7.5v-275a7.5,7.5,0,0,1,15,0v275A7.49943,7.49943,0,0,1,417.5,511.95605Z"/><circle cx="418" cy="214.5" r="15" fill="#c9e7f8"/><path fill="#58565d" d="M418,237a22.5,22.5,0,1,1,22.5-22.5A22.52586,22.52586,0,0,1,418,237Zm0-30a7.5,7.5,0,1,0,7.5,7.5A7.5082,7.5082,0,0,0,418,207Z"/><circle cx="334" cy="214.5" r="28" fill="#e0ccbe"/></svg>