<svg xmlns="http://www.w3.org/2000/svg" enable-background="new 0 0 512 512" viewBox="0 0 512 512"><circle cx="256" cy="256" r="252.5" fill="#FFD05B"/><path fill="#84DBFF" d="M293.4,265.7c-5.9,2.8-12.2,4.9-18.7,6.3c1.7,6.2,2.8,12.7,3.1,19.5c6.7-1.3,13.2-3.4,19.4-5.9   C296.6,278.8,295.3,272.1,293.4,265.7z"/><path fill="#324A5E" d="M297.7,295.8c0,27.6-10.3,52.8-27.2,72c-4.4,5-9.2,9.6-14.5,13.7c-18.5,14.7-41.9,23.4-67.4,23.4   c-60.1,0-109-48.9-109-109.1c0-45.6,28.1-84.7,67.9-100.9c6.2-2.6,12.7-4.6,19.4-6c7-1.4,14.4-2.2,21.8-2.2   c25.4,0,48.8,8.8,67.4,23.4c5.2,4.1,10.1,8.7,14.5,13.7c10.5,12,18.4,26.2,22.9,41.9c-5.9,2.8-12.2,4.9-18.7,6.3   c-3.6-13.1-10.1-24.9-18.7-34.8c-4.3-5-9.2-9.5-14.5-13.4c-14.8-10.9-33.1-17.4-52.9-17.4c-6.4,0-12.7,0.7-18.7,2   c-6.5,1.4-12.8,3.5-18.7,6.3c-30.6,14.2-51.9,45.2-51.9,81.1c0,49.3,40.1,89.4,89.3,89.4c19.8,0,38.1-6.5,52.9-17.4   c5.3-3.9,10.2-8.4,14.5-13.4c13.7-15.7,22-36.2,22-58.6c0-1.4,0-2.8-0.1-4.3c6.7-1.3,13.2-3.4,19.4-5.9   C297.5,288.9,297.7,292.3,297.7,295.8z"/><path fill="#FF7058" d="M218.5,265.7c-1.9,6.4-3.2,13-3.8,19.8c6.2,2.6,12.7,4.5,19.4,5.9c0.3-6.7,1.4-13.3,3.1-19.5   C230.7,270.6,224.4,268.5,218.5,265.7z"/><path fill="#FFF" d="M342.1,208.4c-7,25.5-25.1,46.4-48.7,57.3c-5.9,2.8-12.2,4.9-18.7,6.3c-6,1.3-12.3,2-18.7,2   s-12.7-0.7-18.7-2c-6.5-1.4-12.8-3.5-18.7-6.3c-23.6-10.9-41.7-31.8-48.6-57.3c-6.5,1.4-12.8,3.5-18.7,6.3   c9.2,32.2,32.9,58.4,63.6,70.9c6.2,2.6,12.7,4.5,19.4,5.9c7.1,1.5,14.4,2.2,21.9,2.2c7.5,0,14.8-0.7,21.9-2.2   c6.7-1.3,13.2-3.4,19.4-5.9c30.7-12.5,54.4-38.7,63.6-70.9C354.9,211.9,348.7,209.8,342.1,208.4z M256,75.6   c-60.1,0-109,49-109,109.1c0,3.4,0.2,6.8,0.5,10.2c6.2-2.6,12.7-4.6,19.4-6c-0.1-1.4-0.1-2.8-0.1-4.2c0-49.3,40-89.4,89.3-89.4   c49.3,0,89.4,40.1,89.4,89.4c0,1.4,0,2.9-0.1,4.3c6.7,1.4,13.2,3.4,19.4,5.9c0.3-3.4,0.5-6.7,0.5-10.2   C365.1,124.5,316.1,75.6,256,75.6z"/><path fill="#FF7058" d="M256,354.4c-4.3,5-9.2,9.5-14.5,13.4c-16.9-19.2-27.2-44.4-27.2-72c0-3.4,0.2-6.8,0.5-10.2   c6.2,2.6,12.7,4.5,19.4,5.9c-0.1,1.4-0.1,2.8-0.1,4.3C234,318.2,242.3,338.7,256,354.4z"/><path fill="#FF7058" d="M432.5,295.8c0,60.2-49,109.1-109.1,109.1c-25.4,0-48.8-8.7-67.4-23.4c5.2-4.1,10.1-8.7,14.5-13.7   c14.8,10.9,33.1,17.4,52.9,17.4c49.3,0,89.4-40.1,89.4-89.4c0-35.9-21.3-66.9-51.9-81.1c-5.9-2.8-12.2-4.9-18.7-6.3   c-6-1.3-12.3-2-18.7-2c-19.8,0-38.1,6.4-52.9,17.4c-5.3,3.9-10.2,8.4-14.5,13.4c-8.6,9.9-15.2,21.7-18.7,34.8   c-6.5-1.4-12.8-3.5-18.7-6.3c4.5-15.7,12.4-30,22.9-41.9c4.5-5,9.3-9.6,14.6-13.7c18.5-14.6,41.9-23.4,67.3-23.4   c7.5,0,14.8,0.7,21.9,2.2c6.7,1.4,13.2,3.4,19.4,5.9C404.4,211.1,432.5,250.2,432.5,295.8z"/></svg>