<svg xmlns="http://www.w3.org/2000/svg" enable-background="new 0 0 50 50" viewBox="0 0 50 50"><path fill="#D3CFD3" d="M47.9978485,24.9999504c0,8.7048988-4.7437973,15.7593994-10.6005974,15.7593994
				c-5.8472805,0-10.5911007-7.0545006-10.5911007-15.7593994S31.5499706,9.2406502,37.3972511,9.2406502
				C43.2540512,9.2406502,47.9978485,16.2950497,47.9978485,24.9999504z"/><path fill="#414141" d="M48.0001488,24.9992504c0,8.7035007-4.7432976,15.7596989-10.6026001,15.7596989
				c-2.8350983,0-5.4092979-1.655899-7.2993984-4.3560982c1.323,0.891098,2.7900982,1.3861008,4.3291988,1.3861008
				c5.850399,0,10.5937004-7.0564022,10.5937004-15.759901c0-4.4912014-1.2600784-8.5414009-3.2853012-11.4126005
				C45.425972,13.0736504,48.0001488,18.5908508,48.0001488,24.9992504z" opacity=".05"/><path fill="#414141" d="M37.3969688,41.7595482c-6.3916187,0-11.5908184-7.5185966-11.5908184-16.759798
				S31.0053501,8.2404499,37.3969688,8.2404499c6.3964806,0,11.6005821,7.5180998,11.6005821,16.7593002
				S43.7934494,41.7595482,37.3969688,41.7595482z M37.3969688,10.2404499c-5.2881203,0-9.5908184,6.6210995-9.5908184,14.7593002
				c0,8.1387005,4.3026981,14.759798,9.5908184,14.759798c5.2938805,0,9.6005821-6.6210976,9.6005821-14.759798
				C46.997551,16.8615494,42.6908493,10.2404499,37.3969688,10.2404499z"/><path fill="#FFF" d="M42.7311478,25.2108498c0,4.6525002-2.9988976,8.4292984-6.7028999,8.4292984
				c-3.6944962,0-6.7027988-3.7767982-6.7027988-8.4292984c0-4.664299,3.0083027-8.4407997,6.7027988-8.4407997
				C39.7322502,16.77005,42.7311478,20.5465508,42.7311478,25.2108498z"/><path fill="#414141" d="M36.0278511,34.1398506c-3.9717026,0-7.2022018-4.0058002-7.2022018-8.9292011
				c0-4.9295998,3.2304993-8.9403992,7.2022018-8.9403992c3.9715996,0,7.2031212,4.0107994,7.2031212,8.9403992
				C43.2309723,30.1340504,39.9994507,34.1398506,36.0278511,34.1398506z M36.0278511,17.2702503
				c-3.420002,0-6.2022018,3.5620003-6.2022018,7.9403992c0,4.3721008,2.7821999,7.9292011,6.2022018,7.9292011
				c3.4208984,0,6.2031212-3.5571003,6.2031212-7.9292011C42.2309723,20.8322506,39.4487495,17.2702503,36.0278511,17.2702503z"/><path fill="#414141" d="M39.5753479,24.7014503c0,2.5128002-2.0426979,4.5553989-4.555378,4.5553989
				c-2.5222206,0-4.5553207-2.0425987-4.5553207-4.5553989c0-2.5125008,2.0331001-4.5552998,4.5553207-4.5552998
				C37.53265,20.1461506,39.5753479,22.1889496,39.5753479,24.7014503z"/><circle cx="33.601" cy="23.33" r="1.27" fill="#FFF"/><path fill="#D3CFD3" d="M2.0024505,24.9999504c0,8.7048988,4.7438998,15.7593994,10.6005993,15.7593994
				c5.8472996,0,10.5911007-7.0545006,10.5911007-15.7593994S18.4503498,9.2406502,12.6030502,9.2406502
				C6.7463503,9.2406502,2.0024505,16.2950497,2.0024505,24.9999504z"/><path fill="#414141" d="M2.0001507,24.9992504c0,8.7035007,4.7433,15.7596989,10.6026993,15.7596989
				c2.8351202,0,5.4092999-1.655899,7.2994003-4.3560982c-1.323101,0.891098-2.7901993,1.3861008-4.3292799,1.3861008
				c-5.8503199,0-10.5936203-7.0564022-10.5936203-15.759901c0-4.4912014,1.2600999-8.5414009,3.2851996-11.4126005
				C4.5743504,13.0736504,2.0001507,18.5908508,2.0001507,24.9992504z" opacity=".05"/><path fill="#414141" d="M12.6030502,41.7595482c-6.3964996,0-11.6005993-7.5185966-11.6005993-16.759798
				S6.2065506,8.2404499,12.6030502,8.2404499c6.3915997,0,11.5907993,7.5180998,11.5907993,16.7593002
				S18.9946499,41.7595482,12.6030502,41.7595482z M12.6030502,10.2404499c-5.2939997,0-9.6005993,6.6210995-9.6005993,14.7593002
				c0,8.1387005,4.3066001,14.759798,9.6005993,14.759798c5.2880001,0,9.5907993-6.6210976,9.5907993-14.759798
				C22.1938496,16.8615494,17.8910503,10.2404499,12.6030502,10.2404499z"/><path fill="#FFF" d="M7.2692504,25.2108498c0,4.6525002,2.9988999,8.4292984,6.7028003,8.4292984
				c3.6946001,0,6.70292-3.7767982,6.70292-8.4292984c0-4.664299-3.0083199-8.4407997-6.70292-8.4407997
				C10.2681503,16.77005,7.2692504,20.5465508,7.2692504,25.2108498z"/><path fill="#414141" d="M13.9721498,34.1398506c-3.9716997,0-7.2030993-4.0058002-7.2030993-8.9292011
				c0-4.9295998,3.2313995-8.9403992,7.2030993-8.9403992s7.2031012,4.0107994,7.2031012,8.9403992
				C21.175251,30.1340504,17.9438496,34.1398506,13.9721498,34.1398506z M13.9721498,17.2702503
				c-3.4198999,0-6.2030993,3.5620003-6.2030993,7.9403992c0,4.3721008,2.7831993,7.9292011,6.2030993,7.9292011
				c3.4208994,0,6.2031012-3.5571003,6.2031012-7.9292011C20.175251,20.8322506,17.3930492,17.2702503,13.9721498,17.2702503z"/><path fill="#414141" d="M10.4250507,24.7014503c0,2.5128002,2.0425997,4.5553989,4.5552998,4.5553989
				c2.5221996,0,4.5553989-2.0425987,4.5553989-4.5553989c0-2.5125008-2.0331993-4.5552998-4.5553989-4.5552998
				C12.4676504,20.1461506,10.4250507,22.1889496,10.4250507,24.7014503z"/><circle cx="16.399" cy="23.33" r="1.27" fill="#FFF"/></svg>