<?xml version="1.0" encoding="utf-8"?>
<!-- Generator: Adobe Illustrator 23.0.3, SVG Export Plug-In . SVG Version: 6.00 Build 0)  -->
<svg version="1.1" id="Layer_1" xmlns="http://www.w3.org/2000/svg" xmlns:xlink="http://www.w3.org/1999/xlink" x="0px" y="0px"
	 viewBox="0 0 80 80" style="enable-background:new 0 0 80 80;" xml:space="preserve">
<style type="text/css">
	.st0{fill:#C2E8FF;}
	.st1{fill:#7496C4;}
	.st2{fill:#E8D47B;}
	.st3{fill:#BA9B48;}
	.st4{fill:#FFEEA3;}
	.st5{fill:#FFC49C;}
	.st6{fill:#A16A4A;}
	.st7{opacity:0.58;}
</style>
<g>
	<g>
		<path class="st0" d="M4.5,73c0.3-11.6,10-21,22-21h15c12,0,21.7,9.4,22,21H4.5z"/>
		<g>
			<path class="st1" d="M41.5,52.5c11.5,0,20.9,8.9,21.5,20H5c0.5-11.1,10-20,21.5-20H41.5 M41.5,51.5h-15C14.1,51.5,4,61.3,4,73.5
				l0,0h60l0,0C64,61.3,53.9,51.5,41.5,51.5L41.5,51.5z"/>
		</g>
	</g>
	<g>
		<path class="st2" d="M34,59c-6.7,0-9.2-5.9-9.5-6.6V40.8h19v11.5C43.2,53.1,40.7,59,34,59z"/>
		<path class="st3" d="M43,41.3v10.9c-0.4,1-2.8,6.2-9,6.2c-6.2,0-8.6-5.3-9-6.2V41.3H43 M44,40.3H24v12.1c0,0,2.5,7.1,10,7.1
			s10-7.1,10-7.1V40.3L44,40.3z"/>
	</g>
	<g>
		<g>
			<path class="st2" d="M46.9,37.3c-2.6,0-4.6-2.1-4.6-4.6s2.1-4.6,4.6-4.6c3.3,0,4.6,0.8,4.6,2.9C51.5,33.4,49.4,37.3,46.9,37.3z
				 M21.1,37.3c-2.6,0-4.6-3.8-4.6-6.4c0-2.1,1.3-2.9,4.6-2.9c2.6,0,4.6,2.1,4.6,4.6S23.7,37.3,21.1,37.3z"/>
		</g>
		<g>
			<path class="st3" d="M46.9,28.5c3.5,0,4.1,0.9,4.1,2.4c0,2.5-2,5.9-4.1,5.9c-2.3,0-4.1-1.9-4.1-4.1
				C42.7,30.4,44.6,28.5,46.9,28.5 M21.1,28.5c2.3,0,4.1,1.9,4.1,4.1c0,2.3-1.9,4.1-4.1,4.1c-2.1,0-4.1-3.4-4.1-5.9
				C17,29.4,17.7,28.5,21.1,28.5 M46.9,27.5c-2.8,0-5.1,2.3-5.1,5.1s2.3,5.1,5.1,5.1s5.1-4,5.1-6.9C52,28.1,49.7,27.5,46.9,27.5
				L46.9,27.5z M21.1,27.5c-2.8,0-5.1,0.6-5.1,3.4c0,2.8,2.3,6.9,5.1,6.9s5.1-2.3,5.1-5.1S24,27.5,21.1,27.5L21.1,27.5z"/>
		</g>
	</g>
	<g>
		<g>
			<path class="st4" d="M34,51c-1.3,0-2.5-0.5-3.5-1.4l-0.1-0.1l-0.1,0c-5.8-1.6-9.8-7-9.8-13V20.2c0-3.4,2.8-6.2,6.2-6.2h14.7
				c3.4,0,6.2,2.8,6.2,6.2v16.3c0,6-4,11.3-9.8,13l-0.1,0l-0.1,0.1C36.5,50.5,35.3,51,34,51z"/>
		</g>
		<g>
			<path class="st3" d="M41.3,14.6c3.1,0,5.7,2.5,5.7,5.7v16.3c0,5.8-3.9,10.9-9.4,12.5l-0.2,0.1l-0.2,0.2c-0.8,0.8-2,1.3-3.1,1.3
				s-2.3-0.4-3.1-1.3l-0.2-0.2L30.4,49c-5.6-1.6-9.4-6.7-9.4-12.5V20.2c0-3.1,2.5-5.7,5.7-5.7L41.3,14.6 M41.3,13.6H26.7
				c-3.7,0-6.7,3-6.7,6.7v16.3c0,6.4,4.3,11.8,10.2,13.5c1,1,2.3,1.5,3.8,1.5s2.8-0.6,3.8-1.5C43.7,48.3,48,42.9,48,36.5V20.2
				C48,16.5,45,13.6,41.3,13.6L41.3,13.6z"/>
		</g>
	</g>
	<g>
		<path class="st5" d="M47.5,33v-8.5c0-6.7-5.3-8.5-5.3-8.5l-0.3-0.1l-0.2,0.3c0,0.1-4.8,5.8-11.6,5.8c-0.5,0-1.1,0-1.6,0
			c-0.6,0-1.1,0-1.7,0c-2,0-6.2,0-6.2,4.6V33h-0.2c-0.7-1.2-3.8-6.8-3.8-12.3C16.5,10.8,23.7,4,34,4c6.5,0,9.5,5.7,9.6,5.7l0.1,0.2
			l0.3,0c5.2,0.7,7.6,4.4,7.6,11.5c0,5.1-3.1,10.4-3.8,11.5H47.5z"/>
		<g>
			<path class="st6" d="M34,4.5c6.2,0,9,5.2,9.1,5.5l0.2,0.5l0.5,0.1c3.1,0.4,7.1,2.1,7.1,11c0,3.9-1.9,7.9-3,10v-7
				c0-3.6-1.5-5.9-2.8-7.1c-1.4-1.3-2.8-1.8-2.9-1.8l-0.7-0.2l-0.4,0.5c0,0.1-4.7,5.6-11.2,5.6c-0.5,0-1.1,0-1.6,0
				c-0.6,0-1.2,0-1.7,0c-2,0-6.7,0-6.7,5.1v4.9c-1.1-2.2-3-6.5-3-10.8C17,11.1,24,4.5,34,4.5 M34,3.5c-10.7,0-18,7.3-18,17.2
				c0,6.5,4,12.8,4,12.8h1c0,0,0-5.2,0-7c0-3.6,2.7-4.1,5.7-4.1c1.1,0,2.3,0.1,3.3,0.1c7.1,0,12-6,12-6s5,1.6,5,8c0,2,0,9,0,9h1
				c0,0,4-6.1,4-12c0-8.3-3.4-11.3-8-12C44,9.5,40.9,3.5,34,3.5L34,3.5z"/>
		</g>
	</g>
</g>
<g class="st7">
	<g>
		<path class="st0" d="M16.8,72.6c0.3-11.6,10-21,22-21h15c12,0,21.7,9.4,22,21H16.8z"/>
		<g>
			<path class="st1" d="M53.8,52.1c11.5,0,20.9,8.9,21.5,20h-58c0.5-11.1,10-20,21.5-20H53.8 M53.8,51.1h-15
				c-12.4,0-22.5,9.8-22.5,22l0,0h60l0,0C76.3,60.9,66.2,51.1,53.8,51.1L53.8,51.1z"/>
		</g>
	</g>
	<g>
		<path class="st2" d="M46.3,58.6c-6.7,0-9.2-5.9-9.5-6.6V40.4h19v11.5C55.5,52.7,53,58.6,46.3,58.6z"/>
		<path class="st3" d="M55.3,40.9v10.9c-0.4,1-2.8,6.2-9,6.2c-6.2,0-8.6-5.3-9-6.2V40.9H55.3 M56.3,39.9h-20V52c0,0,2.5,7.1,10,7.1
			s10-7.1,10-7.1V39.9L56.3,39.9z"/>
	</g>
	<g>
		<g>
			<path class="st2" d="M59.2,36.9c-2.6,0-4.6-2.1-4.6-4.6s2.1-4.6,4.6-4.6c3.3,0,4.6,0.8,4.6,2.9C63.8,33,61.7,36.9,59.2,36.9z
				 M33.5,36.9c-2.6,0-4.6-3.8-4.6-6.4c0-2.1,1.3-2.9,4.6-2.9c2.6,0,4.6,2.1,4.6,4.6S36,36.9,33.5,36.9z"/>
		</g>
		<g>
			<path class="st3" d="M59.2,28.1c3.5,0,4.1,0.9,4.1,2.4c0,2.5-2,5.9-4.1,5.9c-2.3,0-4.1-1.9-4.1-4.1C55,29.9,56.9,28.1,59.2,28.1
				 M33.5,28.1c2.3,0,4.1,1.9,4.1,4.1c0,2.3-1.9,4.1-4.1,4.1c-2.1,0-4.1-3.4-4.1-5.9C29.3,29,30,28.1,33.5,28.1 M59.2,27.1
				c-2.8,0-5.1,2.3-5.1,5.1s2.3,5.1,5.1,5.1s5.1-4,5.1-6.9C64.3,27.7,62,27.1,59.2,27.1L59.2,27.1z M33.5,27.1
				c-2.8,0-5.1,0.6-5.1,3.4c0,2.8,2.3,6.9,5.1,6.9s5.1-2.3,5.1-5.1S36.3,27.1,33.5,27.1L33.5,27.1z"/>
		</g>
	</g>
	<g>
		<g>
			<path class="st4" d="M46.3,50.6c-1.3,0-2.5-0.5-3.5-1.4l-0.1-0.1l-0.1,0c-5.8-1.6-9.8-7-9.8-13V19.8c0-3.4,2.8-6.2,6.2-6.2h14.7
				c3.4,0,6.2,2.8,6.2,6.2v16.3c0,6-4,11.3-9.8,13l-0.1,0l-0.1,0.1C48.8,50.1,47.6,50.6,46.3,50.6z"/>
		</g>
		<g>
			<path class="st3" d="M53.6,14.1c3.1,0,5.7,2.5,5.7,5.7v16.3c0,5.8-3.9,10.9-9.4,12.5l-0.2,0.1l-0.2,0.2c-0.8,0.8-2,1.3-3.1,1.3
				s-2.3-0.4-3.1-1.3L43,48.7l-0.2-0.1c-5.6-1.6-9.4-6.7-9.4-12.5V19.8c0-3.1,2.5-5.7,5.7-5.7L53.6,14.1 M53.6,13.1H39
				c-3.7,0-6.7,3-6.7,6.7v16.3c0,6.4,4.3,11.8,10.2,13.5c1,1,2.3,1.5,3.8,1.5s2.8-0.6,3.8-1.5c5.9-1.7,10.2-7.1,10.2-13.5V19.8
				C60.3,16.1,57.3,13.1,53.6,13.1L53.6,13.1z"/>
		</g>
	</g>
	<g>
		<path class="st5" d="M59.8,32.6v-8.5c0-6.7-5.3-8.5-5.3-8.5l-0.3-0.1l-0.2,0.3c0,0.1-4.8,5.8-11.6,5.8c-0.5,0-1.1,0-1.6,0
			c-0.6,0-1.1,0-1.7,0c-2,0-6.2,0-6.2,4.6v6.5h-0.2c-0.7-1.2-3.8-6.8-3.8-12.3c0-9.8,7.2-16.7,17.5-16.7c6.5,0,9.5,5.7,9.6,5.7
			L56,9.5l0.3,0c5.2,0.7,7.6,4.4,7.6,11.5c0,5.1-3.1,10.4-3.8,11.5H59.8z"/>
		<g>
			<path class="st6" d="M46.3,4.1c6.2,0,9,5.2,9.1,5.5l0.2,0.5l0.5,0.1c3.1,0.4,7.1,2.1,7.1,11c0,3.9-1.9,7.9-3,10v-7
				c0-3.6-1.5-5.9-2.8-7.1c-1.4-1.3-2.8-1.8-2.9-1.8L54,14.9l-0.4,0.5c0,0.1-4.7,5.6-11.2,5.6c-0.5,0-1.1,0-1.6,0
				c-0.6,0-1.2,0-1.7,0c-2,0-6.7,0-6.7,5.1V31c-1.1-2.2-3-6.5-3-10.8C29.3,10.7,36.3,4.1,46.3,4.1 M46.3,3.1c-10.7,0-18,7.3-18,17.2
				c0,6.5,4,12.8,4,12.8h1c0,0,0-5.2,0-7c0-3.6,2.7-4.1,5.7-4.1c1.1,0,2.3,0.1,3.3,0.1c7.1,0,12-6,12-6s5,1.6,5,8c0,2,0,9,0,9h1
				c0,0,4-6.1,4-12c0-8.3-3.4-11.3-8-12C56.3,9.1,53.2,3.1,46.3,3.1L46.3,3.1z"/>
		</g>
	</g>
</g>
</svg>
