<?xml version="1.0" encoding="utf-8"?>
<!-- Generator: Adobe Illustrator 23.0.3, SVG Export Plug-In . SVG Version: 6.00 Build 0)  -->
<svg version="1.1" id="Layer_1" xmlns="http://www.w3.org/2000/svg" xmlns:xlink="http://www.w3.org/1999/xlink" x="0px" y="0px"
	 viewBox="0 0 512 512" style="enable-background:new 0 0 512 512;" xml:space="preserve">
<style type="text/css">
	.st0{fill:#FE770E;}
	.st1{fill:#FD6001;}
	.st2{fill:#814334;}
	.st3{fill:#693428;}
	.st4{fill:#FDCF95;}
	.st5{fill:#FEED94;}
	.st6{fill:#06A653;}
	.st7{fill:#FEB18B;}
	.st8{fill:#FE6000;}
	.st9{fill:#FEB800;}
	.st10{fill:#FC6002;}
	.st11{fill:#07355E;}
	.st12{fill:#08355D;}
	.st13{fill:#08355E;}
	.st14{fill:#F65F03;}
	.st15{fill:#F75F03;}
	.st16{fill:#FEB900;}
	.st17{fill:#163541;}
	.st18{fill:#153541;}
	.st19{fill:#143441;}
	.st20{fill:none;stroke:#153541;stroke-width:6;stroke-linecap:round;stroke-linejoin:round;stroke-miterlimit:10;}
</style>
<g>
	<path class="st0" d="M411.9,265c9-1.3,18-2.6,27.4-4c0,1.4,0,2.5,0,3.6c0,39.4,0,78.8,0,118.2c0,1.1,0.1,2.2,0.1,3.4
		c0,5.5-0.1,11-0.1,16.5c0,21,0,42,0,63c0,1,0,2,0,3.3c-6.4,1-12.6,2-18.8,2.9c-34.4,5.2-68.8,10.4-103.2,15.6
		c-13.1,2-26.2,3.9-39.3,5.8c0-8,0-16-0.1-24c0-1-0.5-2.1-0.7-3.1c0.3-3.4,0.5-6.7,0.8-10.1c0-2.4,0-4.8-0.1-7.3c0-3.1,0-6.3,0-9.4
		c0-37.2,0-74.5,0-111.7c0.2-3.1,0.3-6.2,0.5-9.2c-0.2-2.4-0.3-4.7-0.5-7.1c0-3.3,0.1-6.5,0.1-9.8c0-3,0-6.1-0.1-9.1
		c-0.1-2.1-0.3-4.1-0.5-6.2c1.5-0.6,2.9-1.4,4.4-1.6c8.3-1.3,16.6-2.5,24.9-3.8c22.9-3.4,45.7-6.9,68.6-10.3
		C387.4,268.8,399.7,266.9,411.9,265z M309.8,358.9c0.5,0.2,0.7,0.3,0.9,0.3c13.7-2,27.4-4.1,41.1-6.1c14.5-2.2,29-4.4,43.5-6.6
		c4.7-0.7,4.7-0.6,4.7-5.6c0-1-0.1-2.1,0-3.1c0.1-1.7-0.6-2.1-2.2-1.9c-9.9,1.5-19.8,3-29.8,4.5c-13.1,2-26.3,4-39.4,6
		c-5.3,0.8-10.7,1.5-16,2.4c-1,0.2-2.7,1-2.8,1.6C309.7,353.3,309.8,356.1,309.8,358.9z M309.3,343.5c9.4-1.4,18.3-2.8,27.3-4.2
		c9-1.4,18-2.7,27-4.1c11.4-1.7,22.8-3.4,34.2-5.2c0.7-0.1,1.5-1.2,1.7-2c0.3-0.8,0.1-1.8,0.1-2.8c0-5.2,0-5.4-5-4.7
		c-11.8,1.7-23.5,3.5-35.3,5.3c-9.4,1.4-18.8,2.8-28.1,4.2c-6.5,1-13.1,1.9-19.6,3c-0.8,0.1-2.1,1.2-2.1,1.9
		C309.1,337.7,309.3,340.4,309.3,343.5z M399.5,305c-4.1,0.6-7.9,1.1-11.6,1.7c-13.4,2-26.8,4.1-40.2,6.1c-10.6,1.6-21.2,3-31.7,4.8
		c-7.2,1.2-7.1,1.4-6.7,8.9c0.1,1.6,0.6,2.2,2.2,1.9c9.9-1.5,19.8-3,29.8-4.5c13.1-2,26.3-4,39.4-6c5.3-0.8,10.7-1.5,16-2.4
		c1.1-0.2,2.7-1.1,2.8-1.9C399.7,310.8,399.5,308,399.5,305z"/>
	<path class="st0" d="M62.3,376.2c0-1.1,0.1-2.2,0.1-3.4c0-36.1,0-72.1,0-108.2c0-1.1,0-2.2,0-3.6c4.3,0.6,8.4,1.1,12.4,1.7
		c1.1,0.2,2.2,0.5,3.3,0.6c13.1,2,26.2,3.9,39.3,5.9c21.7,3.3,43.4,6.6,65.1,9.8c12.8,1.9,25.7,3.8,38.5,5.8c1.1,0.2,2,1,3,1.5
		c-0.2,0.7-0.5,1.4-0.5,2.1c0,4.8,0,9.5,0,14.3c0,2.7,0,5.3,0,8c0,2.9-0.1,5.8-0.1,8.7c0,2.8,0.1,5.5,0.1,8.3c0,1.4-0.1,2.8-0.1,4.2
		c0,36.2,0,72.4,0,108.7c0,2.8,0,5.6,0.1,8.4c-0.2,2.8-0.3,5.5-0.5,8.3c0.2,2.9,0.3,5.7,0.5,8.6c0,9.2-0.1,18.5-0.1,27.7
		c-53.6-8.1-107.1-16.2-161-24.3c0-1.1,0-2.2,0-3.3c0-28.8,0-57.6,0-86.3C62.4,378.4,62.3,377.3,62.3,376.2z M188.7,418.3
		c0-1.5,0-2.5,0-3.6c0-30.9,0-61.9,0-92.8c0-0.7,0.2-1.4-0.1-1.9c-0.3-0.6-0.9-1.4-1.5-1.5c-8.4-1.4-16.9-2.7-25.4-4
		c-10.7-1.6-21.3-3.2-32-4.8c-9.5-1.4-19-2.7-28.4-4.3c-2.6-0.4-3,0.3-3,2.6c0,31.3,0.1,62.6,0,93.9c0,2.6,1.2,3.1,3.3,3.4
		c3.4,0.4,6.8,0.9,10.2,1.4c10.2,1.6,20.4,3.2,30.6,4.7c10.8,1.7,21.7,3.3,32.5,4.9C179.4,417,183.8,417.6,188.7,418.3z
		 M188.1,434.2c0-0.5-0.1-0.9,0-1.4c0.4-2.7-0.6-3.7-3.4-4c-8.8-1.1-17.7-2.5-26.5-3.9c-19.1-2.9-38.2-5.9-57.3-8.8
		c-1.1-0.2-2.7-0.9-3.1,1.2c-0.8,4.2,0,8.4,1.8,8.7c0.1,0,0.2,0,0.3,0c11.8,1.7,23.5,3.4,35.3,5.2c16,2.4,32,4.8,47.9,7.2
		C188.1,439.2,188.1,439.1,188.1,434.2z"/>
	<path class="st1" d="M223.4,493.5c0-9.2,0.1-18.5,0.1-27.7c2.8,1.5,5.5,3.6,8.5,4.4c9.6,2.8,19.5,2.9,29.4,1.5
		c5.6-0.8,11.1-1.8,15.7-5.4c0.2,1,0.7,2.1,0.7,3.1c0.1,8,0.1,16,0.1,24c-0.5,6.8-1.4,8.1-8.2,9.9c-12.7,3.4-25.5,3.3-38.2,0
		c-0.3-0.1-0.5-0.2-0.8-0.3C224.5,501.1,223.6,500,223.4,493.5z"/>
	<path class="st2" d="M250.9,92.9c16.7,0.5,32.1,5.4,46.4,13.9c42.4,25.3,59.9,78,41.3,123.7c-1.1,2.7-2.3,3.9-5.3,3.3
		c-1.6-0.3-3.3-0.3-5-0.5c-0.7-0.2-1.4-0.4-2.2-0.5c-33.5-6.1-58.1-24.3-73.7-54.5c-0.4-0.8-1-1.5-1.6-2.2c-0.2-0.8-0.2-1.7-0.6-2.4
		c-3.8-9.2-6.9-18.6-7.3-28.5c-0.4-8.6-0.3-17.3,0.5-25.9C244.3,110,247.6,101.4,250.9,92.9z"/>
	<path class="st3" d="M250.9,92.9c-3.4,8.5-6.6,17.1-7.4,26.3c-0.8,8.6-0.8,17.3-0.5,25.9c0.4,9.9,3.5,19.4,7.3,28.5
		c0.3,0.8,0.4,1.6,0.6,2.4c-10.4,22.4-26.9,38.6-49.2,49.1c-8.7,4.1-17.9,6.4-27.2,8.2c-2.2,0.2-4.5,0.3-6.7,0.6
		c-1.8,0.3-2.6-0.3-3.3-2c-10.6-25.9-11.3-52-0.2-77.7c14.6-34,40.7-54,77.1-60.5C244.6,93.2,247.8,93.1,250.9,92.9z"/>
	<path class="st4" d="M174.6,233.2c9.4-1.8,18.6-4.1,27.2-8.2c22.3-10.4,38.8-26.7,49.2-49.1c0.5,0.7,1.2,1.4,1.6,2.2
		c15.6,30.2,40.2,48.5,73.7,54.5c0.7,0.1,1.4,0.4,2.2,0.5c0,1.2,0,2.5,0,3.7c0,8.2,0,16.5,0,24.7c-0.9,0.2-1.8,0.4-2.7,0.6
		c-17,2.5-33.6,6.6-49.7,12.4c-3.4,1.2-6.9,2.3-10.3,3.4c-3.5-6-6.9-11.9-10.4-17.9c-2.2-3.8-5.4-3.8-7.7,0
		c-3.6,6.1-7.1,12.2-10.6,18.4c-0.5-0.1-1.1-0.2-1.6-0.3c-11.7-3.7-23.3-7.8-35.2-11c-8.3-2.3-16.9-3.4-25.4-5c0-8.5,0-16.9,0-25.4
		C174.6,235.7,174.6,234.5,174.6,233.2z M223.4,260.4c0-3.8-3.2-6.9-7-6.9c-3.8,0-6.9,3.2-6.9,7c0,3.8,3.2,6.9,7,6.9
		C220.4,267.3,223.5,264.2,223.4,260.4z M294.2,261.4c0.1-3.9-2.9-7-6.8-7c-3.9-0.1-7,2.9-7,6.8c-0.1,3.8,3,7,6.8,7.1
		C290.9,268.4,294.2,265.2,294.2,261.4z"/>
	<path class="st5" d="M265.6,278c3.4-1.1,6.9-2.2,10.3-3.4c16.2-5.8,32.7-9.9,49.7-12.4c0.9-0.1,1.8-0.4,2.7-0.6
		c5.6-0.6,11.3-1.1,16.9-1.7c5.6-0.2,11.2-0.4,16.8-0.6c0.2,2.6,0.5,5.2,0.7,8c6-0.8,11.8-1.5,17.8-2.2c0-1.8,0-3.5,0-5.1
		c10.5,1.6,20.9,3.3,31.4,4.9c-12.2,1.9-24.5,3.8-36.7,5.7c-22.9,3.5-45.7,6.9-68.6,10.3c-8.3,1.2-16.6,2.5-24.9,3.8
		c-1.5,0.2-3,1.1-4.4,1.6c-3.1,1.7-6,4-9.3,4.9c-11.6,3.2-23.3,3.2-34.8,0c-3.3-0.9-6.2-3.2-9.3-4.9c-1-0.5-2-1.3-3-1.5
		c-12.8-2-25.6-3.9-38.5-5.8c-21.7-3.3-43.4-6.6-65.1-9.8c-13.1-2-26.2-3.9-39.3-5.9c-1.1-0.2-2.2-0.4-3.3-0.6c5-0.7,9.9-1.7,14.9-2
		c13.3-0.8,26.6-1.5,39.9-1.7c8.8-0.1,17.7,0.6,26.5,1c6.2,0.7,12.4,1.5,18.5,2.2c8.5,1.6,17.1,2.7,25.4,5
		c11.8,3.2,23.5,7.3,35.2,11c0.5,0.2,1.1,0.2,1.6,0.3c4.2,2,8.4,4,12.6,5.9c0.6,0.3,1.6,0.3,2.2,0
		C256.3,282.4,260.9,280.2,265.6,278z"/>
	<path class="st6" d="M380.6,260.1c0,1.7,0,3.3,0,5.1c-6,0.8-11.8,1.5-17.8,2.2c-0.2-2.8-0.5-5.4-0.7-8c0-8.3,0-16.6,0-24.9
		c2.7,2.9,5.6,6.1,8.9,9.6c2.7-3.8,5.2-7.5,8.2-11.8C379.6,242.1,380.1,251.1,380.6,260.1z"/>
	<path class="st7" d="M174.6,262.3c-6.2-0.7-12.4-1.5-18.5-2.2c-2.4-11.7,5.9-22.1,18.5-23.2C174.6,245.3,174.6,253.8,174.6,262.3z"
		/>
	<path class="st7" d="M345.2,260c-5.6,0.6-11.3,1.1-16.9,1.7c0-8.2,0-16.5,0-24.7c1.3,0.3,2.7,0.6,4,1c7.5,2.3,12.9,9.7,12.8,17.6
		C345.2,257,345.2,258.5,345.2,260z"/>
	<path class="st8" d="M223.4,440.6c0-36.2,0-72.4,0-108.7c0-1.4,0.1-2.8,0.1-4.2c2.8,1.6,5.4,3.8,8.4,4.6c11.4,3.2,23,3.1,34.6,0.8
		c4.1-0.8,8.2-2,11.2-5.2c0,37.2,0,74.5,0,111.7c-1.9,4.1-5.9,5-9.6,5.9c-11.8,2.8-23.6,2.8-35.4,0.1
		C229.3,444.7,225.9,443.5,223.4,440.6z"/>
	<path class="st9" d="M309.8,358.9c0-2.7-0.2-5.6,0.1-8.5c0.1-0.6,1.7-1.4,2.8-1.6c5.3-0.9,10.7-1.6,16-2.4c13.1-2,26.3-4,39.4-6
		c9.9-1.5,19.8-3,29.8-4.5c1.6-0.2,2.3,0.2,2.2,1.9c-0.1,1,0,2.1,0,3.1c0,4.9,0,4.9-4.7,5.6c-14.5,2.2-29,4.4-43.5,6.6
		c-13.7,2.1-27.4,4.1-41.1,6.1C310.6,359.2,310.4,359.1,309.8,358.9z"/>
	<path class="st9" d="M309.3,343.5c0-3-0.2-5.7,0.1-8.4c0.1-0.7,1.3-1.8,2.1-1.9c6.5-1.1,13-2,19.6-3c9.4-1.4,18.8-2.8,28.1-4.2
		c11.8-1.8,23.5-3.6,35.3-5.3c5-0.7,5-0.5,5,4.7c0,0.9,0.2,2-0.1,2.8c-0.3,0.8-1.1,1.8-1.7,2c-11.4,1.8-22.8,3.5-34.2,5.2
		c-9,1.3-18,2.7-27,4.1C327.6,340.7,318.7,342,309.3,343.5z"/>
	<path class="st9" d="M399.5,305c0,3,0.2,5.8-0.1,8.5c-0.1,0.7-1.8,1.7-2.8,1.9c-5.3,0.9-10.7,1.6-16,2.4c-13.1,2-26.3,4-39.4,6
		c-9.9,1.5-19.8,3-29.8,4.5c-1.6,0.2-2.1-0.3-2.2-1.9c-0.4-7.4-0.5-7.6,6.7-8.9c10.5-1.8,21.1-3.2,31.7-4.8
		c13.4-2,26.8-4.1,40.2-6.1C391.6,306.1,395.4,305.6,399.5,305z"/>
	<path class="st10" d="M223.9,286.4c3.1,1.7,6,4,9.3,4.9c11.6,3.2,23.3,3.2,34.8,0c3.3-0.9,6.2-3.2,9.3-4.9c0.2,2.1,0.5,4.1,0.5,6.2
		c0.1,3,0.1,6.1,0.1,9.1c-1.5,4-5.2,4.8-8.7,5.8c-10.9,2.9-21.9,3-33,1c-4.7-0.8-9.3-2.1-12.8-5.7c0-4.8-0.1-9.5,0-14.3
		C223.5,287.8,223.8,287.1,223.9,286.4z"/>
	<path class="st11" d="M223.4,440.6c2.5,2.9,5.9,4.2,9.4,5c11.8,2.7,23.6,2.8,35.4-0.1c3.7-0.9,7.7-1.9,9.6-5.9c0,3.1,0,6.3,0,9.4
		c-2.8,1.5-5.5,3.7-8.5,4.5c-12,3.3-24.2,3.3-36.3,0.3c-3.4-0.8-6.4-3.2-9.5-4.9C223.5,446.1,223.5,443.4,223.4,440.6z"/>
	<path class="st12" d="M223.5,302.8c3.5,3.6,8.1,4.8,12.8,5.7c11.1,2,22.1,1.9,33-1c3.4-0.9,7.2-1.8,8.7-5.8c0,3.3-0.1,6.5-0.1,9.8
		c-2.2,1.3-4.3,3.1-6.8,3.8c-13.3,3.9-26.7,4-40,0.1c-2.7-0.8-5-3-7.4-4.6C223.5,308.1,223.5,305.5,223.5,302.8z"/>
	<path class="st13" d="M277.8,327.9c-3,3.2-7.1,4.3-11.2,5.2c-11.6,2.4-23.2,2.5-34.6-0.8c-3-0.8-5.6-3-8.4-4.6
		c0-2.8-0.1-5.5-0.1-8.3c2.8,1.5,5.5,3.6,8.5,4.5c9.1,2.8,18.5,2.9,28,1.8c6.7-0.8,13.6-1.5,18.4-7.2
		C278.1,321.7,278,324.8,277.8,327.9z"/>
	<path class="st11" d="M277.1,466.4c-4.6,3.6-10.1,4.6-15.7,5.4c-9.9,1.3-19.8,1.2-29.4-1.5c-3-0.9-5.7-2.9-8.5-4.4
		c-0.2-2.9-0.3-5.7-0.5-8.5c3.2,3.1,7.2,4.6,11.5,5.4c2.9,0.5,5.9,1.1,8.9,1.3c8.7,0.7,17.4,0.3,25.8-2c3.4-1,6.7-2.2,8.7-5.6
		C277.6,459.6,277.4,463,277.1,466.4z"/>
	<path class="st14" d="M277.9,456.2c-1.9,3.4-5.2,4.6-8.7,5.6c-8.5,2.4-17.1,2.8-25.8,2c-3-0.2-5.9-0.8-8.9-1.3
		c-4.3-0.8-8.3-2.3-11.5-5.4c0.2-2.8,0.3-5.5,0.5-8.3c3.2,1.7,6.2,4,9.5,4.9c12.1,3,24.3,3,36.3-0.3c3-0.8,5.7-3,8.5-4.5
		C277.8,451.4,277.9,453.8,277.9,456.2z"/>
	<path class="st15" d="M278.3,318.6c-4.9,5.7-11.7,6.4-18.4,7.2c-9.4,1.1-18.8,1-28-1.8c-3-0.9-5.7-3-8.5-4.5c0-2.9,0.1-5.8,0.1-8.7
		c2.5,1.6,4.7,3.8,7.4,4.6c13.3,3.9,26.7,3.8,40-0.1c2.4-0.7,4.5-2.5,6.8-3.8C278,313.9,278.1,316.3,278.3,318.6z"/>
	<path class="st16" d="M188.7,418.3c-4.9-0.7-9.3-1.3-13.7-1.9c-10.9-1.6-21.7-3.2-32.5-4.9c-10.2-1.6-20.4-3.2-30.6-4.7
		c-3.4-0.5-6.8-1-10.2-1.4c-2.1-0.2-3.3-0.8-3.3-3.4c0.1-31.3,0.1-62.6,0-93.9c0-2.3,0.4-3.1,3-2.6c9.4,1.6,18.9,2.9,28.4,4.3
		c10.7,1.6,21.3,3.2,32,4.8c8.5,1.3,16.9,2.6,25.4,4c0.6,0.1,1.2,0.9,1.5,1.5c0.2,0.5,0.1,1.3,0.1,1.9c0,30.9,0,61.9,0,92.8
		C188.7,415.7,188.7,416.7,188.7,418.3z"/>
	<path class="st9" d="M188.1,434.2c0,5,0,5-4.9,4.3c-16-2.4-32-4.8-47.9-7.2c-11.8-1.8-23.5-3.5-35.3-5.2c-0.1,0-0.2,0-0.3,0
		c-1.8-0.3-2.6-4.5-1.8-8.7c0.4-2.1,2-1.4,3.1-1.2c19.1,2.9,38.2,5.9,57.3,8.8c8.8,1.4,17.6,2.8,26.5,3.9c2.8,0.3,3.8,1.4,3.4,4
		C188.1,433.2,188.1,433.7,188.1,434.2z"/>
	<path class="st7" d="M265.6,278c-4.6,2.2-9.2,4.4-13.9,6.5c-0.6,0.3-1.6,0.2-2.2,0c-4.2-1.9-8.4-3.9-12.6-5.9
		c3.5-6.1,7.1-12.3,10.6-18.4c2.3-3.9,5.5-3.9,7.7,0C258.7,266.1,262.1,272.1,265.6,278z"/>
	<path class="st17" d="M308.2,256.9c-4.3-0.8-7.9-1.5-11.5-2.2c-5.5-1-11-2.1-16.5-3.1c-2.1-0.4-3.9-1.2-3.5-3.7
		c0.4-2.5,2.3-2.8,4.5-2.4c8.8,1.7,17.6,3.3,26.3,5c1.9,0.4,3.2,1.5,2.8,3.4C310.1,255.1,308.9,256.1,308.2,256.9z"/>
	<path class="st17" d="M234.8,232.5c-0.5,0.6-1.1,2-2.1,2.5c-8.2,4.1-16.6,8.1-24.9,12.1c-1.8,0.9-3.4,0.5-4.3-1.3
		c-0.9-1.8-0.3-3.3,1.5-4.2c8.4-4.1,16.7-8.2,25.1-12.2C232.3,228.5,234.3,229.6,234.8,232.5z"/>
	<path class="st18" d="M223.4,260.4c0,3.8-3.1,7-6.9,7c-3.8,0-7-3.1-7-6.9c0-3.8,3.1-7,6.9-7C220.3,253.4,223.4,256.5,223.4,260.4z"
		/>
	<path class="st19" d="M294.2,261.4c-0.1,3.8-3.3,6.9-7,6.8c-3.8-0.1-6.8-3.3-6.8-7.1c0.1-3.8,3.2-6.8,7-6.8
		C291.3,254.5,294.3,257.6,294.2,261.4z"/>
</g>
<path class="st20" d="M327.3,32.8c8.7,23.3-16.9,46.3-57.1,51.3c-32.2,4-63.9-7.8-70.8-26.5c-5.6-14.9,10.8-29.6,36.6-32.8
	c20.6-2.6,40.9,5,45.3,16.9c3.6,9.5-6.9,18.9-23.4,21c-13.2,1.6-26.2-3.2-29-10.8c-2.3-6.1,4.4-12.1,15-13.4
	c8.4-1.1,16.7,2.1,18.6,6.9c1.5,3.9-2.8,7.8-9.6,8.6c-5.4,0.7-10.7-1.3-11.9-4.4"/>
</svg>
