<svg xmlns="http://www.w3.org/2000/svg" viewBox="0 0 512 512" id="angry"><circle cx="254.9" cy="260.2" r="254.9" fill="#cd4242"></circle><circle cx="243.1" cy="241.8" r="241.4" fill="#eb464e"></circle><path fill="#645033" d="M369.3 340.4c-4.5 0-8.2-3.7-8.2-8.2 0-46.1-47.9-83.6-106.8-83.6s-106.8 37.5-106.8 83.6c0 4.5-3.7 8.2-8.2 8.2-4.5 0-8.2-3.7-8.2-8.2 0-55.1 55.3-100 123.2-100s123.2 44.9 123.2 100c0 4.5-3.7 8.2-8.2 8.2z"></path><circle cx="142" cy="186.7" r="34.3" fill="#645033"></circle><circle cx="362.9" cy="187.2" r="34.3" fill="#645033"></circle><path fill="#645033" d="M182.2 174.1c-1.2 0-2.5-.3-3.6-.9l-64-31.7c-4.1-2-5.7-7-3.7-11 2-4.1 7-5.7 11-3.7l64 31.7c4.1 2 5.7 7 3.7 11-1.4 2.9-4.4 4.6-7.4 4.6zm138.9 0c-3 0-5.9-1.7-7.4-4.6-2-4.1-.3-9 3.7-11l64-31.7c4.1-2 9-.4 11 3.7 2 4.1.3 9-3.7 11l-64 31.7c-1.1.6-2.3.9-3.6.9z"></path></svg>