<svg xmlns="http://www.w3.org/2000/svg" viewBox="0 0 512 512" id="disgust"><circle cx="255.6" cy="255.6" r="255.6" fill="#ecb13a"></circle><circle cx="249.9" cy="243.7" r="242.2" fill="#ffde4f"></circle><path fill="#645033" d="M110.5 245.1c-3.3 0-6.4-2-7.7-5.2-1.7-4.2.4-9 4.6-10.7l72.1-28.7-72.1-25.1c-4.3-1.5-6.6-6.2-5.1-10.5s6.2-6.6 10.5-5.1l93 32.3c3.3 1.1 5.5 4.2 5.5 7.6.1 3.4-2 6.6-5.2 7.8l-92.6 36.9c-.9.5-2 .7-3 .7zm289.9-1.7c-.9 0-1.8-.1-2.7-.5l-93-32.3c-3.3-1.1-5.5-4.2-5.5-7.6-.1-3.4 2-6.6 5.2-7.8l92.6-36.9c4.2-1.7 9 .4 10.7 4.6 1.7 4.2-.4 9-4.6 10.7L331 202.3l72.1 25.1c4.3 1.5 6.6 6.2 5.1 10.5-1.2 3.4-4.4 5.5-7.8 5.5zm-99.3 87.2c-1.7 0-3.3-.5-4.8-1.5-3.7-2.6-4.6-7.8-1.9-11.5l20-28.2c1.5-2.1 3.8-3.4 6.4-3.5 2.6-.1 5 1 6.6 2.9l23.8 28.2c2.9 3.5 2.5 8.7-1 11.6-3.5 2.9-8.7 2.5-11.6-1l-16.9-20-13.8 19.5c-1.7 2.3-4.2 3.5-6.8 3.5z"></path><path fill="#645033" d="M257.3 330.6c-1.7 0-3.3-.5-4.8-1.5-3.7-2.6-4.6-7.8-1.9-11.5l20-28.2c1.5-2.1 3.8-3.4 6.4-3.5 2.7-.1 5 1 6.6 2.9l23.8 28.2c2.9 3.5 2.5 8.7-1 11.6-3.5 2.9-8.7 2.5-11.6-1l-16.9-20-13.8 19.5c-1.6 2.3-4.2 3.5-6.8 3.5z"></path><path fill="#645033" d="M213.6 330.6c-1.7 0-3.3-.5-4.8-1.5-3.7-2.6-4.6-7.8-1.9-11.5l20-28.2c1.5-2.1 3.8-3.4 6.4-3.5 2.7-.1 5 1 6.6 2.9l23.8 28.2c2.9 3.5 2.5 8.7-1 11.6-3.5 2.9-8.7 2.5-11.6-1l-16.9-20-13.8 19.5c-1.7 2.3-4.3 3.5-6.8 3.5z"></path><path fill="#645033" d="M165.5 330.6c-1.7 0-3.3-.5-4.8-1.5-3.7-2.6-4.6-7.8-2-11.5l20-28.2c1.5-2.1 3.8-3.4 6.4-3.5 2.6-.1 5 1 6.6 2.9l23.8 28.2c2.9 3.5 2.5 8.7-1 11.6-3.5 2.9-8.7 2.5-11.6-1l-16.9-20-13.8 19.5c-1.6 2.3-4.2 3.5-6.7 3.5z"></path></svg>