<svg xmlns="http://www.w3.org/2000/svg" viewBox="0 0 512 512" id="dissapointed"><circle cx="255.6" cy="255.6" r="255.6" fill="#ecb13a"></circle><circle cx="251" cy="242.5" r="242.1" fill="#ffde4f"></circle><path fill="#4fc4f1" d="M136.3 92.2c-4.5-11-10.8-21.2-18.7-30.2L83.5 23.4c-1.9-4-7.5-4-9.4 0L40.1 62c-7.9 9-14.2 19.1-18.7 30.2 0 .1-.1.1-.1.2-2.3 5.7-3.8 11.7-3.8 17.8 0 26.4 16.5 50.5 41.7 58.4 42.2 13.1 80.9-18.1 80.9-58.3v-.1c0-6.1-1.5-12.1-3.8-17.8.1-.1 0-.1 0-.2z"></path><path fill="#645033" d="M154.3 378.8c-2.7 0-5.3-1.3-6.9-3.7-2.5-3.8-1.5-8.9 2.3-11.4l1.8-1.2c62.1-40.9 133.2-40.5 195 1.2 3.8 2.5 4.8 7.7 2.2 11.4-2.6 3.8-7.7 4.8-11.5 2.2-56-37.8-120.4-38.2-176.7-1.1l-1.8 1.2c-1.3 1-2.9 1.4-4.4 1.4z"></path><path fill="#ecb13a" d="M196.1 394.8c-3.4 0-6.6-2.1-7.8-5.5-1.5-4.3.7-9 5-10.6l7.4-2.6c33.7-12.1 69.2-11.1 102.5 2.8 4.2 1.8 6.2 6.6 4.4 10.8-1.8 4.2-6.6 6.2-10.8 4.4-29.5-12.3-60.8-13.2-90.6-2.5l-7.4 2.6c-.8.4-1.7.6-2.7.6z"></path><path fill="#645033" d="M98.9 307.6c-2.3 0-4.7-.1-7.2-.2-4.5-.3-8-4.2-7.8-8.7.3-4.5 4.2-7.9 8.7-7.8 28.9 1.7 42.1-7.2 62.5-28.8 3.1-3.3 8.3-3.5 11.7-.3 3.3 3.1 3.5 8.3.3 11.7-21 22.3-37.9 34.1-68.2 34.1zm307.5 0c-30.3 0-47.2-11.8-68.3-34.2-3.1-3.3-3-8.5.3-11.7 3.3-3.1 8.5-3 11.7.3 20.4 21.6 33.5 30.5 62.5 28.8 4.5-.1 8.4 3.2 8.7 7.8.3 4.5-3.2 8.4-7.8 8.7-2.4.2-4.8.3-7.1.3z"></path></svg>