<svg xmlns="http://www.w3.org/2000/svg" viewBox="0 0 512 512" id="happy"><circle cx="255.1" cy="256" r="256" fill="#ecb13a"></circle><circle cx="249.3" cy="244" r="242.5" fill="#ffde4f"></circle><path fill="#645033" d="M393.2 245c12.3-.1 22.2 10.4 21.1 22.7-8.6 93.9-75.3 167.3-157.2 168.2-81.9.9-150.2-71.1-160.7-164.8-1.4-12.3 8.3-23 20.6-23.2l276.2-2.9z"></path><path fill="#fff" d="M255.3 268.5 114.1 270c1.7 17.1 6.3 33.6 13.4 48.5l1.5 3.1 126.9-1.4 126.9-1.4 1.4-3.1c6.8-15.1 11.1-31.7 12.4-48.8l-141.3 1.6z"></path><path fill="#ef4f43" d="M324.7 374.8c-42.4-28.8-94.6-28.3-136.3 1.5l-10.9 7.8 11.1 7.5c42.4 28.8 94.6 28.3 136.3-1.5l10.9-7.8-11.1-7.5z"></path><path fill="#645033" d="M326.1 180.9c-2.1 0-4.2-.8-5.8-2.4-3.2-3.2-3.2-8.5 0-11.7 12.9-12.9 30-20 48.2-20 18.2 0 35.3 7.1 48.2 20 3.2 3.2 3.2 8.5 0 11.7-3.2 3.2-8.5 3.2-11.7 0-9.8-9.8-22.7-15.1-36.5-15.1s-26.8 5.4-36.5 15.1c-1.7 1.6-3.8 2.4-5.9 2.4zm-220.3 0c-2.1 0-4.2-.8-5.8-2.4-3.2-3.2-3.2-8.5 0-11.7 12.9-12.9 30-20 48.2-20s35.3 7.1 48.2 20c3.2 3.2 3.2 8.5 0 11.7-3.2 3.2-8.5 3.2-11.7 0-9.8-9.8-22.7-15.1-36.5-15.1s-26.8 5.4-36.5 15.1c-1.7 1.6-3.8 2.4-5.9 2.4z"></path></svg>