<svg xmlns="http://www.w3.org/2000/svg" viewBox="0 0 512 512" id="sad"><circle cx="255.4" cy="256.6" r="255.4" fill="#ecb13a"></circle><circle cx="249.6" cy="244.6" r="242" fill="#ffde4f"></circle><circle cx="164.2" cy="200.7" r="34.3" fill="#645033"></circle><path fill="#645033" d="M159.1 333.5c-3.1 0-6.1-1.8-7.5-4.8-1.9-4.1-.1-9 4-11l1.8-.8c61.4-28.6 131.6-28.3 192.8.9 4.1 2 5.9 6.9 3.9 11-2 4.1-6.9 5.8-11 3.9-56.7-27-121.8-27.3-178.7-.8l-1.8.8c-1.2.5-2.3.8-3.5.8zm51.1-151.2h-116c-4.6 0-8.2-3.7-8.2-8.2s3.7-8.2 8.2-8.2h116c4.6 0 8.2 3.7 8.2 8.2s-3.7 8.2-8.2 8.2z"></path><circle cx="370.7" cy="200.7" r="34.3" fill="#645033"></circle><path fill="#645033" d="M413.7 182.3h-116c-4.6 0-8.2-3.7-8.2-8.2s3.7-8.2 8.2-8.2h116c4.6 0 8.2 3.7 8.2 8.2s-3.6 8.2-8.2 8.2z"></path><path fill="#ecb13a" d="M304.8 352.5c-.8 0-1.6-.1-2.3-.3-30-8.9-61.8-9.5-92.1-1.8l-7.4 1.9c-4.4 1.1-8.9-1.6-10-6-1.1-4.4 1.6-8.9 6-10l7.4-1.9c33.2-8.4 68-7.7 100.8 2 4.4 1.3 6.9 5.9 5.6 10.2-1.2 3.6-4.5 5.9-8 5.9z"></path></svg>