<svg width="330" height="150" viewBox="0 0 330 150" fill="none" xmlns="http://www.w3.org/2000/svg">
<path fill-rule="evenodd" clip-rule="evenodd" d="M7.95364 114.139C7.54462 114.706 7.01973 115.165 6.41968 115.479C5.81963 115.793 5.16057 115.953 4.49358 115.948C3.90152 115.959 3.31361 115.84 2.76608 115.597C2.21855 115.354 1.72301 114.992 1.30996 114.535C0.886205 114.091 0.551632 113.557 0.32694 112.968C0.102249 112.378 -0.00778332 111.745 0.0036528 111.108C-0.0394058 110.038 0.299526 108.99 0.950814 108.181L23.7025 75.2352C25.4237 72.8 27.8726 71.08 30.6352 70.3662C33.3977 69.6524 36.3043 69.9886 38.8632 71.3178C40.4919 72.1368 41.9067 73.3783 42.9808 74.931L65.684 107.733C66.0613 108.207 66.3787 108.733 66.6279 109.296C66.8792 109.882 67.0063 110.52 66.9998 111.165C67.0018 111.801 66.8868 112.432 66.6614 113.02C66.4359 113.608 66.1045 114.142 65.6864 114.592C65.2683 115.041 64.7716 115.397 64.2251 115.638C63.6787 115.879 63.0932 116.002 62.5028 115.998C61.8095 116.021 61.122 115.857 60.502 115.523C59.882 115.188 59.3489 114.692 58.9509 114.081L37.1728 82.7054C36.6578 82.085 36.1108 81.4964 35.5345 80.9424C35.2797 80.641 34.9693 80.4002 34.6232 80.2353C34.2772 80.0704 33.903 79.9851 33.5247 79.9847C33.1463 79.9844 32.772 80.0691 32.4257 80.2334C32.0794 80.3977 31.7687 80.638 31.5134 80.9389C30.9475 81.4717 30.4297 82.0611 29.9671 82.6992L7.95364 114.139Z" fill="white"/>
<path fill-rule="evenodd" clip-rule="evenodd" d="M28.0016 105.475C28.0069 104.194 28.3619 102.943 29.0216 101.879C29.6813 100.815 30.6167 99.9859 31.71 99.4954C32.8035 99.0049 34.0063 98.875 35.1677 99.122C36.3291 99.3689 37.3972 99.9817 38.2381 100.883C38.7966 101.488 39.2396 102.206 39.542 102.996C39.8443 103.786 39.9999 104.633 40 105.488C40 106.343 39.8445 107.19 39.5422 107.98C39.2401 108.77 38.7972 109.488 38.2386 110.092C37.6802 110.697 37.0172 111.177 36.2874 111.504C35.5578 111.831 34.7757 112 33.9859 112C33.1961 112 32.4139 111.832 31.6842 111.504C30.9545 111.177 30.2914 110.698 29.7329 110.093C29.168 109.492 28.7228 108.773 28.425 107.978C28.1273 107.184 27.9831 106.332 28.0016 105.475Z" fill="white"/>
<path fill-rule="evenodd" clip-rule="evenodd" d="M181.205 115.088C180.61 115.887 179.796 116.467 178.877 116.749C177.959 117.031 176.98 117 176.078 116.661C175.177 116.322 174.396 115.691 173.845 114.856C173.294 114.021 173 113.023 173.004 112.001C172.959 110.908 173.308 109.838 173.98 109.011L197.42 75.3495C199.193 72.861 201.716 71.1034 204.562 70.3741C207.407 69.6448 210.402 69.9885 213.038 71.347C214.715 72.1915 216.17 73.4669 217.274 75.0595L240.645 108.553C241.034 109.038 241.362 109.577 241.617 110.156C241.876 110.752 242.007 111.403 242 112.06C242.002 112.71 241.883 113.353 241.652 113.954C241.42 114.555 241.079 115.1 240.649 115.559C240.218 116.018 239.708 116.382 239.146 116.629C238.584 116.876 237.981 117.001 237.374 116.998C236.659 117.021 235.95 116.855 235.31 116.513C234.671 116.171 234.121 115.664 233.711 115.039L211.283 82.982C210.754 82.348 210.192 81.7467 209.6 81.1806C209.337 80.8725 209.017 80.6264 208.661 80.4579C208.304 80.2894 207.918 80.2022 207.527 80.2018C207.138 80.2016 206.752 80.2881 206.395 80.4561C206.037 80.6239 205.718 80.8696 205.455 81.1771C204.872 81.7215 204.338 82.3237 203.862 82.9756L181.205 115.088Z" fill="white"/>
<path fill-rule="evenodd" clip-rule="evenodd" d="M203.001 105.435C203.013 103.933 203.424 102.484 204.163 101.332C204.904 100.18 205.929 99.3967 207.063 99.1152C208.197 98.8338 209.371 99.0715 210.386 99.7879C211.401 100.504 212.194 101.656 212.63 103.046C213.065 104.436 213.119 105.979 212.779 107.414C212.438 108.849 211.727 110.086 210.764 110.916C209.802 111.746 208.648 112.118 207.5 111.967C206.351 111.817 205.278 111.155 204.462 110.092C203.987 109.486 203.613 108.76 203.362 107.959C203.11 107.158 202.987 106.299 203.001 105.435Z" fill="white"/>
<path fill-rule="evenodd" clip-rule="evenodd" d="M293.968 103.337C287.37 93.5313 280.821 83.7461 274.162 73.9971C273.329 72.75 272.244 71.738 270.992 71.0435C269.741 70.349 268.359 69.9916 266.959 70.0002C265.771 70.0119 264.595 70.2845 263.501 70.802C262.408 71.3197 261.417 72.072 260.586 73.016C259.755 73.9599 259.101 75.0767 258.661 76.3021C258.221 77.5275 258.004 78.8373 258.022 80.1562L258 112.004C257.999 113.313 258.467 114.569 259.301 115.496C260.135 116.422 261.266 116.943 262.447 116.944C263.628 116.945 264.76 116.426 265.596 115.501C266.431 114.576 266.901 113.321 266.901 112.012C266.909 101.249 266.917 90.4838 266.924 79.7171L290.765 115.042C291.116 115.633 291.593 116.118 292.156 116.453C292.718 116.789 293.346 116.965 293.984 116.966C294.622 116.966 295.25 116.791 295.813 116.457C296.375 116.122 296.854 115.638 297.207 115.047L321.097 79.7648C321.089 90.5315 321.081 101.296 321.074 112.06C321.073 113.369 321.541 114.625 322.375 115.551C323.209 116.478 324.34 116.999 325.521 117C326.701 117.001 327.833 116.482 328.669 115.557C329.505 114.632 329.974 113.377 329.975 112.067L329.997 80.2196C330.042 78.1131 329.482 76.0457 328.398 74.3155C327.314 72.5853 325.761 71.2819 323.967 70.5935C322.171 69.905 320.226 69.8671 318.409 70.4852C316.593 71.1032 315.001 72.3452 313.862 74.0321C307.156 83.7692 300.581 93.5428 293.968 103.337Z" fill="white"/>
<path fill-rule="evenodd" clip-rule="evenodd" d="M133.564 114L89.2716 113.962C88.7112 113.98 88.1534 113.874 87.6326 113.65C87.1117 113.426 86.6389 113.089 86.2435 112.659C85.8408 112.233 85.5228 111.722 85.3091 111.158C85.0955 110.594 84.9905 109.989 85.0007 109.38L85.0248 76.6205C85.0391 75.3908 85.501 74.2166 86.3103 73.3519C87.1195 72.4873 88.2112 72.0016 89.3492 72L133.632 72.0379C147.677 72.0855 159.022 81.5713 159 93.1572C158.978 104.743 147.604 114.007 133.564 113.995V114ZM133.964 104.418C139.929 104.484 150.109 101.113 150.125 93.0534C150.139 84.994 139.94 81.5752 133.986 81.6157L93.8834 81.5812L93.8667 104.384L133.964 104.418Z" fill="white"/>
<path fill-rule="evenodd" clip-rule="evenodd" d="M146.473 0.0473758L92.5285 0C77.8518 0.0797354 66.0114 13.7418 66 29.5291C65.9886 45.3165 76.4992 57.4286 89.9703 58.9482L148.994 59C155.792 58.2355 162.067 54.6164 166.527 48.8875C170.987 43.1586 173.293 35.756 172.97 28.2028C172.647 20.6497 169.72 13.5209 164.791 8.28346C159.862 3.04604 153.306 0.0984685 146.473 0.0473758ZM91.1911 49.1517C82.2763 49.2005 75.0047 40.477 74.9615 29.4238C74.9181 18.5094 82.0906 9.76789 90.7961 9.8064L147.907 9.85657C159.199 9.71725 164.201 18.4233 164.137 29.5021C164.078 40.3752 157.073 49.2095 148.367 49.2018L91.1911 49.1517Z" fill="white"/>
<path fill-rule="evenodd" clip-rule="evenodd" d="M99 29.5068C99.0007 28.3905 98.8333 27.285 98.5072 26.2534C98.1812 25.2218 97.7029 24.2842 97.0999 23.4943C96.4968 22.7044 95.7806 22.0775 94.9923 21.6496C94.2039 21.2215 93.3588 21.0009 92.5052 21C91.6516 20.999 90.8063 21.218 90.0174 21.6444C89.2285 22.0707 88.5115 22.6961 87.9075 23.4848C87.3035 24.2735 86.8241 25.2101 86.4968 26.2409C86.1695 27.2719 86.0008 28.377 86 29.4933C85.9993 30.6095 86.1668 31.715 86.4928 32.7466C86.8189 33.7782 87.2971 34.7158 87.9002 35.5056C88.5033 36.2956 89.2194 36.9224 90.0078 37.3504C90.7962 37.7785 91.6413 37.9991 92.4949 38C93.3485 38.0009 94.1938 37.782 94.9827 37.3556C95.7716 36.9293 96.4885 36.3038 97.0925 35.5152C97.6966 34.7265 98.1759 33.7899 98.5033 32.7591C98.8305 31.7281 98.9993 30.623 99 29.5068Z" fill="white"/>
<path fill-rule="evenodd" clip-rule="evenodd" d="M139 29.4933C139.001 28.3771 139.195 27.272 139.574 26.241C139.951 25.21 140.503 24.2736 141.201 23.4849C141.898 22.6962 142.725 22.0709 143.635 21.6444C144.546 21.2181 145.521 20.9991 146.506 21C147.491 21.0009 148.466 21.2216 149.375 21.6497C150.285 22.0776 151.111 22.7045 151.807 23.4944C152.503 24.2843 153.055 25.2219 153.431 26.2535C153.807 27.2851 154 28.3906 154 29.5068C153.999 30.623 153.804 31.7282 153.426 32.7591C153.049 33.79 152.495 34.7266 151.798 35.5151C151.102 36.3038 150.275 36.9293 149.364 37.3556C148.454 37.782 147.479 38.0009 146.494 38C145.509 37.9991 144.534 37.7784 143.624 37.3504C142.715 36.9224 141.889 36.2956 141.193 35.5056C140.497 34.7157 139.945 33.7782 139.569 32.7466C139.193 31.715 138.999 30.6095 139 29.4933Z" fill="white"/>
<path d="M189.549 130.007C190.421 130.018 191.282 130.193 192.079 130.52C193.623 131.133 194.848 132.27 195.493 133.693C195.905 134.593 196.071 135.573 195.972 136.545C195.875 137.518 195.517 138.452 194.931 139.268C194.59 139.734 194.183 140.156 193.721 140.523C193.252 140.891 192.728 141.193 192.163 141.421L195.653 148.443C195.693 148.514 195.717 148.593 195.725 148.673C195.728 148.737 195.718 148.801 195.697 148.862C195.697 148.908 195.625 148.939 195.541 148.958C195.413 148.985 195.282 148.999 195.151 149L194.399 148.999C194.318 148.999 194.24 148.976 194.175 148.931C194.111 148.889 194.061 148.829 194.036 148.759L190.586 141.777C190.403 141.82 190.216 141.852 190.029 141.874C189.814 141.894 189.598 141.905 189.382 141.904L182.609 141.899L182.604 148.511C182.613 148.573 182.607 148.637 182.584 148.695C182.563 148.755 182.525 148.809 182.477 148.854C182.428 148.898 182.369 148.931 182.304 148.952C182.239 148.972 182.17 148.978 182.102 148.969H181.505C181.437 148.978 181.367 148.972 181.303 148.951C181.238 148.931 181.179 148.897 181.13 148.853C181.082 148.808 181.046 148.754 181.023 148.694C181.001 148.635 180.995 148.572 181.004 148.509L181.02 130.426C181.056 130.307 181.116 130.196 181.198 130.099C181.242 130.062 181.293 130.035 181.349 130.018C181.405 130.002 181.464 129.996 181.522 130.002L189.549 130.007ZM188.731 140.449H188.954C189.316 140.449 189.673 140.449 190.024 140.423C190.382 140.407 190.736 140.342 191.072 140.231C191.552 140.082 192.003 139.868 192.41 139.594C192.816 139.324 193.172 138.999 193.465 138.628C193.901 138.08 194.196 137.449 194.328 136.783C194.46 136.116 194.428 135.43 194.232 134.777C194.037 134.122 193.682 133.517 193.197 133.005C192.711 132.494 192.106 132.089 191.425 131.821C190.82 131.579 190.164 131.457 189.503 131.463L182.619 131.458L182.611 140.444L188.731 140.449Z" fill="white"/>
<path d="M220 140.001C220 138.23 220.448 136.49 221.294 134.961C221.712 134.225 222.215 133.545 222.791 132.938C223.367 132.327 224.015 131.798 224.72 131.365C225.434 130.932 226.196 130.594 226.989 130.36C228.637 129.879 230.379 129.88 232.027 130.364C232.819 130.599 233.581 130.938 234.293 131.373C234.993 131.81 235.638 132.339 236.21 132.949C236.789 133.553 237.29 134.235 237.703 134.975C238.116 135.73 238.438 136.538 238.658 137.378C238.889 138.244 239.004 139.138 239 140.038C239.002 140.933 238.887 141.825 238.655 142.686C238.432 143.52 238.109 144.319 237.696 145.068C237.282 145.804 236.779 146.48 236.199 147.08C235.625 147.687 234.98 148.215 234.279 148.652C233.568 149.087 232.806 149.424 232.012 149.652C230.79 150.001 229.514 150.089 228.258 149.91C227.003 149.733 225.795 149.293 224.703 148.618C224.001 148.181 223.355 147.652 222.78 147.043C222.204 146.438 221.702 145.759 221.287 145.023C220.441 143.496 219.996 141.759 220 139.991V140.001ZM221.46 140.002C221.452 141.132 221.664 142.253 222.086 143.292C222.899 145.318 224.429 146.932 226.352 147.791C227.343 148.235 228.409 148.461 229.486 148.455C230.207 148.459 230.925 148.357 231.62 148.152C232.289 147.957 232.933 147.672 233.533 147.304C234.124 146.937 234.67 146.496 235.159 145.988C235.645 145.479 236.068 144.907 236.416 144.285C236.767 143.65 237.041 142.973 237.229 142.265C237.42 141.533 237.517 140.776 237.516 140.016C237.524 138.888 237.309 137.771 236.886 136.737C236.475 135.738 235.891 134.828 235.163 134.055C234.431 133.283 233.566 132.666 232.613 132.238C231.63 131.788 230.57 131.558 229.499 131.564C228.777 131.56 228.057 131.662 227.361 131.866C226.688 132.06 226.041 132.346 225.437 132.714C224.842 133.078 224.295 133.525 223.812 134.04C223.328 134.553 222.908 135.127 222.56 135.749C222.207 136.382 221.934 137.061 221.745 137.767C221.556 138.493 221.46 139.24 221.46 139.992V140.002Z" fill="white"/>
<path d="M272.457 130.006C273.085 130.002 273.708 130.131 274.291 130.386C274.843 130.619 275.348 130.967 275.777 131.411C276.201 131.86 276.537 132.397 276.766 132.987C277.01 133.605 277.134 134.271 277.129 134.943C277.137 135.749 276.948 136.544 276.579 137.245C276.224 137.92 275.726 138.498 275.127 138.927C275.547 139.119 275.935 139.382 276.278 139.705C276.629 140.033 276.936 140.41 277.192 140.827C277.449 141.25 277.65 141.71 277.788 142.194C277.931 142.692 278.002 143.209 278 143.729C278.001 144.415 277.876 145.096 277.633 145.729C277.403 146.346 277.068 146.911 276.647 147.397C276.227 147.881 275.725 148.273 275.168 148.551C274.594 148.843 273.968 148.996 273.334 149L265.365 148.994C265.271 148.991 265.182 148.951 265.114 148.881C265.053 148.81 265.014 148.72 265 148.625L265.014 130.485C265.014 130.271 265.057 130.139 265.142 130.082C265.22 130.029 265.311 130.001 265.403 130L272.457 130.006ZM275.647 134.988C275.653 134.538 275.574 134.093 275.415 133.678C275.256 133.262 275.022 132.886 274.724 132.572C274.435 132.265 274.092 132.024 273.716 131.86C273.316 131.688 272.888 131.601 272.456 131.602L266.496 131.597L266.491 138.392L272.437 138.397C273.285 138.407 274.103 138.055 274.712 137.418C275.015 137.104 275.255 136.726 275.419 136.308C275.582 135.89 275.665 135.442 275.661 134.988H275.647ZM276.512 143.753C276.512 143.271 276.422 142.795 276.247 142.351C276.076 141.909 275.837 141.502 275.538 141.148C275.246 140.801 274.897 140.517 274.506 140.313C274.12 140.106 273.696 139.998 273.264 140L266.49 139.995L266.485 147.414L273.35 147.42C273.768 147.42 274.182 147.317 274.557 147.118C275.333 146.72 275.941 146.021 276.26 145.161C276.429 144.714 276.515 144.236 276.512 143.753Z" fill="white"/>
<path d="M304 139.995C303.999 139.098 304.108 138.206 304.322 137.342C304.531 136.508 304.835 135.707 305.226 134.958C305.621 134.22 306.097 133.54 306.645 132.935C307.187 132.324 307.8 131.796 308.469 131.365C309.144 130.931 309.866 130.593 310.617 130.36C312.179 129.879 313.83 129.88 315.391 130.364C316.143 130.597 316.864 130.936 317.539 131.372C318.202 131.809 318.813 132.338 319.356 132.946C319.904 133.551 320.38 134.231 320.771 134.971C321.163 135.727 321.466 136.533 321.676 137.374C321.894 138.239 322.003 139.133 322 140.031C322.002 140.927 321.891 141.818 321.672 142.679C321.46 143.511 321.155 144.311 320.763 145.058C320.372 145.794 319.895 146.471 319.346 147.07C318.802 147.677 318.19 148.205 317.527 148.642C316.853 149.076 316.13 149.412 315.377 149.641C313.846 150.11 312.229 150.12 310.693 149.668C309.156 149.216 307.756 148.32 306.635 147.069C305.534 145.852 304.74 144.337 304.328 142.674C304.109 141.802 303.998 140.901 304 139.995ZM305.384 139.996C305.375 141.125 305.577 142.245 305.976 143.283C306.747 145.311 308.199 146.925 310.024 147.78C310.961 148.225 311.97 148.451 312.989 148.443C313.673 148.448 314.352 148.346 315.011 148.142C315.645 147.946 316.255 147.661 316.824 147.294C317.384 146.927 317.901 146.485 318.364 145.979C318.826 145.47 319.225 144.897 319.555 144.276C319.889 143.643 320.148 142.964 320.327 142.258C320.508 141.526 320.598 140.769 320.597 140.01C320.606 138.883 320.403 137.767 320 136.732C319.612 135.733 319.059 134.824 318.368 134.051C317.674 133.281 316.854 132.665 315.952 132.235C314.38 131.492 312.627 131.361 310.98 131.865C310.34 132.058 309.725 132.343 309.152 132.712C308.589 133.077 308.07 133.521 307.612 134.038C307.154 134.55 306.755 135.123 306.426 135.746C306.094 136.374 305.836 137.046 305.659 137.747C305.475 138.476 305.384 139.229 305.384 139.985V139.996Z" fill="white"/>
</svg>
