<?xml version="1.0" encoding="utf-8"?>
<svg viewBox="0 0 500 500" xmlns="http://www.w3.org/2000/svg">
  <path fill="#f2daae" d="M 347.512 118.494 L 347.512 110.236 L 119.233 110.236 C 116.096 110.236 112.998 109.938 109.966 109.392 C 104.109 125.546 101.102 142.593 101.07 159.785 L 101.07 225.854 C 101.07 307.95 167.274 374.505 248.934 374.505 C 330.597 374.505 396.801 307.95 396.801 225.854 L 396.801 168.044 C 369.576 168.044 347.512 145.853 347.512 118.494" style=""/>
  <path fill="#e0c494" d="M 84.64 234.11 L 101.07 234.11 L 101.07 168.044 L 84.64 168.044 C 59.339 168.044 43.535 195.569 56.176 217.595 C 62.049 227.811 72.892 234.11 84.64 234.11 M 413.23 168.044 L 396.801 168.044 L 396.801 234.11 L 413.23 234.11 C 438.523 234.11 454.328 206.578 441.685 184.561 C 435.811 174.338 424.968 168.044 413.23 168.044" style=""/>
  <path fill="#000" d="M 133.929 27.652 C 123.693 27.634 114.543 21.252 110.943 11.622 C 83.735 15.278 64.744 40.583 68.72 67.884 C 72.171 92.569 94.431 110.236 119.233 110.236 L 347.512 110.236 L 347.512 118.494 C 347.512 145.853 369.576 168.044 396.801 168.044 L 396.801 159.785 C 396.801 86.814 337.959 27.652 265.365 27.652 L 133.929 27.652 Z" style=""/>
  <path fill="#e0c494" d="M 248.934 374.505 C 226.116 374.49 203.615 369.136 183.218 358.872 L 183.218 407.539 L 248.934 448.83 L 314.653 407.539 L 314.653 358.872 C 294.248 369.136 271.748 374.49 248.934 374.505" style=""/>
  <path fill="#62c4c3" d="M 10.709 490.123 L 10.709 457.089 C 10.709 429.721 32.772 407.539 59.997 407.539 L 183.218 407.539 L 248.934 448.83 L 314.653 407.539 L 437.874 407.539 C 465.09 407.539 487.161 429.721 487.161 457.089 L 487.161 490.123 L 10.709 490.123 Z" style=""/>
  <path fill="#000" d="M 437.874 399.279 L 322.869 399.279 L 322.869 364.832 C 367.4 340.646 398.978 295.355 404.227 242.369 L 413.23 242.369 C 435.877 242.369 454.303 223.847 454.303 201.078 C 454.303 178.309 435.877 159.785 413.23 159.785 L 405.014 159.785 C 405.039 133.284 397.549 107.327 383.419 84.963 C 383.419 84.963 374.747 73.145 363.916 62.351 C 351.903 50.378 329.167 36.451 317.551 29.694 L 291.693 21.985 C 283.019 20.286 274.194 19.409 265.365 19.392 L 133.929 19.392 C 127.186 19.392 121.032 15.089 118.609 8.697 C 117.237 5.121 113.613 2.951 109.834 3.444 C 94.655 5.534 80.919 13.594 71.637 25.85 C 62.337 38.162 58.345 53.722 60.562 69.026 C 63.603 90.743 79.292 108.311 99.805 115.249 C 95.361 129.675 93.028 144.679 92.895 159.785 L 84.64 159.785 C 61.993 159.785 43.567 178.309 43.567 201.078 C 43.567 223.847 61.993 242.369 84.64 242.369 L 93.644 242.369 C 98.893 295.355 130.47 340.646 175.003 364.832 L 175.003 399.279 L 59.997 399.279 C 28.296 399.279 2.493 425.212 2.493 457.089 L 2.493 490.123 C 2.493 494.681 6.164 498.382 10.709 498.382 L 487.161 498.382 C 491.698 498.382 495.377 494.681 495.377 490.123 L 495.377 457.089 C 495.377 425.212 469.574 399.279 437.874 399.279 M 413.23 176.302 C 426.817 176.302 437.874 187.419 437.874 201.078 C 437.874 214.738 426.817 225.854 413.23 225.854 L 405.014 225.854 L 405.014 176.302 L 413.23 176.302 Z M 76.836 66.722 C 75.234 55.779 78.077 44.646 84.73 35.835 C 90.153 28.593 97.799 23.357 106.499 20.945 C 112.57 30.236 122.865 35.851 133.929 35.91 C 133.929 35.91 79.655 86.821 76.836 66.722 M 59.997 201.078 C 59.997 187.419 71.054 176.302 84.64 176.302 L 92.855 176.302 L 92.855 225.854 L 84.64 225.854 C 71.054 225.854 59.997 214.738 59.997 201.078 M 109.285 226.695 L 109.285 160.628 C 109.285 146.407 111.642 132.227 116.029 118.344 C 117.097 118.404 118.148 118.494 119.226 118.494 L 322.869 118.494 L 331.42 113.469 C 331.41 119.829 335.992 119.511 341.463 116.332 C 342.465 115.754 338.914 128.16 339.595 127.228 L 343.536 140.099 C 351.142 159.191 368.32 172.752 388.586 175.65 L 388.586 226.695 C 388.586 304.11 325.939 367.088 248.934 367.088 C 171.931 367.088 109.285 304.11 109.285 226.695 M 248.934 383.606 C 269.258 383.606 288.621 379.558 306.439 372.431 L 306.439 402.954 L 248.934 439.095 L 191.433 402.954 L 191.433 372.431 C 209.719 379.79 229.228 383.58 248.934 383.606 M 478.949 481.863 L 18.921 481.863 L 18.921 457.089 C 18.921 434.321 37.349 415.797 59.997 415.797 L 180.861 415.797 L 244.582 455.833 C 247.244 457.501 250.626 457.501 253.289 455.833 L 317.01 415.797 L 437.874 415.797 C 460.522 415.797 478.949 434.321 478.949 457.089 L 478.949 481.863 Z" style=""/>
  <path fill="#000" d="M 282.666 318.865 C 278.809 318.865 275.679 316.338 275.679 313.226 C 275.679 308.745 273.227 304.418 268.591 300.712 C 264.503 297.448 258.924 294.896 252.465 293.34 C 248.573 292.4 244.168 291.944 238.997 291.944 C 233.83 291.944 229.425 292.4 225.533 293.34 C 219.07 294.899 213.495 297.45 209.4 300.716 C 204.764 304.421 202.315 308.748 202.315 313.229 C 202.315 316.342 199.185 318.868 195.328 318.868 C 191.471 318.868 188.341 316.342 188.341 313.229 C 188.341 305.779 192.331 298.491 199.569 292.702 C 205.284 288.135 212.879 284.619 221.533 282.534 C 226.738 281.28 232.45 280.668 238.997 280.668 C 245.544 280.668 251.255 281.28 256.465 282.538 C 265.118 284.624 272.709 288.137 278.425 292.702 C 285.667 298.491 289.653 305.779 289.653 313.229 C 289.653 316.338 286.527 318.865 282.666 318.865 Z" style=""/>
  <path fill="#f15e5b" d="M 348.751 156.335 C 344.013 156.335 339.214 155.9 334.399 154.99 C 302.425 148.952 281.94 120.932 288.737 92.528 C 291.573 80.678 299.435 70.516 310.874 63.916 C 322.313 57.315 335.961 55.07 349.301 57.589 C 360.818 59.766 370.692 65.793 377.105 74.564 C 383.517 83.336 385.7 93.801 383.252 104.03 C 381.136 112.882 375.262 120.472 366.72 125.398 C 358.178 130.328 347.986 132.008 338.019 130.124 C 320.171 126.756 308.736 111.113 312.53 95.26 C 315.832 81.459 331.161 72.616 346.688 75.556 C 360.254 78.117 368.947 90.007 366.063 102.057 C 363.535 112.624 351.799 119.389 339.906 117.147 C 329.433 115.169 322.724 105.989 324.951 96.688 C 325.906 92.7 328.551 89.28 332.398 87.062 C 336.247 84.842 340.843 84.09 345.325 84.933 C 347.75 85.39 349.298 87.506 348.782 89.661 C 348.265 91.814 345.878 93.188 343.46 92.732 C 339.03 91.892 334.671 94.415 333.728 98.346 C 332.529 103.35 336.139 108.286 341.772 109.35 C 348.837 110.686 355.788 106.668 357.286 100.402 C 359.141 92.65 353.548 85.003 344.824 83.355 C 334.127 81.334 323.58 87.422 321.308 96.92 C 318.543 108.475 326.876 119.876 339.883 122.331 C 347.502 123.771 355.298 122.489 361.83 118.718 C 368.365 114.949 372.856 109.147 374.474 102.376 C 376.424 94.23 374.685 85.893 369.578 78.908 C 364.471 71.922 356.607 67.123 347.436 65.391 C 336.437 63.313 325.19 65.165 315.76 70.607 C 306.332 76.047 299.852 84.421 297.515 94.19 C 291.747 118.293 309.132 142.073 336.264 147.196 C 368.621 153.306 400.527 134.894 407.403 106.156 C 415.585 71.97 390.929 38.241 352.442 30.976 C 322.391 25.304 291.149 34.566 270.92 55.15 C 269.292 56.808 266.454 56.981 264.589 55.531 C 262.721 54.082 262.529 51.566 264.159 49.906 C 286.526 27.144 321.069 16.904 354.309 23.177 C 397.634 31.355 425.389 69.324 416.181 107.81 C 409.297 136.57 380.598 156.332 348.751 156.335 Z" style=""/>
  <path fill="#000" d="M 203.807 236.629 C 201.934 236.629 200.062 235.915 198.636 234.489 L 154.755 190.607 C 151.898 187.75 151.898 183.12 154.755 180.262 C 157.613 177.405 162.245 177.407 165.1 180.262 L 208.98 224.144 C 211.838 227.001 211.838 231.631 208.98 234.489 C 207.549 235.915 205.677 236.629 203.807 236.629 Z" style=""/>
  <path fill="#000" d="M 159.927 236.629 C 158.054 236.629 156.182 235.915 154.753 234.486 C 151.898 231.631 151.898 226.999 154.753 224.141 L 198.633 180.26 C 201.488 177.405 206.121 177.405 208.978 180.26 C 211.833 183.115 211.833 187.747 208.978 190.605 L 165.098 234.486 C 163.669 235.915 161.797 236.629 159.927 236.629 Z" style=""/>
  <path fill="#000" d="M 318.669 236.389 C 316.796 236.389 314.924 235.675 313.498 234.249 L 269.617 190.367 C 266.76 187.51 266.76 182.88 269.617 180.022 C 272.475 177.165 277.107 177.167 279.962 180.022 L 323.842 223.904 C 326.7 226.761 326.7 231.391 323.842 234.249 C 322.411 235.675 320.539 236.389 318.669 236.389 Z" style=""/>
  <path fill="#000" d="M 274.789 236.389 C 272.916 236.389 271.044 235.675 269.615 234.246 C 266.76 231.391 266.76 226.759 269.615 223.901 L 313.495 180.02 C 316.35 177.165 320.983 177.165 323.84 180.02 C 326.695 182.875 326.695 187.507 323.84 190.365 L 279.96 234.246 C 278.531 235.675 276.659 236.389 274.789 236.389 Z" style=""/>
</svg>