<?xml version="1.0" encoding="utf-8"?>
<svg viewBox="0 0 500 500" xmlns="http://www.w3.org/2000/svg">
  <path d="M 453.688 28.409 C 452.203 28.409 450.716 28.724 449.323 29.355 C 442.26 32.591 447.196 31.46 438.464 34.775 C 433.818 36.59 443.432 38.07 445.569 42.016 C 447.706 45.962 447.789 48.413 452.434 46.597 C 461.539 43.124 450.624 46.638 458.057 43.246 C 462.609 41.192 464.281 36.379 461.866 32.591 C 460.192 29.907 457.034 28.409 453.688 28.409 Z M 77.296 70.947 C 75.067 70.947 72.744 71.657 70.978 73.078 C 60.758 81.127 56.669 88.941 58.899 96.28 C 66.333 121.456 125.443 117.66 187.509 109.454 C 192.063 108.901 189.632 109.812 189.632 105.866 C 189.632 101.129 171.991 97.811 166.416 98.52 C 76.942 110.438 78.783 96.753 76.925 92.413 C 76.832 91.939 77.761 89.257 83.615 84.599 C 87.423 81.602 87.61 76.629 84.079 73.472 C 82.314 71.736 79.805 70.947 77.296 70.947 Z" style="fill: rgb(160, 160, 160); transform-origin: 260.639px 72.0252px;" transform="matrix(-1, 0, 0, -1, 0, -0.423873901367)"/>
  <path fill="#f2daae" d="M 347.512 118.494 L 347.512 110.236 L 119.233 110.236 C 116.096 110.236 112.998 109.938 109.966 109.392 C 104.109 125.546 101.102 142.593 101.07 159.785 L 101.07 225.854 C 101.07 307.95 167.274 374.505 248.934 374.505 C 330.597 374.505 396.801 307.95 396.801 225.854 L 396.801 168.044 C 369.576 168.044 347.512 145.853 347.512 118.494" style=""/>
  <path fill="#e0c494" d="M 84.64 234.11 L 101.07 234.11 L 101.07 168.044 L 84.64 168.044 C 59.339 168.044 43.535 195.569 56.176 217.595 C 62.049 227.811 72.892 234.11 84.64 234.11 M 413.23 168.044 L 396.801 168.044 L 396.801 234.11 L 413.23 234.11 C 438.523 234.11 454.328 206.578 441.685 184.561 C 435.811 174.338 424.968 168.044 413.23 168.044" style=""/>
  <path fill="#f15e5b" d="M 63.284 149.322 C 44.209 149.322 28.676 131.737 28.676 110.144 C 28.676 88.551 44.209 70.966 63.284 70.966 C 82.358 70.966 97.892 88.551 97.892 110.144 C 97.892 131.737 82.473 149.322 63.284 149.322 Z M 63.284 96.697 C 56.774 96.697 51.519 102.645 51.519 110.015 C 51.519 117.385 56.774 123.333 63.284 123.333 C 69.794 123.333 75.048 117.385 75.048 110.015 C 75.048 102.645 69.794 96.697 63.284 96.697 Z" style=""/>
  <path fill="#000" d="M 133.929 27.652 C 123.693 27.634 114.543 21.252 110.943 11.622 C 83.735 15.278 64.744 40.583 68.72 67.884 C 72.171 92.569 94.431 110.236 119.233 110.236 L 347.512 110.236 L 347.512 118.494 C 347.512 145.853 369.576 168.044 396.801 168.044 L 396.801 159.785 C 396.801 86.814 337.959 27.652 265.365 27.652 L 133.929 27.652 Z" style=""/>
  <path fill="#e0c494" d="M 248.934 374.505 C 226.116 374.49 203.615 369.136 183.218 358.872 L 183.218 407.539 L 248.934 448.83 L 314.653 407.539 L 314.653 358.872 C 294.248 369.136 271.748 374.49 248.934 374.505" style=""/>
  <path fill="#62c4c3" d="M 10.709 490.123 L 10.709 457.089 C 10.709 429.721 32.772 407.539 59.997 407.539 L 183.218 407.539 L 248.934 448.83 L 314.653 407.539 L 437.874 407.539 C 465.09 407.539 487.161 429.721 487.161 457.089 L 487.161 490.123 L 10.709 490.123 Z" style=""/>
  <path fill="#000" d="M 437.874 399.279 L 322.869 399.279 L 322.869 364.832 C 367.4 340.646 398.978 295.355 404.227 242.369 L 413.23 242.369 C 435.877 242.369 454.303 223.847 454.303 201.078 C 454.303 178.309 435.877 159.785 413.23 159.785 L 405.014 159.785 C 405.039 133.284 397.549 107.327 383.419 84.963 C 383.419 84.963 374.747 73.145 363.916 62.351 C 351.903 50.378 329.167 36.451 317.551 29.694 L 291.693 21.985 C 283.019 20.286 274.194 19.409 265.365 19.392 L 133.929 19.392 C 127.186 19.392 121.032 15.089 118.609 8.697 C 117.237 5.121 113.613 2.951 109.834 3.444 C 94.655 5.534 80.919 13.594 71.637 25.85 C 62.337 38.162 58.345 53.722 60.562 69.026 C 63.603 90.743 79.292 108.311 99.805 115.249 C 95.361 129.675 93.028 144.679 92.895 159.785 L 84.64 159.785 C 61.993 159.785 43.567 178.309 43.567 201.078 C 43.567 223.847 61.993 242.369 84.64 242.369 L 93.644 242.369 C 98.893 295.355 130.47 340.646 175.003 364.832 L 175.003 399.279 L 59.997 399.279 C 28.296 399.279 2.493 425.212 2.493 457.089 L 2.493 490.123 C 2.493 494.681 6.164 498.382 10.709 498.382 L 487.161 498.382 C 491.698 498.382 495.377 494.681 495.377 490.123 L 495.377 457.089 C 495.377 425.212 469.574 399.279 437.874 399.279 M 413.23 176.302 C 426.817 176.302 437.874 187.419 437.874 201.078 C 437.874 214.738 426.817 225.854 413.23 225.854 L 405.014 225.854 L 405.014 176.302 L 413.23 176.302 Z M 76.836 66.722 C 75.234 55.779 78.077 44.646 84.73 35.835 C 90.153 28.593 97.799 23.357 106.499 20.945 C 112.57 30.236 122.865 35.851 133.929 35.91 C 133.929 35.91 79.655 86.821 76.836 66.722 M 59.997 201.078 C 59.997 187.419 71.054 176.302 84.64 176.302 L 92.855 176.302 L 92.855 225.854 L 84.64 225.854 C 71.054 225.854 59.997 214.738 59.997 201.078 M 109.285 226.695 L 109.285 160.628 C 109.285 146.407 111.642 132.227 116.029 118.344 C 117.097 118.404 118.148 118.494 119.226 118.494 L 322.869 118.494 L 331.42 113.469 C 331.41 119.829 335.992 119.511 341.463 116.332 C 342.465 115.754 338.914 128.16 339.595 127.228 L 343.536 140.099 C 351.142 159.191 368.32 172.752 388.586 175.65 L 388.586 226.695 C 388.586 304.11 325.939 367.088 248.934 367.088 C 171.931 367.088 109.285 304.11 109.285 226.695 M 248.934 383.606 C 269.258 383.606 288.621 379.558 306.439 372.431 L 306.439 402.954 L 248.934 439.095 L 191.433 402.954 L 191.433 372.431 C 209.719 379.79 229.228 383.58 248.934 383.606 M 478.949 481.863 L 18.921 481.863 L 18.921 457.089 C 18.921 434.321 37.349 415.797 59.997 415.797 L 180.861 415.797 L 244.582 455.833 C 247.244 457.501 250.626 457.501 253.289 455.833 L 317.01 415.797 L 437.874 415.797 C 460.522 415.797 478.949 434.321 478.949 457.089 L 478.949 481.863 Z" style=""/>
  <path fill="#000" d="M 285.559 317.662 C 281.702 317.662 278.572 316.134 278.572 314.251 C 278.572 311.542 276.12 308.927 271.484 306.686 C 267.396 304.711 261.817 303.167 255.358 302.227 C 251.466 301.658 247.061 301.382 241.89 301.382 C 236.723 301.382 232.318 301.658 228.426 302.227 C 221.963 303.169 216.388 304.712 212.293 306.687 C 207.657 308.927 205.208 311.544 205.208 314.253 C 205.208 316.136 202.078 317.664 198.221 317.664 C 194.364 317.664 191.234 316.136 191.234 314.253 C 191.234 309.749 195.224 305.341 202.462 301.84 C 208.177 299.081 215.772 296.954 224.426 295.692 C 229.631 294.935 235.343 294.564 241.89 294.564 C 248.437 294.564 254.148 294.935 259.358 295.696 C 268.011 296.955 275.602 299.081 281.318 301.84 C 288.56 305.341 292.546 309.749 292.546 314.253 C 292.546 316.134 289.42 317.662 285.559 317.662 Z" style=""/>
  <path d="M 181.948 257.541 C 179.539 257.541 177.099 257.287 174.649 256.753 C 158.389 253.21 147.972 236.773 151.429 220.11 C 152.87 213.158 156.869 207.197 162.686 203.326 C 168.504 199.453 175.444 198.135 182.228 199.614 C 188.085 200.89 193.106 204.427 196.368 209.572 C 199.628 214.717 200.738 220.856 199.494 226.857 C 198.417 232.051 195.43 236.503 191.086 239.393 C 186.742 242.285 181.559 243.27 176.49 242.166 C 167.414 240.189 161.599 231.014 163.529 221.713 C 165.207 213.617 173.003 208.428 180.899 210.152 C 187.798 211.656 192.218 218.631 190.752 225.7 C 189.466 231.898 183.498 235.868 177.451 234.552 C 172.124 233.391 168.712 228.007 169.845 222.551 C 170.33 220.211 171.676 218.206 173.632 216.904 C 175.589 215.601 177.926 215.16 180.206 215.654 C 181.439 215.923 182.226 217.164 181.964 218.428 C 181.701 219.691 180.488 220.496 179.258 220.23 C 177.005 219.738 174.787 221.217 174.308 223.523 C 173.699 226.458 175.535 229.354 178.399 229.978 C 181.992 230.762 185.526 228.404 186.289 224.729 C 187.232 220.182 184.388 215.695 179.951 214.73 C 174.511 213.543 169.148 217.115 167.992 222.688 C 166.586 229.465 170.824 236.154 177.439 237.594 C 181.313 238.438 185.278 237.687 188.6 235.474 C 191.922 233.263 194.206 229.858 195.029 225.887 C 196.021 221.108 195.136 216.218 192.54 212.12 C 189.943 208.022 185.943 205.206 181.28 204.19 C 175.686 202.971 169.966 204.057 165.171 207.25 C 160.376 210.442 157.081 215.354 155.892 221.085 C 152.96 235.224 161.8 249.175 175.598 252.181 C 192.053 255.765 208.278 244.963 211.775 228.105 C 215.935 208.049 203.398 188.263 183.825 184.001 C 168.543 180.674 152.655 186.107 142.368 198.182 C 141.54 199.155 140.097 199.256 139.148 198.406 C 138.199 197.556 138.101 196.08 138.93 195.107 C 150.304 181.753 167.87 175.746 184.774 179.426 C 206.807 184.223 220.922 206.498 216.239 229.075 C 212.739 245.947 198.144 257.54 181.948 257.541 Z" style=""/>
  <path d="M 302.284 251.399 C 299.875 251.399 297.435 251.145 294.985 250.611 C 278.725 247.068 268.308 230.631 271.765 213.968 C 273.206 207.016 277.205 201.055 283.022 197.184 C 288.84 193.311 295.78 191.993 302.564 193.472 C 308.421 194.748 313.442 198.285 316.704 203.43 C 319.964 208.575 321.074 214.714 319.83 220.715 C 318.753 225.909 315.766 230.361 311.422 233.251 C 307.078 236.143 301.895 237.128 296.826 236.024 C 287.75 234.047 281.935 224.872 283.865 215.571 C 285.543 207.475 293.339 202.286 301.235 204.01 C 308.134 205.514 312.554 212.489 311.088 219.558 C 309.802 225.756 303.834 229.726 297.787 228.41 C 292.46 227.249 289.048 221.865 290.181 216.409 C 290.666 214.069 292.012 212.064 293.968 210.762 C 295.925 209.459 298.262 209.018 300.542 209.512 C 301.775 209.781 302.562 211.022 302.3 212.286 C 302.037 213.549 300.824 214.354 299.594 214.088 C 297.341 213.596 295.123 215.075 294.644 217.381 C 294.035 220.316 295.871 223.212 298.735 223.836 C 302.328 224.62 305.862 222.262 306.625 218.587 C 307.568 214.04 304.724 209.553 300.287 208.588 C 294.847 207.401 289.484 210.973 288.328 216.546 C 286.922 223.323 291.16 230.012 297.775 231.452 C 301.649 232.296 305.614 231.545 308.936 229.332 C 312.258 227.121 314.542 223.716 315.365 219.745 C 316.357 214.966 315.472 210.076 312.876 205.978 C 310.279 201.88 306.279 199.064 301.616 198.048 C 296.022 196.829 290.302 197.915 285.507 201.108 C 280.712 204.3 277.417 209.212 276.228 214.943 C 273.296 229.082 282.136 243.033 295.934 246.039 C 312.389 249.623 328.614 238.821 332.111 221.963 C 336.271 201.907 323.734 182.121 304.161 177.859 C 288.879 174.532 272.991 179.965 262.704 192.04 C 261.876 193.013 260.433 193.114 259.484 192.264 C 258.535 191.414 258.437 189.938 259.266 188.965 C 270.64 175.611 288.206 169.604 305.11 173.284 C 327.143 178.081 341.258 200.356 336.575 222.933 C 333.075 239.805 318.48 251.398 302.284 251.399 Z" style=""/>
  <path fill="#f15e5b" d="M 434.899 107.716 C 415.824 107.716 400.291 90.131 400.291 68.538 C 400.291 46.945 415.824 29.36 434.899 29.36 C 453.973 29.36 469.507 46.945 469.507 68.538 C 469.507 90.131 454.088 107.716 434.899 107.716 Z M 434.899 55.091 C 428.389 55.091 423.134 61.039 423.134 68.409 C 423.134 75.779 428.389 81.727 434.899 81.727 C 441.409 81.727 446.663 75.779 446.663 68.409 C 446.663 61.039 441.409 55.091 434.899 55.091 Z" style=""/>
  <path d="M 358.567 74.583 C 355.407 74.583 352.156 74.583 348.81 74.741 C 319.171 75.452 282.192 79.398 241.775 86.106 C 233.505 87.448 225.05 88.946 216.409 90.604 C 206.282 92.499 196.061 94.55 185.654 96.839 C 136.04 107.493 90.046 120.278 52.881 134.011 C 41.266 138.271 30.767 142.534 21.755 146.637 C 17.203 148.69 15.53 153.503 17.945 157.292 C 20.36 161.159 26.028 162.58 30.489 160.528 C 39.131 156.582 49.072 152.557 60.22 148.452 C 96.085 135.273 142.17 122.409 190.207 112.149 C 200.428 109.94 210.555 107.887 220.497 106.072 C 228.951 104.495 237.222 102.995 245.399 101.653 C 284.887 95.102 320.843 91.315 349.46 90.604 C 391.274 89.579 402.515 95.734 403.259 97.391 C 403.351 97.865 402.422 100.706 396.104 105.52 C 392.294 108.44 392.016 113.412 395.454 116.648 C 398.891 119.883 404.745 120.121 408.554 117.201 C 419.238 108.992 423.514 101.022 421.283 93.524 C 417.474 80.739 396.94 74.583 358.567 74.583 Z" style="paint-order: stroke; fill: rgb(191, 191, 191); transform-origin: 219.349px 118.024px;" transform="matrix(-1, 0, 0, -1, 0, 0.000015258789)"/>
</svg>