<svg xmlns="http://www.w3.org/2000/svg" width="24" height="24" viewBox="0 0 24 24"><path fill="#cbd5e1" d="M22,12a18.8974,18.8974,0,0,1-3.224,3.9479L8.67,5.8417A6.9689,6.9689,0,0,1,12,5C18,5,22,12,22,12Z"/><path fill="#fdba74" d="M17.1557,17.3616C12.0834,20.7115,6.0974,18.9243,2,12A16.4265,16.4265,0,0,1,6.5881,6.8124l3.188,3.1824a2.993,2.993,0,0,0,4.2317,4.2244Z"/><path fill="#0f172a" d="M22.4307,11.7451a.502.502,0,0,1,0,.51A18.5453,18.5453,0,0,1,19.1981,16.37l-.7206-.7206A17.1489,17.1489,0,0,0,21.417,12q-.3891-.6381-.8015-1.2171l-3.38,3.6246-.7069-.7069,3.4689-3.72a15.3885,15.3885,0,0,0-1.4658-1.5974L14.7783,11.95l-.7074-.7075L17.78,7.7181A11.029,11.029,0,0,0,15.9621,6.51L12.5128,9.6846l-.7077-.7077,3.1638-2.9124a8.78,8.78,0,0,0-1.0949-.3418,8.0044,8.0044,0,0,0-1.3713-.196L10.3173,7.4891,9.6091,6.781,10.9243,5.6a8.5057,8.5057,0,0,0-1.9906.5055l-.7578-.7578a9.1325,9.1325,0,0,1,5.9305-.5973C17.2949,5.5117,20.1729,7.9307,22.4307,11.7451ZM2.3535,1.6465a.5.5,0,0,0-.707.707L5.9647,6.6717a17.1711,17.1711,0,0,0-4.3954,5.0734.502.502,0,0,0,0,.51c2.2764,3.8462,5.1807,6.271,8.3975,7.0122A9.0266,9.0266,0,0,0,11.999,19.5a9.7421,9.7421,0,0,0,5.2031-1.5909l4.4444,4.4444a.5.5,0,0,0,.707-.707Zm7.5632,8.9773,3.4606,3.4606a2.4964,2.4964,0,0,1-3.4606-3.4606Zm.2747,7.6687C7.3174,17.63,4.6914,15.457,2.583,12A15.8685,15.8685,0,0,1,6.6741,7.3811L9.2077,9.9147a3.4818,3.4818,0,0,0,4.8781,4.8781l2.3924,2.3924A8.3865,8.3865,0,0,1,10.1914,18.2925Z"/></svg>