<svg xmlns="http://www.w3.org/2000/svg" enable-background="new 0 0 47.5 47.5" viewBox="0 0 47.5 47.5" id="computer"><defs><clipPath id="a"><path d="M0 38h38V0H0v38Z"></path></clipPath></defs><g clip-path="url(#a)" transform="matrix(1.25 0 0 -1.25 0 47.5)"><path fill="#ccd6dd" d="M0 0a4 4 0 0 0-4-4h-28a4 4 0 0 0-4 4v18a4 4 0 0 0 4 4h28a4 4 0 0 0 4-4V0Z" transform="translate(37 15)"></path><path fill="#5dadec" d="M33 15H5v18h28V15Z"></path><path fill="#ccd6dd" d="M24 5H14v6h10V5z"></path><path fill="#9aaab4" d="M24 9H14v2h10V9z"></path><path fill="#e1e8ed" d="M0 0a3 3 0 0 1-3 3h-30a3 3 0 1 1 0-6h30a3 3 0 0 1 3 3" transform="translate(37 4)"></path><path fill="#f5f8fa" d="M6 3H4v2h2V3ZM10 3H8v2h2V3ZM14 3h-2v2h2V3zM18 3h-2v2h2V3zM22 3h-2v2h2V3zM26 3h-2v2h2V3zM30 3h-2v2h2V3zM34 3h-2v2h2V3z"></path></g></svg>