<svg xmlns="http://www.w3.org/2000/svg" data-name="Layer 1" viewBox="0 0 64 64"><path fill="#60ba83" d="M46 3h15v15h-5v1.5a2.5 2.5 0 1 1-5 0V18h-5v-5h1.5a2.5 2.5 0 0 0 0-5H46Z"/><path fill="#f4f4f2" d="m20 53-1-8h-8a2 2 0 0 1-2-2v-6H3l6-10v-1a15 15 0 0 1 15-15 15 15 0 0 1 15 15v35H3l3-4.53a4 4 0 0 1 2.72-1.74L20 53l-1-8"/><path fill="#d8d8d8" d="M24 11a14.88 14.88 0 0 0-7.36 1.94A16 16 0 0 1 9 43a2 2 0 0 0 2 2h8l1 8-11.26 1.73A4 4 0 0 0 6 56.47L3 61h36V26a15 15 0 0 0-15-15Z"/><path fill="#1c998b" d="M46 18v-5h1.5a2.5 2.5 0 0 0 0-5H46V3H31v15h5v-1.5a2.5 2.5 0 1 1 5 0V18Z"/><path fill="#d62915" d="M61 46v15H46v-5h-1.5a2.5 2.5 0 1 1 0-5H46v-5h5v1.5a2.5 2.5 0 0 0 5 0V46Z"/><path fill="#60ba83" d="M46 32h-1.5a2.5 2.5 0 0 0 0 5H46v5H31V27h5v-1.5a2.5 2.5 0 1 1 5 0V27h5Z"/><path fill="#26beb0" d="M19 19h2v2h-2zM23 15h2v2h-2zM27 19h2v2h-2zM17 23h2v2h-2zM29 23h2v2h-2zM19 27h2v2h-2zM27 27h2v2h-2zM23 31h2v2h-2z"/></svg>