<svg xmlns="http://www.w3.org/2000/svg" viewBox="0 0 512 512"><g data-name="filled outline"><path fill="#00b377" d="M408.36,496H504l-.19-88L504,263.07A55,55,0,0,0,449,208H63.07a54.994,54.994,0,0,0-55,55V408l.29,88h400Z"/><polygon fill="#f9b2d6" points="503.81 408 504 496 408.36 496 408.07 408 503.81 408"/><polygon fill="#f9b2d6" points="104.07 408 104.36 496 8.36 496 8.07 408 104.07 408"/><path fill="#f9b2d6" d="M312.008,208a56,56,0,0,1-112,0Z"/><rect width="40" height="136" x="236.008" y="95.996" fill="#f9b2d6"/><path fill="#ffc682" d="M488.273,372a123.488,123.488,0,0,1-9.64,48,121.977,121.977,0,0,1-8.13,16,124.014,124.014,0,0,1-212.46,0,121.977,121.977,0,0,1-8.13-16,124.322,124.322,0,0,1,0-96,122.035,122.035,0,0,1,8.14-16,123.971,123.971,0,0,1,97.1-59.67q4.515-.33,9.12-.33a123.889,123.889,0,0,1,124,124Z"/><path fill="#f6646c" d="M292.273,408c0-39.765,72-144,72-144s72,104.235,72,144a72,72,0,0,1-144,0Z"/><ellipse cx="404.273" cy="424" fill="#f2444e" rx="12" ry="8"/><ellipse cx="331.72" cy="429.277" fill="#f2444e" rx="9.723" ry="14.584" transform="rotate(-45 331.72 429.277)"/><ellipse cx="372.846" cy="455.794" fill="#f2444e" rx="10.743" ry="7.162" transform="rotate(-30 372.846 455.794)"/><ellipse cx="385.672" cy="360" fill="#f2444e" rx="12" ry="8" transform="rotate(-40.087 385.67 359.999)"/><ellipse cx="362.245" cy="312.157" fill="#f2444e" rx="10.743" ry="7.162" transform="rotate(-45 362.246 312.157)"/><ellipse cx="364.273" cy="400" fill="#f2444e" rx="12" ry="8"/><ellipse cx="322.245" cy="384.206" fill="#f2444e" rx="10.743" ry="7.162" transform="rotate(-30 322.245 384.205)"/><ellipse cx="346.533" cy="344.157" fill="#f2444e" rx="7.162" ry="10.743" transform="rotate(-66.487 346.53 344.156)"/><path fill="#f9b2d6" d="M295.352,62.512l18.407,73.738a40,40,0,0,1-29.12,48.5h0a40,40,0,0,1-48.5-29.119L217.734,81.889Z"/><path fill="#535049" d="M320.016,46.767,328,77.691l-20.035,5.172a96.553,96.553,0,0,1-66-6.483h0l1.763,15.787a49.813,49.813,0,0,1-30.589,51.608h0L187.163,94.917c-14.1-26.521,8.411-57.674,38.018-52.616h0l21.253-18.439A45.32,45.32,0,0,1,285.6,13.774h0A45.317,45.317,0,0,1,320.016,46.767Z"/><circle cx="231.51" cy="136" r="20" fill="#f9b2d6"/><polygon fill="#ffa54f" points="349.235 81.754 355.067 91.95 366.773 92.927 358.877 101.625 361.566 113.059 350.854 108.238 340.81 114.328 342.085 102.651 333.189 94.98 344.689 92.585 349.235 81.754"/><polygon fill="#ffa54f" points="161.842 40.831 161.367 52.568 170.766 59.614 159.456 62.789 155.66 73.905 149.146 64.13 137.4 63.954 144.684 54.738 141.221 43.514 152.237 47.593 161.842 40.831"/><path d="M449,204H280.01V189.638a43.99,43.99,0,0,0,37.631-54.357l-.714-2.857c15.435,4.055,28.746,6.581,38.734,7.331q3.288.248,6.1.248c9.874,0,15.467-2.3,17.429-7.078,2.427-5.929-1.872-13.152-13.478-22.627l-1.962-8.343,6.482-7.141a4,4,0,0,0-2.629-6.674l-9.61-.8-4.788-8.372a4,4,0,0,0-7.161.438L342.314,88.3l-7.356,1.532c-4.078-2.36-7.587-4.358-11.819-6.621l5.97-1.54a4,4,0,0,0,2.874-4.873L324,45.873A49.341,49.341,0,0,0,319.6,34.745c39.955-10.752,51.24-7.323,52.188-5.011.6,1.471-3.558,10.816-34.933,29.661a4,4,0,1,0,4.119,6.857c12.9-7.749,22.774-14.785,29.343-20.912,8.039-7.5,10.941-13.6,8.873-18.641-2.317-5.649-9.559-8.011-22.141-7.226-10.453.653-24.6,3.425-42.041,8.233a49.316,49.316,0,0,0-71.087-6.763L224.054,38.182a40.63,40.63,0,0,0-6.826-.242l.054-.159c-25.081-8.486-47.226-14.3-64.04-16.8-19.787-2.949-30.31-1.131-33.122,5.721-2.832,6.9,3.486,15.667,19.864,27.535l-5.722,7.239a4,4,0,0,0,3.078,6.48l9.643.144,5.348,8.025a4,4,0,0,0,3.328,1.782,3.923,3.923,0,0,0,.517-.033,4,4,0,0,0,3.269-2.674l2.355-6.9c5.35,3.134,11.109,6.334,17.2,9.555,0,1.272.065,2.545.183,3.816-18.347,9.692-33.416,19.034-43.7,27.106-13.039,10.232-17.919,17.906-15.359,24.149,1.96,4.78,7.55,7.076,17.425,7.076q2.843,0,6.163-.252c11.2-.849,26.55-3.917,44.4-8.874a4,4,0,0,0-2.14-7.709c-45.62,12.671-57.7,8.526-58.443,6.724-.015-.036-.841-4.04,12.9-14.82,9.529-7.477,23.432-16.145,40.4-25.21a40.734,40.734,0,0,0,2.917,7.04l25.822,48.553a23.918,23.918,0,0,0,22.45,14.308V204h-169a59.066,59.066,0,0,0-59,59V407.981l0,.019,0,.019V496a4,4,0,0,0,8,0V412h88v82a4,4,0,0,0,8,0V312a4,4,0,0,0-8,0v92h-88V263a51.058,51.058,0,0,1,51-51H196.156a59.984,59.984,0,0,0,119.7,0H449a51.058,51.058,0,0,1,51,51V404H488.24A127.99,127.99,0,0,0,364.273,244c-3.148,0-6.314.114-9.411.341a128.174,128.174,0,0,0-100.23,61.586,127.931,127.931,0,0,0-.014,132.139,128.018,128.018,0,0,0,219.309,0,126.39,126.39,0,0,0,8.393-16.516q1.984-4.719,3.571-9.552H500v84a4,4,0,0,0,8,0V263A59.067,59.067,0,0,0,449,204ZM291.454,112.958a3.993,3.993,0,0,0-7.869.97c-11.51-3.917-23.455-8.351-35.533-13.188a53.931,53.931,0,0,0-.246-8.908l-.993-8.9a100.714,100.714,0,0,0,51.041,6.122l7.98,31.964q-6.558-1.938-13.405-4.151ZM346.005,95.7a4,4,0,0,0,2.872-2.368l1.41-3.358,1.808,3.162a4,4,0,0,0,3.139,2l3.63.3-2.448,2.7a4,4,0,0,0-.933,3.6l.834,3.546-3.321-1.5a4,4,0,0,0-3.716.228l-3.114,1.887.4-3.62A4,4,0,0,0,345.2,98.82l-2.757-2.378Zm-15.62.727a4,4,0,0,0,.692.782l7.3,6.3-1.048,9.587a4,4,0,0,0,6.051,3.854l8.246-5L359.3,115.4c13.3,10.533,12.5,14.46,12.491,14.492-.733,1.782-12.6,5.852-57.08-6.348l-8.967-35.917c1.111-.247,2.221-.5,3.326-.789l2.469-.637C319.341,90.146,323.925,92.694,330.385,96.427ZM218.91,45.858a33.893,33.893,0,0,1,5.706.49,3.987,3.987,0,0,0,3.3-.921l21.248-18.44a41.328,41.328,0,0,1,67.1,20.888l6.98,27.046-16.168,4.171A92.648,92.648,0,0,1,243.8,72.881a4,4,0,0,0-5.71,4.048l1.76,15.789a45.633,45.633,0,0,1,.274,4.8c-18.653-7.708-36.816-16.079-52.812-24.341a32.328,32.328,0,0,1,5.816-13.962A31.444,31.444,0,0,1,218.91,45.858ZM155.671,61.5l-1.177,3.446-2.02-3.03a4,4,0,0,0-3.268-1.782l-3.642-.054,2.258-2.857a4,4,0,0,0,.684-3.659l-1.073-3.481,3.415,1.265a4,4,0,0,0,3.692-.481l2.978-2.095-.148,3.638a4,4,0,0,0,1.6,3.363l2.915,2.184-3.507.985A4,4,0,0,0,155.671,61.5Zm14.543,2.428,1.633-.458a4,4,0,0,0,1.319-7.052l-7.717-5.785.39-9.636a4,4,0,0,0-6.3-3.432l-7.886,5.55-9.044-3.348a3.978,3.978,0,0,0-5.143,2.394c-10.6-8.926-9.962-12.38-9.946-12.419s2.723-4.1,24.541-.846c13.625,2.031,30.947,6.33,50.6,12.526a40.432,40.432,0,0,0-22.682,27.894C176.607,67.5,173.343,65.7,170.214,63.924Zm40.6,59.7a24.249,24.249,0,0,0-1.8,3.767L190.8,93.147a33.229,33.229,0,0,1-3.05-8.135,3.972,3.972,0,0,0,.03-2.611c15.729,7.96,33.3,15.958,51.25,23.32l.372.151a45.866,45.866,0,0,1-1.719,6.708,23.975,23.975,0,0,0-26.875,11.044ZM256.008,260a52.059,52.059,0,0,1-51.831-48H236.01a4,4,0,0,0,4-4V155.4a4.227,4.227,0,0,0-.52-2.122,4,4,0,0,0-4.383-1.921,15.96,15.96,0,0,1-18.087-8.819,4.259,4.259,0,0,0-.238-.538l-.016-.029a15.432,15.432,0,0,1-.736-2.168,15.984,15.984,0,0,1,21.757-18.74,3.983,3.983,0,0,0,5.889-1.815,53.68,53.68,0,0,0,3.291-10.325c13.222,5.255,26.275,10.026,38.77,14.169l2.8,11.212-7.6,1.9a4.11,4.11,0,0,0-3.173,4.306,4,4,0,0,0,4.952,3.5l11.642-2.906a4,4,0,0,0,2.913-4.85l-2.561-10.258q6.832,2.146,13.37,4.01l1.635,6.55a36.906,36.906,0,0,1-3.6,27.411,36.021,36.021,0,0,1-30.2,17.974l-.125,0c-.238.013-.47.014-.7.014a35.945,35.945,0,0,1-7.785-.827,3.969,3.969,0,0,0-4.6,2.678h0a4.008,4.008,0,0,0,2.966,5.153,43.879,43.879,0,0,0,6.339.891V208a4,4,0,0,0,4,4h31.828A52.058,52.058,0,0,1,256.008,260ZM467.079,433.933A119.192,119.192,0,0,1,364.273,492a119.778,119.778,0,0,1-102.806-58.068,119.84,119.84,0,0,1,.011-123.865,120.166,120.166,0,0,1,93.966-57.748c2.9-.212,5.875-.319,8.829-.319a119.19,119.19,0,0,1,102.806,58.068,120.9,120.9,0,0,1,7.876,15.481,119.987,119.987,0,0,1-7.876,108.384Z"/><path d="M272.465 158.631l21.342 2.918a4.065 4.065 0 00.547.037 4 4 0 00.537-7.963l-21.342-2.918a4 4 0 10-1.084 7.926zM364.273 260a4 4 0 00-3.291 1.727c-2.969 4.3-72.709 105.727-72.709 146.273a76 76 0 00152 0c0-40.546-69.74-141.976-72.709-146.273A4 4 0 00364.273 260zm0 216a68.077 68.077 0 01-68-68c0-33.291 53.977-115.955 68-136.867 14.024 20.911 68 103.568 68 136.867A68.077 68.077 0 01364.273 476z"/><path d="M388.273 424c0 6.729 7.028 12 16 12s16-5.271 16-12-7.028-12-16-12S388.273 417.271 388.273 424zm16-4c4.883 0 8 2.369 8 4s-3.117 4-8 4-8-2.369-8-4S399.39 420 404.273 420zM318.579 416.137c-5.44 5.44-3.931 15.474 3.438 22.843 4.39 4.391 9.726 6.7 14.474 6.7a11.571 11.571 0 008.37-3.264h0c5.441-5.44 3.931-15.476-3.438-22.844S324.021 410.7 318.579 416.137zM339.2 436.762c-1.91 1.91-7.247.844-11.53-3.438s-5.348-9.621-3.438-11.531a3.751 3.751 0 012.706-.912c2.481 0 5.9 1.424 8.825 4.349C340.05 429.515 341.114 434.852 339.2 436.762zM367.265 446.128c-7.159 4.133-10.316 11.617-7.187 17.038a10.2 10.2 0 008.464 4.805c.306.019.613.029.923.029a18.2 18.2 0 008.962-2.539 17.836 17.836 0 007.116-7.306 10.2 10.2 0 00.071-9.732C382.485 443 374.424 441.994 367.265 446.128zm11.107 8.481a10.856 10.856 0 01-9.315 5.378 2.617 2.617 0 01-2.051-.821c-.557-.965.637-4.019 4.259-6.11a10.111 10.111 0 014.952-1.463 2.942 2.942 0 012.47.83A2.616 2.616 0 01378.372 454.609zM373.431 370.3a10.481 10.481 0 008.245 3.557 18.648 18.648 0 0011.723-4.68c6.864-5.778 8.847-14.335 4.514-19.484h0c-2.232-2.652-5.822-3.908-9.837-3.464a19.463 19.463 0 00-10.131 4.587C371.081 356.6 369.1 365.154 373.431 370.3zm9.666-13.365a11.566 11.566 0 015.87-2.755 6.159 6.159 0 01.7-.041 2.767 2.767 0 012.122.705c1.05 1.248.192 5.067-3.544 8.212s-7.647 3.339-8.7 2.092S379.36 360.085 383.1 356.939zM351.819 322.581a9.62 9.62 0 006.926 2.7 12.7 12.7 0 002.494-.253 18.783 18.783 0 0013.882-13.882 10.208 10.208 0 00-2.451-9.419c-4.426-4.425-12.472-3.312-18.318 2.533S347.4 318.156 351.819 322.581zm8.19-12.661a8.861 8.861 0 015.764-2.892 1.772 1.772 0 011.24.36h0a2.614 2.614 0 01.262 2.192 10.857 10.857 0 01-7.606 7.607 2.612 2.612 0 01-2.193-.263C356.688 316.137 357.051 312.878 360.009 309.92zM380.273 400c0-6.729-7.028-12-16-12s-16 5.271-16 12 7.028 12 16 12S380.273 406.729 380.273 400zm-24 0c0-1.631 3.117-4 8-4s8 2.369 8 4-3.117 4-8 4S356.273 401.631 356.273 400zM318.864 396.411a18.2 18.2 0 008.962-2.539 17.836 17.836 0 007.116-7.306 10.2 10.2 0 00.071-9.732c-3.129-5.421-11.19-6.428-18.349-2.3s-10.316 11.617-7.187 17.038a10.2 10.2 0 008.464 4.805C318.247 396.4 318.554 396.411 318.864 396.411zm-2.459-8.834c-.557-.965.637-4.018 4.259-6.11A10.111 10.111 0 01325.616 380a2.938 2.938 0 012.469.83 2.614 2.614 0 01-.314 2.187 10.858 10.858 0 01-9.315 5.377A2.613 2.613 0 01316.4 387.577zM342.08 354.393a18.725 18.725 0 007.424 1.612c4.791 0 8.878-2.127 10.549-5.967a10.2 10.2 0 00-1.171-9.661 17.833 17.833 0 00-7.9-6.456c-7.582-3.3-15.475-1.386-17.972 4.353a10.209 10.209 0 001.17 9.663A17.833 17.833 0 00342.08 354.393zm-1.73-12.927c.263-.605 1.478-1.152 3.22-1.152a10.684 10.684 0 014.225.943 9.949 9.949 0 014.363 3.453 2.617 2.617 0 01.559 2.137c-.445 1.021-3.61 1.879-7.446.21a9.953 9.953 0 01-4.362-3.453A2.615 2.615 0 01340.35 341.466z"/></g></svg>