<svg xmlns="http://www.w3.org/2000/svg" enable-background="new 0 0 256 256" viewBox="0 0 256 256"><switch><g><path fill="#122436" d="M66.493 215.659l-3.034 3.974c1.346 1.028 2.717 2.024 4.112 2.988l2.842-4.113 0 0C69.083 217.589 67.776 216.639 66.493 215.659zM41.33 187.775c-.84-1.373-1.649-2.768-2.425-4.184l-4.384 2.404c.814 1.485 1.663 2.949 2.545 4.389L41.33 187.775 41.33 187.775zM66.338 53.898c1.279-.981 2.582-1.932 3.909-2.853l-2.851-4.108c-1.391.966-2.759 1.964-4.101 2.993L66.338 53.898 66.338 53.898zM54.941 212.398c1.232 1.162 2.492 2.295 3.778 3.398l3.255-3.795c-1.226-1.052-2.427-2.132-3.602-3.24L54.941 212.398zM47.352 196.55c-.98-1.28-1.931-2.583-2.851-3.91l-4.109 2.849c.965 1.392 1.962 2.76 2.991 4.102L47.352 196.55 47.352 196.55zM58.237 60.809c1.172-1.11 2.369-2.192 3.593-3.246l-3.263-3.789c-1.283 1.105-2.54 2.241-3.769 3.405L58.237 60.809 58.237 60.809zM47.224 204.321c1.105 1.284 2.239 2.541 3.403 3.77l3.632-3.437 0 0c-1.109-1.172-2.191-2.371-3.244-3.595L47.224 204.321z"/><polygon fill="#122436" points="61.974 212.001 61.974 212.001 61.974 212.001"/><path fill="#122436" d="M84.456 42.799c1.451-.692 2.921-1.35 4.41-1.974l-1.933-4.611c-1.562.655-3.105 1.346-4.628 2.072L84.456 42.799 84.456 42.799zM82.53 231.261c1.531.726 3.081 1.416 4.65 2.07l1.923-4.615v0c-1.495-.623-2.973-1.281-4.431-1.972L82.53 231.261zM98.889 37.231l-1.437-4.789c-1.627.488-3.238 1.014-4.831 1.577l1.665 4.715C95.804 38.197 97.338 37.696 98.889 37.231zM79.291 45.444l-2.406-4.383c-1.485.815-2.948 1.665-4.388 2.547l2.612 4.263C76.482 47.031 77.876 46.221 79.291 45.444z"/><polygon fill="#122436" points="75.109 47.872 75.109 47.872 75.109 47.872"/><path fill="#122436" d="M72.687,225.945c1.446,0.882,2.915,1.73,4.404,2.544l2.397-4.388c-1.42-0.776-2.82-1.584-4.198-2.425
						L72.687,225.945z"/><polygon fill="#122436" points="79.488 224.101 79.488 224.101 79.488 224.102"/><path fill="#122436" d="M217.459 85.761l4.382-2.409c-.816-1.484-1.666-2.947-2.549-4.387l-4.262 2.614C215.872 82.953 216.682 84.347 217.459 85.761zM211.854 76.719l4.106-2.853c-.967-1.391-1.965-2.758-2.995-4.099l-3.966 3.044C209.981 74.091 210.933 75.394 211.854 76.719zM47.238 73.048l-3.976-3.032c-1.027 1.347-2.023 2.718-2.986 4.114l4.115 2.84C45.31 75.64 46.259 74.332 47.238 73.048z"/><polygon fill="#122436" points="36.262 178.426 36.262 178.427 36.262 178.427"/><polygon fill="#122436" points="215.03 81.58 215.03 81.58 215.03 81.58"/><path fill="#122436" d="M224.178 100.752c.537 1.518 1.039 3.052 1.505 4.602l4.788-1.439c-.489-1.627-1.016-3.237-1.579-4.83L224.178 100.752 224.178 100.752zM220.108 90.924c.692 1.451 1.352 2.921 1.976 4.409l4.61-1.936c-.656-1.562-1.348-3.104-2.074-4.627L220.108 90.924 220.108 90.924z"/><polygon fill="#122436" points="94.286 38.733 94.286 38.733 94.286 38.733"/><path fill="#122436" d="M50.894 68.527c1.051-1.227 2.131-2.428 3.238-3.603l-3.639-3.429c-1.161 1.233-2.294 2.493-3.396 3.779L50.894 68.527 50.894 68.527zM30.701 163.99l-4.79 1.435c.487 1.628 1.013 3.238 1.574 4.832l4.715-1.663C31.666 167.076 31.166 165.541 30.701 163.99zM29.195 158.379c-.344-1.447-.65-2.909-.931-4.379-.391-2.043-.727-4.105-.995-6.191-.186-1.447-.336-2.905-.46-4.371-.175-2.052-.296-4.121-.347-6.208v-.001c-.021-.855-.032-1.707-.032-2.557 0-.009 0-.018 0-.027.001-2.825.121-5.622.348-8.39.027-.325.058-.649.088-.973.053-.573.108-1.144.171-1.714.037-.341.076-.681.117-1.021.277-2.323.635-4.621 1.066-6.894.275-1.45.572-2.892.908-4.319l-4.867-1.145c-.044.186-.082.374-.125.56l-.005-.001c-.05.216-.092.434-.14.651-.136.609-.269 1.219-.394 1.832-.07.342-.137.684-.203 1.027-.058.302-.123.601-.179.904l.01.002c-.369 1.99-.682 3.998-.938 6.024l-.01-.001c-.032.254-.057.511-.088.766-.043.358-.084.716-.123 1.075-.065.6-.124 1.201-.179 1.804-.031.337-.064.674-.092 1.012-.011.133-.026.264-.036.397l.008.001c-.158 2.015-.26 4.044-.304 6.087l-.008 0c-.017.771-.025 1.544-.025 2.318 0 .008 0 .016 0 .025 0 .892.011 1.787.033 2.683v0l.001.053h.001c.051 2.045.165 4.073.33 6.087l-.006.001c.032.397.074.791.111 1.187.034.367.065.736.103 1.102.056.542.12 1.081.184 1.621.039.329.074.659.116.987.007.051.012.104.018.155l.003 0c.262 2.026.585 4.032.958 6.02l-.008.001c.055.292.118.582.175.874.077.393.154.786.236 1.178.096.461.198.921.3 1.38.06.27.114.543.176.812l.006-.001c.056.242.107.486.164.728L29.195 158.379zM41.225 81.849l-4.27-2.601c-.881 1.447-1.729 2.915-2.542 4.406l4.389 2.395C39.577 84.628 40.385 83.228 41.225 81.849zM34.29 174.016l-4.612 1.931c.654 1.563 1.344 3.106 2.069 4.629l4.515-2.149C35.571 176.975 34.913 175.505 34.29 174.016zM30.62 105.719c.462-1.555.96-3.095 1.493-4.618l-4.719-1.652c-.56 1.599-1.082 3.215-1.567 4.847L30.62 105.719 30.62 105.719z"/><polygon fill="#122436" points="38.802 86.048 38.802 86.048 38.802 86.048"/><path fill="#122436" d="M36.163,91.233l-4.519-2.14c-0.725,1.531-1.414,3.082-2.067,4.651l4.616,1.921
						C34.815,94.17,35.472,92.692,36.163,91.233z"/><polygon fill="#122436" points="208.999 72.812 208.999 72.812 208.999 72.812"/><path fill="#122436" d="M190.157 215.483c-1.278.982-2.58 1.935-3.906 2.857l2.855 4.105c1.391-.967 2.757-1.966 4.098-2.997L190.157 215.483 190.157 215.483zM201.394 56.971c-1.233-1.161-2.494-2.293-3.781-3.394l-3.251 3.799c1.227 1.05 2.429 2.129 3.605 3.236L201.394 56.971z"/><polygon fill="#122436" points="202.084 64.714 202.084 64.714 202.084 64.714"/><path fill="#122436" d="M192.87 49.745c-1.347-1.027-2.719-2.021-4.115-2.984l-2.838 4.116h0c1.331.918 2.639 1.866 3.924 2.845L192.87 49.745zM198.251 208.564c-1.171 1.111-2.367 2.194-3.59 3.25l3.267 3.785c1.282-1.107 2.538-2.243 3.765-3.408L198.251 208.564 198.251 208.564zM172.05 226.6c-1.45.693-2.92 1.353-4.408 1.979l1.938 4.609c1.561-.657 3.104-1.349 4.626-2.077L172.05 226.6 172.05 226.6zM181.391 221.518c-1.372.842-2.766 1.653-4.18 2.432l2.411 4.381c1.484-.817 2.946-1.667 4.386-2.551L181.391 221.518 181.391 221.518zM183.635 43.442c-1.447-.881-2.916-1.727-4.407-2.54l-2.393 4.39v0c1.421.774 2.822 1.582 4.201 2.421L183.635 43.442zM217.66 183.305c-.774 1.421-1.58 2.822-2.419 4.202l4.273 2.597c.88-1.448 1.726-2.917 2.538-4.408L217.66 183.305 217.66 183.305zM225.823 163.626c-.46 1.555-.957 3.096-1.488 4.62l4.721 1.647c.558-1.6 1.079-3.216 1.562-4.848L225.823 163.626 225.823 163.626zM209.119 65.041c-1.106-1.283-2.242-2.539-3.406-3.767l-3.628 3.44c1.11 1.171 2.193 2.368 3.248 3.591L209.119 65.041zM234.962 137.008c.015-.744.023-1.49.023-2.238 0-.891-.011-1.784-.033-2.68l-.004-.162-.002 0c-.053-2.044-.169-4.073-.335-6.086l.007-.001c-.032-.387-.073-.772-.109-1.158-.033-.359-.065-.718-.102-1.076-.057-.546-.121-1.09-.186-1.633-.039-.327-.074-.656-.116-.983-.008-.067-.015-.134-.024-.201l-.004.001c-.264-2.026-.588-4.032-.964-6.019l.008-.001c-.055-.289-.117-.575-.174-.862-.076-.386-.153-.773-.233-1.158-.098-.467-.201-.932-.304-1.397-.058-.261-.111-.525-.171-.786l-.006.002c-.059-.256-.113-.513-.174-.768l-4.863 1.162h0c.345 1.445.652 2.904.935 4.373.396 2.053.735 4.128 1.006 6.224.184 1.429.334 2.87.459 4.318.181 2.094.306 4.204.359 6.334.021.854.031 1.705.031 2.555 0 2.803-.118 5.579-.341 8.326-.026.317-.056.632-.085.948-.052.573-.107 1.146-.169 1.716-.036.337-.075.673-.114 1.008-.273 2.32-.628 4.616-1.055 6.886-.275 1.462-.574 2.916-.911 4.356l4.868 1.14c.057-.241.106-.485.161-.727l.006.001c.054-.239.1-.481.153-.72.12-.548.238-1.096.35-1.647.074-.367.146-.735.217-1.103.05-.26.105-.518.153-.779l-.01-.002c.367-1.99.678-3.999.932-6.025l.01.001c.033-.265.059-.533.091-.799.042-.352.082-.705.12-1.058.065-.599.122-1.2.177-1.802.03-.33.062-.659.089-.99.011-.135.026-.27.036-.405l-.008-.001c.156-2.015.255-4.044.298-6.087L234.962 137.008zM222.26 173.683c-.621 1.496-1.276 2.975-1.966 4.434l4.521 2.135c.723-1.532 1.411-3.083 2.063-4.653L222.26 173.683 222.26 173.683zM205.586 200.838c-1.05 1.228-2.128 2.43-3.235 3.607l3.642 3.425c1.16-1.234 2.291-2.495 3.392-3.783L205.586 200.838 205.586 200.838zM173.787 38.136c-1.531-.724-3.083-1.413-4.652-2.065l-1.919 4.617v0c1.496.622 2.974 1.278 4.434 1.968L173.787 38.136zM212.08 192.388c-.917 1.331-1.865 2.64-2.843 3.925l3.979 3.028c1.026-1.348 2.02-2.72 2.982-4.117L212.08 192.388 212.08 192.388z"/><polygon fill="#122436" points="130.92 236.463 130.92 236.463 130.92 236.463"/><path fill="#122436" d="M115.248 235.686l-.63 4.96c1.673.213 3.358.386 5.054.52l.394-4.984 0 0C118.448 236.054 116.842 235.888 115.248 235.686zM114.973 33.799c1.594-.207 3.199-.377 4.816-.51l-.409-4.983c-1.696.139-3.38.318-5.051.535L114.973 33.799 114.973 33.799zM162.224 230.676c-1.517.538-3.051 1.04-4.601 1.507l1.442 4.788c1.627-.49 3.237-1.018 4.829-1.582L162.224 230.676 162.224 230.676zM130.715 236.469c-.855.021-1.707.031-2.558.031-.765 0-1.527-.008-2.288-.025l-.111 4.999c.798.018 1.597.026 2.399.026.891 0 1.785-.011 2.681-.033l.215-.005-.133-4.998L130.715 236.469zM104.769 233.79l-1.148 4.866c1.643.388 3.301.737 4.972 1.048l.913-4.916h0C107.915 234.493 106.335 234.16 104.769 233.79zM109.235 34.712l-.926-4.914c-1.671.315-3.327.668-4.969 1.06l1.16 4.864C106.064 35.348 107.642 35.012 109.235 34.712z"/><polygon fill="#122436" points="104.499 35.722 104.499 35.722 104.499 35.722"/><path fill="#122436" d="M130.442 32.966l.106-4.999c-.762-.016-1.525-.024-2.291-.024-.891 0-1.785.011-2.681.033l-.108.003.128 4.998 0 0 .103-.003c.855-.021 1.707-.032 2.558-.032C128.987 32.943 129.715 32.951 130.442 32.966zM152.688 30.762c-1.644-.386-3.302-.734-4.974-1.043l-.908 4.917c1.593.294 3.173.626 4.739.993L152.688 30.762zM152.013 233.698c-1.564.374-3.143.713-4.735 1.015l.931 4.913c1.67-.317 3.327-.672 4.968-1.065L152.013 233.698 152.013 233.698zM163.429 33.89c-1.599-.559-3.215-1.081-4.848-1.565l-1.421 4.794h0c1.555.461 3.095.958 4.619 1.491L163.429 33.89zM94.537 230.799l-1.654 4.718c1.599.561 3.214 1.084 4.846 1.57l1.426-4.792 0 0C97.6 231.832 96.06 231.333 94.537 230.799zM141.689 28.784c-1.673-.211-3.358-.383-5.054-.515l-.389 4.985 0 0c1.617.126 3.223.29 4.818.491L141.689 28.784z"/><polygon fill="#122436" points="146.806 34.636 146.806 34.636 146.806 34.636"/><path fill="#122436" d="M141.541,235.631c-1.593,0.209-3.199,0.38-4.816,0.515l0.414,4.983c1.695-0.141,3.379-0.321,5.051-0.54
						L141.541,235.631L141.541,235.631z"/><path fill="#ffcc34" d="M28.93,145.723c0-3.309,2.692-6.001,6.001-6.001c2.762,0,5-2.239,5-5.001c0-2.761-2.239-5.001-5-5.001
							c-3.309,0-6.001-2.692-6.001-6.001c0-2.761-2.239-5-5-5s-5,2.239-5,5c0,3.309-2.692,6.001-6.001,6.001
							c-2.762,0-5.001,2.239-5.001,5.001c0,2.762,2.239,5.001,5.001,5.001c3.309,0,6.001,2.692,6.001,6.001
							c0,2.762,2.239,5.001,5,5.001S28.93,148.484,28.93,145.723z"/><path fill="#122436" d="M23.929,153.223c-4.136,0-7.5-3.365-7.5-7.5c0-1.93-1.57-3.501-3.5-3.501c-4.136,0-7.5-3.365-7.5-7.501
							c0-4.136,3.365-7.5,7.5-7.5c1.93,0,3.5-1.57,3.5-3.5c0-4.136,3.365-7.501,7.5-7.501s7.5,3.365,7.5,7.501
							c0,1.93,1.57,3.5,3.501,3.5c4.136,0,7.501,3.365,7.501,7.5c0,4.136-3.365,7.501-7.501,7.501c-1.93,0-3.501,1.57-3.501,3.501
							C31.43,149.858,28.065,153.223,23.929,153.223z M23.929,121.22c-1.379,0-2.5,1.122-2.5,2.501c0,4.687-3.813,8.501-8.5,8.501
							c-1.379,0-2.5,1.122-2.5,2.5c0,1.379,1.122,2.501,2.5,2.501c4.687,0,8.5,3.813,8.5,8.501c0,1.379,1.122,2.5,2.5,2.5
							s2.5-1.122,2.5-2.5c0-4.687,3.813-8.501,8.501-8.501c1.379,0,2.501-1.122,2.501-2.501c0-1.379-1.122-2.5-2.501-2.5
							c-4.687,0-8.501-3.814-8.501-8.501C26.43,122.342,25.308,121.22,23.929,121.22z"/><path fill="#ffcc34" d="M237.071,145.723c0-3.309,2.692-6.001,6.001-6.001c2.762,0,5.001-2.239,5.001-5.001
							c0-2.761-2.239-5.001-5.001-5.001c-3.309,0-6.001-2.692-6.001-6.001c0-2.761-2.239-5-5-5c-2.762,0-5.001,2.239-5.001,5
							c0,3.309-2.692,6.001-6.001,6.001c-2.762,0-5.001,2.239-5.001,5.001c0,2.762,2.239,5.001,5.001,5.001
							c3.309,0,6.001,2.692,6.001,6.001c0,2.762,2.239,5.001,5.001,5.001C234.832,150.723,237.071,148.484,237.071,145.723z"/><path fill="#122436" d="M232.071,153.223c-4.136,0-7.501-3.365-7.501-7.5c0-1.93-1.57-3.501-3.501-3.501
							c-4.136,0-7.501-3.365-7.501-7.501c0-4.136,3.365-7.5,7.501-7.5c1.93,0,3.501-1.57,3.501-3.5c0-4.136,3.365-7.501,7.501-7.501
							c4.136,0,7.5,3.365,7.5,7.501c0,1.93,1.57,3.5,3.501,3.5c4.136,0,7.501,3.365,7.501,7.5c0,4.136-3.365,7.501-7.501,7.501
							c-1.93,0-3.501,1.57-3.501,3.501C239.571,149.858,236.206,153.223,232.071,153.223z M232.071,121.22
							c-1.379,0-2.501,1.122-2.501,2.501c0,4.687-3.814,8.501-8.501,8.501c-1.379,0-2.501,1.122-2.501,2.5
							c0,1.379,1.122,2.501,2.501,2.501c4.687,0,8.501,3.813,8.501,8.501c0,1.379,1.122,2.5,2.501,2.5c1.379,0,2.5-1.122,2.5-2.5
							c0-4.687,3.814-8.501,8.501-8.501c1.379,0,2.501-1.122,2.501-2.501c0-1.379-1.122-2.5-2.501-2.5
							c-4.687,0-8.501-3.814-8.501-8.501C234.571,122.342,233.45,121.22,232.071,121.22z"/><g><path fill="#4ea3da" d="M100.608,59.214c-14.868,0-26.92,12.053-26.92,26.92c-14.868,0-26.921,12.053-26.921,26.92
								c0,8.584,4.018,16.23,10.276,21.159c-6.258,4.929-10.276,12.575-10.276,21.159c0,14.868,12.053,26.92,26.921,26.92
								c0,14.868,12.053,26.921,26.92,26.921c14.868,0,26.92-12.053,26.92-26.921V86.135
								C127.528,71.267,115.476,59.214,100.608,59.214z"/><path fill="#fff" d="M100.608,59.214c-14.868,0-26.92,12.053-26.92,26.92c-14.868,0-26.921,12.053-26.921,26.921
								c0,1.71,0.166,3.38,0.471,5.002c2.344-12.478,13.291-21.922,26.45-21.922c0-14.868,12.053-26.92,26.92-26.92
								c14.868,0,26.92,12.053,26.92,26.92v-10C127.528,71.267,115.476,59.214,100.608,59.214z"/><path fill="#4ea3da" d="M154.449,59.214c14.868,0,26.92,12.053,26.92,26.92c14.868,0,26.92,12.053,26.92,26.92
								c0,8.584-4.018,16.23-10.275,21.159c6.257,4.929,10.275,12.575,10.275,21.159c0,14.868-12.053,26.92-26.92,26.92
								c0,14.868-12.053,26.921-26.92,26.921c-14.868,0-26.92-12.053-26.92-26.921V86.135
								C127.528,71.267,139.581,59.214,154.449,59.214z"/><path fill="#fff" d="M154.448,69.214c14.868,0,26.921,12.053,26.921,26.92c13.159,0,24.106,9.444,26.45,21.922
								c0.305-1.621,0.471-3.292,0.471-5.002c0-14.868-12.053-26.921-26.92-26.921c0-14.868-12.053-26.92-26.921-26.92
								s-26.92,12.053-26.92,26.92v10C127.528,81.267,139.581,69.214,154.448,69.214z"/><path fill="#122436" d="M100.608,211.714c-15.414,0-28.097-11.915-29.323-27.018c-15.103-1.227-27.018-13.91-27.018-29.323
								c0-8.071,3.238-15.631,8.976-21.159c-5.737-5.529-8.976-13.089-8.976-21.159c0-15.414,11.915-28.097,27.018-29.323
								c1.227-15.103,13.91-27.018,29.323-27.018c16.223,0,29.42,13.198,29.42,29.42v96.159
								C130.028,198.517,116.831,211.714,100.608,211.714z M73.687,88.635c-13.466,0-24.421,10.955-24.421,24.42
								c0,7.532,3.398,14.528,9.323,19.195l2.493,1.964l-2.493,1.964c-5.925,4.667-9.323,11.664-9.323,19.195
								c0,13.465,10.955,24.42,24.421,24.42h2.5v2.5c0,13.465,10.955,24.421,24.42,24.421s24.42-10.955,24.42-24.421V86.135
								c0-13.465-10.955-24.42-24.42-24.42s-24.42,10.955-24.42,24.42v2.5H73.687z"/><path fill="#122436" d="M78.643 105.709c-4.808-5.392-7.456-12.343-7.456-19.574h5c0 6.002 2.197 11.771 6.187 16.246L78.643 105.709zM76.187 182.294h-5c0-7.858 3.06-15.247 8.617-20.803l3.535 3.535C78.727 169.638 76.187 175.77 76.187 182.294zM73.687 142.476c-16.223 0-29.42-13.198-29.42-29.42h5c0 13.465 10.955 24.42 24.42 24.42V142.476zM95.111 113.364v-5c7.32 0 13.275-5.955 13.275-13.275h5C113.387 105.166 105.188 113.364 95.111 113.364zM110.887 170.298c-10.077 0-18.275-8.198-18.275-18.275h5c0 7.32 5.955 13.275 13.275 13.275V170.298zM154.449 211.714c-16.223 0-29.42-13.198-29.42-29.421V86.135c0-16.223 13.198-29.42 29.42-29.42 15.414 0 28.097 11.914 29.323 27.018 15.103 1.227 27.018 13.91 27.018 29.323 0 8.07-3.238 15.63-8.976 21.159 5.737 5.528 8.976 13.088 8.976 21.159 0 15.414-11.915 28.097-27.018 29.323C182.545 199.8 169.862 211.714 154.449 211.714zM154.449 61.714c-13.465 0-24.42 10.955-24.42 24.42v96.159c0 13.465 10.955 24.421 24.42 24.421 13.465 0 24.42-10.955 24.42-24.421v-2.5h2.5c13.465 0 24.421-10.955 24.421-24.42 0-7.532-3.398-14.528-9.323-19.195l-2.493-1.964 2.493-1.964c5.925-4.668 9.323-11.664 9.323-19.195 0-13.465-10.955-24.42-24.421-24.42h-2.5v-2.5C178.869 72.669 167.914 61.714 154.449 61.714z"/><path fill="#122436" d="M176.414 105.708l-3.732-3.327c3.99-4.475 6.188-10.245 6.188-16.246h5C183.869 93.365 181.222 100.316 176.414 105.708zM183.869 182.294h-5c0-6.523-2.54-12.655-7.153-17.268l3.536-3.535C180.809 167.047 183.869 174.436 183.869 182.294zM181.369 142.476v-5c13.465 0 24.421-10.955 24.421-24.42h5C210.79 129.278 197.592 142.476 181.369 142.476zM159.945 113.364c-10.077 0-18.275-8.198-18.275-18.275h5c0 7.32 5.955 13.275 13.275 13.275V113.364zM144.17 170.298v-5c7.32 0 13.275-5.955 13.275-13.275h5C162.445 162.1 154.247 170.298 144.17 170.298z"/></g><g><polygon fill="#ffcc34" points="134.797 75.969 155.742 48.679 128.742 48.679 99.083 88.635 101.003 88.635 132.575 88.635 104.837 128.592 119.409 128.592 167.909 75.969"/><polygon fill="#fff" points="105.764 88.635 128.742 57.679 148.834 57.679 155.742 48.679 128.742 48.679 99.083 88.635 101.003 88.635"/><path fill="#122436" d="M120.504,131.091h-20.446l27.738-39.956H94.114l33.371-44.956h33.328l-20.945,27.29h33.746
						L120.504,131.091z M109.616,126.091h8.697l43.892-47.622h-32.478l20.945-27.29H130l-25.948,34.956h33.302L109.616,126.091z"/></g></g></switch></svg>