<svg xmlns="http://www.w3.org/2000/svg" enable-background="new 0 0 4000 4000" viewBox="0 0 4000 4000"><rect width="1920.644" height="1752.234" x="1052.12" y="1143.188" fill="#fff"/><path fill="#ffbf70" d="M2972.765,2614.01h-328.048c-104.499-235.648-336.181-399.504-605.214-399.504
			c-269.077,0-500.782,163.906-605.259,399.622H1052.12v281.305h1920.644V2614.01z"/><path fill="#fff" d="M2972.765,2895.422H1052.12H2972.765z"/><path fill="#381999" d="M2972.765 2925.266H1052.121c-16.483 0-29.844-13.362-29.844-29.844 0-16.482 13.362-29.844 29.844-29.844h1920.645c16.483 0 29.844 13.362 29.844 29.844C3002.61 2911.905 2989.248 2925.266 2972.765 2925.266zM1434.244 2643.973h-382.124c-16.483 0-29.844-13.362-29.844-29.844s13.362-29.844 29.844-29.844h362.996c54.71-114.936 138.527-212.53 243.363-283.116 113.202-76.219 244.958-116.506 381.023-116.506 136.042 0 267.781 40.275 380.973 116.471 104.825 70.564 188.644 168.13 243.365 283.033h308.925c16.483 0 29.844 13.362 29.844 29.844s-13.362 29.844-29.844 29.844h-328.049c-11.803 0-22.497-6.957-27.282-17.746-102.84-231.909-329.692-381.759-577.932-381.759-248.286 0-475.155 149.893-577.974 381.871C1456.745 2637.014 1446.049 2643.973 1434.244 2643.973z"/><path fill="#ffbf70" d="M1052.132,1424.599h328.037c104.499,235.654,336.181,399.51,605.214,399.51
			c269.077,0,500.782-163.907,605.259-399.622h382.124v-281.305H1052.132V1424.599z"/><path fill="#fff" d="M1052.132,1143.188h1920.633H1052.132z"/><path fill="#381999" d="M2972.765 1173.032H1052.131c-16.483 0-29.844-13.362-29.844-29.845s13.362-29.845 29.844-29.845h1920.634c16.483 0 29.844 13.362 29.844 29.845S2989.248 1173.032 2972.765 1173.032zM1985.383 1853.954c-136.043 0-267.782-40.275-380.974-116.472-104.826-70.565-188.644-168.133-243.365-283.039h-308.913c-16.483 0-29.844-13.362-29.844-29.845 0-16.483 13.362-29.844 29.844-29.844h328.037c11.803 0 22.498 6.956 27.282 17.746 102.84 231.913 329.692 381.764 577.932 381.764 248.286 0 475.155-149.893 577.974-381.871 4.784-10.792 15.479-17.751 27.285-17.751h382.124c16.483 0 29.844 13.362 29.844 29.845 0 16.483-13.362 29.845-29.844 29.845h-362.997c-54.71 114.936-138.527 212.53-243.362 283.116C2253.204 1813.667 2121.448 1853.954 1985.383 1853.954z"/><path fill="#ffbf70" d="M3106.951,1756.385c-4.416,0-8.718,0.457-13.081,0.677
				c-34.513-108.432-133.859-186.859-251.19-186.859c-145.941,0-264.238,121.266-264.238,270.844
				c0,61.138,19.997,117.349,53.33,162.685c-33.333,45.329-53.33,101.54-53.33,162.674c0,149.589,118.297,270.855,264.238,270.855
				c100.194,0,187.355-57.154,232.176-141.368c10.541,1.311,21.208,2.19,32.095,2.19c145.965,0,264.306-121.27,264.306-270.855
				C3371.257,1877.652,3252.916,1756.385,3106.951,1756.385z"/><path fill="#381999" d="M2842.68,2467.107c-39.781,0-78.382-7.99-114.727-23.747
				c-35.042-15.193-66.493-36.924-93.482-64.588c-26.938-27.613-48.084-59.762-62.852-95.552
				c-15.275-37.02-23.02-76.322-23.02-116.812c0-58.202,16.203-114.013,47.046-162.675
				c-30.842-48.667-47.046-104.483-47.046-162.683c0-40.488,7.745-79.787,23.021-116.806c14.767-35.789,35.914-67.936,62.852-95.548
				c26.989-27.664,58.441-49.394,93.482-64.586c36.346-15.758,74.946-23.748,114.727-23.748c63.424,0,123.821,20.338,174.661,58.814
				c24.389,18.457,45.779,40.563,63.577,65.703c13.621,19.24,24.91,39.94,33.698,61.763c37.081,0.961,73.065,8.904,107.079,23.647
				c35.049,15.192,66.508,36.921,93.503,64.584c26.946,27.612,48.1,59.76,62.872,95.548c15.281,37.021,23.029,76.321,23.029,116.81
				c0,40.49-7.748,79.792-23.029,116.815c-14.772,35.79-35.926,67.937-62.872,95.552c-26.995,27.664-58.455,49.394-93.503,64.586
				c-36.353,15.758-74.959,23.747-114.746,23.747c-5.097,0-10.348-0.17-15.819-0.515
				C3037.359,2414.073,2943.896,2467.107,2842.68,2467.107z M2842.68,1600.049c-129.245,0-234.393,108.112-234.393,241
				c0,52.573,16.436,102.715,47.531,145.005c7.734,10.518,7.734,24.843-0.002,35.36c-31.094,42.283-47.529,92.42-47.529,144.993
				c0,132.894,105.148,241.011,234.393,241.011c85.746,0,164.616-48.106,205.831-125.545c5.811-10.918,17.758-17.124,30.027-15.595
				c10.766,1.339,19.795,1.962,28.413,1.962c129.282,0,234.461-108.117,234.461-241.011c0-132.887-105.179-241-234.461-241
				c-1.878,0-4.055,0.151-6.574,0.326c-1.663,0.115-3.327,0.229-4.998,0.314c-13.536,0.684-25.836-7.839-29.948-20.755
				C3033.815,1666.786,2944.299,1600.049,2842.68,1600.049z"/><path fill="#98ed96" d="M1372.293,1824.109c0,74.683-59.083,135.228-131.923,135.228
			c-72.873,0-131.956-60.545-131.956-135.228c0-74.677,59.083-135.222,131.956-135.222
			C1313.21,1688.887,1372.293,1749.432,1372.293,1824.109L1372.293,1824.109z"/><path fill="#ffbf70" d="M1349.348,1824.109c0,74.683-59.083,135.228-131.923,135.228
				c-72.873,0-131.956-60.545-131.956-135.228c0-74.677,59.083-135.222,131.956-135.222
				C1290.265,1688.887,1349.348,1749.432,1349.348,1824.109z"/><path fill="#381999" d="M1217.425,1989.181c-89.217,0-161.801-74.051-161.801-165.072
				c0-91.018,72.584-165.067,161.801-165.067c89.199,0,161.767,74.049,161.767,165.067
				C1379.193,1915.13,1306.624,1989.181,1217.425,1989.181z M1217.425,1718.732c-56.305,0-102.112,47.272-102.112,105.377
				c0,58.108,45.807,105.382,102.112,105.382c56.286,0,102.078-47.274,102.078-105.382
				C1319.503,1766.004,1273.711,1718.732,1217.425,1718.732z"/><path fill="#ffbf70" d="M1636.173,2120.925c0,74.683-59.083,135.228-131.923,135.228
				c-72.896,0-131.956-60.545-131.956-135.228c0-74.677,59.061-135.222,131.956-135.222
				C1577.09,1985.703,1636.173,2046.248,1636.173,2120.925z"/><path fill="#381999" d="M1504.25,2285.997c-89.217,0-161.801-74.051-161.801-165.072
				c0-91.018,72.584-165.066,161.801-165.066c89.199,0,161.767,74.048,161.767,165.066
				C1666.017,2211.945,1593.449,2285.997,1504.25,2285.997z M1504.25,2015.548c-56.305,0-102.112,47.272-102.112,105.377
				c0,58.108,45.807,105.383,102.112,105.383c56.286,0,102.078-47.274,102.078-105.383
				C1606.328,2062.819,1560.536,2015.548,1504.25,2015.548z"/><circle cx="904.52" cy="2699.379" r="215.776" fill="#5bb6f4"/><path fill="#381999" d="M904.52,2945c-65.608,0-127.289-25.549-173.681-71.941
					c-46.392-46.392-71.941-108.072-71.941-173.68s25.549-127.289,71.941-173.68c46.392-46.391,108.073-71.94,173.681-71.94
					c65.607,0,127.288,25.549,173.68,71.94c46.392,46.392,71.941,108.072,71.941,173.68s-25.549,127.288-71.941,173.68
					C1031.808,2919.451,970.128,2945,904.52,2945z M904.52,2513.448c-102.523,0-185.932,83.408-185.932,185.931
					s83.409,185.932,185.932,185.932c102.523,0,185.932-83.409,185.932-185.932S1007.043,2513.448,904.52,2513.448z"/><path fill="#5bb6f4" d="M948.267,824.844h-58.731c-98.466,0-178.289,79.823-178.289,178.289v1069.247
					c0,98.466,79.823,178.289,178.289,178.289h58.731c98.466,0,178.289-79.823,178.289-178.289V1003.133
					C1126.556,904.667,1046.733,824.844,948.267,824.844z"/><path fill="#381999" d="M948.267,2280.513h-58.731c-55.594,0-107.862-21.649-147.173-60.96
					c-39.311-39.311-60.961-91.578-60.961-147.172V1003.133c0-55.594,21.649-107.861,60.961-147.172S833.942,795,889.536,795h58.731
					c55.594,0,107.861,21.649,147.172,60.961c39.311,39.311,60.961,91.578,60.961,147.172v1069.248
					c0,55.594-21.649,107.861-60.961,147.172C1056.128,2258.865,1003.861,2280.513,948.267,2280.513z M889.536,854.689
					c-81.853,0-148.445,66.592-148.445,148.444v1069.248c0,81.852,66.592,148.444,148.445,148.444h58.731
					c81.852,0,148.444-66.592,148.444-148.444V1003.133c0-81.852-66.592-148.444-148.444-148.444H889.536z"/><g><path fill="#ffbf70" d="M2868.024,1737.49c-80.097,0-145.023,66.555-145.023,148.649L2868.024,1737.49z"/><path fill="#381999" d="M2723.001,1915.984c-16.482,0-29.844-13.362-29.844-29.844
			c0-98.421,78.445-178.493,174.867-178.493c16.482,0,29.844,13.362,29.844,29.844c0,16.483-13.362,29.844-29.844,29.844
			c-63.51,0-115.178,53.296-115.178,118.804C2752.845,1902.622,2739.484,1915.984,2723.001,1915.984z"/></g><g><path fill="#ffbf70" d="M2739.387,2162.696c35.138,71.979,123.429,101.127,197.202,65.113L2739.387,2162.696z"/><path fill="#381999" d="M2870.251,2273.144c-18.877,0-37.781-3.003-56.108-9.054
			c-44.949-14.841-81.023-46.2-101.575-88.302c-7.231-14.812-1.085-32.681,13.727-39.912c14.811-7.231,32.68-1.085,39.912,13.727
			c13.436,27.521,37.106,48.052,66.65,57.806c29.808,9.841,61.998,7.561,90.639-6.42c14.812-7.231,32.681-1.086,39.912,13.727
			c7.231,14.812,1.085,32.681-13.727,39.911C2924.483,2266.929,2897.397,2273.144,2870.251,2273.144z"/></g></svg>