<svg xmlns="http://www.w3.org/2000/svg" xmlns:xlink="http://www.w3.org/1999/xlink" width="4535" zoomAndPan="magnify" viewBox="0 0 3401.25 2720.99988" height="3628" preserveAspectRatio="xMidYMid meet" version="1.0"><defs><clipPath id="b90daae311"><path d="M 53 296 L 3349.863281 296 L 3349.863281 2425 L 53 2425 Z M 53 296 " clip-rule="nonzero"/></clipPath></defs><g clip-path="url(#b90daae311)"><path fill="#ffffff" d="M 3355.574219 1360.511719 C 3355.574219 1680.183594 2616.1875 2424.792969 1704.292969 2424.792969 C 792.300781 2424.792969 53.011719 1771.613281 53.011719 1360.511719 C 53.011719 1039.96875 792.398438 296.230469 1704.292969 296.230469 C 2616.1875 296.230469 3355.574219 1039.871094 3355.574219 1360.511719 Z M 3355.574219 1360.511719 " fill-opacity="1" fill-rule="nonzero"/></g><path fill="#ffffff" d="M 3235.40625 1360.511719 C 3235.40625 1641.480469 2549.71875 2295.820312 1704.195312 2295.820312 C 858.574219 2295.820312 173.082031 1721.59375 173.082031 1360.511719 C 173.082031 1078.765625 858.574219 425.296875 1704.195312 425.296875 C 2549.71875 425.203125 3235.40625 1078.765625 3235.40625 1360.511719 Z M 3235.40625 1360.511719 " fill-opacity="1" fill-rule="nonzero"/><path fill="#00c2cb" d="M 2523.402344 1360.511719 C 2523.402344 1373.902344 2523.074219 1387.289062 2522.417969 1400.664062 C 2521.757812 1414.042969 2520.773438 1427.394531 2519.460938 1440.722656 C 2518.148438 1454.050781 2516.507812 1467.339844 2514.542969 1480.585938 C 2512.578125 1493.832031 2510.289062 1507.023438 2507.679688 1520.160156 C 2505.066406 1533.296875 2502.132812 1546.359375 2498.878906 1559.351562 C 2495.625 1572.339844 2492.050781 1585.246094 2488.164062 1598.0625 C 2484.277344 1610.878906 2480.078125 1623.589844 2475.566406 1636.199219 C 2471.054688 1648.808594 2466.234375 1661.300781 2461.109375 1673.675781 C 2455.984375 1686.046875 2450.558594 1698.289062 2444.832031 1710.394531 C 2439.105469 1722.5 2433.085938 1734.460938 2426.773438 1746.273438 C 2420.460938 1758.082031 2413.859375 1769.730469 2406.976562 1781.21875 C 2400.089844 1792.707031 2392.925781 1804.019531 2385.488281 1815.152344 C 2378.046875 1826.289062 2370.335938 1837.234375 2362.359375 1847.992188 C 2354.382812 1858.75 2346.144531 1869.304688 2337.648438 1879.65625 C 2329.152344 1890.011719 2320.40625 1900.148438 2311.414062 1910.070312 C 2302.417969 1919.996094 2293.1875 1929.691406 2283.714844 1939.160156 C 2274.246094 1948.632812 2264.550781 1957.863281 2254.625 1966.859375 C 2244.703125 1975.851562 2234.566406 1984.597656 2224.210938 1993.09375 C 2213.859375 2001.589844 2203.304688 2009.828125 2192.546875 2017.804688 C 2181.789062 2025.78125 2170.84375 2033.492188 2159.707031 2040.933594 C 2148.574219 2048.371094 2137.261719 2055.535156 2125.773438 2062.421875 C 2114.289062 2069.304688 2102.636719 2075.90625 2090.828125 2082.21875 C 2079.015625 2088.53125 2067.054688 2094.550781 2054.949219 2100.277344 C 2042.84375 2106.003906 2030.601562 2111.429688 2018.230469 2116.554688 C 2005.855469 2121.679688 1993.363281 2126.5 1980.753906 2131.011719 C 1968.144531 2135.523438 1955.433594 2139.722656 1942.617188 2143.609375 C 1929.800781 2147.496094 1916.898438 2151.066406 1903.90625 2154.324219 C 1890.914062 2157.578125 1877.851562 2160.511719 1864.714844 2163.121094 C 1851.582031 2165.734375 1838.386719 2168.023438 1825.140625 2169.988281 C 1811.894531 2171.953125 1798.605469 2173.59375 1785.277344 2174.90625 C 1771.949219 2176.21875 1758.597656 2177.203125 1745.21875 2177.859375 C 1731.84375 2178.519531 1718.460938 2178.847656 1705.066406 2178.847656 C 1691.671875 2178.847656 1678.289062 2178.519531 1664.914062 2177.859375 C 1651.535156 2177.203125 1638.183594 2176.21875 1624.855469 2174.90625 C 1611.527344 2173.59375 1598.238281 2171.953125 1584.992188 2169.988281 C 1571.742188 2168.023438 1558.550781 2165.734375 1545.417969 2163.121094 C 1532.28125 2160.511719 1519.21875 2157.578125 1506.226562 2154.324219 C 1493.234375 2151.066406 1480.332031 2147.496094 1467.515625 2143.609375 C 1454.699219 2139.722656 1441.988281 2135.523438 1429.378906 2131.011719 C 1416.765625 2126.5 1404.277344 2121.679688 1391.902344 2116.554688 C 1379.53125 2111.429688 1367.289062 2106.003906 1355.183594 2100.277344 C 1343.074219 2094.550781 1331.117188 2088.53125 1319.304688 2082.21875 C 1307.492188 2075.90625 1295.84375 2069.304688 1284.359375 2062.421875 C 1272.871094 2055.535156 1261.558594 2048.371094 1250.421875 2040.933594 C 1239.289062 2033.492188 1228.339844 2025.78125 1217.585938 2017.804688 C 1206.828125 2009.828125 1196.273438 2001.589844 1185.917969 1993.09375 C 1175.566406 1984.597656 1165.429688 1975.851562 1155.503906 1966.859375 C 1145.582031 1957.863281 1135.886719 1948.632812 1126.414062 1939.160156 C 1116.945312 1929.691406 1107.714844 1919.996094 1098.71875 1910.070312 C 1089.726562 1900.148438 1080.980469 1890.011719 1072.484375 1879.65625 C 1063.988281 1869.304688 1055.75 1858.75 1047.773438 1847.992188 C 1039.792969 1837.234375 1032.085938 1826.289062 1024.644531 1815.152344 C 1017.203125 1804.019531 1010.042969 1792.707031 1003.15625 1781.21875 C 996.269531 1769.730469 989.671875 1758.082031 983.359375 1746.273438 C 977.046875 1734.460938 971.027344 1722.5 965.300781 1710.394531 C 959.574219 1698.289062 954.148438 1686.046875 949.023438 1673.675781 C 943.898438 1661.300781 939.078125 1648.808594 934.566406 1636.199219 C 930.054688 1623.589844 925.855469 1610.878906 921.96875 1598.0625 C 918.082031 1585.246094 914.507812 1572.339844 911.253906 1559.351562 C 908 1546.359375 905.066406 1533.296875 902.453125 1520.160156 C 899.84375 1507.023438 897.554688 1493.832031 895.585938 1480.585938 C 893.621094 1467.339844 891.984375 1454.050781 890.671875 1440.722656 C 889.359375 1427.394531 888.375 1414.042969 887.714844 1400.664062 C 887.058594 1387.289062 886.730469 1373.902344 886.730469 1360.511719 C 886.730469 1347.117188 887.058594 1333.734375 887.714844 1320.355469 C 888.375 1306.980469 889.359375 1293.628906 890.671875 1280.300781 C 891.984375 1266.972656 893.621094 1253.683594 895.585938 1240.4375 C 897.554688 1227.1875 899.84375 1213.996094 902.453125 1200.863281 C 905.066406 1187.726562 908 1174.664062 911.253906 1161.671875 C 914.507812 1148.679688 918.082031 1135.777344 921.96875 1122.960938 C 925.855469 1110.144531 930.054688 1097.433594 934.566406 1084.820312 C 939.078125 1072.210938 943.898438 1059.722656 949.023438 1047.347656 C 954.148438 1034.972656 959.574219 1022.734375 965.300781 1010.628906 C 971.027344 998.519531 977.046875 986.5625 983.359375 974.75 C 989.671875 962.9375 996.269531 951.289062 1003.15625 939.800781 C 1010.042969 928.316406 1017.203125 917.003906 1024.644531 905.867188 C 1032.085938 894.730469 1039.792969 883.785156 1047.773438 873.027344 C 1055.75 862.273438 1063.988281 851.71875 1072.484375 841.363281 C 1080.980469 831.011719 1089.726562 820.875 1098.71875 810.949219 C 1107.714844 801.027344 1116.945312 791.332031 1126.414062 781.859375 C 1135.886719 772.390625 1145.582031 763.160156 1155.503906 754.164062 C 1165.429688 745.171875 1175.566406 736.425781 1185.917969 727.929688 C 1196.273438 719.433594 1206.828125 711.195312 1217.585938 703.21875 C 1228.339844 695.238281 1239.289062 687.53125 1250.421875 680.089844 C 1261.558594 672.648438 1272.871094 665.484375 1284.359375 658.601562 C 1295.84375 651.714844 1307.496094 645.117188 1319.304688 638.804688 C 1331.117188 632.488281 1343.074219 626.46875 1355.183594 620.746094 C 1367.289062 615.019531 1379.53125 609.59375 1391.902344 604.46875 C 1404.277344 599.34375 1416.765625 594.523438 1429.378906 590.011719 C 1441.988281 585.5 1454.699219 581.300781 1467.515625 577.414062 C 1480.332031 573.523438 1493.234375 569.953125 1506.226562 566.699219 C 1519.21875 563.445312 1532.28125 560.511719 1545.417969 557.898438 C 1558.550781 555.285156 1571.742188 552.996094 1584.992188 551.03125 C 1598.238281 549.066406 1611.527344 547.429688 1624.855469 546.117188 C 1638.183594 544.804688 1651.535156 543.820312 1664.914062 543.160156 C 1678.289062 542.503906 1691.671875 542.175781 1705.066406 542.175781 C 1718.460938 542.175781 1731.84375 542.503906 1745.21875 543.160156 C 1758.597656 543.820312 1771.949219 544.804688 1785.277344 546.117188 C 1798.605469 547.429688 1811.894531 549.066406 1825.140625 551.03125 C 1838.386719 552.996094 1851.582031 555.285156 1864.714844 557.898438 C 1877.851562 560.511719 1890.914062 563.445312 1903.90625 566.699219 C 1916.898438 569.953125 1929.800781 573.523438 1942.617188 577.414062 C 1955.433594 581.300781 1968.144531 585.5 1980.753906 590.011719 C 1993.363281 594.523438 2005.855469 599.34375 2018.230469 604.46875 C 2030.601562 609.59375 2042.84375 615.019531 2054.949219 620.746094 C 2067.054688 626.46875 2079.015625 632.492188 2090.828125 638.804688 C 2102.636719 645.117188 2114.289062 651.714844 2125.773438 658.601562 C 2137.261719 665.484375 2148.574219 672.648438 2159.707031 680.089844 C 2170.84375 687.53125 2181.789062 695.238281 2192.546875 703.21875 C 2203.304688 711.195312 2213.859375 719.433594 2224.210938 727.929688 C 2234.566406 736.425781 2244.703125 745.171875 2254.625 754.164062 C 2264.550781 763.160156 2274.246094 772.390625 2283.714844 781.859375 C 2293.1875 791.332031 2302.417969 801.027344 2311.414062 810.949219 C 2320.40625 820.875 2329.152344 831.011719 2337.648438 841.363281 C 2346.144531 851.71875 2354.382812 862.273438 2362.359375 873.027344 C 2370.335938 883.785156 2378.046875 894.730469 2385.488281 905.867188 C 2392.925781 917.003906 2400.089844 928.316406 2406.976562 939.800781 C 2413.859375 951.289062 2420.460938 962.9375 2426.773438 974.75 C 2433.085938 986.5625 2439.105469 998.519531 2444.832031 1010.628906 C 2450.558594 1022.734375 2455.984375 1034.972656 2461.109375 1047.347656 C 2466.234375 1059.722656 2471.054688 1072.210938 2475.566406 1084.820312 C 2480.078125 1097.433594 2484.277344 1110.144531 2488.164062 1122.960938 C 2492.050781 1135.777344 2495.625 1148.679688 2498.878906 1161.671875 C 2502.132812 1174.664062 2505.066406 1187.726562 2507.679688 1200.863281 C 2510.289062 1213.996094 2512.578125 1227.1875 2514.542969 1240.4375 C 2516.511719 1253.683594 2518.148438 1266.972656 2519.460938 1280.300781 C 2520.773438 1293.628906 2521.757812 1306.980469 2522.417969 1320.355469 C 2523.074219 1333.734375 2523.402344 1347.117188 2523.402344 1360.511719 Z M 2523.402344 1360.511719 " fill-opacity="1" fill-rule="nonzero"/><path fill="#292f33" d="M 2160.578125 1360.511719 C 2160.578125 1367.964844 2160.394531 1375.417969 2160.03125 1382.863281 C 2159.664062 1390.308594 2159.117188 1397.742188 2158.386719 1405.160156 C 2157.65625 1412.578125 2156.742188 1419.976562 2155.648438 1427.347656 C 2154.554688 1434.722656 2153.28125 1442.066406 2151.824219 1449.378906 C 2150.371094 1456.6875 2148.738281 1463.960938 2146.925781 1471.191406 C 2145.117188 1478.421875 2143.128906 1485.605469 2140.964844 1492.738281 C 2138.800781 1499.875 2136.460938 1506.949219 2133.949219 1513.96875 C 2131.441406 1520.988281 2128.757812 1527.941406 2125.90625 1534.828125 C 2123.050781 1541.714844 2120.03125 1548.527344 2116.84375 1555.265625 C 2113.65625 1562.007812 2110.304688 1568.664062 2106.792969 1575.238281 C 2103.277344 1581.8125 2099.605469 1588.296875 2095.773438 1594.691406 C 2091.941406 1601.085938 2087.953125 1607.382812 2083.8125 1613.582031 C 2079.667969 1619.777344 2075.378906 1625.871094 2070.9375 1631.859375 C 2066.496094 1637.847656 2061.910156 1643.722656 2057.183594 1649.484375 C 2052.453125 1655.246094 2047.585938 1660.890625 2042.578125 1666.414062 C 2037.570312 1671.9375 2032.433594 1677.335938 2027.164062 1682.605469 C 2021.890625 1687.878906 2016.492188 1693.015625 2010.96875 1698.023438 C 2005.445312 1703.03125 1999.804688 1707.898438 1994.039062 1712.628906 C 1988.277344 1717.355469 1982.402344 1721.941406 1976.414062 1726.382812 C 1970.425781 1730.824219 1964.332031 1735.113281 1958.136719 1739.253906 C 1951.9375 1743.398438 1945.640625 1747.382812 1939.246094 1751.21875 C 1932.851562 1755.050781 1926.367188 1758.722656 1919.792969 1762.238281 C 1913.21875 1765.75 1906.5625 1769.101562 1899.824219 1772.289062 C 1893.082031 1775.476562 1886.269531 1778.496094 1879.382812 1781.351562 C 1872.496094 1784.203125 1865.542969 1786.882812 1858.523438 1789.394531 C 1851.503906 1791.90625 1844.429688 1794.246094 1837.292969 1796.410156 C 1830.160156 1798.574219 1822.976562 1800.5625 1815.746094 1802.371094 C 1808.515625 1804.183594 1801.242188 1805.816406 1793.933594 1807.269531 C 1786.621094 1808.726562 1779.277344 1810 1771.902344 1811.09375 C 1764.53125 1812.1875 1757.132812 1813.097656 1749.714844 1813.832031 C 1742.296875 1814.5625 1734.863281 1815.109375 1727.417969 1815.476562 C 1719.972656 1815.839844 1712.519531 1816.023438 1705.066406 1816.023438 C 1697.613281 1816.023438 1690.160156 1815.839844 1682.714844 1815.476562 C 1675.269531 1815.109375 1667.835938 1814.5625 1660.417969 1813.832031 C 1653 1813.097656 1645.601562 1812.1875 1638.230469 1811.09375 C 1630.855469 1810 1623.511719 1808.726562 1616.199219 1807.269531 C 1608.886719 1805.816406 1601.617188 1804.183594 1594.386719 1802.371094 C 1587.15625 1800.5625 1579.972656 1798.574219 1572.839844 1796.410156 C 1565.703125 1794.246094 1558.628906 1791.90625 1551.609375 1789.394531 C 1544.589844 1786.882812 1537.636719 1784.203125 1530.75 1781.351562 C 1523.863281 1778.496094 1517.046875 1775.476562 1510.308594 1772.289062 C 1503.570312 1769.101562 1496.914062 1765.75 1490.339844 1762.238281 C 1483.765625 1758.722656 1477.28125 1755.050781 1470.886719 1751.21875 C 1464.492188 1747.382812 1458.195312 1743.398438 1451.996094 1739.253906 C 1445.796875 1735.113281 1439.707031 1730.824219 1433.71875 1726.382812 C 1427.730469 1721.941406 1421.855469 1717.355469 1416.09375 1712.628906 C 1410.328125 1707.898438 1404.6875 1703.03125 1399.164062 1698.023438 C 1393.640625 1693.015625 1388.242188 1687.878906 1382.96875 1682.605469 C 1377.699219 1677.335938 1372.558594 1671.9375 1367.554688 1666.414062 C 1362.546875 1660.890625 1357.679688 1655.246094 1352.949219 1649.484375 C 1348.222656 1643.722656 1343.636719 1637.847656 1339.195312 1631.859375 C 1334.753906 1625.871094 1330.460938 1619.777344 1326.320312 1613.582031 C 1322.179688 1607.382812 1318.191406 1601.085938 1314.359375 1594.691406 C 1310.527344 1588.296875 1306.855469 1581.8125 1303.339844 1575.238281 C 1299.824219 1568.664062 1296.476562 1562.007812 1293.289062 1555.265625 C 1290.101562 1548.527344 1287.082031 1541.714844 1284.226562 1534.828125 C 1281.375 1527.941406 1278.691406 1520.988281 1276.179688 1513.96875 C 1273.667969 1506.949219 1271.332031 1499.875 1269.167969 1492.738281 C 1267.003906 1485.605469 1265.015625 1478.421875 1263.203125 1471.191406 C 1261.394531 1463.960938 1259.761719 1456.6875 1258.304688 1449.378906 C 1256.851562 1442.066406 1255.578125 1434.722656 1254.484375 1427.347656 C 1253.390625 1419.976562 1252.476562 1412.578125 1251.746094 1405.160156 C 1251.015625 1397.742188 1250.46875 1390.308594 1250.101562 1382.863281 C 1249.738281 1375.417969 1249.554688 1367.964844 1249.554688 1360.511719 C 1249.554688 1353.054688 1249.738281 1345.605469 1250.101562 1338.160156 C 1250.46875 1330.714844 1251.015625 1323.28125 1251.746094 1315.863281 C 1252.476562 1308.445312 1253.390625 1301.046875 1254.484375 1293.671875 C 1255.578125 1286.300781 1256.851562 1278.957031 1258.304688 1271.644531 C 1259.761719 1264.332031 1261.394531 1257.0625 1263.203125 1249.832031 C 1265.015625 1242.597656 1267.003906 1235.417969 1269.167969 1228.28125 C 1271.332031 1221.148438 1273.667969 1214.074219 1276.179688 1207.054688 C 1278.691406 1200.035156 1281.375 1193.082031 1284.226562 1186.195312 C 1287.082031 1179.304688 1290.101562 1172.492188 1293.289062 1165.753906 C 1296.476562 1159.015625 1299.824219 1152.359375 1303.339844 1145.785156 C 1306.855469 1139.210938 1310.527344 1132.726562 1314.359375 1126.332031 C 1318.191406 1119.9375 1322.179688 1113.640625 1326.320312 1107.441406 C 1330.460938 1101.242188 1334.753906 1095.148438 1339.195312 1089.164062 C 1343.636719 1083.175781 1348.222656 1077.300781 1352.949219 1071.535156 C 1357.679688 1065.773438 1362.546875 1060.132812 1367.554688 1054.609375 C 1372.558594 1049.085938 1377.699219 1043.6875 1382.96875 1038.414062 C 1388.242188 1033.144531 1393.640625 1028.003906 1399.164062 1023 C 1404.6875 1017.992188 1410.328125 1013.125 1416.09375 1008.394531 C 1421.855469 1003.664062 1427.730469 999.082031 1433.71875 994.640625 C 1439.707031 990.199219 1445.796875 985.90625 1451.996094 981.765625 C 1458.195312 977.625 1464.492188 973.636719 1470.886719 969.804688 C 1477.28125 965.972656 1483.765625 962.300781 1490.339844 958.785156 C 1496.914062 955.269531 1503.570312 951.921875 1510.308594 948.734375 C 1517.046875 945.546875 1523.863281 942.523438 1530.75 939.671875 C 1537.636719 936.820312 1544.589844 934.136719 1551.609375 931.625 C 1558.628906 929.113281 1565.703125 926.777344 1572.839844 924.613281 C 1579.972656 922.449219 1587.152344 920.460938 1594.386719 918.648438 C 1601.617188 916.839844 1608.886719 915.207031 1616.199219 913.75 C 1623.511719 912.296875 1630.855469 911.023438 1638.230469 909.929688 C 1645.601562 908.835938 1653 907.921875 1660.417969 907.191406 C 1667.835938 906.460938 1675.269531 905.914062 1682.714844 905.546875 C 1690.160156 905.179688 1697.613281 905 1705.066406 905 C 1712.519531 905 1719.972656 905.179688 1727.417969 905.546875 C 1734.863281 905.914062 1742.296875 906.460938 1749.714844 907.191406 C 1757.132812 907.921875 1764.53125 908.835938 1771.902344 909.929688 C 1779.277344 911.023438 1786.621094 912.296875 1793.933594 913.75 C 1801.242188 915.207031 1808.515625 916.839844 1815.746094 918.648438 C 1822.976562 920.460938 1830.160156 922.449219 1837.292969 924.613281 C 1844.429688 926.777344 1851.503906 929.113281 1858.523438 931.625 C 1865.542969 934.136719 1872.496094 936.820312 1879.382812 939.671875 C 1886.269531 942.523438 1893.082031 945.546875 1899.824219 948.734375 C 1906.5625 951.921875 1913.21875 955.269531 1919.792969 958.785156 C 1926.367188 962.300781 1932.851562 965.972656 1939.246094 969.804688 C 1945.640625 973.636719 1951.9375 977.625 1958.136719 981.765625 C 1964.332031 985.90625 1970.425781 990.199219 1976.414062 994.640625 C 1982.402344 999.082031 1988.277344 1003.664062 1994.039062 1008.394531 C 1999.804688 1013.125 2005.445312 1017.992188 2010.96875 1023 C 2016.492188 1028.003906 2021.890625 1033.144531 2027.164062 1038.414062 C 2032.433594 1043.6875 2037.570312 1049.082031 2042.578125 1054.609375 C 2047.585938 1060.132812 2052.453125 1065.773438 2057.183594 1071.535156 C 2061.910156 1077.300781 2066.496094 1083.175781 2070.9375 1089.164062 C 2075.378906 1095.148438 2079.667969 1101.242188 2083.8125 1107.441406 C 2087.953125 1113.640625 2091.941406 1119.9375 2095.773438 1126.332031 C 2099.605469 1132.726562 2103.277344 1139.210938 2106.792969 1145.785156 C 2110.304688 1152.359375 2113.65625 1159.015625 2116.84375 1165.753906 C 2120.03125 1172.492188 2123.050781 1179.304688 2125.90625 1186.195312 C 2128.757812 1193.082031 2131.441406 1200.035156 2133.949219 1207.054688 C 2136.460938 1214.074219 2138.800781 1221.148438 2140.964844 1228.28125 C 2143.128906 1235.417969 2145.117188 1242.597656 2146.925781 1249.832031 C 2148.738281 1257.0625 2150.371094 1264.332031 2151.824219 1271.644531 C 2153.28125 1278.957031 2154.554688 1286.300781 2155.648438 1293.671875 C 2156.742188 1301.046875 2157.652344 1308.445312 2158.386719 1315.863281 C 2159.117188 1323.28125 2159.664062 1330.714844 2160.03125 1338.160156 C 2160.394531 1345.605469 2160.578125 1353.054688 2160.578125 1360.511719 Z M 2160.578125 1360.511719 " fill-opacity="1" fill-rule="nonzero"/><path fill="#ffffff" d="M 2188.832031 1070.253906 C 2188.832031 1073.417969 2188.753906 1076.585938 2188.597656 1079.746094 C 2188.441406 1082.910156 2188.210938 1086.066406 2187.898438 1089.21875 C 2187.589844 1092.371094 2187.199219 1095.511719 2186.734375 1098.644531 C 2186.269531 1101.777344 2185.730469 1104.898438 2185.113281 1108.003906 C 2184.496094 1111.109375 2183.800781 1114.199219 2183.03125 1117.269531 C 2182.261719 1120.34375 2181.417969 1123.394531 2180.5 1126.425781 C 2179.578125 1129.453125 2178.585938 1132.460938 2177.519531 1135.441406 C 2176.453125 1138.425781 2175.3125 1141.378906 2174.101562 1144.304688 C 2172.890625 1147.230469 2171.605469 1150.125 2170.25 1152.988281 C 2168.898438 1155.851562 2167.472656 1158.675781 2165.980469 1161.46875 C 2164.488281 1164.261719 2162.929688 1167.019531 2161.300781 1169.734375 C 2159.671875 1172.449219 2157.976562 1175.125 2156.21875 1177.757812 C 2154.460938 1180.390625 2152.636719 1182.980469 2150.75 1185.523438 C 2148.863281 1188.066406 2146.917969 1190.5625 2144.90625 1193.011719 C 2142.898438 1195.460938 2140.828125 1197.855469 2138.703125 1200.203125 C 2136.578125 1202.550781 2134.394531 1204.84375 2132.152344 1207.082031 C 2129.914062 1209.320312 2127.621094 1211.503906 2125.277344 1213.628906 C 2122.929688 1215.757812 2120.53125 1217.824219 2118.082031 1219.835938 C 2115.636719 1221.84375 2113.140625 1223.792969 2110.597656 1225.675781 C 2108.050781 1227.5625 2105.464844 1229.386719 2102.832031 1231.144531 C 2100.199219 1232.90625 2097.523438 1234.597656 2094.804688 1236.226562 C 2092.089844 1237.855469 2089.335938 1239.417969 2086.542969 1240.910156 C 2083.75 1242.402344 2080.921875 1243.824219 2078.058594 1245.179688 C 2075.195312 1246.535156 2072.300781 1247.816406 2069.375 1249.027344 C 2066.449219 1250.238281 2063.496094 1251.378906 2060.515625 1252.445312 C 2057.53125 1253.511719 2054.527344 1254.507812 2051.496094 1255.425781 C 2048.464844 1256.34375 2045.414062 1257.1875 2042.34375 1257.957031 C 2039.269531 1258.726562 2036.183594 1259.421875 2033.074219 1260.039062 C 2029.96875 1260.65625 2026.851562 1261.199219 2023.71875 1261.664062 C 2020.585938 1262.128906 2017.441406 1262.515625 2014.292969 1262.828125 C 2011.140625 1263.136719 2007.984375 1263.371094 2004.820312 1263.523438 C 2001.65625 1263.679688 1998.492188 1263.757812 1995.324219 1263.757812 C 1992.15625 1263.757812 1988.992188 1263.679688 1985.828125 1263.523438 C 1982.667969 1263.371094 1979.507812 1263.136719 1976.359375 1262.828125 C 1973.207031 1262.515625 1970.0625 1262.128906 1966.929688 1261.664062 C 1963.800781 1261.199219 1960.679688 1260.65625 1957.574219 1260.039062 C 1954.46875 1259.421875 1951.378906 1258.726562 1948.304688 1257.957031 C 1945.234375 1257.1875 1942.183594 1256.34375 1939.152344 1255.425781 C 1936.121094 1254.507812 1933.117188 1253.511719 1930.132812 1252.445312 C 1927.152344 1251.378906 1924.199219 1250.242188 1921.273438 1249.027344 C 1918.347656 1247.816406 1915.453125 1246.535156 1912.589844 1245.179688 C 1909.726562 1243.824219 1906.898438 1242.402344 1904.105469 1240.910156 C 1901.3125 1239.417969 1898.558594 1237.855469 1895.84375 1236.226562 C 1893.125 1234.601562 1890.453125 1232.90625 1887.820312 1231.148438 C 1885.183594 1229.386719 1882.597656 1227.5625 1880.054688 1225.675781 C 1877.507812 1223.792969 1875.015625 1221.84375 1872.566406 1219.835938 C 1870.117188 1217.824219 1867.71875 1215.757812 1865.375 1213.628906 C 1863.027344 1211.503906 1860.734375 1209.320312 1858.496094 1207.082031 C 1856.257812 1204.84375 1854.074219 1202.550781 1851.945312 1200.203125 C 1849.820312 1197.855469 1847.75 1195.460938 1845.742188 1193.011719 C 1843.734375 1190.5625 1841.785156 1188.066406 1839.898438 1185.523438 C 1838.011719 1182.980469 1836.191406 1180.390625 1834.429688 1177.757812 C 1832.671875 1175.125 1830.976562 1172.449219 1829.347656 1169.734375 C 1827.722656 1167.019531 1826.160156 1164.261719 1824.667969 1161.46875 C 1823.175781 1158.675781 1821.75 1155.851562 1820.398438 1152.988281 C 1819.042969 1150.125 1817.761719 1147.230469 1816.546875 1144.304688 C 1815.335938 1141.378906 1814.199219 1138.425781 1813.128906 1135.441406 C 1812.0625 1132.460938 1811.070312 1129.453125 1810.152344 1126.425781 C 1809.230469 1123.394531 1808.386719 1120.34375 1807.617188 1117.269531 C 1806.847656 1114.199219 1806.15625 1111.109375 1805.535156 1108.003906 C 1804.917969 1104.898438 1804.378906 1101.777344 1803.914062 1098.644531 C 1803.449219 1095.511719 1803.0625 1092.371094 1802.75 1089.21875 C 1802.441406 1086.066406 1802.207031 1082.910156 1802.050781 1079.746094 C 1801.898438 1076.585938 1801.820312 1073.417969 1801.820312 1070.253906 C 1801.820312 1067.085938 1801.898438 1063.921875 1802.050781 1060.757812 C 1802.207031 1057.59375 1802.441406 1054.4375 1802.75 1051.285156 C 1803.0625 1048.132812 1803.449219 1044.992188 1803.914062 1041.859375 C 1804.378906 1038.726562 1804.917969 1035.609375 1805.535156 1032.5 C 1806.15625 1029.394531 1806.847656 1026.304688 1807.617188 1023.234375 C 1808.386719 1020.164062 1809.230469 1017.109375 1810.152344 1014.082031 C 1811.070312 1011.050781 1812.0625 1008.042969 1813.128906 1005.0625 C 1814.195312 1002.082031 1815.335938 999.125 1816.546875 996.199219 C 1817.761719 993.273438 1819.042969 990.378906 1820.398438 987.519531 C 1821.75 984.65625 1823.175781 981.828125 1824.667969 979.035156 C 1826.160156 976.242188 1827.722656 973.488281 1829.347656 970.769531 C 1830.976562 968.054688 1832.671875 965.378906 1834.429688 962.746094 C 1836.191406 960.113281 1838.011719 957.523438 1839.898438 954.980469 C 1841.785156 952.4375 1843.734375 949.941406 1845.742188 947.492188 C 1847.75 945.046875 1849.820312 942.648438 1851.945312 940.300781 C 1854.074219 937.957031 1856.257812 935.664062 1858.496094 933.421875 C 1860.734375 931.183594 1863.027344 929 1865.375 926.875 C 1867.71875 924.746094 1870.117188 922.679688 1872.566406 920.671875 C 1875.015625 918.660156 1877.507812 916.714844 1880.054688 914.828125 C 1882.597656 912.941406 1885.183594 911.117188 1887.820312 909.359375 C 1890.453125 907.597656 1893.125 905.90625 1895.84375 904.277344 C 1898.558594 902.648438 1901.3125 901.089844 1904.105469 899.59375 C 1906.898438 898.101562 1909.726562 896.679688 1912.589844 895.324219 C 1915.453125 893.972656 1918.347656 892.6875 1921.273438 891.476562 C 1924.199219 890.265625 1927.152344 889.125 1930.132812 888.058594 C 1933.117188 886.992188 1936.121094 886 1939.152344 885.078125 C 1942.183594 884.160156 1945.234375 883.316406 1948.304688 882.546875 C 1951.378906 881.777344 1954.46875 881.082031 1957.574219 880.464844 C 1960.679688 879.847656 1963.800781 879.304688 1966.929688 878.839844 C 1970.0625 878.375 1973.207031 877.988281 1976.359375 877.679688 C 1979.507812 877.367188 1982.667969 877.136719 1985.828125 876.980469 C 1988.992188 876.824219 1992.15625 876.746094 1995.324219 876.746094 C 1998.492188 876.746094 2001.65625 876.824219 2004.820312 876.980469 C 2007.984375 877.136719 2011.140625 877.367188 2014.292969 877.679688 C 2017.441406 877.988281 2020.585938 878.375 2023.71875 878.839844 C 2026.851562 879.304688 2029.96875 879.847656 2033.074219 880.464844 C 2036.183594 881.082031 2039.269531 881.777344 2042.34375 882.546875 C 2045.414062 883.316406 2048.464844 884.160156 2051.496094 885.078125 C 2054.527344 886 2057.53125 886.992188 2060.515625 888.058594 C 2063.496094 889.125 2066.449219 890.265625 2069.375 891.476562 C 2072.300781 892.6875 2075.195312 893.972656 2078.058594 895.324219 C 2080.921875 896.679688 2083.75 898.101562 2086.542969 899.59375 C 2089.335938 901.089844 2092.089844 902.648438 2094.804688 904.277344 C 2097.523438 905.90625 2100.199219 907.597656 2102.832031 909.359375 C 2105.464844 911.117188 2108.050781 912.941406 2110.597656 914.828125 C 2113.140625 916.714844 2115.636719 918.660156 2118.082031 920.671875 C 2120.53125 922.679688 2122.929688 924.746094 2125.277344 926.875 C 2127.621094 929 2129.914062 931.183594 2132.152344 933.421875 C 2134.394531 935.664062 2136.578125 937.957031 2138.703125 940.300781 C 2140.828125 942.648438 2142.898438 945.046875 2144.90625 947.492188 C 2146.917969 949.941406 2148.863281 952.4375 2150.75 954.980469 C 2152.636719 957.523438 2154.460938 960.113281 2156.21875 962.746094 C 2157.976562 965.378906 2159.671875 968.054688 2161.300781 970.769531 C 2162.929688 973.488281 2164.488281 976.242188 2165.980469 979.035156 C 2167.472656 981.828125 2168.898438 984.65625 2170.25 987.519531 C 2171.605469 990.378906 2172.890625 993.273438 2174.101562 996.199219 C 2175.3125 999.125 2176.453125 1002.082031 2177.519531 1005.0625 C 2178.585938 1008.042969 2179.578125 1011.050781 2180.5 1014.082031 C 2181.417969 1017.109375 2182.261719 1020.164062 2183.03125 1023.234375 C 2183.800781 1026.304688 2184.496094 1029.394531 2185.113281 1032.5 C 2185.730469 1035.605469 2186.269531 1038.726562 2186.734375 1041.859375 C 2187.199219 1044.992188 2187.589844 1048.132812 2187.898438 1051.285156 C 2188.210938 1054.4375 2188.441406 1057.59375 2188.597656 1060.757812 C 2188.753906 1063.921875 2188.832031 1067.085938 2188.832031 1070.253906 Z M 2188.832031 1070.253906 " fill-opacity="1" fill-rule="nonzero"/></svg>