<svg xmlns="http://www.w3.org/2000/svg" viewBox="0 0 512 512" id="pharmacy-app"><path fill="#ffcd85" d="m168.326 437.929 16.412-16.413a31.85 31.85 0 0 1 20.437-9.26l21.06-1.382a117.229 117.229 0 0 0 97.061-64.314l15.164-30.156-56.82-44.904-121.972 90.395 2.367 60.602Z"></path><path fill="#ffcd85" d="m168.326 427.929 16.412-16.413a31.85 31.85 0 0 1 20.437-9.26l21.06-1.382a117.229 117.229 0 0 0 97.061-64.314l15.164-30.156-56.82-44.904-121.972 90.395 2.367 60.602Z"></path><path fill="#ffb74e" d="M323.296 326.56a117.23 117.23 0 0 1-97.06 64.314l-21.06 1.381a31.85 31.85 0 0 0-20.438 9.26l-22.703 20.982 6.29 15.432 16.413-16.413a31.85 31.85 0 0 1 20.438-9.26l21.06-1.382a117.23 117.23 0 0 0 97.06-64.314l15.164-30.156-7.197-5.687Z"></path><path fill="#ffb74e" d="M184.554 343.452c-5.246 3.888-2.6 12.332 3.93 12.36l.17.001h125.551a6.858 6.858 0 0 0 5.94-3.42q1.653-2.86 3.151-5.833l12.654-25.164a6.853 6.853 0 0 0-1.874-8.456l-48.32-38.188a6.853 6.853 0 0 0-8.33-.129Z"></path><rect width="211.446" height="338.313" x="150.21" y="7.5" fill="#676e87" rx="38.445"></rect><path fill="#595f74" d="M323.211 7.5h-20a38.445 38.445 0 0 1 38.445 38.445v261.424a38.445 38.445 0 0 1-38.445 38.444h20a38.445 38.445 0 0 0 38.445-38.444V45.945A38.445 38.445 0 0 0 323.211 7.5Z"></path><path fill="#b3e0ff" d="M150.21 61.796h211.446v223.198H150.21z"></path><path fill="#8cd0ff" d="M341.656 61.796h20v223.198h-20z"></path><path fill="#595f74" d="M169.092 243.048a26.603 26.603 0 0 1-2.964-19.05l10.447-47.508c5.254-23.897-2.27-46.557-26.365-47.835V307.37a38.445 38.445 0 0 0 38.445 38.444h7.194l3.83-14.477a90.661 90.661 0 0 0 .005-46.348c-2.045-7.74-15.123-15.24-19.206-22.288Z"></path><path fill="#8cd0ff" d="m190.478 262.7-11.386-19.652a26.603 26.603 0 0 1-2.964-19.05l10.447-47.508a39.427 39.427 0 0 0-36.365-47.835v156.34h49.449a90.589 90.589 0 0 0-9.181-22.295Z"></path><path fill="#ffcd85" d="m180.478 366.119 9.2-34.783a90.664 90.664 0 0 0-9.2-68.636l-11.387-19.652a26.604 26.604 0 0 1-2.963-19.05l10.447-47.509a39.428 39.428 0 0 0-38.509-47.896 5.534 5.534 0 0 0-5.25 3.784L96.38 241.69a40.39 40.39 0 0 0-2.073 12.773v39.516a40.39 40.39 0 0 1-8.211 24.411l-12.15 16.017 88.09 88.09zm164.656-244.632a25.651 25.651 0 0 1-.25-36.846l9.185-9.02a25.651 25.651 0 0 1 35.696-.243 25.651 25.651 0 0 1 .25 36.846l-9.185 9.02a25.651 25.651 0 0 1-35.696.243z"></path><path fill="#ffc166" d="M389.765 75.378a25.626 25.626 0 0 0-22.752-6.61 25.524 25.524 0 0 1 12.752 6.61 25.651 25.651 0 0 1 .25 36.846l-9.185 9.02a25.538 25.538 0 0 1-12.944 6.852 25.617 25.617 0 0 0 22.944-6.852l9.185-9.02a25.651 25.651 0 0 0-.25-36.846Z"></path><path fill="#ffcd85" d="M340.307 181.615a25.651 25.651 0 0 1-.251-36.846l9.185-9.02a25.651 25.651 0 0 1 35.696-.243 25.651 25.651 0 0 1 .25 36.846l-9.185 9.02a25.651 25.651 0 0 1-35.695.243Z"></path><path fill="#ffc166" d="M384.937 135.506a25.626 25.626 0 0 0-22.752-6.609 25.523 25.523 0 0 1 12.752 6.609 25.651 25.651 0 0 1 .25 36.846l-9.185 9.02a25.54 25.54 0 0 1-12.944 6.852 25.617 25.617 0 0 0 22.944-6.852l9.185-9.02a25.651 25.651 0 0 0-.25-36.846Z"></path><path fill="#ffcd85" d="M338.111 241.465a25.651 25.651 0 0 1-.25-36.846l9.185-9.02a25.651 25.651 0 0 1 35.696-.243 25.651 25.651 0 0 1 .25 36.846l-9.185 9.02a25.651 25.651 0 0 1-35.696.243Z"></path><path fill="#ffc166" d="M382.741 195.356a25.625 25.625 0 0 0-22.751-6.609 25.522 25.522 0 0 1 12.751 6.61 25.651 25.651 0 0 1 .251 36.845l-9.185 9.02a25.538 25.538 0 0 1-12.944 6.852 25.617 25.617 0 0 0 22.944-6.852l9.185-9.02a25.651 25.651 0 0 0-.25-36.846Z"></path><path fill="#ffcd85" d="M338.111 300.951a25.651 25.651 0 0 1-.25-36.846l9.185-9.02a25.651 25.651 0 0 1 35.696-.243 25.651 25.651 0 0 1 .25 36.846l-9.185 9.02a25.651 25.651 0 0 1-35.696.243Z"></path><path fill="#ffb74e" d="M382.741 254.842a25.626 25.626 0 0 0-22.751-6.609 25.524 25.524 0 0 1 12.751 6.61 25.651 25.651 0 0 1 .251 36.845l-9.185 9.02a25.539 25.539 0 0 1-12.944 6.852 25.618 25.618 0 0 0 22.944-6.851l9.185-9.02a25.651 25.651 0 0 0-.25-36.847Z"></path><path fill="#66c1ff" d="M6.477 385.275a6 6 0 0 1 .143-8.269l44.014-44.696a15 15 0 0 1 21.213 0l102.44 102.44a15 15 0 0 1 0 21.213l-49.274 49.114a6 6 0 0 1-8.654-.19Z"></path><path fill="#313440" d="M400.365 153.825a32.884 32.884 0 0 0-10.247-23.741 33.845 33.845 0 0 0-4.152-3.378c.039-.038.08-.073.119-.11l9.185-9.02a33.196 33.196 0 0 0-26.114-56.729V45.945A45.997 45.997 0 0 0 323.211 0H188.655a45.997 45.997 0 0 0-45.945 45.945v75.385c-1.533-.15-3.08-.24-4.64-.24a13.04 13.04 0 0 0-12.365 8.918L89.263 239.323a47.877 47.877 0 0 0-2.453 15.137v39.52a33.058 33.058 0 0 1-6.694 19.876l-7.388 9.734a22.449 22.449 0 0 0-27.429 3.448l-22.005 22.27a7.312 7.312 0 0 0-2.372 2.401L2.165 370.691a7.5 7.5 0 0 0 10.67 10.543l14.636-14.812 112.875 112.875-19.9 19.9a7.5 7.5 0 1 0 10.607 10.606l25.2-25.2.003-.002.002-.003 23.332-23.332a22.45 22.45 0 0 0 3.413-27.403l7.045-7.045a24.276 24.276 0 0 1 15.626-7.074l21.057-1.39a125.226 125.226 0 0 0 101.653-65.34 46.021 46.021 0 0 0 40.422-40.07 33.363 33.363 0 0 0 10.256-6.884l9.186-9.02a33.151 33.151 0 0 0-.325-47.62 33.628 33.628 0 0 0-6.694-4.974l7.018-6.893a33.152 33.152 0 0 0-.324-47.62 33.723 33.723 0 0 0-5.56-4.296l8.08-7.934a32.883 32.883 0 0 0 9.922-23.878Zm-41.041-72.853a18.151 18.151 0 0 1 25.436 25.901l-9.185 9.02a18.109 18.109 0 0 1-9.893 4.99c-.904.041-1.805.125-2.703.24a18.097 18.097 0 0 1-12.663-5.059 18.152 18.152 0 0 1-.177-26.072ZM157.71 45.945A30.98 30.98 0 0 1 188.655 15H323.21a30.98 30.98 0 0 1 30.945 30.945v8.35H157.71Zm0 23.35h192.145c-.351.318-.7.64-1.041.975l-9.185 9.02a33.15 33.15 0 0 0 .324 47.619 33.858 33.858 0 0 0 4.152 3.377l-.12.111-9.184 9.02a33.151 33.151 0 0 0 .324 47.62 33.715 33.715 0 0 0 5.56 4.298l-8.079 7.933a33.15 33.15 0 0 0 .324 47.62 33.62 33.62 0 0 0 6.695 4.973l-7.019 6.893a32.843 32.843 0 0 0-9.563 18.74H195.31a98.968 98.968 0 0 0-8.342-18.555l-11.386-19.643a19.082 19.082 0 0 1-2.128-13.686l10.44-47.509a46.965 46.965 0 0 0-26.185-52.711Zm11.274 381.364-18.032 18.032L38.014 355.752l17.924-18.14a7.5 7.5 0 0 1 10.606 0l102.44 102.44a7.5 7.5 0 0 1 0 10.607Zm56.763-47.273-21.052 1.39a39.258 39.258 0 0 0-25.258 11.44l-6.538 6.539-89.031-89.031 8.195-10.799a48.14 48.14 0 0 0 9.747-28.945v-39.52a32.893 32.893 0 0 1 1.685-10.398l35.984-107.941a32.006 32.006 0 0 1 6.71 1.008 7.447 7.447 0 0 0 3.522 1.152 31.956 31.956 0 0 1 19.534 36.6l-10.44 47.506a34.045 34.045 0 0 0 3.796 24.424l11.39 19.65a83.514 83.514 0 0 1 8.334 19.982 7.445 7.445 0 0 0 .23.879 82.757 82.757 0 0 1-.125 42.1l-9.2 34.78a7.5 7.5 0 1 0 14.5 3.836l3.896-14.725h119.17a110.214 110.214 0 0 1-85.05 50.073Zm97.464-65.073H195.593l1.338-5.057a98 98 0 0 0 2.055-40.762h125.248a33.353 33.353 0 0 0 28.832 23 30.995 30.995 0 0 1-29.855 22.82Zm59.959-65.05a18.005 18.005 0 0 1-5.433 13.074l-9.185 9.02a18.15 18.15 0 0 1-8.147 4.624 7.446 7.446 0 0 0-1.1.27 18.076 18.076 0 0 1-16.011-4.722h-.001a18.152 18.152 0 0 1-.177-26.073l9.185-9.02a18.144 18.144 0 0 1 8.212-4.641 33.007 33.007 0 0 0 2.52-.47 18.18 18.18 0 0 1 20.137 17.938Zm0-59.486a18.004 18.004 0 0 1-5.433 13.074l-9.185 9.02a18.144 18.144 0 0 1-8.242 4.648 33.02 33.02 0 0 0-2.549.477 18.168 18.168 0 0 1-14.645-31.026l9.185-9.02a18.136 18.136 0 0 1 9.005-4.837 33.005 33.005 0 0 0 2.354-.328 18.174 18.174 0 0 1 19.51 17.992Zm-3.237-46.776-9.185 9.02a18.143 18.143 0 0 1-8.995 4.835c-.792.079-1.58.194-2.367.33a18.072 18.072 0 0 1-13.898-4.993 18.15 18.15 0 0 1-.177-26.073l9.185-9.02a18.113 18.113 0 0 1 9.85-4.985c.9-.04 1.798-.125 2.692-.239.059 0 .117-.008.175-.008A18.174 18.174 0 0 1 379.933 167Z"></path></svg>