<svg xmlns="http://www.w3.org/2000/svg" fill-rule="evenodd" stroke-linejoin="round" stroke-miterlimit="2" clip-rule="evenodd" viewBox="0 0 64 64" id="cinema-hall"><g transform="translate(-314 -30)"><path fill="#e6e6e6" d="M379.016,32.762C379.016,31.302 377.651,30.119 375.968,30.119L317.032,30.119C315.349,30.119 313.984,31.302 313.984,32.762L313.984,66.238C313.984,67.698 315.349,68.881 317.032,68.881L375.968,68.881C377.651,68.881 379.016,67.698 379.016,66.238L379.016,32.762Z" transform="matrix(.98413 0 0 1.13514 5 -4.19)"></path><path fill="#b7281f" d="M315,56C314.448,56 314,56.448 314,57L314,71C314,72.657 315.343,74 317,74L331,74L331,63C331,58.483 329.338,54.378 326.636,51.336C326.447,51.122 326.174,51 325.889,51C325.603,51 325.331,51.122 325.141,51.336C322.594,54.204 318.993,56 315,56Z"></path><path fill="#b7281f" d="M315,56C314.448,56 314,56.448 314,57L314,71C314,72.657 315.343,74 317,74L331,74L331,63C331,58.483 329.338,54.378 326.636,51.336C326.447,51.122 326.174,51 325.889,51C325.603,51 325.331,51.122 325.141,51.336C322.594,54.204 318.993,56 315,56Z" transform="matrix(-1 0 0 1 692 0)"></path><path fill="#971c15" d="M314,55.152C314,54.6 314.448,54.152 315,54.152C315.552,54.152 316,54.6 316,55.152C316,55.152 316,55.962 316,55.962C317.713,55.832 319.341,55.372 320.828,54.64C321.323,54.397 321.921,54.6 322.166,55.093C323.336,57.455 324,60.145 324,63L324,74L317,74C315.343,74 314,72.657 314,71L314,55.152Z"></path><path fill="#971c15" d="M314,55.152C314,54.6 314.448,54.152 315,54.152C315.552,54.152 316,54.6 316,55.152C316,55.152 316,55.962 316,55.962C317.713,55.832 319.341,55.372 320.828,54.64C321.323,54.397 321.921,54.6 322.166,55.093C323.336,57.455 324,60.145 324,63L324,74L317,74C315.343,74 314,72.657 314,71L314,55.152Z" transform="matrix(-1 0 0 1 692 0)"></path><circle cx="347.25" cy="51.25" r="7.975" fill="#f0b638" transform="translate(-132.966 -18.69) scale(1.37931)"></circle><path fill="#aa7707" d="M347.154,47.459C347.011,47.173 346.765,47 346.5,47C346.235,47 345.989,47.173 345.846,47.459L342.346,54.459C342.192,54.767 342.181,55.158 342.317,55.479C342.454,55.8 342.715,56 343,56L350,56C350.285,56 350.546,55.8 350.683,55.479C350.819,55.158 350.808,54.767 350.654,54.459L347.154,47.459Z" transform="matrix(0 1.28571 -1 0 398 -393.5)"></path><path fill="#6337b0" d="M349.9,80.909C349.9,80.222 349.616,79.563 349.109,79.077C348.603,78.591 347.916,78.318 347.2,78.318C345.631,78.318 343.369,78.318 341.8,78.318C341.084,78.318 340.397,78.591 339.891,79.077C339.384,79.563 339.1,80.222 339.1,80.909L339.1,93C339.1,93.477 339.503,93.864 340,93.864L349,93.864C349.497,93.864 349.9,93.477 349.9,93L349.9,80.909Z" transform="matrix(1.11111 0 0 1.15789 -36.778 -14.684)"></path><path fill="#6337b0" d="M349.9,80.909C349.9,80.222 349.616,79.563 349.109,79.077C348.603,78.591 347.916,78.318 347.2,78.318C345.631,78.318 343.369,78.318 341.8,78.318C341.084,78.318 340.397,78.591 339.891,79.077C339.384,79.563 339.1,80.222 339.1,80.909L339.1,93C339.1,93.477 339.503,93.864 340,93.864L349,93.864C349.497,93.864 349.9,93.477 349.9,93L349.9,80.909Z" transform="matrix(1.11111 0 0 1.15789 -18.778 -14.684)"></path><path fill="#6337b0" d="M349.9,80.909C349.9,80.222 349.616,79.563 349.109,79.077C348.603,78.591 347.916,78.318 347.2,78.318C345.631,78.318 343.369,78.318 341.8,78.318C341.084,78.318 340.397,78.591 339.891,79.077C339.384,79.563 339.1,80.222 339.1,80.909L339.1,93C339.1,93.477 339.503,93.864 340,93.864L349,93.864C349.497,93.864 349.9,93.477 349.9,93L349.9,80.909Z" transform="matrix(1.11111 0 0 1.15789 -54.778 -14.684)"></path><path fill="#d3433a" d="M314,58.007L315.206,57.999C323.924,57.881 331,50.326 331,41L331,30L317,30C315.343,30 314,31.343 314,33L314,58.007Z"></path><path fill="#d3433a" d="M314,58.007L315.206,57.999C323.924,57.881 331,50.326 331,41L331,30L317,30C315.343,30 314,31.343 314,33L314,58.007Z" transform="matrix(-1 0 0 1 692 0)"></path><path fill="#af2118" d="M324,30L317,30C315.343,30 314,31.343 314,33L314,56.763C314,56.763 315.182,56.198 315.492,56.023C320.543,53.172 324,47.515 324,41C324,41 324,30 324,30Z"></path><path fill="#af2118" d="M324,30L317,30C315.343,30 314,31.343 314,33L314,56.763C314,56.763 315.182,56.198 315.492,56.023C320.543,53.172 324,47.515 324,41C324,41 324,30 324,30Z" transform="matrix(-1 0 0 1 692 0)"></path><path fill="#471899" d="M340,90L352,90C352.552,90 353,89.552 353,89C353,88.448 352.552,88 352,88L340,88C339.448,88 339,88.448 339,89C339,89.552 339.448,90 340,90Z" transform="translate(-18 4)"></path><path fill="#471899" d="M340,90L352,90C352.552,90 353,89.552 353,89C353,88.448 352.552,88 352,88L340,88C339.448,88 339,88.448 339,89C339,89.552 339.448,90 340,90Z" transform="translate(0 4)"></path><path fill="#471899" d="M340,90L352,90C352.552,90 353,89.552 353,89C353,88.448 352.552,88 352,88L340,88C339.448,88 339,88.448 339,89C339,89.552 339.448,90 340,90Z" transform="translate(18 4)"></path></g></svg>