<svg xmlns="http://www.w3.org/2000/svg" viewBox="0 0 64 64" id="television"><path fill="#CCC" d="M22 10a.997.997 0 0 1-.707-.293l-6-6a.999.999 0 1 1 1.414-1.414L22 7.586l5.293-5.293a.999.999 0 1 1 1.414 1.414l-6 6A.997.997 0 0 1 22 10z"></path><path fill="#4D4D4D" d="M14.999 61a1 1 0 0 1-.893-1.447l2-4a1 1 0 0 1 1.789.895l-2 4c-.176.35-.529.552-.896.552zM49.001 61a1 1 0 0 1-.896-.553l-2-4a1 1 0 0 1 1.789-.895l2 4A1 1 0 0 1 49.001 61z"></path><path fill="#FF8000" d="M55.747 55.805c-16.045 1.593-31.45 1.593-47.495 0-1.761-.175-3.183-1.507-3.528-3.242a90.266 90.266 0 0 1 0-35.125c.345-1.736 1.767-3.068 3.528-3.242 16.045-1.593 31.45-1.593 47.495 0 1.761.175 3.183 1.506 3.528 3.242a90.266 90.266 0 0 1 0 35.125c-.345 1.736-1.767 3.067-3.528 3.242z"></path><path fill="#FFF" d="M48 35c0-3.558-.158-7.116-.474-10.832-.247-2.904-2.515-5.239-5.417-5.51a151.64 151.64 0 0 0-28.217 0c-2.902.271-5.17 2.607-5.417 5.51-.633 7.431-.633 14.232 0 21.663.247 2.904 2.515 5.239 5.417 5.51 9.38.877 18.837.877 28.217 0 2.902-.271 5.17-2.607 5.417-5.51a135 135 0 0 0 .329-4.901L48 35z"></path><path fill="#CCC" d="m17.027 23.442-.177-1.992a110.29 110.29 0 0 1 2.083-.166l.141 1.994c-.683.049-1.365.103-2.047.164zM13.003 34.07l-2-.016c.019-2.459.135-4.917.356-7.514a5.566 5.566 0 0 1 3.097-4.522l.871 1.801a3.56 3.56 0 0 0-1.976 2.892 95.058 95.058 0 0 0-.348 7.359z"></path><path fill="#FFF" d="M51 20h6v2h-6zM51 25h6v2h-6zM51 30h6v2h-6zM51 35h2v2h-2zM55 35h2v2h-2zM51 39h2v2h-2zM55 39h2v2h-2z"></path><circle cx="54" cy="46" r="2" fill="#FFF"></circle><path fill="#4D4D4D" d="M54 49c-1.654 0-3-1.346-3-3s1.346-3 3-3 3 1.346 3 3-1.346 3-3 3zm0-4a1 1 0 1 0 0 2 1 1 0 0 0 0-2zM22 9a8.996 8.996 0 0 0-7.898 4.684c5.17-.391 10.288-.598 15.4-.653A8.99 8.99 0 0 0 22 9z"></path></svg>