<svg xmlns="http://www.w3.org/2000/svg" viewBox="0 0 512 512" id="diabetes-care"><path fill="#676e87" d="M365.50018,377.5H321.52794a15,15,0,0,1-12.48076-6.6795L283.50018,332.5h-55l-25.547,38.3205A15,15,0,0,1,190.47243,377.5H146.50018a30,30,0,0,1-30-30V37.5a30,30,0,0,1,30-30h219a30,30,0,0,1,30,30v310A30,30,0,0,1,365.50018,377.5Z"></path><path fill="#595f74" d="M365.50018 7.5h-30a30 30 0 0 1 30 30v310a30 30 0 0 1-30 30h30a30 30 0 0 0 30-30V37.5A30 30 0 0 0 365.50018 7.5zM172.95319 370.82056A15.00029 15.00029 0 0 1 160.47241 377.5h30a15.00029 15.00029 0 0 0 12.48078-6.67944L228.50018 332.5h-30z"></path><rect width="210" height="199" x="151" y="53" fill="#fff" rx="5" transform="rotate(90 256 152.5)"></rect><path fill="#ffe236" d="M320.50018,235h-129a7.5,7.5,0,0,1,0-15h129a7.5,7.5,0,0,1,0,15Z"></path><path fill="#f66" d="M263.00018,152.5a37,37,0,0,1-74,0c0-20.43454,37-67,37-67S263.00018,132.06546,263.00018,152.5Z"></path><path fill="#ff4e4e" d="M226.00018,85.5s-3.099,3.90125-7.5,9.93469c10.813,14.82373,29.5,42.54193,29.5,57.06531a37.01206,37.01206,0,0,1-29.5,36.23828,37.028,37.028,0,0,0,44.5-36.23828C263.00018,132.06543,226.00018,85.5,226.00018,85.5Z"></path><path fill="#cecece" d="M273.50018,504.5h-35a10,10,0,0,1-10-10v-177h55v177A10,10,0,0,1,273.50018,504.5Z"></path><path fill="#bebebe" d="M261.00018,317.5v177a10,10,0,0,1-10,10h22.5a10,10,0,0,0,10-10v-177Z"></path><path fill="#4a4f60" d="M298.50018,325h-85a7.5,7.5,0,0,1,0-15h85a7.5,7.5,0,0,1,0,15Z"></path><path fill="#ff8e66" d="M335.93644,296.70032,361.38322,313.118a7,7,0,0,1,0,11.76408l-25.44678,16.41764a5,5,0,0,1-7.71068-4.20145V300.90177A5,5,0,0,1,335.93644,296.70032Z"></path><path fill="#ff7c4e" d="M361.38324,313.11792l-25.44678-16.4176a5,5,0,0,0-7.71069,4.20141v.50147l18.15747,11.71472a7.0001,7.0001,0,0,1,0,11.76416L328.22577,336.5968v.50134a5,5,0,0,0,7.71069,4.20154l25.44678-16.4176A7.0001,7.0001,0,0,0,361.38324,313.11792Z"></path><path fill="#63ea86" d="M176.06393,296.70032,150.61714,313.118a7,7,0,0,0,0,11.76408l25.44679,16.41764a5,5,0,0,0,7.71067-4.20145V300.90177A5,5,0,0,0,176.06393,296.70032Z"></path><path fill="#3ce568" d="M176.0639,296.70032l-7.2893,4.70288v35.1936l7.2893,4.70288a5,5,0,0,0,7.7107-4.20154V300.90173A5,5,0,0,0,176.0639,296.70032Z"></path><path fill="#63ea86" d="M310.50018,93h-23.0708a7.5,7.5,0,0,1,0-15h23.0708a7.5,7.5,0,0,1,0,15Z"></path><path fill="#ff8e66" d="M310.50018,123h-23.0708a7.5,7.5,0,0,1,0-15h23.0708a7.5,7.5,0,0,1,0,15Z"></path></svg>