<svg xmlns="http://www.w3.org/2000/svg" viewBox="0 0 24 24" id="flat-face-with-glasses"><rect width="22" height="22" x="1" y="1" fill="#f8de40" rx="7.656"></rect><path fill="#e7c930" d="M23 13.938a14.688 14.688 0 0 1-12.406 6.531c-5.542 0-6.563-1-9.142-2.529A7.66 7.66 0 0 0 8.656 23h6.688A7.656 7.656 0 0 0 23 15.344Z"></path><path fill="#101820" d="M21.554 5.693c-.063-.289-2.888-.829-4.871-.829a5.584 5.584 0 0 0-3.3.7A3.125 3.125 0 0 1 12 5.919a3.125 3.125 0 0 1-1.381-.352 5.584 5.584 0 0 0-3.3-.7c-1.983 0-4.808.54-4.871.829s-.113 1.217.088 1.381.439.025.477.6.477 2.976 1.808 3.767 3.741.163 4.6-.365A4.3 4.3 0 0 0 11.3 8.568c.138-.892.351-1.507.7-1.507s.565.615.7 1.507a4.3 4.3 0 0 0 1.883 2.51c.854.528 3.264 1.155 4.6.365s1.77-3.189 1.808-3.767.276-.439.477-.6.149-1.095.086-1.383Z"></path><path fill="#864e20" d="M13.709 13.062h-3.418c-.288 0-.521.14-.521.313s.233.312.521.312h3.418c.288 0 .521-.139.521-.312s-.23-.313-.521-.313Z"></path></svg>