<svg xmlns="http://www.w3.org/2000/svg" viewBox="0 0 128 128" id="bored"><circle cx="64" cy="64" r="58" fill="#f8dc25"></circle><path fill="#f2bc0f" d="M53,107A71.65,71.65,0,0,1,16.25,96.91,58,58,0,0,0,121.56,57,72,72,0,0,1,53,107Z" opacity=".7"></path><path fill="none" stroke="#f2bc0f" stroke-linecap="round" stroke-linejoin="round" stroke-width="4" d="M50.68 62.29A15.6 15.6 0 0126.87 79M77.35 62.17A15.6 15.6 0 00101.13 79" opacity=".4"></path><path fill="#fff" d="M52,63a13,13,0,0,1-26,0"></path><path fill="#515570" d="M43,63a7,7,0,0,1-14,0"></path><path fill="#fff" d="M102,63a13,13,0,0,1-26,0"></path><path fill="#515570" d="M93,63a7,7,0,0,1-14,0"></path><line x1="24" x2="54" y1="62" y2="62" fill="none" stroke="#f2bc0f" stroke-linecap="round" stroke-miterlimit="10" stroke-width="4"></line><line x1="74" x2="104" y1="62" y2="62" fill="none" stroke="#f2bc0f" stroke-linecap="round" stroke-miterlimit="10" stroke-width="4"></line><path fill="#393c54" d="M48.89,108A1.9,1.9,0,0,1,47,105.84a17.12,17.12,0,0,1,34,0A1.9,1.9,0,0,1,79.11,108Z"></path><path fill="#f85565" d="M75.5,108a12.13,12.13,0,0,0-23,0Z"></path><line x1="58" x2="70" y1="114" y2="114" fill="none" stroke="#f2bc0f" stroke-linecap="round" stroke-linejoin="round" stroke-width="4"></line></svg>