<svg xmlns="http://www.w3.org/2000/svg" enable-background="new 0 0 130 130" viewBox="0 0 130 130" id="reading-map"><linearGradient id="a" x1="-774.533" x2="-774.533" y1="72.055" y2="-28.28" gradientTransform="matrix(-1 0 0 1 -709.533 0)" gradientUnits="userSpaceOnUse"><stop offset="0" stop-color="#ee5b5a"></stop><stop offset=".993" stop-color="#e33f21"></stop></linearGradient><path fill="url(#a)" d="M129,65c0-35.3-28.7-64-64-64C29.7,1,1,29.7,1,65c0,35.3,28.7,64,64,64
									C100.3,129,129,100.3,129,65z"></path><linearGradient id="b" x1="36.164" x2="40.841" y1="42.028" y2="-26.406" gradientUnits="userSpaceOnUse"><stop offset="0" stop-color="#ee5b5a"></stop><stop offset=".993" stop-color="#e33f21"></stop></linearGradient><path fill="url(#b)" d="M36.6,27c-3.6-1.2-7.2-2.7-11-2.8c-3.7-0.1-7.4,1-11.1,1.5c-1.7,2.1-3.2,4.4-4.6,6.7
				c18,0.6,36,0.2,53.9-1.4C54.6,31.3,45.3,29.9,36.6,27z"></path><linearGradient id="c" x1="76.896" x2="57.538" y1="23.548" y2="-17.042" gradientUnits="userSpaceOnUse"><stop offset="0" stop-color="#ee5b5a"></stop><stop offset=".993" stop-color="#e33f21"></stop></linearGradient><path fill="url(#c)" d="M47.9,23.8c17.5-3.7,35-7.8,52.4-12.1c-1.8-1.2-3.6-2.2-5.4-3.2C79.2,13.5,63.6,18.6,47.9,23.8z"></path><linearGradient id="d" x1="65" x2="65" y1="109.545" y2="30.196" gradientUnits="userSpaceOnUse"><stop offset="0" stop-color="#ee5b5a"></stop><stop offset=".993" stop-color="#e33f21"></stop></linearGradient><path fill="url(#d)" d="M84.6,103.2h-3.4V80.8c0-1.7-1.3-3-3-3H44c-1.7,0-3,1.3-3,3v21.8h-3.1V43.3c0-1.7-1.4-3-3.1-3
					L5.7,41c-3.5,8.6-5.2,18-4.6,28c2,32.5,28.5,58.6,61,60C98.8,130.5,129,101.3,129,65c0-5-0.6-9.8-1.7-14.5H87.6
					c-1.7,0-3,1.3-3,3V103.2z"></path><g><linearGradient id="e" x1="-774.531" x2="-774.531" y1="136.516" y2="86.365" gradientTransform="matrix(-1 0 0 1 -709.533 0)" gradientUnits="userSpaceOnUse"><stop offset="0" stop-color="#ee5b5a"></stop><stop offset=".993" stop-color="#e33f21"></stop></linearGradient><path fill="url(#e)" d="M20.8,111.3c11.5,11,27,17.7,44.2,17.7c17.1,0,32.7-6.8,44.2-17.7H20.8z"></path></g><g><linearGradient id="f" x1="-630.106" x2="-542.396" y1="-127.364" y2="-127.364" gradientTransform="rotate(-15.729 350.337 -2562.034)" gradientUnits="userSpaceOnUse"><stop offset="0" stop-color="#3ac9be"></stop><stop offset=".996" stop-color="#199b92"></stop></linearGradient><path fill="url(#f)" d="M84.8,42.5c-8.1,1.7-14.5-4-18.7-7.1c-0.5-0.5-2.6,1.6-2.1,2.4c2.6,4.7,7.3,10.8,10.2,12.6
						c3.5,2.2,7.1,3.4,10.6,3.7V42.5z"></path><linearGradient id="g" x1="-99.158" x2="-116.183" y1="54.056" y2="19.135" gradientTransform="rotate(-3.56 193.76 -2545.656) scale(1.00003)" gradientUnits="userSpaceOnUse"><stop offset=".004" stop-color="#e6e7e8"></stop><stop offset="1" stop-color="#f1f2f2"></stop></linearGradient><path fill="url(#g)" d="M77.5,59.9c-12.2,6.6-24,10-34.5,5.4L23.2,30.4c13.9,6.2,26.3,6,36.9-1L77.5,59.9z"></path><linearGradient id="h" x1="27.824" x2="25.423" y1="41.261" y2="33.917" gradientUnits="userSpaceOnUse"><stop offset="0" stop-color="#fdd3c3"></stop><stop offset=".996" stop-color="#fbb09b"></stop></linearGradient><path fill="url(#h)" d="M27.7,39.7c0,0,1.1-3,0.3-4.1c-0.8-1.1-1.2,1.2-1.2,1.2L25.2,34c0,0-2,3.8,1.3,7.7"></path><g><linearGradient id="i" x1="92.863" x2="92.863" y1="112.79" y2="63.151" gradientUnits="userSpaceOnUse"><stop offset="0" stop-color="#293377"></stop><stop offset=".989" stop-color="#14163f"></stop></linearGradient><path fill="url(#i)" d="M72.9,93.6l3.5,34.3c5.4-1,10.7-2.6,15.5-4.9l0.9-9l0.8,8.1c6.6-3.3,12.5-7.7,17.5-13
								l1.6-15.6C112.8,81.9,72.9,81.9,72.9,93.6z"></path><linearGradient id="j" x1="91.75" x2="89.473" y1="33.26" y2="11.291" gradientUnits="userSpaceOnUse"><stop offset="0" stop-color="#fdd3c3"></stop><stop offset=".996" stop-color="#fbb09b"></stop></linearGradient><path fill="url(#j)" d="M81.9,12.1c-1.8,4.3-1.5,7.9-0.9,12.2c0.3,2.1,2.1,3.8,4.2,4v4.2h14.1V12.1H81.9z"></path><linearGradient id="k" x1="79.913" x2="100.32" y1="16.82" y2="16.82" gradientUnits="userSpaceOnUse"><stop offset="0" stop-color="#383547"></stop><stop offset=".993" stop-color="#272535"></stop></linearGradient><path fill="url(#k)" d="M99.7,22.4c-0.2,0.8-0.8,1.5-1.7,1.6c-2.3,0.3-6.8,0.6-8.4-0.6c-2.2-1.7,0.3-6.5-2.4-6.5
											c-2.7,0-2.4,2.1-3.8,1.9c-1.6-0.2,0.2-4.1-1.3-4.3c-2-0.4-2.7-1.7-1.8-3.5s16.9-2.7,20,1.1
											C100.3,12.1,100.5,18.3,99.7,22.4z"></path><g><linearGradient id="l" x1="93.411" x2="92.23" y1="33.677" y2="22.276" gradientUnits="userSpaceOnUse"><stop offset="0" stop-color="#3ac9be"></stop><stop offset=".996" stop-color="#199b92"></stop></linearGradient><path fill="url(#l)" d="M103.4,32.2c-0.8-2.1-2.2-5.3-3-6.3c-1.3-1.6-7.8-1.5-12.3,0.8c-3.4,1.7-4.6,4.4-5,5.6
										H103.4z"></path></g><g><linearGradient id="m" x1="25.413" x2="113.124" y1="64.829" y2="64.829" gradientUnits="userSpaceOnUse"><stop offset="0" stop-color="#3ac9be"></stop><stop offset=".996" stop-color="#199b92"></stop></linearGradient><path fill="url(#m)" d="M113.1,37.5v54.5c0,10.1-40.6,10.1-40.6,0V58.9c-13.9,6.2-29.7,9.3-40.7-2.8
										c-2.3-2.5-5.2-9.7-6.4-14.9c-0.3-0.9,2.3-2.3,2.7-1.7c0.4,0.5,0.8,1,1.2,1.6C39.5,55.2,49.6,53.6,63,43.3
										c3.5-2.7,7.4-6.6,11.3-9.3C83,28.1,113.1,28.4,113.1,37.5z"></path></g><g><linearGradient id="n" x1="90.132" x2="90.132" y1="16.092" y2="1.032" gradientUnits="userSpaceOnUse"><stop offset="0" stop-color="#ffb127"></stop><stop offset=".996" stop-color="#ff8424"></stop></linearGradient><path fill="url(#n)" d="M100.7,13.7v-1.8c0-5.8-4.7-10.5-10.5-10.5h0c-5.8,0-10.5,4.7-10.5,10.5v1.8H100.7z"></path><g><linearGradient id="o" x1="80.133" x2="80.133" y1="21.534" y2="19.453" gradientUnits="userSpaceOnUse"><stop offset="0" stop-color="#ffb127"></stop><stop offset=".996" stop-color="#ff8424"></stop></linearGradient><path fill="url(#o)" d="M87.8,13.7H72.4C72.4,13.7,71.9,9.8,87.8,13.7z"></path></g></g><g><linearGradient id="p" x1="118.74" x2="52.959" y1="92.826" y2="-6.886" gradientUnits="userSpaceOnUse"><stop offset="0" stop-color="#ffb127"></stop><stop offset=".996" stop-color="#ff8424"></stop></linearGradient><path fill="url(#p)" d="M96.9,48.9L92.5,51L73.3,34.8c-0.7-1.7,7.5-5.2,8.2-3.5L96.9,48.9z"></path></g><g><linearGradient id="q" x1="134.044" x2="68.263" y1="82.729" y2="-16.983" gradientUnits="userSpaceOnUse"><stop offset="0" stop-color="#ffb127"></stop><stop offset=".996" stop-color="#ff8424"></stop></linearGradient><path fill="url(#q)" d="M110.8,33.6l-3.3,17l-4.8-1.1l0.7-18.7C104.1,29.1,111.5,31.8,110.8,33.6z"></path></g><g><linearGradient id="r" x1="-507.899" x2="-573.681" y1=".115" y2="-99.597" gradientTransform="matrix(.9847 -.1743 .2519 .971 618.507 4.899)" gradientUnits="userSpaceOnUse"><stop offset="0" stop-color="#ffb127"></stop><stop offset=".996" stop-color="#ff8424"></stop></linearGradient><path fill="url(#r)" d="M85.4,49.3c-1.3,0.7-2.3,1.8-2.8,3.2c-2.8,7.8-11.6,35-2.5,43.7
									c10.7,10.2,24.1,11.9,29.2,4.7c5.1-7.2,10.5-30.9,7.9-43.8C114.7,44.6,99.5,42.4,85.4,49.3z"></path><linearGradient id="s" x1="-555.613" x2="-552.271" y1="18.622" y2="12.194" gradientTransform="matrix(.9847 -.1743 .2519 .971 618.507 4.899)" gradientUnits="userSpaceOnUse"><stop offset="0" stop-color="#ffb127"></stop><stop offset=".996" stop-color="#ff8424"></stop></linearGradient><path fill="url(#s)" d="M92.2,78.7c-0.8-5.4-2.2-14-3.2-19.3c-0.5-3-2.7-5.7-5.7-6.8c-0.5-0.2-0.8-0.3-0.8-0.2
								c-2.8,7.8-11.6,35-2.5,43.7c1.9,1.8,3.9,3.3,5.9,4.6C94.7,102.8,93.8,90.3,92.2,78.7z"></path></g></g><g><linearGradient id="t" x1="61.614" x2="65.128" y1="34.928" y2="33.939" gradientUnits="userSpaceOnUse"><stop offset="0" stop-color="#fdd3c3"></stop><stop offset=".996" stop-color="#fbb09b"></stop></linearGradient><path fill="url(#t)" d="M65.6,35.5c-0.4,0.2-1,0.8-1.3,1.3c-0.1,0-2.8-0.8-2.5-1.7c0.3-1,1.2-0.6,1.2-0.6l-1.3-2.2
						C61.7,32.3,64.1,32.1,65.6,35.5z"></path></g></g><linearGradient id="u" x1="44.696" x2="47.323" y1="20.587" y2="-9.677" gradientUnits="userSpaceOnUse"><stop offset="0" stop-color="#ee5b5a"></stop><stop offset=".993" stop-color="#e33f21"></stop></linearGradient><path fill="url(#u)" d="M62.7,11.8c-9.4,1-19-0.1-27.9-3.2c-2.3,1.2-4.6,2.6-6.7,4.1C39.5,15.5,51.6,15.2,62.7,11.8z"></path><g><linearGradient id="v" x1="26.462" x2="26.462" y1="122.548" y2="70.618" gradientUnits="userSpaceOnUse"><stop offset="0" stop-color="#ee5b5a"></stop><stop offset=".993" stop-color="#e33f21"></stop></linearGradient><path fill="url(#v)" d="M37.5,101.5C35.2,108,7,115,16.9,90.4C26.9,65.7,41.1,91.2,37.5,101.5z"></path><g><linearGradient id="w" x1="26.89" x2="26.89" y1="120.052" y2="110.271" gradientUnits="userSpaceOnUse"><stop offset="0" stop-color="#ee5b5a"></stop><stop offset=".993" stop-color="#e33f21"></stop></linearGradient><polygon fill="url(#w)" points="26.6 103.5 27 111.3 25.1 111.3 25.6 100.5 20.7 95.1 25.6 99.6 26 91.2 26.6 102.4 33.1 96.4"></polygon></g></g><g><linearGradient id="x" x1="54.999" x2="54.999" y1="118.49" y2="85.237" gradientUnits="userSpaceOnUse"><stop offset="0" stop-color="#ee5b5a"></stop><stop offset=".993" stop-color="#e33f21"></stop></linearGradient><path fill="url(#x)" d="M62.1,105c-1.5,4.2-19.5,8.6-13.2-7.1C55.3,82.1,64.4,98.4,62.1,105z"></path><g><linearGradient id="y" x1="55.273" x2="55.273" y1="116.891" y2="110.629" gradientUnits="userSpaceOnUse"><stop offset="0" stop-color="#ee5b5a"></stop><stop offset=".993" stop-color="#e33f21"></stop></linearGradient><polygon fill="url(#y)" points="55.1 106.3 55.3 111.3 54.1 111.3 54.4 104.4 51.3 100.9 54.5 103.8 54.7 98.4 55.1 105.6 59.3 101.7"></polygon></g></g></svg>