<svg xmlns="http://www.w3.org/2000/svg" viewBox="0 0 47.5 47.5" id="tv"><defs><clipPath id="a"><path d="M0 38h38V0H0v38Z"></path></clipPath></defs><g clip-path="url(#a)" transform="matrix(1.25 0 0 -1.25 0 47.5)"><path fill="#414042" d="M36 6s0-4-4-4H6C2 2 2 6 2 6v19c0 4 4 4 4 4h26s4 0 4-4V6Z"></path><path fill="#414042" d="M22.303 26.61a.999.999 0 1 0-1.414-1.414l-9.192 9.192a.999.999 0 1 0 1.414 1.414l9.192-9.192Z"></path><path fill="#414042" d="M15.697 26.61a.999.999 0 1 1 1.414-1.414l9.192 9.192a.999.999 0 1 1-1.414 1.414l-9.192-9.192Z"></path><path fill="#55acee" d="M19 26c8 0 10-1 11-2s2-3 2-8-1-7-2-8-3-2-11-2S9 7 8 8s-2 3-2 8 1 7 2 8 3 2 11 2"></path><path fill="#66757f" d="M31 5.5a1.5 1.5 0 1 0 2.999.001A1.5 1.5 0 0 0 31 5.5M4 5.5a1.5 1.5 0 1 0 2.999.001A1.5 1.5 0 0 0 4 5.5"></path></g></svg>