<svg xmlns="http://www.w3.org/2000/svg" viewBox="0 0 128 128"><path fill="#fff" d="m120.7 67.8-14 14c-23.4 23.4-61.4 23.4-84.9 0l-14-14c-2-2-2-5.1 0-7.1l14-14c23.4-23.4 61.4-23.4 84.9 0l14 14c2 2 2 5.1 0 7.1z"/><path fill="#444b54" d="M102.6 88.6c-.9 0-1.7-.4-2.3-1.1-1.1-1.3-.9-3.2.4-4.2 1.3-1.1 2.7-2.3 3.9-3.6l14-14c.8-.8.8-2 0-2.8l-14-14C90.1 34.3 68.8 28.7 49 34.2c-1.6.4-3.2-.5-3.7-2.1-.4-1.6.5-3.2 2.1-3.7 21.8-6 45.4.2 61.4 16.2l14 14c3.1 3.1 3.1 8.2 0 11.3l-14 14c-1.4 1.4-2.8 2.7-4.3 3.9-.6.6-1.3.8-1.9.8zm-38.3 13.8c-16.5 0-32.7-6.5-44.6-18.4l-14-14c-3.1-3.1-3.1-8.2 0-11.3l14-14c1.4-1.4 2.8-2.7 4.3-3.9 1.3-1.1 3.2-.9 4.2.4 1.1 1.3.9 3.2-.4 4.2-1.3 1.1-2.7 2.3-3.9 3.6l-14 14c-.8.8-.8 2 0 2.8l14 14c14.5 14.5 35.8 20.1 55.5 14.6 1.6-.4 3.2.5 3.7 2.1.4 1.6-.5 3.2-2.1 3.7-5.5 1.4-11.1 2.2-16.7 2.2z"/><circle cx="64" cy="64" r="20" fill="#71c2ff"/><path fill="#444b54" d="M124 127c-.8 0-1.5-.3-2.1-.9L1.9 6.1C.7 4.9.7 3 1.9 1.9 3.1.7 5 .7 6.1 1.9l120 120c1.2 1.2 1.2 3.1 0 4.2-.6.6-1.3.9-2.1.9z"/></svg>