<svg xmlns="http://www.w3.org/2000/svg" enable-background="new 0 0 5000 5000" viewBox="0 0 5000 5000"><path fill="#fff" d="M2161.721,2822.746c-233.086,158.813-505.341,309.783-847.668,309.783c-298.968,0-613.849-115.148-834.113-250.106v-764.847c220.264-134.958,535.145-250.106,834.113-250.106c338.175,0,607.019,147.33,839.152,304.008L2161.721,2822.746z"/><circle cx="1432.949" cy="2500" r="581.419" fill="#ffdb80"/><path fill="#3f3291" d="M1432.949,3113.259c-82.775,0-163.091-16.219-238.717-48.206c-73.03-30.89-138.611-75.104-194.921-131.413c-56.311-56.311-100.524-121.892-131.414-194.922c-31.987-75.626-48.206-155.942-48.206-238.718s16.218-163.091,48.206-238.717c30.889-73.03,75.103-138.611,131.414-194.921c56.31-56.311,121.891-100.524,194.921-131.414c75.626-31.987,155.942-48.206,238.717-48.206s163.091,16.218,238.718,48.206c73.03,30.889,138.611,75.103,194.921,131.414c56.31,56.31,100.524,121.891,131.413,194.921c31.987,75.626,48.206,155.942,48.206,238.717s-16.218,163.092-48.206,238.718c-30.889,73.03-75.103,138.611-131.413,194.922c-56.31,56.31-121.891,100.523-194.921,131.413C1596.04,3097.04,1515.724,3113.259,1432.949,3113.259z M1432.949,1950.419c-303.04,0-549.581,246.541-549.581,549.581c0,303.04,246.541,549.581,549.581,549.581S1982.529,2803.04,1982.529,2500C1982.529,2196.96,1735.988,1950.419,1432.949,1950.419z"/><path fill="#3f3291" d="M2156.012 2203.321c-6.129 0-12.321-1.765-17.783-5.452-218.735-147.635-487.372-298.56-821.34-298.56-261.072 0-566.672 91.744-817.479 245.415-14.995 9.186-34.595 4.479-43.782-10.514-9.187-14.994-4.479-34.595 10.514-43.782 118.582-72.656 255.008-134.503 394.531-178.856 75.575-24.024 151.389-42.656 225.335-55.378 79.305-13.644 156.984-20.562 230.881-20.562 159.246 0 313.427 31.272 471.353 95.603 153.728 62.621 286.829 147.182 385.611 213.854 14.575 9.837 18.416 29.627 8.578 44.202C2176.28 2198.404 2166.237 2203.32 2156.012 2203.321zM1316.889 3164.368c-73.897 0-151.577-6.918-230.881-20.562-73.946-12.723-149.76-31.354-225.335-55.379-139.522-44.353-275.949-106.2-394.531-178.855-14.994-9.187-19.701-28.789-10.515-43.782 9.188-14.993 28.789-19.699 43.782-10.515 250.808 153.672 556.407 245.415 817.479 245.415 337.667 0 608.926-153.804 829.741-304.256 14.531-9.9 34.338-6.146 44.239 8.384 9.901 14.531 6.147 34.339-8.384 44.239-99.467 67.772-233.536 153.75-388.683 217.579C1633.956 3132.399 1477.957 3164.368 1316.889 3164.368z"/><circle cx="1432.949" cy="2500" r="310.148" fill="#9897f1"/><path fill="#3f3291" d="M1432.949,2841.987c-46.154,0-90.944-9.047-133.126-26.889c-40.728-17.226-77.297-41.88-108.695-73.277c-31.397-31.397-56.051-67.968-73.277-108.695c-17.841-42.182-26.888-86.972-26.888-133.126c0-46.154,9.047-90.944,26.888-133.126c17.226-40.727,41.88-77.297,73.277-108.695c31.397-31.397,67.967-56.051,108.695-73.277c42.182-17.841,86.973-26.888,133.126-26.888s90.944,9.047,133.126,26.888c40.728,17.227,77.297,41.88,108.695,73.277c31.397,31.397,56.051,67.967,73.278,108.695c17.841,42.182,26.888,86.973,26.888,133.126c0,46.154-9.047,90.944-26.888,133.126c-17.227,40.728-41.88,77.298-73.278,108.695s-67.967,56.052-108.695,73.277C1523.893,2832.94,1479.103,2841.987,1432.949,2841.987z M1432.949,2221.691c-153.46,0-278.309,124.849-278.309,278.309c0,153.461,124.849,278.31,278.309,278.31s278.31-124.849,278.31-278.31C1711.258,2346.54,1586.409,2221.691,1432.949,2221.691z"/><circle cx="1269.403" cy="2500" r="155.382" fill="#fff"/><path fill="#3f3291" d="M1269.403,2687.221c-103.234,0-187.221-83.987-187.221-187.221c0-103.234,83.987-187.221,187.221-187.221s187.221,83.987,187.221,187.221C1456.624,2603.233,1372.637,2687.221,1269.403,2687.221z M1269.403,2376.457c-68.122,0-123.543,55.421-123.543,123.543s55.421,123.543,123.543,123.543s123.543-55.421,123.543-123.543S1337.525,2376.457,1269.403,2376.457z"/><path fill="#fff" d="M4520.06,2822.746c-233.086,158.813-505.341,309.783-847.668,309.783c-298.968,0-613.849-115.148-834.113-250.106v-764.847c220.264-134.958,535.145-250.106,834.113-250.106c338.175,0,607.019,147.33,839.152,304.008L4520.06,2822.746z"/><circle cx="3675.402" cy="2500" r="581.419" fill="#ffdb80"/><path fill="#3f3291" d="M3675.402,3113.259c-82.775,0-163.092-16.219-238.718-48.206c-73.03-30.89-138.611-75.104-194.922-131.413c-56.31-56.311-100.523-121.892-131.413-194.922c-31.987-75.626-48.206-155.942-48.206-238.718s16.219-163.091,48.206-238.717c30.89-73.03,75.104-138.611,131.413-194.921c56.311-56.311,121.892-100.524,194.922-131.414c75.626-31.987,155.942-48.206,238.718-48.206s163.091,16.218,238.717,48.206c73.03,30.889,138.611,75.103,194.922,131.414c56.31,56.31,100.524,121.891,131.413,194.921c31.987,75.626,48.206,155.942,48.206,238.717s-16.219,163.092-48.206,238.718c-30.889,73.03-75.104,138.611-131.413,194.922c-56.311,56.31-121.892,100.523-194.922,131.413C3838.493,3097.04,3758.178,3113.259,3675.402,3113.259z M3675.402,1950.419c-303.04,0-549.581,246.541-549.581,549.581c0,303.04,246.541,549.581,549.581,549.581s549.58-246.541,549.58-549.581C4224.982,2196.96,3978.442,1950.419,3675.402,1950.419z"/><circle cx="3675.402" cy="2500" r="310.148" fill="#9897f1"/><path fill="#3f3291" d="M3675.402,2841.987c-46.154,0-90.944-9.047-133.126-26.889c-40.728-17.226-77.298-41.88-108.695-73.277s-56.052-67.968-73.277-108.695c-17.842-42.182-26.889-86.972-26.889-133.126c0-46.154,9.047-90.944,26.889-133.126c17.226-40.728,41.88-77.297,73.277-108.695c31.397-31.397,67.968-56.051,108.695-73.277c42.182-17.841,86.972-26.888,133.126-26.888s90.944,9.047,133.126,26.888c40.728,17.227,77.298,41.88,108.695,73.277c31.396,31.397,56.051,67.968,73.277,108.695c17.841,42.182,26.888,86.973,26.888,133.126c0,46.154-9.047,90.944-26.888,133.126c-17.227,40.728-41.881,77.298-73.277,108.695c-31.397,31.397-67.968,56.052-108.695,73.277C3766.347,2832.94,3721.557,2841.987,3675.402,2841.987z M3675.402,2221.691c-153.461,0-278.31,124.849-278.31,278.309c0,153.461,124.849,278.31,278.31,278.31c153.46,0,278.309-124.849,278.309-278.31C3953.711,2346.54,3828.862,2221.691,3675.402,2221.691z"/><path fill="#3f3291" d="M4511.515 2203.321c-6.128 0-12.32-1.765-17.783-5.452-218.734-147.635-487.37-298.56-821.34-298.56-261.072 0-566.672 91.744-817.479 245.415-14.993 9.186-34.597 4.479-43.782-10.514-9.187-14.994-4.479-34.595 10.515-43.782 118.582-72.656 255.008-134.503 394.53-178.856 75.575-24.024 151.389-42.656 225.335-55.378 79.305-13.644 156.984-20.562 230.881-20.562 159.246 0 313.427 31.272 471.354 95.603 153.729 62.621 286.829 147.182 385.61 213.854 14.575 9.837 18.416 29.627 8.578 44.202C4531.783 2198.404 4521.74 2203.32 4511.515 2203.321zM3672.392 3164.368c-73.897 0-151.576-6.918-230.881-20.562-73.946-12.723-149.76-31.354-225.335-55.379-139.522-44.353-275.948-106.2-394.53-178.855-14.993-9.187-19.701-28.789-10.515-43.782 9.188-14.993 28.789-19.699 43.782-10.515 250.807 153.672 556.406 245.415 817.479 245.415 337.668 0 608.927-153.804 829.74-304.256 14.531-9.9 34.338-6.148 44.239 8.384 9.901 14.531 6.147 34.338-8.384 44.239-99.467 67.772-233.535 153.749-388.682 217.579C3989.459 3132.399 3833.459 3164.368 3672.392 3164.368z"/><circle cx="3675.402" cy="2500" r="155.382" fill="#fff"/><path fill="#3f3291" d="M3675.402,2687.221c-103.233,0-187.221-83.987-187.221-187.221c0-103.234,83.987-187.221,187.221-187.221s187.221,83.987,187.221,187.221C3862.623,2603.233,3778.636,2687.221,3675.402,2687.221z M3675.402,2376.457c-68.122,0-123.543,55.421-123.543,123.543s55.421,123.543,123.543,123.543s123.543-55.421,123.543-123.543S3743.524,2376.457,3675.402,2376.457z"/></svg>