<svg xmlns="http://www.w3.org/2000/svg" width="60" height="60" viewBox="0 0 60 60" id="eye-surgery"><g fill="none" transform="translate(-1)"><path fill="#E5E8EB" d="M52.1,27.97 C54.9608197,30.8908569 57.5482804,34.067442 59.83,37.46 C60.0601417,37.7832186 60.0601417,38.2167814 59.83,38.54 C57.65,41.84 45.57,59 31,59 C16.43,59 4.35,41.84 2.17,38.54 C1.93985826,38.2167814 1.93985826,37.7832186 2.17,37.46 C4.35,34.16 16.43,17 31,17 C36.1,17 40.91,19.11 45.08,21.99 L52.1,27.97 Z"></path><circle cx="31" cy="38" r="14" fill="#6CA4EA"></circle><circle cx="21" cy="29" r="3" fill="#FFF"></circle><path fill="#54CEAF" d="M60,5.88 C59.9985452,6.45319272 59.8970207,7.02172978 59.7,7.56 L52.1,27.97 L51.25,30.26 L49.64,34.58 C49.4520459,35.0884519 48.8932017,35.3545681 48.38,35.18 L42.64,33.24 C42.1298739,33.0643009 41.8511018,32.5156066 42.01,32 L44.46,24.02 L45.08,21.99 L50.46,4.43 C51.1786888,2.12916273 53.4693498,0.697494006 55.8524504,1.05970532 C58.2355511,1.42191663 59.9973902,3.46953139 60,5.88 L60,5.88 Z"></path><path fill="#656D77" d="M47.647,40.439 L46.364,44.233 C45.3665307,47.1782658 42.2870992,48.8762904 39.264,48.148 C39.1314039,48.110686 39.0200751,48.0203227 38.9562871,47.898236 C38.8924992,47.7761493 38.8819033,47.6331551 38.927,47.503 L43.627,33.569 L47.416,34.851 L46.667,37.1 C46.5197918,37.4929681 46.6368787,37.9360538 46.959,38.205 C47.6420157,38.7262357 47.9184433,39.6238217 47.647,40.439 L47.647,40.439 Z"></path><path fill="#444952" d="M36.786,36.375 C37.3176319,38.2849344 36.8739815,40.3341768 35.5999969,41.8532045 C34.3260124,43.3722322 32.3853285,44.1659363 30.412,43.975 C28.2288863,43.7260543 26.3483535,42.322244 25.489,40.3 C25.1594664,39.5561817 24.9927413,38.7505142 25,37.937 C25.0206034,37.4059673 25.4626766,36.9892443 25.994,37 C27.4244921,36.9914245 28.6542408,35.9838643 28.944,34.583 C29.0226759,34.1776264 29.0179123,33.7604713 28.93,33.357 C28.8693827,33.0928117 28.9172793,32.8153487 29.0629593,32.5867721 C29.2086392,32.3581956 29.4399248,32.1976129 29.705,32.141 C31.3592388,31.7794578 33.0892996,32.1256875 34.477,33.096 C35.6125184,33.8792278 36.4312818,35.0419498 36.786,36.375 Z"></path><path fill="#373737" d="M53.26,27.731 L59.36,11.349 C59.5532997,10.831233 59.290267,10.2547997 58.7725,10.0615 C58.254733,9.86820034 57.6782997,10.131233 57.485,10.649 L51.185,27.574 L51.175,27.601 L48.7,34.233 L47.73,33.9 L47.73,33.9 L43.94,32.619 L43.94,32.619 L42.968,32.29 L46.058,22.203 L46.064,22.186 L51.41,4.726 C51.8342606,3.38662844 52.949099,2.38101777 54.3249745,2.09662386 C55.70085,1.81222996 57.123015,2.29344122 58.0435176,3.35484979 C58.9640203,4.41625835 59.2391879,5.89219881 58.763,7.214 C58.638214,7.55023554 58.7030436,7.92754897 58.9329031,8.20284969 C59.1627626,8.47815041 59.5224491,8.60927613 59.8755567,8.54649933 C60.2286642,8.48372254 60.5211145,8.23665749 60.642,7.899 C61.1854914,6.41084141 61.1053521,4.76631714 60.4197406,3.33805396 C59.7341291,1.90979078 58.5010852,0.818697145 57,0.312 C55.4988948,-0.196147611 53.8562269,-0.0768479326 52.4442954,0.642860607 C51.0323639,1.36256915 49.970728,2.62174325 49.5,4.135 L44.508,20.427 C39.929,17.5 35.39,16 31,16 C24.26,16 17.3,19.417 10.306,26.157 C10.0487688,26.4049423 9.94335297,26.7712817 10.0294617,27.1180216 C10.1155704,27.4647616 10.3801217,27.739224 10.7234617,27.8380216 C11.0668017,27.9368192 11.4367688,27.8449423 11.694,27.597 C18.3,21.229 24.8,18 31,18 C35.149,18 39.486,19.5 43.9,22.415 L42.185,28.015 C37.2559305,22.4738824 29.0099043,21.3834917 22.81,25.453 C22.2514289,25.1598088 21.6308269,25.0044869 21,25 C18.790861,25 17,26.790861 17,29 C17.0005042,29.7738495 17.2275032,30.5306287 17.653,31.177 C14.3710321,37.5696687 16.0911999,45.3923352 21.7521771,49.818492 C27.4131542,54.2446489 35.4197607,54.0270702 40.832,49.3 C43.7694281,49.2211293 46.3504705,47.3300645 47.311,44.553 L48.6,40.76 C49.006737,39.5478782 48.6161861,38.2106699 47.621,37.408 L48.046,36.121 L48.067,36.128 C48.2763566,36.1989757 48.4959396,36.2351224 48.717,36.235 C49.5498243,36.2343163 50.294413,35.715856 50.584,34.935 L52.484,29.825 C54.8628996,32.3745581 57.0413751,35.1040046 59,37.989 C56.788,41.33 45.064,58 31,58 C16.936,58 5.212,41.33 3,38.011 C4.73216901,35.4299357 6.64707325,32.9763185 8.73,30.669 C9.08633683,30.257175 9.0476238,29.6359312 8.64291622,29.271531 C8.23820864,28.9071308 7.6163215,28.9335677 7.244,29.331 C5.101229,31.7062346 3.13151265,34.2320432 1.35,36.889 C0.883106993,37.5462928 0.877113068,38.4254019 1.335,39.089 C3.643,42.583 15.914,60 31,60 C46.086,60 58.358,42.583 60.651,39.111 C61.1158258,38.4528156 61.1210151,37.5746316 60.664,36.911 C58.4674051,33.6416946 55.99003,30.5700707 53.26,27.731 Z M21,27 C22.1045695,27 23,27.8954305 23,29 C23,30.1045695 22.1045695,31 21,31 C19.8954305,31 19,30.1045695 19,29 C19,27.8954305 19.8954305,27 21,27 Z M18,38 C18.0091418,36.1209182 18.4260747,34.2662148 19.222,32.564 C19.7722803,32.8467387 20.3813447,32.996093 21,33 C23.209139,33 25,31.209139 25,29 C24.9993316,28.2301654 24.7745141,27.4771829 24.353,26.833 C30.1051061,23.3948637 37.5300578,24.9129926 41.471,30.333 L41.052,31.703 C40.7301234,32.737808 41.294999,33.8400043 42.323,34.183 L42.353,34.193 L37.977,47.182 C37.8409157,47.5842122 37.8801054,48.025097 38.085,48.397 C38.1509868,48.5136731 38.232758,48.6206823 38.328,48.715 C34.3539725,51.4484096 29.1916748,51.7518044 24.9248199,49.5027219 C20.6579651,47.2536393 17.9908382,42.823312 18,38 L18,38 Z M46.354,39 C46.6984285,39.2612584 46.8376744,39.7132041 46.7,40.123 L45.416,43.917 C44.6418297,46.1592398 42.4109005,47.5599687 40.055,47.283 L44.247,34.841 L46.147,35.484 L45.72,36.784 C45.4340205,37.5821873 45.6891269,38.4738527 46.354,39 Z"></path><path fill="#373737" d="M37.752 36.12C37.3401335 34.5534909 36.3786199 33.1873537 35.043 32.271 33.4284763 31.1420499 31.4150438 30.7405964 29.491 31.164 28.9669 31.2777995 28.5098791 31.5960351 28.2213268 32.0481066 27.9327745 32.5001782 27.8365498 33.048706 27.954 33.572 28.012191 33.8433185 28.0149123 34.1236028 27.962 34.396 27.8387009 34.9754308 27.4672656 35.4715309 26.946 35.753 26.6562402 35.9130383 26.3310118 35.9979552 26 36L25.992 36C24.9135427 35.9914731 24.0272422 36.8488531 24 37.927 23.9926116 38.8807191 24.187567 39.8251621 24.572 40.698 25.5841539 43.0468491 27.7750606 44.6751535 30.316 44.967 30.541 44.988 30.764 44.999 30.987 44.999 33.1773865 45.0005014 35.2426803 43.9785005 36.5701554 42.2362016 37.8976305 40.4939028 38.3348127 38.2314272 37.752 36.12L37.752 36.12zM34.812 41.232C33.7458105 42.4756655 32.1433405 43.1259702 30.512 42.977 28.6934553 42.7589869 27.1299592 41.5859835 26.412 39.901 26.1452718 39.3027236 26.0043563 38.65601 25.998 38.001L26 38.001C26.6615969 37.9999211 27.3123912 37.833183 27.893 37.516 28.9459904 36.9496024 29.6916673 35.9432685 29.927 34.771 30.0286611 34.2244647 30.0262862 33.6636547 29.92 33.118 31.3039938 32.8150783 32.7516017 33.1051801 33.912 33.918 34.8479581 34.5669293 35.5233473 35.5268607 35.818 36.627 36.268243 38.2338142 35.891291 39.9593251 34.812 41.232L34.812 41.232zM53.323 5.307L51.976 9.707C51.8652396 10.0503368 51.9479945 10.426716 52.1925569 10.6919276 52.4371194 10.9571393 52.8055722 11.0700647 53.1567426 10.9874364 53.5079129 10.9048081 53.7873548 10.639437 53.888 10.293L55.2 6C55.7522847 5.97487103 56.1796289 5.50678474 56.1545 4.9545 56.129371 4.40221526 55.6612847 3.97487106 55.109 4 54.2935468 4.00323441 53.5727389 4.53072375 53.323 5.307L53.323 5.307z"></path></g></svg>