<svg xmlns="http://www.w3.org/2000/svg" enable-background="new 0 0 50 50" viewBox="0 0 50 50"><path fill="#71C17F" d="M13.2041,43.0125c0,3.1125,5.3983,5.9936,12.1363,5.9936s12.2644-2.881,12.2644-5.9936
		s-5.4623-5.6357-12.2004-5.6357S13.2041,39.9,13.2041,43.0125z"/><path fill="#FFF" d="M31.8755,45.3379c-2.53,0.66-5.39,0.06-7.27-1.4301c-2.3743,1.5113-9.1464-0.04-11.36-6.59
		c-0.9754-2.8275-0.8857-5.9884,0.06-8.51c2.97-6.88,7.39-7.03,12.41-4.45c0.39-1.21,1.22-2.29,2.49-2.88
		c-0.1546-10.8591-6.0819-19.5758,0.56-20.43c3.75-0.4487,7.1207,2.1435,7.72,6.78c0.656,5.0555-0.1243,10.3688-1.02,15.15
		C41.7389,28.8287,40.6925,43.0285,31.8755,45.3379z"/><path fill="#EFEEEE" d="M15.8215,33.9359h-3.2355c0.4226,7.0418,6.0794,11.4076,11.5194,10.2419
		C21.7113,41.7689,15.9718,39.5147,15.8215,33.9359z"/><path fill="#E9E9EB" d="M16.8328,33.7802c-0.5045,1.0415-1.2551,1.7234-2.143,1.8223c-1.9274,0.2127-3.7943-2.3901-4.1706-5.8114
		s0.8856-6.3657,2.813-6.5784c0.2194-0.022,0.4398-0.0127,0.6561,0.0387c1.6765,0.3552,3.1757,2.7433,3.5092,5.7728
		C17.7024,30.8628,17.4319,32.5683,16.8328,33.7802L16.8328,33.7802z"/><path fill="#EFEEEE" d="M13.9883,23.2515c0.0597,1.5714-0.7252,5.9203,2.8445,10.5287c-0.5044,1.0415-1.2551,1.7234-2.143,1.8223
		c-1.9274,0.2127-3.7943-2.3901-4.1706-5.8114C10.1658,26.5777,11.4505,22.6485,13.9883,23.2515z"/><path fill="#E9E9EB" d="M22.4847,31.5987c-0.5045,1.0415-1.2551,1.7234-2.143,1.8223c-1.9274,0.2127-3.7943-2.3901-4.1706-5.8114
		c-0.3762-3.4212,0.8856-6.3657,2.813-6.5784c0.2194-0.022,0.4398-0.0127,0.6561,0.0387c1.6765,0.3552,3.1757,2.7433,3.5092,5.7728
		C23.3543,28.6813,23.0838,30.3868,22.4847,31.5987L22.4847,31.5987z"/><path fill="#EFEEEE" d="M18.9841,21.0313c0.2194-0.0221,0.4398-0.0127,0.6561,0.0387c0.0597,1.5714-0.7252,5.9203,2.8445,10.5287
		c-0.5044,1.0415-1.2551,1.7234-2.143,1.8223c-1.9274,0.2127-3.7943-2.3901-4.1706-5.8114
		C15.7949,24.1884,17.0567,21.2439,18.9841,21.0313z"/><path fill="#FFF" d="M24.7627,20.0372c-0.1036,0.7109-0.074,1.4409,0.0869,2.1411c0.05,0.2177,0.1145,0.4366,0.2393,0.6219
		c0.1248,0.1853,0.3189,0.3347,0.5411,0.3588c0.3094,0.0336,0.5884-0.1715,0.8317-0.3654c0.4072-0.3246,0.8436-0.6971,0.9261-1.2113
		c0.0569-0.3546-0.0698-0.7142-0.2398-1.0305c-0.3138-0.5839-0.7875-1.0822-1.3519-1.4294
		C25.07,18.6758,24.8556,19.4,24.7627,20.0372z"/><path fill="#EFEEEE" d="M25.1046 18.8885c.0217.5705-.0243 1.1587-.0448 1.72-.0456 1.327.4093 2.619.4647 3.9479.0809 1.9399.4753 4.1336 1.5909 5.5739-.5044 1.0415-.4215 1.0103-1.3094 1.1092-1.9274.2127-3.7943-2.3901-4.1706-5.8114C21.2821 22.2147 22.5668 18.2855 25.1046 18.8885zM35.5555 22.5078c-.5-.7-.69-1.58-.89-2.42-.85-3.46-2.12-6.82-3.78-9.98-.47-.91-1.02-1.84-1.91-2.36-.8-.47-1.84-.51-2.68-.13-.14.06-.26.14-.38.23-.23-1.03-.38-2.07-.33-3.13.05-1.08.36-2.23 1.22-2.93.54-.45 1.26-.65 1.96-.74 2.34-.28 4.79.78 6.15 2.66.88 1.2 1.38 2.65 1.57 4.12C37.0655 12.2978 36.4955 17.8878 35.5555 22.5078z"/><path fill="#EFEEEE" d="M31.8755,45.3379c-3.2952,0.863-7.4165-0.4279-8.84-3.35c0.16-0.14,0.34-0.26,0.52-0.37
		C34.275,46.3322,41.41,29.4081,31.8168,25.8506c-0.9835-0.3647-2.4652,0.1776-3.1214,1.8072c-0.44,1.06-0.19,2.4-0.85,3.37
		c-7.4376-8.2952,4.5105-15.0969,9.73-5.18C41.8746,33.939,38.5075,43.6008,31.8755,45.3379z"/><path d="M38.0674,25.5914c-0.6-1.14-1.29-2.06-2.05-2.83c1.13-5.53,1.49-11,0.96-15c-0.6281-4.9357-4.3176-7.6842-8.27-7.21
		c-2.4011,0.287-3.507,1.7808-3.62,4.14c-0.1063,2.2432,0.636,4.3888,1.2,6.52c0.77,2.87,1.21,5.84,1.36,8.83
		c-0.87-1.18-1.96-1.8-3.07-1.69c-1.41,0.16-2.5,1.47-3,3.35c-0.78-0.83-1.7-1.27-2.65-1.17c-1.59,0.19-2.62,1.84-3,3.36
		c-1.01-1.09-1.91-1.23-2.89-1.11c-2.6179,0.6643-3.3078,4.3793-3.0099,7.06c0.24,2.21,1.06,4.08,2.16,5.19
		c0.28,1.99,0.93,3.69,1.91,5.16c-0.89,0.83-1.39,1.79-1.39,2.82c0,3.52,5.78,6.4901,12.63,6.4901c6.92,0,12.77-2.97,12.77-6.4901
		c0-0.49-0.12-0.97-0.34-1.43c0.72-1.09,1.29-2.34,1.66-3.7C40.5774,33.7613,40.0874,29.3913,38.0674,25.5914z M27.2574,10.9513
		c-0.5016-1.8943-1.2684-4.0819-1.17-6.21c0.1027-2.1059,1.043-3.0041,2.74-3.19c2.15-0.26,4.44,0.72,5.69,2.45
		c0.77,1.06,1.28,2.41,1.47,3.89c0.49,3.76,0.18,8.87-0.85,14.11c-2.08-1.59-4.53-1.91-6.45-1.3
		C28.5774,17.4014,28.0974,14.1214,27.2574,10.9513z M22.3674,22.7713c0-0.01,0-0.01,0-0.01c0.31-1.89,1.18-3.29,2.32-3.41
		c0.9-0.1,1.89,0.66,2.61,2c-2.08,1.38-2.72,3.98-2.22,5.99c0.26,1.04,0.77,2.06,1.58,3.11
		C24.1387,32.0944,21.771,26.8542,22.3674,22.7713z M16.7274,24.9513c0.1624-1.249,0.7668-2.905,2.01-3.36
		c0.02,0,0.03-0.01,0.04-0.01c0.977-0.3551,1.9713,0.5635,2.55,1.42c-0.2489,2.129,0.1665,4.6432,1.27,6.5
		c0,0.0099,0,0.0099,0,0.0099c-0.3,1.89-1.17,3.28-2.31,3.41c-1.3575,0.1472-2.4274-1.4372-2.95-2.7v-0.01
		C16.4227,28.0781,16.5615,25.2841,16.7274,24.9513z M11.0174,29.7414c-0.2258-2.0202,0.1928-5.3334,2.11-5.98
		c0.98-0.36,1.97,0.56,2.55,1.42c-0.2448,2.1225,0.1616,4.6496,1.27,6.52C16.0868,37.3418,11.6308,35.4385,11.0174,29.7414z
		 M25.3374,48.5014c-6.85,0-11.63-2.89-11.63-5.4901c0-0.71,0.35-1.39,0.98-2.0099c0.67,0.86,1.46,1.6,2.34,2.1899
		c1.93,1.33,4.78,2.05,7.16,1.44c0.1-0.02,0.21-0.04,0.32-0.08c0.01,0,0.01-0.01,0.02-0.01c2.0099,1.45,4.93,2.01,7.49,1.34
		c1.96-0.52,3.7-1.68,5.04-3.3199c0.03,0.15,0.05,0.3,0.05,0.45C37.1074,45.6014,32.0774,48.5014,25.3374,48.5014z M38.3574,37.5813
		c-0.92,3.34-3.24,6.33-6.62,7.22c-4.8258,1.265-9.9277-2.2402-8.55-6.82c0.2221-0.7269,0.5874-1.3629,0.96-1.81
		c0.19-0.24,0.16-0.59-0.08-0.79c-0.24-0.19-0.59-0.15-0.78,0.08c-0.6834,0.8372-1.1262,1.8476-1.28,2.66
		c-0.4983,2.202,0.3355,4.3654,1.59,5.62c-1.79,0.34-4.17-0.12-6.0099-1.38c-2.2405-1.5124-3.7208-4.0004-4.23-6.5
		c1.5591,0.7379,3.5866-0.0762,4.39-3.11c0.8703,0.946,1.8362,1.2605,2.65,1.17c1.41-0.16,2.5-1.47,3.0099-3.35
		c1.1112,1.2078,2.6112,1.5952,3.9,0.67c0.5029,0.6289,1.3675,1.4724,1.96,2.02c0.22,0.21,0.57,0.2,0.78-0.02
		c0.21-0.23,0.2-0.58-0.02-0.79c-0.76-0.71-1.3-1.26-1.77-1.8c-1.14-1.27-1.81-2.41-2.1-3.58c-0.46-1.83,0.26-4.27,2.4901-5.19
		c2.55-1.06,6.17-0.06,8.44,4.23C38.9674,29.6614,39.4274,33.7314,38.3574,37.5813z"/></svg>