<svg xmlns="http://www.w3.org/2000/svg" viewBox="0 0 340 340" id="glasses"><path fill="#7b8bba" d="M170 142.78s-17.379-.968-27.182 9.193l4.021 14.749s10.882-8.358 23.161-8.358 23.161 8.358 23.161 8.358l4.021-14.749C187.38 141.812 170 142.78 170 142.78zm-154.494 8.334H37.64v18.876H15.506A5.506 5.506 0 0 1 10 164.485v-7.865a5.506 5.506 0 0 1 5.506-5.506z"></path><circle cx="91.341" cy="170" r="62.67" fill="#bac9e8"></circle><path fill="#7b8bba" d="M324.495 169.992H302.36v-18.876h22.135a5.506 5.506 0 0 1 5.506 5.506v7.864a5.506 5.506 0 0 1-5.506 5.506Z"></path><circle cx="248.659" cy="170" r="62.67" fill="#bac9e8"></circle><circle cx="91.341" cy="170" r="47.23" fill="#fff"></circle><circle cx="248.659" cy="170" r="47.23" fill="#fff"></circle><path fill="#7b8bba" d="M87.857 134.6a37.827 37.827 0 0 0-31.916 31.915q-.276 1.929-.356 3.824a4.865 4.865 0 0 0 8.3 3.649l31.445-31.444a4.866 4.866 0 0 0-3.65-8.3q-1.893.082-3.823.356zm156.943 0a37.826 37.826 0 0 0-31.915 31.915q-.278 1.929-.357 3.824a4.865 4.865 0 0 0 8.3 3.649l31.445-31.444a4.866 4.866 0 0 0-3.65-8.3q-1.893.082-3.823.356z"></path><path fill="#3f3f70" d="M15.505 173.491h9.759A66.17 66.17 0 0 0 157.512 170a66.3 66.3 0 0 0-.224-5.2A32.764 32.764 0 0 1 170 161.864a32.788 32.788 0 0 1 12.712 2.937 66.746 66.746 0 0 0-.224 5.2 66.17 66.17 0 0 0 132.248 3.491h9.764a9.016 9.016 0 0 0 9-9.006v-7.866a9.016 9.016 0 0 0-9-9.006h-13.577a66.15 66.15 0 0 0-122.365-5.248A49.958 49.958 0 0 0 170 139.277a49.913 49.913 0 0 0-18.558 3.089 66.15 66.15 0 0 0-122.365 5.248H15.505A9.016 9.016 0 0 0 6.5 156.62v7.865a9.016 9.016 0 0 0 9.005 9.006ZM324.5 154.614a2.008 2.008 0 0 1 2 2.006v7.865a2.008 2.008 0 0 1-2 2.006h-9.761A65.817 65.817 0 0 0 313 154.614Zm-75.841-43.784A59.17 59.17 0 1 1 189.488 170a59.238 59.238 0 0 1 59.171-59.17Zm-78.854 35.445a3.783 3.783 0 0 0 .384 0 43.5 43.5 0 0 1 15.78 2.593 65.448 65.448 0 0 0-2.3 8.757A37.821 37.821 0 0 0 170 154.864a38.491 38.491 0 0 0-13.666 2.762 65.462 65.462 0 0 0-2.3-8.758 43.461 43.461 0 0 1 15.771-2.593ZM91.341 110.83A59.17 59.17 0 1 1 32.171 170a59.238 59.238 0 0 1 59.17-59.17ZM13.5 156.62a2.008 2.008 0 0 1 2.005-2.006H27a65.817 65.817 0 0 0-1.73 11.877h-9.765a2.008 2.008 0 0 1-2.005-2.006Z"></path><path fill="#3f3f70" d="M91.341 220.729A50.73 50.73 0 1 0 40.611 170a50.787 50.787 0 0 0 50.73 50.729zm0-94.459A43.73 43.73 0 1 1 47.611 170a43.779 43.779 0 0 1 43.73-43.73zm157.318 94.459A50.73 50.73 0 1 0 197.929 170a50.787 50.787 0 0 0 50.73 50.729zm0-94.459a43.73 43.73 0 1 1-43.73 43.73 43.78 43.78 0 0 1 43.73-43.73z"></path></svg>