<?xml version="1.0" encoding="utf-8"?>
<!-- Generator: Adobe Illustrator 23.0.1, SVG Export Plug-In . SVG Version: 6.00 Build 0)  -->
<svg version="1.1" id="Capa_1" xmlns="http://www.w3.org/2000/svg" xmlns:xlink="http://www.w3.org/1999/xlink" x="0px" y="0px"
	 viewBox="0 0 512 512" style="enable-background:new 0 0 512 512;" xml:space="preserve">
<style type="text/css">
	.st0{fill:#FFDEAA;}
	.st1{fill:#FAC38F;}
	.st2{fill:#F7F5F3;}
	.st3{fill:#EBE6E1;}
	.st4{fill:#705123;}
	.st5{fill:#6B4D22;}
	.st6{fill:#232323;}
	.st7{fill:#070707;}
	.st8{opacity:0.99;}
	.st9{fill:url(#SVGID_1_);}
	.st10{fill:url(#SVGID_2_);}
</style>
<g>
	<path class="st0" d="M256,425.5c-31.8,0-64.6-8.7-97.6-25.9c-25.9-13.5-51.8-32.1-77.3-55.5c-43-39.4-69.5-78.5-70.6-80.1
		c-3.3-4.9-3.3-11.3,0-16.3c1.1-1.6,27.6-40.6,70.6-80.1c25.5-23.3,51.4-42,77.3-55.5c32.9-17,65.8-25.7,97.6-25.7
		s64.6,8.7,97.6,25.9c25.9,13.5,51.8,32.1,77.3,55.5c43,39.4,69.5,78.5,70.6,80.1c3.3,4.9,3.3,11.3,0,16.3
		c-1.1,1.6-27.6,40.6-70.6,80.1c-25.5,23.3-51.4,42-77.3,55.5C320.6,416.8,287.8,425.5,256,425.5L256,425.5z"/>
	<path class="st1" d="M431,167.7c-25.5-23.3-51.4-42-77.3-55.5c-33-17-65.9-25.8-97.6-25.8v339.1c31.8,0,64.6-8.7,97.6-25.9
		c25.9-13.5,51.8-32.1,77.3-55.5c43-39.4,69.5-78.5,70.6-80.1c3.3-4.9,3.3-11.3,0-16.3C500.4,246.2,474,207.3,431,167.7z"/>
	<path class="st2" d="M256,367.4c-69.8,0-132.2-27.4-172.3-50.4c-43.2-24.7-69.8-49.3-71-50.4c-3-2.7-4.7-6.6-4.7-10.7
		s1.6-7.9,4.7-10.7c1.2-1.1,27.8-25.7,71-50.4c40.1-23,102.5-50.4,172.3-50.4S388.2,172,428.3,195c43.2,24.8,69.9,49.3,71,50.4
		c3,2.7,4.6,6.6,4.6,10.7s-1.6,7.9-4.6,10.7c-1.2,1.1-27.8,25.7-71,50.4C388.2,340,325.8,367.4,256,367.4L256,367.4z"/>
	<path class="st3" d="M428.3,195c-40.1-23-102.5-50.4-172.3-50.4v222.8c69.8,0,132.2-27.4,172.3-50.4c43.2-24.8,69.9-49.3,71-50.4
		c3-2.7,4.6-6.6,4.6-10.7s-1.6-7.9-4.6-10.7C498.2,244.3,471.5,219.7,428.3,195L428.3,195z"/>
	<path class="st4" d="M256,367.4c-61.4,0-111.4-50-111.4-111.4s50-111.4,111.4-111.4s111.4,50,111.4,111.4S317.4,367.4,256,367.4z"
		/>
	<path class="st5" d="M367.4,256c0-61.4-50-111.4-111.4-111.4v222.8C317.4,367.4,367.4,317.4,367.4,256z"/>
	<path class="st6" d="M256,299.6c-24,0-43.6-19.6-43.6-43.6s19.6-43.6,43.6-43.6s43.6,19.6,43.6,43.6S280,299.6,256,299.6z"/>
	<path class="st7" d="M299.6,256c0-24-19.6-43.6-43.6-43.6v87.2C280,299.6,299.6,280,299.6,256z"/>
</g>
<g class="st8">
	
		<radialGradient id="SVGID_1_" cx="255" cy="824.51" r="104.5" gradientTransform="matrix(1 0 0 1 0 -568.11)" gradientUnits="userSpaceOnUse">
		<stop  offset="0" style="stop-color:#FFFFFF"/>
		<stop  offset="1" style="stop-color:#4B4848"/>
	</radialGradient>
	<circle class="st9" cx="255" cy="256.4" r="104.5"/>
	
		<radialGradient id="SVGID_2_" cx="255" cy="824.51" r="104.5" gradientTransform="matrix(1 0 0 1 0 -568.11)" gradientUnits="userSpaceOnUse">
		<stop  offset="0" style="stop-color:#E5F5F9"/>
		<stop  offset="0.7732" style="stop-color:#D6E2E5"/>
	</radialGradient>
	<circle class="st10" cx="255" cy="256.4" r="104.5"/>
</g>
</svg>
