<svg xmlns="http://www.w3.org/2000/svg" viewBox="0 0 128 128"><path fill="#fff" d="M119 53h-11c4.4 0 8-3.6 8-8s-3.6-8-8-8H49.9l17.7-20.9c.6-.7 1-1.4 1.3-2.2.3-.7.4-1.5.4-2.3v-.1c0-1.6-.5-3.3-1.5-4.7C66.3 4.9 64 3.9 61.7 4c-1.4 0-2.7.5-3.9 1.3L39.2 18.4 7 41v50s18.3 10 40 10h42.1c4.4 0 7.9-3.5 7.9-7.9v-.2c0-4.4-3.5-7.9-7.9-7.9h18.8c4.5 0 8.1-3.6 8.1-8.1 0-4.4-3.6-7.9-8-7.9h11c4.4 0 8-3.6 8-8s-3.6-8-8-8z"/><path fill="#71c2ff" d="M116 48c-1.7 0-3-1.3-3-3 0-2.7-2.2-5-5-5H81c-1.7 0-3-1.3-3-3s1.3-3 3-3h27c6 0 11 4.9 11 11 0 1.6-1.3 3-3 3zM7 44c-.9 0-1.9-.4-2.5-1.3-1-1.4-.6-3.2.7-4.2l51-35.6C60.7-.3 66.9.7 70.2 5c3 3.8 2.9 9.3-.3 13-1.1 1.3-3 1.4-4.2.3-1.3-1.1-1.4-3-.3-4.2 1.3-1.6 1.4-3.8.1-5.5-1.4-1.8-4-2.2-5.9-.9L8.7 43.5c-.5.3-1.1.5-1.7.5z"/><path fill="#fff" d="M94 116.1v-.2c0-4.4-3.5-7.9-7.9-7.9h18.8c4.5 0 8.1-3.6 8.1-8.1 0-4.4-3.6-7.9-8-7.9h11c4.4 0 8-3.6 8-8s-3.6-8-8-8h-11c4.4 0 8-3.6 8-8s-3.6-8-8-8H46.9l17.7-20.9c2.2-2.6 2.3-6.5.2-9.2-2.4-3.1-6.8-3.8-10-1.5L4 64v50s18.3 10 40 10h42.1c4.4 0 7.9-3.5 7.9-7.9z"/><path fill="#444b54" d="M116 73h-1.2c.8-1.5 1.2-3.2 1.2-5 0-6-4.9-11-11-11H53.5L67 41c3.1-3.7 3.3-9.2.3-13-3.4-4.4-9.6-5.3-14.1-2.1L2.3 61.5c-1.4 1-1.7 2.8-.7 4.2 1 1.4 2.8 1.7 4.2.7l50.9-35.7c1.9-1.3 4.5-.9 5.9.9 1.2 1.6 1.2 3.9-.1 5.5l-17.8 21c-.8.9-.9 2.1-.4 3.2S45.9 63 47 63h58c2.7 0 5 2.2 5 5s-2.2 5-5 5H66c-1.7 0-3 1.3-3 3s1.3 3 3 3h50c2.8 0 5 2.2 5 5s-2.2 5-5 5H62c-1.7 0-3 1.3-3 3s1.3 3 3 3h43c2.8 0 5 2.2 5 4.9 0 2.8-2.3 5.1-5.1 5.1H56c-1.7 0-3 1.3-3 3s1.3 3 3 3h30.1c2.7 0 4.9 2.2 4.9 4.9v.2c0 1.3-.5 2.5-1.4 3.5-.9.9-2.2 1.4-3.5 1.4H44c-20.6 0-38.4-9.5-38.6-9.6-1.5-.8-3.3-.3-4.1 1.2-.8 1.5-.3 3.3 1.2 4.1.8.4 19.3 10.3 41.5 10.3h42.1c2.9 0 5.6-1.1 7.7-3.2 2.1-2.1 3.2-4.8 3.2-7.7v-.2c0-1.7-.4-3.4-1.2-4.9h9.1c6.1 0 11.1-5 11.1-11.1 0-1.8-.4-3.5-1.2-4.9h1.2c6.1 0 11-4.9 11-11s-4.9-11-11-11z"/></svg>