<svg xmlns="http://www.w3.org/2000/svg" width="128" height="128"><path fill="#E074A3" d="M123.7 41.6c-2.1-15.3-14.9-27.1-30.3-28.1-11.2-.7-21.3 4.2-27.7 12.2-.9 1.1-2.6 1.1-3.4 0-6.4-8-16.6-13-27.8-12.2-15.7 1-28.6 13.4-30.3 29-.4 3.6-.2 7 .5 10.3 3.4 20 19.6 40.1 52.5 60.1 3.5 2.1 7.8 2.2 11.3.1 32.1-19.4 49.9-38.9 54.3-58.3 1.2-4.1 1.5-8.5.9-13.1z"/><path fill="#FFF" d="M13.5 53.8c-1.2 0-2.2-.8-2.5-2v-.3c-.6-2.7-.7-5.5-.4-8.3C12 30.8 22.5 20.8 34.9 20c.6 0 1.2-.1 1.8-.1 1.4 0 2.5 1.1 2.5 2.5S38.1 25 36.7 25h-1.5c-10.1.7-18.5 8.7-19.6 18.8-.3 2.3-.1 4.6.3 6.8l.1.3c.3 1.4-.6 2.7-2 2.9h-.5z" opacity=".8"/><path fill="#FFF" d="M90.2 57.3h-16c-.6 0-1.1-.5-1.1-1.1v-16c0-.6-.5-1.1-1.1-1.1H56c-.6 0-1.1.5-1.1 1.1v16c0 .6-.5 1.1-1.1 1.1h-16c-.6 0-1.1.5-1.1 1.1v16c0 .6.5 1.1 1.1 1.1h16c.6 0 1.1.5 1.1 1.1v16c0 .6.5 1.1 1.1 1.1h16c.6 0 1.1-.5 1.1-1.1v-16c0-.6.5-1.1 1.1-1.1h16c.6 0 1.1-.5 1.1-1.1v-16c0-.7-.5-1.1-1.1-1.1z"/><path fill="#502D4B" d="M72 94.9H56c-1.3 0-2.3-1.1-2.3-2.3V76.7H37.8c-1.3 0-2.3-1.1-2.3-2.3v-16c0-1.3 1-2.3 2.3-2.3h15.8V40.2c0-1.3 1-2.3 2.3-2.3h16c1.3 0 2.3 1.1 2.3 2.3V56H90c1.3 0 2.3 1.1 2.3 2.3v16c0 1.3-1 2.3-2.3 2.3H74.3v15.8c0 1.4-1 2.5-2.3 2.5zm-15.8-2.5h15.7V76.5c0-1.3 1-2.3 2.3-2.3H90V58.5H74.2c-1.3 0-2.3-1.1-2.3-2.3V40.3H56.2v15.8c0 1.3-1 2.3-2.3 2.3H38v15.7h15.8c1.3 0 2.3 1.1 2.3 2.3v16z"/><path fill="#502D4B" d="M62.9 115.8c-2.3 0-4.5-.6-6.4-1.8-32-19.5-49.4-39.4-53.1-60.9-.7-3.5-.8-7.1-.4-10.7 1.8-16.1 15.3-29 31.4-30.1.8-.1 1.6-.1 2.3-.1 10.4 0 20 4.6 26.5 12.8.3.3.6.4.7.4s.5 0 .7-.4c7-8.7 17.6-13.4 28.7-12.7 16 1 29.2 13.3 31.4 29.1.6 4.6.4 9.2-.8 13.6-4.6 19.9-23.1 39.8-54.9 59-1.7 1.2-3.9 1.8-6.1 1.8zM36.7 14.7c-.7 0-1.4 0-2.2.1-15 1-27.5 13-29.1 27.9-.4 3.4-.2 6.7.5 10 3.5 20.5 21 40.4 51.9 59.3 3 1.9 7 1.9 10 .1 31.2-18.9 49.3-38.2 53.8-57.5 1.1-4.2 1.4-8.4.8-12.7-2-14.7-14.3-26.1-29.1-27-10.3-.8-20.2 3.6-26.6 11.6-.7.8-1.7 1.3-2.7 1.3-1.1 0-2-.5-2.7-1.3-6-7.5-15-11.8-24.6-11.8z"/><path fill="#502D4B" d="M62.9 114.5c1.9 0 3.9-.5 5.6-1.5 32.1-19.4 49.9-38.9 54.3-58.3 1.1-4.1 1.5-8.5.8-13.1-2.1-15.3-14.9-27.1-30.3-28.1 13.1 31.7 4.4 65.2-30.4 101z" opacity=".2"/></svg>