<svg xmlns="http://www.w3.org/2000/svg" width="512" height="512" viewBox="0 0 135.467 135.467"><g transform="translate(0 -161.533)"><path fill="#ff8663" d="m 16.746245,208.43124 c -4.397375,0 -7.9375003,3.54012 -7.9375003,7.9375 v 37.98735 c 0,4.39738 3.5401253,7.9375 7.9375003,7.9375 H 118.7672 c 4.39736,0 7.93749,-3.54012 7.93749,-7.9375 v -24.56336 c 0,-4.39738 -3.54025,-7.90487 -7.93749,-7.9375 H 47.45705 l -0.890384,-5.48649 c -0.430109,-4.37629 -3.540125,-7.9375 -7.9375,-7.9375 z" paint-order="markers fill stroke"/><path fill="#bbcdfb" d="m 79.748283,175.84264 v 92.12069 h 26.484367 c 4.3973,0 7.9375,-3.5401 7.9375,-7.9375 v -76.24569 c 0,-4.3974 -3.54037,-7.89839 -7.9375,-7.9375 z" paint-order="markers fill stroke"/><path fill="#9ebbfb" d="m 90.331473,175.84264 v 92.1205 h 15.201677 v -92.1205 z" paint-order="markers fill stroke"/><path fill="#d9defb" d="m 90.187443,268.05705 c 4.3973,0 7.9375,-3.5401 7.9375,-7.9375 v -89.06123 c 0,-4.3974 -3.54026,-7.91445 -7.9375,-7.9375 H 45.244462 l -23.319497,23.3195 v 73.67923 c 0,4.3974 3.5401,7.9375 7.937497,7.9375 z" paint-order="markers fill stroke"/><path fill="#2196f3" d="m 45.244462,163.12082 -23.319497,23.3195 h 15.381997 c 4.3973,0 7.9375,-3.54011 7.9375,-7.9375 z" paint-order="markers fill stroke"/><path fill="#0a0d33" d="m 57.438753,229.43327 c -0.5847,0 -1.0586,0.4742 -1.0583,1.0589 0,0.5845 0.473799,1.0583 1.0583,1.0583 h 4.367668 c 0.5847,3e-4 1.0589,-0.4736 1.0589,-1.0583 2e-4,-0.5849 -0.474,-1.0592 -1.0589,-1.0589 z" color="#000" font-family="sans-serif" font-weight="400" overflow="visible" paint-order="markers fill stroke" style="line-height:normal;font-variant-ligatures:normal;font-variant-position:normal;font-variant-caps:normal;font-variant-numeric:normal;font-variant-alternates:normal;font-variant-east-asian:normal;font-feature-settings:normal;font-variation-settings:normal;text-indent:0;text-align:start;text-decoration-line:none;text-decoration-style:solid;text-decoration-color:#000;text-transform:none;text-orientation:mixed;shape-padding:0;shape-margin:0;inline-size:0;isolation:auto;mix-blend-mode:normal"/><path fill="#0a0d33" fill-rule="evenodd" d="m 49.326222,173.06445 v 1.0584 h 2.1172 v -1.0584 z m 5.2933,0 v 1.0584 h 2.1171 v -1.0584 z m 5.2911,0 v 1.0584 h 2.1172 v -1.0584 z m 5.2906,0 v 1.0584 h 2.1172 v -1.0584 z m 5.2933,0 v 1.0584 h 2.1171 v -1.0584 z m 5.2911,0 v 1.0584 h 2.1167 v -1.0584 z m 5.2906,0 v 1.0584 h 2.1172 v -1.0584 z m 5.2932,0 v 1.0584 h 2.1171 v -1.0584 z m 5.2906,0 v 1.0584 h 2.1172 v -1.0584 z"/><path fill="#f45558" d="m 36.567467,193.96812 c -3.480715,0 -6.961332,2.61239 -6.961332,7.83776 0,6.02685 7.247214,14.01759 13.922664,15.80627 6.67545,-1.78868 13.923181,-9.77942 13.923181,-15.80627 0,-5.19787 -3.444251,-7.81048 -6.90663,-7.83784 -3.499019,-0.0276 -7.016551,2.58497 -7.016551,7.83784 0,-5.22537 -3.480616,-7.83776 -6.961332,-7.83776 z" paint-order="markers fill stroke"/><path fill="#0a0d33" style="line-height:normal;font-variant-ligatures:normal;font-variant-position:normal;font-variant-caps:normal;font-variant-numeric:normal;font-variant-alternates:normal;font-variant-east-asian:normal;font-feature-settings:normal;font-variation-settings:normal;text-indent:0;text-align:start;text-decoration-line:none;text-decoration-style:solid;text-decoration-color:#000;text-transform:none;text-orientation:mixed;shape-padding:0;shape-margin:0;inline-size:0;isolation:auto;mix-blend-mode:normal" d="M57.438753 221.76036c-.5847 0-1.0586.4742-1.0583 1.0589 0 .5845.473799 1.0583 1.0583 1.0583h4.367668c.5847.0003 1.0589-.4736 1.0589-1.0583.0002-.5849-.474-1.0592-1.0589-1.0589zM68.022087 229.43327c-.5847 0-1.0586.4742-1.0583 1.0589 0 .5845.473799 1.0583 1.0583 1.0583h20.242668c.5847.0003 1.0589-.4736 1.0589-1.0583.0002-.5849-.474-1.0592-1.0589-1.0589zM68.022087 221.76036c-.5847 0-1.0586.4742-1.0583 1.0589 0 .5845.473799 1.0583 1.0583 1.0583h20.242668c.5847.0003 1.0589-.4736 1.0589-1.0583.0002-.5849-.474-1.0592-1.0589-1.0589z" color="#000" font-family="sans-serif" font-weight="400" overflow="visible" paint-order="markers fill stroke"/><path fill="#ffa14e" d="m 16.746245,227.26007 c -4.397375,0 -7.9375002,3.54012 -7.9375002,7.9375 v 52.27484 c 0,4.39738 3.5401252,7.9375 7.9375002,7.9375 H 118.76719 c 4.39737,0 7.9375,-3.54012 7.9375,-7.9375 v -38.85086 c 0,-4.39738 -3.54025,-7.90487 -7.9375,-7.9375 H 47.45705 l -0.890384,-5.48648 c -0.430109,-4.37629 -3.540125,-7.9375 -7.9375,-7.9375 z" paint-order="markers fill stroke"/><path fill="#d9defb" d="m 25.727997,251.83246 h 19.111371 c 2.19869,0 3.9688,1.77 3.9688,3.9687 v 11.1596 c 0,2.1987 -1.7701,3.9687 -3.9688,3.9687 H 25.727997 c -2.1987,0 -3.9688,-1.77 -3.9688,-3.9687 v -11.1596 c 0,-2.1987 1.7701,-3.9687 3.9688,-3.9687 z" paint-order="markers fill stroke"/><path fill="#0a0d33" style="line-height:normal;font-variant-ligatures:normal;font-variant-position:normal;font-variant-caps:normal;font-variant-numeric:normal;font-variant-alternates:normal;font-variant-east-asian:normal;font-feature-settings:normal;font-variation-settings:normal;text-indent:0;text-align:start;text-decoration-line:none;text-decoration-style:solid;text-decoration-color:#000;text-transform:none;text-orientation:mixed;shape-padding:0;shape-margin:0;inline-size:0;isolation:auto;mix-blend-mode:normal" d="m 28.303397,256.94346 c -0.5849,-2.9e-4 -1.0592,0.474 -1.0589,1.0589 0,0.5847 0.4742,1.0586 1.0589,1.0583 h 11.712471 c 0.5845,0 1.0583,-0.4738 1.0583,-1.0583 2.6e-4,-0.5847 -0.4736,-1.0589 -1.0583,-1.0589 z m 4.6679,6.3691 c -0.5849,-2e-4 -1.0591,0.474 -1.0588,1.0589 0,0.5847 0.4741,1.0586 1.0588,1.0583 h 7.044571 c 0.5845,0 1.0583,-0.4738 1.0583,-1.0583 2.6e-4,-0.5847 -0.4736,-1.0589 -1.0583,-1.0589 z" color="#000" font-family="sans-serif" font-weight="400" overflow="visible" paint-order="markers fill stroke"/><path fill="#ffc45c" d="m 33.292969,443 v 32.99023 c 0,16.62002 13.38,30 30,30 H 448.88477 c 16.61998,0 30,-13.37998 30,-30 V 443 Z" paint-order="markers fill stroke" transform="translate(0 161.533) scale(.26458)"/><path fill="#0a0d33" d="m 12.080579,270.60918 v 1.05885 h 2.117183 v -1.05885 z m 5.29115,0 v 1.05885 h 2.117183 v -1.05885 z m 35.38802,0 v 1.05885 h 2.117185 v -1.05885 z m 5.29115,0 v 1.05885 h 2.117183 v -1.05885 z m 5.292701,0 v 1.05885 h 2.117183 v -1.05885 z m 5.291149,0 v 1.05885 h 2.117185 v -1.05885 z m 5.29115,0 v 1.05885 h 2.117183 v -1.05885 z m 5.292701,0 v 1.05885 h 2.117183 v -1.05885 z m 5.291148,0 v 1.05885 h 2.117186 v -1.05885 z m 5.291151,0 v 1.05885 h 2.117183 v -1.05885 z m 5.292701,0 v 1.05885 h 2.117183 v -1.05885 z m 5.29115,0 v 1.05885 h 2.11718 v -1.05885 z m 5.29114,0 v 1.05885 h 2.11719 v -1.05885 z m 5.29271,0 v 1.05885 h 2.11718 v -1.05885 z m 5.22448,0 v 1.05885 h 2.05311 v -1.05885 z m 4.68137,0 v 1.05885 h 2.11718 v -1.05885 z" color="#000" font-family="sans-serif" font-weight="400" overflow="visible" paint-order="markers fill stroke" style="line-height:normal;font-variant-ligatures:normal;font-variant-position:normal;font-variant-caps:normal;font-variant-numeric:normal;font-variant-alternates:normal;font-variant-east-asian:normal;font-feature-settings:normal;font-variation-settings:normal;text-indent:0;text-align:start;text-decoration-line:none;text-decoration-style:solid;text-decoration-color:#000;text-transform:none;text-orientation:mixed;shape-padding:0;shape-margin:0;inline-size:0;isolation:auto;mix-blend-mode:normal"/><path fill="#0a0d33" style="line-height:normal;font-variant-ligatures:normal;font-variant-position:normal;font-variant-caps:normal;font-variant-numeric:normal;font-variant-alternates:normal;font-variant-east-asian:normal;font-feature-settings:normal;font-variation-settings:normal;text-indent:0;text-align:start;text-decoration-line:none;text-decoration-style:solid;text-decoration-color:#000;text-transform:none;text-orientation:mixed;shape-padding:0;shape-margin:0;inline-size:0;isolation:auto;mix-blend-mode:normal" d="m 171.00195,2 c -1.38275,-0.00188 -2.40377,0.7130964 -2.92383,1.2695312 L 80.035156,91.306641 c -0.748233,0.750207 -1.168282,1.766614 -1.167968,2.826171 V 173.25195 H 63.292969 c -18.766813,0 -34.001953,15.23513 -34.001953,34.00196 v 268.73632 c 0,18.76683 15.23514,34.00196 34.001953,34.00196 H 448.88477 c 18.76679,0 34.00195,-15.23513 34.00195,-34.00196 V 257.98828 c 0,-18.76683 -15.2352,-34 -34.00195,-34 h -13.375 V 84.080078 c 0,-18.766942 -15.23539,-33.99414 -34.00196,-33.99414 H 374.86719 V 36.001953 C 374.86719,17.234974 359.62971,2.0982299 340.88867,2 c -0.008,-2.29e-5 -0.0156,-2.29e-5 -0.0234,0 z m 4,8.001953 h 165.8418 c 14.49794,0.07601 26.02148,11.526791 26.02148,26 V 295.15039 H 182.76758 l -2.81836,-17.37695 c -1.88664,-18.08852 -15.25799,-33.35938 -33.95117,-33.35938 H 86.863281 V 98.134766 h 54.138669 c 18.76656,0 34,-15.235012 34,-34.001954 z M 167,15.664062 v 48.46875 c 0,14.473248 -11.52517,26.007813 -25.99805,26.007813 H 92.517578 Z m 207.86719,42.416016 h 26.64062 c 14.47287,0 26,11.526753 26,26 V 295.15039 H 374.86719 Z M 138.21094,118.58984 c -15.15688,0 -30.31641,12.09931 -30.31641,33.625 0,12.99266 7.42746,26.80235 17.86328,38.53321 10.43582,11.73089 24.01685,21.39639 37.72071,25.06836 0.67938,0.18236 1.39483,0.18236 2.07421,0 13.70384,-3.67197 27.29416,-13.3375 37.73047,-25.06836 3.86592,-4.34545 7.31453,-8.97731 10.12891,-13.7461 h 28.61719 l 18.33008,18.33008 c 1.86155,1.85475 4.97525,1.44185 6.28906,-0.83398 l 25.46094,-44.0918 14.20117,24.5957 c 0.71586,1.23949 2.03934,2.00215 3.4707,2 h 34.40625 c 2.20976,7.3e-4 4.0016,-1.79024 4.00195,-4 7.3e-4,-2.21052 -1.79143,-4.00268 -4.00195,-4.00195 h -32.0957 l -16.51368,-28.59766 c -0.7262,-1.25784 -2.07705,-2.02334 -3.52929,-2 -1.40689,0.022 -2.69881,0.78145 -3.40235,2 l -26.3164,45.58399 -15.8125,-15.8125 C 245.76829,169.42351 244.7518,169.00131 243.69141,169 h -26.24414 c 2.34245,-5.59469 3.6914,-11.26332 3.6914,-16.78516 0,-21.41249 -14.50171,-33.50202 -30.0664,-33.625 -10.63623,0 -21.22124,5.17344 -26.5586,16.19532 -5.41773,-10.90757 -15.70931,-16.19532 -26.30273,-16.19532 z m 52.79492,7.99414 c 10.38944,0.0821 22.13867,7.75238 22.13867,25.63086 0,5.04601 -1.67777,10.8614 -4.60547,16.78516 h -45.35547 c -2.2067,0.005 -3.99291,1.79524 -3.99218,4.00195 3.4e-4,2.20595 1.78624,3.99534 3.99218,4 h 40.6836 c -1.94693,2.88134 -4.15018,5.7179 -6.56446,8.43164 -9.28599,10.43789 -21.53147,19.0495 -32.7832,22.3711 -11.2532,-3.32039 -23.49615,-11.93151 -32.7832,-22.3711 -9.56721,-10.75445 -15.83985,-23.43276 -15.83985,-33.21875 0,-17.97316 11.16043,-25.62304 22.31446,-25.62304 11.15404,0 22.30859,8.27488 22.30859,25.62304 0,5.38704 8.00195,5.01192 8.00195,0 0,-17.50515 11.27179,-25.7193 22.48438,-25.63086 z M 63.292969,181.25391 h 15.574219 v 63.16015 H 63.292969 c -10.428003,0 -19.761063,4.7076 -26,12.10742 v -49.26757 c 0,-14.47321 11.526809,-26 26,-26 z m 372.216801,50.73632 h 13.375 c 14.47313,0 26,11.52484 26,25.99805 v 49.26953 c -6.23894,-7.39996 -15.5719,-12.10742 -26,-12.10742 h -13.375 z M 63.292969,252.41602 h 82.705081 c 14.4604,0 24.5588,11.50805 26.02148,26.39062 0.007,0.0836 3.39649,20.98633 3.39649,20.98633 0.31442,1.93676 1.98709,3.35961 3.94921,3.35937 h 269.51954 c 14.47317,0 26,11.52488 26,25.99805 V 439 H 37.292969 V 278.41406 c 0,-14.47321 11.526809,-25.99804 26,-25.99804 z m 33.949219,84.875 c -10.456774,0 -19.001954,8.53724 -19.001954,18.99414 v 42.17968 c 0,10.4569 8.54518,19.00196 19.001954,19.00196 h 72.226562 c 10.45678,0 19,-8.54506 19,-19.00196 v -42.17968 c 0,-10.4569 -8.54326,-18.99414 -19,-18.99414 z m 0,7.99609 h 72.226562 c 6.16328,0 11.00586,4.83488 11.00586,10.99805 v 42.17968 c 0,6.1632 -4.84255,11 -11.00586,11 H 97.242188 c -6.163321,0 -11,-4.8368 -11,-11 v -42.17968 c 0,-6.1632 4.836679,-10.99805 11,-10.99805 z M 37.292969,447.00195 H 474.88477 v 28.98828 c 0,14.47318 -11.52683,26 -26,26 H 63.292969 c -14.473191,0 -26,-11.52679 -26,-26 z" color="#000" font-family="sans-serif" font-weight="400" overflow="visible" paint-order="markers fill stroke" transform="translate(0 161.533) scale(.26458)"/></g></svg>