<svg xmlns="http://www.w3.org/2000/svg" width="512" height="512" viewBox="0 0 135.467 135.467"><g transform="translate(0 -161.533)"><path fill="#ffa14e" d="m 18.0644,175.629 h 99.3379 c 5.1302,0 9.2604,4.1302 9.2604,9.2605 v 101.2626 c 0,5.1303 -4.1302,9.2604 -9.2604,9.2604 H 18.0644 c -5.1302,0 -9.2604,-4.1301 -9.2604,-9.2604 V 184.8895 c 0,-5.1303 4.1302,-9.2605 9.2604,-9.2605 z" paint-order="markers fill stroke"/><path fill="#ff8663" d="m 38.7615,195.3041 h 72.7604 c 4.3974,0 7.9375,3.5402 7.9375,7.9375 v 79.37503 c 0,4.3974 -3.5401,7.9375 -7.9375,7.9375 H 38.7615 c -4.3974,0 -7.9375,-3.5401 -7.9375,-7.9375 V 203.2416 c 0,-4.3973 3.5401,-7.9375 7.9375,-7.9375 z" paint-order="markers fill stroke"/><path fill="#bbcdfb" d="m 31.3531,188.4249 h 72.7604 c 4.3974,0 7.9375,3.5402 7.9375,7.9375 v 79.9042 c 0,4.3974 -3.5401,7.9375 -7.9375,7.9375 H 31.3531 c -4.3973,0 -7.9375,-3.5401 -7.9375,-7.9375 v -79.9042 c 0,-4.3973 3.5402,-7.9375 7.9375,-7.9375 z" paint-order="markers fill stroke"/><path fill="#9ebbfb" d="m 88.5,374 0,35.13672 c 0,16.62009 13.38028,30 30,30 h 304.50391 c 0.32779,-1.78259 0.49609,-3.61979 0.49609,-5.5 L 423.5,374 Z" paint-order="markers fill stroke" transform="translate(0 161.533) scale(.26458)"/><path fill="#d9defb" d="m 118.5,101.63672 c -16.61972,0 -30,13.3799 -30,30 v 254 c 0,16.62009 13.38028,30 30,30 h 275 c 16.62009,0 30,-13.37991 30,-30 v -254 c 0,-16.6201 -13.37991,-30 -30,-30 z" paint-order="markers fill stroke" transform="translate(0 161.533) scale(.26458)"/><path fill="#2196f3" d="M 255.89453,6 C 238.53478,6 223.70887,17.084273 218.43945,33.275391 H 177.5 c -13.85008,0 -25,11.149921 -25,25 v 52.341799 c 0,11.08002 8.92,20 20,20 h 169 c 11.08,0 20,-8.91998 20,-20 V 58.275391 c 0,-13.850079 -11.1503,-25 -25,-25 H 293.56055 C 288.26694,17.009816 275.28993,6 255.89453,6 Z" paint-order="markers fill stroke" transform="translate(0 161.533) scale(.26458)"/><path fill="#2979ff" d="m 152.5,101.63672 v 8.98047 c 0,11.08002 8.92,20 20,20 h 169 c 11.08,0 17.59143,-9.18494 20,-20 v -8.98047 z" paint-order="markers fill stroke" transform="translate(0 161.533) scale(.26458)"/><path fill="#2196f3" d="m 154.125,376.01172 v 9.625 c 0,16.62009 -13.37991,30 -30,30 h 298 c 16.62009,0 30,-13.37991 30,-30 v -9.625 c 0,-16.6201 -13.37991,-30 -30,-30 H 185.04283 c -17.98261,0 -30.91783,13.37102 -30.91783,30 z" paint-order="markers fill stroke" transform="translate(0 161.533) scale(.26458)"/><path fill="#0a0d33" d="m 60.925648,205.62462 c -0.5847,0 -1.0586,0.4741 -1.0583,1.0588 0,0.5845 0.4738,1.0584 1.0583,1.0584 h 8.296133 c 0.5845,0 1.0583,-0.4739 1.0583,-1.0584 3e-4,-0.5847 -0.4736,-1.0588 -1.0583,-1.0588 z" color="#000" font-family="sans-serif" font-weight="400" overflow="visible" paint-order="markers fill stroke" style="line-height:normal;font-variant-ligatures:normal;font-variant-position:normal;font-variant-caps:normal;font-variant-numeric:normal;font-variant-alternates:normal;font-variant-east-asian:normal;font-feature-settings:normal;font-variation-settings:normal;text-indent:0;text-align:start;text-decoration-line:none;text-decoration-style:solid;text-decoration-color:#000;text-transform:none;text-orientation:mixed;shape-padding:0;shape-margin:0;inline-size:0;isolation:auto;mix-blend-mode:normal"/><path fill="#f45558" d="m 41.812004,201.66416 c -1.4658,0 -2.6459,1.18005 -2.6459,2.64584 v 3.09748 h -3.0974 c -1.4658,0 -2.6459,1.18004 -2.6459,2.64584 v 3.46955 c 0,1.4658 1.1801,2.64583 2.6459,2.64583 h 3.0974 v 3.09749 c 0,1.4658 1.1801,2.64583 2.6459,2.64583 h 3.4695 c 1.4658,0 2.6459,-1.18003 2.6459,-2.64583 v -3.09749 h 3.0975 c 1.4657,0 2.6458,-1.18003 2.6458,-2.64583 v -3.46955 c 0,-1.4658 -1.1801,-2.64584 -2.6458,-2.64584 h -3.0975 V 204.31 c 0,-1.46579 -1.1801,-2.64584 -2.6459,-2.64584 z" paint-order="markers fill stroke"/><path fill="#0a0d33" style="line-height:normal;font-variant-ligatures:normal;font-variant-position:normal;font-variant-caps:normal;font-variant-numeric:normal;font-variant-alternates:normal;font-variant-east-asian:normal;font-feature-settings:normal;font-variation-settings:normal;text-indent:0;text-align:start;text-decoration-line:none;text-decoration-style:solid;text-decoration-color:#000;text-transform:none;text-orientation:mixed;shape-padding:0;shape-margin:0;inline-size:0;isolation:auto;mix-blend-mode:normal" d="M60.925648 216.66285c-.5847 0-1.0586.4741-1.0583 1.0588 0 .5845.4738 1.0584 1.0583 1.0584h8.296133c.5845 0 1.0583-.4739 1.0583-1.0584.0003-.5847-.4736-1.0588-1.0583-1.0588zM75.788182 205.62462c-.5847 0-1.0586.4741-1.0583 1.0588 0 .5845.4738 1.0584 1.0583 1.0584h24.700298c.5845 0 1.0583-.4739 1.0583-1.0584.0003-.5847-.4736-1.0588-1.0583-1.0588zM75.788182 216.66285c-.5847 0-1.0586.4741-1.0583 1.0588 0 .5845.4738 1.0584 1.0583 1.0584h24.700298c.5845 0 1.0583-.4739 1.0583-1.0584.0003-.5847-.4736-1.0588-1.0583-1.0588zM43.200483 187.36439v1.05885h2.1172v-1.05885zm5.2911 0v1.05885h2.1172v-1.05885zm5.2912 0v1.05885h2.1172v-1.05885zm5.2927 0v1.05885h2.1172v-1.05885zm5.2911 0v1.05885h2.1172v-1.05885zm5.2912 0v1.05885h2.1172v-1.05885zm5.2927 0v1.05885h2.1172v-1.05885zm5.2245 0v1.05885h2.0531v-1.05885zm4.6813 0v1.05885h2.1172v-1.05885zm5.2927 0v1.05885h2.1172v-1.05885zM44.450563 264.73254v1.05886h2.1172v-1.05886zm5.2911 0v1.05886h2.1172v-1.05886zm5.2927 0v1.05886h2.1172v-1.05886zm5.2912 0v1.05886h2.1172v-1.05886zm5.2911 0v1.05886h2.1172v-1.05886zm5.2927 0v1.05886h2.1172v-1.05886zm5.29118 0v1.05886h2.1172v-1.05886zm5.2911 0v1.05886h2.1172v-1.05886zm5.2927 0v1.05886h2.1172v-1.05886zm5.2912 0v1.05886h2.1172v-1.05886zm5.291099 0v1.05886h2.117201v-1.05886zm5.292698 0v1.05886h2.1172v-1.05886zm5.2245 0v1.05886h2.0531v-1.05886zm4.6814 0v1.05886h2.1172v-1.05886z" color="#000" font-family="sans-serif" font-weight="400" overflow="visible" paint-order="markers fill stroke"/><path fill="#5bb774" d="m 40.362555,227.67914 h 5.8209 c 3.6645,0 6.6146,2.9501 6.6146,6.6146 v 5.8208 c 0,3.6645 -2.9501,6.6146 -6.6146,6.6146 h -5.8209 c -3.6644,0 -6.6145,-2.9501 -6.6145,-6.6146 v -5.8208 c 0,-3.6645 2.9501,-6.6146 6.6145,-6.6146 z" paint-order="markers fill stroke"/><path fill="#0a0d33" d="M45.494905 234.51486l-3.1347 3.1326-1.309-1.3084c-.4132-.4129-1.0828-.4129-1.496 0-.4129.4132-.4129 1.0828 0 1.496l2.0567 2.0588c.4135.4142 1.0846.4142 1.4981 0l3.8809-3.883c.4129-.4132.4129-1.0828 0-1.496-.428328-.42833-1.091565-.40444-1.496 0zM60.925648 240.91814c-.5839 0-1.0575.4729-1.0583 1.0568 0 .5845.4738 1.0583 1.0583 1.0583h36.977566c.5847.0003 1.0589-.4736 1.0589-1.0583-.0008-.5841-.4748-1.0571-1.0589-1.0568zM60.925648 231.37504c-.5847 0-1.0586.4741-1.0583 1.0588 0 .5845.4738 1.0584 1.0583 1.0584h36.871133c.5845 0 1.0583-.4739 1.0583-1.0584.0003-.5847-.4736-1.0588-1.0583-1.0588z" color="#000" font-family="sans-serif" font-weight="400" overflow="visible" paint-order="markers fill stroke" style="line-height:normal;font-variant-ligatures:normal;font-variant-position:normal;font-variant-caps:normal;font-variant-numeric:normal;font-variant-alternates:normal;font-variant-east-asian:normal;font-feature-settings:normal;font-variation-settings:normal;text-indent:0;text-align:start;text-decoration-line:none;text-decoration-style:solid;text-decoration-color:#000;text-transform:none;text-orientation:mixed;shape-padding:0;shape-margin:0;inline-size:0;isolation:auto;mix-blend-mode:normal"/><path fill="#d9defb" d="m 73.158883,175.70197 a 5.4255715,5.4255715 0 0 1 -5.4256,5.4256 5.4255715,5.4255715 0 0 1 -5.4255,-5.4256 5.4255715,5.4255715 0 0 1 5.4255,-5.4255 5.4255715,5.4255715 0 0 1 5.4256,5.4255 z" paint-order="markers fill stroke"/><path fill="#0a0d33" style="line-height:normal;font-variant-ligatures:normal;font-variant-position:normal;font-variant-caps:normal;font-variant-numeric:normal;font-variant-alternates:normal;font-variant-east-asian:normal;font-feature-settings:normal;font-variation-settings:normal;text-indent:0;text-align:start;text-decoration-line:none;text-decoration-style:solid;text-decoration-color:#000;text-transform:none;text-orientation:mixed;shape-padding:0;shape-margin:0;inline-size:0;isolation:auto;mix-blend-mode:normal" d="M 255.89258 2 C 237.90858 2 222.6081 13.111221 216.03906 29.275391 L 177.49805 29.275391 C 164.64249 29.275391 153.72839 37.673946 149.93555 49.273438 L 68.275391 49.273438 C 46.738788 49.273438 29.277344 66.734567 29.277344 88.271484 L 29.277344 471.00195 C 29.277344 492.53891 46.738838 510 68.275391 510 L 443.72461 510 C 465.26119 510 482.72461 492.53891 482.72461 471.00195 L 482.72461 88.271484 C 482.72461 66.734567 465.26123 49.273437 443.72461 49.273438 L 364.06641 49.273438 C 360.27349 37.673926 349.35921 29.275391 336.50391 29.275391 L 296.00586 29.275391 C 289.63758 13.262893 275.61027 2 255.89258 2 z M 255.89258 10.001953 C 273.77424 10.001953 284.89126 19.568424 289.75391 34.509766 C 290.28873 36.16075 291.82705 37.278596 293.5625 37.277344 L 336.50391 37.277344 C 348.20675 37.277344 357.49805 46.568293 357.49805 58.271484 L 357.49805 110.61719 C 357.49805 119.5504 350.43514 126.61328 341.50195 126.61328 L 172.5 126.61328 C 163.56681 126.61328 156.50391 119.5504 156.50391 110.61719 L 156.50391 58.271484 C 156.50391 46.568217 165.79476 37.277344 177.49805 37.277344 L 218.4375 37.277344 C 220.17295 37.278644 221.71127 36.16075 222.24609 34.509766 C 226.99847 19.907372 240.2355 10.001953 255.89258 10.001953 z M 255.99609 29.046875 C 242.50938 29.047064 231.49627 40.06016 231.49609 53.546875 C 231.49602 67.033779 242.5092 78.056452 255.99609 78.056641 C 269.48316 78.056716 280.50398 67.03393 280.50391 53.546875 C 280.50373 40.060009 269.48298 29.046799 255.99609 29.046875 z M 255.99609 37.041016 C 265.15949 37.040978 272.50183 44.383486 272.50195 53.546875 C 272.502 62.710377 265.15961 70.052772 255.99609 70.052734 C 246.8327 70.052621 239.49019 62.710264 239.49023 53.546875 C 239.49036 44.383599 246.83282 37.041167 255.99609 37.041016 z M 68.275391 57.275391 L 148.52734 57.275391 C 148.51604 57.60683 148.50195 97.640625 148.50195 97.640625 L 118.50195 97.640625 C 99.735366 97.640629 84.5 112.87404 84.5 131.64062 L 84.5 433.63477 C 84.5 452.40175 99.735407 467.63477 118.50195 467.63477 L 393.49805 467.63477 C 412.26495 467.63477 427.5 452.40167 427.5 433.63477 L 427.5 419.21094 C 443.71583 416.63104 456.12695 402.57442 456.12695 385.63672 L 456.12695 376.01172 C 456.12695 359.07402 443.71583 345.0174 427.5 342.4375 L 427.5 131.64062 C 427.5 112.87408 412.26499 97.640625 393.49805 97.640625 L 365.5 97.640625 C 365.5 97.640625 365.48591 57.60682 365.47461 57.275391 L 443.72461 57.275391 C 460.96749 57.275391 474.72266 71.028223 474.72266 88.271484 L 474.72266 471.00195 C 474.72266 488.24525 460.96753 501.99805 443.72461 501.99805 L 68.275391 501.99805 C 51.032479 501.99805 37.279297 488.24525 37.279297 471.00195 L 37.279297 88.271484 C 37.279297 71.028223 51.032532 57.275391 68.275391 57.275391 z M 118.50195 105.63477 L 148.50195 105.63477 L 148.50195 110.61719 C 148.50195 123.84402 159.27319 134.61523 172.5 134.61523 L 341.50195 134.61523 C 354.72876 134.61523 365.5 123.84402 365.5 110.61719 L 365.5 105.63477 L 393.49805 105.63477 C 407.97129 105.63477 419.49805 117.16778 419.49805 131.64062 L 419.49805 342.00977 L 185.04102 342.00977 C 165.0756 342.00977 150.125 357.30842 150.125 376.01172 L 150.125 385.63672 C 150.125 400.11 138.60026 411.63672 124.12695 411.63672 L 118.50195 411.63672 C 104.02906 411.63672 92.501953 400.10997 92.501953 385.63672 L 92.501953 131.64062 C 92.501953 117.16781 104.02913 105.63477 118.50195 105.63477 z M 158.02734 147.67383 C 150.3405 147.67383 144.03125 153.40897 144.03125 161.67773 L 144.03125 169.38477 L 136.32617 169.38477 C 128.63934 169.38477 122.32227 175.69394 122.32227 183.38086 L 122.32227 196.49805 C 122.32227 204.18496 128.63936 210.49414 136.32617 210.49414 L 144.03125 210.49414 L 144.03125 218.20117 C 144.03125 225.88813 150.34053 232.20508 158.02734 232.20508 L 171.14648 232.20508 C 178.8333 232.20508 185.14258 225.88813 185.14258 218.20117 L 185.14258 210.49414 L 192.84766 210.49414 C 200.53424 210.49414 206.85156 204.18496 206.85156 196.49805 L 206.85156 183.38086 C 206.85156 175.69394 200.53426 169.38477 192.84766 169.38477 L 185.14258 169.38477 L 185.14258 161.67773 C 185.14258 153.99082 178.83333 147.67383 171.14648 147.67383 L 158.02734 147.67383 z M 158.02734 155.67578 L 171.14648 155.67578 C 174.5397 155.67578 177.14063 158.28466 177.14062 161.67773 L 177.14062 173.38477 C 177.14362 175.59153 178.93388 177.37869 181.14062 177.37891 L 192.84766 177.37891 C 196.24036 177.37891 198.84961 179.98775 198.84961 183.38086 L 198.84961 196.49805 C 198.84961 199.89116 196.24038 202.5 192.84766 202.5 L 181.14062 202.5 C 178.93388 202.50022 177.14408 204.28738 177.14062 206.49414 L 177.14062 218.20117 C 177.14062 221.59432 174.53974 224.20313 171.14648 224.20312 L 158.02734 224.20312 C 154.63409 224.20312 152.02734 221.59432 152.02734 218.20117 L 152.02734 206.49414 C 152.02434 204.28967 150.23767 202.50345 148.0332 202.5 L 136.32617 202.5 C 132.93292 202.5 130.32422 199.89116 130.32422 196.49805 L 130.32422 183.38086 C 130.32422 179.98775 132.93294 177.37891 136.32617 177.37891 L 148.0332 177.37891 C 150.23767 177.37591 152.02389 175.58924 152.02734 173.38477 L 152.02734 161.67773 C 152.02734 158.28466 154.63413 155.67578 158.02734 155.67578 z M 152.55078 246.00195 C 136.55422 246.00195 123.55469 259.00116 123.55469 274.99805 L 123.55469 297.00195 C 123.55469 312.99884 136.55422 325.99805 152.55078 325.99805 L 174.54883 325.99805 C 190.5457 325.99805 203.55273 312.99884 203.55273 297.00195 L 203.55273 274.99805 C 203.55273 259.00116 190.5457 246.00195 174.54883 246.00195 L 152.55078 246.00195 z M 152.55078 254.00391 L 174.54883 254.00391 C 186.2521 254.00391 195.55078 263.29478 195.55078 274.99805 L 195.55078 297.00195 C 195.55078 308.70526 186.2521 317.99609 174.54883 317.99609 L 152.55078 317.99609 C 140.84794 317.99609 131.54883 308.70526 131.54883 297.00195 L 131.54883 274.99805 C 131.54883 263.29478 140.84794 254.00391 152.55078 254.00391 z M 185.04102 350.01172 L 422.12695 350.01172 C 436.60028 350.01172 448.125 361.53843 448.125 376.01172 L 448.125 385.63672 C 448.125 400.11 436.60028 411.63672 422.12695 411.63672 L 146.04883 411.63672 C 153.23138 405.71016 158.12695 396.28297 158.12695 385.63672 L 158.12695 376.01172 C 158.12695 361.45706 169.04122 350.01176 185.04102 350.01172 z M 92.501953 407.5293 C 98.740934 414.92924 108.07398 419.63867 118.50195 419.63867 L 419.49805 419.63867 L 419.49805 433.63477 C 419.49805 448.10809 407.97137 459.64062 393.49805 459.64062 L 118.50195 459.64062 C 104.02907 459.64062 92.501953 448.10801 92.501953 433.63477 L 92.501953 407.5293 z " color="#000" font-family="sans-serif" font-weight="400" overflow="visible" paint-order="markers fill stroke" transform="translate(0 161.533) scale(.26458)"/></g></svg>