<?xml version="1.0" encoding="utf-8"?>
<!-- Generator: Adobe Illustrator 23.0.1, SVG Export Plug-In . SVG Version: 6.00 Build 0)  -->
<svg version="1.1" id="Capa_1" xmlns="http://www.w3.org/2000/svg" xmlns:xlink="http://www.w3.org/1999/xlink" x="0px" y="0px"
	 viewBox="0 0 512 512" style="enable-background:new 0 0 512 512;" xml:space="preserve">
<style type="text/css">
	.st0{fill:#FFDEAA;}
	.st1{fill:#FAC38F;}
	.st2{fill:#F7F5F3;}
	.st3{fill:#EBE6E1;}
	.st4{fill:#26A6D1;}
	.st5{fill:#2293B2;}
	.st6{fill:#232323;}
	.st7{fill:#070707;}
	.st8{fill:none;}
	.st9{fill:#F3CEC9;}
	.st10{fill:#E49889;}
</style>
<path class="st0" d="M256,425.5c-31.8,0-64.6-8.7-97.6-25.9c-25.9-13.5-51.8-32.1-77.3-55.5c-43-39.4-69.5-78.5-70.6-80.1
	c-3.3-4.9-3.3-11.3,0-16.3c1.1-1.6,27.6-40.6,70.6-80.1c25.5-23.3,51.4-42,77.3-55.5c32.9-17,65.8-25.7,97.6-25.7
	s64.6,8.7,97.6,25.9c25.9,13.5,51.8,32.1,77.3,55.5c43,39.4,69.5,78.5,70.6,80.1c3.3,4.9,3.3,11.3,0,16.3
	c-1.1,1.6-27.6,40.6-70.6,80.1c-25.5,23.3-51.4,42-77.3,55.5C320.6,416.8,287.8,425.5,256,425.5L256,425.5z"/>
<path class="st1" d="M431,167.7c-25.5-23.3-51.4-42-77.3-55.5c-33-17-65.9-25.8-97.6-25.8v339.1c31.8,0,64.6-8.7,97.6-25.9
	c25.9-13.5,51.8-32.1,77.3-55.5c43-39.4,69.5-78.5,70.6-80.1c3.3-4.9,3.3-11.3,0-16.3C500.4,246.2,474,207.3,431,167.7z"/>
<path class="st2" d="M256,367.4c-69.8,0-132.2-27.4-172.3-50.4c-43.2-24.7-69.8-49.3-71-50.4c-3-2.7-4.7-6.6-4.7-10.7
	s1.6-7.9,4.7-10.7c1.2-1.1,27.8-25.7,71-50.4c40.1-23,102.5-50.4,172.3-50.4S388.2,172,428.3,195c43.2,24.8,69.9,49.3,71,50.4
	c3,2.7,4.6,6.6,4.6,10.7s-1.6,7.9-4.6,10.7c-1.2,1.1-27.8,25.7-71,50.4C388.2,340,325.8,367.4,256,367.4L256,367.4z"/>
<path class="st3" d="M428.3,195c-40.1-23-102.5-50.4-172.3-50.4v222.8c69.8,0,132.2-27.4,172.3-50.4c43.2-24.8,69.9-49.3,71-50.4
	c3-2.7,4.6-6.6,4.6-10.7s-1.6-7.9-4.6-10.7C498.2,244.3,471.5,219.7,428.3,195L428.3,195z"/>
<path class="st4" d="M256,367.4c-61.4,0-111.4-50-111.4-111.4s50-111.4,111.4-111.4s111.4,50,111.4,111.4S317.4,367.4,256,367.4z"/>
<path class="st5" d="M367.4,256c0-61.4-50-111.4-111.4-111.4v222.8C317.4,367.4,367.4,317.4,367.4,256z"/>
<path class="st6" d="M256,299.6c-24,0-43.6-19.6-43.6-43.6s19.6-43.6,43.6-43.6s43.6,19.6,43.6,43.6S280,299.6,256,299.6z"/>
<path class="st7" d="M299.6,256c0-24-19.6-43.6-43.6-43.6v87.2C280,299.6,299.6,280,299.6,256z"/>
<g>
	<path class="st8" d="M499.3,245.4c-1.1-1.1-27.8-25.6-71-50.4c-40.1-23-102.5-50.6-172.3-50.6s-132.2,27.4-172.3,50.4
		c-43.2,24.7-69.8,49.3-71,50.4C9.6,248,8,251.8,8,255.9c0,4.1,1.7,8,4.7,10.7c0.8,0.8,13.9,12.8,36.2,28.4
		c10.1-9.8,31.7-15.4,58.9-29.8c51-27.1,109-49.8,129.4-24c18.7,23.7-14.8,74.1-65.7,101.2c-5,2.7-10,5.3-14.8,7.8
		c29.9,10.1,63.7,17.3,99.5,17.3c69.8,0,132.2-27.4,172.3-50.2c43.2-24.7,69.8-49.3,71-50.4c3-2.8,4.6-6.6,4.6-10.7
		C503.9,252,502.3,248.1,499.3,245.4z"/>
	<path class="st9" d="M237.1,241.1c-20.4-25.8-78.4-3.1-129.4,24c-27.2,14.4-48.7,20-58.9,29.8c9.9,6.9,21.6,14.5,34.8,22
		c19.6,11.2,44.4,23.5,72.8,33.1c4.8-2.5,9.8-5.1,14.8-7.8C222.4,315.2,255.8,264.8,237.1,241.1z"/>
</g>
<g>
	<path class="st8" d="M499.3,245.4c-1.1-1.1-27.8-25.6-71-50.4c-40.1-23-102.5-50.6-172.3-50.6s-132.2,27.4-172.3,50.4
		c-43.2,24.7-69.8,49.3-71,50.4C9.6,248,8,251.8,8,255.9c0,4.1,1.7,8,4.7,10.7c0.8,0.8,13.5,12.5,35.2,27.7
		c11.5-7.3,30.2-13.2,52.8-25.2c10.4-5.5,21.1-10.9,31.8-15.7c0.6,1.1,1.7,1.8,3.3,1.3c13.1-3.9,26.5-7.1,39.7-10.6
		c2.8,1.1,5.7,2.1,8.6,3.1c0.8,0.3,1.6,0.6,2.4,0.9c-2.1,0.8-4.1,1.7-6.2,2.5c-28,10.6-57.1,18.9-82.7,34.7c-3.3,2-0.3,7.2,3,5.2
		c26.2-16.2,56-24.3,84.5-35.3c2.8-1.1,5.7-2.3,8.5-3.5c0.5,0.3,1,0.7,1.5,1c-29.2,12.1-58.6,23.6-86.5,38.6c-3.4,1.8-0.4,7,3,5.2
		c28.3-15.2,58.3-26.9,87.9-39.2c0.6,0.8,1.2,1.7,1.8,2.7c0.2,0.3,0.4,0.6,0.6,1c-3.8,1.7-7.7,3.5-11.4,5.3
		c-10.1,5-20,10.6-29.5,16.8c-9.6,6.2-19,12.6-29.5,17.3c-2.8,1.3-1.4,4.9,1.1,5.4c-0.4,0.2-0.7,0.4-1.1,0.6c-3.4,1.9-0.4,7,3,5.2
		c11.7-6.4,23.6-12.5,35.6-18.3c0.2,1.4,1.1,2.7,2.9,2.7c0.9,0,1.8,0,2.7,0.1c-4.7,2.8-9.5,5.6-14.2,8.4c-3.3,2-0.3,7.1,3,5.2
		c8.5-5,17-10,25.5-15c2.9-0.6,5.7-1.4,8.6-2.2c-17.7,10.4-35.1,21.3-53.1,31.1c-3.4,1.8-0.4,7,3,5.2c20.9-11.4,41-24.3,61.7-36.2
		c0.2,2.6,0.3,5.1,0.4,7.7c-20.8,8.3-41.8,16.1-60.1,29.3c-3.1,2.2-0.1,7.4,3,5.2c17.5-12.5,37.4-20.2,57.3-28.1
		c0,1.3,0.1,2.7,0.1,4c-12.2,13.4-28.2,26.2-46.6,35.9c-2.5,1.3-5,2.6-7.4,3.9c29.8,10,63.4,17.2,99,17.2
		c69.8,0,132.2-27.4,172.3-50.2c43.2-24.7,69.8-49.3,71-50.4c3-2.8,4.6-6.6,4.6-10.7C503.9,252,502.3,248.1,499.3,245.4z
		 M155.9,293.5c2.7-1.7,5.4-3.5,8.1-5.3c9.5-6.1,19.3-11.8,29.5-16.8c3.7-1.8,7.4-3.5,11.1-5.2c0.6,1.4,1.2,2.9,1.7,4.4
		C189.2,277.6,172.3,285.2,155.9,293.5z M187.9,288.8c-3.6,0.7-7.3,1.1-11,1.2c10.2-4.8,20.5-9.3,31-13.5c0.1,0.2,0.1,0.4,0.2,0.7
		C201.3,280.9,194.6,284.8,187.9,288.8z"/>
	<path class="st10" d="M176.9,289.9c3.7-0.1,7.3-0.5,11-1.2c6.7-3.9,13.4-7.8,20.2-11.6c-0.1-0.2-0.1-0.4-0.2-0.7
		C197.5,280.7,187.2,285.2,176.9,289.9z"/>
	<path class="st10" d="M204.6,266.3c-3.7,1.7-7.4,3.4-11.1,5.2c-10.1,5-20,10.6-29.5,16.8c-2.7,1.8-5.4,3.5-8.1,5.3
		c16.5-8.3,33.3-15.9,50.4-22.8C205.8,269.2,205.2,267.7,204.6,266.3z"/>
	<path class="st10" d="M210.9,310.4c0-1.3-0.1-2.7-0.1-4c-19.9,7.9-39.8,15.6-57.3,28.1c-3.1,2.3-6.1-3-3-5.2
		c18.3-13.1,39.3-21,60.1-29.3c-0.1-2.6-0.2-5.2-0.4-7.7c-20.6,11.9-40.7,24.8-61.7,36.2c-3.4,1.8-6.4-3.3-3-5.2
		c18-9.8,35.4-20.7,53.1-31.1c-2.8,0.9-5.7,1.7-8.6,2.2c-8.5,5-17,10-25.5,15c-3.3,2-6.4-3.2-3-5.2c4.7-2.8,9.5-5.6,14.2-8.4
		c-0.9,0-1.8,0-2.7-0.1c-1.8-0.1-2.7-1.4-2.9-2.7c-12.1,5.8-23.9,11.9-35.6,18.3c-3.4,1.9-6.4-3.3-3-5.2c0.4-0.2,0.7-0.4,1.1-0.6
		c-2.5-0.5-3.9-4.1-1.1-5.4c10.5-4.7,19.9-11.1,29.5-17.3c9.5-6.1,19.3-11.8,29.5-16.8c3.8-1.8,7.6-3.6,11.4-5.3
		c-0.2-0.3-0.4-0.6-0.6-1c-0.6-1-1.2-1.9-1.8-2.7c-29.7,12.3-59.6,23.9-87.9,39.2c-3.4,1.8-6.4-3.3-3-5.2
		c27.8-15,57.3-26.5,86.5-38.6c-0.5-0.4-1-0.7-1.5-1c-2.8,1.2-5.6,2.4-8.5,3.5c-28.5,11-58.3,19.2-84.5,35.3c-3.3,2-6.3-3.2-3-5.2
		c25.6-15.8,54.7-24.1,82.7-34.7c2.1-0.8,4.2-1.6,6.2-2.5c-0.8-0.3-1.5-0.6-2.4-0.9c-2.9-1-5.7-2-8.6-3.1
		c-13.2,3.5-26.6,6.7-39.7,10.6c-1.5,0.5-2.7-0.3-3.3-1.3c-10.6,4.8-21.3,10.1-31.8,15.7c-22.6,12-41.3,17.9-52.8,25.2
		c10.1,7.4,22.1,15.2,35.8,23c19.6,11.3,44.7,23.6,73.3,33.2c2.5-1.3,4.9-2.6,7.4-3.9C182.7,336.6,198.8,323.8,210.9,310.4z"/>
</g>
</svg>
