<svg id="SvgjsSvg1020" width="288" height="288" xmlns="http://www.w3.org/2000/svg" version="1.1" xmlns:xlink="http://www.w3.org/1999/xlink" xmlns:svgjs="http://svgjs.com/svgjs"><defs id="SvgjsDefs1021"></defs><g id="SvgjsG1022"><svg xmlns="http://www.w3.org/2000/svg" data-name="Layer 1" viewBox="0 0 64 64" width="288" height="288"><path fill="#ffffff" d="M26.37 36.74s5.12 5.2 5.92 10.63-1 11.68 3.22 10.67 8.49-7.85 3.63-19.73l-1-.34h16.44a4.09 4.09 0 1 0 0-8.18H52a4 4 0 0 0 0-8h-2.74a4 4 0 0 0 0-8h1.23a7.57 7.57 0 0 0-7.06-7.57c-5.35-.36-12.23-.59-14.86.62a16.32 16.32 0 0 0-3.84 2.41h-6.2V37z" class="colorf8ddd7 svgShape"></path><path fill="#efeeee" d="M28.85 10.19c2.63-1.22 9.52-1 14.86-.62A7.54 7.54 0 0 1 50 13.73h.81a7.57 7.57 0 0 0-7.06-7.57c-5.34-.36-12.23-.59-14.86.62A16.17 16.17 0 0 0 25 9.19h-6.19v3.41H25a16.17 16.17 0 0 1 3.85-2.41z" class="colorfef1ed svgShape"></path><path fill="#e9e9eb" d="M36.44 6.12c6.1 1.21 5.32 7.88 5.32 7.88 2.44 2.4 2.5 8 2.5 8 2.49 2.35.8 8.1.8 8.1a8.85 8.85 0 0 1 2.19 8l3.24.23v-.23h4.67a4.09 4.09 0 1 0 0-8.18h-2.52a4 4 0 0 0 0-8h-2.78a4 4 0 0 0 0-8h1.23A7.57 7.57 0 0 0 44 6.16a8.74 8.74 0 0 0-1.73 0z" class="colorefc8bb svgShape"></path><path fill="none" stroke="#000000" stroke-linecap="round" stroke-linejoin="round" stroke-width="1.5" d="M23.23 33.11s8.26 9 9.06 14.49-1 11.68 3.22 10.67 8.49-7.85 3.63-19.73" class="colorStroke60629d svgStroke"></path><path fill="none" stroke="#000000" stroke-linecap="round" stroke-linejoin="round" stroke-width="1.5" d="M35.82 38.2h18.76a4.1 4.1 0 0 0 4.1-4.09 4.1 4.1 0 0 0-4.1-4.11h-11M48 30h4a4 4 0 0 0 4-4 4 4 0 0 0-4-4h-8.15M45.24 22h4a4 4 0 0 0 4-4 4 4 0 0 0-4-4h-8.17M50.49 14a7.57 7.57 0 0 0-7.06-7.57C38.08 6 31.23 5.86 28.57 7c-4.64 2-5.1 3.09-6.18 7M26.37 36.87h-7.84M24.73 9.19h-6.2" class="colorStroke60629d svgStroke"></path><path fill="#71c17f" d="M9.17 7.94h7.27A2.09 2.09 0 0 1 18.53 10v26.7a2.1 2.1 0 0 1-2.09 2.09H6.76a2.09 2.09 0 0 1-2.08-2.28L7.09 9.84a2.08 2.08 0 0 1 2.08-1.9z" class="color94b6df svgShape"></path><path fill="#71c17f" d="M16.44 34.11H6.76a2.09 2.09 0 0 1-1.77-1l-.31 3.42a2.09 2.09 0 0 0 2.08 2.28h9.68a2.1 2.1 0 0 0 2.09-2.09V32a2.1 2.1 0 0 1-2.09 2.11z" class="color7a9dd2 svgShape"></path><path fill="#71c17f" d="M9 13.07h8.53a2.43 2.43 0 0 1 1.25.36V10a2.08 2.08 0 0 0-2.09-2.09H9.45a2.09 2.09 0 0 0-2.08 1.9L7 14.2a2.44 2.44 0 0 1 2-1.13z" class="colorc6dcf0 svgShape"></path><path fill="none" stroke="#000000" stroke-linecap="round" stroke-linejoin="round" stroke-width="1.5" d="M9.17 7.94h7.27A2.09 2.09 0 0 1 18.53 10v26.7a2.1 2.1 0 0 1-2.09 2.09H6.76a2.09 2.09 0 0 1-2.08-2.28L7.09 9.84a2.08 2.08 0 0 1 2.08-1.9z" class="colorStroke60629d svgStroke"></path><circle cx="13.78" cy="13.07" r=".89" fill="none" stroke="#000000" stroke-linecap="round" stroke-linejoin="round" stroke-width="1.5" class="colorStroke60629d svgStroke"></circle></svg></g></svg>