<svg xmlns="http://www.w3.org/2000/svg" data-name="Layer 1" viewBox="0 0 512 512"><circle cx="256" cy="256" r="219.5" fill="#fdd402"/><path fill="#fbbf13" d="M96.5,256C96.5,144.9519,178.969,53.17993,286,38.54956A221.36948,221.36948,0,0,0,256,36.5C134.77344,36.5,36.5,134.77344,36.5,256S134.77344,475.5,256,475.5a221.36948,221.36948,0,0,0,30-2.04956C178.969,458.82007,96.5,367.0481,96.5,256Z"/><path fill="#74563a" d="M384.78993,374.25586a10.00957,10.00957,0,0,1-13.802,10.65688,295.84323,295.84323,0,0,0-49.798-16.11269h-.01A292.19168,292.19168,0,0,0,257.52,361.45h-1.5a293.0633,293.0633,0,0,0-65.18994,7.3501h-.02A296.31324,296.31324,0,0,0,141.01244,384.914a10.01005,10.01005,0,0,1-13.80392-10.6558A126.34261,126.34261,0,0,1,252.46,265.34H259.54A126.05433,126.05433,0,0,1,348.96,302.38c.7.7,1.39014,1.4,2.07007,2.12a125.71341,125.71341,0,0,1,33.7599,69.75586Z"/><path fill="#674b34" d="M170.49,358.26a126.36019,126.36019,0,0,1,105.509-91.85718A127.763,127.763,0,0,0,259.54,265.34H252.46A126.22982,126.22982,0,0,0,127.208,374.26206a10.012,10.012,0,0,0,13.81055,10.65329c7.495-3.18091,16.22125-6.515,26.06155-9.64057A126.96627,126.96627,0,0,1,170.49,358.26Z"/><path fill="#74563a" d="M374.32813 254.67041a7.46325 7.46325 0 0 1-3.71387-.98975l-46.66992-26.66894a7.49948 7.49948 0 0 1 0-13.02344l46.66992-26.66894a7.49974 7.49974 0 1 1 7.4414 13.02343L342.78125 220.5l35.27441 20.15723a7.50091 7.50091 0 0 1-3.72753 14.01318zM137.67188 254.67041a7.50091 7.50091 0 0 1-3.72754-14.01318L169.21875 220.5l-35.27441-20.15723a7.49974 7.49974 0 1 1 7.4414-13.02343l46.66992 26.66894a7.49948 7.49948 0 0 1 0 13.02344l-46.66992 26.66894A7.46057 7.46057 0 0 1 137.67188 254.67041zM150.67285 169.95313A72.45648 72.45648 0 0 1 121.126 163.5542a7.5 7.5 0 1 1 6.50781-13.51465c2.42285 1.167 24.28027 11.05566 45.4873-.7998a48.08362 48.08362 0 0 0 18.501-18.9458A7.50023 7.50023 0 0 1 204.77832 137.5a62.85588 62.85588 0 0 1-24.33984 24.834A60.352 60.352 0 0 1 150.67285 169.95313zM357.32715 169.95313a60.3485 60.3485 0 0 1-29.7666-7.61963A62.85557 62.85557 0 0 1 303.22168 137.5a7.50023 7.50023 0 0 1 13.15625-7.20605 48.08313 48.08313 0 0 0 18.5 18.94531c21.209 11.854 43.06738 1.96679 45.48828.80029A7.5 7.5 0 1 1 386.874 163.5542 72.46655 72.46655 0 0 1 357.32715 169.95313z"/><path fill="#fff" d="M351.03,304.5H160.97a126.03074,126.03074,0,0,1,91.49-39.16H259.54A126.05433,126.05433,0,0,1,348.96,302.38C349.65991,303.08,350.3501,303.78,351.03,304.5Z"/><path fill="#e5303e" d="M321.18994,368.80005h-.01A292.19168,292.19168,0,0,0,257.52,361.45h-1.5a293.0633,293.0633,0,0,0-65.18994,7.3501h-.02c3.2-19.25,31.16992-34.3,65.18994-34.3S317.99,349.55005,321.18994,368.80005Z"/><path fill="#b72732" d="M271,335.50659A111.41158,111.41158,0,0,0,256,334.5c-34.02,0-61.99,15.05005-65.18994,34.30005h.02a294.39317,294.39317,0,0,1,31.56933-5.40637C228.249,349.58923,247.10718,338.75537,271,335.50659Z"/><path fill="#e0e0e2" d="M276,266.3999A125.18155,125.18155,0,0,0,241.55005,276,126.62654,126.62654,0,0,0,200.97,304.5h-40a126.03074,126.03074,0,0,1,91.49-39.16H259.54c.7,0,1.38989.01,2.08984.02.69019.01,1.39014.02,2.08008.04992.48.01.95.03,1.43018.06006.38989.01.76977.03,1.1499.05q3.53979.18,7.02.55994c.42993.05.85986.09,1.28.15C275.06006,266.28,275.53,266.34,276,266.3999Z"/><path fill="#e0e0e2" d="M276,266.3999A125.18155,125.18155,0,0,0,241.55005,276,126.62654,126.62654,0,0,0,200.97,304.5h-40a126.03074,126.03074,0,0,1,91.49-39.16H259.54c.7,0,1.38989.01,2.08984.02.69019.01,1.39014.02,2.08008.04992.48.01.95.03,1.43018.06006.38989.01.76977.03,1.1499.05q3.53979.18,7.02.55994c.42993.05.85986.09,1.28.15C275.06006,266.28,275.53,266.34,276,266.3999Z"/></svg>