<svg xmlns="http://www.w3.org/2000/svg" data-name="Layer 1" viewBox="0 0 512 512"><circle cx="256" cy="256" r="219.5" fill="#fdd402"/><path fill="#fbbf13" d="M96.5,256C96.5,144.95184,178.969,53.17993,286,38.5495A221.37921,221.37921,0,0,0,256,36.5C134.77344,36.5,36.5,134.7735,36.5,256S134.77344,475.5,256,475.5a221.37921,221.37921,0,0,0,30-2.0495C178.969,458.82007,96.5,367.04816,96.5,256Z"/><path fill="#74563a" d="M193.5 202a7.50006 7.50006 0 0 1-7.5-7.5 20.5 20.5 0 0 0-41 0 7.5 7.5 0 0 1-15 0 35.5 35.5 0 0 1 71 0A7.50006 7.50006 0 0 1 193.5 202zM374.5 202a7.50006 7.50006 0 0 1-7.5-7.5 20.5 20.5 0 0 0-41 0 7.5 7.5 0 0 1-15 0 35.5 35.5 0 0 1 71 0A7.50006 7.50006 0 0 1 374.5 202z"/><path fill="none" d="M384.5,290.5a125.12511,125.12511,0,0,1-63.75,108.99q-5.31006,3-10.93994,5.47A124.4802,124.4802,0,0,1,259.5,415.5h-7a124.52787,124.52787,0,0,1-50.32007-10.54q-5.61-2.47485-10.91992-5.46a124.77521,124.77521,0,0,1-63.76-109,291.23534,291.23534,0,0,0,128.52,30h1.48A291.16558,291.16558,0,0,0,384.5,290.5Z"/><path fill="none" d="M384.5 290.5a125.37631 125.37631 0 0 1-4.44 33.14l-.01.01a290.161 290.161 0 0 1-248.1 0h-.01a125.3945 125.3945 0 0 1-4.44-33.15 291.23618 291.23618 0 0 0 128.52 30h1.48A291.16582 291.16582 0 0 0 384.5 290.5zM320.75 399.49q-5.31006 3-10.93994 5.47A124.4802 124.4802 0 0 1 259.5 415.5h-7a124.52787 124.52787 0 0 1-50.32007-10.54q-5.61-2.47485-10.91992-5.46c14.18994-11.48 37.89-19 64.74-19S306.55005 388.02 320.75 399.49z"/><path fill="#74563a" d="M329.00059,316.3l-70,12-127.06-17.35a124.91764,124.91764,0,0,0,120.56,91.85h7q1.52408,0,3.03772-.03986c.70844-.01684,1.41352-.04675,2.119-.07538.25165-.01056.50427-.01764.75562-.02972.86731-.04034,1.73132-.09253,2.59393-.15051.07465-.00507.14941-.00952.22406-.01471q1.29345-.08917,2.57928-.20471c.0633-.00562.12708-.00947.19037-.01514l-.01184-.00134A125.08615,125.08615,0,0,0,380.06059,310.94Z"/><path fill="#674b34" d="M271.00059,402.27c-3.79.34-7.62.53-11.5.53h-7a124.91761,124.91761,0,0,1-120.56-91.85c-.29-1.07-.57-2.15-.83-3.24-.4-1.58-.76-3.18-1.08-4.78-.11-.54-.22-1.08-.32-1.62-.06-.31-.12-.63-.17-.95-.1-.5-.19-1.01-.27-1.51-.12-.69-.23-1.37-.33-2.06-.09-.59-.18-1.17-.26-1.76,0-.02-.01-.05,0-.07a10.01046,10.01046,0,0,1,13.87-10.26c4.73,2,9.94,4.06,15.62,6.09a124.09063,124.09063,0,0,0,8.4,33.86,125.47319,125.47319,0,0,0,65.61,67.61A124.21459,124.21459,0,0,0,271.00059,402.27Z"/><path fill="#e5303e" d="M309.81059,392.26a124.0975,124.0975,0,0,1-38.82184,10.00867l.01184.00134c-.06329.00567-.12707.00952-.19037.01514q-1.286.11535-2.57928.20471c-.07465.00519-.14941.00964-.22406.01471-.86261.058-1.72662.11017-2.59393.15051-.25135.01208-.504.01916-.75562.02972-.7055.02863-1.41058.05854-2.119.07538q-1.5141.038-3.03772.03986h-7a124.52707,124.52707,0,0,1-50.32-10.54c-.94-.41-1.86-.84-2.78-1.27-.93006-.44-1.84-.88-2.75-1.34-1.82-.91-3.61005-1.87-5.38-2.86a70.87156,70.87156,0,0,1,15.68-9.39c13.45-6.01,30.5-9.6,49.05-9.6,26.84,0,50.54,7.52,64.73,18.99Q315.42062,389.775,309.81059,392.26Z"/><path fill="#fff" d="M369.44585,284.699a10.01637,10.01637,0,0,1,13.83081,10.6477A124.9701,124.9701,0,0,1,380.06059,310.94l-.01.01a290.16107,290.16107,0,0,1-248.1,0h-.01a124.942,124.942,0,0,1-3.2174-15.60377A10.016,10.016,0,0,1,142.55181,284.698,291.21,291.21,0,0,0,256.02061,307.8h1.48A291.06851,291.06851,0,0,0,369.44585,284.699Z"/><path fill="#e0e0e2" d="M166.5706,324.65q-2.505-.81-4.9-1.63c-.08-.03-.16-.06-.25-.09-.84-.29-1.66-.58-2.48-.87-.95-.33-1.89-.67005-2.81-1.01-1.48-.53-2.92-1.07-4.32-1.61-1.05-.4-2.07-.8-3.07-1.2-.88-.35-1.75-.7-2.6-1.05-.06-.02-.12-.04-.17005-.06006-.93994-.38995-1.85-.76995-2.75-1.15-1.84-.77-3.61-1.54-5.29-2.29-.42-.18-.84-.37-1.25-.56006-1.66-.74-3.23-1.47-4.73-2.18h-.01c-.32-1.19-.64-2.38995-.92-3.6-.07-.24-.12-.49-.18-.73q-.43506-1.83006-.81-3.69c-.16-.76-.31006-1.52-.44-2.29-.12006-.59-.22-1.19-.32-1.79-.12-.69-.23-1.37-.33-2.06-.09-.59-.18-1.17-.26-1.76v-.07a10.01046,10.01046,0,0,1,13.87-10.26c.39.17005.79.34,1.2.5.4.17005.8.34,1.21.51,1.74.72,3.53,1.44,5.39,2.16.54.21,1.08.42,1.63.63.24.1.48.19.72.28.31.11.62.23.93.35.07.03.15.05.22.08.39.14.77.29,1.17.43q.40494.15006.81.3c.77.29,1.55.57,2.34.85a124.13321,124.13321,0,0,0,3.77,20.16A122.511,122.511,0,0,0,166.5706,324.65Z"/></svg>