<svg xmlns="http://www.w3.org/2000/svg" data-name="Layer 1" viewBox="0 0 512 512"><circle cx="256" cy="256" r="219.5" fill="#e5303e"/><path fill="#b72732" d="M96.5,256C96.5,144.9519,178.969,53.17993,286,38.54956A221.36948,221.36948,0,0,0,256,36.5C134.77344,36.5,36.5,134.77344,36.5,256S134.77344,475.5,256,475.5a221.36948,221.36948,0,0,0,30-2.04956C178.969,458.82007,96.5,367.0481,96.5,256Z"/><path fill="#b72732" d="M196.207,221.14136a7.49512,7.49512,0,0,1-6.585-3.89844,48.08768,48.08768,0,0,0-18.5-18.94629c-21.209-11.85351-43.06738-1.96582-45.48828-.79883a7.50039,7.50039,0,1,1-6.50781-13.51562c3.1416-1.51172,31.49121-14.32813,59.31347,1.2207a62.84651,62.84651,0,0,1,24.33887,24.835,7.50163,7.50163,0,0,1-6.57129,11.10352Z"/><circle cx="185.12" cy="216" r="19.5" fill="#b72732"/><path fill="#b72732" d="M315.793,221.14136a7.50163,7.50163,0,0,1-6.57129-11.10352,62.84245,62.84245,0,0,1,24.33984-24.835c27.81641-15.55176,56.1709-2.73242,59.3125-1.2207a7.50039,7.50039,0,1,1-6.50781,13.51562c-2.42187-1.167-24.27832-11.05371-45.4873.79883a48.08443,48.08443,0,0,0-18.501,18.94629A7.499,7.499,0,0,1,315.793,221.14136Z"/><circle cx="326.88" cy="216" r="19.5" fill="#b72732"/><path fill="#b72732" d="M368.55664,388.001a7.49639,7.49639,0,0,1-6.54492-3.82715A117.93525,117.93525,0,0,0,306.78809,334.044,116.5675,116.5675,0,0,0,259.5,324.13965h-7a116.60013,116.60013,0,0,0-47.29687,9.90332,118.46814,118.46814,0,0,0-55.21387,50.12988,7.49995,7.49995,0,0,1-13.07813-7.3457,133.55212,133.55212,0,0,1,62.24707-56.51172A131.5101,131.5101,0,0,1,252.5,309.13965h7a132.1737,132.1737,0,0,1,93.69336,38.80664,132.91978,132.91978,0,0,1,21.89453,28.87988,7.50186,7.50186,0,0,1-6.53125,11.17481Z"/></svg>