<svg xmlns="http://www.w3.org/2000/svg" viewBox="0 0 512 512"><circle cx="256" cy="256" r="256" fill="#f6d372"/><path fill="#f9e1a5" d="M511.1,256a256.58,256.58,0,0,1-7.28,60.88,258.47,258.47,0,0,1-36.29,2.55,256.46,256.46,0,0,1-49.28-4.75c-.21,0-.41-.07-.62-.12a253.33,253.33,0,0,1-47.53-14.33q-5.24-2.16-10.36-4.54a255.21,255.21,0,0,1-31.14-17.22,258,258,0,0,1-27.12-20.22A255.85,255.85,0,0,1,218.3,121.83q-2-8.64-3.44-17.52h0a255.41,255.41,0,0,1-3.1-32.62c-.09-2.71-.13-5.42-.13-8.15a256.05,256.05,0,0,1,7.32-61A258.1,258.1,0,0,1,255.1,0C396.48,0,511.1,114.62,511.1,256Z"/><polygon fill="#3267b2" points="253.99 38.03 146.74 256 131.18 287.63 35.64 256 253.86 37.77 253.99 38.03"/><polygon fill="#3586cb" points="376.78 287.6 254.36 328.41 131.18 287.63 146.74 256 253.99 38.03 361.23 256 376.78 287.6"/><polygon fill="#7cc8fb" points="471.58 256 376.78 287.6 361.23 256 253.99 38.03 254.36 37.27 471.58 256"/><polygon fill="#366fca" points="254.36 328.41 254.36 473.98 253.61 474.73 35.64 256 131.18 287.63 254.36 328.41"/><polygon fill="#41c0e3" points="471.58 256 254.36 473.98 254.36 328.41 376.78 287.6 471.58 256"/><line x1="376.79" x2="376.78" y1="287.63" y2="287.6" fill="none"/><polygon fill="#2e62a0" points="207.87 131.77 83.64 256 107.27 279.71 35.64 256 253.86 37.77 253.99 38.03 207.87 131.77"/><polygon fill="#307cb5" points="269.69 69.94 207.87 131.77 253.99 38.03 269.69 69.94"/><polygon fill="#3368b5" points="254.36 427.32 254.36 473.98 253.61 474.73 35.64 256 107.27 279.71 254.36 427.32"/><polygon fill="#9ddafc" points="301.14 131.77 425.37 256 401.74 279.71 473.37 256 255.15 37.77 255.02 38.03 301.14 131.77"/><polygon fill="#7cc8fb" points="254.65 427.32 254.65 473.98 255.4 474.73 473.37 256 401.74 279.71 254.65 427.32"/><ellipse cx="302.42" cy="200.11" fill="#7cc8fb" rx="13.5" ry="33.1" transform="rotate(-20.59 302.48 200.132)"/><ellipse cx="323.72" cy="256.79" fill="#7cc8fb" rx="8.79" ry="21.55" transform="rotate(-20.59 323.8 256.837)"/><path fill="#fff" d="M306.77 99.25c0-2.82-17.86-5.18-41.56-5.71 7.54-8.25 12.25-14.7 11.23-15.71S269 81.52 260.73 89.06c-.53-23.7-2.89-41.56-5.71-41.56s-5.18 17.86-5.71 41.56c-8.25-7.54-14.7-12.25-15.72-11.23s3.7 7.46 11.24 15.71c-23.7.53-41.56 2.89-41.56 5.71s17.86 5.18 41.56 5.72c-7.54 8.25-12.25 14.69-11.24 15.71s7.47-3.7 15.72-11.24c.53 23.71 2.88 41.57 5.71 41.57s5.18-17.86 5.71-41.57c8.25 7.54 14.7 12.25 15.71 11.24s-3.69-7.46-11.23-15.71C288.91 104.43 306.77 102.08 306.77 99.25zM337 389.83c0-2.82-17.86-5.18-41.56-5.71 7.54-8.25 12.25-14.7 11.23-15.71S299.2 372.1 291 379.64c-.53-23.7-2.89-41.56-5.71-41.56s-5.18 17.86-5.71 41.56c-8.25-7.54-14.7-12.25-15.72-11.23s3.7 7.46 11.24 15.71c-23.7.53-41.56 2.89-41.56 5.71s17.86 5.18 41.56 5.72c-7.54 8.25-12.25 14.69-11.24 15.71s7.47-3.7 15.72-11.24c.53 23.71 2.89 41.57 5.71 41.57S290.42 423.73 291 400c8.25 7.54 14.7 12.25 15.71 11.24s-3.69-7.46-11.23-15.71C319.13 395 337 392.66 337 389.83z"/></svg>