<svg xmlns="http://www.w3.org/2000/svg" viewBox="0 0 64 64" id="ghost"><g><path fill="#5b7ba6" d="M55.77,33.16a12.18,12.18,0,0,1-4.49.84c.22,2.11.45,4,.71,5.77a152,152,0,0,0,4,18.84,1,1,0,0,1-.12.81.73.73,0,0,1-.19.2,1,1,0,0,1-.51.24,14.08,14.08,0,0,1-2,.14,13.07,13.07,0,0,1-7.69-2.44L45,59.19a1,1,0,0,1-1.15.66,13.76,13.76,0,0,1-3.23-1.07,14.24,14.24,0,0,1-2.07-1.22L38,59.19a1.05,1.05,0,0,1-.56.61,1,1,0,0,1-.83,0A41.79,41.79,0,0,1,22.22,48.53a40,40,0,0,1-6.58-11.8,13.5,13.5,0,0,1-7.41-.57A7,7,0,0,1,13,23a18.29,18.29,0,0,1,5-13.11A18.89,18.89,0,0,1,31.76,4h.57a17.84,17.84,0,0,1,2.44.23A18.4,18.4,0,0,1,40.4,6.11a18.64,18.64,0,0,1,9.92,14.15A7,7,0,0,1,59.43,24,6.89,6.89,0,0,1,60,26.72,7,7,0,0,1,55.77,33.16Z"></path><path fill="#305473" d="M55.77,33.16a12.18,12.18,0,0,1-4.49.84c.22,2.11.45,4,.71,5.77a152,152,0,0,0,4,18.84,1,1,0,0,1-.12.81.73.73,0,0,1-.19.2C48,50.83,48,32,48,32c9,2,12-5.28,8-9s-8,1-8,1c.71-9.9-9.58-16.8-15.67-20a17.84,17.84,0,0,1,2.44.23L40.4,6.11a18.64,18.64,0,0,1,9.92,14.15A7,7,0,0,1,59.43,24,6.89,6.89,0,0,1,60,26.72,7,7,0,0,1,55.77,33.16Z"></path><ellipse cx="32" cy="33" fill="#a9d0d9" rx="4" ry="5"></ellipse><path fill="#a9d0d9" d="M44 21a5 5 0 01-5 5H35a1 1 0 01-1-1 7 7 0 017-7A3 3 0 0144 21zM28 26H24a5 5 0 01-5-5 3 3 0 013-3 7 7 0 017 7A1 1 0 0128 26zM48 49a1 1 0 01-1-.74c-.37-1.34-.71-2.7-1-4-.38-1.65-.72-3.35-1-5a1 1 0 112-.34c.28 1.67.62 3.33 1 5 .3 1.31.64 2.64 1 4a1 1 0 01-.7 1.22A.78.78 0 0148 49z"></path></g></svg>