<svg xmlns="http://www.w3.org/2000/svg" xmlns:xlink="http://www.w3.org/1999/xlink" width="16" height="16" id="light"><defs><linearGradient id="b"><stop offset="0" stop-color="#485960"></stop><stop offset="1" stop-color="#3d4e55"></stop></linearGradient><linearGradient id="c"><stop offset="0" stop-color="#fcd635"></stop><stop offset="1" stop-color="#f7a928"></stop></linearGradient><linearGradient id="f" x1="128.2" x2="129.2" y1="1180.362" y2="1180.362" gradientUnits="userSpaceOnUse" xlink:href="#a"></linearGradient><linearGradient id="a"><stop offset="0" stop-color="#cad1d8"></stop><stop offset="1" stop-color="#babdc1"></stop></linearGradient><linearGradient id="g" x1="129.8" x2="130.8" y1="1180.362" y2="1180.362" gradientUnits="userSpaceOnUse" xlink:href="#a"></linearGradient><linearGradient id="h" x1="127.5" x2="131.5" y1="1178.362" y2="1178.362" gradientUnits="userSpaceOnUse" xlink:href="#b"></linearGradient><linearGradient id="e" x1="124.5" x2="134.5" y1="137" y2="137" gradientUnits="userSpaceOnUse" xlink:href="#c"></linearGradient><linearGradient id="i" x1="127" x2="132" y1="1177.862" y2="1177.862" gradientUnits="userSpaceOnUse" xlink:href="#a"></linearGradient><linearGradient id="j" x1="127" x2="132" y1="1178.862" y2="1178.862" gradientUnits="userSpaceOnUse" xlink:href="#a"></linearGradient><linearGradient id="k" x1="127" x2="132" y1="1176.862" y2="1176.862" gradientUnits="userSpaceOnUse" xlink:href="#a"></linearGradient><linearGradient id="l" x1="125.5" x2="130.007" y1="1169.615" y2="1169.615" gradientUnits="userSpaceOnUse" xlink:href="#d"></linearGradient><linearGradient id="d"><stop offset="0" stop-color="#f6a320"></stop><stop offset="1" stop-color="#f47e1f"></stop></linearGradient></defs><g fill-rule="evenodd" color="#000" transform="translate(-121.5 -1164.862)"><path fill="url(#e)" style="isolation:auto;mix-blend-mode:normal;solid-color:#000;solid-opacity:1" d="M129.5 130a5 5 0 0 0-5 5 5 5 0 0 0 3 4.58v3.92c0 .277.223.5.5.5h3c.277 0 .5-.223.5-.5v-3.924a5 5 0 0 0 3-4.576 5 5 0 0 0-5-5z" overflow="visible" transform="translate(0 1036.362)"></path><circle style="isolation:auto;mix-blend-mode:normal;solid-color:#000;solid-opacity:1" cx="128.7" cy="1180.362" r=".5" fill="url(#f)" overflow="visible"></circle><circle cx="130.3" cy="1180.362" r=".5" fill="url(#g)" overflow="visible" style="isolation:auto;mix-blend-mode:normal;solid-color:#000;solid-opacity:1"></circle><rect width="4" height="3" x="127.5" y="1177.362" fill="url(#h)" overflow="visible" rx=".5" ry=".5" style="isolation:auto;mix-blend-mode:normal;solid-color:#000;solid-opacity:1"></rect><rect width="5" height="1" x="127" y="1177.362" fill="url(#i)" style="isolation:auto;mix-blend-mode:normal;solid-color:#000;solid-opacity:1" overflow="visible" rx=".417" ry=".5"></rect><rect width="5" height="1" x="127" y="1178.362" fill="url(#j)" overflow="visible" rx=".417" ry=".5" style="isolation:auto;mix-blend-mode:normal;solid-color:#000;solid-opacity:1"></rect><rect width="5" height="1" x="127" y="1176.362" fill="url(#k)" overflow="visible" rx=".417" ry=".5" style="isolation:auto;mix-blend-mode:normal;solid-color:#000;solid-opacity:1"></rect><path fill="url(#l)" style="line-height:normal;text-indent:0;text-align:start;text-decoration-line:none;text-decoration-style:solid;text-decoration-color:#000;text-transform:none;block-progression:tb;white-space:normal;isolation:auto;mix-blend-mode:normal;solid-color:#000;solid-opacity:1" d="M129.5 1167.361c-2.203 0-4 1.797-4 4a.5.5 0 1 0 1 0c0-1.662 1.337-3 3-3a.5.5 0 1 0 0-1z" font-family="sans-serif" font-weight="400" overflow="visible"></path></g></svg>