<?xml version="1.0" encoding="utf-8"?>
<svg viewBox="0 0 500 500" xmlns="http://www.w3.org/2000/svg">
  <g id="SvgjsG1097" transform="matrix(1, 0, 0, 1, 104.8561019897461, 52.66964340209961)">
    <svg xmlns="http://www.w3.org/2000/svg" viewBox="0 0 50 50" width="288" height="288"/>
  </g>
  <g transform="matrix(4.3441877365112305, 0, 0, 4.138603210449219, 11.188652038574219, 15.329803466796875)" style="">
    <path fill="#F8E1C2" d="M -0.326 113.28 L 107.749 113.28 C 95.955 92.654 26.172 72.088 -0.326 113.28 Z" style=""/>
    <ellipse style="stroke: rgb(255, 220, 0); fill: rgb(255, 255, 91); stroke-width: 4.24389px;" cx="81.722" cy="30.047" rx="27.069" ry="28.414"/>
    <path fill="#84462D" d="M 53.711 37.341 C 52.11 37.277 50.507 37.266 48.905 37.308 C 46.105 39.867 43.542 42.673 41.249 45.695 C 28.263 62.655 22.652 85.497 20.751 95.153 C 28.904 91.425 37.968 89.704 47.122 89.517 C 47.566 75.653 49.055 59.328 53.103 47.904 C 54.331 44.343 55.58 41.8 56.699 39.973 C 55.76 39.033 54.763 38.153 53.711 37.341 Z" style=""/>
    <path fill="#0C7367" d="M 53.711 37.341 C 40.104 36.786 29.115 39.986 19.938 45.779 C 21.812 37.39 27.193 31.056 36.825 27.216 C 26.492 23.973 16.364 26.328 6.428 33.966 C 17.239 14.656 32.112 11.075 50.334 20.466 C 49.153 14.959 43.557 10.595 35.137 6.966 C 48.431 6.302 57.784 9.374 60.466 18.778 C 66.969 13.684 73.769 14.592 80.73 18.778 C 75.446 18.738 70.785 20.522 67.221 25.529 C 80.903 28.489 86.139 38.813 87.484 52.529 C 81.064 45.276 74.443 39.687 67.221 39.029 C 70.408 46.056 69.663 52.74 67.221 59.28 C 64.717 50.366 60.697 42.666 53.711 37.341 Z" style=""/>
    <path fill="#9C6144" d="M 25.646 76.626 C 25.494 77.081 25.35 77.527 25.206 77.976 C 32.294 78.659 44.086 80.772 47.48 81.42 C 47.548 80.289 47.632 79.193 47.7 78.112 C 44.461 77.586 32.522 75.838 25.646 76.626 Z M 29.961 65.328 C 29.8 65.699 29.643 66.068 29.486 66.439 C 34.964 67.545 43.931 69.913 48.343 71.377 C 48.445 70.281 48.58 69.218 48.715 68.188 C 44.192 66.926 35.3 65.098 29.961 65.328 Z M 34.81 55.548 C 34.655 55.825 34.495 56.102 34.34 56.38 C 38.751 57.441 45.648 59.446 49.808 60.984 C 49.994 59.954 50.18 58.959 50.383 58.014 C 46.355 56.79 39.8 55.452 34.81 55.548 Z M 41.249 45.695 C 40.998 46.024 40.756 46.363 40.51 46.697 C 44.267 47.69 49.436 49.074 52.276 50.471 C 52.546 49.56 52.816 48.716 53.103 47.904 C 50.156 46.793 45.167 45.853 41.356 45.56 L 41.249 45.695 Z" style=""/>
    <path fill="#FCF1E2" d="M -0.326 113.28 L 32.036 113.28 L 55.572 89.759 C 34.4 88.147 12.2 93.806 -0.326 113.28 Z" style=""/>
  </g>
</svg>