<svg xmlns="http://www.w3.org/2000/svg" width="32" height="32" id="eye"><path fill="#3ddef0" d="M31.5 16s-6.94 7-15.5 7C7.44 23 .5 16 .5 16S7.44 9 16 9c8.56 0 15.5 7 15.5 7z"></path><path fill="#30a2f2" d="M16 9c-.422 0-.836.03-1.25.062C22.724 9.686 29 16 29 16s-6.276 6.313-14.25 6.937c.414.032.828.062 1.25.062 8.56 0 15.5-7 15.5-7S24.56 9 16 9z"></path><path fill="#f4606e" d="M12.5 22.062c3.345 1.932 7.636.774 9.572-2.58 1.937-3.354.774-7.613-2.573-9.545-3.345-1.93-7.614-.809-9.551 2.546-1.936 3.353-.794 7.648 2.551 9.58z"></path><path fill="#f89963" d="M9.927 12.519c-1.937 3.354-.772 7.612 2.573 9.543a6.992 6.992 0 0 0 6.65.197 6.986 6.986 0 0 1-3.918-.929c-3.345-1.931-4.509-6.19-2.572-9.545a6.99 6.99 0 0 1 2.934-2.765 7.021 7.021 0 0 0-5.667 3.499z"></path><path fill="#fff" d="M9.927 12.519c-1.937 3.354-.772 7.612 2.573 9.543a6.99 6.99 0 0 0 5.993.488 6.988 6.988 0 0 1-4.627-.854c-3.345-1.931-4.509-6.19-2.572-9.545a6.998 6.998 0 0 1 3.589-3.052 7.016 7.016 0 0 0-4.956 3.42z"></path><path fill="#fff" style="line-height:normal;text-indent:0;text-align:start;text-decoration-line:none;text-decoration-style:solid;text-decoration-color:#000;text-transform:none;block-progression:tb;isolation:auto;mix-blend-mode:normal" d="M16 1031.861a4.504 4.504 0 0 1 4.346 3.336.5.5 0 1 1-.965.26 3.497 3.497 0 0 0-3.381-2.596.5.5 0 1 1 0-1z" color="#000" font-family="sans-serif" font-weight="400" overflow="visible" transform="translate(0 -1020.362)"></path><path style="line-height:normal;text-indent:0;text-align:start;text-decoration-line:none;text-decoration-style:solid;text-decoration-color:#000;text-transform:none;block-progression:tb;isolation:auto;mix-blend-mode:normal" d="M15.979 1028.861c-4.144 0-7.479 3.37-7.479 7.5 0 4.132 3.335 7.5 7.479 7.5 3.8 0 6.96-2.827 7.455-6.494a.5.5 0 0 0 .002-.029c.023-.303.043-.616.046-.94a.5.5 0 1 0-1-.011c-.002.283-.019.566-.04.847a6.518 6.518 0 0 1-6.463 5.627 6.47 6.47 0 0 1-6.479-6.5 6.47 6.47 0 0 1 6.479-6.5 6.527 6.527 0 0 1 6.3 4.817.5.5 0 1 0 .965-.26 7.53 7.53 0 0 0-7.265-5.557z" color="#000" font-family="sans-serif" font-weight="400" overflow="visible" transform="translate(0 -1020.362)"></path><path fill="#fff" d="M16 9C7.44 9 .5 16 .5 16s6.94 7 15.5 7c.253 0 .5-.025.75-.037C8.54 22.573 2 16 2 16s6.54-6.572 14.75-6.963C16.5 9.025 16.253 9 16 9z"></path><path style="line-height:normal;text-indent:0;text-align:start;text-decoration-line:none;text-decoration-style:solid;text-decoration-color:#000;text-transform:none;block-progression:tb;isolation:auto;mix-blend-mode:normal" d="M16 1028.861c-8.833 0-15.855 7.149-15.855 7.149a.5.5 0 0 0 0 .705s7.022 7.146 15.855 7.146 15.855-7.146 15.855-7.146a.5.5 0 0 0 0-.705s-7.022-7.149-15.855-7.149zm0 1c7.862 0 14.03 5.869 14.686 6.502-.656.635-6.825 6.498-14.686 6.498s-14.03-5.863-14.686-6.498c.655-.633 6.824-6.502 14.686-6.502z" color="#000" font-family="sans-serif" font-weight="400" overflow="visible" transform="translate(0 -1020.362)"></path></svg>