<?xml version="1.0" encoding="utf-8"?>
<svg viewBox="0 0 500 500" xmlns="http://www.w3.org/2000/svg">
  <g id="SvgjsG1097" transform="matrix(1, 0, 0, 1, 104.8561019897461, 52.66964340209961)">
    <svg xmlns="http://www.w3.org/2000/svg" viewBox="0 0 50 50" width="288" height="288"/>
  </g>
  <g transform="matrix(4.3441877365112305, 0, 0, 4.138603210449219, 11.188652038574446, 15.329803466796875)" style="">
    <ellipse style="fill: rgb(217, 255, 254);" cx="55.868" cy="52.633" rx="53.966" ry="53.185"/>
    <polygon points="51.28 97.277 49.5 100.525 44.181 88.839 38.854 100.525 33.535 86.896 28.208 97.277 22.889 90.789 17.562 97.172 12.236 86.896 6.917 97.277 1.59 88.839 1.59 114.154 108.063 114.154 108.063 88.839 102.736 97.277 97.417 86.896 92.09 97.277 86.771 90.789 81.445 97.277 76.118 86.896 70.799 100.525 65.472 88.839 60.153 100.525 58.372 97.277 54.826 92.731 51.28 97.277" style="fill: rgb(208, 216, 115);"/>
    <path fill="#9a704f" d="M 81.445 40.15 L 101.441 40.15 C 103.26 40.311 104.632 42.044 104.509 44.051 C 104.632 46.049 103.26 47.79 101.441 47.943 L 81.445 47.943 L 81.445 40.15 Z M 28.208 40.15 L 8.219 40.15 C 6.393 40.311 5.02 42.044 5.144 44.051 C 5.02 46.049 6.393 47.79 8.219 47.943 L 28.208 47.943 L 28.208 40.15 Z M 51.28 37.514 L 51.28 51.836 L 58.372 51.836 L 58.372 37.514 C 56.083 38.433 53.57 38.433 51.28 37.514 Z" style=""/>
    <path fill="#896146" d="M 51.28 26.521 L 51.28 37.514 C 53.57 38.433 56.083 38.433 58.372 37.514 L 58.372 26.521 L 51.28 26.521 Z" style=""/>
    <path fill="#cea151" d="M 63.699 16.785 L 63.699 24.57 C 63.699 29.954 59.729 34.314 54.826 34.314 C 49.924 34.314 45.954 29.954 45.954 24.57 L 45.954 16.785 L 63.699 16.785 Z" style=""/>
    <path fill="#66533b" d="M 44.181 8.991 L 44.181 1.205 C 44.397 -1.148 46.285 -2.881 48.436 -2.688 L 61.217 -2.688 C 63.368 -2.881 65.264 -1.148 65.472 1.205 L 65.472 8.991 L 44.181 8.991 Z" style=""/>
    <path fill="#f1d666" d="M 38.854 65.473 L 40.627 51.836 L 28.208 51.836 L 28.208 38.207 L 44.181 36.257 C 44.181 41.633 48.151 45.993 53.053 45.993 L 56.599 45.993 C 61.502 46.001 65.48 41.641 65.472 36.257 L 81.445 38.207 L 81.445 51.836 L 69.026 51.836 L 70.799 65.473 L 38.854 65.473 Z" style=""/>
    <rect width="3.546" height="9.736" x="84.991" y="104.417" fill="#cea151" style=""/>
    <rect width="3.546" height="9.736" x="63.699" y="104.417" fill="#cea151" style=""/>
    <rect width="3.546" height="9.736" x="42.408" y="104.417" fill="#cea151" style=""/>
    <rect width="3.546" height="9.736" x="19.336" y="104.417" fill="#cea151" style=""/>
    <rect width="3.546" height="11.687" x="95.637" y="102.474" fill="#cea151" style=""/>
    <rect width="3.546" height="11.687" x="76.118" y="102.474" fill="#cea151" style=""/>
    <rect width="3.546" height="11.687" x="29.981" y="102.474" fill="#cea151" style=""/>
    <rect width="3.546" height="11.687" x="6.917" y="102.474" fill="#cea151" style=""/>
    <rect width="31.937" height="7.794" x="38.854" y="8.991" fill="#816346" rx="2" style=""/>
    <rect width="3.546" height="7.794" x="24.662" y="40.15" fill="#896146" style=""/>
    <rect width="3.546" height="7.794" x="81.445" y="40.15" fill="#896146" style=""/>
    <rect width="21.291" height="3.893" x="44.181" y="5.098" fill="#564533" style=""/>
    <rect width="17.745" height="3.893" x="45.954" y="16.785" fill="#bc914b" style=""/>
    <polygon fill="#9a704f" points="51.28 83.648 51.28 114.154 58.372 114.154 58.372 83.648 54.826 81.053 51.28 83.648" style=""/>
    <polygon fill="#896146" points="51.28 73.259 51.28 83.648 54.826 81.053 58.372 83.648 58.372 73.259 51.28 73.259" style=""/>
    <polygon fill="#cea151" points="70.036 69.366 39.617 69.366 37.081 79.102 44.181 77.152 49.5 81.053 54.826 77.152 60.153 81.053 65.472 77.152 72.572 79.102 70.036 69.366" style=""/>
    <polygon fill="#bc914b" points="69.026 65.473 40.627 65.473 39.617 69.366 70.036 69.366 69.026 65.473" style=""/>
  </g>
</svg>