<?xml version="1.0" standalone="no"?>
<!DOCTYPE svg PUBLIC "-//W3C//DTD SVG 20010904//EN"
 "http://www.w3.org/TR/2001/REC-SVG-20010904/DTD/svg10.dtd">
<svg version="1.0" xmlns="http://www.w3.org/2000/svg"
 width="732.000000pt" height="732.000000pt" viewBox="0 0 732.000000 732.000000"
 preserveAspectRatio="xMidYMid meet">
<metadata>
Created by potrace 1.14, written by Peter Selinger 2001-2017
</metadata>
<g transform="translate(0.000000,732.000000) scale(0.100000,-0.100000)"
fill="#000000" stroke="none">
<path d="M1962 7283 c-6 -3 -9 -10 -6 -15 5 -7 2 -8 -5 -3 -15 9 -62 -14 -60
-29 3 -27 -2 -38 -16 -32 -8 3 -15 1 -15 -5 0 -6 -4 -7 -10 -4 -5 3 -10 2 -10
-2 0 -5 -16 -7 -35 -5 -21 3 -35 0 -35 -7 0 -6 -3 -10 -7 -10 -14 3 -73 -25
-73 -34 0 -4 -4 -6 -9 -3 -5 3 -12 -1 -15 -10 -3 -8 -10 -13 -15 -10 -5 3 -12
-1 -15 -10 -4 -9 -9 -14 -12 -11 -4 3 -22 -10 -40 -30 -19 -20 -34 -33 -34
-30 0 3 -12 -6 -27 -20 -16 -14 -27 -29 -25 -34 1 -5 -4 -8 -10 -7 -7 2 -11
-4 -10 -12 2 -8 1 -12 -3 -8 -9 8 -45 -23 -39 -34 3 -4 -2 -8 -10 -8 -9 0 -16
-4 -16 -9 0 -4 -10 -19 -22 -33 -13 -13 -30 -37 -38 -54 -8 -16 -22 -36 -30
-44 -8 -8 -16 -22 -18 -30 -2 -8 -12 -23 -23 -33 -10 -10 -19 -22 -19 -28 0
-6 -4 -7 -10 -4 -5 3 -7 0 -4 -8 3 -8 -2 -21 -10 -30 -8 -8 -12 -17 -9 -21 4
-3 1 -6 -5 -6 -7 0 -12 -7 -12 -15 0 -8 -5 -15 -11 -15 -5 0 -8 -4 -5 -9 3 -5
-1 -14 -9 -21 -8 -7 -12 -16 -10 -21 3 -4 -3 -12 -12 -18 -14 -8 -14 -10 -3
-11 10 0 7 -5 -8 -16 -12 -8 -22 -23 -22 -33 0 -11 -7 -21 -15 -25 -8 -3 -12
-12 -9 -20 3 -8 0 -17 -5 -21 -6 -3 -9 -11 -6 -16 4 -5 1 -9 -4 -9 -6 0 -10
-3 -10 -7 3 -21 -2 -33 -12 -27 -7 4 -9 0 -5 -14 4 -12 1 -26 -9 -36 -10 -9
-12 -16 -5 -16 7 0 5 -7 -4 -16 -9 -8 -14 -20 -11 -25 4 -5 1 -9 -5 -9 -6 0
-8 -5 -5 -10 3 -6 -1 -13 -9 -16 -9 -3 -13 -10 -10 -15 3 -5 0 -9 -5 -9 -6 0
-11 -9 -11 -20 0 -11 -4 -20 -10 -20 -5 0 -10 -7 -10 -15 0 -8 -4 -15 -9 -15
-5 0 -8 -11 -7 -25 2 -13 -2 -23 -8 -22 -6 1 -10 -6 -10 -15 1 -10 -2 -18 -8
-18 -5 0 -6 -4 -3 -10 3 -5 3 -10 -2 -10 -11 0 -34 -51 -27 -61 3 -5 0 -9 -6
-9 -6 0 -9 -4 -5 -9 3 -5 1 -12 -5 -16 -5 -3 -10 -15 -10 -26 0 -10 -5 -19
-11 -19 -5 0 -8 -4 -5 -8 3 -5 -1 -20 -9 -35 -10 -19 -10 -27 -2 -31 9 -3 8
-5 0 -5 -7 -1 -13 -10 -13 -20 0 -11 -4 -21 -10 -23 -5 -1 -10 -20 -12 -40 -1
-21 -5 -38 -8 -38 -3 0 -7 -10 -8 -22 -5 -38 -9 -63 -12 -63 -3 0 -10 -54 -11
-78 0 -9 -5 -15 -11 -11 -6 4 -5 -3 2 -16 7 -12 8 -25 4 -29 -14 -10 -14 -92
-1 -84 9 5 9 3 1 -8 -15 -20 -16 -109 -1 -109 8 0 8 -3 2 -8 -17 -12 -13 -52
4 -52 12 0 13 -2 3 -9 -10 -6 -8 -15 12 -38 14 -17 26 -38 26 -47 0 -9 3 -15
8 -14 4 2 8 -1 9 -5 1 -5 10 -15 20 -23 10 -7 14 -14 9 -14 -4 0 6 -13 23 -29
16 -15 27 -31 24 -35 -3 -3 -1 -6 6 -6 7 0 9 -4 6 -10 -3 -5 1 -10 10 -10 9 0
13 -5 10 -10 -3 -6 1 -13 9 -16 9 -3 14 -10 11 -14 -3 -4 2 -11 11 -14 8 -3
12 -10 9 -16 -3 -5 1 -10 9 -10 8 0 18 -9 21 -20 3 -11 11 -20 17 -20 6 0 9
-2 6 -5 -5 -5 22 -42 65 -86 9 -11 17 -22 17 -26 0 -5 18 -24 40 -43 22 -19
40 -39 40 -43 0 -13 27 -37 34 -30 3 4 6 -4 6 -16 0 -12 4 -19 10 -16 6 3 10
1 10 -5 0 -18 127 -140 147 -140 14 0 15 -2 5 -9 -11 -7 -10 -9 3 -15 9 -3 13
-11 9 -17 -4 -7 -3 -9 3 -6 5 3 15 -3 23 -13 8 -10 18 -16 23 -13 6 3 7 2 4
-3 -7 -12 48 -76 57 -67 3 3 6 -1 6 -11 0 -9 5 -14 10 -11 5 3 10 -1 10 -9 0
-9 7 -16 15 -16 9 0 19 -8 22 -17 9 -23 43 -57 66 -66 9 -3 17 -11 17 -17 0
-14 46 -60 60 -60 6 0 8 -4 5 -10 -3 -5 -2 -10 4 -10 12 0 151 -138 151 -150
0 -6 7 -10 16 -10 8 0 12 -4 9 -10 -3 -5 1 -10 10 -10 9 0 14 -4 10 -9 -3 -5
3 -12 13 -15 10 -4 25 -17 32 -31 7 -13 17 -22 22 -19 4 3 8 0 8 -6 0 -6 5 -8
12 -4 6 4 8 3 5 -3 -4 -6 2 -20 12 -32 14 -16 21 -18 24 -9 4 9 6 8 6 -3 1 -9
8 -20 17 -23 8 -3 12 -10 9 -16 -6 -9 8 -14 28 -11 5 1 7 -2 4 -6 -5 -10 29
-43 37 -35 3 3 6 0 6 -7 0 -17 55 -71 72 -71 10 0 9 -3 -2 -10 -13 -8 -12 -10
2 -10 10 0 31 -13 46 -30 16 -16 33 -30 37 -30 5 0 18 -9 29 -19 12 -11 28
-21 36 -23 8 -2 21 -9 28 -16 8 -7 18 -10 23 -7 5 4 9 -1 9 -9 0 -9 7 -13 20
-11 11 2 20 0 20 -6 0 -5 6 -9 14 -9 8 0 16 -5 18 -10 2 -6 13 -12 26 -13 12
0 22 -5 22 -9 0 -4 9 -8 20 -8 11 0 20 -4 20 -10 0 -5 9 -10 20 -10 11 0 20
-4 20 -10 0 -5 9 -10 20 -10 11 0 20 -5 20 -11 0 -6 7 -8 16 -5 8 3 12 2 9 -4
-3 -5 7 -12 22 -16 15 -4 30 -11 33 -15 3 -4 12 -9 20 -11 8 -2 22 -11 31 -21
9 -9 31 -22 48 -28 17 -6 28 -15 25 -20 -3 -5 2 -6 10 -3 9 4 18 -1 22 -10 3
-9 12 -16 18 -16 7 0 22 -9 33 -19 12 -11 24 -17 27 -14 3 4 6 1 6 -6 0 -7 4
-10 8 -7 5 3 15 -4 22 -15 8 -10 23 -19 34 -19 11 0 16 -3 13 -6 -3 -4 13 -20
36 -37 23 -17 53 -41 66 -53 13 -13 28 -21 34 -17 6 4 8 0 4 -11 -4 -10 -3
-15 3 -11 6 3 13 -1 16 -9 3 -9 15 -16 25 -16 10 0 18 -3 17 -7 -2 -5 10 -20
25 -35 15 -15 27 -25 27 -21 0 3 13 -9 29 -26 15 -16 31 -27 35 -24 3 3 6 -1
6 -10 0 -8 9 -19 20 -22 11 -3 20 -11 20 -16 0 -6 5 -7 10 -4 6 4 9 1 8 -7 -2
-7 3 -12 11 -10 12 3 12 1 0 -14 -9 -12 -9 -15 -1 -10 7 4 12 2 12 -6 0 -9 3
-9 10 2 9 13 10 13 10 0 0 -8 14 -26 30 -40 17 -14 30 -29 30 -35 0 -6 14 -19
30 -28 17 -10 30 -25 30 -33 0 -13 12 -18 32 -15 5 0 7 -3 5 -8 -1 -4 16 -26
38 -49 56 -57 65 -69 57 -78 -4 -4 -2 -4 5 0 6 3 14 2 18 -4 4 -6 10 -8 15 -5
5 3 7 -4 5 -16 -2 -12 -2 -19 1 -16 8 8 44 -31 44 -48 0 -8 8 -15 17 -15 9 0
14 -3 10 -6 -9 -9 25 -44 37 -37 6 3 8 3 4 -1 -9 -10 29 -57 70 -85 12 -8 18
-19 15 -25 -4 -5 1 -7 11 -3 10 4 15 3 11 -3 -3 -5 10 -25 30 -44 19 -19 35
-40 35 -48 0 -10 3 -9 10 2 7 11 10 12 10 2 0 -17 26 -43 34 -35 3 4 6 1 6 -6
0 -17 26 -42 35 -33 4 4 5 2 3 -4 -3 -12 177 -194 193 -194 5 0 8 -4 6 -8 -2
-10 90 -101 98 -95 3 1 3 0 0 -3 -2 -4 0 -15 5 -25 7 -12 7 -20 0 -24 -5 -3
-10 -1 -10 5 0 6 -5 8 -11 4 -6 -3 -15 0 -20 7 -7 11 -9 11 -9 1 0 -9 -5 -10
-17 -4 -10 5 -24 7 -30 5 -7 -3 -13 1 -13 9 0 11 -2 11 -9 0 -10 -17 -21 -17
-30 -3 -4 6 -19 12 -34 13 -15 1 -27 5 -27 8 0 3 -28 5 -63 5 -34 0 -68 4 -74
9 -8 5 -13 5 -13 0 0 -5 -78 -9 -173 -8 -107 0 -177 -4 -186 -10 -11 -8 -13
-8 -7 1 9 16 -35 13 -46 -2 -5 -7 -8 -6 -8 0 0 11 -79 13 -96 3 -5 -4 -16 -3
-24 2 -8 5 -22 5 -32 -1 -10 -5 -18 -6 -18 -1 0 11 -53 9 -62 -3 -5 -6 -8 -5
-8 4 0 11 -3 11 -15 1 -11 -9 -15 -9 -15 -1 0 7 -5 9 -11 6 -18 -12 -59 -13
-59 -1 0 6 -4 5 -9 -3 -6 -9 -10 -10 -16 -2 -5 9 -10 9 -21 0 -11 -9 -14 -9
-14 1 0 9 -4 9 -17 -1 -13 -11 -17 -11 -21 -1 -3 10 -7 10 -18 1 -10 -8 -18
-9 -27 0 -8 6 -17 7 -21 3 -11 -10 -30 -9 -38 3 -5 7 -8 6 -8 -1 0 -7 -15 -10
-40 -9 -22 2 -40 0 -40 -5 0 -4 -11 -5 -24 -3 -13 3 -27 0 -31 -7 -5 -8 -10
-8 -21 1 -11 9 -14 8 -15 -7 0 -11 -3 -14 -6 -6 -2 6 -9 9 -14 6 -5 -3 -40 -7
-78 -8 -37 -2 -73 -6 -79 -10 -7 -4 -12 -2 -12 5 0 8 -4 8 -15 -1 -12 -10 -15
-10 -15 1 0 9 -3 10 -8 4 -10 -14 -32 -17 -32 -4 0 8 -4 9 -13 0 -8 -6 -17 -8
-20 -4 -4 3 -14 0 -24 -8 -10 -9 -14 -9 -9 -2 5 9 -4 11 -36 8 -24 -2 -63 -5
-88 -6 -25 -2 -48 -8 -52 -14 -6 -7 -11 -5 -17 4 -5 8 -11 9 -15 3 -3 -6 -17
-9 -31 -7 -14 1 -25 -1 -25 -6 0 -4 -9 -6 -20 -4 -11 2 -20 -2 -20 -8 0 -7 -4
-6 -10 3 -7 12 -10 12 -10 1 0 -7 -6 -11 -15 -8 -8 4 -17 2 -20 -3 -3 -5 -13
-6 -22 -3 -11 5 -14 3 -8 -6 6 -10 3 -11 -13 -2 -15 8 -23 7 -32 -4 -7 -8 -16
-12 -22 -9 -5 3 -14 1 -21 -4 -7 -5 -24 -9 -39 -8 -14 1 -26 -3 -25 -9 1 -5
-4 -9 -10 -8 -7 2 -13 -1 -13 -7 0 -5 -6 -7 -14 -4 -8 3 -17 0 -21 -5 -3 -6
-11 -9 -16 -6 -5 4 -9 2 -9 -3 0 -6 -8 -9 -17 -8 -10 0 -17 -4 -16 -11 2 -7
-4 -10 -12 -7 -9 4 -22 1 -30 -6 -8 -6 -19 -9 -25 -5 -5 3 -10 1 -10 -5 0 -6
-11 -15 -25 -20 -14 -5 -25 -14 -25 -20 0 -6 -4 -9 -9 -6 -12 8 -33 -19 -23
-29 4 -5 2 -5 -4 -2 -15 8 -56 -22 -48 -35 4 -7 2 -8 -4 -4 -7 4 -12 2 -12 -3
0 -6 -3 -10 -7 -10 -20 3 -34 -2 -29 -10 7 -11 -22 -23 -36 -14 -7 3 -8 1 -4
-5 8 -13 -28 -35 -39 -24 -5 4 -5 2 -1 -5 4 -8 -2 -15 -19 -19 -13 -3 -23 -9
-21 -13 2 -3 -2 -12 -10 -19 -8 -7 -14 -10 -14 -7 0 3 -12 -6 -27 -20 -16 -14
-36 -33 -46 -43 -11 -9 -23 -16 -29 -14 -5 1 -7 -2 -4 -7 4 -5 -6 -21 -21 -35
-15 -14 -24 -26 -19 -26 5 0 -1 -9 -14 -20 -13 -11 -19 -20 -14 -20 5 0 1 -5
-9 -11 -9 -6 -15 -14 -12 -20 4 -5 1 -9 -5 -9 -6 0 -8 -4 -5 -10 3 -5 2 -10
-4 -10 -6 0 -13 -11 -17 -25 -3 -14 -10 -25 -15 -25 -5 0 -9 -5 -9 -11 0 -7
-8 -18 -17 -25 -17 -13 -17 -14 2 -8 20 6 20 5 1 -10 -11 -9 -16 -16 -12 -16
5 0 3 -7 -4 -15 -9 -11 -10 -15 -1 -15 9 0 8 -4 -2 -14 -7 -8 -13 -25 -12 -38
1 -12 -3 -26 -9 -30 -8 -6 -6 -11 4 -18 12 -8 12 -10 1 -10 -10 0 -11 -3 -2
-14 8 -10 9 -16 1 -21 -6 -3 -9 -19 -7 -33 3 -15 -1 -33 -7 -41 -9 -12 -8 -13
3 -6 11 6 13 2 7 -19 -4 -15 -3 -32 1 -39 4 -6 8 -23 10 -37 7 -61 10 -74 21
-78 7 -2 9 -8 6 -13 -3 -6 0 -16 6 -24 7 -8 9 -15 4 -15 -4 0 1 -7 12 -15 15
-11 16 -15 4 -15 -9 0 -5 -6 10 -15 14 -7 24 -16 23 -19 -7 -14 -2 -27 7 -21
5 3 10 1 10 -5 0 -16 47 -60 56 -52 4 4 4 -1 1 -11 -4 -11 -3 -16 3 -12 6 3
10 1 10 -4 0 -6 6 -11 14 -11 8 0 22 -10 30 -22 9 -12 16 -19 16 -15 0 4 18
-2 40 -13 23 -11 45 -18 50 -15 6 4 13 -1 16 -10 4 -10 14 -15 25 -12 13 4 19
0 19 -11 0 -10 3 -13 8 -7 9 13 45 12 63 0 8 -6 42 -10 76 -10 35 0 63 -2 63
-5 0 -3 20 -5 44 -6 25 0 42 4 39 9 -3 5 4 4 15 -2 27 -14 45 -14 36 0 -5 8
-1 8 14 0 14 -7 23 -8 27 -1 4 6 12 7 18 3 17 -11 29 -11 51 0 13 6 16 6 12
-2 -10 -15 7 -14 22 1 9 9 12 9 12 -1 0 -7 5 -9 12 -5 19 12 48 12 48 1 0 -5
5 -5 13 1 8 7 18 7 27 2 8 -5 19 -6 25 -2 19 12 47 13 39 1 -4 -8 -1 -8 12 -2
11 5 61 9 111 9 51 -1 93 1 93 4 0 3 30 4 67 4 38 -1 76 3 87 8 11 6 16 6 13
1 -4 -6 15 -9 43 -9 28 1 50 5 50 9 0 5 6 5 12 0 18 -11 52 -10 60 2 5 6 8 5
8 -2 0 -9 7 -10 23 -4 13 5 30 6 38 2 12 -7 35 -7 42 -1 9 8 87 8 92 0 3 -5
12 -10 18 -10 7 0 6 4 -3 9 -9 6 17 9 73 8 52 -1 87 2 87 8 0 6 5 3 10 -5 5
-8 10 -10 10 -4 0 6 16 9 40 7 27 -2 40 1 40 10 0 7 3 8 8 2 8 -12 76 -19 68
-7 -2 4 4 8 15 8 10 0 19 -4 19 -8 0 -9 43 -4 60 7 5 3 10 1 10 -6 0 -7 4 -8
13 -2 13 10 54 10 64 -1 4 -3 15 2 26 11 11 10 17 12 13 6 -5 -9 0 -13 14 -13
12 0 18 4 15 10 -3 5 0 7 9 4 23 -9 105 -11 118 -3 7 4 18 3 25 -3 9 -7 13 -7
13 2 0 10 3 10 15 0 11 -9 15 -9 15 -1 0 9 5 9 20 1 15 -8 20 -8 20 2 0 9 3 9
10 -2 7 -11 10 -11 10 -2 0 10 5 10 20 2 15 -8 20 -8 20 1 0 8 4 8 15 -1 8 -7
15 -8 15 -3 0 6 12 9 27 7 15 -1 31 3 35 9 6 9 8 9 8 1 0 -12 61 -11 82 2 6 4
8 3 5 -3 -7 -11 22 -11 41 1 7 4 12 2 12 -6 0 -10 3 -9 9 1 8 13 12 13 27 0
10 -8 15 -9 11 -2 -5 8 6 11 43 10 28 -1 50 2 50 8 0 6 5 3 10 -5 7 -11 10
-11 10 -2 0 10 5 10 20 2 15 -8 20 -8 20 2 0 10 2 10 9 -1 6 -10 10 -10 16 -1
6 9 10 9 16 -1 5 -9 9 -9 9 -3 0 7 17 11 45 9 27 -1 45 2 45 9 0 6 4 5 9 -3 7
-10 13 -11 31 -1 16 8 25 9 33 1 8 -8 16 -6 31 7 11 9 16 12 13 6 -4 -7 0 -15
9 -18 9 -3 12 -2 9 4 -4 7 10 9 39 7 25 -2 46 -1 46 3 0 3 19 5 43 4 23 0 48
4 55 9 8 6 12 5 12 -3 0 -8 4 -9 13 -3 6 5 27 9 45 8 17 0 32 2 32 5 0 3 22 5
50 4 29 0 50 4 50 10 0 6 4 5 9 -3 5 -7 11 -9 14 -4 3 5 22 9 42 8 19 0 35 2
35 5 0 3 14 5 30 4 17 -1 30 1 30 5 0 4 16 7 35 6 19 -1 35 1 35 4 0 4 15 6
33 6 17 -1 36 1 42 3 5 3 21 7 35 9 43 5 55 8 69 17 10 6 12 5 7 -2 -4 -7 -2
-12 3 -12 6 0 11 5 11 11 0 5 4 8 9 4 5 -3 12 -1 16 5 4 6 10 8 15 5 5 -3 25
4 44 15 20 11 36 17 36 13 0 -3 9 6 21 21 14 17 18 33 14 47 -5 16 -4 19 5 14
10 -6 10 -3 2 11 -6 11 -7 27 -1 41 5 13 4 25 -2 28 -5 4 -7 11 -4 16 4 5 1 9
-6 9 -8 0 -7 5 2 17 10 11 10 14 2 9 -9 -5 -13 -1 -13 13 0 11 -5 23 -10 26
-8 5 -8 11 0 20 7 9 6 16 -5 25 -9 7 -14 19 -11 27 3 7 1 13 -3 13 -5 0 -8 8
-6 18 1 9 -3 23 -9 31 -9 12 -8 13 3 7 10 -7 12 -4 7 12 -4 11 -2 23 4 27 6 3
8 11 5 16 -4 5 2 9 12 9 15 0 16 2 3 10 -11 7 -11 10 -2 10 7 0 10 4 7 10 -6
9 8 14 28 11 5 -1 6 3 3 8 -4 5 -1 13 5 16 5 4 8 14 5 22 -3 8 -1 11 5 8 5 -4
16 -1 24 5 8 7 15 9 15 5 0 -4 12 0 26 10 15 9 23 12 20 6 -4 -6 -2 -11 3 -11
6 0 11 4 11 9 0 8 32 22 55 25 6 1 13 5 17 10 3 5 12 11 20 12 29 4 43 9 48
16 3 4 15 9 25 12 43 9 65 19 60 26 -3 5 6 7 19 6 14 -2 27 3 30 10 3 8 15 14
26 14 11 0 20 5 20 11 0 5 5 7 10 4 6 -3 10 -1 10 5 0 6 4 9 9 5 5 -3 13 4 16
16 4 11 9 18 12 16 6 -7 43 30 43 43 0 6 7 10 16 10 8 0 13 4 10 9 -3 5 4 11
17 15 18 5 20 8 7 16 -13 8 -12 10 3 10 11 0 15 4 11 12 -5 7 -2 9 9 5 11 -4
18 1 22 14 4 11 9 18 12 15 3 -3 17 6 30 20 12 14 23 23 23 20 0 -3 9 2 19 11
11 9 17 21 14 26 -3 6 -1 7 5 3 6 -3 16 3 22 14 6 11 15 18 20 15 6 -3 7 1 4
9 -4 10 -1 16 7 16 7 0 9 3 6 7 -4 3 1 12 11 20 9 8 12 12 6 9 -6 -3 1 19 17
50 16 30 25 52 19 49 -6 -3 -7 1 -4 9 3 9 10 16 16 16 5 0 6 5 3 10 -3 6 -1
10 6 10 8 0 8 4 -1 15 -9 10 -9 15 -1 15 6 0 11 12 11 26 0 14 4 23 8 20 4 -2
8 5 9 17 0 31 6 51 18 59 6 5 5 8 -4 8 -11 0 -11 3 -1 15 6 8 9 19 5 25 -3 5
0 10 7 10 9 0 9 3 -2 10 -12 7 -12 10 -1 10 9 0 11 8 7 26 -6 23 -4 26 11 20
16 -5 16 -4 -1 9 -12 9 -15 15 -7 15 8 0 11 8 8 20 -3 11 -2 20 2 20 9 0 7 42
-3 58 -4 7 -2 12 5 12 10 0 10 3 2 11 -6 6 -9 18 -6 27 4 8 2 13 -3 10 -5 -4
-10 6 -10 20 -3 48 -8 72 -16 72 -4 0 -8 6 -8 14 0 7 -10 26 -22 42 -13 15
-16 24 -8 20 8 -5 6 1 -5 12 -33 35 -45 51 -45 60 0 5 -18 28 -40 51 -22 22
-40 48 -40 57 0 8 -4 12 -10 9 -6 -3 -10 -2 -10 3 0 4 -8 17 -19 28 -10 11
-24 30 -30 42 -7 13 -15 20 -20 18 -4 -3 -8 5 -8 17 -2 30 -7 49 -17 66 -6 9
-5 12 1 8 6 -4 6 7 -1 28 -6 19 -15 35 -19 35 -5 0 -5 5 -2 10 3 6 1 10 -6 10
-7 0 -9 3 -6 7 4 3 1 13 -6 21 -10 13 -9 14 1 8 11 -7 11 -4 1 12 -7 12 -17
18 -21 16 -5 -3 -8 -2 -7 3 5 31 -40 101 -55 85 -4 -4 -7 -2 -6 3 5 23 -1 46
-10 40 -5 -3 -10 -1 -10 4 0 10 -19 36 -47 66 -7 8 -13 17 -13 21 0 3 -8 14
-18 23 -9 9 -23 28 -31 43 -8 16 -17 26 -19 23 -5 -5 -28 23 -31 37 -1 4 -17
23 -36 43 -20 19 -33 35 -29 35 4 0 -3 8 -14 19 -12 10 -22 23 -22 30 0 6 -5
11 -10 11 -6 0 -15 11 -22 25 -6 13 -15 22 -19 19 -5 -3 -9 2 -9 10 0 9 -5 16
-11 16 -5 0 -7 5 -4 10 3 5 -2 10 -11 10 -10 0 -14 3 -11 6 4 4 -3 15 -15 25
-11 11 -17 19 -13 19 4 0 -2 8 -13 19 -12 10 -22 24 -22 30 0 7 -4 9 -10 6 -6
-3 -10 0 -10 8 0 7 -9 23 -20 35 -11 12 -20 26 -20 32 0 6 -4 8 -10 5 -5 -3
-10 1 -10 9 0 9 -4 16 -10 16 -5 0 -10 7 -10 15 0 8 -5 14 -12 12 -7 -1 -13 5
-13 13 0 8 -6 14 -12 13 -7 -2 -15 7 -19 20 -4 12 -18 32 -31 45 -13 12 -21
22 -17 22 3 0 -8 14 -26 30 -18 17 -29 30 -26 30 4 0 -9 16 -29 35 -19 20 -35
40 -35 45 0 6 -4 10 -10 10 -5 0 -10 7 -10 16 0 8 -4 12 -10 9 -5 -3 -10 1
-10 10 0 9 -4 13 -10 10 -5 -3 -10 1 -10 10 0 8 -7 18 -16 22 -8 3 -20 17 -25
30 -6 16 -15 23 -24 19 -8 -3 -14 -2 -14 2 3 20 -2 33 -11 27 -5 -3 -10 1 -10
9 0 9 -4 16 -10 16 -13 0 -59 48 -52 54 3 3 -2 6 -12 6 -9 0 -15 4 -11 9 3 5
-4 12 -15 16 -11 3 -20 13 -20 21 0 8 -5 14 -11 14 -5 0 -7 5 -4 10 3 6 -1 10
-10 10 -9 0 -13 5 -10 10 3 6 -1 10 -9 10 -9 0 -15 3 -13 8 1 4 -7 17 -18 29
-11 12 -26 29 -33 38 -7 8 -17 13 -22 10 -6 -3 -7 1 -4 9 4 11 0 16 -10 16 -9
0 -16 7 -16 15 0 8 -5 15 -11 15 -5 0 -7 5 -4 10 3 6 -1 10 -10 10 -9 0 -14 4
-11 8 3 5 -4 14 -14 22 -10 8 -17 17 -14 22 3 4 -2 8 -10 8 -14 0 -20 12 -17
33 0 4 -4 7 -10 7 -11 0 -38 24 -42 37 -1 4 -5 7 -9 6 -5 -2 -8 2 -8 8 0 14
-26 39 -41 39 -7 0 -10 3 -6 6 7 8 -47 64 -62 64 -6 0 -11 5 -11 10 0 6 -7 10
-16 10 -8 0 -12 5 -9 10 3 6 -3 10 -14 10 -12 0 -20 3 -19 8 2 7 -41 57 -110
128 -18 19 -30 34 -27 34 3 0 -10 15 -30 34 -19 19 -35 39 -35 45 0 6 -7 11
-17 11 -9 0 -13 3 -10 6 4 4 -3 15 -15 25 -11 11 -18 19 -15 19 3 0 -4 11 -16
23 -57 61 -85 96 -79 101 3 3 -2 6 -11 6 -11 0 -17 8 -17 23 0 18 -2 19 -10 7
-8 -13 -10 -12 -10 3 0 9 -4 17 -10 17 -5 0 -10 7 -10 16 0 8 -4 12 -10 9 -5
-3 -10 -1 -10 4 0 6 -8 20 -17 30 -34 37 -48 56 -45 59 2 2 -11 16 -28 32 -16
15 -30 35 -30 44 0 9 -6 15 -12 14 -7 -2 -13 4 -13 12 0 8 -8 18 -17 22 -10 4
-18 17 -18 28 0 11 -5 20 -12 20 -6 0 -9 3 -6 6 3 3 -5 16 -19 30 -13 13 -21
29 -17 36 4 6 3 8 -3 5 -10 -6 -35 18 -46 46 -3 9 -11 17 -17 17 -6 0 -8 5 -5
10 3 6 0 10 -8 10 -8 0 -22 11 -31 24 -8 14 -25 27 -36 31 -11 3 -20 12 -20
20 0 8 -8 16 -18 19 -9 3 -23 15 -30 27 -11 17 -11 20 0 13 7 -4 6 1 -3 12 -9
10 -20 29 -24 42 -3 12 -11 20 -16 17 -5 -4 -9 1 -9 11 0 9 -10 25 -22 35 -11
11 -18 19 -15 19 4 0 -1 9 -10 19 -9 11 -20 18 -24 15 -4 -2 -6 5 -4 16 2 11
0 18 -6 15 -5 -4 -9 1 -9 9 0 9 -7 16 -16 16 -8 0 -13 4 -10 8 3 5 -6 15 -19
22 -14 7 -25 19 -25 26 0 7 -12 22 -26 33 -15 12 -23 21 -19 21 4 0 -7 13 -24
29 -16 15 -27 31 -24 35 3 3 -2 6 -12 6 -10 0 -16 3 -12 6 7 7 -41 54 -55 54
-5 0 -7 4 -3 9 3 6 -4 15 -15 21 -11 6 -18 14 -16 19 3 4 -8 15 -25 25 -16 9
-29 22 -29 27 0 14 -26 39 -40 39 -6 0 -8 5 -5 10 3 6 -1 10 -10 10 -9 0 -13
5 -10 10 3 6 -1 13 -9 16 -9 3 -13 10 -10 15 3 5 2 9 -3 8 -20 -3 -34 2 -28
11 3 6 -1 13 -9 16 -9 3 -16 12 -16 20 0 8 -3 13 -7 13 -20 -3 -33 2 -33 12 0
19 -33 38 -67 39 -29 0 -36 6 -58 50 -15 30 -32 50 -42 50 -9 0 -13 3 -10 7 4
3 -1 12 -11 20 -11 10 -12 12 -2 8 8 -4 4 3 -9 14 -13 12 -19 21 -15 21 5 1
-2 10 -15 20 -13 11 -20 20 -17 20 4 0 -18 25 -49 55 -30 30 -60 55 -66 55 -7
0 -10 3 -7 6 9 8 -53 65 -64 58 -4 -3 -8 -2 -7 3 1 4 1 15 0 23 -1 13 -2 13
-11 0 -8 -13 -10 -12 -10 3 0 10 -4 16 -9 12 -5 -3 -12 3 -16 14 -3 10 -15 21
-26 24 -12 3 -18 10 -15 15 6 9 -21 27 -36 24 -4 -1 -10 7 -13 18 -4 11 -12
20 -18 20 -7 0 -18 9 -25 20 -7 11 -19 20 -28 20 -9 0 -12 5 -8 12 5 8 2 9
-10 5 -9 -4 -15 -3 -12 1 5 9 -29 42 -43 42 -6 0 -13 9 -16 20 -3 11 -13 20
-21 20 -8 0 -17 7 -20 15 -4 8 -10 12 -15 9 -5 -3 -9 -1 -9 5 0 5 -9 13 -20
16 -11 3 -20 13 -20 21 0 8 -4 13 -9 9 -5 -3 -16 3 -23 14 -8 11 -26 25 -41
32 -15 7 -27 15 -27 19 0 8 -39 23 -52 21 -5 -1 -8 4 -8 10 0 5 -4 7 -10 4 -5
-3 -10 1 -10 9 0 9 -7 13 -20 11 -11 -2 -20 1 -20 6 0 6 -4 8 -9 5 -5 -4 -12
0 -14 6 -4 10 -6 10 -6 0 -1 -8 -6 -10 -13 -5 -16 9 -30 11 -46 6z"/>
</g>
</svg>
