<svg xmlns="http://www.w3.org/2000/svg" viewBox="0 0 64 64" id="night"><path fill="#63a7c9" d="M40.24,31.35A8.28,8.28,0,0,1,32,39.63H8.82a5.42,5.42,0,0,1-.68-10.79,3.63,3.63,0,0,1,3.63-3.43,3.58,3.58,0,0,1,1,.15,8.78,8.78,0,0,1,15.86-1.8,8.28,8.28,0,0,1,11.57,7.59Z"></path><path fill="#89cbe5" d="M40.24,31.35c0,.19,0,.38,0,.57l-.4-.68C33.5,22,24.09,29.57,24.09,29.57a9.12,9.12,0,0,1,2.11-4.71c-5.3-5.95-12.56-1.12-12.56-1.12a8.79,8.79,0,0,1,15,0,8.28,8.28,0,0,1,11.57,7.59Z"></path><path fill="#008bc1" d="M15.14,39.63H8.82a5.42,5.42,0,0,1-2-10.45C7,32.43,8.44,37.15,15.14,39.63Z"></path><path fill="#e0e0e0" d="M41.09,8.11a12.73,12.73,0,0,0,9.46,21.26,12.81,12.81,0,0,0,2-.15A12.74,12.74,0,1,1,41.09,8.11Z"></path><path fill="#afb1b2" d="M30.32,20.7A12.75,12.75,0,0,0,48.47,32.24,12.74,12.74,0,0,1,40.83,8.15,12.75,12.75,0,0,0,30.32,20.7Z"></path><path fill="#63a7c9" d="M60.59,44.9a11,11,0,0,1-11,11H18.88A7.19,7.19,0,0,1,18,41.57a4.83,4.83,0,0,1,6.2-4.37,11.66,11.66,0,0,1,21.06-2.39A11,11,0,0,1,60.59,44.9Z"></path><path fill="#89cbe5" d="M60.59,44.9c0,.25,0,.51,0,.75L60,44.74c-8.4-12.27-20.89-2.2-20.89-2.2A12.13,12.13,0,0,1,42,36.28c-7-7.9-16.67-1.49-16.67-1.49a11.66,11.66,0,0,1,19.95,0A11,11,0,0,1,60.59,44.9Z"></path><path fill="#008bc1" d="M27.26,55.89H18.88A7.19,7.19,0,0,1,16.21,42C16.41,46.34,18.37,52.6,27.26,55.89Z"></path></svg>