<svg xmlns="http://www.w3.org/2000/svg" enable-background="new 0 0 96 96" viewBox="0 0 96 96"><path fill="#202b37" fill-rule="evenodd" d="M75,30c0,0-9,0-12,0c-12,0-9,3-15,3s-3-3-15-3c-3,0-12,0-12,0C3,30,0,30,0,33v3c0,3,2.1,0.9,3,6
	c3,18,6,21,21,21c1.7,0,2.6,0,3,0c0,0,12,0,15-9c3.9-11.7,1.7-12,6-12s2.1,0.3,6,12c3,9,15,9,15,9c0.4,0,1.3,0,3,0c15,0,18-3,21-21
	c0.9-5.1,3-3,3-6v-3C96,30,93,30,75,30z M20.1,56.6c-0.5,0.7-1.4,0.9-2.1,0.4l0,0c-9-6-9-19.5-9-19.5l0,0l0,0c0-0.8,0.7-1.5,1.5-1.5
	s1.5,0.7,1.5,1.5l0,0l0,0c-0.2,1.7,0.6,5.7,1.1,7.4c1.2,3.8,3.3,7.3,6.6,9.6C20.4,55,20.6,55.9,20.1,56.6z M68.1,56.6
	c-0.5,0.7-1.4,0.9-2.1,0.4l0,0c-9-6-9-19.5-9-19.5l0,0l0,0c0-0.8,0.7-1.5,1.5-1.5s1.5,0.7,1.5,1.5l0,0l0,0c-0.2,1.7,0.6,5.7,1.1,7.4
	c1.2,3.8,3.3,7.3,6.6,9.6C68.4,55,68.6,55.9,68.1,56.6z" clip-rule="evenodd"/></svg>