<svg xmlns="http://www.w3.org/2000/svg" enable-background="new 0 0 5000 5000" viewBox="0 0 5000 5000"><path fill="#3f3291" d="M522.2 3862.9c-8.2 0-16.2-4-21.1-11.3-51.4-77.6-98.8-158.7-140.8-241.2-6.3-12.4-1.4-27.6 11-33.9 12.4-6.3 27.6-1.4 33.9 11 41.2 80.8 87.6 160.3 137.9 236.2 7.7 11.6 4.5 27.3-7.1 35C531.8 3861.6 526.9 3862.9 522.2 3862.9zM271.5 3371.2c-10.2 0-19.9-6.3-23.6-16.4-32.4-87-60.1-176.8-82.3-266.9-3.3-13.5 4.9-27.2 18.5-30.5 13.5-3.3 27.2 4.9 30.5 18.5 21.7 88.3 48.8 176.2 80.6 261.4 4.9 13.1-1.8 27.6-14.8 32.4C277.4 3370.7 274.4 3371.2 271.5 3371.2zM139.6 2835.3c-12.5 0-23.4-9.3-25-22-11.7-91.9-18.2-185.6-19.3-278.6-.2-13.9 11-25.4 24.9-25.5.1 0 .2 0 .3 0 13.8 0 25 11.1 25.2 24.9 1.1 91.1 7.5 182.9 18.9 272.9 1.8 13.8-8 26.4-21.8 28.2C141.7 2835.2 140.6 2835.3 139.6 2835.3zM132.6 2283.4c-.8 0-1.7 0-2.5-.1-13.9-1.4-24-13.7-22.6-27.6.3-3 .6-6 .9-9 9.3-89.4 23.5-179.2 42.5-266.9 2.9-13.6 16.4-22.3 30-19.3 13.6 2.9 22.3 16.4 19.3 30-18.5 85.9-32.5 173.8-41.6 261.4-.3 2.9-.6 5.9-.9 8.8C156.3 2273.7 145.4 2283.4 132.6 2283.4zM249.1 1743.9c-2.7 0-5.4-.4-8.1-1.3-13.2-4.5-20.3-18.8-15.8-32 29.8-87.9 65-175.1 104.5-259 5.9-12.6 21-18 33.6-12.1 12.6 5.9 18 21 12.1 33.6-38.8 82.2-73.2 167.5-102.4 253.7C269.4 1737.3 259.6 1743.9 249.1 1743.9zM2624.1 4953.1c-13.6 0-24.8-10.8-25.2-24.5-.4-13.9 10.5-25.5 24.5-26 90.9-2.7 182.6-10.6 272.4-23.7 13.8-2 26.6 7.6 28.6 21.4 2 13.8-7.6 26.6-21.4 28.6-91.8 13.3-185.4 21.4-278.2 24.2C2624.6 4953.1 2624.4 4953.1 2624.1 4953.1zM2347.8 4945.6c-.7 0-1.4 0-2.1-.1-16.1-1.3-32.4-2.9-48.4-4.5-76.4-7.9-153.2-19.4-228.2-34.3-13.7-2.7-22.6-16-19.8-29.6 2.7-13.7 16-22.6 29.6-19.8 73.4 14.5 148.7 25.8 223.6 33.6 15.7 1.6 31.6 3.1 47.4 4.4 13.9 1.2 24.2 13.4 23 27.2C2371.8 4935.6 2360.8 4945.6 2347.8 4945.6zM3170.2 4874c-11.2 0-21.4-7.5-24.4-18.8-3.6-13.5 4.5-27.3 18-30.8 87.9-23.2 175.3-51.7 260-84.8 13-5.1 27.6 1.3 32.7 14.3 5.1 13-1.3 27.6-14.3 32.7-86.5 33.8-175.8 62.9-265.5 86.6C3174.5 4873.8 3172.4 4874 3170.2 4874zM1806.4 4838.2c-2.5 0-5.1-.4-7.7-1.2-88.5-28.3-176.3-61.9-260.8-100-12.7-5.7-18.3-20.7-12.6-33.4 5.7-12.7 20.7-18.3 33.4-12.6 82.8 37.3 168.7 70.3 255.4 98 13.3 4.2 20.6 18.4 16.4 31.7C1827 4831.4 1817 4838.2 1806.4 4838.2zM3684.3 4673.2c-9 0-17.8-4.9-22.3-13.4-6.5-12.3-1.8-27.6 10.5-34.1 80.3-42.5 159.1-90.1 234.2-141.4 11.5-7.9 27.2-4.9 35.1 6.6 7.9 11.5 4.9 27.2-6.6 35.1-76.6 52.5-157.1 101-239.1 144.4C3692.4 4672.3 3688.3 4673.2 3684.3 4673.2zM4139.9 4361.5c-7.1 0-14.1-3-19.1-8.7-9.1-10.5-8-26.5 2.6-35.6 10.7-9.3 21.4-18.7 31.9-28.1 57.2-51.3 112.6-105.9 164.5-162.3 9.4-10.3 25.4-10.9 35.6-1.5 10.2 9.4 10.9 25.4 1.5 35.6-53 57.6-109.5 113.4-168 165.7-10.7 9.6-21.7 19.2-32.6 28.7C4151.6 4359.5 4145.7 4361.5 4139.9 4361.5zM4513.7 3955.4c-5.2 0-10.4-1.6-14.8-4.8-11.3-8.2-13.7-24-5.5-35.2 53.6-73.4 103.5-150.8 148.3-229.8 6.9-12.1 22.3-16.4 34.4-9.5 12.1 6.9 16.4 22.3 9.5 34.4-45.8 80.7-96.7 159.7-151.4 234.7C4529.2 3951.8 4521.5 3955.4 4513.7 3955.4zM4786 3475.4c-3.3 0-6.6-.6-9.9-2-12.8-5.4-18.8-20.3-13.4-33.1 35.5-83.6 66.6-170.2 92.4-257.5 4-13.4 18-21 31.3-17 13.4 4 21 18 17 31.3-26.3 89-58.1 177.5-94.4 262.9C4805.2 3469.6 4795.8 3475.4 4786 3475.4zM4879.5 1830.5c-10.9 0-20.9-7.1-24.2-18-22.7-76.2-49.6-152.2-79.9-225.8-5.3-12.9.8-27.6 13.7-32.9 12.9-5.3 27.6.8 32.9 13.7 30.9 75.2 58.4 152.8 81.6 230.6 4 13.4-3.6 27.4-17 31.4C4884.3 1830.1 4881.9 1830.5 4879.5 1830.5zM4679.1 1353.1c-8.9 0-17.5-4.7-22.1-13-43.9-79.3-92.9-157.2-145.7-231.5-8.1-11.4-5.4-27.1 5.9-35.2 11.4-8.1 27.1-5.4 35.2 5.9 53.9 75.8 104 155.4 148.8 236.4 6.7 12.2 2.3 27.5-9.9 34.3C4687.4 1352.1 4683.2 1353.1 4679.1 1353.1zM4359.3 903.2c-6.9 0-13.8-2.8-18.8-8.4-60.8-67.9-125.8-133-193.4-193.3-10.4-9.3-11.3-25.2-2-35.6 9.3-10.4 25.2-11.3 35.6-2 69 61.6 135.5 128 197.5 197.3 9.3 10.4 8.4 26.3-2 35.6C4371.3 901 4365.3 903.2 4359.3 903.2zM3947.5 536c-5 0-10.1-1.5-14.5-4.6-74.3-52.4-152.4-101-232.2-144.4-12.2-6.7-16.7-22-10.1-34.2 6.7-12.2 22-16.7 34.2-10.1 81.5 44.4 161.2 94 237.1 147.5 11.4 8 14.1 23.8 6.1 35.2C3963.2 532.2 3955.4 536 3947.5 536zM3462.9 272c-3.1 0-6.3-.6-9.4-1.8-84.2-34-171.3-63.5-259.1-87.7-13.4-3.7-21.3-17.6-17.6-31 3.7-13.4 17.6-21.3 31-17.6 89.6 24.7 178.6 54.8 264.6 89.5 12.9 5.2 19.2 19.9 14 32.8C3482.3 266 3472.9 272 3462.9 272zM2105.1 135.7c-11.9 0-22.5-8.5-24.8-20.6-2.5-13.7 6.5-26.9 20.2-29.4 91.2-16.9 184.4-28.8 277.1-35.2 13.9-1 25.9 9.5 26.9 23.4 1 13.9-9.5 25.9-23.4 26.9-90.7 6.3-182 17.9-271.3 34.5C2108.2 135.5 2106.6 135.7 2105.1 135.7zM2930.8 125.1c-1.3 0-2.6-.1-4-.3-42.7-6.7-86.2-12.4-129.4-16.9-47.2-4.9-95.2-8.4-142.8-10.5-13.9-.6-24.7-12.4-24.1-26.3.6-13.9 12.4-24.7 26.3-24.1 48.6 2.2 97.7 5.8 145.8 10.8 44.1 4.6 88.5 10.4 132.1 17.2 13.8 2.2 23.2 15.1 21 28.8C2953.8 116.2 2943 125.1 2930.8 125.1z"/><circle cx="2550" cy="2499.3" r="1829.1" fill="#ffd4d4"/><path fill="#fff" d="M2778.4,1014.8c-27.4-0.8-119.8-3.8-144.8-7.8c-73.5-12-123-100.7-130.3-116.6
						c-140.8-305.4-452.5-511-814.6-511c-376.2,0-681.2,245.4-830.4,561.1c-6.8,14.4-16.5,27-28.2,37.9
						c-62.4,57.8-104.5,168.7-104.5,295.9v15c0,127.3,42.2,238.2,104.5,295.9c11.7,10.8,21.4,23.5,28.2,37.9
						c149.2,315.7,454.1,561.1,830.4,561.1c354.7,0,661.1-197.3,805.8-492.4c10.3-21.1,38.2-71.2,56.8-97.6c47-67,135.6-67,229.5-67
						"/><path fill="#3f3291" d="M1688.7,2209.4c-183.2,0-361.3-57.7-514.9-166.8c-142.9-101.5-259.9-242.8-338.2-408.7
						c-5.1-10.9-12.7-21-22.6-30.1c-69.5-64.4-112.6-184.9-112.6-314.4v-15c0-64.3,10.5-127.5,30.4-182.6
						c19.7-54.7,48.2-100.3,82.2-131.9c9.8-9.1,17.4-19.2,22.6-30.1c78.4-165.9,195.3-307.2,338.2-408.7
						c153.6-109.1,331.7-166.8,514.9-166.8c180.6,0,354.8,50.1,503.8,144.9c146.4,93.1,261.8,224.8,333.7,380.8
						c8.9,19.2,53.7,92.9,111.5,102.3c20.9,3.4,101.6,6.4,141.4,7.5c13.9,0.4,24.9,12,24.5,25.9c-0.4,13.9-12,24.9-25.9,24.5
						c-19.8-0.5-119.7-3.5-148.1-8.1c-94.9-15.5-148.6-129.8-149.2-131c-139-301.5-449.8-496.3-791.7-496.3
						c-338.8,0-648.2,209.5-807.5,546.7c-7.9,16.7-19.3,32.1-33.9,45.6c-59.5,55.1-96.5,161.4-96.5,277.4v15
						c0,116,37,222.3,96.5,277.4c14.6,13.5,26,28.8,33.9,45.6c159.3,337.2,468.7,546.7,807.5,546.7c338.4,0,638.5-183.3,783.1-478.3
						c11.4-23.3,40-74.2,58.8-101c54.5-77.7,154-77.7,250.1-77.7c13.9,0,25.2,11.3,25.2,25.2s-11.3,25.2-25.2,25.2
						c-90.9,0-169.4,0-208.8,56.2c-17.1,24.4-44.3,72.9-54.8,94.2c-73.9,150.8-189.3,277.8-333.5,367.2
						C2036.6,2161.2,1865.5,2209.4,1688.7,2209.4z"/><path fill="#ffdb80" d="M2779.7,1170.1h-318.1c-15.7,0-34-19.5-38.2-42.9c-60.7-344-365.6-592.8-728.5-592.8
						c-311.1,0-563.3,202.6-687.1,463.5c-5.9,12.3-14,23.3-24,32.6c-51.6,47.9-86.5,139.7-86.5,245.1v12.5
						c0,105.4,34.9,197.2,86.5,245.1c10,9.3,18.1,20.3,24,32.6c123.7,260.9,376,463.5,687.1,463.5c357.9,0,656.3-242.5,725.7-578.6
						c4.2-20.2,21.8-40.3,41-40.3h318.1"/><path fill="#3f3291" d="M1694.9,2054.3c-152.4,0-300.6-47.9-428.4-138.5c-118.8-84.2-216.2-201.6-281.5-339.3
						c-4.4-9.4-10.6-17.8-18.3-24.9c-58.4-54.1-94.6-155.1-94.6-263.6v-12.5c0-108.5,36.3-209.4,94.6-263.6
						c7.7-7.2,13.9-15.5,18.3-24.9c65.3-137.7,162.7-255.1,281.5-339.3c127.8-90.6,276-138.5,428.4-138.5
						c91.9,0,181.7,15.4,266.9,45.7c82.9,29.5,159.1,72.4,226.7,127.3c67.5,55,124.1,120.4,168.2,194.3
						c45.3,76,76.1,158.8,91.6,246.3c2.1,12.2,10.5,20.7,14,22.1h317.4c13.9,0,25.2,11.3,25.2,25.2s-11.3,25.2-25.2,25.2h-318.1
						c-28.5,0-56.8-28.6-63-63.8c-58.4-331.4-354.3-571.9-703.6-571.9c-278.4,0-532.9,172.1-664.3,449
						c-7.2,15.2-17.2,28.7-29.6,40.3c-48.4,44.9-78.5,131.7-78.5,226.6v12.5c0,94.9,30.1,181.7,78.5,226.6
						c12.5,11.5,22.4,25.1,29.6,40.3c131.4,277,385.9,449,664.3,449c344.9,0,633.1-229.6,701-558.5c6.1-29.7,32.4-60.4,65.7-60.4
						h318.1c13.9,0,25.2,11.3,25.2,25.2s-11.3,25.2-25.2,25.2h-318.1c-4.7,0-14,9.2-16.3,20.2c-17.7,85.6-49.8,166.4-95.6,240.4
						c-44.7,72.2-101.2,136-168,189.5c-67,53.7-142.3,95.5-223.8,124.2C1874,2039.3,1785.6,2054.3,1694.9,2054.3z"/><ellipse cx="1150.5" cy="1275.5" fill="#fff" rx="122.6" ry="238.2"/><path fill="#3f3291" d="M1150.5 1539c-42.7 0-81.4-29.6-109.1-83.5-24.9-48.5-38.7-112.4-38.7-180 0-67.6 13.7-131.5 38.7-180 27.7-53.8 66.4-83.5 109.1-83.5 42.7 0 81.4 29.6 109.1 83.5 24.9 48.5 38.7 112.4 38.7 180 0 67.6-13.7 131.5-38.7 180C1231.9 1509.4 1193.1 1539 1150.5 1539zM1150.5 1062.5c-46 0-97.3 87.5-97.3 213s51.3 213 97.3 213c46 0 97.3-87.5 97.3-213S1196.5 1062.5 1150.5 1062.5zM2158.1 1898.5c-7.1 0-14.2-3-19.2-8.9-1.1-1.3-107.7-126.1-193.1-206.5-27.3-25.7-78.1-49.6-135.9-63.9-52.5-13-103.7-15.8-127.2-6.8-13 4.9-27.6-1.6-32.5-14.6-4.9-13 1.6-27.6 14.6-32.5 33.9-12.9 92.7-11 157.3 5 66.8 16.6 124.5 44.3 158.3 76.2 87.4 82.3 192.4 205.3 196.9 210.4 9 10.6 7.8 26.5-2.8 35.6C2169.7 1896.5 2163.9 1898.5 2158.1 1898.5z"/><path fill="#3f3291" d="M1963.1 1690c-13.6 0-24.8-10.8-25.2-24.4l-7.6-244.7c-.4-13.9 10.5-25.6 24.4-26 13.9-.5 25.6 10.5 26 24.4l7.6 244.7c.4 13.9-10.5 25.6-24.4 26C1963.7 1690 1963.4 1690 1963.1 1690zM1617.8 1189.8c-8.5 0-16.8-4.3-21.6-12.1-7.3-11.9-3.5-27.4 8.4-34.7 1.3-.8 128.4-78.2 277.4-154 199-101.3 342.5-152.7 426.6-152.7 1.5 0 3 0 4.4 0 13.9.3 25 11.9 24.7 25.8-.3 13.9-11.8 24.9-25.8 24.7-74-1.6-214.8 49.2-407 147.1-147.2 75-272.7 151.4-274 152.1C1626.8 1188.7 1622.2 1189.8 1617.8 1189.8z"/><path fill="#3f3291" d="M1751.3 1222c-2-1.6-49.6-39.9-35.5-116.4 2.5-13.7 15.7-22.8 29.4-20.2 13.7 2.5 22.8 15.7 20.2 29.4-8.4 45.6 16.3 67 17.4 67.9l-.3-.3L1751.3 1222zM2191 901.7c-8.2 0-16.3-4-21.1-11.4-68.6-104.8-177.9-94.3-179-94.1-13.8 1.5-26.3-8.5-27.8-22.4-1.5-13.9 8.5-26.3 22.4-27.8 5.7-.6 141.3-13.7 226.6 116.7 7.6 11.7 4.4 27.3-7.3 34.9C2200.5 900.4 2195.7 901.7 2191 901.7zM1958.1 1526.7c-1.5 0-3.1-.1-4.6-.4-32.7-6-105-39.4-168.4-126.2-8.2-11.3-5.7-27 5.5-35.2s27-5.7 35.2 5.5c56.1 76.9 117.7 102.8 136.8 106.3 13.7 2.5 22.8 15.7 20.2 29.4C1980.7 1518.2 1970 1526.7 1958.1 1526.7zM2335.1 1690c-8.8 0-17.3-4.6-21.9-12.7-4.3-7.5-8.1-14.4-11.8-20.9-21.2-38-31.8-57.1-69.4-88.2-49.7-40.9-98.7-40.7-99.2-40.6-14 .4-25.5-10.6-25.9-24.5-.4-13.9 10.6-25.5 24.5-25.9 2.7-.1 67.8-1.3 132.8 52.1 45 37.2 59.5 63.2 81.4 102.5 3.5 6.3 7.3 13.1 11.5 20.4 6.9 12.1 2.7 27.5-9.4 34.4C2343.7 1689 2339.4 1690 2335.1 1690zM1887.4 2030.1c-7.9 0-15.7-3.7-20.6-10.6-3.5-4.9-85.9-122.2-81.6-225.5.6-13.9 12.4-24.7 26.3-24.1 13.9.6 24.7 12.3 24.1 26.3-3.6 86 71.6 193.1 72.3 194.2 8.1 11.4 5.4 27.1-6 35.2C1897.5 2028.6 1892.4 2030.1 1887.4 2030.1z"/><path fill="#3f3291" d="M1838.8 1952.4c-109.5 0-149.9-47.5-154.2-53l39.7-31.1c0 0-.1-.1-.3-.4 1.2 1.4 31.1 35.1 119 34 .1 0 .2 0 .3 0 13.8 0 25 11.1 25.2 24.9.2 13.9-11 25.4-24.9 25.5C1842 1952.4 1840.4 1952.4 1838.8 1952.4zM1743.9 726.1c-8.4 0-16.7-4.2-21.5-11.9-7.3-11.8-3.7-27.4 8.1-34.7 52.3-32.4 103.5-56 141-73.2 5.7-2.6 11.1-5.1 16.2-7.5 27.3-12.7 50.5-26.6 65.1-36.1 11.7-7.6 27.3-4.2 34.9 7.5 7.6 11.7 4.2 27.3-7.5 34.9-16 10.3-41.3 25.6-71.3 39.5-5.2 2.4-10.6 4.9-16.4 7.6-38.2 17.6-85.9 39.5-135.5 70.3C1753.1 724.9 1748.5 726.1 1743.9 726.1z"/><path fill="#3f3291" d="M1870.7 780.2l-31.1-39.7c0 0-.1.1-.4.3 1.4-1.2 35.1-31.1 34-119-.2-13.9 11-25.4 24.9-25.5.1 0 .2 0 .3 0 13.8 0 25 11.1 25.2 24.9C1925.1 734.3 1876.3 775.8 1870.7 780.2zM2779.7 1307h-379.5c-13.9 0-25.2-11.3-25.2-25.2s11.3-25.2 25.2-25.2h379.5c13.9 0 25.2 11.3 25.2 25.2S2793.6 1307 2779.7 1307z"/><path fill="#3f3291" d="M2357.8,1305.8c-1.8,0-3.6-0.2-5.4-0.6c-107.8-23.4-153.6-168.5-155.5-174.7c-4.1-13.3,3.4-27.4,16.7-31.5
				c13.3-4.1,27.4,3.4,31.5,16.7c0.4,1.2,39.1,123.1,118,140.2c13.6,2.9,22.3,16.4,19.3,30
				C2379.9,1297.7,2369.4,1305.8,2357.8,1305.8z"/><path fill="#3f3291" d="M2084.1,1330.5c-9.6,0-18.8-5.5-23-14.9c-5.7-12.7-0.1-27.6,12.6-33.4c70.7-31.9,252.6-28.6,327.5-25.7
				c13.9,0.5,24.8,12.3,24.2,26.2c-0.5,13.9-12.2,24.8-26.2,24.2c-114.7-4.4-255.1-1.2-304.8,21.2
				C2091.1,1329.8,2087.5,1330.5,2084.1,1330.5z"/><path fill="#3f3291" d="M2290.2,1422.3c-10.5,0-20.4-6.7-23.9-17.2c-4.4-13.2,2.7-27.5,15.9-31.9c71.1-23.9,96-98.2,96.2-99
				c4.2-13.3,18.4-20.6,31.6-16.4c13.3,4.2,20.6,18.4,16.4,31.7c-1.3,4-32.4,99.4-128.3,131.5
				C2295.6,1421.8,2292.9,1422.3,2290.2,1422.3z"/><ellipse cx="1947.9" cy="983.7" fill="#f9797f" rx="139.8" ry="88.3" transform="rotate(-21.952 1947.925 983.737)"/><path fill="#3f3291" d="M1906.2,1106c-52.3,0-95.5-21.6-111.3-60.8c-12.2-30.2-5.9-64.8,17.6-97.4c21-29.2,54.1-53.9,93.1-69.6
					c85.8-34.6,171.7-15.4,195.5,43.6l0,0c23.8,59.1-24.8,132.4-110.6,167C1961.6,1100.4,1932.7,1106,1906.2,1106z M1989.4,911.5
					c-19.5,0-41.8,4.1-65,13.4c-29.8,12-55.7,31.1-71,52.3c-7.5,10.5-19.1,30.8-11.7,49.1c11.2,27.7,67.2,40.9,129.9,15.7
					c62.6-25.2,93.8-73.7,82.7-101.4C2047.3,923.2,2022.5,911.5,1989.4,911.5z"/><ellipse cx="1630.4" cy="751" fill="#f9797f" rx="139.8" ry="88.3" transform="rotate(-21.952 1630.365 751.09)"/><path fill="#3f3291" d="M1588.6,873.4c-52.3,0-95.5-21.6-111.3-60.8c-12.2-30.2-5.9-64.8,17.6-97.4c21-29.2,54.1-53.9,93.1-69.6
					c85.8-34.6,171.7-15.4,195.5,43.6c12.2,30.2,5.9,64.8-17.6,97.4c-21,29.2-54.1,53.9-93.1,69.6
					C1644,867.8,1615.1,873.4,1588.6,873.4z M1671.9,678.9c-19.5,0-41.8,4.1-65,13.4c-29.8,12-55.7,31.1-71,52.3
					c-7.5,10.5-19.1,30.8-11.7,49.1c11.2,27.7,67.2,40.9,129.9,15.7c29.8-12,55.7-31.1,71-52.3c7.5-10.5,19.1-30.8,11.7-49.1l0,0
					C1729.7,690.6,1704.9,678.9,1671.9,678.9z"/><ellipse cx="1618.3" cy="1532" fill="#f9797f" rx="88.3" ry="139.8" transform="rotate(-72.89 1618.43 1532.042)"/><path fill="#3f3291" d="M1653.3,1651.3c-21.8,0-45.1-3.4-68.7-10.7c-40.2-12.4-75.2-34.2-98.6-61.5c-26.2-30.5-35.3-64.5-25.7-95.6
					c18.7-60.9,102.7-87.2,191.1-60c40.2,12.4,75.2,34.2,98.6,61.5c26.2,30.5,35.3,64.5,25.7,95.6
					C1762,1625.2,1713.2,1651.3,1653.3,1651.3z M1583.2,1463.3c-39.3,0-68.5,14.9-74.7,35c-5.8,18.9,7.4,38.1,15.8,47.9
					c17,19.8,44.4,36.7,75.1,46.1c64.5,19.9,119.3,1.9,128.1-26.6c5.8-18.9-7.4-38.1-15.8-47.9c-17-19.8-44.4-36.7-75.1-46.1
					C1617.7,1465.9,1599.5,1463.3,1583.2,1463.3z"/><g><path fill="#7dbeff" d="M2543.4,2897.7h-293.7l0,0c-36-104.8-45.4-221.7-26.7-333.8l16.8-100.9c5.8-34.6,35.7-60,70.8-60h172.1
						c35.1,0,65,25.4,70.8,60l16.8,100.9C2588.8,2676,2579.4,2792.9,2543.4,2897.7L2543.4,2897.7z"/><path fill="#3f3291" d="M2543.4,2922.9h-293.7c-10.8,0-20.4-6.8-23.9-17c-37.6-109.5-47.2-229.2-27.8-346.2l16.8-100.9
						c7.8-47,48-81.1,95.6-81.1h172.1c47.6,0,87.8,34.1,95.6,81.1l16.8,100.9c19.4,117,9.8,236.7-27.8,346.2
						C2563.8,2916.1,2554.2,2922.9,2543.4,2922.9z M2268,2872.5h257.1c30.2-96.9,37.2-201.7,20.1-304.5l-16.8-100.9
						c-3.7-22.5-23-38.9-45.9-38.9h-172.1c-22.8,0-42.1,16.4-45.9,38.9l-16.8,100.9C2230.8,2670.8,2237.8,2775.6,2268,2872.5z"/><path fill="#fff" d="M2543.4,2897.7c0,39.7,7.2,79,21.1,116.2l28.2,74.9c17.3,46,24.1,95.2,19.9,144.2l-55.4,650.3
						c-9.2,107.9-4.9,216.6,12.9,323.4l0,0c9.3,56.2,11.6,113.5,7.1,169.9c-7.5,93.1-87.3,163.9-180.7,163.9l0,0
						c-93.4,0-173.2-70.8-180.7-163.9c-4.5-56.4-2.2-113.8,7.1-169.9l0,0c17.8-106.8,22.1-215.5,12.9-323.4l-55.4-650.3
						c-4.2-48.9,2.6-98.2,19.9-144.2l28.2-74.9c14-37.1,21.1-76.5,21.1-116.2H2543.4z"/><path fill="#3f3291" d="M2396.6,4565.7c-51.6,0-101.1-19-139.4-53.5c-38.7-34.8-62.2-82.3-66.4-133.6
						c-4.7-58.9-2.3-118.2,7.4-176.1c17.4-104.7,21.7-211.4,12.6-317.1l-55.4-650.3c-4.5-52.4,3-106,21.5-155.2l28.2-74.9
						c12.9-34.4,19.5-70.5,19.5-107.3c0-13.9,11.3-25.2,25.2-25.2h293.7c13.9,0,25.2,11.3,25.2,25.2c0,36.8,6.6,72.9,19.5,107.3
						l28.2,74.9c18.5,49.2,25.9,102.8,21.5,155.2l-55.4,650.3c-9,105.7-4.7,212.4,12.6,317.1c9.6,57.9,12.1,117.2,7.4,176.1
						c-4.1,51.3-27.7,98.7-66.4,133.6C2497.8,4546.7,2448.2,4565.7,2396.6,4565.7z M2274.1,2922.9c-2.4,34.1-9.7,67.6-21.8,99.8
						l-28.2,74.9c-15.9,42.2-22.2,88.2-18.4,133.2l55.4,650.3c9.4,109.9,4.9,220.8-13.1,329.7c-9,53.9-11.3,109-6.8,163.8
						c6.4,78.9,74.7,140.7,155.5,140.7s149.2-61.8,155.5-140.7c4.4-54.8,2.1-109.9-6.8-163.8c-18.1-108.8-22.5-219.8-13.1-329.7
						l55.4-650.3c3.8-44.9-2.5-91-18.4-133.2l-28.2-74.9c-12.1-32.2-19.4-65.7-21.8-99.8L2274.1,2922.9L2274.1,2922.9z"/><line x1="2187" x2="2606.2" y1="3134.7" y2="3134.7" fill="none"/><path fill="#3f3291" d="M2606.2,3159.9H2187c-13.9,0-25.2-11.3-25.2-25.2s11.3-25.2,25.2-25.2h419.1c13.9,0,25.2,11.3,25.2,25.2
						S2620.1,3159.9,2606.2,3159.9z"/><path fill="#f9797f" d="M2396.6,3263.8L2396.6,3263.8c33.7,0,61,27.3,61,61v98.1c0,33.7-27.3,61-61,61l0,0c-33.7,0-61-27.3-61-61
						v-98.1C2335.6,3291.1,2362.9,3263.8,2396.6,3263.8z"/><path fill="#3f3291" d="M2396.6,3509c-47.5,0-86.2-38.7-86.2-86.2v-98.1c0-47.5,38.7-86.2,86.2-86.2c47.5,0,86.2,38.7,86.2,86.2
						v98.1C2482.8,3470.4,2444.1,3509,2396.6,3509z M2396.6,3289c-19.7,0-35.7,16-35.7,35.7v98.1c0,19.7,16,35.7,35.7,35.7
						s35.7-16,35.7-35.7v-98.1C2432.3,3305.1,2416.3,3289,2396.6,3289z"/><g><path fill="#7dbeff" d="M1316,3071.5v-441c0-38.5,31.2-69.6,69.6-69.6H1504c38.5,0,69.6,31.2,69.6,69.6v441"/><path fill="#3f3291" d="M1573.6,3096.7c-13.9,0-25.2-11.3-25.2-25.2v-441c0-24.5-19.9-44.4-44.4-44.4h-118.4
							c-24.5,0-44.4,19.9-44.4,44.4v441c0,13.9-11.3,25.2-25.2,25.2s-25.2-11.3-25.2-25.2v-441c0-52.3,42.6-94.9,94.9-94.9H1504
							c52.3,0,94.9,42.6,94.9,94.9v441C1598.8,3085.4,1587.5,3096.7,1573.6,3096.7z"/><line x1="1573.6" x2="1316" y1="2775.6" y2="2775.6" fill="none"/><path fill="#3f3291" d="M1573.6,2800.8H1316c-13.9,0-25.2-11.3-25.2-25.2s11.3-25.2,25.2-25.2h257.6c13.9,0,25.2,11.3,25.2,25.2
							S1587.5,2800.8,1573.6,2800.8z"/><g><path fill="#fff" d="M966.8,3071.5h956c41.1,0,74.4,33.3,74.4,74.4v1197.4c0,41.1-33.3,74.4-74.4,74.4h-956
								c-41.1,0-74.4-33.3-74.4-74.4V3145.9C892.4,3104.8,925.7,3071.5,966.8,3071.5z"/><path fill="#3f3291" d="M1922.8,4442.8h-956c-54.9,0-99.6-44.7-99.6-99.6V3145.9c0-54.9,44.7-99.6,99.6-99.6h956
								c54.9,0,99.6,44.7,99.6,99.6v1197.4C2022.4,4398.2,1977.7,4442.8,1922.8,4442.8z M966.8,3096.7c-27.1,0-49.2,22.1-49.2,49.2
								v1197.4c0,27.1,22.1,49.2,49.2,49.2h956c27.1,0,49.2-22.1,49.2-49.2V3145.9c0-27.1-22.1-49.2-49.2-49.2H966.8z"/><path fill="#7dbeff" d="M1569.6,4155.4h191.3c27.9,0,50.6,22.6,50.6,50.6v10.3c0,27.9-22.6,50.6-50.6,50.6h-191.3
								c-27.9,0-50.6-22.6-50.6-50.6v-10.3C1519,4178,1541.7,4155.4,1569.6,4155.4z"/><path fill="#3f3291" d="M1760.9,4292h-191.3c-41.8,0-75.8-34-75.8-75.8v-10.3c0-41.8,34-75.8,75.8-75.8h191.3
								c41.8,0,75.8,34,75.8,75.8v10.3C1836.7,4258,1802.7,4292,1760.9,4292z M1569.6,4180.6c-14,0-25.3,11.4-25.3,25.3v10.3
								c0,14,11.4,25.3,25.3,25.3h191.3c14,0,25.3-11.4,25.3-25.3v-10.3c0-14-11.4-25.3-25.3-25.3H1569.6z"/><path fill="#7dbeff" d="M1128.6,4155.4h191.3c27.9,0,50.6,22.6,50.6,50.6v10.3c0,27.9-22.6,50.6-50.6,50.6h-191.3
								c-27.9,0-50.6-22.6-50.6-50.6v-10.3C1078.1,4178,1100.7,4155.4,1128.6,4155.4z"/><path fill="#3f3291" d="M1319.9,4292h-191.3c-41.8,0-75.8-34-75.8-75.8v-10.3c0-41.8,34-75.8,75.8-75.8h191.3
								c41.8,0,75.8,34,75.8,75.8v10.3C1395.7,4258,1361.7,4292,1319.9,4292z M1128.6,4180.6c-14,0-25.3,11.4-25.3,25.3v10.3
								c0,14,11.4,25.3,25.3,25.3h191.3c14,0,25.3-11.4,25.3-25.3v-10.3c0-14-11.4-25.3-25.3-25.3H1128.6z"/><g><path fill="#fff" d="M1152.4,3271.1h584.6c41.1,0,74.4,33.3,74.4,74.4v584.6c0,41.1-33.3,74.4-74.4,74.4h-584.6
								c-41.1,0-74.4-33.3-74.4-74.4v-584.6C1078.1,3304.4,1111.4,3271.1,1152.4,3271.1z"/><path fill="#3f3291" d="M1737.1,4029.7h-584.6c-54.9,0-99.6-44.7-99.6-99.6v-584.6c0-54.9,44.7-99.6,99.6-99.6h584.6
								c54.9,0,99.6,44.7,99.6,99.6v584.6C1836.7,3985,1792,4029.7,1737.1,4029.7z M1152.4,3296.3c-27.1,0-49.2,22.1-49.2,49.2
								v584.6c0,27.1,22.1,49.2,49.2,49.2h584.6c27.1,0,49.2-22.1,49.2-49.2v-584.6c0-27.1-22.1-49.2-49.2-49.2H1152.4z"/><path fill="#f9797f" d="M1520.4,3509.1L1520.4,3509.1l-75.6-142l-75.6,142h0c-4.7,10.4-7.4,21.9-7.4,34.1c0,45.8,37.2,83,83,83
									s83-37.2,83-83C1527.8,3531,1525.1,3519.5,1520.4,3509.1z"/><path fill="#3f3291" d="M1444.8 3651.4c-59.7 0-108.2-48.5-108.2-108.2 0-15 3.1-29.6 9.2-43.5.3-.9.7-1.7 1.2-2.5l75.6-142c4.4-8.2 12.9-13.4 22.3-13.4s17.9 5.1 22.3 13.4l75.6 142c.4.8.8 1.7 1.2 2.5 6.1 13.8 9.2 28.4 9.2 43.5C1553 3602.9 1504.4 3651.4 1444.8 3651.4zM1392 3519.9c-3.3 7.4-5 15.3-5 23.3 0 31.9 25.9 57.8 57.8 57.8 31.9 0 57.8-25.9 57.8-57.8 0-8-1.7-15.8-5-23.3l-52.8-99.2L1392 3519.9zM1301.2 3876.8c0-22.1 13.2-37.7 34.8-46.9l-.3-.8c-19.4-9.2-27.8-24.3-27.8-39.3 0-27.8 23.4-46.6 54.2-46.6 33.9 0 50.9 21.3 50.9 43.1 0 14.8-7.3 30.7-28.8 41v.8c21.8 8.6 35.3 24 35.3 45.3 0 30.4-26.1 50.9-59.5 50.9C1323.3 3924.2 1301.2 3902.4 1301.2 3876.8zM1395.5 3875.7c0-21.3-14.8-31.5-38.5-38.2-20.5 5.9-31.5 19.4-31.5 36.1-.8 17.8 12.7 33.4 35 33.4C1381.7 3906.9 1395.5 3893.8 1395.5 3875.7zM1330.3 3788.1c0 17.5 13.2 26.9 33.4 32.3 15.1-5.1 26.7-15.9 26.7-31.8 0-14-8.3-28.6-29.6-28.6C1341 3760.1 1330.3 3773.1 1330.3 3788.1z"/><path fill="#3f3291" d="M1359.9 3932.6c-44.1 0-67.1-28.1-67.1-55.8 0-19.8 9.4-36.3 26.8-47.7-12.9-10-20-23.8-20-39.3 0-31.9 26.3-55 62.6-55 38.9 0 59.3 25.9 59.3 51.5 0 10.1-3 27.2-20.6 40.7 17.6 10.9 27.1 27 27.1 46.3C1427.9 3907.6 1399.3 3932.6 1359.9 3932.6zM1332 3841.2c-14.9 8.4-22.4 20.3-22.4 35.6 0 23 20.7 39 50.3 39 29.6 0 51.1-17.9 51.1-42.5 0-21.2-16.3-32-30-37.4l-5.3-2.1v-9.3c-2.9 1.6-6 2.9-9.4 4l-2.4.8-2.5-.7c-26.3-7-39.7-20.6-39.7-40.5 0-21.4 16-36.4 38.9-36.4 26.3 0 38 18.6 38 37 0 10.4-4 19.7-11.3 27.1 14-9.1 17.1-20.8 17.1-29.5 0-17.3-13.1-34.7-42.5-34.7-26.9 0-45.7 15.7-45.7 38.2 0 13.5 8.1 24.7 22.9 31.7l3.2 1.5 3.2 9.6c2.8-1.2 5.8-2.3 8.9-3.2l2.3-.7 2.3.7c19.2 5.4 44.6 16.2 44.6 46.3 0 23.3-17.9 39.7-43.4 39.7-13 0-24.6-4.6-32.6-13-7.4-7.7-11.2-18-10.8-29C1317.1 3860.6 1322.4 3849.4 1332 3841.2zM1357 3846.2c-15 5-23.2 14.6-23.2 27.3l0 .4c-.3 6.4 1.9 12.4 6.1 16.8 4.9 5.1 12 7.8 20.5 7.8 16.2 0 26.6-9 26.6-22.8C1387.1 3863.5 1381.9 3853.8 1357 3846.2zM1360.7 3768.5c-16.3 0-22 10.6-22 19.6 0 7.6 2.9 17.1 24.7 23.5 7.8-3.1 18.6-9.8 18.6-23C1381.9 3782.6 1379.9 3768.5 1360.7 3768.5zM1476.6 3921.2v-14.5l18.6-18c44.7-42.6 64.9-65.2 65.2-91.6 0-17.8-8.6-34.2-34.8-34.2-15.9 0-29.1 8.1-37.2 14.8l-7.5-16.7c12.1-10.2 29.4-17.8 49.6-17.8 37.7 0 53.6 25.9 53.6 50.9 0 32.3-23.4 58.5-60.3 94l-14 12.9v.5h78.7v19.7L1476.6 3921.2 1476.6 3921.2z"/><path fill="#3f3291" d="M1596.8,3929.6h-128.6v-26.5l21.1-20.5c44-41.9,62.4-63,62.6-85.6c0-17.3-8.6-25.7-26.3-25.7
										c-14.2,0-26,8.1-31.8,12.9l-8.5,7.1l-14.7-32.6l4.9-4.1c15.1-12.7,34.6-19.8,55-19.8c42.8,0,62,29.8,62,59.3
										c0,36.2-26.7,65.2-61.9,99.1h66.2L1596.8,3929.6L1596.8,3929.6z M1485,3912.8h95v-2.9h-78.7v-12.6l16.7-15.4
										c39-37.6,57.6-60.4,57.6-87.8c0-19.6-11.8-42.5-45.2-42.5c-14.2,0-27.9,4.2-39.2,12l0.5,1.2c8.8-5.6,20.3-10.4,33.8-10.4
										c27,0,43.2,15.9,43.2,42.6c-0.3,30.2-21.9,54-67.8,97.7l-16,15.5V3912.8z"/></g></g></g></g><g><path fill="#f9797f" d="M3657.6,1629.6c72.7-92.4,244.6-310.9,253.8-321.6c24.9-29.1,69.9-29.1,94.9,0.1
					c40.7,47.5,768,895.4,768,1311.2c0,425.9-392,802-812,802c-165.8,0-269-30.5-374-93.7"/><path fill="#3f3291" d="M3962.3,3446.6c-162.2,0-270.7-27.3-387-97.3c-11.9-7.2-15.8-22.7-8.6-34.6c7.2-11.9,22.7-15.8,34.6-8.6
					c107.6,64.8,208.8,90.1,360.9,90.1c411.8,0,786.7-370.2,786.7-776.8c0-165.4-125.4-434.1-362.7-777.1
					c-172.2-249-348.8-458.9-398.9-517.3l-0.4-0.4c-7.2-8.5-17.3-13.1-28.3-13.1c0,0,0,0,0,0c-10.9,0-21.1,4.7-28.2,13
					c-8.9,10.4-192.8,244-253.2,320.8c-8.6,10.9-24.5,12.8-35.4,4.2c-10.9-8.6-12.8-24.5-4.2-35.4
					c121.1-153.9,246.1-312.6,254.5-322.4c16.7-19.4,40.9-30.6,66.5-30.6c0,0,0.1,0,0.1,0c25.7,0,49.9,11.3,66.6,30.8l0.3,0.4
					c50.4,58.9,228.4,270.4,402,521.4c246.6,356.5,371.7,627.6,371.7,805.8c0,107.1-23.6,213.3-70.1,315.4
					c-44.3,97.3-106.9,185.9-186,263.3C4382,3356,4170.2,3446.6,3962.3,3446.6z"/><path fill="#ffdb80" d="M3272.2,3014.2l-0.6,279.5c0,86.8,70.5,157,157.3,156.9c86.8,0,156.9-70.1,156.9-156.9l0.6-279.5"/><path fill="#3f3291" d="M3428.6,3475.9c-48.6,0-94.4-18.9-128.8-53.3c-34.5-34.4-53.4-80.1-53.4-128.8l0.6-279.5
					c0-13.9,11.3-25.2,25.2-25.2c0,0,0,0,0.1,0c13.9,0,25.2,11.3,25.2,25.3l-0.6,279.5c0,35.1,13.7,68.2,38.6,93.1
					c24.9,24.9,58,38.6,93.2,38.6c0.1,0,0.1,0,0.2,0c72.6,0,131.7-59.1,131.7-131.7l0.6-279.5c0-13.9,11.3-25.2,25.2-25.2
					c0,0,0,0,0.1,0c13.9,0,25.2,11.3,25.2,25.3l-0.6,279.5c0,100.4-81.7,182.1-182.1,182.1
					C3428.8,3475.9,3428.7,3475.9,3428.6,3475.9z"/><path fill="#fff" d="M3202.4,2861.1l0.3,106.3c0,25.9,21,46.9,46.9,46.9h356.2c25.9,0,46.9-21,46.9-46.9v-102.4"/><path fill="#3f3291" d="M3605.8 3039.4h-356.2c-39.8 0-72.1-32.3-72.1-72.1l-.3-106.2c0-13.9 11.2-25.3 25.1-25.3 0 0 .1 0 .1 0 13.9 0 25.2 11.2 25.2 25.1l.3 106.3c0 12 9.7 21.7 21.7 21.7h356.2c11.9 0 21.6-9.7 21.6-21.7v-102.4c0-13.9 11.3-25.2 25.2-25.2s25.2 11.3 25.2 25.2v102.4C3677.9 3007.1 3645.6 3039.4 3605.8 3039.4zM4354.3 2165.3c-8.5 0-16.8-4.3-21.6-12.1-52.8-86.7-110.2-180.2-110.7-181.1-7.3-11.9-3.6-27.4 8.3-34.7 11.9-7.3 27.4-3.6 34.7 8.3.6.9 57.9 94.5 110.8 181.2 7.2 11.9 3.5 27.4-8.4 34.7C4363.3 2164.1 4358.8 2165.3 4354.3 2165.3zM4298.9 3081.8c-7.3 0-14.5-3.1-19.5-9.2-8.9-10.7-7.4-26.6 3.4-35.5 203.5-168.2 269.3-413.2 176.1-655.2-5-13 1.5-27.6 14.5-32.6 13-5 27.6 1.5 32.6 14.5 27.8 72.1 42.9 144.9 45 216.3 2 66.5-7.4 132.3-27.7 195.4-36.9 114.4-108.9 218.3-208.3 300.5C4310.3 3079.9 4304.6 3081.8 4298.9 3081.8z"/><path fill="#7dbeff" d="M2759.7,2228.9c0,371.4,301.2,672.5,672.6,672.5c371.4,0,672.5-301.2,672.5-672.6
					c0-371.4-301.2-672.5-672.6-672.5C3060.7,1556.3,2759.6,1857.5,2759.7,2228.9z"/><path fill="#3f3291" d="M3432.2 2926.6c-94.2 0-185.5-18.4-271.6-54.8-83.1-35.1-157.7-85.4-221.8-149.5-64.1-64.1-114.4-138.7-149.5-221.8-36.4-86-54.9-177.4-54.9-271.6l0 0c0-94.2 18.4-185.6 54.8-271.6 35.1-83.1 85.4-157.7 149.5-221.8 64.1-64.1 138.7-114.4 221.8-149.5 86-36.4 177.4-54.9 271.6-54.9 0 0 0 0 .1 0 94.2 0 185.5 18.4 271.6 54.8 83.1 35.1 157.7 85.4 221.8 149.5 64.1 64.1 114.4 138.7 149.5 221.8 36.4 86 54.9 177.4 54.9 271.6 0 94.2-18.4 185.6-54.8 271.6-35.1 83.1-85.4 157.7-149.5 221.8-64.1 64.1-138.7 114.4-221.8 149.5C3617.8 2908.1 3526.5 2926.6 3432.2 2926.6 3432.3 2926.6 3432.2 2926.6 3432.2 2926.6zM2784.9 2228.9c0 356.9 290.4 647.3 647.3 647.3 0 0 0 0 .1 0 172.9 0 335.4-67.4 457.7-189.6 122.2-122.3 189.6-284.8 189.5-457.7 0-356.9-290.4-647.3-647.3-647.3 0 0 0 0-.1 0C3075.2 1581.6 2784.9 1872 2784.9 2228.9L2784.9 2228.9zM3271.7 3259.7c-13.9 0-25.2-11.3-25.2-25.2 0-13.9 11.3-25.2 25.2-25.2l314.2 0c13.9 0 25.2 11.3 25.2 25.2 0 13.9-11.3 25.2-25.2 25.2L3271.7 3259.7z"/><path fill="#fff" d="M2931.2,2359.5c64.4,241.6,297.5,406.2,553.5,377.6c282-31.5,485.1-285.7,453.6-567.8
					c-31.5-282-285.7-485.1-567.8-453.6c-242.3,27.1-426.4,218.6-453.4,450.9"/><path fill="#3f3291" d="M3427.5,2765.5c-108.8,0-215.5-32.9-305.7-95.1c-105.7-72.9-182-181-215-304.4
					c-3.6-13.5,4.4-27.3,17.9-30.9c13.5-3.6,27.3,4.4,30.9,17.9c61.7,231.3,288,385.7,526.3,359c129.7-14.5,246-78.7,327.5-180.6
					c81.5-102,118.3-229.6,103.8-359.3c-14.5-129.7-78.7-246-180.6-327.5c-102-81.5-229.6-118.3-359.3-103.8
					c-227.5,25.5-404.8,201.8-431.1,428.8c-1.6,13.8-14.1,23.8-28,22.1c-13.8-1.6-23.8-14.1-22.1-28
					c13.8-119,68.2-231.7,153.1-317.3c42.4-42.7,91.2-77.8,145-104.2c55.7-27.3,115.4-44.7,177.6-51.7
					c143.1-16,283.9,24.7,396.4,114.5c112.5,89.9,183.3,218.2,199.3,361.3c16,143.1-24.7,283.9-114.5,396.4
					c-89.9,112.5-218.2,183.3-361.3,199.3C3467.5,2764.4,3447.4,2765.5,3427.5,2765.5z"/><path fill="#f9797f" d="M3371.2,1849.1c-47.3,47.3-27.2,144.1,44.8,216.2c72,72.1,168.9,92.1,216.2,44.8
					c47.3-47.3,27.3-144.1-44.8-216.2C3515.3,1821.9,3418.5,1801.8,3371.2,1849.1z"/><path fill="#3f3291" d="M3564.2,2161c-11.5,0-23.5-1.3-36-3.8c-45.6-9.5-91.8-35.7-130.1-74c-38.3-38.3-64.6-84.5-74-130.1
					c-10.2-49.4,0.1-92.7,29.2-121.8c0,0,0,0,0,0c29.1-29.1,72.4-39.5,121.8-29.2c45.6,9.5,91.8,35.7,130.1,74
					c38.3,38.3,64.6,84.5,74,130.1c10.2,49.4-0.1,92.7-29.2,121.8C3628.2,2149.7,3598.5,2161,3564.2,2161z M3389,1866.9
					c-16.7,16.7-22.2,43.6-15.5,75.8c7.5,36.1,28.9,73.2,60.3,104.6c31.4,31.4,68.6,52.8,104.6,60.3c32.2,6.7,59.2,1.2,75.8-15.5
					c16.7-16.7,22.2-43.6,15.5-75.9c-7.5-36.1-28.9-73.2-60.3-104.6C3508.4,1850.7,3425.8,1830.2,3389,1866.9L3389,1866.9z"/><path fill="#3f3291" d="M3586.3,2158.9c-1.6,0-3.2-0.2-4.9-0.5c-13.7-2.7-22.6-15.9-19.9-29.6c8.4-43.2-16.3-102.5-61.4-147.7
				c-45.1-45.1-104.5-69.8-147.6-61.4c-13.7,2.7-26.9-6.2-29.6-19.9c-2.7-13.7,6.2-26.9,19.9-29.6c60.8-11.9,134.7,16.9,193,75.2
				c58.3,58.3,87.1,132.3,75.3,193.1C3608.7,2150.6,3598.1,2158.9,3586.3,2158.9z"/><path fill="#f9797f" d="M3114.8,2441.4c64.8,16.7,137.9-49.8,163.3-148.5c25.4-98.7-6.5-192.2-71.4-208.9
					c-64.8-16.7-137.9,49.8-163.3,148.5C3018,2331.2,3050,2424.7,3114.8,2441.4z"/><path fill="#3f3291" d="M3135.4,2469.2c-9,0-18-1.1-26.9-3.4l0,0c-39.8-10.3-70.8-42.2-87.1-90c-15.1-44.1-15.9-97.2-2.4-149.7
					c13.5-52.4,39.9-98.6,74.3-129.9c37.3-34,79.9-47,119.7-36.8c39.9,10.2,70.8,42.2,87.1,90c15.1,44.1,15.9,97.2,2.4,149.7
					c-13.5,52.4-39.9,98.6-74.3,129.9C3199.2,2455.5,3167,2469.2,3135.4,2469.2z M3186.4,2106.6c-19.1,0-39.6,9.3-59.1,27
					c-27.3,24.8-48.4,62.1-59.4,105.2c-21.5,83.6,2.9,165.2,53.2,178.2l0,0c22.8,5.9,48.8-3.1,73.2-25.2
					c27.3-24.8,48.4-62.1,59.4-105.2c11.1-43,10.6-85.9-1.3-120.8c-10.6-31.2-29.1-51.5-51.9-57.4
					C3195.9,2107.2,3191.2,2106.6,3186.4,2106.6z"/><path fill="#3f3291" d="M3166.3,2463.6c-7,0-13.9-2.9-18.9-8.5c-41.1-46.3-53.9-124.6-33.4-204.4c20.6-79.9,69.6-142.3,127.9-163
				c13.1-4.7,27.5,2.2,32.2,15.3c4.7,13.1-2.2,27.5-15.3,32.2c-41.4,14.7-80,66.2-95.9,128c-15.9,61.8-7,125.4,22.3,158.3
				c9.3,10.4,8.3,26.4-2.1,35.6C3178.3,2461.5,3172.3,2463.6,3166.3,2463.6z"/><path fill="#f9797f" d="M3782.2,2447.2c13.5-65.5-56.5-135.3-156.3-155.9c-99.8-20.5-191.7,15.9-205.2,81.4
					c-13.5,65.5,56.5,135.4,156.3,155.9C3676.8,2549.2,3768.7,2512.8,3782.2,2447.2z"/><path fill="#3f3291" d="M3632.4,2559.7c-19.8,0-40.1-2.1-60.5-6.3c-53-10.9-100.4-35-133.4-67.9c-35.7-35.6-50.9-77.5-42.6-117.8
					c8.3-40.3,38.7-72.7,85.6-91.4c43.3-17.2,96.3-20.6,149.4-9.7c53,10.9,100.4,35.1,133.4,67.9c35.7,35.6,50.8,77.5,42.5,117.8
					l0,0c-8.3,40.3-38.7,72.8-85.6,91.4C3694.6,2554.3,3664.2,2559.7,3632.4,2559.7z M3571,2310.9c-64.2,0-117.2,26.3-125.6,67
					c-4.8,23.1,5.5,48.6,28.8,71.9c26.1,26,64.4,45.3,107.9,54.2c43.5,9,86.3,6.4,120.6-7.2c30.6-12.1,50.1-31.6,54.8-54.7l0,0
					c10.5-50.9-52.1-108.7-136.7-126.1C3603.8,2312.5,3587,2310.9,3571,2310.9z"/><path fill="#3f3291" d="M3652.8,2463.6c-19.8,0-40.3-2.1-61-6.3c-80.8-16.6-145.5-62.6-169.1-119.8c-5.3-12.9,0.9-27.6,13.8-32.9
				c12.9-5.3,27.6,0.9,32.9,13.8c16.7,40.7,70,76.7,132.6,89.6c62.5,12.9,125.6,0.9,157.1-29.9c10-9.7,25.9-9.6,35.7,0.4
				c9.7,10,9.6,25.9-0.4,35.7C3761.4,2446.1,3710.1,2463.6,3652.8,2463.6z"/></g></svg>