<svg xmlns="http://www.w3.org/2000/svg" enable-background="new 0 0 496 496" viewBox="0 0 496 496"><path fill="#f0bc5e" d="M493.657,290.342C469.374,266.059,456,233.773,456,199.433v-57.271C456,63.773,392.226,0,313.837,0
			c-18.167,0-35.931,3.421-52.798,10.168L248,15.384l-13.04-5.216C218.093,3.421,200.329,0,182.163,0
			C103.774,0,40,63.773,40,142.162v57.271c0,34.341-13.374,66.626-37.657,90.909L0,292.686v3.313
			c0,0.981,0.363,22.307,29.171,33.408C25.736,339.473,24,349.965,24,360.708c0,21.988,7.565,43.554,21.301,60.724l21.639,27.049
			l14.482-43.448c11.49,19.602,27.857,36.265,47.404,47.993l17.914,10.748l-2.848-17.089c-3.153-18.915,0.822-38.153,11.195-54.259
			l0.627-0.653C120.005,370.983,96,332.297,96,288v-24H80c-17.673,0-32-14.327-32-32v0c0-17.673,14.327-32,32-32h16v-25.379
			c0-9.435,3.375-18.558,9.515-25.722l0,0C129.942,120.401,165.602,104,203.135,104h0c13.819,0,27.548,2.228,40.658,6.598L248,112
			l4.206-1.402c13.11-4.37,26.839-6.598,40.658-6.598h0c37.534,0,73.193,16.401,97.62,44.899l0,0
			c6.14,7.164,9.515,16.287,9.515,25.722V200h16c17.673,0,32,14.327,32,32v0c0,17.673-14.327,32-32,32h-16v24
			c0,44.322-24.032,83.027-59.774,103.808l0.767,0.741c10.313,16.08,14.259,35.269,11.115,54.135l-2.848,17.089l17.914-10.748
			c19.547-11.729,35.914-28.392,47.404-47.993l14.482,43.448l21.639-27.049C464.435,404.262,472,382.696,472,360.708
			c0-10.744-1.736-21.236-5.171-31.301C495.639,318.306,496,296.98,496,295.999v-3.313L493.657,290.342z"/><path d="M288 319.207C284.2 338.209 267.377 352 248 352s-36.2-13.791-40-32.793l-.155-.776-15.689 3.139.155.776C197.602 348.8 221.022 368 248 368s50.398-19.2 55.689-45.654l.155-.776-15.689-3.139L288 319.207zM240 296h24v-16h-9.842c1.212-3.597 1.842-7.407 1.842-11.314V256h-16v12.686c0 5.159-2.009 10.01-5.657 13.658-2.288 2.288-2.972 5.729-1.734 8.718S236.764 296 240 296zM312 240c-8.822 0-16-7.178-16-16h-16c0 17.645 14.355 32 32 32s32-14.355 32-32h-16C328 232.822 320.822 240 312 240zM216 224h-16c0 8.822-7.178 16-16 16s-16-7.178-16-16h-16c0 17.645 14.355 32 32 32S216 241.645 216 224z"/><path d="M416 192h-8v-17.379c0-8.236-2.154-16.28-6.155-23.367l88.217-23.524-4.123-15.459-94.949 25.32C365.329 111.065 330.02 96 292.865 96c-14.707 0-29.238 2.357-43.189 7.009L248 103.567l-1.676-.56C232.373 98.357 217.842 96 203.135 96c-37.155 0-72.464 15.066-98.124 41.59l-94.949-25.32-4.123 15.459 88.217 23.525C90.154 158.341 88 166.386 88 174.621V192h-8c-21.782 0-39.541 17.504-39.979 39.182l-34.082 9.089 4.123 15.459 32.855-8.761C48.856 261.628 63.235 272 80 272h8v16c0 59.234 40.448 109.193 95.172 123.725-2.825 26.12-12.912 50.643-29.419 71.276L143.355 496h209.29l-10.398-12.998c-16.507-20.634-26.594-45.156-29.419-71.276C367.552 397.193 408 347.234 408 288v-16h8c16.765 0 31.144-10.372 37.083-25.032l32.855 8.761 4.123-15.459-34.082-9.089C455.541 209.504 437.782 192 416 192zM416 208c11.435 0 21.022 8.042 23.418 18.766L408 218.387V208H416zM392 174.621v39.5L279.047 184l30-8H312c25.915 0 32.668 11.285 32.943 11.766-.069-.121-.098-.188-.098-.188l14.311-7.156c-.623-1.247-4.51-8.273-15.165-13.74l41.606-11.095C389.734 161.05 392 167.735 392 174.621zM203.135 112c12.984 0 25.813 2.082 38.128 6.187l6.736 2.246 6.736-2.245c12.316-4.105 25.145-6.188 38.129-6.188 29.733 0 58.132 10.924 80.058 30.408L248 175.721l-124.923-33.313C145.003 122.924 173.402 112 203.135 112zM152.01 166.682c-10.655 5.467-14.542 12.493-15.165 13.74l14.311 7.156c0 0-.029.066-.098.188C151.332 187.285 158.085 176 184 176h2.953l30 8L104 214.121v-39.5c0-6.886 2.266-13.571 6.404-19.034L152.01 166.682zM80 208h8v10.387l-31.418 8.378C58.978 216.042 68.565 208 80 208zM80 256c-9.353 0-17.468-5.381-21.426-13.207L88 234.946V256H80zM280 400v16c5.789 0 11.487-.394 17.074-1.142 2.736 23.327 10.672 45.48 23.331 65.142h-144.81c12.658-19.662 20.595-41.815 23.331-65.142C204.513 415.606 210.211 416 216 416v-16c-61.757 0-112-50.243-112-112v-57.321l144-38.4 144 38.4V288C392 349.757 341.757 400 280 400zM416 256h-8v-21.054l29.426 7.847C433.468 250.619 425.353 256 416 256zM313.837 48c29.369 0 56.549 13.39 74.573 36.735l12.665-9.777C379.999 47.657 348.202 32 313.837 32c-.66 0-1.319.006-1.978.018l.281 15.998C312.706 48.006 313.271 48 313.837 48z"/><path d="M403.911,114.681l15.301-4.68c-1.911-6.248-4.402-12.367-7.404-18.187l-14.22,7.336
			C400.152,104.12,402.28,109.346,403.911,114.681z"/></svg>