<svg xmlns="http://www.w3.org/2000/svg" enable-background="new 0 0 128 128" viewBox="0 0 128 128"><path fill="#e6e7e8" d="M80.147,70.4c7.061-0.035,12.795-5.786,12.795-12.855c0-1.366-0.228-2.701-0.643-3.972c1.268-1.013,2.103-2.854,2.103-5.009c0-1.814-0.591-3.407-1.534-4.471c0.754-7.863,1.118-33.541-25.946-35.556h-1.846c-27.069,2.016-26.7,27.701-25.946,35.559c-0.941,1.064-1.532,2.656-1.532,4.467c0,2.155,0.835,3.997,2.104,5.009c-0.415,1.271-0.642,2.605-0.642,3.971c0,7.068,5.734,12.82,12.794,12.855c-12.76,3.565-22.162,15.43-22.162,29.488v20.574c0,1.654,1.346,3,3,3h66.618c1.654,0,3-1.346,3-3V99.888C102.309,85.83,92.907,73.965,80.147,70.4z"/><path fill="#e6e7e8" d="M110.187 40.107c-.481-.268-1.091-.096-1.361.386l-3.497 6.27-1.297-2.248c-.172-.299-.487-.488-.832-.5-.367-.022-.672.155-.864.441l-5.082 7.551c-.309.458-.187 1.08.271 1.388.171.115.365.17.557.17.322 0 .638-.155.831-.442l4.187-6.221 1.377 2.387c.18.313.519.477.874.5.36-.002.69-.199.866-.513l4.355-7.809C110.843 40.985 110.669 40.376 110.187 40.107zM33.915 53.565c.192 0 .386-.055.557-.17.458-.308.58-.93.271-1.388l-5.082-7.551c-.192-.286-.507-.461-.864-.441-.345.012-.659.201-.832.5l-1.297 2.248-3.497-6.27c-.269-.481-.876-.654-1.361-.386-.482.269-.655.878-.386 1.361l4.355 7.809c.176.314.506.51.866.513.326-.029.693-.188.874-.5l1.377-2.387 4.187 6.221C33.278 53.41 33.594 53.565 33.915 53.565z"/><path fill="#0089ef" d="M70.13,66.389c-2.525,0.986-5.263,1.536-8.131,1.536c-2.866,0-5.603-0.55-8.128-1.536c-15.197,1.124-27.18,13.801-27.18,29.285v20.787c0,1.105,0.895,2,2,2h66.618c1.105,0,2-0.895,2-2V95.674C97.309,80.19,85.326,67.514,70.13,66.389z"/><path fill="#fff" d="M51.348 66.681c-13.979 2.258-24.657 14.376-24.657 28.993v3c0-14.792 10.935-27.025 25.16-29.069C51.558 68.678 51.381 67.699 51.348 66.681zM72.646 66.68c-.033 1.018-.21 1.997-.503 2.924 14.229 2.042 25.166 14.276 25.166 29.07v-3C97.309 81.055 86.628 68.936 72.646 66.68z"/><path fill="#fff" d="M61.998 67.926c-3.853 0-7.475-.988-10.654-2.708v1.426c.171 5.813 4.887 10.466 10.657 10.466 5.77 0 10.476-4.653 10.647-10.466 0-.323 0-.914 0-1.422C69.471 66.94 65.851 67.926 61.998 67.926zM84.687 44.912v.005c0 .158-.009.314-.012.472 1.024 1.078 1.847 2.349 2.412 3.75 1.342-.642 2.315-2.436 2.315-4.574 0-2.675-1.514-4.843-3.381-4.843-.474 0-.925.142-1.335.395V44.912zM36.913 49.138c.564-1.4 1.386-2.669 2.409-3.747-.003-.159-.012-.316-.012-.475v-4.801c-.409-.251-.858-.393-1.331-.393-1.867 0-3.381 2.168-3.381 4.843C34.597 46.703 35.571 48.496 36.913 49.138z"/><path fill="#fff" d="M84.675,45.388c0.003-0.157,0.012-0.313,0.012-0.472V32.506c0-1.965-0.241-3.869-0.702-5.691h-5.86c-1.204,0-2.318-0.652-2.92-1.71l-0.512-0.886c-0.301-0.509-1.034-0.509-1.325,0.01l-0.482,0.855c-0.602,1.069-1.716,1.721-2.93,1.721h-3.883c-1.194,0-2.308-0.641-2.91-1.7l-0.512-0.886c-0.301-0.509-1.034-0.509-1.325,0.01l-0.482,0.845c-0.602,1.069-1.716,1.731-2.93,1.731H54.03c-1.204,0-2.308-0.652-2.92-1.7l-0.502-0.886c-0.301-0.509-1.034-0.509-1.325,0.01l-0.482,0.845c-0.602,1.069-1.726,1.731-2.94,1.731c-1.937,0-3.552,0-4.676,0.01h-1.174c-0.462,1.822-0.702,3.726-0.702,5.691v12.411c0,0.159,0.009,0.317,0.012,0.475c-2.017,2.126-3.263,4.992-3.263,8.154c0,6.549,5.309,11.858,11.858,11.858c1.045,0,2.053-0.149,3.018-0.402c3.274,1.86,7.046,2.924,11.064,2.924c4.021,0,7.794-1.065,11.068-2.924c0.965,0.254,1.972,0.402,3.017,0.402c6.549,0,11.858-5.309,11.858-11.858C87.941,50.381,86.694,47.514,84.675,45.388z"/><g><path fill="#3a2c60" d="M76.009,66.399c0.025,0,0.05,0.004,0.074,0.004c7.09,0,12.858-5.768,12.858-12.858c0-1.371-0.229-2.71-0.647-3.985c1.268-1.012,2.108-2.842,2.108-4.995c0-1.814-0.592-3.409-1.536-4.472c0.755-7.83,1.148-33.537-25.945-35.555h-1.846C33.977,6.556,34.374,32.271,35.13,40.096c-0.942,1.064-1.533,2.656-1.533,4.469c0,2.154,0.84,3.984,2.108,4.996c-0.418,1.275-0.647,2.614-0.647,3.985c0,7.09,5.768,12.858,12.858,12.858c0.025,0,0.051-0.004,0.076-0.004c-12.841,3.546-22.301,15.322-22.301,29.275v20.788c0,1.654,1.346,3,3,3h66.618c1.654,0,3-1.346,3-3V95.674C98.309,81.721,88.849,69.945,76.009,66.399z M85.687,44.917v-4.153c1.384-0.352,2.715,1.538,2.715,3.801c0,1.211-0.376,2.315-0.939,3.028c-0.484-0.92-1.072-1.791-1.777-2.583C85.687,44.979,85.687,44.948,85.687,44.917z M35.597,44.565c0-2.083,1.09-3.843,2.381-3.843c0.111,0,0.221,0.014,0.331,0.041v4.153c0,0.033,0,0.065,0.001,0.098c-0.704,0.791-1.291,1.66-1.774,2.578C35.973,46.88,35.597,45.776,35.597,44.565z M47.917,64.403c-5.987,0-10.858-4.871-10.858-10.858c0-2.783,1.062-5.435,2.989-7.465c0.181-0.191,0.28-0.446,0.274-0.71l-0.012-12.865c0-1.589,0.167-3.164,0.495-4.691h0.391c1.115-0.01,2.715-0.01,4.633-0.01c1.605,0.023,3.062-0.849,3.843-2.236l0.277-0.487l0.298,0.526c0.791,1.355,2.24,2.196,3.784,2.196h3.884c1.567,0,3.023-0.858,3.799-2.236l0.279-0.49l0.301,0.52c0.774,1.361,2.222,2.206,3.779,2.206h3.883c1.57,0,3.027-0.854,3.801-2.229l0.279-0.495l0.299,0.518c0.777,1.367,2.229,2.216,3.789,2.216h5.068c0.329,1.526,0.495,3.101,0.495,4.691v12.411l-0.012,0.453c-0.005,0.263,0.094,0.517,0.275,0.707c1.929,2.031,2.991,4.684,2.991,7.469c0,5.987-4.871,10.858-10.858,10.858c-0.901,0-1.831-0.125-2.762-0.37c-0.25-0.066-0.521-0.031-0.748,0.098c-3.218,1.828-6.875,2.794-10.575,2.794c-3.697,0-7.352-0.966-10.57-2.794c-0.151-0.086-0.322-0.13-0.494-0.13c-0.085,0-0.171,0.011-0.254,0.033C49.748,64.279,48.818,64.403,47.917,64.403z M71.64,66.839c-0.268,5.216-4.459,9.27-9.638,9.27c-5.195,0-9.398-4.07-9.649-9.274c3.024,1.368,6.318,2.09,9.646,2.09C65.325,68.925,68.618,68.204,71.64,66.839z M79.274,117.462H44.726v-14.788c0-0.552-0.448-1-1-1s-1,0.448-1,1v14.788H28.691c-0.551,0-1-0.449-1-1V95.674c0-7.232,2.725-13.835,7.195-18.849c4.783,2.363,7.839,7.276,7.839,12.722v1.24c0,0.552,0.448,1,1,1s1-0.448,1-1v-1.24c0-5.998-3.256-11.432-8.399-14.228c3.827-3.71,8.692-6.352,14.113-7.448c0.746,5.829,5.615,10.239,11.562,10.239c5.934,0,10.793-4.398,11.549-10.241c5.425,1.094,10.294,3.737,14.123,7.45c-5.144,2.796-8.399,8.23-8.399,14.228V117.462z M96.309,95.674v20.788c0,0.551-0.449,1-1,1H81.274V89.547c0-5.446,3.057-10.358,7.84-12.722C93.584,81.84,96.309,88.443,96.309,95.674z"/><path fill="#3a2c60" d="M43.726 93.702c-.552 0-1 .448-1 1v3.972c0 .552.448 1 1 1s1-.448 1-1v-3.972C44.726 94.15 44.278 93.702 43.726 93.702zM69.88 37.214l4.443.785c.059.01.117.015.175.015.476 0 .898-.341.984-.826.096-.543-.267-1.063-.811-1.159l-4.443-.785c-.543-.095-1.063.267-1.159.811C68.973 36.599 69.336 37.118 69.88 37.214zM54.129 36.055c-.096-.544-.615-.907-1.159-.811l-4.443.785c-.544.096-.907.615-.811 1.159.086.485.508.826.984.826.058 0 .116-.005.175-.015l4.443-.785C53.862 37.118 54.226 36.599 54.129 36.055zM62 52.935c1.974 0 3.58-1.623 3.58-3.618v-1.535c0-.552-.448-1-1-1s-1 .448-1 1v1.535c0 .892-.709 1.618-1.58 1.618s-1.58-.726-1.58-1.618v-1.535c0-.552-.448-1-1-1s-1 .448-1 1v1.535C58.42 51.312 60.026 52.935 62 52.935zM71.384 40.59c-.984 0-1.782.798-1.782 1.782 0 .984.798 1.782 1.782 1.782.984 0 1.782-.798 1.782-1.782C73.166 41.387 72.368 40.59 71.384 40.59zM52.616 40.59c-.984 0-1.782.798-1.782 1.782 0 .984.798 1.782 1.782 1.782s1.782-.798 1.782-1.782C54.397 41.387 53.6 40.59 52.616 40.59zM56.525 59.882c-.319.451-.213 1.075.238 1.394.176.125.377.184.577.184.313 0 .622-.147.817-.422.481-.68.778-1.328.948-1.937h5.905c.093 0 .178-.029.263-.053.167.624.469 1.291.964 1.99.195.275.503.422.817.422.2 0 .401-.06.577-.184.451-.319.557-.943.238-1.394-1.53-2.161-.3-3.427-.146-3.572.406-.366.443-.993.08-1.404-.366-.414-.998-.453-1.412-.088-.484.427-1.046 1.24-1.227 2.315-.053-.009-.1-.031-.155-.031h-5.788c-.186-1.059-.74-1.86-1.22-2.283-.414-.365-1.046-.326-1.412.088-.365.414-.326 1.046.088 1.412C56.739 56.37 58.12 57.63 56.525 59.882zM106.188 36.107c-.481-.268-1.091-.096-1.361.386l-3.497 6.27-1.297-2.249c-.172-.299-.487-.488-.832-.5-.366-.022-.672.155-.864.441l-5.081 7.551c-.309.458-.187 1.08.271 1.388.171.115.365.17.557.17.322 0 .638-.155.831-.442l4.187-6.221 1.377 2.387c.18.313.519.477.874.5.36-.002.691-.199.866-.513l4.355-7.809C106.843 36.985 106.669 36.376 106.188 36.107zM29.916 49.565c.192 0 .386-.055.557-.17.458-.308.58-.93.271-1.388l-5.082-7.551c-.192-.286-.507-.461-.864-.441-.345.012-.659.201-.832.5l-1.297 2.248-3.497-6.27c-.269-.481-.876-.654-1.361-.386-.482.269-.655.878-.386 1.361l4.355 7.809c.176.314.506.51.866.513.326-.029.693-.188.874-.5l1.377-2.387 4.187 6.221C29.278 49.41 29.594 49.565 29.916 49.565z"/></g></svg>