<svg xmlns="http://www.w3.org/2000/svg" width="155" height="155" id="eye"><circle cx="77.5" cy="77.5" r="77.5" fill="#495057"></circle><path fill="#343B43" d="M150.511 103.518 89.68 42.68l-.34-.34a2.149 2.149 0 0 0-1.01-.46c-1.21-.2-2.51-.37-3.98-.52a2.188 2.188 0 0 0-2.399 1.949c-.04.421.03.811.21 1.16l1.04 1.04 11.173 11.173A55.278 55.278 0 0 0 77.5 54.05c-18.7 0-35.22 9.271-45.26 23.45a56.237 56.237 0 0 0 5.16 6.269l1.819 1.811 21.859 21.861c-11.22-3.001-21.587-9.014-29.749-17.481-.84-.87-2.22-.9-3.09-.06a2.182 2.182 0 0 0-.13 3.02l1.97 1.96L89.3 154.108c28.447-4.346 51.792-24.164 61.211-50.59zM111.05 49.87a2.25 2.25 0 0 0-.359-.25 67.61 67.61 0 0 0-13.141-5.58c-1.16-.35-2.38.3-2.729 1.45a2.19 2.19 0 0 0 .449 2.08l.19.189 55.229 55.229a77.04 77.04 0 0 0 2.867-10.607L111.27 50.1l-.22-.23z"></path><path fill="#FFF" d="M109.628 53.724c-.359 0-.724-.089-1.061-.275a63.418 63.418 0 0 0-12.29-5.224 2.19 2.19 0 0 1-1.456-2.731 2.19 2.19 0 0 1 2.731-1.456 67.83 67.83 0 0 1 13.14 5.585 2.188 2.188 0 0 1-1.064 4.101zm-21.649-7.495c-.118 0-.238-.01-.358-.029a60.86 60.86 0 0 0-3.719-.486 2.187 2.187 0 1 1 .447-4.353c1.466.15 2.769.321 3.982.521a2.189 2.189 0 0 1-.352 4.347zm-10.478 67.766c-18.488 0-36.466-7.653-49.321-20.998a2.19 2.19 0 0 1 3.153-3.037c12.035 12.493 28.863 19.658 46.169 19.658a63.68 63.68 0 0 0 4.058-.13 2.188 2.188 0 1 1 .281 4.367 67.4 67.4 0 0 1-4.34.14zm12.197-1.141a2.188 2.188 0 0 1-.401-4.339 63.53 63.53 0 0 0 12.047-3.524 2.189 2.189 0 0 1 1.641 4.057 67.917 67.917 0 0 1-12.879 3.769 2.268 2.268 0 0 1-.408.037zM77.501 54.055c-18.696 0-35.218 9.266-45.257 23.445 10.039 14.182 26.561 23.447 45.257 23.447s35.217-9.266 45.255-23.447c-10.038-14.18-26.559-23.445-45.255-23.445z"></path><path fill="#8FDEF6" d="M100.946 77.5c0 12.949-10.499 23.447-23.445 23.447-12.951 0-23.449-10.498-23.449-23.447S64.55 54.055 77.501 54.055c12.946 0 23.445 10.496 23.445 23.445z"></path><path fill="#495057" d="M88.584 77.5c0 6.121-4.962 11.086-11.083 11.086-6.125 0-11.087-4.965-11.087-11.086s4.962-11.084 11.087-11.084c6.121 0 11.083 4.963 11.083 11.084z"></path><path fill="#FFF" d="M75.396 69.664a5.732 5.732 0 0 1-11.462 0 5.731 5.731 0 0 1 11.462 0z"></path><circle cx="69.665" cy="79.789" r="2.037" fill="#FFF"></circle></svg>