<svg xmlns="http://www.w3.org/2000/svg" viewBox="0 0 512 512" id="prescription"><path fill="#ffcd85" d="m485.41 425.15-89.51 76.02-18.58-41.39-30.58-68.12-12.8-28.52-3.94-84.73-6.85-147.59 30.1 20.5 47.13 32.1a75.26 75.26 0 0 1 32.86 65.94l-4.55 91.37a53.083 53.083 0 0 0 14.21 38.84Z"></path><path fill="#ffc166" d="M442.9 379.57a53.083 53.083 0 0 1-14.21-38.84l4.55-91.37a75.26 75.26 0 0 0-32.86-65.94l-47.13-32.1-30.1-20.5.49 10.55 14.61 9.95 47.13 32.1a75.26 75.26 0 0 1 32.86 65.94l-4.55 91.37a53.083 53.083 0 0 0 14.21 38.84l42.51 45.58-78.65 66.797 4.14 9.223 89.51-76.02Z"></path><path fill="#ffc166" d="M353.25 151.32v233.25l-6.51 7.09-17.08 18.61a62.614 62.614 0 0 1-2.73-19.9l.41-16.75a39.041 39.041 0 0 0-8.29-25.01l-55.43-70.91a14.525 14.525 0 0 1 1.5-19.53 32.552 32.552 0 0 1 45.22.65L330 278.41l-6.85-147.59Z"></path><path fill="#f2f2f2" d="M338.25 41.17v343.4l-23.59 25.7v.01l-45.14 49.19H57.7a33.743 33.743 0 0 1-33.8-33.67V41.17A33.737 33.737 0 0 1 57.7 7.5h246.75a33.73 33.73 0 0 1 33.8 33.67Z"></path><path fill="#bebebe" d="M269.521 459.467v-68.161a6.747 6.747 0 0 1 6.76-6.733h61.969Z"></path><path fill="#dedede" d="M338.25 301.57v83l-23.59 25.7a62.614 62.614 0 0 1-2.73-19.9l.41-16.75a39.041 39.041 0 0 0-8.29-25.01l-55.43-70.91a14.525 14.525 0 0 1 1.5-19.53 32.552 32.552 0 0 1 45.22.65L315 278.41Z"></path><path fill="#adadad" d="m312.072 384.573-.142 5.797a62.614 62.614 0 0 0 2.73 19.9l23.588-25.698Z"></path><path fill="#ffcd85" d="m383.53 425.15-6.21 34.63-3.07 17.13-35.15-47.85a62.725 62.725 0 0 1-12.17-38.69l.41-16.75a39.041 39.041 0 0 0-8.29-25.01l-55.43-70.91a14.525 14.525 0 0 1 1.5-19.53 32.552 32.552 0 0 1 45.22.65L330 278.41l23.25 23.16 1.8 1.79Z"></path><path fill="#ffc166" d="M265.125 273.173a32.543 32.543 0 0 1 45.218.652l34.323 34.187a5.189 5.189 0 0 0 8.821-4.23l-.237-2.212-42.907-42.745a32.543 32.543 0 0 0-45.218-.652 14.509 14.509 0 0 0-2.487 18.08 14.557 14.557 0 0 1 2.487-3.08Z"></path><path fill="#ffc570" d="m327.1 383.325-.172 7.048a62.65 62.65 0 0 0 .204 6.639l.204-8.389a39.01 39.01 0 0 0-.236-5.298Z"></path><path fill="#66c1ff" d="m481.288 437.842-85.39 63.326a16.944 16.944 0 0 1-23.648-3.45l-19.962-26.704a16.79 16.79 0 0 1 3.463-23.555l85.39-63.326a16.944 16.944 0 0 1 23.648 3.449l19.962 26.705a16.79 16.79 0 0 1-3.463 23.555Z"></path><path fill="#4eb7ff" d="m484.751 414.287-19.962-26.705a16.944 16.944 0 0 0-23.648-3.45l-5.745 4.261 19.355 25.894a16.79 16.79 0 0 1-3.463 23.555l-79.645 59.065.607.811a16.944 16.944 0 0 0 23.648 3.45l85.39-63.326a16.79 16.79 0 0 0 3.463-23.555Z"></path><rect width="224.346" height="69" x="68.903" y="52.5" fill="#bebebe" rx="8"></rect><path fill="#66c1ff" d="M136.79 177.21a19.088 19.088 0 0 1-5.61 13.54l-29.58 29.58a19.152 19.152 0 1 1-27.09-27.08l14.79-14.79 14.79-14.79a19.155 19.155 0 0 1 32.7 13.54Z"></path><path fill="#4eb7ff" d="M131.18 163.67a19.152 19.152 0 0 0-21.045-4.072 19.139 19.139 0 0 1 6.045 31.152L86.6 220.33a19.075 19.075 0 0 1-6.045 4.072 19.152 19.152 0 0 0 21.045-4.072l29.58-29.58a19.145 19.145 0 0 0 0-27.08Z"></path><path fill="#ffe64e" d="M136.79 177.21a19.088 19.088 0 0 1-5.61 13.54l-14.79 14.79-27.09-27.08 14.79-14.79a19.155 19.155 0 0 1 32.7 13.54Z"></path><path fill="#ffdf1f" d="M131.18 163.67a19.338 19.338 0 0 0-1.314-1.187c-.137-.115-.278-.222-.418-.332q-.493-.388-1.006-.74c-.153-.104-.306-.21-.462-.31q-.6-.386-1.22-.722c-.089-.048-.174-.103-.263-.149-.486-.254-.982-.48-1.484-.689-.187-.078-.377-.146-.565-.217q-.497-.189-1.001-.35c-.22-.07-.441-.138-.663-.2a19.082 19.082 0 0 0-.99-.241c-.213-.047-.425-.103-.639-.142-.486-.09-.975-.16-1.465-.212-.277-.03-.555-.043-.833-.06-.254-.017-.509-.031-.764-.037a19.389 19.389 0 0 0-.908 0c-.22.005-.441.018-.662.031a19.243 19.243 0 0 0-3.362.497c-.166.04-.332.077-.497.12-.341.092-.68.195-1.016.305-.162.053-.322.111-.483.17-.345.123-.69.248-1.03.392a19.139 19.139 0 0 1 6.045 31.153l-7.291 7.291 7.501 7.499 14.79-14.79a19.145 19.145 0 0 0 0-27.08Z"></path><path fill="#66c1ff" d="M136.79 286.71a19.088 19.088 0 0 1-5.61 13.54l-29.58 29.58a19.152 19.152 0 0 1-27.09-27.08l14.79-14.79 14.79-14.79a19.155 19.155 0 0 1 32.7 13.54Z"></path><path fill="#4eb7ff" d="M131.18 273.17a19.152 19.152 0 0 0-21.045-4.072 19.139 19.139 0 0 1 6.045 31.152L86.6 329.83a19.075 19.075 0 0 1-6.045 4.072 19.152 19.152 0 0 0 21.045-4.072l29.58-29.58a19.145 19.145 0 0 0 0-27.08Z"></path><path fill="#ffe64e" d="M136.79 286.71a19.088 19.088 0 0 1-5.61 13.54l-14.79 14.79-27.09-27.08 14.79-14.79a19.155 19.155 0 0 1 32.7 13.54Z"></path><path fill="#ffdf1f" d="M131.18 273.17a19.339 19.339 0 0 0-1.314-1.187c-.137-.115-.278-.222-.418-.332q-.493-.388-1.006-.74c-.153-.104-.306-.21-.462-.31q-.6-.386-1.22-.722c-.089-.048-.174-.103-.263-.149-.486-.254-.982-.48-1.484-.689-.187-.078-.377-.146-.565-.217q-.497-.189-1.001-.35c-.22-.07-.441-.138-.663-.2a19.061 19.061 0 0 0-.99-.241c-.213-.047-.425-.103-.639-.142-.486-.09-.975-.16-1.465-.212-.277-.03-.555-.043-.833-.06-.254-.017-.509-.031-.764-.037a19.389 19.389 0 0 0-.908 0c-.22.005-.441.018-.662.031a19.244 19.244 0 0 0-3.362.497c-.166.04-.332.077-.497.121-.341.092-.68.194-1.016.304-.162.053-.322.112-.483.17-.345.123-.69.248-1.03.392a19.139 19.139 0 0 1 6.045 31.153l-7.291 7.291 7.501 7.499 14.79-14.79a19.145 19.145 0 0 0 0-27.08Z"></path><path fill="#313440" d="M178.903 286.5a7.5 7.5 0 0 0 0 15h54.347a7.5 7.5 0 0 0 0-15Zm114.347-80H178.903a7.5 7.5 0 0 0 0 15H293.25a7.5 7.5 0 0 0 0-15ZM76.903 129H285.25a15.517 15.517 0 0 0 15.5-15.5v-53a15.517 15.517 0 0 0-15.5-15.5H76.903a15.517 15.517 0 0 0-15.5 15.5v53a15.517 15.517 0 0 0 15.5 15.5Zm-.5-68.5a.5.5 0 0 1 .5-.5H285.25a.5.5 0 0 1 .5.5v53a.5.5 0 0 1-.5.5H76.903a.5.5 0 0 1-.5-.5Zm216.847 116H178.903a7.5 7.5 0 0 0 0 15H293.25a7.5 7.5 0 0 0 0-15Zm197.508 233.296-19.961-26.704a24.458 24.458 0 0 0-23.187-9.512 45.852 45.852 0 0 1-11.43-32.477l4.551-91.371a83.288 83.288 0 0 0-36.129-72.51l-58.852-40.088V41.167A41.28 41.28 0 0 0 304.449 0H57.704a41.28 41.28 0 0 0-41.3 41.167V425.8a41.28 41.28 0 0 0 41.3 41.167H269.52a7.483 7.483 0 0 0 .78-.04c.06-.007.119-.02.179-.028a7.55 7.55 0 0 0 .583-.092c.095-.02.186-.05.28-.073.156-.04.312-.075.465-.124.095-.03.186-.07.28-.105.148-.054.298-.105.443-.168.084-.037.163-.083.245-.122.15-.072.301-.142.446-.224.077-.044.149-.096.224-.142.145-.09.29-.176.43-.275.084-.06.163-.13.245-.194.122-.095.248-.187.365-.29a7.481 7.481 0 0 0 .562-.552l47.55-51.815a70.421 70.421 0 0 0 10.462 20.78l11.465 15.609a24.307 24.307 0 0 0 1.757 26.392l19.961 26.704a24.475 24.475 0 0 0 34.124 4.984l85.39-63.326a24.29 24.29 0 0 0 5.002-34.07Zm-213.737 30.406v-48.13h42.403q.003.946.03 1.89Zm42.817-66.762-.088 3.633h-43.468a14.263 14.263 0 0 0-14.26 14.233v60.661H57.703a26.264 26.264 0 0 1-26.3-26.167V41.167A26.264 26.264 0 0 1 57.703 15h246.745a26.264 26.264 0 0 1 26.3 26.167v227.398l-15.113-15.054a39.852 39.852 0 0 0-55.648-.803 21.921 21.921 0 0 0-2.273 29.615l55.426 70.902a31.661 31.661 0 0 1 6.697 20.215Zm25.31 51.183a55.558 55.558 0 0 1-10.722-34.068l.407-16.75a46.695 46.695 0 0 0-9.875-29.818l-55.425-70.903a6.993 6.993 0 0 1 .729-9.446 24.912 24.912 0 0 1 34.788.5l44.707 44.532a7.5 7.5 0 1 0 10.586-10.628l-14.593-14.536V155.283l50.409 34.336a68.197 68.197 0 0 1 29.59 59.368l-4.55 91.372a60.968 60.968 0 0 0 12.517 39.943l-78.41 58.149Zm135.35 1.06a9.26 9.26 0 0 1-3.678 6.134l-85.39 63.327a9.45 9.45 0 0 1-13.173-1.916l-19.962-26.705a9.265 9.265 0 0 1 .144-11.304 7.495 7.495 0 0 0 1.509-1.514c.091-.073.176-.152.27-.222l85.39-63.326a9.45 9.45 0 0 1 13.174 1.915l19.962 26.705a9.226 9.226 0 0 1 1.754 6.905ZM248.25 316.5h-69.347a7.5 7.5 0 0 0 0 15h69.347a7.5 7.5 0 0 0 0-15Zm-23.728 60.573H68.903a7.5 7.5 0 1 0 0 15h155.618a7.5 7.5 0 0 0 0-15ZM98.787 268.365l-29.578 29.577a26.653 26.653 0 0 0 37.693 37.693l29.577-29.577a26.653 26.653 0 1 0-37.692-37.693Zm-2.492 56.663a11.653 11.653 0 1 1-16.48-16.48l9.486-9.485 16.48 16.48Zm29.578-29.577-9.486 9.486-16.48-16.48 9.486-9.485a11.653 11.653 0 1 1 16.48 16.48Zm10.606-137.086a26.683 26.683 0 0 0-37.692 0l-29.578 29.577a26.653 26.653 0 0 0 37.693 37.693l29.577-29.577a26.682 26.682 0 0 0 0-37.693Zm-40.184 56.663a11.653 11.653 0 0 1-16.48-16.48l9.486-9.485 16.48 16.48Zm29.578-29.577-9.486 9.486-16.48-16.48 9.486-9.485a11.653 11.653 0 0 1 16.48 16.48Zm53.648 221.622H68.903a7.5 7.5 0 1 0 0 15h110.618a7.5 7.5 0 0 0 0-15Z"></path></svg>