<svg xmlns="http://www.w3.org/2000/svg" width="155" height="155" id="eye"><circle cx="77.5" cy="77.5" r="77.5" fill="#FF6D3B"></circle><path fill="#FFF" d="M77.5 57.021c-16.332 0-30.763 8.089-39.531 20.479C46.737 89.884 61.168 97.979 77.5 97.979s30.763-8.096 39.531-20.479C108.263 65.109 93.832 57.021 77.5 57.021z"></path><circle cx="77.5" cy="77.5" r="20.48" fill="#16C6CC"></circle><path fill="#242D3C" d="M87.184 77.5c0 5.343-4.332 9.684-9.684 9.684s-9.684-4.341-9.684-9.684c0-5.35 4.332-9.686 9.684-9.686s9.684 4.336 9.684 9.686z"></path><circle cx="70.655" cy="70.654" r="4.842" fill="#FFF"></circle><path fill="#FFF" d="M100.373 27.082v-.747H81.307a3.806 3.806 0 0 1-2.691-6.493 3.818 3.818 0 0 1 2.691-1.113h19.066v-.739H88.178a3.776 3.776 0 0 1-2.691-1.121 3.783 3.783 0 0 1-1.12-2.697c0-.965.375-1.939 1.12-2.685.739-.739 1.715-1.115 1.96-1.115h40.616v32.671H80.574c-.238 0-1.215-.368-1.953-1.113a3.812 3.812 0 0 1-1.121-2.691c0-.976.377-1.951 1.121-2.69a3.764 3.764 0 0 1 2.686-1.108h19.066v-.752H81.307a3.772 3.772 0 0 1-2.686-1.114 3.784 3.784 0 0 1-1.121-2.69c0-.969.377-1.939 1.121-2.685a3.745 3.745 0 0 1 2.686-1.114h19.066z"></path><path fill="#FFF" d="M112.432 41.91c-4.177 4.177-6.48 9.73-6.48 15.636a3.807 3.807 0 0 0 7.613 0c0-3.878 1.509-7.519 4.247-10.256a14.41 14.41 0 0 1 10.252-4.249v-7.604c-5.902.001-11.457 2.297-15.632 6.473z"></path><path fill="#3E4959" d="M128.063 9.5h12.734v34.413h-12.734z"></path><path fill="#242D3C" d="M128.063 26.706h12.734v17.207h-12.734z"></path><path fill="#FFF" d="M54.627 127.919v.745h19.066c.971 0 1.947.375 2.691 1.114a3.807 3.807 0 0 1-2.691 6.494H54.627v.738h12.195a3.78 3.78 0 0 1 2.691 1.121 3.784 3.784 0 0 1 1.12 2.697c0 .965-.375 1.939-1.12 2.685-.739.74-1.715 1.115-1.96 1.115H26.938v-32.671h47.488c.238 0 1.215.369 1.953 1.113a3.803 3.803 0 0 1 1.121 2.691c0 .977-.375 1.951-1.121 2.691a3.767 3.767 0 0 1-2.686 1.107H54.627v.752h19.066c.971 0 1.947.37 2.686 1.109a3.788 3.788 0 0 1 0 5.38 3.747 3.747 0 0 1-2.686 1.115H54.627z"></path><path fill="#FFF" d="M42.568 113.09a21.97 21.97 0 0 0 6.48-15.637 3.807 3.807 0 0 0-7.613 0c0 3.879-1.509 7.52-4.247 10.258a14.413 14.413 0 0 1-10.252 4.248v7.604a21.962 21.962 0 0 0 15.632-6.473z"></path><path fill="#3E4959" d="M14.204 111.088h12.734V145.5H14.204z"></path><path fill="#242D3C" d="M14.204 128.293h12.734V145.5H14.204z"></path></svg>