<?xml version="1.0" encoding="utf-8"?>
<!-- Generator: Adobe Illustrator 23.0.1, SVG Export Plug-In . SVG Version: 6.00 Build 0)  -->
<svg version="1.1" id="Capa_1" xmlns="http://www.w3.org/2000/svg" xmlns:xlink="http://www.w3.org/1999/xlink" x="0px" y="0px"
	 viewBox="0 0 512 512" style="enable-background:new 0 0 512 512;" xml:space="preserve">
<style type="text/css">
	.st0{fill:#FFDEAA;}
	.st1{fill:#FAC38F;}
	.st2{fill:#F7F5F3;}
	.st3{fill:#EBE6E1;}
	.st4{fill:#7C5B25;}
	.st5{fill:#6B4D22;}
	.st6{fill:#232323;}
	.st7{fill:#070707;}
	.st8{opacity:0.71;}
	.st9{fill:#FFFFFF;}
	.st10{fill:#FF0000;}
	.st11{fill:#F20A0A;}
	.st12{fill:#AD2A2A;}
</style>
<g>
	<g>
		<path class="st0" d="M259.8,498.1c-25.6,0-52.1-7-78.7-20.9c-20.9-10.9-41.8-25.9-62.3-44.8c-34.7-31.8-56-63.3-56.9-64.6
			c-2.7-4-2.7-9.1,0-13.1c0.9-1.3,22.3-32.7,56.9-64.6c20.5-18.8,41.5-33.9,62.3-44.8c26.6-13.7,53-20.7,78.7-20.7
			c25.6,0,52.1,7,78.7,20.9c20.9,10.9,41.8,25.9,62.3,44.8c34.7,31.8,56,63.3,56.9,64.6c2.7,4,2.7,9.1,0,13.1
			c-0.9,1.3-22.3,32.7-56.9,64.6c-20.5,18.8-41.5,33.9-62.3,44.8C311.9,491,285.4,498.1,259.8,498.1L259.8,498.1z"/>
		<path class="st1" d="M400.9,290.2c-20.5-18.8-41.5-33.9-62.3-44.8c-26.6-13.7-53.1-20.8-78.7-20.8v273.4c25.6,0,52.1-7,78.7-20.9
			c20.9-10.9,41.8-25.9,62.3-44.8c34.7-31.8,56-63.3,56.9-64.6c2.7-4,2.7-9.1,0-13.1C456.9,353.5,435.6,322.1,400.9,290.2z"/>
		<path class="st2" d="M259.8,451.2c-56.3,0-106.6-22.1-139-40.6C86,390.7,64.5,370.8,63.6,370c-2.4-2.2-3.7-5.3-3.7-8.6
			s1.3-6.4,3.7-8.6c0.9-0.9,22.4-20.7,57.3-40.6c32.3-18.5,82.6-40.6,139-40.6s106.6,22.1,139,40.6c34.8,20,56.4,39.8,57.3,40.6
			c2.4,2.2,3.7,5.3,3.7,8.6s-1.3,6.4-3.7,8.6c-0.9,0.9-22.4,20.7-57.3,40.6C366.4,429.1,316.1,451.2,259.8,451.2L259.8,451.2z"/>
		<path class="st3" d="M398.8,312.2c-32.3-18.5-82.6-40.6-139-40.6v179.7c56.3,0,106.6-22.1,139-40.6c34.8-20,56.4-39.8,57.3-40.6
			c2.4-2.2,3.7-5.3,3.7-8.6s-1.3-6.4-3.7-8.6C455.1,351.9,433.6,332.1,398.8,312.2L398.8,312.2z"/>
		<path class="st4" d="M259.8,451.2c-49.5,0-89.8-40.3-89.8-89.8s40.3-89.8,89.8-89.8s89.8,40.3,89.8,89.8S309.3,451.2,259.8,451.2z
			"/>
		<path class="st5" d="M349.6,361.4c0-49.5-40.3-89.8-89.8-89.8v179.7C309.3,451.2,349.6,410.9,349.6,361.4z"/>
		<path class="st6" d="M259.8,396.5c-19.4,0-35.2-15.8-35.2-35.2c0-19.4,15.8-35.2,35.2-35.2c19.4,0,35.2,15.8,35.2,35.2
			C294.9,380.7,279.2,396.5,259.8,396.5z"/>
		<path class="st7" d="M294.9,361.4c0-19.4-15.8-35.2-35.2-35.2v70.3C279.2,396.5,294.9,380.7,294.9,361.4z"/>
	</g>
	<g class="st8">
		<path class="st9" d="M260.1,303.1c8.3-0.2,15.1-7.1,15-15.4c0-8.5-7.2-15.6-15.6-15.4c-8.3,0.3-15,7.1-15,15.4
			C244.4,296.1,251.6,303.2,260.1,303.1z M259.7,280.7c2.3,3.3,4.7,5.2,4.6,6.8c0,0,0,0,0,0C264.4,285.8,262,283.9,259.7,280.7
			c-2.2,3.2-4.7,5.3-4.6,6.8c0,0,0,0,0,0C254.8,286,257.4,283.9,259.7,280.7z"/>
		<path class="st9" d="M260,327.4c-7.2-0.1-13.1,5.6-13.2,12.8c-0.1,7.1,5.9,13.1,13,13.2c6.8,0,12.7-5.8,12.9-12.7
			C272.9,333.5,267.2,327.5,260,327.4z M260.1,344.2c-1.7-0.3-3-2.6-4.5-4c0,0,0,0,0,0C257.1,341.7,258.4,343.9,260.1,344.2
			c1.2,0.1,2.9-2.2,5.5-4.3c-1.7-1.1-3.1-2.3-4.2-3c1.1,0.7,2.4,1.9,4.2,3C263.1,342.1,261.4,344.5,260.1,344.2z"/>
		<path class="st9" d="M195.6,359.7c-8.8-0.1-15.6,6.5-15.9,15.2c-0.2,8.9,6.7,16.2,15.6,16.3c8.8,0.1,16.1-7.3,16-16
			C211.2,366.6,204.3,359.8,195.6,359.7z M194.9,370.2c1.9,1.7,4.9,3.1,5.4,5.1C199.7,373.3,196.8,371.9,194.9,370.2z M195.8,382.5
			c2.1-3.2,4.5-5.4,4.5-6.9C200.3,377.1,197.9,379.4,195.8,382.5z"/>
		<path class="st9" d="M236.2,413.7c-7.9,0.1-14.2,6.7-14,14.6c0.2,7.8,6.6,13.9,14.2,13.8c8-0.1,14.4-6.5,14.4-14.3
			C250.8,420.2,243.9,413.5,236.2,413.7z"/>
		<path class="st9" d="M324.1,379.8c-7.3,0.1-13,5.6-13.2,12.7c-0.1,7.3,5.9,13.4,13.2,13.3c7.5,0,13.2-5.8,13.1-13.3
			C337.1,385.3,331.5,379.8,324.1,379.8z M320.5,394.3c0.7,1.2,2.4,2.5,3.9,4.5C322.8,396.9,321.1,395.5,320.5,394.3z M324.7,398.2
			c1.8-2.5,3.8-4.3,3.4-5.5c-0.4-1.7-2.8-2.8-4.4-4.2c0,0,0,0,0,0c1.5,1.3,4.1,2.5,4.5,4.2C328.5,394,326.5,395.8,324.7,398.2z"/>
		<path class="st9" d="M316.8,350.2c9.2-3.6,14-13.5,13.2-24.5c-0.3-4.2-0.9-8.6-6.5-8.4c-5.8,0.2-5.7,4.6-5.4,8.9
			c0.5,7-1.9,12.1-9,14.7c-10.6,4-14.8,12.5-15.3,23.5c0.1,1.5-0.3,3.4,0.5,4.4c1.9,2.5,4.3,4.3,6.5,6.5c1.8-2.5,5.1-5.1,4.9-7.4
			C305.1,358.9,308.2,353.6,316.8,350.2z"/>
		<path class="st9" d="M288.8,404.4c-2.5-1.8-5-5.1-7.3-5c-8.8,0.5-14.3-2.5-17.6-11.2c-3.9-10.1-18.8-16-28.7-12
			c-2,0.8-4.2,4-4,5.9c0.2,1.9,3,3.6,5.1,5c1,0.6,2.6,0,4-0.1c7.1-0.4,12,2.2,14.6,9.3c3.8,10.5,12.3,14.3,22.4,14.8
			c2.1,0,4.1,0.5,5.2-0.3C284.8,409,286.8,406.6,288.8,404.4z"/>
		<path class="st9" d="M234.7,303.7c-3.2,1.3-9.1,2.3-9.3,3.8c-1,8.5-7.7,8.9-13.3,11.4c-9.1,4-13.2,12.8-10.2,22.9
			c3.4-1.4,9.5-2.4,9.7-4.1c1-7.5,6.5-8.3,11.7-10.4C233.8,323.2,238.4,314.2,234.7,303.7z"/>
		<path class="st9" d="M283.6,427.3c0.3,2.3,3.2,4.3,5,6.5c2.1-2,5.2-3.6,5.7-5.9c0.4-1.8-2.5-4.2-4.9-7.8
			C286.7,423.3,283.4,425.5,283.6,427.3z"/>
		<path class="st9" d="M230.9,352c-2,2.1-5.1,3.7-5.6,6.1c-0.4,1.8,2.6,4.2,5.3,8c2.6-3.8,5.4-6.2,5.3-8.1
			C235.7,355.8,232.7,353.9,230.9,352z"/>
		<path class="st9" d="M183.7,346c1.9-1.9,5-3.5,5.3-5.6c0.3-2-2.4-4.4-4.7-8.3c-2.8,3.6-6,5.9-5.8,7.6
			C178.8,342,181.8,344,183.7,346z"/>
		<path class="st9" d="M272.1,375.6c-0.1,2,2.6,4.1,5.3,7.8c2.6-3.7,5.6-6.3,5.2-7.8c-0.5-2.4-3.6-4-5.7-6
			C275.2,371.6,272.2,373.5,272.1,375.6z"/>
		<path class="st9" d="M300.2,322.9c-0.7-2.3-3.9-3.7-6-5.6c-1.7,2.1-4.5,4-4.6,6.1c0,2,2.8,4,5.7,7.6
			C297.8,327.1,300.7,324.5,300.2,322.9z"/>
	</g>
</g>
<g id="Page-1">
	<g transform="translate(-1 -1)">
		<path id="Shape" class="st10" d="M409.9,117.2l-23.7-59.4c-3.9-9.9-11.6-17.7-21.4-21.9s-20.8-4.3-30.6-0.4l-61.8,24.7
			C258,66,248.3,79.6,247.4,95.1l-2.3,40.7L254,158l29.7,27.9c11.3,10.6,27.8,13.7,42.2,8l61.8-24.7c9.9-3.9,17.7-11.6,21.9-21.4
			S413.9,127.1,409.9,117.2z M389.1,108.3l-29.7,11.9l-11.9-29.7l29.7-11.8L389.1,108.3z M344.6,126.1L314.9,138L303,108.3
			l29.7-11.9L344.6,126.1z M340.1,50.4c12.3-4.9,26.3,1.1,31.2,13.4l-29.7,11.8l-8.9-22.3L340.1,50.4z M317.9,59.3l8.9,22.3
			l-29.7,11.9l-8.9-22.3L317.9,59.3z M263.3,96c0.5-7.3,4.2-14.1,10.2-18.3l8.7,21.7l-19.5,7.8L263.3,96z M267.5,148.8l-6.3-15.6
			l0.4-8.3l26.5-10.5l11.9,29.7l-26.4,10.6L267.5,148.8z M294.6,174.3l-8.1-7.7l19.5-7.8l8.7,21.7
			C307.4,181.6,300,179.3,294.6,174.3z M329.7,175.1l-8.9-22.3l29.7-11.8l8.9,22.3L329.7,175.1z M381.7,154.4l-7.4,3l-8.9-22.3
			l29.7-11.9C400,135.5,394,149.4,381.7,154.4z"/>
		<path class="st11" d="M245.1,135.7L254,158l-18.6,7.4c-2.1,0.8-4.4-0.2-5.2-2.2l-5.9-14.9c-0.8-2.1,0.2-4.4,2.2-5.2L245.1,135.7z"
			/>
		<path class="st12" d="M224.5,145.5l8.3,20.6L124,209.6c-5.7,2.3-12.2-0.5-14.4-6.2c-2.3-5.7,0.5-12.2,6.2-14.4L224.5,145.5z"/>
	</g>
</g>
</svg>
