<?xml version="1.0" encoding="utf-8"?>
<!-- Generator: Adobe Illustrator 23.0.3, SVG Export Plug-In . SVG Version: 6.00 Build 0)  -->
<svg version="1.1" id="headache" xmlns="http://www.w3.org/2000/svg" xmlns:xlink="http://www.w3.org/1999/xlink" x="0px" y="0px"
	 viewBox="0 0 512 512" style="enable-background:new 0 0 512 512;" xml:space="preserve">
<style type="text/css">
	.st0{fill:#EFEFD2;}
	.st1{fill:#F4AEAB;}
	.st2{fill:#4C241D;}
	.st3{fill:#BF7E68;}
	.st4{fill:#F7BA61;}
</style>
<circle class="st0" cx="201.4" cy="215" r="146.8"/>
<g>
	<path class="st1" d="M369.1,300.8h-7.3v-55h7.3c15.2,0,27.5,12.3,27.5,27.5C396.6,288.4,384.3,300.8,369.1,300.8z"/>
	<path class="st2" d="M369.1,307.6h-7.3c-3.8,0-6.8-3.1-6.8-6.8v-55c0-3.8,3.1-6.8,6.8-6.8h7.3c18.9,0,34.3,15.4,34.3,34.3
		C403.5,292.2,388.1,307.6,369.1,307.6L369.1,307.6z M368.6,293.9h0.5c11.4,0,20.7-9.3,20.7-20.7c0-11.4-9.3-20.7-20.7-20.7h-0.5
		V293.9z"/>
</g>
<g>
	<path class="st1" d="M150.4,245.8h7.3v55h-7.3c-15.2,0-27.5-12.3-27.5-27.5S135.2,245.8,150.4,245.8z"/>
	<path class="st2" d="M157.7,307.6h-7.3c-18.9,0-34.3-15.4-34.3-34.3s15.4-34.3,34.3-34.3h7.3c3.8,0,6.8,3.1,6.8,6.8v55
		C164.5,304.5,161.5,307.6,157.7,307.6z M150.4,252.6c-11.4,0-20.7,9.3-20.7,20.7c0,11.4,9.3,20.7,20.7,20.7h0.5v-41.3H150.4z"/>
</g>
<g>
	<path class="st3" d="M157,169.5h204.8v246.9H157V169.5z"/>
	<path class="st2" d="M361.8,423.3H157c-3.8,0-6.8-3.1-6.8-6.8V169.5c0-3.8,3.1-6.8,6.8-6.8h204.8c3.8,0,6.8,3.1,6.8,6.8v246.9
		C368.6,420.2,365.6,423.3,361.8,423.3z M163.8,409.6H355V176.3H163.8V409.6z"/>
</g>
<g>
	<path class="st1" d="M218.5,464.2v-88.7h81.9v88.7"/>
	<path class="st2" d="M300.4,471c-3.8,0-6.8-3.1-6.8-6.8v-81.9h-68.2v81.9c0,3.8-3.1,6.8-6.8,6.8c-3.8,0-6.8-3.1-6.8-6.8v-88.7
		c0-3.8,3.1-6.8,6.8-6.8h81.9c3.8,0,6.8,3.1,6.8,6.8v88.7C307.2,468,304.1,471,300.4,471z"/>
</g>
<g>
	<path class="st1" d="M322.3,369.9l-1.8,1c-36.5,20.6-81,21-118,1.2l-4.6-2.5c-25.2-13.5-40.9-39.8-40.9-68.4v-141l68.3-50.9
		l136.5,50.9v142.1C361.8,330.3,346.7,356.1,322.3,369.9z"/>
	<path class="st2" d="M260.5,393.5c-21,0-41.9-5.1-61.1-15.4l-4.6-2.5c-27.5-14.7-44.5-43.2-44.5-74.4v-141c0-2.2,1-4.2,2.7-5.5
		l68.3-50.9c1.9-1.4,4.3-1.7,6.5-0.9l136.5,50.9c2.7,1,4.4,3.5,4.4,6.4v142.1c0,30.5-16.5,58.7-43,73.6c0,0,0,0,0,0l-1.7,1
		C304.1,387.9,282.3,393.5,260.5,393.5L260.5,393.5z M163.8,163.6v137.6c0,26.1,14.3,50,37.3,62.4l4.6,2.5
		c35.1,18.8,76.7,18.4,111.4-1.1l1.7-1c22.2-12.5,36.1-36.2,36.1-61.7V164.9l-128.6-48L163.8,163.6z M322.3,369.9L322.3,369.9
		L322.3,369.9z"/>
</g>
<g>
	<path class="st3" d="M157,225.8v-60.1c0-49.7,41.9-89.9,93.5-89.9h17.7c51.7,0,93.5,40.3,93.5,89.9v60.1c0,0-44.3,0-132.8-73
		c-9-7.5-22-8.5-31.8-2.1C180.1,161.9,157,184.6,157,225.8L157,225.8z"/>
	<path class="st2" d="M361.8,232.6c-1.9,0-47.8-0.8-137.2-74.5c-6.8-5.6-16.6-6.3-23.7-1.7c-16.9,11.1-37.1,32.1-37.1,69.4
		c0,3.8-3.1,6.8-6.8,6.8c-3.8,0-6.8-3.1-6.8-6.8v-60.1c0-53.3,45-96.7,100.4-96.7h17.7c55.3,0,100.4,43.4,100.4,96.7v60.1
		C368.6,229.5,365.6,232.6,361.8,232.6z M211.5,139.6c7.7,0,15.4,2.7,21.8,7.9c65.6,54,106.3,67.2,121.6,70.4v-52.2
		c0-45.8-38.9-83.1-86.7-83.1h-17.7c-47.8,0-86.7,37.3-86.7,83.1v9.5c9.1-14.9,21-24.6,29.7-30.3C199,141.3,205.2,139.6,211.5,139.6
		L211.5,139.6z"/>
</g>
<g>
	<path class="st2" d="M183.4,212.3c-2.3,0-4.6-1.2-5.9-3.3c-1.9-3.2-0.9-7.4,2.4-9.4c25.3-15.1,47.5-1.3,48.5-0.7
		c3.2,2,4.1,6.3,2.1,9.4c-2,3.2-6.2,4.1-9.4,2.1c-0.7-0.5-16.3-9.8-34.1,0.9C185.8,212,184.6,212.3,183.4,212.3L183.4,212.3z"/>
	<path class="st2" d="M272.6,329.4c-2,0-3.9-0.9-5.3-2.5c-2.6-3.2-6.6-4.9-10.7-4.5c-3.3,0.3-6.3,1.9-8.4,4.4
		c-2.4,2.9-6.7,3.3-9.6,0.9c-2.9-2.4-3.3-6.7-0.9-9.6c4.5-5.3,10.7-8.6,17.7-9.2c8.6-0.8,17,2.8,22.5,9.5c2.4,2.9,1.9,7.2-1,9.6
		C275.7,328.9,274.1,329.4,272.6,329.4L272.6,329.4z"/>
	<path class="st2" d="M361.8,232.1c-1.9,0-3.8-0.8-5.1-2.3l-54.6-61.4c-2.5-2.8-2.2-7.1,0.6-9.6c2.8-2.5,7.1-2.2,9.6,0.6l33,37.2
		c-9.5-25.3-25.9-59.5-48.7-74.7c-3.1-2.1-4-6.3-1.9-9.5c2.1-3.1,6.3-4,9.5-1.9c42.7,28.4,63.4,109.8,64.3,113.2
		c0.8,3-0.7,6.2-3.4,7.7C364,231.9,362.9,232.1,361.8,232.1z"/>
	<circle class="st2" cx="416.4" cy="198" r="6.8"/>
	<circle class="st2" cx="391.4" cy="225.1" r="6.8"/>
	<path class="st2" d="M108.5,367.6c-13.2,0-23.9-10.7-23.9-23.9c0-13.2,10.7-23.9,23.9-23.9s23.9,10.7,23.9,23.9
		C132.4,356.9,121.7,367.6,108.5,367.6z M108.5,333.5c-5.6,0-10.2,4.6-10.2,10.2s4.6,10.2,10.2,10.2s10.2-4.6,10.2-10.2
		S114.2,333.5,108.5,333.5z"/>
</g>
<path class="st4" d="M47.5,195.4h35.8v53.7l53.7-89.5h-35.8v-44.7L47.5,195.4z"/>
<path class="st4" d="M385.3,359.8h27.3v41l41-68.3h-27.3v-34.1L385.3,359.8z"/>
<path class="st2" d="M323.7,269.1c-1.7,0-3.5-0.7-4.8-2l-19.3-19.3c-2.7-2.7-2.7-7,0-9.7s7-2.7,9.7,0l19.3,19.3c2.7,2.7,2.7,7,0,9.7
	C327.2,268.4,325.4,269.1,323.7,269.1z"/>
<path class="st2" d="M304.4,269.1c-1.7,0-3.5-0.7-4.8-2c-2.7-2.7-2.7-7,0-9.7l19.3-19.3c2.7-2.7,7-2.7,9.7,0c2.7,2.7,2.7,7,0,9.7
	l-19.3,19.3C307.9,268.4,306.1,269.1,304.4,269.1z"/>
<path class="st2" d="M214.5,269.1c-1.7,0-3.5-0.7-4.8-2l-19.3-19.3c-2.7-2.7-2.7-7,0-9.7c2.7-2.7,7-2.7,9.7,0l19.3,19.3
	c2.7,2.7,2.7,7,0,9.7C217.9,268.4,216.2,269.1,214.5,269.1L214.5,269.1z"/>
<path class="st2" d="M195.1,269.1c-1.7,0-3.5-0.7-4.8-2c-2.7-2.7-2.7-7,0-9.7l19.3-19.3c2.7-2.7,7-2.7,9.7,0c2.7,2.7,2.7,7,0,9.7
	L200,267.1C198.6,268.4,196.9,269.1,195.1,269.1z"/>
<path class="st4" d="M151.5,93.5c-2.1,0-4.1-0.6-5.9-1.8l-31.9-21.3c-4.9-3.3-6.2-9.9-2.9-14.8c3.3-4.8,9.8-6.1,14.7-2.9L157.5,74
	c4.9,3.3,6.2,9.9,3,14.8C158.4,91.7,155.1,93.5,151.5,93.5L151.5,93.5z"/>
<path class="st4" d="M183.5,72.2c-3.6,0-6.9-1.8-8.9-4.7l-21.3-31.9c-3.3-4.9-2-11.5,2.9-14.8c4.9-3.3,11.5-2,14.8,2.9
	c0,0,0,0.1,0.1,0.1l21.3,31.9c3.3,4.9,1.9,11.5-2.9,14.8C187.6,71.6,185.6,72.2,183.5,72.2z"/>
<path class="st4" d="M343.1,72.2c-5.9,0-10.6-4.8-10.6-10.7c0-2.1,0.6-4.1,1.8-5.9l21.3-31.9c3.3-4.9,9.9-6.2,14.8-2.9
	c4.8,3.3,6.1,9.8,2.9,14.7L352,67.5C350,70.5,346.7,72.2,343.1,72.2z"/>
<path class="st4" d="M375.1,93.5c-5.9,0-10.6-4.8-10.7-10.6c0-3.6,1.8-6.9,4.7-8.9l31.9-21.3c4.9-3.2,11.5-1.9,14.7,3
	c3.2,4.9,1.9,11.4-2.9,14.7L381,91.7C379.2,92.9,377.2,93.5,375.1,93.5z"/>
</svg>
