<?xml version="1.0" encoding="utf-8"?>
<svg viewBox="0 0 500 500" xmlns="http://www.w3.org/2000/svg">
  <g id="SvgjsG1097" transform="matrix(1, 0, 0, 1, 104.8561019897461, 52.66964340209938)">
    <svg xmlns="http://www.w3.org/2000/svg" viewBox="0 0 50 50" width="288" height="288"/>
  </g>
  <path d="M 253.911 89.667 C 156.34 89.667 71.465 144.019 27.907 224.097 C 71.465 304.171 156.34 358.523 253.911 358.523 C 351.481 358.523 436.36 304.171 479.919 224.097 C 436.36 144.019 351.485 89.667 253.911 89.667 Z M 253.911 89.667" fill="#fff" transform="matrix(1, 0, 0, 1, 0, -2.2737367544323206e-13)"/>
  <path d="M 349.118 222.941 C 349.118 275.523 306.493 318.148 253.911 318.148 C 201.333 318.148 158.708 275.523 158.708 222.941 C 158.708 170.363 201.333 127.738 253.911 127.738 C 306.493 127.738 349.118 170.363 349.118 222.941 Z M 349.118 222.941" style="fill: rgb(236, 223, 170);" transform="matrix(1, 0, 0, 1, 0, -2.2737367544323206e-13)"/>
  <path d="M 253.911 89.667 C 156.34 89.667 71.465 144.019 27.907 224.097 C 71.465 184.058 156.34 156.882 253.911 156.882 C 351.481 156.882 436.36 184.058 479.919 224.097 C 436.36 144.019 351.485 89.667 253.911 89.667 Z M 253.911 89.667" fill="#fccb9d" transform="matrix(1, 0, 0, 1, 0, -2.2737367544323206e-13)"/>
  <path d="M 303.676 222.941 C 303.676 250.425 281.395 272.706 253.911 272.706 C 226.426 272.706 204.149 250.425 204.149 222.941 C 204.149 195.456 226.426 173.179 253.911 173.179 C 281.395 173.179 303.676 195.456 303.676 222.941 Z M 303.676 222.941" fill="#686c83" transform="matrix(1, 0, 0, 1, 0, -2.2737367544323206e-13)"/>
  <path d="M 256.669 202.402 C 256.669 215.355 246.169 225.855 233.215 225.855 C 220.262 225.855 209.762 215.355 209.762 202.402 C 209.762 189.449 220.262 178.949 233.215 178.949 C 246.169 178.949 256.669 189.449 256.669 202.402 Z M 256.669 202.402" fill="#fff" transform="matrix(1, 0, 0, 1, 0, -2.2737367544323206e-13)"/>
  <path d="M 254.438 348.523 C 254.43 348.523 254.419 348.523 254.411 348.523 L 253.911 348.523 C 248.387 348.523 243.911 352.999 243.911 358.523 C 243.911 364.046 248.387 368.523 253.911 368.523 L 254.465 368.523 C 259.989 368.507 264.454 364.019 264.438 358.495 C 264.422 352.98 259.95 348.523 254.438 348.523 Z M 254.438 348.523" transform="matrix(1, 0, 0, 1, 0, -2.2737367544323206e-13)"/>
  <path d="M 488.704 219.316 C 441.844 133.179 351.879 79.667 253.915 79.667 C 155.946 79.667 65.977 133.179 19.122 219.316 C 17.501 222.296 17.501 225.894 19.122 228.874 C 38.426 264.359 66.044 295.538 98.997 319.035 C 132.551 342.964 171.754 358.968 212.368 365.312 C 217.829 366.163 222.938 362.429 223.79 356.972 C 224.645 351.515 220.911 346.402 215.454 345.55 C 142.743 334.191 77.981 289.824 40.653 226.273 C 68.68 203.257 110.739 185.792 159.817 175.941 C 152.579 190.449 148.708 206.546 148.708 222.941 C 148.708 280.952 195.903 328.148 253.911 328.148 C 311.922 328.148 359.118 280.952 359.118 222.941 C 359.118 206.546 355.243 190.445 348.008 175.941 C 397.086 185.792 439.145 203.257 467.172 226.273 C 429.844 289.824 365.079 334.191 292.372 345.55 C 286.915 346.402 283.18 351.515 284.032 356.972 C 284.805 361.906 289.059 365.433 293.903 365.433 C 294.415 365.433 294.934 365.39 295.458 365.312 C 336.071 358.968 375.274 342.964 408.829 319.035 C 441.782 295.538 469.399 264.359 488.704 228.874 C 490.325 225.894 490.325 222.296 488.704 219.316 Z M 253.911 99.667 C 327.215 99.667 395.676 132.058 442.114 186.605 C 410.77 170.644 372.051 158.906 329.586 152.484 C 328.989 152.339 328.383 152.245 327.774 152.214 C 304.086 148.722 279.258 146.882 253.915 146.882 C 228.567 146.882 203.739 148.722 180.051 152.214 C 179.442 152.245 178.836 152.339 178.239 152.484 C 135.774 158.906 97.055 170.644 65.711 186.605 C 112.149 132.058 180.61 99.667 253.911 99.667 Z M 233.215 188.949 C 240.633 188.949 246.669 194.984 246.669 202.402 C 246.669 209.82 240.633 215.855 233.215 215.855 C 225.797 215.855 219.762 209.82 219.762 202.402 C 219.762 194.984 225.797 188.949 233.215 188.949 Z M 233.215 235.855 C 251.661 235.855 266.669 220.847 266.669 202.402 C 266.669 195.535 264.586 189.144 261.024 183.827 C 279.567 187.191 293.676 203.445 293.676 222.941 C 293.676 244.867 275.84 262.702 253.911 262.702 C 234.516 262.702 218.329 248.742 214.848 230.339 C 220.126 233.824 226.438 235.855 233.215 235.855 Z M 339.118 222.941 C 339.118 269.925 300.895 308.148 253.911 308.148 C 206.93 308.148 168.708 269.925 168.708 222.941 C 168.708 204.367 174.813 186.253 185.977 171.511 C 200.868 169.441 216.247 168.035 231.946 167.359 C 230.305 168.003 228.692 168.722 227.114 169.515 C 213.446 172.046 202.669 182.91 200.27 196.628 C 196.278 204.769 194.149 213.824 194.149 222.941 C 194.149 255.894 220.958 282.706 253.911 282.706 C 286.868 282.706 313.676 255.894 313.676 222.941 C 313.676 197.718 297.965 176.113 275.821 167.355 C 291.54 168.035 306.938 169.437 321.848 171.515 C 333.008 186.253 339.118 204.367 339.118 222.941 Z M 339.118 222.941" style="fill: rgb(219, 219, 219);" transform="matrix(1, 0, 0, 1, 0, -2.2737367544323206e-13)"/>
  <g transform="matrix(1, 0, 0, 1, 434.2590026855469, -355.3052978515625)">
    <g class="st8" style="opacity: 0.71;" transform="matrix(1, 0, 0, 1, -441.078949, 216.924072)">
      <path class="st9" d="M260.1,303.1c8.3-0.2,15.1-7.1,15-15.4c0-8.5-7.2-15.6-15.6-15.4c-8.3,0.3-15,7.1-15,15.4&#10;&#9;&#9;&#9;C244.4,296.1,251.6,303.2,260.1,303.1z M259.7,280.7c2.3,3.3,4.7,5.2,4.6,6.8c0,0,0,0,0,0C264.4,285.8,262,283.9,259.7,280.7&#10;&#9;&#9;&#9;c-2.2,3.2-4.7,5.3-4.6,6.8c0,0,0,0,0,0C254.8,286,257.4,283.9,259.7,280.7z" style="fill-rule: nonzero; fill: rgba(0, 0, 0, 0.99); paint-order: fill;"/>
      <path class="st9" d="M260,327.4c-7.2-0.1-13.1,5.6-13.2,12.8c-0.1,7.1,5.9,13.1,13,13.2c6.8,0,12.7-5.8,12.9-12.7&#10;&#9;&#9;&#9;C272.9,333.5,267.2,327.5,260,327.4z M260.1,344.2c-1.7-0.3-3-2.6-4.5-4c0,0,0,0,0,0C257.1,341.7,258.4,343.9,260.1,344.2&#10;&#9;&#9;&#9;c1.2,0.1,2.9-2.2,5.5-4.3c-1.7-1.1-3.1-2.3-4.2-3c1.1,0.7,2.4,1.9,4.2,3C263.1,342.1,261.4,344.5,260.1,344.2z" style="fill-rule: nonzero; fill: rgba(0, 0, 0, 0.99); paint-order: fill;"/>
      <path class="st9" d="M195.6,359.7c-8.8-0.1-15.6,6.5-15.9,15.2c-0.2,8.9,6.7,16.2,15.6,16.3c8.8,0.1,16.1-7.3,16-16&#10;&#9;&#9;&#9;C211.2,366.6,204.3,359.8,195.6,359.7z M194.9,370.2c1.9,1.7,4.9,3.1,5.4,5.1C199.7,373.3,196.8,371.9,194.9,370.2z M195.8,382.5&#10;&#9;&#9;&#9;c2.1-3.2,4.5-5.4,4.5-6.9C200.3,377.1,197.9,379.4,195.8,382.5z" style="fill-rule: nonzero; fill: rgba(0, 0, 0, 0.99); paint-order: fill;"/>
      <path class="st9" d="M236.2,413.7c-7.9,0.1-14.2,6.7-14,14.6c0.2,7.8,6.6,13.9,14.2,13.8c8-0.1,14.4-6.5,14.4-14.3&#10;&#9;&#9;&#9;C250.8,420.2,243.9,413.5,236.2,413.7z" style="fill-rule: nonzero; fill: rgba(0, 0, 0, 0.99); paint-order: fill;"/>
      <path class="st9" d="M324.1,379.8c-7.3,0.1-13,5.6-13.2,12.7c-0.1,7.3,5.9,13.4,13.2,13.3c7.5,0,13.2-5.8,13.1-13.3&#10;&#9;&#9;&#9;C337.1,385.3,331.5,379.8,324.1,379.8z M320.5,394.3c0.7,1.2,2.4,2.5,3.9,4.5C322.8,396.9,321.1,395.5,320.5,394.3z M324.7,398.2&#10;&#9;&#9;&#9;c1.8-2.5,3.8-4.3,3.4-5.5c-0.4-1.7-2.8-2.8-4.4-4.2c0,0,0,0,0,0c1.5,1.3,4.1,2.5,4.5,4.2C328.5,394,326.5,395.8,324.7,398.2z" style="fill-rule: nonzero; fill: rgba(0, 0, 0, 0.99); paint-order: fill;"/>
      <path class="st9" d="M316.8,350.2c9.2-3.6,14-13.5,13.2-24.5c-0.3-4.2-0.9-8.6-6.5-8.4c-5.8,0.2-5.7,4.6-5.4,8.9&#10;&#9;&#9;&#9;c0.5,7-1.9,12.1-9,14.7c-10.6,4-14.8,12.5-15.3,23.5c0.1,1.5-0.3,3.4,0.5,4.4c1.9,2.5,4.3,4.3,6.5,6.5c1.8-2.5,5.1-5.1,4.9-7.4&#10;&#9;&#9;&#9;C305.1,358.9,308.2,353.6,316.8,350.2z" style="fill-rule: nonzero; fill: rgba(0, 0, 0, 0.99); paint-order: fill;"/>
      <path class="st9" d="M288.8,404.4c-2.5-1.8-5-5.1-7.3-5c-8.8,0.5-14.3-2.5-17.6-11.2c-3.9-10.1-18.8-16-28.7-12&#10;&#9;&#9;&#9;c-2,0.8-4.2,4-4,5.9c0.2,1.9,3,3.6,5.1,5c1,0.6,2.6,0,4-0.1c7.1-0.4,12,2.2,14.6,9.3c3.8,10.5,12.3,14.3,22.4,14.8&#10;&#9;&#9;&#9;c2.1,0,4.1,0.5,5.2-0.3C284.8,409,286.8,406.6,288.8,404.4z" style="fill-rule: nonzero; fill: rgba(0, 0, 0, 0.99); paint-order: fill;"/>
      <path class="st9" d="M234.7,303.7c-3.2,1.3-9.1,2.3-9.3,3.8c-1,8.5-7.7,8.9-13.3,11.4c-9.1,4-13.2,12.8-10.2,22.9&#10;&#9;&#9;&#9;c3.4-1.4,9.5-2.4,9.7-4.1c1-7.5,6.5-8.3,11.7-10.4C233.8,323.2,238.4,314.2,234.7,303.7z" style="fill-rule: nonzero; fill: rgba(0, 0, 0, 0.99); paint-order: fill;"/>
      <path class="st9" d="M283.6,427.3c0.3,2.3,3.2,4.3,5,6.5c2.1-2,5.2-3.6,5.7-5.9c0.4-1.8-2.5-4.2-4.9-7.8&#10;&#9;&#9;&#9;C286.7,423.3,283.4,425.5,283.6,427.3z" style="fill-rule: nonzero; fill: rgba(0, 0, 0, 0.99); paint-order: fill;"/>
      <path class="st9" d="M230.9,352c-2,2.1-5.1,3.7-5.6,6.1c-0.4,1.8,2.6,4.2,5.3,8c2.6-3.8,5.4-6.2,5.3-8.1&#10;&#9;&#9;&#9;C235.7,355.8,232.7,353.9,230.9,352z" style="fill-rule: nonzero; fill: rgba(0, 0, 0, 0.99); paint-order: fill;"/>
      <path class="st9" d="M183.7,346c1.9-1.9,5-3.5,5.3-5.6c0.3-2-2.4-4.4-4.7-8.3c-2.8,3.6-6,5.9-5.8,7.6&#10;&#9;&#9;&#9;C178.8,342,181.8,344,183.7,346z" style="fill-rule: nonzero; fill: rgba(0, 0, 0, 0.99); paint-order: fill;"/>
      <path class="st9" d="M272.1,375.6c-0.1,2,2.6,4.1,5.3,7.8c2.6-3.7,5.6-6.3,5.2-7.8c-0.5-2.4-3.6-4-5.7-6&#10;&#9;&#9;&#9;C275.2,371.6,272.2,373.5,272.1,375.6z" style="fill-rule: nonzero; fill: rgba(0, 0, 0, 0.99); paint-order: fill;"/>
      <path class="st9" d="M300.2,322.9c-0.7-2.3-3.9-3.7-6-5.6c-1.7,2.1-4.5,4-4.6,6.1c0,2,2.8,4,5.7,7.6&#10;&#9;&#9;&#9;C297.8,327.1,300.7,324.5,300.2,322.9z" style="fill-rule: nonzero; fill: rgba(0, 0, 0, 0.99); paint-order: fill;"/>
    </g>
  </g>
  <g id="Page-1" transform="matrix(1, 0, 0, 1, 77.70260620117188, 235.20387268066384)">
    <g transform="translate(-1 -1)">
      <path id="Shape" class="st10" d="M409.9,117.2l-23.7-59.4c-3.9-9.9-11.6-17.7-21.4-21.9s-20.8-4.3-30.6-0.4l-61.8,24.7&#10;&#9;&#9;&#9;C258,66,248.3,79.6,247.4,95.1l-2.3,40.7L254,158l29.7,27.9c11.3,10.6,27.8,13.7,42.2,8l61.8-24.7c9.9-3.9,17.7-11.6,21.9-21.4&#10;&#9;&#9;&#9;S413.9,127.1,409.9,117.2z M389.1,108.3l-29.7,11.9l-11.9-29.7l29.7-11.8L389.1,108.3z M344.6,126.1L314.9,138L303,108.3&#10;&#9;&#9;&#9;l29.7-11.9L344.6,126.1z M340.1,50.4c12.3-4.9,26.3,1.1,31.2,13.4l-29.7,11.8l-8.9-22.3L340.1,50.4z M317.9,59.3l8.9,22.3&#10;&#9;&#9;&#9;l-29.7,11.9l-8.9-22.3L317.9,59.3z M263.3,96c0.5-7.3,4.2-14.1,10.2-18.3l8.7,21.7l-19.5,7.8L263.3,96z M267.5,148.8l-6.3-15.6&#10;&#9;&#9;&#9;l0.4-8.3l26.5-10.5l11.9,29.7l-26.4,10.6L267.5,148.8z M294.6,174.3l-8.1-7.7l19.5-7.8l8.7,21.7&#10;&#9;&#9;&#9;C307.4,181.6,300,179.3,294.6,174.3z M329.7,175.1l-8.9-22.3l29.7-11.8l8.9,22.3L329.7,175.1z M381.7,154.4l-7.4,3l-8.9-22.3&#10;&#9;&#9;&#9;l29.7-11.9C400,135.5,394,149.4,381.7,154.4z" style="fill: rgb(255, 0, 0);"/>
      <path class="st11" d="M245.1,135.7L254,158l-18.6,7.4c-2.1,0.8-4.4-0.2-5.2-2.2l-5.9-14.9c-0.8-2.1,0.2-4.4,2.2-5.2L245.1,135.7z" style="fill: rgb(242, 10, 10);"/>
      <path class="st12" d="M224.5,145.5l8.3,20.6L124,209.6c-5.7,2.3-12.2-0.5-14.4-6.2c-2.3-5.7,0.5-12.2,6.2-14.4L224.5,145.5z" style="fill: rgb(173, 42, 42);"/>
    </g>
  </g>
</svg>