<svg xmlns="http://www.w3.org/2000/svg" viewBox="0 0 512 512" id="blink"><circle cx="256" cy="256" r="256" fill="#ecb13a"></circle><circle cx="250.2" cy="244" r="242.5" fill="#ffde4f"></circle><path fill="#645033" d="M196.9 215.8c-2.1 0-4.2-.8-5.8-2.4-20.1-20.1-52.9-20.1-73 0-3.2 3.2-8.5 3.2-11.7 0-3.2-3.2-3.2-8.5 0-11.7 26.6-26.6 69.8-26.6 96.4 0 3.2 3.2 3.2 8.5 0 11.7-1.7 1.6-3.8 2.4-5.9 2.4zm64 179.3c-68.2 0-123.8-45.1-123.8-100.5 0-4.6 3.7-8.3 8.3-8.3 4.6 0 8.3 3.7 8.3 8.3 0 46.3 48.1 83.9 107.2 83.9s107.2-37.7 107.2-83.9c0-4.6 3.7-8.3 8.3-8.3 4.6 0 8.3 3.7 8.3 8.3 0 55.5-55.6 100.5-123.8 100.5z"></path><circle cx="365.4" cy="200.4" r="34.4" fill="#645033"></circle></svg>